<?xml version="1.0" encoding="utf-8" ?><svg xmlns="http://www.w3.org/2000/svg" xmlns:xlink="http://www.w3.org/1999/xlink" width="1254" height="1254" viewBox="0 0 1254 1254"><path fill="white" d="M0 0L26.1998 0L107.511 0L134.664 0L215.98 0L297.489 0L379.011 0L406.258 0L433.498 0L460.639 0L542.471 0L569.575 0L651.374 0L677.912 0L705.251 0L732.336 0L759.351 0L840.601 0L922.161 0L949.121 0L976.435 0L1057.98 0L1085.12 0L1112.25 0L1139.44 0L1166.74 0L1193.97 0L1221.21 0L1248.45 0L1254 0L1254 27.7714L1254 54.8979L1254 136.836L1254 164.083L1254 191.704L1254 273.015L1254 300.639L1254 328.036L1254 355.379L1254 545.966L1254 573.173L1254 600.396L1254 627.758L1254 654.866L1254 682.255L1254 763.86L1254 791.231L1254 818.075L1254 845.587L1254 872.64L1254 899.964L1254 1090.44L1254 1117.76L1254 1254L0 1254L0 1172.18L0 1144.97L0 791.112L0 763.859L0 736.567L0 709.164L0 682.097L0 654.986L0 573.152L0 546.01L0 434.715L0 328.066L0 300.556L0 273.454L0 245.864L0 218.445L0 191.184L0 164.195L0 82.1405L0 54.968L0 27.6181L0 0Z"/><path fill="#F9F8F8" d="M922.161 0L949.121 0L976.435 0L1057.98 0L1085.12 0L1112.25 0L1139.44 0L1166.74 0L1193.97 0L1221.21 0L1248.45 0L1254 0L1254 27.7714L1254 54.8979L1254 136.836C1252.08 136.888 1251.14 136.831 1249.26 136.687C1247.24 134.518 1248.96 116.296 1248.38 110.622C1247.05 109.192 1247.19 109.682 1244.46 109.567L1244.11 109.128C1246.14 109.098 1245.91 109.295 1247.74 108.619C1248.24 101.357 1247.9 90.2226 1247.88 82.6611C1245.74 82.692 1244.21 82.6094 1242.08 82.4593C1243.78 81.9072 1246.58 82.094 1248.5 82.0833L1248.42 55.2512C1239.23 55.0578 1230.03 55.0366 1220.84 55.1875C1221.61 46.1979 1221.29 36.6867 1221.22 27.6137C1212.37 27.8892 1203.02 27.6625 1194.01 27.8517L1194.07 55.301C1184.99 54.9123 1175.97 55.0652 1166.88 55.2229C1166.54 46.666 1166.81 36.3283 1166.81 27.6352C1157.7 27.7544 1148.58 27.7285 1139.46 27.5575L1139.58 55.1954C1130.36 55.0144 1121.13 55.0268 1111.9 55.2324C1112.46 46.253 1112.36 36.6591 1112.34 27.6587L1084.99 27.6452C1084.97 36.8127 1085.02 45.9802 1085.14 55.1469C1076.06 55.08 1066.98 55.0848 1057.9 55.1614C1057.79 64.2125 1057.86 73.265 1058.12 82.3131C1049.05 82.2739 1039.98 82.2843 1030.91 82.3442C1030.96 73.2973 1030.93 64.2501 1030.82 55.2038C1021.7 54.981 1012.58 54.9583 1003.47 55.1357L1003.51 27.6752C994.524 27.7344 985.535 27.7315 976.547 27.6666C976.538 36.7356 976.417 46.0954 976.677 55.1342L949.087 55.0496C949.35 46.1401 949.155 36.6137 949.115 27.6542L922.067 27.6681L922.161 0Z"/><path fill="#F9F8F8" d="M651.374 0L677.912 0L705.251 0L732.336 0C732.291 6.63997 731.812 21.2341 732.779 27.1385C734.079 27.4318 738.513 27.7738 738.607 27.8595C735.679 28.8123 734.426 27.4897 732.997 28.7872C732.852 37.3557 732.829 45.9259 732.929 54.4951C734.263 54.5054 740.113 54.3124 740.713 54.8448L741.805 54.7811C740.449 54.6406 734.263 55.1373 732.33 55.1616L732.315 82.2304C723.321 82.2422 714.227 82.1829 705.242 82.3026L705.345 55.0612C697.322 55.4408 686.346 55.1136 678.135 55.1382L678.134 27.6567L651.192 27.7701C651.135 18.513 651.195 9.25556 651.374 0Z"/><path fill="#F9F8F8" d="M215.98 0L297.489 0C297.373 27.4223 297.437 54.8451 297.681 82.2667C288.6 82.186 279.519 82.2176 270.439 82.3615C270.506 75.077 270.435 67.8027 270.368 60.5253C270.327 56.0353 271.335 57.3518 270.519 52.2944C270.372 53.7419 270.498 53.2691 269.736 54.6367C265.179 55.268 248.528 54.8336 243.397 54.7951C243.451 51.8669 243.313 49.3947 243.158 46.4871L243.11 52.9624C242.49 45.3292 242.746 35.6831 242.773 27.866L215.96 27.866C215.915 18.5774 215.922 9.28855 215.98 0Z"/><path fill="#F9F8F8" d="M759.351 0L840.601 0C840.52 9.20414 840.568 18.409 840.744 27.6118C832.373 27.9565 821.947 27.6244 813.422 27.5839C813.604 36.7737 813.366 45.4781 813.761 54.7951C821.867 54.7783 832.722 54.4681 840.593 55.0566C840.625 52.2791 840.705 49.5024 840.835 46.7277C841.015 49.1674 841.176 52.5662 842.564 54.4879L844.695 54.6259C843.108 54.9549 843.043 55.0998 841.524 55.7739C841.194 56.2535 840.864 56.7331 840.534 57.2127C840.451 63.0074 840.692 77.2141 840.758 82.253C832.999 82.7162 821.484 82.3585 813.441 82.3611L813.441 55.0987C804.398 54.9938 795.353 55.0191 786.311 55.1747C786.859 47.2277 786.558 35.8827 786.577 27.6864L759.141 27.7648L759.351 0Z"/><path fill="#F9F8F8" d="M0 654.986C8.5545 654.958 17.6952 655.09 26.2019 654.841L26.2598 682.135C35.1585 681.981 44.059 681.963 52.9582 682.082C52.8976 691.151 53.012 700.22 53.3013 709.285C44.2954 709.24 35.2894 709.256 26.2838 709.334C26.1014 717.432 25.6756 728.71 26.1692 736.666L0 736.567L0 709.164L0 682.097L0 654.986Z"/><path fill="#F9F8F8" d="M0 0L26.1998 0C26.1331 9.18908 26.1775 18.3786 26.333 27.5666C32.2359 27.4657 46.6906 27.1016 51.893 27.9771C43.5775 28.185 35.2591 28.248 26.9414 28.166L26.9414 54.4951C28.4544 54.5005 31.9931 54.2727 33.1075 54.8868C30.6401 55.0745 28.49 55.2131 26.0168 55.2494L26.0168 82.2806L0 82.1405L0 54.968L0 27.6181L0 0Z"/><path fill="#F9F8F8" d="M0 328.066L26.0201 327.898L26.3223 375.4C26.2929 385.263 25.7954 399.507 26.3168 408.986C18.1955 409.126 9.62042 410.181 1.83691 409.944C1.86352 413.907 2.43698 433.608 1.11852 435.694C0.0863147 434.927 0.382405 435.324 0 434.715L0 328.066Z"/><path fill="#F9F8F8" d="M433.498 0L460.639 0C460.597 9.21163 460.483 18.5266 460.56 27.729L433.447 27.7456C433.37 36.8522 433.369 45.9594 433.445 55.066L406.236 55.1552C406.503 46.0952 406.401 36.5528 406.438 27.4544C415.384 27.6132 424.333 27.6047 433.279 27.4292C433.476 18.3651 433.437 9.08324 433.498 0Z"/><path fill="#F9F8F8" d="M-8.70137e-15 273.454C8.76077 273.264 17.5228 273.136 26.2854 273.071C26.2319 281.434 25.8618 292.277 26.2896 300.446C30.373 300.47 48.2034 300.349 50.9062 301.001C42.9209 301.268 34.9306 301.352 26.9414 301.254C26.9319 305.773 27.1496 323.075 26.5769 326.494C25.9327 319.368 26.1899 308 26.2233 300.616L0 300.556L0 273.454L-8.70137e-15 273.454Z"/><path fill="#F9F8F8" d="M379.011 0L406.258 0L406.265 27.6943C397.932 27.6912 387.204 27.9806 379.007 27.5982C378.822 18.6407 379.007 9.01284 379.011 0Z"/><path fill="#F9F8F8" d="M351.894 27.4396C360.817 27.4392 370.122 27.3122 379.007 27.5982C379.265 36.3639 379.047 46.1591 379.15 55.0846L351.891 55.2049L351.894 27.4396Z"/><path fill="#F9F8F8" d="M542.471 0L569.575 0C569.346 8.97724 569.509 18.5187 569.519 27.5385L542.382 27.7452C542.228 18.6706 542.424 9.11131 542.471 0Z"/><path fill="#F9F8F8" d="M107.511 0L134.664 0C134.613 9.28743 134.557 18.3123 134.864 27.5924L107.562 27.7518C107.613 18.5767 107.773 9.14655 107.511 0Z"/><path fill="#F9F8F8" d="M433.445 55.066C442.482 54.9072 451.521 54.8637 460.558 54.9355L460.614 82.2201L433.443 82.3247L433.445 55.066Z"/><path fill="#F9F8F8" d="M922.036 54.9494C931.053 54.8461 940.071 54.8796 949.087 55.0496C949.34 63.8981 949.2 73.3608 949.22 82.2553L922.116 82.2721L922.036 54.9494Z"/><path fill="#F9F8F8" d="M26.1981 545.878C26.2006 540.753 25.9263 525.345 26.6667 521.14C28.2132 535.799 25.486 556.689 26.416 573.253L0 573.152L0 546.01L26.1981 545.878Z"/><path fill="#F9F8F8" d="M0 218.445C8.6178 218.442 17.5561 218.556 26.1458 218.359C26.1672 226.798 25.8697 237.981 26.3578 246.196C17.8975 246.118 8.37284 246.241 0 245.864L0 218.445Z"/><path fill="#F9F8F8" d="M0 763.859C5.64326 763.935 20.5806 764.454 25.6329 763.379C26.506 761.691 26.3119 760.269 26.331 758.343L26.8827 758.355C26.9363 761.148 26.4107 762.357 27.9642 764.013C27.4729 764.528 26.9815 765.042 26.4902 765.556C25.6225 771.861 26.3207 785.135 26.3865 791.256L0 791.112L0 763.859Z"/><path fill="#F9F8F8" d="M0 164.195L26.3217 164.068C26.2944 172.736 26.0291 182.766 26.3752 191.327L0 191.184L0 164.195Z"/><path fill="#F9F8F8" d="M0 1144.97L26.0168 1144.94C25.9961 1153.6 25.6992 1163.77 26.4863 1172.25C17.6577 1172.18 8.82883 1172.16 -2.17534e-15 1172.18L0 1144.97Z"/><path fill="#F9F8F8" d="M1254 845.587C1251.95 845.636 1251.53 845.649 1249.42 845.353C1247.59 843.448 1248.48 823.13 1248.36 818.471C1249.51 817.689 1252.29 818.049 1254 818.075L1254 845.587Z"/><path fill="#F9F8F8" d="M1254 191.704C1251.85 191.802 1250.84 192.021 1248.82 191.23C1248.03 188.672 1248.51 168.136 1248.69 164.654C1250.27 163.741 1251.86 164.104 1254 164.083L1254 191.704Z"/><path fill="#F9F8F8" d="M1254 300.639C1251.16 300.578 1250.81 301.023 1248.69 299.8C1248.57 299.009 1248.48 298.216 1248.41 297.42C1248.18 294.923 1248.29 274.006 1249.02 273.154L1254 273.015L1254 300.639Z"/><path fill="#F9F8F8" d="M1254 899.964C1251.7 900.047 1250.53 900.384 1248.5 899.609C1248.44 893.445 1247.96 878.888 1248.66 873.404C1250.81 872.151 1251.06 872.631 1254 872.64L1254 899.964Z"/><path fill="#F9F8F8" d="M1254 573.173C1251.63 573.145 1251.02 573.108 1248.68 572.731C1248.47 569.416 1248.07 548.45 1248.8 546.057C1250.54 545.258 1252.04 545.713 1254 545.966L1254 573.173Z"/><path fill="#F9F8F8" d="M1254 682.255C1251.61 682.327 1250.93 682.351 1248.59 681.998C1248.05 679.132 1248.8 674.014 1248.54 670.678C1248.14 665.608 1247.41 660.676 1249.23 655.846C1251.23 654.398 1250.95 654.897 1254 654.866L1254 682.255Z"/><path fill="#F9F8F8" d="M1254 627.758C1251.87 627.834 1250.82 628.035 1248.81 627.284C1248.18 624.314 1248.47 605.187 1248.53 600.983C1249.85 600.184 1252.2 600.434 1254 600.396L1254 627.758Z"/><path fill="#F9F8F8" d="M1254 1117.76C1251.72 1117.8 1251.04 1117.8 1248.8 1117.52C1248.05 1115.68 1248.54 1094.5 1248.6 1090.88C1249.85 1090.28 1252.43 1090.46 1254 1090.44L1254 1117.76Z"/><path fill="#F9F8F8" d="M1254 791.231C1252.26 791.194 1250.52 791.146 1248.78 791.086C1248.12 788.905 1248.47 767.556 1248.73 764.575C1250.19 763.531 1252.08 763.847 1254 763.86L1254 791.231Z"/><path fill="#F9F8F8" d="M1254 355.379C1252.14 355.337 1250.66 355.212 1248.81 355.035C1248.15 352.546 1248.45 331.785 1248.71 328.64C1250.76 327.533 1251.28 327.99 1254 328.036L1254 355.379Z"/><path fill="#063864" d="M613.055 253.885C717.486 246.202 808.329 324.732 815.829 429.177C823.33 533.621 744.641 624.326 640.183 631.644C535.984 638.944 445.552 560.491 438.07 456.305C430.588 352.118 508.882 261.549 613.055 253.885Z"/><path fill="#F9F8F8" d="M528.985 574.463C480.945 538.72 456.186 479.649 464.381 420.334C472.576 361.019 512.426 310.875 568.358 289.497C624.29 268.118 687.426 278.899 733.095 317.626C784.234 360.991 803.85 431.104 782.64 494.711C766.798 542.218 730.132 579.893 683.072 597.018C636.012 614.142 583.709 608.843 541.04 582.628C536.903 580.086 532.881 577.362 528.985 574.463Z"/><path fill="#063864" d="M619.508 678.705C748.989 673.146 915.724 742.875 938.575 885.278C940.886 899.677 945.796 914.984 928.479 919.282C912.974 915.683 917.063 907.882 915.25 894.888C899.958 785.319 792.499 725.08 692.343 709.209C672.812 706.114 655.199 705.007 635.544 704.302C610.135 703.877 584.738 705.688 559.647 709.716C461.011 725.326 356.853 784.431 338.947 891.008C337.358 900.761 340.597 917.803 326.447 918.922C306.846 920.471 314.26 889.66 316.468 878.783C324.211 840.779 342.435 805.701 369.08 777.517C432.803 708.87 528.504 682.003 619.508 678.705Z"/><path fill="#F9F8F8" d="M949.385 682.004L976.618 681.998C976.518 691.045 976.515 700.094 976.609 709.142C985.608 709.199 994.606 709.182 1003.6 709.091C1003.53 720.505 1003.52 731.919 1003.58 743.334C1003.58 749.353 1003.79 757.265 1003.11 763.108C998.877 764.707 982.232 764.176 976.626 764.156C976.73 772.931 976.705 781.708 976.552 790.482C975.526 791.495 974.583 791.119 972.634 791.183L972.459 791.678C974.253 791.644 974.765 791.426 976.248 792.379C976.954 794.896 976.513 812.836 976.354 816.629C975.277 817.728 973.619 817.527 971.655 817.779C970.005 818.855 952.718 818.303 949.634 818.274C948.183 810.084 949.318 800.497 948.605 792.243L946.807 791.722C947.357 790.589 948.512 789.178 948.43 789.331C950.4 785.648 947.932 768.178 949.575 764.565L952.083 763.88L950.07 763.724L949.494 762.606L948.949 762.794C948.275 757.411 948.718 742.579 948.76 736.592L922.05 736.665L922.03 709.078C930.894 709.232 940.037 709.147 948.926 709.178C949.666 700.361 949.408 690.909 949.385 682.004Z"/><path fill="#F9F8F8" d="M1003.33 191.329C1004.91 194.178 1004.23 213.659 1004.18 217.98C1012.47 217.949 1020.47 217.882 1028.76 218.272C1026.58 218.701 1007.09 218.633 1003.62 218.657C1003.5 227.836 1003.53 237.015 1003.7 246.193C994.687 246.028 985.669 246.061 976.654 246.292C976.471 255.583 976.34 264.024 976.68 273.295C967.472 273.248 958.264 273.258 949.057 273.328L949.12 246.189C940.138 246.08 930.993 246.177 921.998 246.186C922.116 236.913 922.142 227.639 922.077 218.365C930.903 218.586 940.346 218.404 949.218 218.382C949.137 227.719 949.07 236.533 949.438 245.855C958.44 245.946 967.442 245.974 976.444 245.937C976.536 236.79 976.439 227.534 976.412 218.377C985.417 218.478 994.423 218.474 1003.43 218.363C1003.56 209.352 1003.52 200.339 1003.33 191.329Z"/><path fill="#F9F8F8" d="M351.937 899.989L379.088 899.966C378.912 908.904 379.047 918.234 379.05 927.203C370.083 927.198 360.917 927.097 351.974 927.389C351.841 936.388 351.833 945.387 351.95 954.386C361 954.511 370.052 954.507 379.102 954.374C379.147 962.839 379.054 971.304 378.824 979.766C378.212 976.778 378.41 959.381 378.404 955.195L352.688 955.195C352.781 963.418 352.693 971.642 352.423 979.862C351.66 977.008 351.907 958.83 351.914 954.603L324.473 954.619C325.204 947.837 324.838 934.614 324.834 927.342L351.799 927.342C352.21 919.049 351.791 908.66 351.937 899.989Z"/><path fill="#F9F8F8" d="M243.079 573.017C252.17 573.142 261.263 573.128 270.355 572.974C270.297 581.835 270.04 591.605 270.654 600.358C279.583 600.511 288.514 600.513 297.442 600.366L297.497 573.116C306.249 573.075 315.001 573.137 323.751 573.302C318.407 574.186 304.873 573.68 298.533 573.818L298.192 574.875C298.188 579.813 297.85 596.082 298.448 599.869C299.794 600.016 299.615 599.893 300.839 600.369C298.346 600.798 299.224 600.227 297.632 601.575C297.126 608.948 297.561 620.051 297.656 627.726L270.42 627.746C270.568 618.72 270.532 609.691 270.314 600.666C261.225 600.546 252.134 600.594 243.046 600.807C243.17 591.544 243.181 582.28 243.079 573.017Z"/><path fill="#F9F8F8" d="M107.612 273.063C116.645 273.187 125.68 273.216 134.714 273.149C134.855 282.188 134.522 291.257 134.715 300.472C143.688 300.567 152.753 300.492 161.734 300.482C161.653 292.366 161.259 281.603 161.763 273.707C163.199 272.976 165.412 273.29 167.204 273.336L166.858 273.765C165.12 273.663 164.015 273.432 162.404 274.091C161.89 281.296 162.24 292.515 162.261 300.029C165.074 300.021 171.048 300.514 173.33 300.33C170.217 300.727 165.046 300.657 161.726 300.702L161.616 310.898C161.526 316.501 161.709 322.568 161.77 328.209C152.713 328.087 143.654 328.083 134.596 328.198C134.776 319.11 134.675 309.709 134.695 300.596L107.407 300.62C107.721 291.396 107.646 282.29 107.612 273.063Z"/><path fill="#F9F8F8" d="M243.064 736.484C252.144 736.574 261.226 736.572 270.306 736.477C270.259 745.603 270.272 754.729 270.344 763.855C279.429 763.931 288.514 763.938 297.599 763.876L297.547 791.112L270.287 791.279C270.61 781.872 270.528 773.268 270.368 763.844L243.078 763.859C243.174 754.734 243.17 745.609 243.064 736.484Z"/><path fill="#F9F8F8" d="M297.438 682.063L324.648 681.993C324.539 691.02 324.321 700.24 324.682 709.242L297.641 709.362C297.535 717.7 298.047 727.947 297.437 736.091C295.798 736.888 292.648 736.653 290.692 736.66C287.697 736.708 275.132 736.892 272.632 736.376C276.178 735.78 292.478 735.995 296.968 735.99L296.968 709.661C294.838 709.691 293.298 709.61 291.169 709.462C292.29 708.95 295.987 709.055 297.436 709.021C297.489 700.035 297.49 691.049 297.438 682.063Z"/><path fill="#F9F8F8" d="M80.2171 573.001C87.4509 572.986 98.3489 572.74 105.368 573.342C102.691 573.888 84.8788 573.721 80.8242 573.729L80.8242 600.059C85.2103 600.051 89.5963 600.112 93.9806 600.24C89.9513 600.795 84.3819 600.634 80.1956 600.635L80.2239 612.767L80.3363 627.725L53.0945 627.816C53.2222 618.716 53.2489 609.615 53.1745 600.514L80.1451 600.519L80.2171 573.001Z"/><path fill="#F9F8F8" d="M867.683 620.571C868.576 622.054 868.271 625.083 868.25 627C874.134 626.979 887.481 626.716 892.831 627.448C884.481 627.709 876.127 627.834 867.772 627.824C867.711 633.877 868.158 650.374 867.469 655.051L840.584 655.155L840.632 627.655L867.64 627.528L867.683 620.571Z"/><path fill="#F9F8F8" d="M623.615 788.807L624.221 790.361C627.203 791.822 646.28 791.069 651.057 790.983C650.954 800.099 651.015 809.216 651.242 818.33C642.359 818.183 633.474 818.17 624.591 818.29C622.97 816.111 623.848 796.098 623.662 791.37L598.62 790.914C605.453 790.246 617.816 791.117 623.08 790.118L623.615 788.807Z"/><path fill="#F9F8F8" d="M1057.94 789.919C1057.99 790 1058 790.1 1058.07 790.162C1059.91 791.852 1080.97 791.041 1085.06 791.028C1085.01 800.1 1085.04 809.171 1085.13 818.243C1076.34 818.173 1067.54 818.208 1058.75 818.349C1057.25 815.831 1057.87 795.543 1057.89 791.261C1052 791.158 1036.45 791.653 1031.92 790.719C1038.86 789.659 1051.77 791.807 1057.94 789.919Z"/><path fill="#F9F8F8" d="M324.834 328.026C332.865 327.656 343.532 328.005 351.763 328.031C351.845 336.113 351.303 344.671 351.775 352.745C351.967 356.022 352.938 353.994 355.294 355.609C353.859 355.648 354.324 355.584 352.851 356.091C352.32 362.438 352.669 373.67 352.687 380.394L352.628 380.868L352.191 381.201C351.518 375.498 351.896 361.554 351.906 355.239C342.868 355.395 333.485 355.283 324.417 355.301C325.139 347.074 324.854 336.48 324.834 328.026Z"/><path fill="#F9F8F8" d="M1057.81 244.432L1058.29 245.458C1060.7 246.51 1080.82 246.007 1085.09 245.973C1085.04 255.079 1085.04 264.185 1085.09 273.291L1058.68 273.261C1057.44 271.753 1057.99 249.841 1058 246.179C1049.61 246.203 1041.22 246.305 1032.84 245.958C1038.1 245.416 1055.66 246.302 1057.81 244.432Z"/><path fill="#F9F8F8" d="M351.974 81.3397C353.942 82.8932 374.999 82.1187 379.018 82.0693L379.1 109.747C373.316 108.955 365.427 109.305 359.576 109.553C356.467 109.655 355.637 109.746 352.639 109.197C351.333 107.013 351.897 86.3086 351.92 82.2721C348.471 82.2809 332.785 82.6802 330.551 81.5384L351.974 81.3397Z"/><path fill="#F9F8F8" d="M1003.45 463.931L1030.72 463.971L1030.81 491.267L1003.44 491.276L1003.45 463.931Z"/><path fill="#F9F8F8" d="M949.125 321.227C949.805 322.776 949.252 351.203 949.262 355.313L922.191 355.324C921.637 350.009 922.074 334.298 922.054 327.996C930.622 327.785 939.974 328.396 948.441 327.755C949.337 325.847 949.116 323.411 949.125 321.227Z"/><path fill="#F9F8F8" d="M623.911 27.453C632.962 27.539 642.014 27.5585 651.065 27.5116L651.068 55.1619C642.035 55.4347 633.243 54.9445 623.806 55.3551C623.748 46.0543 623.783 36.7531 623.911 27.453Z"/><path fill="#F9F8F8" d="M297.473 954.478C306.367 954.671 315.73 954.495 324.66 954.458C324.481 963.479 324.504 972.503 324.73 981.523C327.724 981.511 331.924 981.14 334.556 982.137C323.113 982.408 309.484 981.677 297.466 981.743L297.473 954.478Z"/><path fill="#F9F8F8" d="M623.761 1117.75C632.865 1117.82 641.969 1117.83 651.073 1117.75C650.999 1126.99 650.913 1135.96 651.211 1145.19C642.397 1144.92 632.771 1145.14 623.856 1145.1C623.604 1136.29 623.78 1126.62 623.761 1117.75Z"/><path fill="#F9F8F8" d="M351.846 1172.26L379.09 1172.26L379.061 1199.48L351.963 1199.55L351.846 1172.26Z"/><path fill="#F9F8F8" d="M542.508 55.0385C551.529 54.9611 560.551 54.9389 569.572 54.972C569.521 64.0626 569.522 73.1534 569.573 82.244L542.325 82.2401L542.508 55.0385Z"/><path fill="#F9F8F8" d="M840.612 954.478C849.693 954.594 858.776 954.566 867.857 954.394C867.722 963.453 867.684 972.512 867.744 981.571C859.883 982.029 848.725 981.716 840.491 981.81L840.612 954.478Z"/><path fill="#F9F8F8" d="M1057.99 627.557L1085.01 627.59L1085.14 654.844L1057.95 654.854L1057.99 627.557Z"/><path fill="#F9F8F8" d="M705.266 1036.33L732.33 1036.33L732.327 1063.64C723.311 1063.58 714.294 1063.57 705.277 1063.61C705.415 1054.63 705.279 1045.34 705.266 1036.33Z"/><path fill="#F9F8F8" d="M1057.94 682.023C1066.74 681.841 1076.2 682.029 1085.06 682.038C1084.98 691.061 1085.1 700.246 1085.13 709.283C1076.08 709.238 1067.03 709.252 1057.97 709.324L1057.94 682.023Z"/><path fill="#F9F8F8" d="M297.503 246.136C306.136 245.732 315.931 245.945 324.659 245.959C324.52 255.055 324.511 264.153 324.632 273.25L297.476 273.274L297.503 246.136Z"/><path fill="#F9F8F8" d="M351.967 409.495C360.824 409.739 370.165 409.579 379.062 409.557C378.995 418.653 379.033 427.75 379.176 436.845C370.231 436.669 360.933 436.837 351.96 436.884C351.889 427.754 351.892 418.625 351.967 409.495Z"/><path fill="#F9F8F8" d="M840.591 246.014L867.782 245.981C867.645 255.081 867.689 264.183 867.914 273.282L840.611 273.259L840.591 246.014Z"/><path fill="#F9F8F8" d="M351.848 245.969L379.055 245.947C378.897 254.959 379.039 264.234 379.075 273.268C370.018 273.2 360.961 273.204 351.905 273.28L351.848 245.969Z"/><path fill="#F9F8F8" d="M351.905 682.007L379.075 682.017C379.012 691.118 379.022 700.22 379.104 709.321C370.046 709.268 360.987 709.267 351.928 709.317L351.905 682.007Z"/><path fill="#F9F8F8" d="M1057.98 1063.42L1085.02 1063.48C1084.98 1072.52 1085.02 1081.57 1085.15 1090.61C1076.03 1090.57 1066.91 1090.66 1057.79 1090.85L1057.98 1063.42Z"/><path fill="#F9F8F8" d="M1057.86 1171.68C1062.18 1172.68 1079.44 1172.29 1085.07 1172.26C1084.95 1181.35 1084.96 1190.43 1085.09 1199.51L1057.96 1199.53C1057.99 1190.25 1057.96 1180.97 1057.86 1171.68Z"/><path fill="#F9F8F8" d="M1003.51 409.593C1012.37 409.743 1021.76 409.521 1030.67 409.452L1030.82 436.783C1023.52 436.772 1010.26 436.517 1003.43 437.23L1003.51 409.593Z"/><path fill="#F9F8F8" d="M26.1949 627.466C35.1153 627.619 44.0376 627.627 52.9582 627.49C52.936 636.834 52.8482 645.882 53.374 655.213C44.6941 654.868 34.965 655.063 26.2053 655.063C26.2663 645.864 26.2629 636.665 26.1949 627.466Z"/><path fill="#F9F8F8" d="M976.454 273.074C985.821 273.372 994.216 273.284 1003.6 273.086C1003.55 282.264 1003.56 291.443 1003.63 300.622C994.561 300.558 985.492 300.584 976.425 300.7L976.454 273.074Z"/><path fill="#F9F8F8" d="M623.865 1063.47C632.93 1063.54 641.996 1063.47 651.06 1063.29L651.082 1090.59C642.113 1090.77 632.771 1090.66 623.772 1090.68L623.865 1063.47Z"/><path fill="#F9F8F8" d="M297.547 791.112C306.571 790.974 315.596 790.965 324.62 791.084C324.533 800.256 324.398 809.16 324.785 818.324C315.914 818.272 306.256 818.039 297.451 818.333L297.547 791.112Z"/><path fill="#F9F8F8" d="M134.67 245.982C143.457 245.959 153.046 245.731 161.762 245.921C161.637 255.014 161.46 264.176 161.78 273.266C154.102 273.264 142.035 273.646 134.714 273.149L134.67 245.982Z"/><path fill="#F9F8F8" d="M759.435 899.953C759.316 909.051 759.331 918.151 759.48 927.248C750.394 927.203 741.308 927.208 732.222 927.264L732.174 899.909C741.261 899.991 750.348 900.005 759.435 899.953Z"/><path fill="#F9F8F8" d="M1030.96 109.423L1058.03 109.456C1057.87 118.543 1057.86 127.633 1058.01 136.722L1030.85 136.855L1030.96 109.423Z"/><path fill="#F9F8F8" d="M840.591 682.057C849.437 681.892 858.779 682.051 867.665 682.056C867.651 691.11 867.705 700.165 867.828 709.219C858.725 709.119 849.62 709.18 840.518 709.403L840.591 682.057Z"/><path fill="#F9F8F8" d="M1057.95 82.0606C1066.85 82.2982 1076.15 82.1269 1085.09 82.08C1085.01 90.2903 1085.48 101.574 1084.84 109.495C1077.79 109.9 1065.56 109.316 1058 109.29L1057.95 82.0606Z"/><path fill="#F9F8F8" d="M239.88 981.832C241.241 981.547 240.857 981.654 242.327 981.877C243.858 984.794 243.225 1003.21 243.282 1008.15L219.052 1008.15C218.425 1008.16 217.424 1007.93 216.762 1007.81C215.209 1004.54 215.839 986.783 215.88 981.837L239.88 981.832Z"/></svg>