<?xml version="1.0" encoding="utf-8" ?><svg xmlns="http://www.w3.org/2000/svg" xmlns:xlink="http://www.w3.org/1999/xlink" width="1254" height="1254" viewBox="0 0 1254 1254"><path fill="#FCFCFC" d="M0 0L1254 0L1254 1254L0 1254L0 0Z"/><path fill="#002F5D" d="M614.62 239.289C817.68 232.422 987.907 391.37 994.953 594.424C1002 797.477 843.199 967.843 640.152 975.067C436.853 982.3 266.229 823.261 259.175 619.955C252.12 416.65 411.309 246.166 614.62 239.289Z"/><path fill="#FCFCFC" d="M623.024 265.4C624.154 265.335 625.285 265.297 626.416 265.286C714.524 265.689 798.953 300.666 861.533 362.69C928.499 428.975 966.149 519.305 966.085 613.529C966.222 678.934 946.613 742.857 909.822 796.934C901.27 809.769 887.628 827.656 876.826 838.588C865.685 809.125 852.126 785.337 830.842 761.858C791.042 717.711 737.459 688.352 678.832 678.567C662.799 675.836 648.885 674.99 632.699 674.213C518.481 672.939 419.232 730.161 377.223 838.598C370.347 831.727 360.474 819.434 354.564 811.628C314.414 758.583 291.342 694.584 288.409 628.122C284.533 534.887 317.671 443.901 380.597 374.996C445.065 305.287 528.614 268.999 623.024 265.4Z"/><path fill="#002F5D" d="M621.058 371.061C696.43 367.726 760.255 426.081 763.669 501.45C767.083 576.819 708.795 640.705 633.43 644.198C557.953 647.696 493.951 589.302 490.532 513.822C487.113 438.341 545.574 374.4 621.058 371.061Z"/><path fill="#FCFCFC" d="M616.356 400.293C675.776 394.352 728.736 437.766 734.567 497.197C740.398 556.627 696.885 609.506 637.444 615.227C578.159 620.933 525.447 577.56 519.632 518.285C513.816 459.01 557.092 406.218 616.356 400.293Z"/><path fill="#FCFCFC" d="M615.455 703.186C661.575 700.598 707.536 710.525 748.477 731.917C799.621 758.785 837.837 805.06 854.552 860.361C812.51 899.272 753.647 928.397 697.698 939.805C677.594 943.904 660.628 945.733 640.265 947.176C548.989 948.873 468.35 921.229 399.512 860.388C427.147 768.368 509.144 710.962 603.342 703.922C607.376 703.621 611.415 703.405 615.455 703.186Z"/></svg>