<?xml version="1.0" encoding="utf-8" ?><svg xmlns="http://www.w3.org/2000/svg" xmlns:xlink="http://www.w3.org/1999/xlink" width="1254" height="1254" viewBox="0 0 1254 1254"><path fill="#F6F6F6" d="M0 0L83.6187 0L111.48 0L139.538 0L167.349 0L250.883 0L278.832 0L362.508 0L390.243 0L418.013 0L445.99 0L473.884 0L501.578 0L529.636 0L557.503 0L668.637 0L696.42 0L724.437 0L752.161 0L780.116 0L807.707 0L835.685 0L919.088 0L946.723 0L974.789 0L1002.82 0L1030.52 0L1058.6 0L1086.88 0L1114.43 0L1142.61 0L1170.45 0L1198.22 0L1226.15 0L1254 0L1254 28.1091L1254 111.78L1254 251.053L1254 279.165L1254 418.206L1254 446.193L1254 473.991L1254 501.466L1254 529.56L1254 557.249L1254 585.297L1254 613.143L1254 641.044L1254 668.682L1254 919.557L1254 947.361L1254 975.452L1254 1003.27L1254 1031.08L1254 1058.67L1254 1086.73L1254 1114.52L1254 1198.16L1254 1225.92L1254 1254L1225.93 1254L1198.3 1254L1114.44 1254L1086.53 1254L1058.62 1254L1030.52 1254L1002.7 1254L974.831 1254L946.887 1254L918.989 1254L891.28 1254L863.439 1254L780.072 1254L751.995 1254L724.351 1254L640.042 1254L613.122 1254L585.33 1254L557.354 1254L529.449 1254L501.464 1254L473.883 1254L446.13 1254L417.785 1254L390.115 1254L362.406 1254L278.943 1254L250.736 1254L222.977 1254L195.312 1254L167.262 1254L139.557 1254L111.422 1254L83.5857 1254L55.7702 1254L28.1157 1254L0 1254L0 1225.85L0 1198.24L0 1170.15L0 1142.46L0 1114.38L0 1086.77L0 1058.81L0 1031.1L0 1003.09L0 975.343L0 947.339L0 919.65L0 891.816L0 864.02L0 836.243L0 808.175L0 780.284L0 696.757L0 668.607L0 640.989L0 613.147L0 585.328L0 557.144L0 529.441L0 390.552L0 306.91L0 279.14L0 251.097L0 223.179L0 195.297L0 167.619L0 139.666L0 111.811L0 28.1149L0 0Z"/><path fill="#FDFDFD" d="M807.694 1114.9L835.638 1114.61L835.636 1142.58L863.379 1142.55C863.386 1151.47 863.171 1161.36 863.411 1170.19L891.44 1170.22C891.373 1179.51 891.525 1189 891.388 1198.24C900.59 1198.23 909.882 1198.16 919.075 1198.26L918.956 1225.88C910.14 1225.88 900.117 1225.65 891.403 1225.95C891.314 1235.09 891.52 1244.98 891.28 1254L863.439 1254L780.072 1254L751.995 1254C752.497 1245.17 752.347 1235.04 752.4 1226.1L780.168 1225.91C780.222 1216.69 780.194 1207.47 780.082 1198.25L752.461 1198.12C752.113 1188.69 752.145 1179.73 752.207 1170.29L780.166 1170.17C780.342 1161.22 780.145 1151.6 780.132 1142.59L807.689 1142.49L807.694 1114.9Z"/><path fill="#FDFDFD" d="M167.195 1142.54L195.271 1142.46L195.242 1170.19C204.466 1170.29 213.69 1170.33 222.914 1170.29C223.027 1179.59 223.042 1188.88 222.958 1198.18L250.961 1198.2C250.827 1207.52 250.82 1216.83 250.939 1226.15L278.803 1226.15C278.837 1234.78 278.561 1245.52 278.943 1254L250.736 1254L222.977 1254L195.312 1254L167.262 1254L139.557 1254L111.422 1254L83.5857 1254L83.5857 1226.15L111.548 1226.15C111.274 1217.12 111.457 1207.24 111.448 1198.15L139.454 1198.27C139.607 1189.01 139.534 1179.56 139.555 1170.29L167.32 1170.2C167.387 1160.98 167.346 1151.76 167.195 1142.54Z"/><path fill="#FDFDFD" d="M501.531 1114.52L501.474 1142.54C510.171 1142.55 521.122 1142.89 529.631 1142.52C529.548 1151.74 529.52 1160.96 529.547 1170.19C538.78 1170.29 548.014 1170.32 557.248 1170.29C557.253 1179.37 557.06 1189.2 557.28 1198.22C551.19 1197.67 536.315 1198.19 529.58 1198.24C529.496 1207.44 529.462 1216.63 529.477 1225.83L501.572 1225.91L501.464 1254L473.883 1254L446.13 1254L417.785 1254C417.778 1244.84 417.594 1234.94 418.15 1225.87L390.239 1225.82C389.906 1216.95 390.341 1207.4 390.072 1198.24C398.777 1198.23 409.597 1198.57 418.077 1198.24C417.994 1189.02 417.77 1179.47 418.177 1170.29L445.746 1170.25C445.921 1179.57 445.986 1188.9 445.942 1198.22C455.125 1198.24 464.692 1198.39 473.843 1198.19L473.839 1170.18C465.346 1169.84 454.734 1170.13 446.07 1170.11L446.07 1142.67C454.715 1142.29 465.005 1142.54 473.855 1142.44C473.367 1133.29 473.677 1123.81 473.843 1114.62C483.072 1114.74 492.302 1114.7 501.531 1114.52Z"/><path fill="#FDFDFD" d="M83.8203 279.33L111.474 279.169C111.462 288.302 111.654 298.284 111.384 307.346C120.684 307.048 129.989 306.959 139.293 307.077L139.293 334.891C129.71 334.899 120.724 334.863 111.171 335.487C111.168 339.148 111.556 360.748 110.544 362.202C109.392 362.251 108.714 362.279 107.563 362.417L107.984 363.151L110.97 363.34C111.907 365.781 111.461 411.91 111.343 418.085L28.1701 418.175C28.1194 409.02 27.9534 399.615 28.0553 390.482L0 390.552L0 306.91C9.2934 306.842 18.6989 306.966 28.0014 307.017L28.0646 335.045C44.1228 334.917 67.5194 336.39 81.907 335.306C77.4306 334.574 61.3107 334.84 55.9495 334.824C55.6583 325.742 55.8376 316.151 55.8732 307.026C65.0969 306.879 74.4684 306.942 83.705 306.921C83.0458 298.463 83.5416 287.817 83.8203 279.33Z"/><path fill="#FDFDFD" d="M1142.61 0L1170.45 0L1198.22 0L1226.15 0L1254 0L1254 28.1091L1254 111.78C1244.69 112.022 1235.37 111.899 1226.07 111.412L1226.03 83.7215L1198.16 83.7093C1198.2 93.0512 1198.19 102.393 1198.11 111.735C1188.89 111.91 1179.66 111.914 1170.44 111.745L1170.33 83.7508C1161.06 83.6727 1151.79 83.6873 1142.53 83.7943L1142.49 55.7455C1133.19 55.7966 1123.88 55.7991 1114.58 55.7527C1114.3 46.81 1114.5 37.1797 1114.54 28.1813C1123.72 27.9926 1133.39 28.1602 1142.61 28.1784C1142.49 18.6915 1142.37 9.48182 1142.61 0Z"/><path fill="#FDFDFD" d="M1198.32 501.9C1207.28 501.633 1217.04 501.803 1226.07 501.79C1225.96 510.97 1225.92 520.151 1225.96 529.331L1198.17 529.331L1198.26 557.215L1170.48 557.165L1170.43 585.381C1179.65 585.271 1188.88 585.276 1198.1 585.396C1198.17 594.618 1198.33 604.089 1198.13 613.288C1207.33 613.227 1216.75 613.061 1225.93 613.336C1226.03 622.522 1226.02 631.709 1225.89 640.894C1216.78 640.932 1207.26 641.041 1198.16 640.776C1198.21 650.059 1198.21 659.343 1198.16 668.627C1188.91 668.774 1179.67 668.781 1170.42 668.649C1170.31 659.401 1170.3 650.153 1170.37 640.905L1142.46 640.935L1142.47 668.655L1114.68 668.619C1114.41 659.404 1114.36 650.185 1114.53 640.968C1105.73 640.934 1095.46 640.654 1086.78 641.025C1086.78 631.447 1086.55 622.966 1086.74 613.217C1096.02 613.152 1105.29 613.162 1114.57 613.245C1114.43 603.949 1114.4 594.652 1114.49 585.356C1123.74 585.203 1133.33 585.342 1142.61 585.351C1142.2 576.858 1142.5 566.166 1142.51 557.508C1151.86 557.533 1161.09 557.612 1170.45 557.224C1170.41 548.065 1170.45 538.906 1170.56 529.747C1179.63 529.45 1189.21 529.577 1198.32 529.565L1198.32 501.9Z"/><path fill="#FDFDFD" d="M668.7 1142.57C677.963 1142.46 687.227 1142.46 696.49 1142.58L696.49 1170.29C704.175 1170.28 717.09 1170.69 724.346 1170.17C724.341 1178.99 724.045 1189.57 724.373 1198.24C733.263 1198.17 743.466 1197.95 752.274 1198.37C752.278 1207.15 752.499 1217.13 752.126 1225.82L724.322 1225.83L724.351 1254L640.042 1254L641.26 1252.55C644.93 1251.67 663.525 1252.11 668.024 1252.16L668.024 1226.45C660.641 1226.47 653.257 1226.42 645.874 1226.3C652.058 1225.75 662.342 1226 668.817 1225.99C668.498 1217.17 668.738 1207.02 668.741 1198.1L640.771 1198.18L640.771 1225.82L613.431 1225.84C613.13 1216.79 613.169 1207.26 613.064 1198.18C603.821 1198.28 594.578 1198.22 585.338 1198L585.374 1170.28L613.143 1170.29C613.332 1179.63 613.281 1188.97 612.99 1198.31C622.357 1198.1 631.727 1198.11 641.093 1198.34C640.677 1188.92 640.651 1179.49 641.015 1170.07C631.931 1170.27 622.538 1170.13 613.428 1170.11C613.19 1160.96 613.087 1151.82 613.118 1142.67L641.046 1142.51C640.919 1151.77 640.883 1161.03 640.938 1170.29L668.806 1170.26C668.703 1161.03 668.668 1151.8 668.7 1142.57Z"/><path fill="#FDFDFD" d="M1086.65 1114.43C1095.7 1114.49 1105.57 1114.76 1114.55 1114.59L1114.44 1142.57C1123.79 1142.49 1133.14 1142.49 1142.49 1142.57L1142.49 1170.1C1133.15 1170.16 1123.82 1170.16 1114.49 1170.1C1114.48 1179.16 1114.24 1189.25 1114.48 1198.21C1105.81 1197.93 1095.53 1198.12 1086.78 1198.21C1086.68 1207.47 1086.64 1216.74 1086.68 1226L1114.43 1225.97L1114.44 1254L1086.53 1254L1058.62 1254L1030.52 1254C1030.55 1244.66 1030.63 1235.33 1030.75 1225.99C1040.05 1226.04 1049.35 1226.01 1058.64 1225.91C1058.37 1216.88 1058.56 1207.33 1058.6 1198.26C1049.73 1197.97 1039.78 1198.16 1030.82 1198.13C1030.41 1189.1 1030.63 1179.37 1030.68 1170.27C1040 1170.29 1049.32 1170.26 1058.64 1170.15C1058.56 1160.94 1058.55 1151.72 1058.61 1142.51C1068.03 1142.57 1077.44 1142.56 1086.85 1142.49C1086.36 1133.12 1086.51 1123.81 1086.65 1114.43Z"/><path fill="#FDFDFD" d="M557.356 1031.24L585.335 1031.1C585.233 1040.38 585.19 1049.67 585.208 1058.96L613.143 1058.87C613.207 1068.2 613.18 1077.54 613.063 1086.87L641.031 1086.81L640.932 1114.71L668.703 1114.78L668.73 1142.45L641.046 1142.51C640.812 1133.18 640.788 1123.7 640.68 1114.35C631.277 1114.44 622.796 1114.93 613.342 1114.37C612.881 1105.54 613.057 1095.57 613.077 1086.67L585.202 1086.76L585.186 1114.39L557.365 1114.4L557.282 1086.72L529.643 1086.72C529.407 1077.65 529.575 1068.1 529.604 1058.99L557.23 1058.99C557.224 1062.17 557.675 1067.04 557.561 1069.81C557.369 1068.04 557.814 1061.62 557.81 1059.29C559.853 1059.32 561.574 1059.22 563.616 1059.1C562.475 1058.58 558.94 1058.64 557.486 1058.59C557.132 1049.95 557.356 1039.98 557.356 1031.24Z"/><path fill="#FDFDFD" d="M1198.34 947.513C1207.53 947.347 1216.73 947.329 1225.93 947.46L1225.92 975.485L1254 975.452L1254 1003.27L1254 1031.08L1254 1058.67C1244.72 1058.81 1235.44 1058.81 1226.16 1058.67C1225.81 1049.86 1226 1039.96 1225.98 1031.07L1198.34 1031.01C1198.19 1022.03 1198.61 1013.12 1197.85 1004.17L1196.41 1003.26C1197.21 1002.79 1196.69 1003.02 1198.09 1002.59C1198.54 997.17 1198.32 988.255 1198.33 982.649L1198.34 947.513Z"/><path fill="#FDFDFD" d="M946.935 1142.69C956.214 1142.49 965.495 1142.46 974.774 1142.6L974.843 1170.16C984.169 1170.36 993.426 1170.22 1002.75 1170.26L1002.81 1198.34C1012.07 1198.09 1021.34 1198.07 1030.61 1198.29L1030.63 1225.81L1002.89 1225.89C1002.68 1216.65 1002.63 1207.4 1002.72 1198.16L974.81 1198.2C974.747 1207.4 974.734 1216.61 974.772 1225.81L946.896 1225.89C946.532 1217.07 946.777 1206.99 946.804 1198.08C937.57 1198.25 928.35 1198.04 919.075 1198.26L919.051 1170.18C928.35 1170.29 937.65 1170.33 946.949 1170.31L946.935 1142.69Z"/><path fill="#FDFDFD" d="M1198.29 390.637L1225.91 390.602C1226.03 399.769 1225.92 409.134 1225.91 418.319C1235.27 418.185 1244.63 418.147 1254 418.206L1254 446.193L1254 473.991L1254 501.466C1244.82 501.528 1235.63 501.526 1226.45 501.462C1225.53 493.682 1225.99 481.743 1226.08 473.712C1216.81 473.815 1207.55 473.851 1198.29 473.819C1198.27 468.289 1197.75 451.604 1198.68 447.173C1200.28 446.195 1202.4 446.327 1204.44 446.182C1203.6 445.257 1201.65 446.445 1199.04 445.364C1198.5 438.01 1198.87 426.477 1198.89 418.816C1207.21 418.839 1215.78 419.01 1224.06 418.494C1216.81 417.91 1205.88 418.187 1198.33 418.173L1198.29 390.637Z"/><path fill="#FDFDFD" d="M0 529.441C9.22951 529.486 18.7909 529.668 27.9907 529.572C28.1585 538.537 27.7863 548.536 28.1481 557.195C37.3452 557.356 46.5433 557.457 55.7417 557.499C55.7753 566.542 56.0184 576.423 55.8141 585.395C65.0888 585.335 74.3638 585.337 83.6385 585.4L83.6253 612.94C74.4072 613.124 65.1862 613.115 55.9684 612.914C55.7012 603.64 55.6621 594.361 55.8511 585.085C46.9794 585.17 36.7801 584.939 28.0738 585.28C28.0394 594.401 28.1393 603.862 27.9592 612.953L0 613.147L0 585.328L0 557.144L0 529.441Z"/><path fill="#FDFDFD" d="M919.088 0L946.723 0C946.772 9.3776 946.954 19.1352 946.663 28.4761L974.477 28.4783C974.51 32.6137 974.945 51.8677 974.055 55.0736C972.804 55.3861 972.467 55.4595 971.186 55.5692L974.092 55.9968C975.367 57.9793 974.808 80.2928 974.789 83.8857C966.626 83.9112 958.193 84.4283 950.109 84.2735C939.789 84.0758 929.429 83.3902 919.08 83.8029C919.395 75.262 919.09 64.7492 919.082 56.0496C927.994 55.6913 937.835 55.8829 946.821 55.8907C946.747 46.5968 946.759 37.3024 946.858 28.0088C939.011 28.0031 931.535 28.0381 923.699 28.2514C915.169 28.4835 901.111 29.4909 892.865 28.4933C897.694 27.7408 913.458 28.1318 919.13 28.1564C918.99 18.7715 918.976 9.38523 919.088 0Z"/><path fill="#FDFDFD" d="M0 1142.46C9.31641 1142.51 18.7666 1142.64 28.0713 1142.56L28.0631 1170.28C36.8901 1170.27 47.0237 1170.52 55.7359 1170.22L55.8547 1198.04C46.565 1198.28 37.1856 1197.99 28.0661 1198.23C28.0491 1207.35 28.1189 1216.61 27.9893 1225.72C18.6605 1225.88 9.32996 1225.93 1.08767e-15 1225.85L0 1198.24L0 1170.15L0 1142.46Z"/><path fill="#FDFDFD" d="M0 28.1149L27.8867 28.2089C28.3952 36.955 28.0642 47.08 28.0043 55.9706L55.8311 55.8681L55.7783 83.7029L28.0043 83.7099L27.9944 111.733C18.7925 111.789 9.16695 111.987 0 111.811L0 28.1149Z"/><path fill="#FDFDFD" d="M0 975.343C9.27539 975.4 18.8228 975.571 28.075 975.433L28.0674 1003.27C37.0168 1003.28 46.8894 1003.09 55.763 1003.38L55.8698 1031C47.8182 1031.01 35.833 1030.65 28.1071 1031.14C28.0037 1040.33 28.0018 1049.51 28.1014 1058.69C18.7345 1058.78 9.36726 1058.82 0 1058.81L0 1031.1L0 1003.09L0 975.343Z"/><path fill="#FDFDFD" d="M0 696.757L28.2189 696.776C27.4508 702.543 29.1509 722.24 27.1567 724.213C25.2054 724.433 22.8709 724.113 21.3243 724.665C23.0157 725.63 26.1425 724.022 27.5788 725.586C27.5885 727.265 27.5492 738.295 27.8247 739.091C28.0722 734.29 28.187 729.483 28.1689 724.675C37.4864 724.38 46.6062 724.667 55.7632 724.453L55.9387 752.39C46.6396 752.5 37.3393 752.481 28.0407 752.333C28.099 761.671 27.7947 771.054 27.8537 780.224C18.57 780.384 9.28435 780.403 0 780.284L0 696.757Z"/><path fill="#FDFDFD" d="M752.161 0L780.116 0L807.707 0L835.685 0C835.652 9.13469 835.789 18.8974 835.509 27.9805C827.311 27.9998 815.64 27.6501 807.739 28.1023C807.433 36.8286 807.667 46.9748 807.65 55.8144L780.416 55.8351C780.07 46.8177 780.149 37.1683 780.076 28.0997C771.955 27.6713 760.819 27.996 752.464 27.983C752.193 18.658 752.092 9.32874 752.161 0Z"/><path fill="#FDFDFD" d="M668.637 0L696.42 0L724.437 0L724.283 28.0076L696.87 28.0898C688.399 28.479 677.312 28.1581 668.637 28.166L668.637 0Z"/><path fill="#FDFDFD" d="M111.53 1031.24L139.293 1031.15L139.293 1058.94C148.547 1058.87 158.034 1058.7 167.261 1059.05L167.227 1086.81C158.525 1086.51 148.356 1086.76 139.537 1086.75L139.46 1058.68C130.136 1058.74 120.812 1058.76 111.489 1058.73L111.53 1031.24Z"/><path fill="#FDFDFD" d="M1198.26 557.215C1207.6 557.516 1216.55 557.423 1225.91 557.319C1226.01 566.672 1225.98 576.025 1225.83 585.377L1254 585.297L1254 613.143C1245.13 613.315 1235.26 613.012 1226.31 612.93C1225.65 604.927 1226 593.445 1226.06 585.143C1216.82 585.203 1207.57 585.188 1198.33 585.097C1198.18 575.896 1198.28 566.438 1198.26 557.215Z"/><path fill="#FDFDFD" d="M167.17 1114.48L167.195 1142.54C158.516 1142.22 148.257 1142.48 139.454 1142.47L139.355 1170.11C130.158 1170.23 120.776 1170.12 111.563 1170.11C111.446 1160.99 111.509 1151.74 111.493 1142.61L139.617 1142.57C139.368 1133.51 139.53 1123.75 139.515 1114.64C148.765 1114.74 157.925 1114.93 167.17 1114.48Z"/><path fill="#FDFDFD" d="M83.6187 0L111.48 0L111.38 27.9213C102.372 28.1614 92.7825 27.9809 83.7298 27.9533L83.6062 45.3676C83.1353 40.2262 83.2833 34.0189 83.2734 28.7783L56.332 28.7783C56.3601 35.2688 56.6782 46.457 56.0297 52.5095C55.5313 44.8565 55.7735 35.8765 55.8134 28.0909L83.9666 28.1864C83.1239 19.3389 83.3483 8.90475 83.6187 0Z"/><path fill="#FDFDFD" d="M0 251.097L28.0887 251.177C28.0196 260.529 28.0148 269.882 28.0742 279.234C18.7165 279.13 9.35816 279.099 3.26301e-15 279.14L0 251.097Z"/><path fill="#FDFDFD" d="M1226.1 251.365C1235.34 250.979 1244.74 251.06 1254 251.053L1254 279.165C1244.83 279.25 1235.5 279.121 1226.32 279.078C1225.62 270.77 1226 259.798 1226.1 251.365Z"/><path fill="#FDFDFD" d="M0 139.666L28.0736 139.704C28.1509 149.006 28.1219 158.309 27.9866 167.611L0 167.619L0 139.666Z"/><path fill="#FDFDFD" d="M250.883 0L278.832 0L278.875 27.9659L251.005 28.0506C250.5 19.2651 250.797 8.91814 250.883 0Z"/><path fill="#FDFDFD" d="M974.789 0L1002.82 0L1002.7 27.9923L974.813 27.9737L974.789 0Z"/><path fill="#FDFDFD" d="M1030.52 0L1058.6 0L1058.48 27.997L1030.79 28.0132C1030.48 18.8239 1030.55 9.20454 1030.52 0Z"/><path fill="#FDFDFD" d="M0 195.297C9.27908 195.357 18.8056 195.537 28.0624 195.466L28.0329 223.179L0 223.179L0 195.297Z"/><path fill="#FDFDFD" d="M529.604 1226.11C538.818 1225.97 548.033 1225.93 557.248 1225.99C557.258 1234.98 557.041 1245.1 557.354 1254L529.449 1254C529.489 1244.76 529.431 1235.34 529.604 1226.11Z"/><path fill="#FDFDFD" d="M1058.69 1087.02C1062.59 1086.99 1084.14 1087.08 1086.68 1086.61C1086.68 1095.45 1086.95 1105.72 1086.65 1114.43C1077.29 1114.47 1067.94 1114.45 1058.58 1114.37C1058.33 1104.93 1058.45 1096.47 1058.69 1087.02Z"/><path fill="#FDFDFD" d="M1030.76 1114.55C1039.79 1114.98 1049.51 1114.69 1058.62 1114.58L1058.61 1142.51L1030.57 1142.46C1030.54 1137.23 1030.17 1118.61 1030.76 1114.55Z"/><path fill="#FDFDFD" d="M974.877 1226.09C984.153 1225.97 993.431 1225.93 1002.71 1225.99C1002.74 1235.09 1002.96 1244.96 1002.7 1254L974.831 1254L974.877 1226.09Z"/><path fill="#FDFDFD" d="M1086.88 0L1114.43 0C1114.48 9.30828 1114.47 18.6168 1114.39 27.9249C1105.21 28.0827 1096.04 28.0546 1086.87 27.8407C1086.43 18.4677 1086.7 9.37303 1086.88 0Z"/><path fill="#FDFDFD" d="M1226.01 919.805L1254 919.557L1254 947.361C1244.62 947.601 1235.55 947.41 1226.16 947.231C1225.74 938.806 1226.01 928.377 1226.01 919.805Z"/><path fill="#FDFDFD" d="M139.538 0L167.349 0C167.198 9.3761 167.168 18.7538 167.259 28.1306C159.368 27.6592 147.811 27.9709 139.606 27.9123C139.45 18.609 139.427 9.30394 139.538 0Z"/><path fill="#FDFDFD" d="M919.068 1226.08C928.258 1225.97 937.45 1225.97 946.64 1226.09C946.698 1235.17 946.576 1244.98 946.887 1254L918.989 1254C918.859 1244.64 919.071 1235.41 919.068 1226.08Z"/><path fill="#FDFDFD" d="M585.358 1226.16C594.643 1225.99 603.929 1225.94 613.215 1226L613.122 1254L585.33 1254L585.358 1226.16Z"/><path fill="#FDFDFD" d="M251.01 1170.43L278.723 1170.43L278.9 1198.14L250.961 1198.2C250.804 1188.95 250.82 1179.68 251.01 1170.43Z"/><path fill="#FDFDFD" d="M0 808.175L28.0063 808.283C28.124 817.546 27.7762 826.609 27.8537 835.781C18.5726 836.1 9.28658 836.254 0 836.243L0 808.175Z"/><path fill="#FDFDFD" d="M0 640.989C9.2762 641.011 18.7379 640.931 27.9961 641.071C28.1051 650.381 27.8015 659.443 27.8537 668.634C18.5696 668.769 9.28389 668.76 0 668.607L0 640.989Z"/><path fill="#FDFDFD" d="M111.567 251.28L139.363 251.194C139.407 260.493 139.392 269.791 139.316 279.089C130.426 279.103 120.253 278.868 111.474 279.169L111.567 251.28Z"/><path fill="#FDFDFD" d="M529.636 0L557.503 0C557.162 8.18502 556.859 19.9815 557.268 28.0882C549.157 27.6814 538.02 28.0177 529.673 28.0111C529.518 18.6748 529.505 9.33668 529.636 0Z"/><path fill="#FDFDFD" d="M1142.53 83.7943C1142.21 92.543 1142.47 102.835 1142.46 111.707C1133.21 111.79 1123.96 111.751 1114.72 111.588C1114.72 102.25 1114.44 93.388 1114.61 83.9416C1123.91 84.0297 1133.22 83.9806 1142.53 83.7943Z"/><path fill="#FDFDFD" d="M0 1086.77C9.39583 1086.86 18.7922 1086.88 28.1884 1086.84C27.782 1090.45 27.7812 1110.39 28.1583 1114.41C18.8357 1114.49 9.29756 1114.67 0 1114.38L0 1086.77Z"/><path fill="#FDFDFD" d="M585.24 1114.89C594.817 1114.48 603.997 1114.87 613.276 1114.57C613.161 1123.87 613.119 1133.17 613.15 1142.47C604.001 1142.47 594.403 1142.32 585.294 1142.5C585.282 1133.35 585.367 1124.02 585.24 1114.89Z"/><path fill="#FDFDFD" d="M362.508 0L390.243 0L390.01 28.0132C380.86 28.0931 371.709 28.0752 362.559 27.9595C362.449 18.6401 362.432 9.31978 362.508 0Z"/><path fill="#FDFDFD" d="M1058.61 641.049C1067.05 641.065 1078.61 641.448 1086.78 641.025C1086.64 650.229 1086.59 659.434 1086.63 668.64L1058.69 668.688C1058.43 659.416 1058.53 650.325 1058.61 641.049Z"/><path fill="#FDFDFD" d="M362.469 1170.3C371.665 1170.21 380.861 1170.21 390.057 1170.28C390.172 1179.6 390.177 1188.92 390.072 1198.24L362.529 1198.17C362.443 1188.88 362.423 1179.59 362.469 1170.3Z"/><path fill="#FDFDFD" d="M362.51 1226.27C371.721 1225.83 380.855 1225.94 390.072 1225.98C390.1 1234.96 390.372 1245.12 390.115 1254L362.406 1254L362.51 1226.27Z"/><path fill="#FDFDFD" d="M111.489 1058.73L111.405 1086.69L83.7667 1086.76C83.1791 1079.37 83.6183 1066.88 83.6919 1059.09C92.3108 1058.65 102.659 1058.85 111.489 1058.73Z"/><path fill="#FDFDFD" d="M1030.61 613.435C1039.13 613.274 1050.5 613.601 1058.59 613.178L1058.61 641.049C1052.25 640.423 1037.47 640.921 1030.66 641.026L1030.61 613.435Z"/><path fill="#FDFDFD" d="M1225.99 1086.93L1254 1086.73L1254 1114.52L1225.98 1114.33C1225.77 1105.39 1225.95 1095.92 1225.99 1086.93Z"/><path fill="#FDFDFD" d="M111.505 1086.87C120.849 1086.92 130.194 1086.87 139.537 1086.75C139.268 1095.87 139.412 1105.25 139.453 1114.39C130.312 1114.61 120.71 1114.41 111.532 1114.35C111.416 1105.25 111.504 1095.99 111.505 1086.87Z"/><path fill="#FDFDFD" d="M557.268 28.0882L585.254 28.1787C585.231 37.3391 585.301 46.6591 585.17 55.8037C575.931 55.9186 566.691 55.9166 557.453 55.7978C557.363 47.119 557.638 36.5164 557.268 28.0882Z"/><path fill="#FDFDFD" d="M919.08 83.8029C918.596 91.5982 918.97 103.688 918.96 111.811C910.499 111.502 900.226 111.804 891.478 111.672C890.886 104.428 891.23 91.5817 891.294 83.9995C900.556 83.9949 909.819 83.9293 919.08 83.8029Z"/><path fill="#FDFDFD" d="M1002.85 641.052C1012.12 640.969 1021.39 640.96 1030.66 641.026L1030.54 668.712C1021.89 668.416 1011.67 668.688 1002.89 668.695C1002.61 659.186 1002.67 650.575 1002.85 641.052Z"/><path fill="#FDFDFD" d="M418.013 0L445.99 0C445.88 9.28416 445.853 18.5691 445.909 27.8537L418.159 27.8537C417.77 18.6379 417.89 9.22057 418.013 0Z"/><path fill="#FDFDFD" d="M557.268 1142.58C566.444 1142.55 576.166 1142.7 585.294 1142.5C585.042 1151.35 585.223 1161.16 585.194 1170.09C576.062 1170.27 566.626 1170.16 557.47 1170.15C557.302 1161.02 557.325 1151.72 557.268 1142.58Z"/><path fill="#FDFDFD" d="M585.301 1003.2C594.534 1003.09 603.767 1003.11 612.999 1003.26C613.172 1012.5 613.222 1021.75 613.149 1031C604.894 1031 593.314 1030.65 585.335 1031.1L585.301 1003.2Z"/><path fill="#FDFDFD" d="M501.466 1086.83L529.58 1086.83L529.523 1114.33C520.419 1114.7 509.719 1114.01 501.531 1114.52L501.466 1086.83Z"/><path fill="#FDFDFD" d="M0 864.02L27.8537 864.051L27.8537 891.594C18.5713 891.837 9.28516 891.911 0 891.816L0 864.02Z"/><path fill="#FDFDFD" d="M1226.09 641.092C1235.15 640.873 1244.89 641.047 1254 641.044L1254 668.682L1226.36 668.682C1225.75 659.574 1226.01 650.241 1226.09 641.092Z"/><path fill="#FDFDFD" d="M1226.15 529.634L1254 529.56L1254 557.249L1226.15 557.119L1226.15 529.634Z"/><path fill="#FDFDFD" d="M167.259 28.1306C176.583 28.0695 185.906 28.0905 195.229 28.1936C195.234 37.1785 195.415 46.9229 195.096 55.8437L167.551 55.7393C167.226 46.5451 167.638 36.9584 167.259 28.1306Z"/><path fill="#FDFDFD" d="M1030.54 668.712C1038.53 668.801 1051 669.346 1058.61 668.939C1058.6 677.958 1058.78 687.713 1058.54 696.669L1030.82 696.526C1030.6 687.349 1030.85 677.625 1030.54 668.712Z"/><path fill="#FDFDFD" d="M167.227 1086.81L195.22 1086.91L195.218 1114.36C186.887 1114.42 175.097 1114.05 167.17 1114.48C167.297 1105.26 167.316 1096.04 167.227 1086.81Z"/><path fill="#FDFDFD" d="M473.801 1058.99L501.596 1058.99L501.466 1086.83L473.929 1086.72C473.798 1077.48 473.755 1068.23 473.801 1058.99Z"/><path fill="#FDFDFD" d="M1114.48 1198.21C1123.78 1198.24 1133.19 1198.19 1142.47 1198.33L1142.44 1225.78C1133.29 1225.83 1123.85 1225.98 1114.72 1225.82C1114.52 1216.61 1114.44 1207.41 1114.48 1198.21Z"/><path fill="#FDFDFD" d="M0 919.65L27.8537 919.633C27.831 927.819 27.4881 939.459 28.2001 947.332L0 947.339L0 919.65Z"/><path fill="#FDFDFD" d="M83.5857 1170.43L111.414 1170.43C111.422 1179.36 111.2 1189.31 111.448 1198.15C102.629 1198.07 92.5572 1197.98 83.7513 1198.2C83.5446 1188.95 83.4894 1179.69 83.5857 1170.43Z"/><path fill="#FDFDFD" d="M557.28 1198.22C566.348 1198.2 576.064 1197.92 585.051 1198.28C585.126 1207.38 585.314 1216.74 585.191 1225.82L557.482 1225.85C557.359 1217.47 557.745 1206.1 557.28 1198.22Z"/><path fill="#FDFDFD" d="M529.595 1114.61L557.237 1114.63C557.31 1123.94 557.32 1133.26 557.268 1142.58C548.056 1142.43 538.843 1142.41 529.631 1142.52L529.595 1114.61Z"/><path fill="#FDFDFD" d="M473.884 0L501.578 0C501.797 9.02088 501.535 18.7783 501.45 27.8537L473.931 27.8537C473.691 18.5709 473.676 9.2836 473.884 0Z"/><path fill="#FDFDFD" d="M195.324 1114.81C202.485 1114.75 216.269 1115.07 222.895 1114.43C223.059 1123.76 223.103 1133.1 223.027 1142.43L195.271 1142.46L195.324 1114.81Z"/><path fill="#FDFDFD" d="M28.1953 223.372C37.3787 223.319 46.5624 223.366 55.7448 223.513L55.782 250.973C46.5517 251.125 37.3202 251.193 28.0887 251.177C27.9776 241.909 28.0131 232.639 28.1953 223.372Z"/><path fill="#FDFDFD" d="M28.1122 1226.15L55.6991 1226.15C55.8214 1235.43 55.8451 1244.72 55.7702 1254L28.1157 1254C28.0414 1244.72 28.0403 1235.43 28.1122 1226.15Z"/><path fill="#FDFDFD" d="M1226.15 1198.35C1235.23 1198.04 1244.87 1198.17 1254 1198.16L1254 1225.92L1226.15 1225.83L1226.15 1198.35Z"/><path fill="#FDFDFD" d="M1198.3 1226.15L1225.89 1226.15C1225.94 1235.1 1226.21 1245.13 1225.93 1254L1198.3 1254L1198.3 1226.15Z"/><path fill="#FDFDFD" d="M724.356 1142.6L752.154 1142.58C752.2 1151.38 752.416 1161.34 752.053 1170.1L724.346 1170.17L724.356 1142.6Z"/><path fill="#FDFDFD" d="M891.181 1142.67C900.333 1142.46 909.833 1142.57 919.033 1142.49C918.951 1151.72 918.957 1160.95 919.051 1170.18L891.381 1170.06C891.16 1160.93 891.094 1151.8 891.181 1142.67Z"/><path fill="#FDFDFD" d="M919.051 1114.91C928.293 1114.73 937.536 1114.62 946.78 1114.58C946.689 1123.8 946.678 1133.02 946.745 1142.23C937.509 1142.4 928.271 1142.49 919.033 1142.49L919.051 1114.91Z"/><path fill="#FDFDFD" d="M28.0742 279.234L55.7165 279.322L55.838 306.864C46.6117 307.131 37.3798 307.142 28.1528 306.897C28.0289 297.677 28.0027 288.455 28.0742 279.234Z"/><path fill="#004259" d="M529.638 279.308C538.82 279.201 548.003 279.2 557.185 279.306L557.175 307.052C566.508 306.908 575.843 306.869 585.177 306.934L585.214 335.023C594.258 335.034 603.632 335.172 612.648 335.001C613.595 333.822 613.195 334.455 613.359 332.613L614.085 334.562C616.513 335.256 636.935 334.946 640.471 334.931L640.551 341.797C640.956 340.524 640.788 336.801 640.783 335.243L668.321 335.243L668.38 341.622C669.056 338.68 667.908 337.135 669.435 335.138C677.079 334.523 688.844 334.897 696.803 334.931C696.8 331.031 696.641 325.966 697.17 322.214C697.315 325.913 697.607 330.066 697.354 333.72C698.81 335.204 720.261 334.628 724.044 334.618L724.044 307.349C733.628 306.929 742.62 306.891 752.222 306.903L752.222 335.004C761.507 334.935 770.791 334.94 780.076 335.018C780.143 343.926 780.389 353.122 780.388 361.983L789.194 362.082C786.036 362.453 783.558 362.528 780.633 363.762C779.59 365.202 780.069 387.003 780.076 390.65L807.63 390.65C807.625 397.504 808.208 407.112 806.418 413.276C806.421 413.499 806.425 413.721 806.428 413.943C817.155 424.04 827.016 435.018 835.908 446.763C863.86 483.855 879.235 524.644 883.655 571.197C884.648 581.657 883.501 604.506 887.067 611.884C891.818 621.712 898.992 634.996 904.213 644.751L934.8 702.201C939.888 711.837 947.044 723.758 950.372 733.428C958.438 756.862 942.372 780.012 918.487 783.683C911.185 784.806 899.902 785.495 894.131 789.112C889.059 792.291 891.263 805.697 890.913 810.899C890.452 825.562 892.017 841.265 890.401 855.813C888.53 872.504 881.821 888.283 871.099 901.21C857.104 918.277 837.009 929.219 815.079 931.713C806.177 932.714 794.576 932.4 785.351 932.396L743.12 932.337C710.155 932.232 701.704 937.499 701.752 971.773L701.928 1004.36C701.971 1010.95 703.539 1025.02 698.25 1029.13C692.469 1033.19 684.278 1030.02 683.707 1022.74C683.386 1007.08 683.518 991.198 683.488 975.533C683.904 966.268 682.461 956.249 685.207 947.254C695.642 913.074 722.725 913.578 751.536 913.613L788.41 913.679C797.226 913.696 807.857 914.079 816.419 912.632C825.832 911.068 834.808 907.529 842.755 902.248C876.026 879.846 873.314 846.661 872.595 811.595C872.467 805.38 872.002 794.837 873.325 789.12C879.585 762.069 908.281 771.278 926.157 760.989C933.118 756.979 936.069 745.778 932.732 738.367C928.508 728.984 923.41 719.903 918.564 710.777L885.66 648.991C880.026 638.486 874.084 627.914 868.895 617.139C865.404 608.415 866.474 597.775 866.246 588.548C863.363 471.447 775.27 380.881 658.299 366.381C588.192 357.55 517.46 377.053 461.787 420.566C394.72 473.241 359.005 562.151 366.946 646.701C369.529 674.196 377.978 703.583 389.262 728.749C395.396 742.195 402.558 755.147 410.686 767.489C426.432 791.192 438.199 806.69 447.31 834.672C452.018 848.787 455.182 863.371 456.744 878.168C458.229 892.465 457.905 906.302 457.907 920.652L457.891 975.674L457.963 1005.66C457.976 1012.04 459.611 1025.77 453.897 1029.47C451.612 1030.93 448.817 1031.35 446.204 1030.63C443.788 1029.98 440.436 1027.09 440.133 1024.75C438.995 1015.94 439.654 1004.29 439.638 995.293L439.622 923.618C439.634 876.799 437.141 842.279 411.044 800.557C400.399 783.539 390.911 772.353 380.985 753.868C345.803 689.048 337.993 612.854 359.292 542.244C377.88 478.437 419.073 423.585 475.169 387.946C483.449 382.626 493.83 377.483 502.647 372.742C500.988 370.605 501.53 365.8 501.605 362.793C492.463 362.844 483.017 363.015 473.902 362.846C473.772 353.575 473.768 344.303 473.89 335.032C483.101 335.036 492.428 334.96 501.627 335.063L501.529 307.179C510.754 307.063 520.465 306.796 529.65 307.019C529.499 297.783 529.495 288.545 529.638 279.308Z"/><path fill="#FDFDFD" d="M529.638 279.308C538.82 279.201 548.003 279.2 557.185 279.306L557.175 307.052C566.508 306.908 575.843 306.869 585.177 306.934L585.214 335.023C594.258 335.034 603.632 335.172 612.648 335.001C613.595 333.822 613.195 334.455 613.359 332.613L614.085 334.562C616.513 335.256 636.935 334.946 640.471 334.931L640.551 341.797C640.956 340.524 640.788 336.801 640.783 335.243L668.321 335.243L668.38 341.622C669.056 338.68 667.908 337.135 669.435 335.138C677.079 334.523 688.844 334.897 696.803 334.931C696.8 331.031 696.641 325.966 697.17 322.214C697.315 325.913 697.607 330.066 697.354 333.72C698.81 335.204 720.261 334.628 724.044 334.618L724.044 307.349C733.628 306.929 742.62 306.891 752.222 306.903L752.222 335.004C761.507 334.935 770.791 334.94 780.076 335.018C780.143 343.926 780.389 353.122 780.388 361.983L789.194 362.082C786.036 362.453 783.558 362.528 780.633 363.762C779.59 365.202 780.069 387.003 780.076 390.65L807.63 390.65C807.625 397.504 808.208 407.112 806.418 413.276C806.421 413.499 806.425 413.721 806.428 413.943C785.566 394.084 757.319 376.645 730.73 365.814C672.01 342.288 607.114 339.048 546.343 356.61C530.305 361.186 517.896 366.316 502.647 372.742C500.988 370.605 501.53 365.8 501.605 362.793C492.463 362.844 483.017 363.015 473.902 362.846C473.772 353.575 473.768 344.303 473.89 335.032C483.101 335.036 492.428 334.96 501.627 335.063L501.529 307.179C510.754 307.063 520.465 306.796 529.65 307.019C529.499 297.783 529.495 288.545 529.638 279.308Z"/><path fill="#FDFDFD" d="M1002.72 696.874C1012.29 696.681 1020.97 696.604 1030.53 696.876C1030.62 706.116 1030.59 715.357 1030.45 724.597L1058.66 724.443C1058.57 715.286 1058.66 705.964 1058.52 696.849C1067.85 696.823 1077.33 696.709 1086.65 696.809L1086.59 724.528L1114.47 724.502L1114.54 752.428L1086.53 752.441L1086.53 780.124C1077.47 780.571 1067.81 780.369 1058.68 780.324L1058.57 808.278C1069.83 808.234 1080.8 808.253 1092.05 808.824C1099.18 809.186 1106.13 808.586 1113.34 809.307C1114.93 813.641 1114.41 830.037 1114.39 835.796L1086.84 835.796L1086.64 891.77C1095.94 891.711 1105.23 891.732 1114.53 891.835L1114.33 919.372C1105.12 919.536 1095.9 919.546 1086.69 919.403C1086.69 924.072 1087.57 944.776 1085.47 946.986L1082.56 947.195C1083.93 947.992 1110.45 947.316 1114.43 947.384C1114.57 956.677 1114.88 966.48 1114.36 975.714L1142.25 975.714L1142.25 1002.64L1114.71 1002.65L1114.71 1031.33C1123.98 1031.15 1133.25 1031.09 1142.52 1031.14L1142.46 1058.62C1133.22 1058.87 1123.98 1058.91 1114.74 1058.74C1114.36 1049.59 1114.5 1040.24 1114.54 1031.06L1086.75 1031.04C1086.49 1021.68 1086.44 1012.32 1086.61 1002.96C1078.48 1002.99 1066.45 1002.64 1058.65 1003.14C1058.4 993.913 1058.59 984.441 1058.68 975.19C1049.54 975.432 1039.97 975.305 1030.79 975.311C1030.29 966.341 1030.56 956.306 1030.62 947.231C1021.44 947.597 1012.05 947.365 1002.85 947.243C1002.5 928.906 1002.93 909.952 1002.96 891.516L974.789 891.516L974.815 836.108C966.054 836.14 957.293 836.114 948.533 836.031C952.602 834.814 995.661 835.933 1002.64 836.001L1002.64 808.115C989.152 808.035 975.796 808.377 962.255 808.105C966.694 807.667 970.043 807.83 974.496 807.965C974.361 802.827 974.984 784.076 974.054 780.723C972.836 780.366 972.417 780.309 971.186 780.227C972.862 780.116 973.304 780.32 974.574 779.345C975.231 772.991 974.812 759.403 974.789 752.522L1002.96 752.522L1002.72 696.874Z"/><path fill="#FDFDFD" d="M195.212 390.709C204.441 390.627 213.671 390.598 222.9 390.619L222.986 418.24L250.829 418.313C250.894 427.582 250.909 436.852 250.874 446.121C241.698 446.149 232.096 446.044 222.961 446.257L223.021 473.927L250.985 473.943L250.862 501.429C246.6 501.452 241.285 501.328 237.154 501.889C250.32 502.417 265.186 501.654 278.745 501.757C278.701 510.944 278.718 520.131 278.796 529.318C269.479 529.515 260.158 529.542 250.84 529.398C250.851 538.346 250.635 548.399 250.939 557.254C260.251 557.34 269.563 557.359 278.875 557.311C278.956 566.605 278.97 575.9 278.918 585.194C269.722 585.185 260.037 585.321 250.885 585.035C250.901 594.033 250.701 604.031 251.004 612.947C242.995 612.987 230.535 612.683 222.889 613.35C222.992 622.579 222.997 631.81 222.906 641.039C232.108 641.008 241.559 640.869 250.733 641.121L250.733 668.577L222.898 668.636C223.019 677.923 223.044 687.211 222.973 696.498L195.228 696.636L195.228 724.516C198.539 724.502 227.433 724.19 228.296 724.647L223.795 724.748C222.8 726.435 223.133 728.368 223.178 730.424C222.559 728.293 223.232 726.359 222.713 725.608C222.115 733.908 222.563 743.771 222.57 752.21C228.17 752.218 242.269 751.848 247.212 752.356C213.159 753.457 174.008 752.368 139.556 752.482L139.602 724.353C130.243 724.584 120.881 724.583 111.522 724.349C111.372 715.174 111.381 705.997 111.548 696.823C120.632 696.819 130.634 696.598 139.64 696.842C139.462 687.545 139.434 678.246 139.557 668.949L167.181 668.949C167.198 670.592 167.009 674.199 167.611 675.448C167.704 673.33 167.8 671.368 167.771 669.249C171.979 669.246 177.477 669.399 181.539 668.869C176.811 668.76 172.081 668.691 167.352 668.662L167.303 641.133C176.575 641.091 186.078 640.938 195.329 641.046C195.255 631.683 195.264 622.319 195.356 612.956C186.018 613.04 176.68 613.031 167.342 612.931C167.37 603.72 167.34 594.509 167.253 585.298C158.003 585.14 148.751 585.137 139.501 585.29L139.444 557.257C148.715 557.421 157.987 557.403 167.257 557.204C167.487 548.244 167.287 538.37 167.297 529.334L195.32 529.331L195.301 501.442C186.026 501.605 176.748 501.649 167.471 501.572C167.543 492.358 167.457 483.144 167.214 473.934C159.32 473.484 147.704 473.85 139.526 473.848C139.423 464.747 139.56 455.406 139.588 446.284C148.837 446.037 158.092 446.006 167.342 446.193L167.181 418.241C176.554 418.304 185.927 418.304 195.3 418.243L195.212 390.709Z"/><path fill="#004259" d="M597.926 523.452C636.55 520.804 670.059 549.854 672.915 588.464C675.77 627.074 646.899 660.738 608.305 663.8C569.417 666.885 535.442 637.747 532.565 598.843C529.688 559.94 559.008 526.121 597.926 523.452Z"/><path fill="#FDFDFD" d="M596.173 542.108C624.625 538.49 650.606 558.667 654.144 587.129C657.683 615.591 637.433 641.516 608.961 644.975C580.602 648.42 554.801 628.268 551.277 599.918C547.752 571.568 567.833 545.711 596.173 542.108Z"/><path fill="#FDFDFD" d="M891.244 1031.25L919.093 1031.12C918.593 1038.68 918.976 1051.03 918.965 1058.96C928.312 1058.88 937.66 1058.85 947.008 1058.88C946.752 1063.61 946.471 1081.53 947.241 1085.85C949.254 1087.38 970.594 1086.83 974.774 1086.82L974.886 1114.41C965.547 1114.63 956.204 1114.6 946.867 1114.33C946.554 1105.53 946.769 1095.58 946.767 1086.69L918.98 1086.77L918.987 1099.55L918.787 1114.41C909.599 1114.5 900.41 1114.48 891.223 1114.34C891.014 1105.33 891.203 1095.73 891.231 1086.67C881.99 1086.76 872.748 1086.75 863.507 1086.66C863.088 1078.24 863.383 1067.53 863.416 1059.02L891.203 1058.99L891.192 1064.39L891.763 1065.07L891.449 1066.75C891.868 1064.12 892.248 1061.96 892.848 1059.37L895.189 1059.14L892.387 1058.24C892.057 1057.87 891.728 1057.51 891.398 1057.14C891.106 1051.63 891.236 1035.87 891.244 1031.25Z"/><path fill="#FDFDFD" d="M919.121 947.727C928.344 947.529 937.568 947.409 946.793 947.366C946.814 956.773 946.781 966.18 946.693 975.587L974.477 975.372L974.477 1002.47C966.19 1003.35 955.493 1002.97 946.935 1002.96L946.935 1031.18C956.052 1031.18 965.746 1031.36 974.814 1031.15L974.776 1058.71C965.495 1058.84 956.212 1058.81 946.931 1058.62C946.809 1049.41 946.757 1040.21 946.775 1031L919.093 1031.12C919.057 1021.89 918.874 1012.18 919.094 1002.99C915.386 1003 894.029 1003.28 891.98 1002.66C896.014 1001.59 917.125 1003.71 918.382 1001.29C918.542 1000.98 918.626 1000.64 918.748 1000.31L918.952 1002.1C920.476 1000.88 919.657 979.487 919.682 976.016C921.793 976.014 923.806 976.272 925.628 975.47C922.854 974.872 921.967 975.003 919.071 975.089L919.121 947.727Z"/><path fill="#FDFDFD" d="M723.416 55.8736L724.19 56.2888C724.526 65.0124 724.472 75.2488 724.201 83.9635L752.222 83.9138L752.222 111.75L724.287 111.744C724.304 120.944 724.469 130.554 724.317 139.719C715.074 139.803 706.072 139.912 696.834 139.602C696.518 130.07 696.614 120.693 696.789 111.161C697.127 92.7734 696.418 74.3918 696.589 56.0132C705.53 55.832 714.473 55.7854 723.416 55.8736Z"/><path fill="#FDFDFD" d="M111.471 557.213C111.402 566.584 111.395 575.955 111.45 585.326C120.334 585.291 130.804 585.594 139.501 585.29C139.537 594.495 139.51 603.7 139.42 612.904C130.249 613.135 120.654 613.005 111.449 613.008L111.39 640.771L83.9134 640.771C83.1842 632.685 83.6481 621.447 83.8833 613.301C93.1083 613.2 102.334 613.193 111.559 613.28C111.466 603.909 111.463 594.538 111.551 585.167C102.288 585.247 92.9481 585.156 83.6784 585.125C83.1746 576.285 83.4322 566.096 83.6129 557.255C92.8985 557.417 102.186 557.403 111.471 557.213Z"/><path fill="#004259" d="M842.579 708.565C847.03 708.968 851.52 710.562 852.335 715.602C852.83 719.028 851.018 723.182 848.786 725.663C834.894 741.108 813.33 747.314 793.099 743.735C781.696 741.717 773.31 737.243 764.517 729.945C759.13 724.809 749.725 715.632 762.805 709.147C768.253 706.446 772.5 712.711 776.129 715.979C789.898 728.217 812.944 729.64 828.101 719.201C833.233 715.666 836.407 710.327 842.579 708.565Z"/><path fill="#004259" d="M623.798 214.356C632.363 213.714 636.948 216.769 636.949 225.796C636.952 247.177 637.677 268.862 636.514 290.173C636.354 293.09 632.47 295.705 630.294 296.978C628.603 297.328 626.863 297.37 625.158 297.103C619.038 296.134 616.916 291.749 616.946 286.011C617.06 264.475 616.091 242.624 617.315 221.156C617.482 218.234 621.636 215.608 623.798 214.356Z"/><path fill="#FDFDFD" d="M1030.86 223.369L1058.58 223.37C1058.63 232.651 1058.64 241.933 1058.6 251.214C1067.74 250.989 1077.49 251.169 1086.67 251.185C1086.69 260.489 1086.66 269.794 1086.57 279.097C1077.41 279.275 1067.87 279.156 1058.68 279.173C1058.48 269.808 1058.48 260.441 1058.67 251.076C1049.33 251.164 1040 251.203 1030.66 251.191C1030.45 241.917 1030.51 232.639 1030.86 223.369Z"/><path fill="#FDFDFD" d="M334.505 919.8C343.495 919.459 353.303 919.697 362.414 919.602C362.266 928.774 362.386 938.234 362.388 947.43C370.412 947.256 382.335 946.95 390.109 947.702C390.162 956.901 390.134 966.101 390.025 975.3L362.432 975.273L362.51 947.234C353.276 947.534 344.108 947.361 334.872 947.254C334.033 940.273 334.454 927.187 334.505 919.8Z"/><path fill="#FDFDFD" d="M1058.6 418.315L1086.53 418.316L1086.53 446.058L1058.61 446.058L1058.56 473.911C1049.37 473.837 1040.18 473.812 1030.98 473.836C1030.14 464.744 1030.82 455.438 1030.82 446.329C1039.95 445.873 1049.54 446.1 1058.72 446.184C1058.5 436.896 1058.46 427.605 1058.6 418.315Z"/><path fill="#FDFDFD" d="M1002.81 529.577C1012.07 529.534 1021.33 529.542 1030.58 529.602L1030.56 557.129C1021.28 557.309 1012 557.302 1002.71 557.109C1002.81 566.471 1002.81 575.834 1002.7 585.196C993.913 585.223 983.375 584.968 974.74 585.326L974.826 557.27C984.171 557.322 993.517 557.326 1002.86 557.282C1002.67 548.048 1002.65 538.811 1002.81 529.577Z"/><path fill="#FDFDFD" d="M501.608 195.579C510.527 195.256 520.533 195.448 529.494 195.491C529.578 204.816 529.558 214.142 529.436 223.467C538.681 223.318 547.927 223.275 557.172 223.339C557.254 228.019 558.094 248.353 556.444 251.057C547.769 251.289 538.42 251.124 529.694 251.128C529.496 241.805 529.489 232.479 529.674 223.155C520.318 223.265 510.962 223.301 501.607 223.261C501.463 214.034 501.463 204.805 501.608 195.579Z"/><path fill="#FDFDFD" d="M807.751 1031.11L807.562 1058.85C815.73 1058.86 827.866 1059.27 835.698 1058.82C835.686 1067.78 835.855 1077.78 835.517 1086.71L807.764 1086.8C807.532 1077.58 807.675 1067.93 807.685 1058.68C798.584 1058.77 789.483 1058.77 780.383 1058.66C780.019 1049.69 780.158 1040.25 780.164 1031.24C789.312 1031.09 798.592 1031.14 807.751 1031.11Z"/><path fill="#FDFDFD" d="M501.501 975.31C508.627 975.479 522.978 975.947 529.62 975.359L529.534 1003.01L501.524 1003.18L501.433 1031.04L473.979 1031.03C473.847 1021.79 473.8 1012.55 473.84 1003.3C483.085 1003.13 492.332 1003.09 501.578 1003.18C501.276 994.35 501.503 984.254 501.501 975.31Z"/><path fill="#FDFDFD" d="M222.942 808.259L250.733 808.286L250.733 835.816C245.778 835.951 226.812 835.498 224.282 836.375C223.457 837.285 222.729 837.86 222.767 839.239C222.993 847.492 223.08 855.658 222.895 863.92C213.725 863.945 204.556 863.915 195.386 863.831C195.307 854.992 195.022 845.108 195.453 836.374C196.669 835.549 220.009 836.026 223.075 836.058C222.911 826.793 222.866 817.526 222.942 808.259Z"/><path fill="#FDFDFD" d="M919.098 557.51L946.803 557.51C946.748 566.791 946.762 576.072 946.845 585.353L974.74 585.326L974.857 612.995L946.925 612.941C946.472 604.385 946.783 593.882 946.831 585.175C937.61 585.19 928.388 585.149 919.167 585.051C918.849 576.073 919.047 566.54 919.098 557.51Z"/><path fill="#FDFDFD" d="M1170.43 1142.6C1179.68 1142.47 1188.94 1142.46 1198.2 1142.56L1198.22 1170.43L1225.93 1170.43C1226.02 1179.74 1226.14 1188.85 1225.83 1198.16L1198.32 1198.17L1198.27 1170.09C1189.04 1170.22 1179.81 1170.21 1170.58 1170.07C1170.29 1161.19 1170.45 1151.54 1170.43 1142.6Z"/><path fill="#FDFDFD" d="M724.317 139.719L752.237 139.756L752.134 167.609L724.313 167.512L724.245 195.307L696.842 195.388C696.461 186.112 696.592 177.064 696.674 167.782L724.356 167.708L724.317 139.719Z"/><path fill="#004259" d="M829.081 272.517C836.597 271.904 844.125 276.462 841.675 284.975C840.734 288.245 833.843 300.527 831.847 303.452C825.682 312.487 814.159 339.948 805.791 344.405C798.104 345.51 790.2 338.871 793.434 332.015C802.403 312.999 813.845 294.531 824.228 276.215C825.09 274.694 827.584 273.336 829.081 272.517Z"/><path fill="#004259" d="M418.304 272.551C420.067 272.387 422.778 272.359 424.443 272.944C426.198 273.541 427.734 274.649 428.855 276.125C432.131 280.464 439.324 294.863 442.432 300.258C447.775 310.05 453.365 319.748 458.654 329.567C460.255 332.538 460.278 336.217 458.917 339.268C457.636 342.136 455.119 343.464 452.444 344.74C447.111 344.909 444.047 343.838 441.3 339.079C433.485 325.544 426.076 311.778 418.42 298.151C416.35 293.821 412.907 289.29 411.484 284.692C409.593 278.579 413.782 275.012 418.304 272.551Z"/><path fill="#004259" d="M281.695 394.43C287.766 394.128 290.013 395.393 295.21 398.421C309.309 406.634 323.765 414.464 337.601 423.096C345.725 428.164 344.382 436.966 336.151 441.397C329.186 441.878 327.409 440.27 321.47 436.778C307.92 428.81 293.862 421.434 280.585 413.034C272.011 407.61 273.428 399.355 281.695 394.43Z"/><path fill="#004259" d="M946.866 415.547C952.752 411.55 960.771 408.312 965.597 416.056C967.008 418.298 967.417 421.027 966.726 423.584C964.621 431.412 930.094 447.912 922.712 453.752C917.729 457.694 908.626 457.676 905.984 451.047C900.164 438.938 930.904 425.367 939.812 419.734L946.866 415.547Z"/><path fill="#004259" d="M601.264 438.499C602.615 438.551 604.004 438.591 605.316 438.942C608.036 439.671 609.948 441.307 611.198 443.835C613.23 447.945 613.187 491.33 611.348 496.078C610.263 498.877 607.52 500.135 604.988 501.312C603.48 501.317 602.096 501.284 600.624 500.912C598.214 500.303 596.19 498.899 595.005 496.67C593.14 493.164 592.816 449.119 594.424 444.72C595.707 441.211 598.026 440 601.264 438.499Z"/><path fill="#004259" d="M703.263 584.349C712.721 584.319 740.205 582.646 747.118 585.929C749.257 586.945 751.115 588.663 751.839 590.971C752.589 593.362 752.133 596.388 750.868 598.528C749.27 601.232 746.667 602.228 743.781 603.01C732.339 603.151 711.606 604.337 700.615 601.769C692.561 599.887 692.262 587.384 703.263 584.349Z"/><path fill="#004259" d="M462.958 584.45C475.513 584.194 491.02 583.488 503.228 585.049C513.076 586.308 513.86 599.687 502.066 603.073C490.44 603.17 448.286 608.777 454.28 590.509C455.631 586.394 459.112 584.972 462.958 584.45Z"/><path fill="#004259" d="M503.792 488.029C505.492 487.971 507.211 487.935 508.885 488.29C513.7 489.309 535.415 512.507 538.45 517.434C539.703 519.468 540.353 521.757 539.645 524.125C538.634 527.508 536.204 529.111 533.29 530.815C525.465 530.946 519.957 524.609 514.842 519.098C507.574 511.267 487.41 496.906 503.792 488.029Z"/><path fill="#004259" d="M696.112 488.04C699.751 487.868 705.677 488.424 707.252 492.007C711.133 500.777 699.712 510.042 694.102 515.551C690.02 519.559 682.357 527.914 677.614 530.639C670.456 531.372 663.28 526.087 665.922 520.186C669.25 512.754 689.744 491.812 696.112 488.04Z"/><path fill="#004259" d="M529.104 655.154C548.876 655.119 536.136 674.685 527.797 680.695C522.073 684.821 515.337 695.389 508.311 698.147C488.512 698.726 500.626 679.375 509.044 673.054C515.286 668.367 521.281 658.297 529.104 655.154Z"/><path fill="#004259" d="M673.693 655.187C680.671 655.597 686.349 662.656 691.071 667.607C698.422 675.316 718.587 690.43 700.311 698.413C692.638 697.777 686.826 689.709 681.331 684.429C673.959 677.345 655.312 661.887 673.693 655.187Z"/><path fill="#FDFDFD" d="M1198.28 1058.99L1225.98 1058.99L1225.9 1086.76L1198.21 1086.67L1198.2 1113.48C1197.12 1111.58 1197.63 1090.93 1197.67 1087.45C1191.15 1087.48 1177.37 1087.87 1171.52 1087.06C1180.45 1086.82 1189.37 1086.75 1198.3 1086.85L1198.28 1058.99Z"/><path fill="#FDFDFD" d="M418.171 223.462L445.797 223.383C446.147 232.272 445.98 242.157 446.005 251.12C448.361 251.107 470.922 250.898 471.566 251.518L467.495 251.657C460.658 251.573 453.821 251.595 446.986 251.722C445.783 253.038 446.849 254.009 446.077 256.725C445.574 253.761 446.504 253.228 445.112 251.299C438.863 250.693 424.99 251.154 418.177 251.188C417.867 241.727 417.997 232.94 418.171 223.462Z"/><path fill="#FDFDFD" d="M195.279 251.164C195.252 259.999 194.942 270.536 195.273 279.231C186.65 278.887 176.13 279.147 167.354 279.121C167.143 270.098 167.335 260.341 167.341 251.26C176.653 251.161 185.966 251.128 195.279 251.164Z"/><path fill="#FDFDFD" d="M306.746 1058.99C315.682 1059 325.709 1058.79 334.555 1059.1L334.611 1087.08C332.309 1086.27 310.259 1086.76 306.764 1086.8C306.455 1077.53 306.449 1068.26 306.746 1058.99Z"/><path fill="#FDFDFD" d="M55.841 251.196C65.0047 251.073 74.3791 251.196 83.5601 251.218C84.0488 259.845 83.7339 270.473 83.625 279.138C74.5576 279.305 65.027 279.122 55.9242 279.084C55.6188 269.957 55.7977 260.367 55.841 251.196Z"/><path fill="#FDFDFD" d="M1058.73 557.227C1058.61 566.566 1058.59 575.907 1058.64 585.247C1049.67 585.001 1039.74 585.209 1030.69 585.204C1030.61 575.905 1030.6 566.605 1030.64 557.305C1040 557.392 1049.36 557.366 1058.73 557.227Z"/><path fill="#FDFDFD" d="M245.241 779.766C247.6 779.276 274.448 780.476 278.87 780.512C278.682 789.495 278.878 799.133 278.899 808.166C269.621 808.145 260.343 808.067 251.066 807.93C250.62 799.532 250.864 789.584 250.761 781.001C249.832 779.967 247.161 780.334 245.241 779.766Z"/><path fill="#FDFDFD" d="M1058.64 585.247C1067.14 585.3 1078.47 585.702 1086.74 585.271C1086.32 593.361 1086.68 604.691 1086.67 613.033C1078.03 613.413 1067.51 613.068 1058.67 613.054C1058.44 603.914 1058.6 594.416 1058.64 585.247Z"/><path fill="#FDFDFD" d="M306.721 557.252C316.02 557.364 325.32 557.351 334.618 557.214C334.604 566.312 334.755 575.992 334.506 585.041L306.779 585.275C306.603 575.935 306.583 566.593 306.721 557.252Z"/><path fill="#FDFDFD" d="M807.714 1003.32C817.013 1003.2 826.314 1003.15 835.615 1003.19C835.648 1012.33 835.825 1021.95 835.451 1031.04C827.689 1031.04 815.116 1030.62 807.751 1031.11C807.619 1021.85 807.606 1012.58 807.714 1003.32Z"/><path fill="#FDFDFD" d="M1002.96 251.351C1011.9 250.956 1021.49 251.391 1030.58 251.266C1030.61 260.516 1030.58 269.766 1030.48 279.015C1021.76 279.456 1011.66 279.214 1002.82 279.191C1002.61 270.149 1002.44 260.356 1002.96 251.351Z"/><path fill="#FDFDFD" d="M281.827 251.438C290.344 251.079 298.184 251.251 306.708 251.397C306.753 256.312 307.173 274.761 306.313 278.746L305.081 279.108C296.539 279.29 287.549 279.158 278.972 279.167C278.832 274.332 277.958 254.48 279.962 251.546L281.827 251.438Z"/><path fill="#FDFDFD" d="M1058.59 307.077L1086.53 307.077L1086.53 334.883L1058.71 334.892C1058.49 325.622 1058.45 316.349 1058.59 307.077Z"/><path fill="#FDFDFD" d="M306.658 613.295C316.213 613.137 325.078 613.046 334.618 613.342C334.788 622.484 334.788 631.628 334.618 640.77C326.366 640.853 314.781 640.58 306.776 641.059C306.743 631.977 306.484 622.308 306.658 613.295Z"/><path fill="#FDFDFD" d="M1030.71 1058.92C1040.01 1058.86 1049.3 1058.89 1058.6 1059.01C1058.65 1068.24 1058.62 1077.47 1058.49 1086.7L1030.77 1086.71C1030.3 1077.68 1030.57 1067.98 1030.71 1058.92Z"/><path fill="#FDFDFD" d="M306.814 947.626C315.472 947.292 325.906 947.558 334.703 947.548C334.849 956.774 334.823 966.002 334.624 975.227C325.439 975.357 316.001 975.241 306.794 975.238C306.596 966.133 306.758 956.756 306.814 947.626Z"/><path fill="#FDFDFD" d="M501.531 84.0058C510.859 83.9185 520.188 83.9118 529.517 83.9856C529.581 93.115 529.724 102.167 529.324 111.29C525.808 112.406 505.895 111.588 501.58 111.44L501.531 84.0058Z"/><path fill="#FDFDFD" d="M1142.51 724.48L1170.23 724.468C1170.31 733.622 1170.54 743.269 1170.33 752.38C1161.08 752.463 1151.84 752.484 1142.6 752.441L1142.51 724.48Z"/><path fill="#FDFDFD" d="M1114.51 139.918L1142.51 139.918C1142.59 149.098 1142.56 158.278 1142.45 167.458C1133.32 167.617 1124.08 167.584 1114.95 167.622C1114.15 160.039 1114.49 147.91 1114.51 139.918Z"/><path fill="#FDFDFD" d="M1114.56 696.854C1123.87 696.789 1133.19 696.786 1142.51 696.844L1142.51 724.48C1133.26 724.516 1124.01 724.474 1114.76 724.355C1114.29 715.578 1114.52 705.732 1114.56 696.854Z"/><path fill="#FDFDFD" d="M752.297 279.34C761.554 279.146 770.814 279.149 780.071 279.348C780.122 283.233 780.796 304.647 779.313 307.055C770.911 307.557 760.763 307.02 752.29 306.753C752.247 297.936 751.994 288.075 752.297 279.34Z"/><path fill="#FDFDFD" d="M390.214 84.0043L418.044 83.9926C418.137 92.4435 418.448 103.371 417.903 111.694C409.155 111.938 399.026 112.002 390.344 111.594C389.944 103.068 390.213 92.6703 390.214 84.0043Z"/><path fill="#FDFDFD" d="M167.492 139.788L195.223 139.757C195.283 148.772 195.485 158.679 195.094 167.617L167.561 167.707C167.023 161.831 167.042 145.561 167.492 139.788Z"/><path fill="#FDFDFD" d="M983.588 613.208C989.979 613.116 996.371 613.103 1002.76 613.172L1002.71 640.814L995.775 640.983L974.919 640.861C974.699 631.78 974.84 622.404 974.869 613.298L983.588 613.208Z"/><path fill="#FDFDFD" d="M446.011 84.001C455.251 83.8509 464.493 83.868 473.732 84.0523C473.749 92.8391 474.07 103.124 473.622 111.745C464.43 111.822 455.355 112.009 446.175 111.442C445.698 102.662 445.951 92.8797 446.011 84.001Z"/><path fill="#FDFDFD" d="M946.952 307.113L974.739 307.077L974.819 334.873L946.964 334.84L946.952 307.113Z"/><path fill="#FDFDFD" d="M111.579 139.829C120.333 139.521 130.582 139.769 139.453 139.76C139.449 149.024 139.391 158.288 139.277 167.552C130.028 167.621 120.778 167.506 111.534 167.206C111.374 158.221 111.543 148.844 111.579 139.829Z"/><path fill="#FDFDFD" d="M1058.65 1003.14C1058.66 1012.44 1058.6 1021.75 1058.48 1031.05L1030.71 1031.01C1030.43 1021.74 1030.59 1012.56 1030.69 1003.29C1039.63 1003.03 1050.08 1003.67 1058.65 1003.14Z"/><path fill="#FDFDFD" d="M390.125 1086.95C399.339 1086.75 408.889 1086.82 418.131 1086.76L418.13 1114.54C408.633 1114.49 399.823 1114.58 390.229 1114.37C390.016 1105.46 390.157 1095.92 390.125 1086.95Z"/><path fill="#FDFDFD" d="M1115.19 864.074L1142.48 864.056C1142.51 870.918 1142.96 884.664 1142.26 890.898L1141.36 891.573C1132.83 892.22 1123.3 891.826 1114.73 891.561C1114.47 886.94 1114.03 867.663 1115.19 864.074Z"/><path fill="#FDFDFD" d="M1030.69 501.851C1039.43 501.541 1049.76 501.814 1058.62 501.82C1058.63 508.878 1059.06 522.946 1058.36 529.336C1049.45 529.586 1039.93 529.449 1030.97 529.47C1030.33 521.009 1030.69 510.527 1030.69 501.851Z"/><path fill="#FDFDFD" d="M1087.11 335.094C1096.06 334.89 1105.53 335.036 1114.52 335.031C1114.58 341.835 1114.94 356.288 1114.18 362.536C1105.06 362.861 1095.92 362.879 1086.8 362.59C1086.59 356.539 1086.02 340.689 1087.11 335.094Z"/><path fill="#FDFDFD" d="M871.594 1114.71C877.96 1114.55 884.859 1114.65 891.267 1114.63C891.435 1123.91 891.417 1133.19 891.213 1142.46L883.709 1142.46L863.547 1142.38C863.139 1133.97 863.43 1123.48 863.44 1114.92L871.594 1114.71Z"/><path fill="#FDFDFD" d="M1114.46 529.564L1142.5 529.588L1142.49 557.151L1114.46 557.192C1114.59 547.983 1114.59 538.773 1114.46 529.564Z"/><path fill="#FDFDFD" d="M111.575 752.548L139.293 752.538L139.293 780.166C130.57 780.643 120.285 780.369 111.536 780.261C111.327 771.229 111.529 761.622 111.575 752.548Z"/><path fill="#FDFDFD" d="M111.488 501.598C111.427 510.912 111.422 520.226 111.473 529.54C102.939 529.194 92.5929 529.433 83.9124 529.396C83.3197 520.229 83.2529 511.036 83.7124 501.862C92.8209 501.557 102.372 502.185 111.488 501.598Z"/><path fill="#FDFDFD" d="M111.435 195.38C120.791 195.543 130.149 195.584 139.507 195.501C139.394 202.933 139.808 216.452 139.245 223.032C130.227 223.379 120.619 223.204 111.546 223.179C111.512 214.069 111.643 204.442 111.435 195.38Z"/><path fill="#FDFDFD" d="M28.1434 1058.87C37.3525 1058.91 46.5617 1058.89 55.7704 1058.81C55.9017 1068.12 55.9213 1077.43 55.8291 1086.74L28.3087 1086.74C27.7471 1078.06 28.0038 1067.58 28.1434 1058.87Z"/><path fill="#FDFDFD" d="M361.872 764.539C362.957 767.476 362.474 776.712 362.411 780.388L389.847 780.388C389.925 784.799 390.921 805.21 389.484 807.804L386.517 807.93C378.657 807.912 370.287 807.738 362.485 808.148C362.299 803.05 363.285 782.84 361.667 780.411C360.154 780.344 359.242 780.303 357.724 780.09L357.943 779.609L360.69 779.501C362.619 777.479 361.92 767.964 361.872 764.539Z"/><path fill="#FDFDFD" d="M1086.81 668.836C1096.04 668.908 1105.27 668.895 1114.5 668.798C1114.28 675.848 1115.09 690.149 1114.12 696.421C1105.21 696.713 1095.76 696.57 1086.8 696.572C1086.4 687.107 1086.54 678.29 1086.81 668.836Z"/><path fill="#FDFDFD" d="M1086.73 279.315C1095.97 279.227 1105.22 279.223 1114.47 279.302C1114.53 288.486 1114.5 297.671 1114.37 306.855C1104.76 307.17 1096.48 307.042 1086.87 306.795C1086.54 297.547 1086.65 288.57 1086.73 279.315Z"/><path fill="#FDFDFD" d="M1142.58 891.945C1150.89 891.508 1161.96 891.829 1170.49 891.828L1170.35 919.389C1161.1 919.519 1151.85 919.529 1142.61 919.419C1142.34 910.433 1142.53 900.97 1142.58 891.945Z"/><path fill="#FDFDFD" d="M84.2758 446.391C92.5061 446.062 104.204 446.616 111.421 446.043L111.447 473.906C102.204 473.789 92.9597 473.764 83.7162 473.832C83.6405 469.985 82.8264 448.747 84.2758 446.391Z"/><path fill="#FDFDFD" d="M418.11 111.995L445.839 111.905L445.983 139.635L418.176 139.696C417.747 130.694 418.01 121.06 418.11 111.995Z"/><path fill="#FDFDFD" d="M473.866 947.602C483.11 947.356 492.359 947.32 501.606 947.492C501.517 956.764 501.482 966.037 501.501 975.31L473.82 975.286C473.413 965.701 473.998 956.944 473.866 947.602Z"/><path fill="#FDFDFD" d="M55.8199 473.987C65.1391 473.872 74.4595 473.903 83.7777 474.08C83.2206 481.472 83.8424 492.492 83.5569 500.714C81.6177 502.2 60.0722 501.62 55.938 501.599C55.7047 492.397 55.6653 483.191 55.8199 473.987Z"/><path fill="#FDFDFD" d="M1142.56 279.32C1151.82 279.157 1161.08 279.164 1170.35 279.339C1170.4 288.509 1170.36 297.68 1170.21 306.849C1161.01 307.019 1151.81 307.004 1142.62 306.804C1142.41 297.644 1142.39 288.481 1142.56 279.32Z"/><path fill="#FDFDFD" d="M83.8698 56.032C92.8328 56.0459 102.497 55.8683 111.396 56.0826C111.407 64.911 111.156 75.1629 111.467 83.8681C102.268 83.6483 92.8449 83.9637 83.7444 83.5027C83.4393 74.7611 83.2749 64.7798 83.8698 56.032Z"/><path fill="#FDFDFD" d="M111.498 808.339L139.534 808.287C139.216 817.347 139.351 826.74 139.37 835.835C129.961 836.149 120.937 836.002 111.519 835.865C111.419 826.69 111.412 817.514 111.498 808.339Z"/><path fill="#FDFDFD" d="M251.043 83.8099C250.621 93.1226 250.711 102.175 250.733 111.51C241.717 111.793 232.696 111.806 223.68 111.55C222.329 109.398 222.948 88.2821 222.99 84.0041C232.341 84.0068 241.692 83.9421 251.043 83.8099Z"/><path fill="#FDFDFD" d="M111.467 83.8681C120.84 84.0106 130.215 84.0451 139.589 83.9717C138.852 93.5215 139.642 102.464 139.179 111.627C129.965 111.788 120.749 111.78 111.536 111.602C111.521 102.71 111.746 92.6566 111.467 83.8681Z"/><path fill="#FDFDFD" d="M502.347 139.783L529.475 139.762C529.516 143.97 530.128 165.515 528.807 167.607L501.73 167.499C501.49 163.763 500.902 141.832 502.347 139.783Z"/><path fill="#FDFDFD" d="M1002.81 1142.58C1011.85 1142.34 1021.48 1142.49 1030.56 1142.49C1030.61 1150.93 1030.93 1161.8 1030.35 1170.08C1021.33 1170.27 1011.91 1170.13 1002.86 1170.11C1002.62 1160.94 1002.61 1151.76 1002.81 1142.58Z"/><path fill="#FDFDFD" d="M83.8602 223.492C93.0097 223.37 102.291 223.444 111.452 223.439C111.48 232.579 111.617 241.928 111.272 251.043C102.199 251.227 92.7619 251.075 83.6597 251.047C83.397 241.612 83.6049 232.942 83.8602 223.492Z"/><path fill="#FDFDFD" d="M1114.54 1086.88C1123.72 1086.69 1133.26 1086.86 1142.47 1086.91L1142.46 1114.38C1133.4 1114.64 1123.93 1114.43 1114.83 1114.35C1114.06 1106.96 1114.47 1094.7 1114.54 1086.88Z"/><path fill="#FDFDFD" d="M1058.65 28.1747L1086.53 28.1139L1086.53 55.8101L1058.67 55.8556C1058.34 46.5469 1058.52 37.4878 1058.65 28.1747Z"/><path fill="#FDFDFD" d="M1058.63 529.589L1086.67 529.519L1086.65 557.109C1077.64 557.203 1067.54 556.941 1058.73 557.227C1058.58 548.015 1058.54 538.802 1058.63 529.589Z"/><path fill="#FDFDFD" d="M1086.61 390.7C1095.92 390.505 1105.23 390.47 1114.54 390.596C1114.33 399.628 1114.45 409.05 1114.32 418.16C1105.17 418.241 1096.01 418.213 1086.85 418.074C1086.34 409.242 1086.56 399.614 1086.61 390.7Z"/><path fill="#FDFDFD" d="M835.564 1086.89L863.376 1086.84C863.41 1095.59 863.67 1105.74 863.107 1114.34C853.414 1114.77 845.23 1114.85 835.598 1114.27C835.077 1105.7 835.44 1095.6 835.564 1086.89Z"/><path fill="#FDFDFD" d="M1114.46 557.192L1114.41 585.184C1105.86 585.195 1095.11 584.895 1086.74 585.271C1087.13 577.367 1086.7 565.775 1086.84 557.312C1096.05 557.39 1105.25 557.35 1114.46 557.192Z"/><path fill="#FDFDFD" d="M278.911 696.84C288.185 696.662 297.462 696.638 306.737 696.767L306.676 724.391C297.502 724.692 288.321 724.659 279.15 724.293C278.614 716.097 278.905 705.24 278.911 696.84Z"/><path fill="#FDFDFD" d="M986.123 947.542C989.784 947.064 998.593 947.322 1002.64 947.332L1002.64 975.089C998.878 975.052 995.846 975.133 992.087 975.35L974.875 975.253C974.661 966.232 974.845 956.613 974.866 947.548L986.123 947.542Z"/><path fill="#FDFDFD" d="M585.305 947.548C594.065 947.551 604.558 947.844 613.166 947.528C613.249 956.715 613.22 965.903 613.077 975.089C605.003 975.147 593.182 974.866 585.282 975.378C585.351 966.102 585.359 956.824 585.305 947.548Z"/><path fill="#FDFDFD" d="M1086.72 223.436C1095.98 223.3 1105.25 223.28 1114.51 223.374L1114.35 251.056C1105.39 251.292 1095.88 251.119 1086.87 251.095C1086.38 241.994 1086.62 232.574 1086.72 223.436Z"/><path fill="#FDFDFD" d="M55.8886 529.676C65.0576 529.527 74.3906 529.6 83.5735 529.587C83.6786 538.736 83.8863 548.008 83.5003 557.138C74.2927 557.226 65.0844 557.221 55.8768 557.125C55.7253 547.976 55.7292 538.825 55.8886 529.676Z"/><path fill="#FDFDFD" d="M279.116 28.2343C288.058 27.9699 297.73 28.1574 306.727 28.174C306.787 37.3612 306.734 46.5488 306.569 55.7347C297.406 55.8106 288.243 55.8157 279.081 55.7498C278.804 46.761 278.576 37.1963 279.116 28.2343Z"/><path fill="#FDFDFD" d="M1143.48 947.494L1170.4 947.458C1170.45 956.716 1170.39 965.975 1170.22 975.231L1142.61 975.351C1142.53 971.239 1141.75 949.608 1143.48 947.494Z"/><path fill="#FDFDFD" d="M919.05 390.663C928.316 390.531 937.583 390.512 946.849 390.604C946.713 398.746 946.878 407.358 946.866 415.547L939.812 419.734C933.582 417.503 925.756 418.065 919.044 418.103C918.936 408.957 918.938 399.81 919.05 390.663Z"/><path fill="#FDFDFD" d="M1008.01 1031.43C1015.08 1030.8 1023.38 1031.13 1030.56 1031.25C1030.59 1037.44 1031.02 1052.51 1030.29 1057.98C1028.73 1059 1027.97 1058.64 1025.76 1058.72C1018.52 1058.98 1010.21 1058.76 1002.89 1058.71C1002.39 1050.22 1002.68 1040.06 1002.73 1031.43L1008.01 1031.43Z"/><path fill="#FDFDFD" d="M1030.82 56.032L1058.36 56.032C1058.31 65.1266 1058.58 74.5937 1058.59 83.7766C1049.58 83.544 1039.78 83.7467 1030.71 83.7598C1030.32 74.9801 1030.74 64.9624 1030.82 56.032Z"/><path fill="#FDFDFD" d="M1114.57 919.77C1123.7 919.557 1133.34 919.699 1142.51 919.689L1142.46 947.333C1133.27 947.536 1123.78 947.353 1114.56 947.285L1114.57 919.77Z"/><path fill="#FDFDFD" d="M223.357 919.768L250.735 919.654L250.733 947.23C241.551 947.505 232.363 947.499 223.182 947.213C222.975 940.422 222.417 926.18 223.357 919.768Z"/><path fill="#FDFDFD" d="M111.473 529.54L139.49 529.55C139.46 538.671 139.536 548.024 139.347 557.125C130.542 557.224 119.958 556.875 111.471 557.213C111.528 547.989 111.528 538.764 111.473 529.54Z"/><path fill="#FDFDFD" d="M1002.88 28.172C1012.02 28.0228 1021.45 28.1487 1030.61 28.1616L1030.47 55.7246C1021.28 55.8775 1012.09 55.8696 1002.91 55.7011C1002.64 46.5267 1002.64 37.3469 1002.88 28.172Z"/><path fill="#FDFDFD" d="M974.858 1114.88C983.742 1114.55 993.679 1114.73 1002.64 1114.71L1002.64 1142.43L974.904 1142.46C974.754 1133.36 974.859 1124.01 974.858 1114.88Z"/><path fill="#FDFDFD" d="M835.482 1031.25C844.75 1031.06 854.02 1031.06 863.288 1031.26C863.402 1040.4 863.377 1049.54 863.213 1058.68C855.717 1058.69 842.742 1058.3 835.698 1058.82C835.428 1049.63 835.356 1040.44 835.482 1031.25Z"/><path fill="#FDFDFD" d="M362.476 223.469C371.669 223.37 380.861 223.341 390.054 223.383C390.168 232.613 390.147 241.844 389.989 251.074C380.931 251.262 371.55 251.118 362.465 251.091C362.374 241.919 362.459 232.649 362.476 223.469Z"/><path fill="#FDFDFD" d="M1170.56 864.116C1179.45 863.85 1189.21 864.052 1198.16 864.06C1198.21 873.24 1198.2 882.421 1198.14 891.601C1188.96 891.818 1179.77 891.826 1170.58 891.626C1170.27 882.536 1170.47 873.227 1170.56 864.116Z"/><path fill="#FDFDFD" d="M146.564 613.229C153.187 612.931 160.472 613.123 167.148 613.165C167.297 622.382 167.283 631.601 167.106 640.818L160.577 640.947L139.622 641.052C139.361 631.894 139.54 622.538 139.618 613.361L146.564 613.229Z"/><path fill="#FDFDFD" d="M1002.72 83.929L1030.57 83.9351L1030.43 111.715C1021.26 111.753 1012.05 111.874 1002.9 111.482C1002.75 102.298 1002.7 93.1137 1002.72 83.929Z"/><path fill="#FDFDFD" d="M36.3891 613.209C42.5902 612.955 49.2693 613.381 55.7203 613.168C55.8868 622.267 55.7733 631.646 55.7721 640.767C53.8405 640.791 51.9093 640.839 49.979 640.913C42.8752 641.06 35.3581 640.939 28.2203 640.933C27.8602 632.185 28.0979 622.16 28.1189 613.316L36.3891 613.209Z"/><path fill="#FDFDFD" d="M640.935 111.955L668.621 111.849L668.635 139.649C659.535 139.892 650.219 139.732 641.098 139.67C640.696 130.807 640.914 120.902 640.935 111.955Z"/><path fill="#FDFDFD" d="M223.071 195.543C232.33 195.445 241.59 195.41 250.85 195.438C250.891 204.386 250.372 214.252 251.061 223.089L223.058 223.179C222.844 213.968 222.848 204.753 223.071 195.543Z"/><path fill="#FDFDFD" d="M389.356 1114.75C390.718 1117.02 390.098 1138.04 390.063 1142.47L363.229 1142.44C361.828 1140.81 362.404 1118.72 362.414 1114.85L389.356 1114.75Z"/><path fill="#FDFDFD" d="M251.069 223.448C260.302 223.381 269.535 223.373 278.767 223.425L278.732 251.078L251.028 251.168C250.598 241.976 250.892 232.658 251.069 223.448Z"/><path fill="#FDFDFD" d="M473.904 223.448C483.09 223.339 492.278 223.341 501.464 223.452L501.507 251.119C492.274 251.221 483.04 251.209 473.806 251.083C473.411 242.052 473.739 232.528 473.904 223.448Z"/><path fill="#FDFDFD" d="M83.7087 947.599L111.37 947.336C111.393 956.242 111.152 966.578 111.466 975.358C102.195 975.076 92.9185 974.987 83.6433 975.089C83.6056 966.001 83.4604 956.659 83.7087 947.599Z"/><path fill="#FDFDFD" d="M1058.56 473.911L1086.52 474.03C1086.71 483.185 1086.74 492.344 1086.6 501.501L1058.63 501.44C1058.54 492.264 1058.51 483.088 1058.56 473.911Z"/><path fill="#FDFDFD" d="M529.661 947.551C536.51 947.461 551.098 946.958 557.221 947.737L557.239 975.245C549.179 975.249 537.373 974.88 529.62 975.359C529.533 966.09 529.547 956.82 529.661 947.551Z"/><path fill="#FDFDFD" d="M83.5887 167.837C92.863 167.727 102.138 167.681 111.413 167.697L111.435 195.38L83.8715 195.302C83.3735 186.8 83.3186 176.362 83.5887 167.837Z"/><path fill="#FDFDFD" d="M139.548 111.969C148.487 111.68 158.192 111.842 167.188 111.829L167.154 139.613C157.977 139.737 148.799 139.74 139.622 139.621C139.366 130.494 139.508 121.121 139.548 111.969Z"/><path fill="#FDFDFD" d="M223.012 975.356C232.251 975.523 241.492 975.563 250.733 975.476C250.726 984.103 250.479 994.486 251.098 1002.93C243.238 1002.94 230.413 1002.59 222.963 1003.12C222.927 993.863 222.943 984.609 223.012 975.356Z"/><path fill="#FDFDFD" d="M1086.74 501.914C1095.65 501.685 1105.44 501.552 1114.36 501.916C1114.41 511.08 1114.55 520.416 1114.46 529.564L1086.86 529.399C1086.49 520.241 1086.45 511.074 1086.74 501.914Z"/><path fill="#FDFDFD" d="M724.65 1031.29C733.69 1030.92 743.04 1031.14 752.11 1031.24C752.069 1038.36 752.63 1051.93 751.755 1058.65C742.725 1058.86 733.411 1058.76 724.358 1058.77C724.298 1053.29 723.864 1036.08 724.65 1031.29Z"/><path fill="#FDFDFD" d="M195.284 56.1136C204.075 55.8303 214.048 56.0458 222.931 56.032C223.09 65.265 223.079 74.5002 222.898 83.7328L195.356 83.719C195.258 74.5176 195.234 65.3155 195.284 56.1136Z"/><path fill="#FDFDFD" d="M1002.83 585.386L1030.49 585.361C1030.54 592.851 1030.97 605.911 1030.29 612.996C1021.16 613.206 1012.02 613.179 1002.89 612.917C1002.46 603.854 1002.72 594.485 1002.83 585.386Z"/><path fill="#FDFDFD" d="M278.911 919.734L306.742 919.75L306.654 947.25C297.366 947.587 288.412 947.431 279.127 947.226C278.655 938.746 278.909 928.36 278.911 919.734Z"/><path fill="#FDFDFD" d="M222.963 1003.12L222.981 1031.03C214.02 1030.84 204.429 1031.01 195.417 1031.01C195.237 1021.79 195.218 1012.57 195.359 1003.34C204.362 1003.06 213.911 1003.16 222.963 1003.12Z"/><path fill="#FDFDFD" d="M278.911 1086.9L306.764 1086.8L306.703 1114.45C297.439 1114.5 288.174 1114.47 278.911 1114.35L278.911 1086.9Z"/><path fill="#FDFDFD" d="M111.466 975.358C120.649 975.696 130.085 975.482 139.293 975.386L139.293 1003.01L111.551 1002.93L111.466 975.358Z"/><path fill="#FDFDFD" d="M195.28 947.687C204.694 947.331 213.503 947.407 222.934 947.516L223.012 975.356C215.564 974.862 203.096 975.3 195.273 975.326L195.28 947.687Z"/><path fill="#FDFDFD" d="M1170.36 919.793L1198.19 919.637C1198.36 928.849 1198.32 938.063 1198.08 947.273C1188.91 947.519 1179.73 947.505 1170.57 947.233C1170.1 938.783 1170.44 928.465 1170.36 919.793Z"/><path fill="#FDFDFD" d="M919.058 613.388C928.257 613.235 937.458 613.21 946.657 613.313L946.863 640.968L919.191 640.911C918.985 631.738 918.941 622.562 919.058 613.388Z"/><path fill="#FDFDFD" d="M139.443 223.57C148.766 223.258 157.954 223.335 167.282 223.376C167.349 232.61 167.313 241.845 167.174 251.078L139.617 251.179C139.391 242.142 139.489 232.644 139.443 223.57Z"/><path fill="#FDFDFD" d="M974.9 223.502C984.146 223.257 993.396 223.233 1002.64 223.43L1002.64 251C993.448 251.299 984.086 251.142 974.873 251.082C974.782 241.889 974.791 232.695 974.9 223.502Z"/><path fill="#FDFDFD" d="M167.471 919.801L195.226 919.634L195.213 947.328C185.966 947.462 176.717 947.417 167.471 947.193L167.471 919.801Z"/><path fill="#FDFDFD" d="M111.555 641.129C120.801 641.012 130.047 640.989 139.293 641.062L139.293 668.645L111.541 668.689L111.555 641.129Z"/><path fill="#FDFDFD" d="M1114.49 473.999C1123.81 473.962 1133.14 473.974 1142.46 474.033L1142.45 501.463L1114.72 501.426C1114.32 492.597 1114.49 482.899 1114.49 473.999Z"/><path fill="#FDFDFD" d="M334.611 1087.08C342.248 1086.42 354.207 1086.8 362.15 1086.87C362.795 1093.99 362.376 1106.79 362.39 1114.45C353.276 1114.49 343.707 1114.68 334.64 1114.38L334.611 1087.08Z"/><path fill="#FDFDFD" d="M902.693 919.988C907.04 919.38 914.418 919.65 919.019 919.681L918.966 947.38C914.834 947.31 910.521 947.477 906.374 947.578C901.067 947.745 896.715 947.535 891.394 947.26C891.233 938.23 891.266 929.039 891.211 919.994L902.693 919.988Z"/><path fill="#FDFDFD" d="M1002.84 474.02L1030.64 473.922C1030.72 483.085 1030.67 492.25 1030.51 501.412C1021.3 501.602 1012.09 501.631 1002.88 501.498C1002.57 492.564 1002.78 483.01 1002.84 474.02Z"/><path fill="#FDFDFD" d="M195.287 112.033L222.894 111.801C223.001 121.077 223.014 130.355 222.932 139.631C213.734 139.729 204.535 139.726 195.338 139.62L195.287 112.033Z"/><path fill="#FDFDFD" d="M668.949 1086.85L696.714 1086.89C696.595 1095.86 696.52 1104.82 696.49 1113.79C694.389 1115.05 673.078 1114.49 668.743 1114.45C668.612 1105.54 668.898 1095.83 668.949 1086.85Z"/><path fill="#FDFDFD" d="M390.182 919.768C399.524 919.807 408.867 919.759 418.209 919.624C417.955 928.865 417.849 938.11 417.892 947.354C408.711 947.462 399.53 947.426 390.35 947.246C390.369 938.179 390.506 928.798 390.182 919.768Z"/><path fill="#FDFDFD" d="M529.592 111.998C537.934 111.54 548.673 111.815 557.194 111.799L557.155 139.645L529.621 139.597C529.412 130.577 529.575 121.056 529.592 111.998Z"/><path fill="#FDFDFD" d="M390.35 975.477L417.709 975.499C418.711 981.851 418.185 996.204 418.086 1003.05L390.35 1002.98L390.35 975.477Z"/><path fill="#FDFDFD" d="M974.787 1003.28C984.072 1003.16 993.358 1003.16 1002.64 1003.27L1002.64 1031.03C994.42 1031.04 982.747 1030.69 974.814 1031.15L974.787 1003.28Z"/><path fill="#FDFDFD" d="M1198.33 223.498C1207.51 223.356 1216.68 223.327 1225.85 223.409C1226.1 232.347 1225.9 242.093 1225.88 251.092C1216.69 251.191 1207.49 251.203 1198.3 251.127L1198.33 223.498Z"/><path fill="#FDFDFD" d="M835.513 975.487L863.338 975.48C863.435 983.099 863.845 995.683 863.119 1003L835.706 1003.01C834.96 994.83 835.393 983.907 835.513 975.487Z"/><path fill="#FDFDFD" d="M195.326 223.405L222.85 223.316C223.07 232.598 223.12 241.883 223.001 251.167C214.134 251.151 204.042 250.888 195.279 251.164L195.326 223.405Z"/><path fill="#FDFDFD" d="M362.418 390.683C371.621 390.472 380.828 390.447 390.033 390.608C390.138 399.788 390.122 408.968 389.985 418.147L362.556 418.189C362.317 409.161 362.431 399.744 362.418 390.683Z"/><path fill="#FDFDFD" d="M139.598 390.667L167.255 390.614L167.181 418.241C158.029 418.228 148.77 418.14 139.628 418.231C139.493 409.044 139.483 399.855 139.598 390.667Z"/><path fill="#FDFDFD" d="M28.0779 167.838C37.326 167.698 46.5754 167.674 55.8241 167.764L55.8714 195.321C46.6832 195.432 37.3451 195.336 28.1441 195.324C27.8546 186.236 28.0167 176.945 28.0779 167.838Z"/><path fill="#FDFDFD" d="M1086.72 167.785C1095.99 167.614 1105.27 167.632 1114.54 167.84L1114.35 195.361L1086.89 195.341C1086.38 186.843 1086.68 176.44 1086.72 167.785Z"/><path fill="#FDFDFD" d="M446.07 1086.88L473.803 1086.87C473.703 1095.97 473.811 1105.26 473.821 1114.37C464.571 1114.5 455.32 1114.5 446.07 1114.39L446.07 1086.88Z"/><path fill="#FDFDFD" d="M222.965 1086.93C232.22 1086.85 241.477 1086.84 250.733 1086.91L250.733 1114.47L223.013 1114.34C222.785 1105.39 222.948 1095.92 222.965 1086.93Z"/><path fill="#FDFDFD" d="M585.312 167.827C594.555 167.717 603.798 167.713 613.042 167.813C613.108 176.981 613.123 186.15 613.088 195.318C603.823 195.442 594.556 195.416 585.291 195.24L585.312 167.827Z"/><path fill="#FDFDFD" d="M362.521 56.116C371.012 55.7717 381.413 56.0433 390.054 56.032C390.1 65.2773 390.077 74.5229 389.985 83.7679L362.523 83.708C362.421 74.5594 362.511 65.2762 362.521 56.116Z"/><path fill="#FDFDFD" d="M557.273 139.918L585.051 139.918C585.085 146.621 585.512 161.192 584.792 167.305C575.578 167.629 566.584 167.566 557.363 167.522L557.273 139.918Z"/><path fill="#FDFDFD" d="M195.273 279.231L222.943 279.296C223.013 288.509 222.998 297.723 222.899 306.935C213.72 306.984 204.54 306.95 195.361 306.834L195.273 279.231Z"/><path fill="#FDFDFD" d="M390.35 195.744C398.803 195.376 409.176 195.646 417.775 195.637C418.408 204.412 418.063 214.101 417.89 222.936C414.034 223.553 395.373 223.2 390.35 223.179L390.35 195.744Z"/><path fill="#FDFDFD" d="M195.195 167.84C204.447 167.624 213.702 167.593 222.954 167.745C223.103 176.9 223.086 186.057 222.902 195.21C213.846 195.479 204.393 195.338 195.304 195.325L195.195 167.84Z"/><path fill="#FDFDFD" d="M919.058 279.306L946.713 279.327L946.749 306.902C937.485 307.138 928.368 306.984 919.103 306.864C918.831 297.953 919.031 288.275 919.058 279.306Z"/><path fill="#FDFDFD" d="M278.911 474.011L306.73 474.015L306.66 501.445C297.373 501.567 288.453 501.691 279.175 501.398C278.823 492.469 278.939 482.987 278.911 474.011Z"/><path fill="#FDFDFD" d="M529.521 167.771C538.79 167.649 548.061 167.643 557.33 167.753C557.109 176.753 557.221 186.26 557.181 195.3L529.649 195.3C529.453 186.25 529.55 176.85 529.521 167.771Z"/><path fill="#FDFDFD" d="M473.833 167.846C483.082 167.645 492.334 167.624 501.584 167.785L501.449 195.302L473.854 195.288C473.577 186.573 473.82 176.653 473.833 167.846Z"/><path fill="#FDFDFD" d="M557.325 975.491L585.282 975.378C584.97 983.994 585.212 994.179 585.141 1002.98L557.431 1003.01C557.472 993.834 557.437 984.662 557.325 975.491Z"/><path fill="#FDFDFD" d="M278.911 1031.21C288.157 1031.13 297.477 1031.21 306.729 1031.24L306.674 1058.77L279.175 1058.69C278.708 1050.02 278.914 1039.99 278.911 1031.21Z"/><path fill="#FDFDFD" d="M807.764 1086.8C807.43 1095.52 807.62 1105.55 807.575 1114.38C798.366 1114.52 789.472 1114.65 780.269 1114.42C780.029 1105.44 780.129 1095.92 780.074 1086.89L807.764 1086.8Z"/><path fill="#FDFDFD" d="M279.025 585.347L306.779 585.275C306.475 594.014 306.699 604.103 306.678 612.95L278.954 613.056C278.658 603.741 278.864 594.665 279.025 585.347Z"/><path fill="#FDFDFD" d="M362.517 112C371.489 111.787 381.048 111.926 390.069 111.898L390.027 139.516C380.861 139.651 371.693 139.671 362.526 139.578C362.264 130.57 362.463 121.049 362.517 112Z"/><path fill="#FDFDFD" d="M111.447 473.906L139.293 473.867L139.293 501.447C132.368 501.454 118.03 501.035 111.488 501.598L111.447 473.906Z"/><path fill="#FDFDFD" d="M835.796 223.491L863.35 223.491L863.35 251.045L835.796 251.045L835.796 223.491Z"/><path fill="#FDFDFD" d="M641.083 28.166L668.637 28.166L668.637 55.7197L641.083 55.7197L641.083 28.166Z"/><path fill="#FDFDFD" d="M139.317 167.857C148.656 167.732 157.996 167.721 167.336 167.824C167.261 176.987 167.233 186.149 167.254 195.311L139.601 195.331C139.582 186.245 139.667 176.914 139.317 167.857Z"/><path fill="#FDFDFD" d="M279.007 641.076L306.776 641.059C306.461 649.46 307.262 660.574 306.304 668.652L279.173 668.759C278.8 659.809 278.989 650.089 279.007 641.076Z"/><path fill="#FDFDFD" d="M223.411 139.918L250.733 139.918L250.733 167.45C241.384 167.7 232.388 167.789 223.051 167.191C222.946 160.801 222.462 145.73 223.411 139.918Z"/><path fill="#FDFDFD" d="M807.942 947.548L835.484 947.548L835.412 975.089L807.942 975.089L807.942 947.548Z"/><path fill="#FDFDFD" d="M946.935 919.812C956.094 919.541 965.586 919.659 974.773 919.66L974.848 947.275C965.544 947.449 956.237 947.41 946.935 947.159L946.935 919.812Z"/><path fill="#FDFDFD" d="M362.378 167.84L390.036 167.761C390.1 176.977 390.096 186.194 390.026 195.41L362.465 195.287L362.378 167.84Z"/><path fill="#FDFDFD" d="M55.9881 1031.18C63.1851 1031.07 76.6816 1030.68 83.5735 1031.5L83.5735 1058.65C74.3893 1058.81 65.203 1058.8 56.0193 1058.63C55.6635 1049.48 55.6531 1040.32 55.9881 1031.18Z"/><path fill="#FDFDFD" d="M919.069 111.989C928.292 111.897 937.515 111.883 946.739 111.947L946.844 139.625C937.591 139.751 928.336 139.731 919.084 139.566L919.069 111.989Z"/><path fill="#FDFDFD" d="M195.273 975.326L195.252 1002.96L167.471 1003.04L167.471 975.476C176.557 975.505 186.246 975.695 195.273 975.326Z"/><path fill="#FDFDFD" d="M780.191 975.463L807.77 975.422L807.632 1002.97L780.403 1003.07C780.198 993.866 780.127 984.664 780.191 975.463Z"/><path fill="#FDFDFD" d="M390.35 1142.65C399.076 1142.3 409.303 1142.55 418.142 1142.55L418.01 1170.05C408.79 1170.17 399.57 1170.17 390.35 1170.04L390.35 1142.65Z"/><path fill="#FDFDFD" d="M1198.23 167.841C1207.45 167.704 1216.67 167.689 1225.89 167.796L1225.88 195.296C1216.68 195.396 1207.48 195.387 1198.29 195.268L1198.23 167.841Z"/><path fill="#FDFDFD" d="M613.229 975.462L640.771 975.484L640.771 1003.03C631.769 1003.2 622.3 1003.01 613.263 1002.96L613.229 975.462Z"/><path fill="#FDFDFD" d="M668.949 195.637L696.49 195.637L696.49 223.179L668.822 223.179C668.409 214.996 668.878 204.093 668.949 195.637Z"/><path fill="#FDFDFD" d="M836.083 56.0198L863.05 56.0198L863.072 83.5857L835.961 83.639C836.34 75.0463 836.083 64.7413 836.083 56.0198Z"/><path fill="#FDFDFD" d="M836.046 167.928C845.047 167.899 854.049 167.937 863.05 168.042L863.05 195.025L836.096 195.025L836.046 167.928Z"/></svg>