<?xml version="1.0" encoding="utf-8" ?><svg xmlns="http://www.w3.org/2000/svg" xmlns:xlink="http://www.w3.org/1999/xlink" width="1254" height="1254" viewBox="0 0 1254 1254"><path fill="#F4F4F3" d="M0 0L38.0536 0L75.9286 0L113.96 0L151.955 0L189.991 0L228.045 0L266.053 0L304.318 0L342.013 0L380.06 0L417.67 0L455.981 0L494.164 0L531.97 0L570.047 0L607.987 0L645.965 0L683.891 0L721.855 0L759.87 0L797.87 0L835.808 0L873.817 0L911.78 0L949.753 0L987.903 0L1025.77 0L1063.86 0L1101.66 0L1140 0L1177.88 0L1215.93 0L1254 0L1254 38.0078L1254 76.184L1254 113.969L1254 152.31L1254 190.369L1254 228.233L1254 266.306L1254 304.254L1254 342.409L1254 380.223L1254 418.244L1254 456.179L1254 494.117L1254 532.029L1254 570.054L1254 607.974L1254 645.995L1254 683.885L1254 721.931L1254 759.924L1254 797.894L1254 836.146L1254 873.999L1254 911.936L1254 949.785L1254 987.902L1254 1025.74L1254 1063.95L1254 1101.77L1254 1139.87L1254 1177.93L1254 1215.96L1254 1254L1215.9 1254L1178.02 1254L1139.95 1254L1101.73 1254L1063.92 1254L1025.8 1254L987.664 1254L949.741 1254L911.835 1254L873.781 1254L835.762 1254L797.856 1254L759.769 1254L721.882 1254L683.902 1254L645.973 1254L607.984 1254L570.094 1254L531.961 1254L494.119 1254L455.917 1254L417.904 1254L379.929 1254L342.097 1254L304.221 1254L266.053 1254L228.077 1254L189.934 1254L151.943 1254L113.946 1254L75.9646 1254L37.9899 1254L0 1254L0 1215.91L0 1177.87L0 1139.95L0 1101.73L0 1063.72L0 1025.79L0 987.86L0 949.748L0 911.989L0 873.992L0 836.008L0 797.772L0 759.783L0 722.033L0 683.9L0 645.996L0 607.938L0 570.008L0 531.962L0 494.074L0 456.23L0 418.262L0 380.257L0 342.281L0 304.329L0 266.281L0 228.211L0 190.302L0 152.303L0 114.201L0 75.9673L0 38.0399L0 0Z"/><path fill="#FBFBFB" d="M1254 113.969L1254 152.31L1254 190.369L1254 228.233L1254 266.306L1254 304.254L1254 342.409L1254 380.223L1254 418.244L1254 456.179L1254 494.117L1254 532.029L1254 570.054L1254 607.974L1254 645.995L1254 683.885L1254 721.931L1254 759.924L1254 797.894L1254 836.146L1254 873.999L1254 911.936L1254 949.785L1254 987.902C1241.36 987.988 1228.72 987.945 1216.08 987.774C1215.94 975.127 1215.92 962.479 1216.05 949.832C1203.41 950.22 1190.67 949.909 1178.02 949.721L1177.96 912.027C1190.22 912.035 1203.89 912.34 1216.04 911.835C1215.84 899.355 1216 886.352 1215.99 873.835L1178.1 873.808C1177.71 861.381 1177.93 848.412 1177.97 835.94C1165.31 836.001 1152.65 835.991 1139.98 835.911C1139.48 823.789 1139.67 809.988 1139.94 797.86C1152.64 797.966 1165.35 797.96 1178.05 797.841L1177.91 759.895L1139.9 759.813C1139.48 748.125 1139.81 733.606 1139.98 721.923C1130.8 721.303 1111.86 721.812 1102.11 721.803C1101.12 712.795 1101.71 693.604 1101.76 683.955L1140.09 683.942C1139.81 671.296 1139.76 658.645 1139.93 645.997C1127.78 645.669 1114.11 645.915 1101.85 645.888C1101.28 634.156 1101.71 620.018 1101.8 608.132C1114.39 607.857 1127.42 607.99 1140.04 607.958C1139.87 595.358 1139.83 582.756 1139.93 570.155C1152.63 569.996 1165.34 569.952 1178.05 570.021C1177.94 557.371 1177.91 544.719 1177.97 532.068C1165.33 531.971 1152.7 531.954 1140.06 532.019C1139.15 526.036 1139.88 501.489 1140.01 494.088C1130.33 493.48 1112.14 493.988 1101.9 493.981C1101.61 481.427 1101.58 468.869 1101.79 456.313C1114.48 456.363 1127.17 456.332 1139.85 456.219C1139.4 444.546 1139.74 429.846 1140.1 418.284C1152.73 418.362 1165.35 418.349 1177.98 418.244L1177.98 380.236L1140.02 380.248C1139.49 367.908 1139.85 354.799 1140.01 342.394C1152.69 342.348 1165.31 342.507 1178 342.253C1177.67 330.008 1177.96 316.725 1178 304.404L1216.04 304.299C1216.24 291.933 1215.97 278.691 1215.94 266.261C1203.78 265.99 1190.29 266.255 1178.03 266.26C1177.85 278.915 1177.79 291.571 1177.87 304.227L1140.04 304.267C1139.55 292.517 1139.67 278.073 1139.97 266.27L1101.75 266.276C1101.53 253.782 1101.74 240.872 1101.78 228.348C1114.29 228.289 1127.52 228.661 1139.94 228.235C1139.7 215.616 1139.69 202.993 1139.89 190.373C1152.59 190.44 1165.3 190.421 1178 190.317L1177.94 152.389C1190.66 152.269 1203.37 152.276 1216.09 152.409C1215.76 139.953 1215.98 126.757 1215.99 114.247C1228.38 114.372 1241.56 114.069 1254 113.969Z"/><path fill="#FBFBFB" d="M38.0624 152.372L76.0312 152.274C75.9029 164.955 75.8942 177.638 76.0051 190.319C88.5943 190.464 101.332 190.201 113.855 190.42C113.863 202.302 113.497 216.581 113.934 228.276C126.583 228.391 139.232 228.437 151.882 228.413L151.936 266.277C140.03 265.921 125.92 266.253 113.922 266.274C113.839 278.963 113.842 291.654 113.929 304.343L151.908 304.36C151.915 316.645 151.675 330.088 151.952 342.289C164.462 342.598 177.379 342.392 189.922 342.342L189.995 380.241C202.538 380.592 215.519 380.371 228.098 380.313L228.048 418.132C215.322 418.339 202.593 418.348 189.867 418.159C189.959 430.81 189.984 443.461 189.944 456.112C177.966 456.138 163.688 455.796 151.954 456.222L151.92 494.093C164.559 494.191 177.198 494.197 189.836 494.109L190.021 531.966C177.323 532.045 164.625 532.048 151.926 531.975L151.92 570.022C139.805 569.632 126.237 569.947 114.014 569.964L113.936 532.051C102.335 531.613 88.0323 531.951 76.1429 531.886L75.9972 494.036C64.7393 493.583 49.8861 493.988 38.2328 493.927C37.7901 481.705 38.0307 468.493 38.0354 456.197C25.7025 455.973 12.398 456.212 0 456.23L0 418.262L0 380.257L0 342.281L0 304.329L0 266.281L0 228.211L0 190.302C11.6698 190.336 26.6067 190.764 38.0224 190.321C38.3533 178.292 38.0525 164.527 38.0624 152.372Z"/><path fill="#FBFBFB" d="M0 494.074L37.945 494.21C37.9644 506.698 37.8331 519.608 38.0181 532.065L75.9254 532.113C75.9239 543.225 75.4754 559.291 76.0314 570.02L113.847 570.107C113.874 582.48 113.671 595.697 113.935 608.003L151.882 608.052L151.937 645.987L189.862 646.063C189.887 658.517 189.736 671.553 189.956 683.964C180.156 683.371 162.29 683.887 151.947 683.891L151.916 721.916C164.584 722.021 177.274 721.818 189.93 721.964L189.916 759.778C177.735 759.883 163.897 759.539 151.915 759.872L151.943 797.822L113.946 797.814C113.86 810.507 113.839 823.201 113.881 835.895L76.0032 835.922L75.9533 873.764C63.2863 873.876 50.6186 873.891 37.9514 873.809L37.9469 911.805C25.2989 911.995 12.6493 912.057 0 911.989L0 873.992L0 836.008L0 797.772L0 759.783L0 722.033L0 683.9L0 645.996L0 607.938L0 570.008L0 531.962L0 494.074Z"/><path fill="#FBFBFB" d="M417.67 0L455.981 0L494.164 0L531.97 0L570.047 0L607.987 0L645.965 0L683.891 0L683.89 37.9846C671.524 38.2087 658.025 37.6578 645.998 38.0738C645.897 50.7026 645.884 63.3319 645.958 75.9609C634.747 75.9966 618.745 75.5331 608.027 76.1064L608.054 37.9689C595.376 38.1712 582.696 38.2138 570.017 38.0967L569.98 75.9287C557.342 76.0223 544.703 76.0521 532.064 76.0182C531.56 87.6463 532.021 102.052 531.869 113.998C520.924 114.584 505.149 114.223 494.225 113.937C493.812 101.746 494.084 88.3548 494.09 76.0766C481.438 76.1232 468.785 76.0519 456.134 75.8626C455.603 63.2575 455.555 50.6366 455.989 38.0278C443.302 38.1716 430.615 38.1614 417.928 37.9974L417.67 0Z"/><path fill="#FBFBFB" d="M797.87 0L835.808 0L873.817 0L911.78 0L949.753 0L987.903 0C987.671 12.6687 987.622 25.3402 987.755 38.0103C976.332 38.0582 960.58 37.5643 949.72 38.0594L949.7 75.9601C937.143 76.146 924.583 76.1224 912.026 75.8891C911.789 63.2686 911.738 50.6453 911.874 38.0233C899.182 38.1679 886.488 38.1833 873.795 38.0693C873.722 50.6972 873.714 63.3253 873.771 75.9533C861.351 76.1167 847.981 75.7602 835.771 76.0872C835.476 88.1711 835.771 101.872 835.779 114.066C824.057 114.453 809.588 114.301 797.927 113.943L797.862 76.0113L759.891 76.0734L759.955 38.212C772.558 38.0437 785.262 38.1081 797.873 38.0897C798.237 26.2732 797.883 11.9683 797.87 0Z"/><path fill="#FBFBFB" d="M1101.66 0L1140 0L1177.88 0L1215.93 0L1254 0L1254 38.0078L1254 76.184C1241.47 75.9867 1228.61 76.106 1216.02 76.0016L1215.94 37.9778C1203.81 38.3787 1190.19 38.0783 1177.96 38.0601C1177.9 50.7013 1177.9 63.3427 1177.98 75.9838C1165.28 76.0878 1152.58 76.1075 1139.88 76.0426C1139.62 63.5169 1139.88 50.6257 1139.99 38.0714C1128.73 37.6013 1113.31 38.0826 1101.63 38.0749C1101.62 50.688 1101.7 63.3011 1101.85 75.9133C1089.26 76.1087 1076.67 76.1345 1064.08 75.9906C1063.89 63.3963 1063.87 50.8001 1064.01 38.2052C1076.58 38.0836 1089.15 38.0422 1101.72 38.0811L1101.66 0Z"/><path fill="#FBFBFB" d="M0 0L38.0536 0L75.9286 0L113.96 0L151.955 0C151.947 12.3886 151.704 25.7709 151.948 38.0869L113.919 38.0164C113.625 50.1604 113.896 63.6723 113.889 75.9163C101.317 76.0959 88.742 76.111 76.1688 75.9615C75.8171 63.7086 76.073 50.3723 75.9864 38.0224L38.0389 38.0612L37.9382 75.9476C26.0733 76.1372 11.898 76.3883 0 75.9673L0 38.0399L0 0Z"/><path fill="#FBFBFB" d="M911.9 1177.88C924.456 1178.09 937.013 1177.7 949.669 1177.92L949.657 1215.93L987.758 1215.91C987.369 1203.93 987.691 1189.99 987.718 1177.9C1000.42 1178.07 1013.26 1177.77 1025.9 1178.01C1025.96 1187.45 1026.55 1207.3 1025.8 1215.91C1038.48 1215.87 1051.17 1215.92 1063.86 1216.08C1063.64 1228.66 1064.23 1241.6 1063.92 1254L1025.8 1254L987.664 1254L949.741 1254L949.744 1215.83C937.171 1215.95 924.596 1215.93 912.024 1215.76C911.553 1203.49 911.846 1190.22 911.9 1177.88Z"/><path fill="#FBFBFB" d="M455.893 1177.89C468.603 1177.76 481.315 1177.8 494.024 1178.01L494.073 1215.89C506.486 1215.89 519.622 1215.74 531.99 1216.02L531.961 1254L494.119 1254L455.917 1254L417.904 1254C417.867 1241.32 417.894 1228.63 417.985 1215.95L456.038 1215.97C455.441 1204.41 455.874 1189.68 455.893 1177.89Z"/><path fill="#FBFBFB" d="M608.027 1177.97C620.51 1177.9 633.513 1177.65 645.953 1177.99L645.977 1215.93C658.632 1216.05 671.287 1216.08 683.942 1216.03C683.617 1228.51 683.845 1241.48 683.902 1254L645.973 1254L607.984 1254L570.094 1254C569.716 1242.05 570.012 1227.92 569.993 1215.83C582.678 1215.96 595.364 1215.99 608.049 1215.91L608.027 1177.97Z"/><path fill="#FBFBFB" d="M-2.17534e-15 1177.87C12.6564 1177.79 25.3131 1177.81 37.9693 1177.91L37.9658 1215.96L75.9849 1215.98L75.9646 1254L37.9899 1254L0 1254L0 1215.91L0 1177.87L-2.17534e-15 1177.87Z"/><path fill="#FBFBFB" d="M1216.01 1178C1228.68 1177.82 1241.34 1177.8 1254 1177.93L1254 1215.96L1254 1254L1215.9 1254L1178.02 1254L1177.99 1216.03C1189.55 1215.58 1204.99 1216.78 1216.01 1215.7C1215.86 1203.13 1215.87 1190.57 1216.01 1178Z"/><path fill="#FBFBFB" d="M987.823 38.2194C1000.39 37.9349 1013.38 38.0413 1025.98 37.9829C1025.87 50.6505 1025.87 63.3188 1025.99 75.9864C1013.22 76.182 1000.45 76.1895 987.682 76.0088L987.737 114.005C977.016 114.459 960.321 114.482 949.701 113.961L949.697 152.226C937.249 152.303 924.8 152.297 912.352 152.208C911.257 148.403 911.749 119.645 912.107 114.393C924.425 114.025 937.398 114.21 949.765 114.201L949.807 76.3061L987.745 76.0414C987.632 63.4342 987.658 50.8261 987.823 38.2194Z"/><path fill="#FBFBFB" d="M38.0301 1064.12C50.6667 1064.02 63.304 1064.02 75.9407 1064.12L75.9667 1101.55C64.2209 1101.88 49.7587 1102.17 37.9776 1101.66L38.0184 1139.99C50.6661 1139.86 63.3145 1139.82 75.9628 1139.86L75.9908 1177.64C65.3307 1177.96 48.8175 1178.28 38.1146 1177.67L38.0221 1139.83C25.3486 1139.97 12.6741 1140.01 2.17534e-15 1139.95L0 1101.73L38.0867 1101.77L38.0301 1064.12Z"/><path fill="#FBFBFB" d="M1139.96 1178.05C1152.61 1177.88 1165.26 1177.83 1177.91 1177.89L1177.95 1215.87C1165.25 1215.95 1152.56 1215.92 1139.87 1215.77L1139.95 1254L1101.73 1254L1101.73 1215.86C1114.22 1216.22 1127.33 1215.97 1139.87 1215.91C1139.83 1203.29 1139.86 1190.67 1139.96 1178.05Z"/><path fill="#FBFBFB" d="M1177.94 1064.13C1190.5 1064.02 1203.48 1064.34 1215.97 1063.86C1215.9 1076.51 1215.89 1089.16 1215.95 1101.81C1228.63 1101.68 1241.32 1101.66 1254 1101.77L1254 1139.87C1242.53 1139.96 1227.24 1140.42 1216.05 1139.52L1215.84 1101.53C1204.72 1101.92 1188.98 1102.14 1178.03 1101.62L1177.94 1064.13Z"/><path fill="#FBFBFB" d="M1216.02 76.0016C1215.89 88.7074 1215.88 101.414 1215.98 114.12C1203.31 114.269 1190.64 114.274 1177.97 114.136L1177.93 152.22C1165.3 152.198 1152.66 152.244 1140.03 152.358C1139.71 139.705 1139.69 127.047 1139.99 114.393C1152.75 113.983 1165.29 114.425 1178.05 114.16C1177.81 101.882 1178.02 88.6942 1178.02 76.3504C1190.53 76.0219 1203.75 76.575 1216.02 76.0016Z"/><path fill="#FBFBFB" d="M797.949 1064.18C810.545 1063.99 823.143 1063.96 835.74 1064.08L835.803 1101.86C848.41 1101.65 861.021 1101.65 873.629 1101.87C873.795 1114.43 873.813 1127 873.683 1139.57C863.227 1140.3 846.421 1140.2 835.796 1139.55C835.659 1126.94 835.65 1114.34 835.771 1101.74L797.88 1101.73L797.949 1064.18Z"/><path fill="#FBFBFB" d="M1101.8 532.235L1140.06 532.019C1139.61 543.561 1139.94 558.245 1139.91 569.997C1127.37 569.855 1114.5 569.992 1101.94 570C1101.17 580.47 1101.69 597.049 1101.69 607.963L1064.13 607.917C1063.74 595.43 1064.02 582.667 1063.89 570.112L1101.81 570.047C1101.62 557.444 1101.61 544.839 1101.8 532.235Z"/><path fill="#FBFBFB" d="M266.053 1215.97L304.244 1215.93L304.221 1254L266.053 1254L266.053 1215.97Z"/><path fill="#FBFBFB" d="M189.99 1215.96C202.686 1215.86 215.382 1215.88 228.077 1216.03L228.077 1254L189.934 1254L189.99 1215.96Z"/><path fill="#FBFBFB" d="M1139.88 76.0426C1140.23 87.9998 1139.94 101.937 1139.94 114.033C1127.95 114.303 1113.74 114.452 1101.83 114.031C1101.4 101.705 1101.7 88.4907 1101.81 76.107C1111.13 76.7127 1130.24 76.332 1139.88 76.0426Z"/><path fill="#FBFBFB" d="M1101.8 152.406C1114.54 152.224 1127.29 152.208 1140.03 152.358C1139.93 164.98 1139.91 177.603 1139.95 190.225C1131.43 190.304 1109.23 190.948 1101.85 189.952C1101.64 177.438 1101.63 164.921 1101.8 152.406Z"/><path fill="#FBFBFB" d="M1140.07 987.813C1139.57 999.569 1139.94 1013.71 1139.95 1025.65C1127.27 1025.99 1114.58 1025.99 1101.9 1025.64C1101.1 1015.64 1101.7 998.582 1101.8 988.117C1114.04 987.571 1127.67 987.935 1140.07 987.813Z"/><path fill="#FBFBFB" d="M1254 1025.74L1254 1063.95C1241.49 1063.96 1228.51 1064.15 1216.04 1063.6C1215.82 1051.22 1215.98 1038.4 1215.98 1025.99C1228.08 1025.47 1241.78 1025.75 1254 1025.74Z"/><path fill="#FBFBFB" d="M1139.98 835.911C1139.48 847.418 1139.95 862.179 1140 873.892C1127.31 874.009 1114.61 873.959 1101.91 873.741C1101.48 861.291 1101.71 848.528 1101.83 836.052C1114.2 835.721 1127.57 835.904 1139.98 835.911Z"/><path fill="#FBFBFB" d="M342.013 0L380.06 0L380.132 38.0991C370.207 37.549 352.904 38.0855 342.233 38.0177C341.707 25.8584 342.194 12.3954 342.013 0Z"/><path fill="#FBFBFB" d="M189.991 0L228.045 0C227.952 12.6805 228.184 25.1841 227.988 37.9252C215.361 38.1268 202.732 38.1396 190.104 37.9637C189.805 25.4924 189.987 12.5089 189.991 0Z"/><path fill="#FBFBFB" d="M1140.02 380.248C1139.89 392.869 1139.85 405.49 1139.9 418.111C1127.21 418.251 1114.52 418.271 1101.82 418.17C1101.63 405.549 1101.62 392.926 1101.8 380.304C1114.54 380.354 1127.28 380.335 1140.02 380.248Z"/><path fill="#FBFBFB" d="M1101.84 760.008C1114.48 759.938 1127.12 759.937 1139.76 760.004C1139.94 772.622 1139.99 785.241 1139.94 797.86C1128.11 797.417 1113.65 797.798 1101.69 797.833C1101.6 785.224 1101.65 772.615 1101.84 760.008Z"/><path fill="#FBFBFB" d="M1101.79 304.382C1114.54 304.422 1127.29 304.383 1140.04 304.267C1139.53 315.278 1139.97 330.821 1139.98 342.159C1127.29 342.296 1114.6 342.299 1101.91 342.168C1101.37 330.1 1101.72 316.562 1101.79 304.382Z"/><path fill="#FBFBFB" d="M1178.02 949.721C1177.84 962.423 1177.8 975.127 1177.91 987.83C1166.8 987.916 1150.7 987.337 1140.07 987.813C1139.35 976.145 1139.87 961.827 1140.03 949.965C1152.61 949.734 1165.42 949.796 1178.02 949.721Z"/><path fill="#FBFBFB" d="M1025.77 0L1063.86 0C1063.5 12.7197 1063.95 25.2899 1063.93 38.0027C1051.28 38.153 1038.63 38.1464 1025.98 37.9829C1025.39 26.0432 1025.75 12.0871 1025.77 0Z"/><path fill="#FBFBFB" d="M37.9804 949.766L37.995 987.815L0 987.86L0 949.748C12.047 949.764 26.0751 950.097 37.9804 949.766Z"/><path fill="#FBFBFB" d="M532.067 1177.95C544.667 1177.91 557.417 1177.77 570.004 1177.88L569.993 1215.83C557.794 1215.89 544.274 1216.15 532.164 1215.72C531.81 1203.13 531.778 1190.54 532.067 1177.95Z"/><path fill="#FBFBFB" d="M721.863 1216.02C734.537 1215.87 747.213 1215.86 759.887 1215.99L759.769 1254L721.882 1254C721.809 1241.34 721.803 1228.68 721.863 1216.02Z"/><path fill="#FBFBFB" d="M113.944 1215.93C126.603 1216.1 139.264 1216.06 151.922 1215.83L151.943 1254L113.946 1254L113.944 1215.93Z"/><path fill="#FBFBFB" d="M266.053 0L304.318 0L304.261 0.918422C303.522 11.7202 303.988 26.8587 304.003 37.9825C291.403 38.1557 278.801 38.1566 266.2 37.9851C265.914 25.4704 266.063 12.5456 266.053 0Z"/><path fill="#FBFBFB" d="M721.855 0L759.87 0L759.805 37.9725L721.884 38.0465C721.691 25.4804 721.846 12.5906 721.855 0Z"/><path fill="#FBFBFB" d="M797.779 1215.86C808.883 1216.02 824.78 1216.42 835.827 1215.88L835.762 1254L797.856 1254C797.916 1241.29 797.891 1228.58 797.779 1215.86Z"/><path fill="#FBFBFB" d="M151.952 1178.02C164.334 1177.92 177.552 1177.59 189.866 1178C189.992 1190.65 190.033 1203.3 189.99 1215.96L151.952 1215.92L151.952 1178.02Z"/><path fill="#FBFBFB" d="M759.891 76.0734C759.402 87.4752 759.822 102.344 759.881 114.03C748.913 114.502 732.94 114.379 721.98 113.973C721.59 102.046 721.828 88.1967 722.004 76.2986L759.891 76.0734Z"/><path fill="#FBFBFB" d="M1064 835.947C1063.27 846.09 1063.73 863.582 1063.99 873.855C1051.36 873.977 1038.73 873.958 1026.1 873.797C1025.4 863.159 1025.57 846.841 1025.99 836.143C1038.43 835.695 1051.52 835.918 1064 835.947Z"/><path fill="#FBFBFB" d="M1025.9 228.367C1038.6 228.428 1051.31 228.376 1064.01 228.209C1063.33 239.124 1063.79 255.076 1064.08 266.282L1026.09 266.233C1025.43 254.308 1025.69 240.363 1025.9 228.367Z"/><path fill="#FBFBFB" d="M873.839 1216.05C886.467 1215.89 899.096 1215.89 911.724 1216.04L911.835 1254L873.781 1254L873.839 1216.05Z"/><path fill="#FBFBFB" d="M797.88 1101.73C797.541 1113.91 797.669 1127.67 797.894 1139.91C785.794 1139.36 772.683 1140.06 760.005 1139.52C759.731 1127.23 759.908 1114.36 759.894 1102.03C771.544 1101.36 786.004 1101.69 797.88 1101.73Z"/><path fill="#FBFBFB" d="M835.833 1178.01L873.792 1177.83L873.716 1215.8C864.199 1215.87 844.669 1215.28 835.827 1215.88C835.673 1203.26 835.675 1190.63 835.833 1178.01Z"/><path fill="#FBFBFB" d="M721.954 1140.1C734.577 1139.92 747.201 1139.87 759.826 1139.92L759.828 1177.98C747.296 1177.73 734.285 1178.18 721.866 1177.6C721.825 1165.1 721.855 1152.6 721.954 1140.1Z"/><path fill="#FBFBFB" d="M949.792 1140.02C962.427 1139.81 975.065 1139.81 987.7 1140.01C987.703 1152.3 987.445 1165.7 987.718 1177.9C975.162 1177.67 962.249 1178.24 949.781 1177.52C949.701 1165.02 949.705 1152.52 949.792 1140.02Z"/><path fill="#FBFBFB" d="M0 1025.79L37.9623 1025.82L37.9581 1063.93C25.3082 1063.7 12.5278 1064 0 1063.72L0 1025.79Z"/><path fill="#FBFBFB" d="M797.894 1139.91C808.491 1139.98 825.445 1140.35 835.728 1139.74L835.748 1177.81L797.878 1177.84L797.894 1139.91Z"/><path fill="#FBFBFB" d="M76.4054 114.349C88.8969 114.18 101.39 114.16 113.882 114.291L113.89 152.152L76.0312 152.274C76.0169 141.86 75.4591 124.256 76.4054 114.349Z"/><path fill="#FBFBFB" d="M0 114.201L37.9055 114.241L37.9322 152.147C25.2885 152.266 12.6442 152.318 0 152.303L0 114.201Z"/><path fill="#FBFBFB" d="M759.828 1177.98C771.616 1177.94 786.421 1178.31 797.878 1177.84C797.714 1190.51 797.682 1203.19 797.779 1215.86C786.232 1215.47 771.864 1215.89 760.034 1215.78C759.669 1203.63 759.864 1190.25 759.828 1177.98Z"/><path fill="#FBFBFB" d="M683.963 1177.87L721.766 1177.9L721.797 1215.9C710.291 1215.9 695.135 1215.46 683.942 1216.03C683.872 1203.31 683.879 1190.59 683.963 1177.87Z"/><path fill="#FBFBFB" d="M151.943 797.822C164.601 797.944 177.26 797.973 189.918 797.907L189.899 835.836C177.281 835.979 164.663 835.989 152.046 835.866L151.943 797.822Z"/><path fill="#FBFBFB" d="M151.936 266.277L190.001 266.352C189.87 278.973 189.849 291.595 189.941 304.216C177.317 304.32 164.693 304.322 152.069 304.223L151.936 266.277Z"/><path fill="#FBFBFB" d="M1101.69 797.833C1101.59 809.978 1101.43 823.746 1101.78 835.847C1089.19 835.961 1076.6 835.995 1064 835.947C1063.9 823.286 1063.9 810.623 1064.01 797.962L1101.69 797.833Z"/><path fill="#FBFBFB" d="M114.039 836.065C126.661 835.918 139.285 835.891 151.907 835.984L151.916 873.857C143.524 873.879 121.559 873.248 113.939 873.914C113.925 861.481 113.714 848.452 114.039 836.065Z"/><path fill="#FBFBFB" d="M873.83 1140.02C885.156 1139.8 901.245 1140.52 911.728 1139.9C911.748 1152.15 911.509 1165.47 911.932 1177.64C902.147 1177.79 882.378 1177.23 873.792 1177.83L873.83 1140.02Z"/><path fill="#FBFBFB" d="M189.967 608.01C202.659 607.943 215.351 607.971 228.043 608.096L227.941 645.925L190.316 645.928C189.68 633.857 189.966 620.205 189.967 608.01Z"/><path fill="#FBFBFB" d="M189.956 683.964C202.399 683.942 215.71 683.676 228.095 683.951L228.045 721.817L190.084 721.777C189.969 709.173 189.926 696.568 189.956 683.964Z"/><path fill="#FBFBFB" d="M683.981 75.9896C683.406 87.657 683.822 102.199 683.9 114.053C671.278 114.243 658.654 114.243 646.032 114.054L646.003 76.2001C658.663 76.2622 671.323 76.192 683.981 75.9896Z"/><path fill="#FBFBFB" d="M76.0373 1178.02C88.4402 1177.91 101.544 1177.66 113.894 1178.11C113.856 1190.23 113.559 1203.96 113.944 1215.93C101.348 1215.85 88.6087 1216.01 76.0503 1215.85L76.0373 1178.02Z"/><path fill="#FBFBFB" d="M76.0177 911.811L75.9847 949.712C63.186 949.928 50.7147 949.699 37.9804 949.766C38.3117 937.846 38.0249 924.058 38.0363 912.024C50.685 911.669 63.3746 912.256 76.0177 911.811Z"/><path fill="#FBFBFB" d="M151.92 570.022L189.999 570.144C189.886 582.765 189.875 595.388 189.967 608.01C178.296 607.609 163.903 607.953 152.059 607.954C151.836 595.462 152.035 582.581 151.92 570.022Z"/><path fill="#FBFBFB" d="M646.011 1140.05C658.643 1139.85 671.278 1139.81 683.912 1139.94C683.857 1151.8 683.536 1166.1 683.963 1177.87C671.811 1177.88 658.055 1178.18 646.046 1177.56L646.011 1140.05Z"/><path fill="#FBFBFB" d="M113.939 873.914C113.867 886.528 113.858 899.142 113.913 911.756C102.549 911.941 86.6451 911.247 76.0177 911.811L76.0551 874.015C88.5726 873.779 101.539 874.346 113.939 873.914Z"/><path fill="#FBFBFB" d="M342.056 1216.07C354.679 1215.84 367.305 1215.83 379.929 1216.02L379.929 1254L342.097 1254L342.056 1216.07Z"/><path fill="#FBFBFB" d="M721.884 38.0465C721.783 50.6821 721.768 63.3182 721.838 75.954L683.981 75.9896L683.94 38.2816C696.384 37.9378 709.386 38.1178 721.884 38.0465Z"/><path fill="#FBFBFB" d="M151.948 38.0869L189.965 38.1172L189.963 75.9671C177.341 76.0929 164.717 76.0704 152.096 75.8998L151.948 38.0869Z"/><path fill="#FBFBFB" d="M608.027 76.1064C607.79 88.489 608.004 101.712 607.995 114.156L570.16 114.156C569.934 101.67 570.086 88.8006 570.082 76.2857C582.692 76.0716 595.394 76.2002 608.027 76.1064Z"/><path fill="#FBFBFB" d="M1064.06 646.136C1076.6 646.026 1089.13 645.991 1101.67 646.029C1101.68 658.24 1101.43 671.853 1101.76 683.955C1089.2 683.83 1076.65 683.797 1064.09 683.855C1063.88 671.283 1063.87 658.708 1064.06 646.136Z"/><path fill="#FBFBFB" d="M1101.75 266.276L1101.71 304.213L1064.07 304.244C1063.91 291.591 1063.92 278.935 1064.08 266.282C1076.1 266.341 1089.8 266.605 1101.75 266.276Z"/><path fill="#FBFBFB" d="M304.274 1178.06C316.826 1177.83 329.381 1177.8 341.934 1177.98L341.966 1215.93L304.244 1215.93L304.274 1178.06Z"/><path fill="#FBFBFB" d="M1063.97 1178.03C1076.35 1177.89 1089.3 1177.58 1101.64 1177.96L1101.73 1215.86L1064.08 1215.88C1063.7 1203.41 1063.99 1190.55 1063.97 1178.03Z"/><path fill="#FBFBFB" d="M1064.02 190.405L1101.7 190.397C1101.7 202.736 1101.53 215.869 1101.8 228.179C1089.2 228.258 1076.6 228.268 1064.01 228.209L1064.02 190.405Z"/><path fill="#FBFBFB" d="M380.132 38.0991L417.892 38.0364L417.892 75.9362C405.745 75.9926 392.256 76.3497 380.215 75.992C380.216 63.8496 380.473 50.1786 380.132 38.0991Z"/><path fill="#FBFBFB" d="M570.105 152.4C582.733 152.262 595.362 152.25 607.99 152.365L608.012 190.333C619.447 190.49 634.734 190.788 646.004 190.309C645.918 202.609 645.695 216.033 645.976 228.327C657.314 228.353 672.912 228.823 683.944 228.297C683.857 215.654 683.882 203.011 684.021 190.369C696.648 190.46 709.276 190.445 721.903 190.323L721.91 152.363L759.79 152.361C759.728 165.018 759.761 177.675 759.887 190.331C771.824 190.425 786.053 190.73 797.865 190.343L797.86 152.396C810.511 152.44 823.163 152.401 835.815 152.278C835.755 164.649 835.513 178.013 835.764 190.322C848.41 190.455 861.057 190.488 873.704 190.421C873.726 202.917 873.603 215.813 873.79 228.279L911.729 228.365C911.75 240.616 911.52 254.134 911.832 266.29C923.761 266.345 937.864 266.655 949.737 266.282L949.824 228.376L987.755 228.278C987.647 240.953 987.645 253.628 987.748 266.303L1026.01 266.327C1025.79 278.541 1025.6 291.952 1025.87 304.204C1013.46 304.362 999.94 303.955 987.767 304.3C987.667 316.938 987.655 329.576 987.733 342.215L949.733 342.222C949.647 354.894 949.638 367.566 949.706 380.238C960.135 380.516 977.402 380.771 987.712 380.217C987.698 392.571 987.445 405.989 987.692 418.266L1025.96 418.331C1026.09 430.649 1025.6 444.046 1025.91 456.111L987.67 456.199C987.67 468.157 987.34 482.317 987.702 494.117C999.879 494.297 1013.88 494.392 1026.03 494.015C1025.28 505.116 1025.8 520.583 1025.92 531.941L987.717 532.03C987.689 544.137 987.372 558.026 987.694 570.065L1026.07 570.025C1025.5 582.807 1026 595.278 1025.84 607.992L987.734 607.985C987.663 620.664 987.671 633.342 987.755 646.02L1025.78 646.061C1025.82 658.505 1026.06 671.521 1025.8 683.921C1015.45 683.381 998.495 683.892 987.737 683.913L987.715 721.941L1025.93 721.96C1025.61 734.449 1025.83 747.292 1025.89 759.809C1013.16 759.906 1000.44 759.924 987.709 759.861C987.705 772.186 987.46 785.603 987.719 797.849C997.967 798.006 1016.08 798.422 1025.97 797.792C1025.81 810.482 1025.81 823.173 1025.98 835.863C1013.22 836.013 1000.46 836.039 987.701 835.941L987.67 873.872C978.279 873.861 958.658 873.3 949.723 873.939L949.742 835.956C937.167 835.988 924.592 835.956 912.017 835.86L911.82 797.811C899.978 797.458 885.874 797.827 873.816 797.808C873.672 810.533 873.682 823.26 873.846 835.986C886.494 835.87 899.143 835.873 911.791 835.996C911.779 848.518 911.655 861.209 911.813 873.717C899.803 874.423 885.894 874.088 873.734 874.071L873.665 911.78L835.807 911.913C835.771 924.364 835.89 937.269 835.679 949.685C822.54 949.982 811.006 949.785 797.939 949.723L797.898 911.674C786.091 912.407 771.795 912.045 759.795 912.034C759.876 924.618 759.882 937.203 759.814 949.787C747.175 949.923 734.535 949.923 721.896 949.786C721.654 937.473 721.82 924.492 721.803 912.129C687.849 924.564 644.017 930.704 607.872 927.995L608.086 949.83C595.393 949.857 582.701 949.812 570.009 949.694C569.931 945.15 569.157 926.146 571.178 923.58C558.772 920.943 543.778 917.538 531.947 913.33C521.26 910.072 512.596 905.476 502.823 902.205C500.398 900.853 497.485 899.596 494.955 898.366C477.894 890.067 461.569 880.533 446.455 869.029C440.777 864.708 437.088 858.025 442.875 851.988C446.822 847.872 455.119 849.467 460.357 849.054C465.2 848.859 470.348 849.099 475.203 849.068C494.041 848.946 512.953 849.413 531.781 848.686C531.818 846.26 532.194 839.061 531.391 837.191C528.647 836.539 526.688 836.945 523.878 837.22L523.718 836.473L524.975 835.781C530.233 836.282 537.487 835.914 542.901 835.866L570.06 835.87C569.831 823.307 569.912 810.424 569.83 797.838C557.235 797.981 544.64 797.977 532.045 797.826C531.766 785.161 531.707 772.492 531.87 759.825L494.242 759.865C494.221 754.536 494.263 749.875 493.67 744.546C531.254 722.172 551.71 689.116 556.011 645.635C561.131 645.977 564.924 646.002 570.071 645.91L570.039 683.949C582.827 683.819 595.616 683.839 608.404 684.01C608.243 691.888 607.416 715.233 608.332 721.502C609.687 722.295 610.695 722.143 612.275 722.17C612.628 722.499 613.255 723.035 613.53 723.389C613.451 704.921 614.503 687.715 614.613 669.723L614.635 531.706C612.61 532.23 610.92 532.057 608.925 531.693C607.256 529.336 608.05 499.154 608.079 494.066L570.019 493.988C570.107 506.67 570.107 519.352 570.021 532.034C557.435 532.173 544.673 532.036 532.073 532.008C531.904 519.347 531.874 506.685 531.983 494.023C544.657 494.148 557.332 494.133 570.005 493.978L570.003 456.195L532.035 456.167C531.95 466.137 532.495 484.619 531.769 494L494.204 493.905C493.961 481.492 494.111 468.663 494.099 456.218C481.747 455.944 468.435 456.167 456.01 456.172C455.32 445.788 455.542 428.627 455.925 418.172C443.316 418.402 430.705 418.409 418.096 418.196L418.05 456.138C411.779 456.207 384.857 456.862 380.445 455.577C375.276 464.974 371.259 474.899 367.699 485.007C364.531 494.005 357.885 499.035 349.461 492.251C347.835 493.851 344.783 493.602 342.367 493.742C341.707 482.2 342.1 467.911 342.075 456.187C345.594 456.291 356.152 456.207 358.728 457.513C366.006 442.854 371.469 432.747 380.167 419.056C373.074 417.89 350.762 418.273 342.2 418.146C341.796 405.748 342.022 392.786 342.125 380.348L380.15 380.283L380.204 342.234L342.222 342.174C341.742 330.711 341.909 315.894 342.105 304.371L380.202 304.32C380.479 291.94 380.193 278.731 380.137 266.292L418.11 266.31C417.33 255.342 417.622 239.579 418.01 228.394L455.805 228.408L455.898 266.213C443.262 266.286 430.626 266.284 417.99 266.207C418.062 278.716 418.206 291.759 417.977 304.265C430.568 304.279 443.532 304.454 456.093 304.24C455.6 291.623 455.566 278.991 455.991 266.371L494.203 266.334C494.082 253.674 494.057 241.013 494.127 228.353C506.446 228.301 519.843 228.714 532.045 228.219C531.947 215.616 531.963 203.012 532.095 190.41L570.058 190.321L570.105 152.4Z"/><path fill="#003E4F" d="M614.635 531.706L614.612 487.919C614.571 478.893 610.972 455.278 624.521 456.388C626.968 456.592 629.229 457.776 630.789 459.673C632.508 461.773 633.163 464.647 633.189 467.285C633.338 482.343 632.993 497.709 632.995 512.766L633.305 628.741C633.42 643.617 632.927 669.808 634.046 684.086C634.454 695.092 634.276 706.009 634.403 717C634.453 721.318 634.268 729.506 634.876 733.605C634.621 742.082 634.893 751.233 635.004 759.767C635.406 773.732 635.422 784.261 639.07 797.863C649.484 836.693 685.097 847.313 720.944 849.022C730.812 849.273 745.32 849.548 755.208 849.109C769.13 849.124 786.441 849.604 800.048 849.009C803.168 849.598 806.051 850.754 807.834 853.551C809.258 855.784 809.626 858.395 808.84 860.921C805.503 871.652 765.964 893.048 754.685 898.467C744.017 903.593 733.031 908.365 721.803 912.129C687.849 924.564 644.017 930.704 607.872 927.995L608.086 949.83C595.393 949.857 582.701 949.812 570.009 949.694C569.931 945.15 569.157 926.146 571.178 923.58C558.772 920.943 543.778 917.538 531.947 913.33C521.26 910.072 512.596 905.476 502.823 902.205C500.398 900.853 497.485 899.596 494.955 898.366C477.894 890.067 461.569 880.533 446.455 869.029C440.777 864.708 437.088 858.025 442.875 851.988C446.822 847.872 455.119 849.467 460.357 849.054C465.2 848.859 470.348 849.099 475.203 849.068C494.041 848.946 512.953 849.413 531.781 848.686C531.818 846.26 532.194 839.061 531.391 837.191C528.647 836.539 526.688 836.945 523.878 837.22L523.718 836.473L524.975 835.781C530.233 836.282 537.487 835.914 542.901 835.866L570.06 835.87C569.831 823.307 569.912 810.424 569.83 797.838C557.235 797.981 544.64 797.977 532.045 797.826C531.766 785.161 531.707 772.492 531.87 759.825L494.242 759.865C494.221 754.536 494.263 749.875 493.67 744.546C531.254 722.172 551.71 689.116 556.011 645.635C561.131 645.977 564.924 646.002 570.071 645.91L570.039 683.949C582.827 683.819 595.616 683.839 608.404 684.01C608.243 691.888 607.416 715.233 608.332 721.502C609.687 722.295 610.695 722.143 612.275 722.17C612.628 722.499 613.255 723.035 613.53 723.389C613.451 704.921 614.503 687.715 614.613 669.723L614.635 531.706Z"/><path fill="#FBFBFB" d="M556.011 645.635C561.131 645.977 564.924 646.002 570.071 645.91L570.039 683.949C582.827 683.819 595.616 683.839 608.404 684.01C608.243 691.888 607.416 715.233 608.332 721.502C609.687 722.295 610.695 722.143 612.275 722.17C612.628 722.499 613.255 723.035 613.53 723.389L613.485 756.617C613.433 775.022 613.671 792.473 605.533 809.473C592.135 837.458 560.756 847.483 531.781 848.686C531.818 846.26 532.194 839.061 531.391 837.191C528.647 836.539 526.688 836.945 523.878 837.22L523.718 836.473L524.975 835.781C530.233 836.282 537.487 835.914 542.901 835.866L570.06 835.87C569.831 823.307 569.912 810.424 569.83 797.838C557.235 797.981 544.64 797.977 532.045 797.826C531.766 785.161 531.707 772.492 531.87 759.825L494.242 759.865C494.221 754.536 494.263 749.875 493.67 744.546C531.254 722.172 551.71 689.116 556.011 645.635Z"/><path fill="#FBFBFB" d="M571.178 923.58C584.539 925.697 594.455 927.017 607.872 927.995L608.086 949.83C595.393 949.857 582.701 949.812 570.009 949.694C569.931 945.15 569.157 926.146 571.178 923.58Z"/><path fill="#FBFBFB" d="M624.249 813.683C625.05 814.646 627.166 819.223 627.964 820.649C631.271 826.555 634.541 832.36 639.259 837.281C674.901 874.448 723.468 867.317 769.136 868.617C725.562 895.13 675.55 909.181 624.545 909.243C580.243 909.558 516.623 893.464 479.767 868.426C511.025 867.536 542.865 871.537 572.7 860.696C598.795 851.214 612.559 838.047 624.249 813.683Z"/><path fill="#003E4F" d="M494.707 318.881C568.998 282.983 649.196 277.653 727.217 304.778C771.989 320.548 812.3 346.878 844.735 381.537C868.101 407.208 887.289 435.009 900.249 467.474C902.862 474.021 913.782 495.107 897.239 495.388C895.203 495.422 891.904 493.942 890.799 492.311C884.109 480.902 880.757 465.971 873.626 454.48C862.349 430.035 835.637 396.914 815.155 379.228C769.258 337.666 710.882 312.486 649.154 307.627C587.655 303.104 526.353 318.711 474.503 352.09C461.477 360.521 450.977 369.007 439.264 379.056C415.828 401.071 394.423 426.372 380.445 455.577C375.276 464.974 371.259 474.899 367.699 485.007C364.531 494.005 357.885 499.035 349.461 492.251C347.835 493.851 344.783 493.602 342.367 493.742C341.707 482.2 342.1 467.911 342.075 456.187C345.594 456.291 356.152 456.207 358.728 457.513C366.006 442.854 371.469 432.747 380.167 419.056C389.291 405.667 399.381 392.964 410.357 381.047L418.084 373.139C420.027 371.34 421.533 370.055 423.175 367.93C426.845 365.204 432.397 360.032 436.157 356.867C442.572 351.511 449.206 346.422 456.042 341.614C467.159 333.366 482.255 324.907 494.707 318.881Z"/><path fill="#FBFBFB" d="M342.075 456.187C345.594 456.291 356.152 456.207 358.728 457.513C355.1 466.125 345.561 483.465 349.461 492.251C347.835 493.851 344.783 493.602 342.367 493.742C341.707 482.2 342.1 467.911 342.075 456.187Z"/><path fill="#003E4F" d="M708.895 572.027C710.852 569.703 712.758 566.655 714.634 564.174C743.733 525.687 788.955 510.812 835.846 516.349C850.515 518.807 860.003 522.006 873.566 528.327C893.683 539.437 907.47 551.401 920.452 570.654C928.771 584.979 932.088 591.834 936.352 608.318C939.588 622.226 939.821 631.19 939.321 645.609C937.731 660.824 935.835 667.699 930.85 682.237C896.061 769.732 784.683 786.917 721.138 718.893C708.811 704.793 699.788 688.118 694.729 670.086C684.707 634.432 691.195 603.6 708.895 572.027Z"/><path fill="#FBFBFB" d="M797.096 534.92C811.711 532.824 821.949 532.624 836.641 535.414C881.37 544.928 914.986 577.996 920.521 624.072C896.6 645.964 855.768 655.496 823.747 654.764C795.306 654.115 781.773 641.417 758.492 636.463C746.043 633.94 736.835 633.825 724.294 635.969C717.852 637.355 714.159 639.199 708.223 642.017C706.164 607.864 723.698 572.684 751.708 553.225C766.179 543.172 780.154 538.395 797.096 534.92Z"/><path fill="#FBFBFB" d="M919.394 649.002L920.211 649.951C920.189 650.847 920.138 651.741 920.056 652.632C918.117 675.325 901.535 702.725 884.04 717.091C837.998 754.899 770.012 749.082 731.749 702.682C722.041 691.65 715.339 676.303 711.687 662.179C738.058 641.222 769.696 661.478 796.032 668.766C837.622 680.276 882.499 669.968 919.394 649.002Z"/><path fill="#003E4F" d="M455.774 494.198C468.519 494.092 481.265 494.065 494.01 494.117C494.042 499.106 494.749 528.084 493.318 530.186C536.913 555.829 557.835 595.266 556.011 645.635C551.71 689.116 531.254 722.172 493.67 744.546C444.339 771.908 383.351 764.039 343.046 724.382L339.661 720.845C336.728 717.701 333.972 714.397 331.404 710.949C311.671 684.146 303.356 650.619 308.279 617.701C313.363 585.832 330.96 557.31 357.162 538.469C385.878 517.849 421.372 511.303 455.959 516.986C455.33 512.282 455.71 499.366 455.774 494.198Z"/><path fill="#FBFBFB" d="M455.774 494.198C468.519 494.092 481.265 494.065 494.01 494.117C494.042 499.106 494.749 528.084 493.318 530.186C480.251 523.708 470.394 519.651 455.959 516.986C455.33 512.282 455.71 499.366 455.774 494.198Z"/><path fill="#FBFBFB" d="M326.202 623.124C328.731 603.587 336.862 585.201 349.615 570.186C379.678 534.287 434.036 523.604 476.235 542.718C483.35 545.941 490.069 549.146 496.106 554.218C522.338 572.079 540.579 609.519 537.673 641.252C500.55 624.023 477.551 642.691 442.821 652.04C411.074 660.586 370.117 649.829 341.607 634.917C335.088 630.818 331.447 628.634 326.202 623.124Z"/><path fill="#FBFBFB" d="M326.066 647.948C330.771 650.787 337.202 653.948 342.163 656.567C381.176 674.37 427.214 680.088 467.65 663.492C489.161 654.663 514.32 646.053 534.955 661.709C534.069 664.914 533.172 668.196 532.11 671.35C515.613 720.326 463.978 749.392 413.224 740.427C366.498 733.656 331.393 694.21 326.066 647.948Z"/><path fill="#FBFBFB" d="M987.76 911.867C987.664 924.535 987.661 937.203 987.75 949.871L1025.99 949.759C1025.46 961.935 1025.9 975.581 1025.88 987.911L987.865 987.927C987.671 1000.52 987.611 1013.11 987.683 1025.7C975.008 1025.98 962.327 1025.96 949.652 1025.64L949.639 1063.62C937.073 1063.86 924.504 1063.88 911.936 1063.7C911.799 1051.09 911.766 1038.48 911.837 1025.87C924.479 1025.74 937.121 1025.75 949.763 1025.89C949.706 1013.32 949.719 1000.75 949.8 988.183C962.454 987.79 975.115 987.72 987.772 987.972C987.657 975.609 987.527 962.275 987.824 949.899C975.127 949.934 962.429 949.887 949.732 949.757L949.795 911.961C962.45 912.055 975.106 912.024 987.76 911.867Z"/><path fill="#FBFBFB" d="M417.904 912.034C429.628 912.054 444.379 912.472 455.855 911.679L455.855 949.8C468.621 949.885 481.387 949.861 494.153 949.73C493.756 962.059 494.034 975.356 494.072 987.756C481.356 987.948 468.638 987.96 455.922 987.792C455.736 975.292 455.88 962.309 455.867 949.775C443.464 950.11 431.054 950.141 418.649 949.866C417.223 947.567 417.876 917.227 417.904 912.034Z"/><path fill="#FBFBFB" d="M987.803 114.394C1000.45 114.179 1013.09 114.127 1025.74 114.239C1025.76 124.837 1025.25 142.087 1026.03 152.155C1013.25 152.338 1000.46 152.357 987.679 152.21C987.682 164.395 987.395 178.271 987.731 190.329C976.114 189.907 961.438 190.241 949.73 190.358L949.74 152.362C961.891 152.349 975.796 152.667 987.749 152.287C987.643 139.656 987.661 127.025 987.803 114.394Z"/><path fill="#FBFBFB" d="M304.28 494.221C316.805 494.055 329.332 494.065 341.858 494.249C341.946 506.831 341.966 519.413 341.917 531.995L304.17 531.947C304.242 544.622 304.248 557.297 304.189 569.971C291.685 569.813 278.806 569.948 266.278 569.948C265.912 557.488 266.064 544.655 266.066 532.164L304.143 531.879C304.122 519.326 304.168 506.773 304.28 494.221Z"/><path fill="#FBFBFB" d="M759.255 1063.96C760.294 1065.14 759.783 1097.43 759.772 1101.65C747.209 1101.91 734.47 1101.76 721.863 1101.92L721.86 1139.89C709.871 1139.84 697.576 1140.1 685.629 1139.62L684.575 1139.32C683.327 1136.72 683.927 1106.95 683.955 1102C696.346 1101.55 709.527 1101.74 721.93 1101.9C721.81 1089.31 721.796 1076.72 721.887 1064.12L759.255 1063.96Z"/><path fill="#FBFBFB" d="M641.551 949.991C643.43 949.749 643.959 949.47 645.663 950.231C646.549 957.177 645.969 979.625 645.953 987.706C633.281 988.042 620.599 987.632 607.989 987.942L608.018 1025.69C596.651 1025.91 585.281 1025.97 573.913 1025.87C572.304 1025.8 571.694 1025.96 570.375 1025.09C569.486 1020.82 570.064 994.098 570.115 988.169C582.771 987.8 595.433 987.737 608.092 987.978C607.999 975.318 607.992 962.657 608.07 949.997L641.551 949.991Z"/><path fill="#FBFBFB" d="M987.805 342.511L1025.93 342.375C1025.68 353.94 1025.51 368.765 1026.07 380.288C1038.35 380.351 1051.6 380.088 1063.8 380.393C1063.74 392.884 1063.54 405.688 1063.9 418.15C1051.69 418.335 1038.27 418.524 1026.03 418.168C1025.51 405.909 1025.77 392.526 1025.79 380.179L987.712 380.217C987.671 367.649 987.702 355.08 987.805 342.511Z"/><path fill="#FBFBFB" d="M417.904 152.37C430.554 152.265 443.205 152.285 455.855 152.43C455.843 164.79 455.619 177.792 455.884 190.1C443.238 190.33 430.588 190.368 417.941 190.212C418.088 202.862 418.068 215.513 417.882 228.163L380.154 228.274L380.206 190.408C392.832 190.411 405.611 190.307 418.223 190.454C417.207 179.079 417.937 163.94 417.904 152.37Z"/><path fill="#FBFBFB" d="M835.824 950.071C848.208 949.624 861.345 949.79 873.788 949.752L873.759 987.75C861.094 987.898 848.428 987.929 835.763 987.841L835.738 1025.65C823.44 1025.86 809.714 1025.38 797.857 1025.72L797.898 988.14C810.544 987.85 823.195 987.804 835.843 988.003C835.736 975.36 835.729 962.715 835.824 950.071Z"/><path fill="#FBFBFB" d="M645.994 1064.14C650.554 1064.11 682.043 1063.51 683.855 1064.57L683.832 1101.56C671.217 1101.8 658.6 1101.88 645.983 1101.81L645.954 1139.7C634.76 1140.02 619.273 1140.24 608.042 1139.67C608.037 1127.15 607.9 1114.39 608.067 1101.89C620.721 1101.67 633.378 1101.63 646.034 1101.78L645.994 1064.14Z"/><path fill="#FBFBFB" d="M380.249 114.384C392.796 114.227 405.344 114.167 417.892 114.201L417.892 152.152C405.277 152.124 392.675 152.338 380.057 152.17C380.119 164.561 380.418 177.89 379.941 190.201C368.612 190.384 353.262 190.65 342.168 189.988C341.574 179.21 342.03 163.304 342.155 152.363C354.84 152.191 367.526 152.185 380.211 152.345L380.249 114.384Z"/><path fill="#FBFBFB" d="M380.16 1102.01C392.002 1101.51 405.898 1101.85 417.892 1101.85L417.892 1140.05C430.443 1139.94 443.338 1139.66 455.855 1140.08L455.855 1177.7C443.618 1177.96 430.41 1177.75 418.105 1177.76C417.45 1166.44 417.895 1151.45 417.904 1139.85C407.186 1139.95 390.614 1140.39 380.302 1139.53L380.16 1102.01Z"/><path fill="#FBFBFB" d="M493.518 911.109C493.512 909.551 493.95 902.239 493.832 901.423L493.731 903.655L494.122 902.559C494.314 905.227 494.158 909.148 494.137 911.919C500.887 911.856 507.1 911.793 513.851 911.355C509.056 910.873 499.862 911.125 494.742 911.109C494.678 908.758 494.142 902.784 495.174 901.124C497.069 900.638 499.507 901.806 502.235 902.137L502.823 902.205C512.596 905.476 521.26 910.072 531.947 913.33C531.675 925.33 532.147 937.593 531.993 949.757C518.939 950.217 507.182 949.928 494.153 949.73L494.112 911.817C486.733 911.926 463.129 912.565 457.112 911.373C467.177 910.623 483.032 911.112 493.518 911.109Z"/><path fill="#FBFBFB" d="M988.222 1101.81C1000.82 1101.68 1013.42 1101.67 1026.02 1101.79C1025.86 1114.54 1026.12 1127.2 1025.84 1139.94C1015.7 1139.95 997.379 1140.52 987.81 1139.54C987.759 1134.89 987.126 1103.29 988.222 1101.81Z"/><path fill="#FBFBFB" d="M1025.83 76.1705C1038.55 76.0829 1051.27 76.0963 1063.99 76.2108C1063.84 88.4223 1063.65 101.414 1063.93 113.589C1059.53 114.946 1031.88 114.227 1025.93 114.005C1025.47 101.791 1025.77 88.4685 1025.83 76.1705Z"/><path fill="#FBFBFB" d="M1145.74 1101.8C1156.47 1101.71 1167.2 1101.7 1177.93 1101.76C1177.94 1109.72 1178.51 1132.76 1177.68 1139.11C1175.91 1140.23 1175.72 1139.82 1173.2 1139.84C1162.18 1139.98 1151.16 1139.91 1140.14 1139.62C1139.76 1132.73 1139.13 1108.93 1140.2 1102.78C1142.11 1101.57 1143.1 1101.96 1145.74 1101.8Z"/><path fill="#FBFBFB" d="M1140 911.821C1139.7 923.937 1139.96 937.548 1139.96 949.764C1127.27 950.106 1114.58 950.077 1101.9 949.675C1101.21 938.411 1101.7 923.609 1101.8 912.113C1114.32 912.073 1127.53 912.242 1140 911.821Z"/><path fill="#FBFBFB" d="M570.044 1101.67C569.604 1113.26 569.992 1127.95 569.957 1139.83C557.374 1139.86 544.657 1140.14 532.098 1139.68C531.972 1127.14 531.952 1114.61 532.039 1102.08C544.384 1101.57 557.628 1101.73 570.044 1101.67Z"/><path fill="#FBFBFB" d="M987.781 1025.93C998.526 1025.38 1014.77 1025.79 1025.86 1025.77C1025.43 1037.36 1025.83 1051.79 1025.79 1063.72C1013.13 1063.88 1000.47 1063.85 987.811 1063.62C987.625 1051.05 987.615 1038.49 987.781 1025.93Z"/><path fill="#FBFBFB" d="M304.213 380.21C304.007 392.812 304.224 405.463 303.999 418.149C291.391 418.319 278.78 418.326 266.171 418.168C265.778 405.942 266.069 392.618 266.102 380.314L304.213 380.21Z"/><path fill="#FBFBFB" d="M570.009 949.694L569.969 987.844C557.345 987.93 544.72 987.92 532.096 987.811C531.777 975.203 531.724 962.589 531.938 949.979C544.464 950.096 557.424 949.763 570.009 949.694Z"/><path fill="#FBFBFB" d="M987.726 874.138C1000.48 873.861 1013.23 873.82 1025.99 874.017C1025.91 886.441 1025.64 899.374 1025.86 911.759C1014.45 911.811 998.725 911.365 987.76 911.867C987.662 899.291 987.651 886.714 987.726 874.138Z"/><path fill="#FBFBFB" d="M1177.95 1025.7L1177.88 1063.87C1167.33 1063.33 1151.35 1063.82 1140 1063.62C1139.67 1051.06 1139.66 1038.5 1139.98 1025.95C1152.36 1025.55 1165.51 1025.73 1177.95 1025.7Z"/><path fill="#FBFBFB" d="M683.999 114.236L721.844 114.197L721.843 152.213L683.96 152.288C683.816 139.604 683.83 126.919 683.999 114.236Z"/><path fill="#FBFBFB" d="M1101.82 1140.12C1114.53 1139.86 1127.25 1139.83 1139.96 1140.02C1139.94 1145.67 1140.62 1174.48 1139.33 1177.78L1101.74 1177.8C1101.44 1165.46 1101.69 1152.49 1101.82 1140.12Z"/><path fill="#FBFBFB" d="M876.875 76.249C888.248 75.9263 900.3 76.117 911.723 76.1171C911.719 81.5424 912.606 110.765 911.011 113.744L909.426 114.128C897.622 114.265 885.64 114.163 873.822 114.169C873.789 109.173 873.132 79.0962 874.371 76.4281L876.875 76.249Z"/><path fill="#FBFBFB" d="M266.053 304.398L304.219 304.278C304.121 316.968 304.115 329.659 304.2 342.35C293.834 341.709 276.971 342.21 266.053 342.203L266.053 304.398Z"/><path fill="#FBFBFB" d="M873.786 1025.78C873.693 1038.45 873.676 1051.12 873.737 1063.79L836.301 1063.85C835.15 1061.43 835.801 1030.96 835.845 1026.11C848.071 1025.55 861.455 1025.79 873.786 1025.78Z"/><path fill="#FBFBFB" d="M1064.08 759.866C1063.48 771.503 1063.77 785.985 1063.97 797.769C1051.3 797.907 1038.64 797.915 1025.97 797.792C1025.18 787.833 1025.79 770.417 1025.85 759.988L1064.08 759.866Z"/><path fill="#FBFBFB" d="M189.926 228.302C202.517 228.368 215.509 228.168 228.047 228.39C228.049 240.472 228.345 254.272 228.023 266.232C215.398 266.298 202.773 266.296 190.148 266.225C189.847 253.59 190.265 240.715 189.926 228.302Z"/><path fill="#FBFBFB" d="M1026.94 912.044C1038.78 911.911 1052.23 911.714 1063.96 912.167C1063.8 924.7 1063.78 937.235 1063.91 949.768C1051.25 950.056 1038.58 950.014 1025.92 949.64C1025.34 940.904 1025.68 922.653 1026 913.141C1026.32 912.776 1026.63 912.41 1026.94 912.044Z"/><path fill="#FBFBFB" d="M1025.84 607.992C1038.31 607.994 1051.43 607.784 1063.84 608.077C1063.73 620.071 1063.6 633.58 1063.92 645.525C1059.52 646.49 1032.38 645.951 1026.03 645.929C1025.64 634.299 1025.54 619.655 1025.84 607.992Z"/><path fill="#FBFBFB" d="M987.731 190.329C1000.41 190.416 1013.1 190.438 1025.78 190.395C1025.75 202.99 1025.78 215.586 1025.88 228.18C1013.84 228.254 999.616 227.874 987.755 228.278C987.679 215.629 987.671 202.979 987.731 190.329Z"/><path fill="#FBFBFB" d="M455.893 1101.87L494.036 1101.85L494.066 1139.7C481.408 1139.84 468.748 1139.83 456.09 1139.69C455.606 1127.47 455.872 1114.17 455.893 1101.87Z"/><path fill="#FBFBFB" d="M266.099 684.023C278.614 683.984 291.695 683.747 304.166 683.99C304.172 696.101 303.873 709.964 304.204 721.948C291.608 721.627 278.961 721.992 266.378 721.724C265.776 709.526 266.055 696.31 266.099 684.023Z"/><path fill="#FBFBFB" d="M455.867 1026.05C467.629 1025.56 482.068 1025.93 494.044 1025.92C494.076 1038.51 494.001 1051.09 493.818 1063.67C480.973 1063.76 468.794 1063.84 455.924 1063.63C455.709 1051.34 455.878 1038.38 455.867 1026.05Z"/><path fill="#FBFBFB" d="M721.937 1025.74C721.458 1037.12 721.847 1052.07 721.851 1063.69C709.246 1063.97 696.635 1063.94 684.032 1063.59C683.846 1051.02 683.844 1038.46 684.027 1025.89C696.663 1025.75 709.3 1025.7 721.937 1025.74Z"/><path fill="#FBFBFB" d="M1025.8 683.921C1038.36 683.912 1051.37 683.796 1063.9 684.051C1063.49 696.407 1063.82 709.384 1063.96 721.791C1051.29 721.86 1038.61 721.838 1025.93 721.727C1025.69 709.126 1025.65 696.523 1025.8 683.921Z"/><path fill="#FBFBFB" d="M342.116 76.2431C353.837 76.6163 368.247 76.2533 380.133 76.2381C380.142 88.5406 380.394 101.804 379.957 114.03C367.646 114.395 354.541 114.166 342.172 114.155C342.007 101.518 341.988 88.8802 342.116 76.2431Z"/><path fill="#FBFBFB" d="M759.942 987.849C759.624 1000.39 759.841 1013.38 759.889 1025.95C747.726 1025.49 734.243 1025.84 721.937 1025.74C721.763 1013.28 721.87 1000.61 721.856 988.138C734.73 987.731 747.169 988.086 759.942 987.849Z"/><path fill="#FBFBFB" d="M1032 987.923C1042.68 987.775 1053.35 987.777 1064.03 987.93C1063.67 993.832 1064.39 1022.65 1063.35 1025.41L1061.89 1025.69C1049.94 1025.82 1038 1025.82 1026.06 1025.68C1025.57 1020.98 1025.45 993.071 1026.07 988.937C1027.65 987.803 1029.96 988.002 1032 987.923Z"/><path fill="#FBFBFB" d="M608.076 114.334C620.692 114.142 633.311 114.165 645.926 114.402C645.984 126.996 645.959 139.59 645.852 152.184C633.265 152.307 620.676 152.304 608.089 152.176C607.978 139.562 607.974 126.948 608.076 114.334Z"/><path fill="#FBFBFB" d="M913.045 1101.86C925.041 1101.5 937.646 1101.73 949.682 1101.84C949.694 1108.42 950.164 1133.99 949.384 1139.16L948.504 1139.66C936.365 1140.14 924.211 1140.09 912.077 1139.51C911.839 1132.26 911.342 1108.47 912.08 1102.54L913.045 1101.86Z"/><path fill="#FBFBFB" d="M455.916 190.374L493.994 190.367L493.998 228.157C481.308 228.242 468.618 228.247 455.928 228.169C455.846 215.571 455.842 202.972 455.916 190.374Z"/><path fill="#FBFBFB" d="M1025.84 1139.94C1038.18 1139.88 1051.72 1139.62 1063.95 1140.02C1063.47 1150.07 1063.41 1167.74 1063.91 1177.77C1051.31 1177.96 1038.7 1177.93 1026.11 1177.69C1025.33 1166.21 1025.79 1151.68 1025.84 1139.94Z"/><path fill="#FBFBFB" d="M342.148 759.979C354.646 759.921 367.525 759.775 379.994 760.04L380.132 797.824C367.507 797.752 354.727 797.994 342.135 797.741C342.125 785.523 341.866 772.104 342.148 759.979Z"/><path fill="#FBFBFB" d="M297.736 76.2321C300.512 76.0092 300.982 75.8541 303.612 76.5136C304.49 79.9718 304.026 108.663 304.003 114.003C292.832 114.208 281.658 114.254 270.486 114.139C269.394 114.159 268.397 114.028 267.301 113.931C266.947 113.552 266.592 113.173 266.238 112.794C265.683 104.72 266.06 82.703 266.101 76.2381L297.736 76.2321Z"/><path fill="#FBFBFB" d="M873.832 152.36C886.498 152.171 899.167 152.189 911.833 152.416L911.82 190.223C899.189 190.31 886.557 190.315 873.926 190.239C873.76 177.613 873.729 164.986 873.832 152.36Z"/><path fill="#FBFBFB" d="M161.192 949.991C168.448 949.345 182.335 949.753 190.084 949.748C189.953 962.435 189.929 975.124 190.014 987.811L179.252 987.887L152.164 987.857L152.164 949.997L161.192 949.991Z"/><path fill="#FBFBFB" d="M266.073 988.132C278.761 987.922 291.451 987.926 304.139 988.146C304.255 1000.62 304.227 1013.1 304.053 1025.58C291.408 1025.93 278.757 1025.96 266.111 1025.68C265.868 1013.48 266.074 1000.39 266.073 988.132Z"/><path fill="#FBFBFB" d="M835.837 114.381C848.472 114.131 861.111 114.137 873.746 114.4L873.752 152.2C863.163 152.266 845.844 151.735 835.815 152.278C835.775 139.771 835.571 126.856 835.837 114.381Z"/><path fill="#FBFBFB" d="M452.349 76.2337L454.937 76.1928C456.875 78.2306 455.877 108.763 455.872 114.154L421.113 114.158C419.657 114.081 420.165 114.138 418.76 113.523C417.067 109.699 417.886 82.1911 417.93 76.2466L452.349 76.2337Z"/><path fill="#FBFBFB" d="M797.857 1025.72C797.688 1038.36 797.662 1051 797.778 1063.64C785.188 1063.92 772.594 1063.89 760.006 1063.58C759.869 1051.04 759.83 1038.5 759.889 1025.95C772.544 1025.79 785.201 1025.72 797.857 1025.72Z"/><path fill="#FBFBFB" d="M759.939 114.334C772.541 114.224 785.143 114.184 797.745 114.212C797.832 126.852 797.809 139.493 797.679 152.132C785.116 152.251 772.554 152.276 759.991 152.209C759.893 139.584 759.875 126.959 759.939 114.334Z"/><path fill="#FBFBFB" d="M1204.24 1139.8L1216 1139.76C1215.75 1152.06 1215.95 1165.26 1215.95 1177.62C1207.56 1177.81 1199.17 1177.91 1190.78 1177.9C1186.6 1177.97 1182.25 1177.77 1178.06 1177.63C1177.77 1165.46 1178.05 1152.38 1178.08 1140.14C1186.59 1139.83 1195.68 1139.89 1204.24 1139.8Z"/><path fill="#FBFBFB" d="M266.098 152.386C278.733 152.31 291.368 152.324 304.003 152.428C304.038 161.548 304.625 181.996 303.756 190.016C293.042 190.501 276.757 190.584 266.141 190C265.767 177.96 266.079 164.528 266.098 152.386Z"/><path fill="#FBFBFB" d="M304.204 721.948C310.714 722.052 335.111 722.701 339.661 720.845L343.046 724.382C341.162 730.551 341.913 751.94 341.966 759.804C329.375 759.894 316.784 759.905 304.193 759.837C303.461 750.707 304.287 732.03 304.204 721.948Z"/><path fill="#FBFBFB" d="M153.185 1025.94C165.181 1025.65 177.861 1025.81 189.911 1025.77C189.932 1030.98 190.608 1061.06 189.087 1063.64C177.062 1064.05 164.193 1063.76 152.103 1063.67C152 1056.1 151.422 1033.67 152.223 1026.61L153.185 1025.94Z"/><path fill="#FBFBFB" d="M234.057 38.2691C244.198 37.7666 255.674 38.0485 265.928 38.0932C265.971 43.6638 266.723 71.8366 265.439 75.1772C263.337 76.3146 260.708 76.0161 258.24 76.0214C248.209 76.1408 238.176 76.1085 228.146 75.9245L228.087 38.3311L234.057 38.2691Z"/><path fill="#FBFBFB" d="M570.081 608.092L608.025 607.91C608.043 620.439 607.883 633.456 608.226 645.945L570.071 645.91L570.081 608.092Z"/><path fill="#FBFBFB" d="M113.945 1025.72C113.375 1035.99 113.859 1053.12 113.854 1063.85C101.323 1063.92 88.7926 1063.84 76.2644 1063.6C75.6921 1051.66 76.0249 1037.99 76.0805 1025.94C88.7012 1025.77 101.323 1025.7 113.945 1025.72Z"/><path fill="#FBFBFB" d="M1101.79 1064.14L1139.88 1063.9L1139.96 1101.62C1127.03 1101.94 1114.66 1101.83 1101.74 1101.74C1101.64 1089.21 1101.65 1076.68 1101.79 1064.14Z"/><path fill="#FBFBFB" d="M608.042 1139.67C607.718 1151.83 608.003 1165.57 607.993 1177.85C597.745 1177.14 581.534 1178.04 570.094 1177.66L570.022 1139.99C582.696 1140 595.37 1139.9 608.042 1139.67Z"/><path fill="#FBFBFB" d="M1025.91 532.219C1038.54 532.065 1051.17 532.028 1063.8 532.107C1063.62 544.727 1063.66 557.349 1063.91 569.968C1051.94 569.949 1037.87 569.562 1026.07 570.025C1025.43 559.024 1025.65 543.423 1025.91 532.219Z"/><path fill="#FBFBFB" d="M228.165 266.382C240.772 266.276 253.379 266.27 265.986 266.363C266.075 278.975 266.042 291.587 265.89 304.198C253.506 304.404 240.696 304.252 228.279 304.258C227.761 292.874 228.106 277.85 228.165 266.382Z"/><path fill="#FBFBFB" d="M1043.21 152.157C1050.07 152.142 1056.93 152.237 1063.78 152.444C1063.51 163.607 1063.37 179.266 1063.99 190.211L1047.96 190.304L1025.92 190.228C1025.31 179.48 1025.75 163.2 1025.94 152.428C1031.7 152.409 1037.46 152.318 1043.21 152.157Z"/><path fill="#FBFBFB" d="M873.805 912.079C886.482 911.922 899.161 911.911 911.838 912.047C911.799 924.306 911.48 937.694 911.803 949.862C899.546 949.938 885.932 950.304 873.788 949.752L873.805 912.079Z"/><path fill="#FBFBFB" d="M190.127 76.2553C202.511 76.4391 215.523 76.2474 227.95 76.2381C228.331 88.17 228.017 101.962 228.073 114.024C215.425 114.225 202.775 114.259 190.127 114.126L190.127 76.2553Z"/><path fill="#FBFBFB" d="M151.958 190.311C164.603 190.43 177.249 190.451 189.895 190.375L189.926 228.302C180.055 227.711 162.386 228.212 151.99 228.21L151.958 190.311Z"/><path fill="#FBFBFB" d="M38.089 76.1535C50.3277 76.3844 63.5678 76.1318 75.9357 76.1821L75.9518 114.14C63.3157 114.209 50.6792 114.198 38.0432 114.107C37.9897 101.456 38.0049 88.8043 38.089 76.1535Z"/><path fill="#FBFBFB" d="M114.01 152.36L151.875 152.361L151.958 190.311L114.075 190.233C113.852 177.61 113.83 164.984 114.01 152.36Z"/><path fill="#FBFBFB" d="M608.072 1026.08C620.204 1025.65 633.713 1025.93 645.946 1025.92C645.99 1038.29 646.228 1051.27 645.85 1063.59C633.771 1064.25 620.301 1063.84 608.122 1063.64C608.017 1051.12 608 1038.6 608.072 1026.08Z"/><path fill="#FBFBFB" d="M1178.03 988.207C1188.03 987.991 1206.6 987.188 1215.95 988.189L1215.98 1025.8C1203.3 1025.88 1190.63 1025.84 1177.95 1025.7C1177.91 1013.2 1177.94 1000.7 1178.03 988.207Z"/><path fill="#FBFBFB" d="M189.977 1064.13C202.686 1063.96 215.397 1063.95 228.107 1064.09C227.832 1076.02 228.084 1088.9 228.018 1100.92C225.558 1102.56 194.688 1101.69 190.228 1101.59C189.597 1089.8 189.945 1076.07 189.977 1064.13Z"/><path fill="#FBFBFB" d="M646.002 152.398C658.655 152.44 671.307 152.403 683.96 152.288C683.797 164.903 683.776 177.519 683.897 190.135C671.557 190.351 658.034 189.91 646.004 190.309C646.345 178.455 646.009 164.401 646.002 152.398Z"/><path fill="#FBFBFB" d="M1140.03 874.029C1152.67 873.897 1165.31 873.898 1177.94 874.03L1177.91 911.863C1165.27 911.932 1152.63 911.919 1140 911.821C1139.56 899.331 1139.87 886.547 1140.03 874.029Z"/><path fill="#FBFBFB" d="M190.109 304.419L228.077 304.361L228.046 342.187L190.122 342.199C189.775 329.97 189.894 316.597 190.109 304.419Z"/><path fill="#FBFBFB" d="M517.543 1139.81L532.018 1139.95C531.717 1152.07 531.973 1165.58 531.972 1177.81L509.897 1177.88C504.66 1177.84 499.423 1177.75 494.188 1177.62C493.902 1165.31 494.136 1152.37 494.173 1140.02L517.543 1139.81Z"/><path fill="#FBFBFB" d="M190.042 532.178C202.71 532.042 215.379 532.046 228.046 532.192C227.994 544.102 228.421 558.252 227.864 569.939L190.298 569.963C189.48 559.35 189.954 543.164 190.042 532.178Z"/><path fill="#FBFBFB" d="M1025.91 304.408L1063.87 304.362C1063.64 316.328 1063.67 330.142 1063.96 342.081C1051.76 342.557 1038.27 342.257 1025.97 342.228C1025.29 332.34 1025.77 314.455 1025.91 304.408Z"/><path fill="#FBFBFB" d="M304.208 456.216C303.993 468.799 303.952 481.385 304.088 493.969C293.688 494.02 276.797 494.566 266.814 493.717C265.37 491.4 266.023 461.432 266.053 456.303L304.208 456.216Z"/><path fill="#FBFBFB" d="M114.081 76.1815L151.883 76.1211L151.868 114.007C140.211 114.474 125.721 114.268 114.105 113.984C113.652 101.814 113.902 88.3817 114.081 76.1815Z"/><path fill="#FBFBFB" d="M1101.74 1101.74C1101.26 1113 1101.68 1128.31 1101.69 1139.86C1089.17 1140.02 1076.64 1139.92 1064.12 1139.57C1063.96 1127.01 1063.92 1114.44 1064 1101.88C1075.99 1101.45 1089.63 1101.75 1101.74 1101.74Z"/><path fill="#FBFBFB" d="M532.105 114.264C544.352 114.591 557.408 114.144 569.962 114.397L569.936 152.177C557.555 152.481 544.509 152.249 532.08 152.22C532.011 139.568 532.019 126.916 532.105 114.264Z"/><path fill="#FBFBFB" d="M456.043 114.287C468.697 114.159 481.352 114.189 494.005 114.379C494.295 126.469 494.026 139.962 494.016 152.152L455.959 152.152C455.581 140.929 455.658 125.469 456.043 114.287Z"/><path fill="#FBFBFB" d="M873.809 988.101C884.547 987.852 901.059 987.457 911.786 988.059C911.729 1000.65 911.741 1013.24 911.822 1025.83L873.786 1025.78L873.809 988.101Z"/><path fill="#FBFBFB" d="M152.298 874.046C164.665 873.794 177.52 873.967 189.922 873.967C189.834 882.606 190.619 904.222 189.627 911.721C177.122 911.898 164.615 911.881 152.111 911.672C151.939 905.719 151.546 878.049 152.298 874.046Z"/><path fill="#FBFBFB" d="M417.908 988.01C430.565 987.907 443.222 987.942 455.879 988.114C455.489 999.753 455.836 1013.98 455.843 1025.8C443.219 1025.79 430.654 1026.07 418.031 1025.65C417.508 1014.07 417.904 999.79 417.908 988.01Z"/><path fill="#FBFBFB" d="M949.732 949.757C949.299 961.515 949.64 975.781 949.613 987.763C937.082 987.871 924.55 987.913 912.017 987.889C911.911 975.314 911.897 962.738 911.974 950.163C924.08 949.616 937.535 949.803 949.732 949.757Z"/><path fill="#FBFBFB" d="M261.923 949.991C263.428 949.788 263.631 949.872 265.174 949.946C266.718 952.628 266.029 982.525 266.008 987.725C254.643 987.913 243.277 987.974 231.91 987.908C230.343 987.894 230.577 987.879 229.029 987.551C227.265 985.144 228.129 955.372 228.131 950.157C238.802 949.719 251.13 950 261.923 949.991Z"/><path fill="#FBFBFB" d="M150.958 1063.86L151.741 1064.15C152.456 1072.55 151.943 1092.39 151.948 1101.61C140.482 1101.93 126.435 1102.07 115.053 1101.58L114.566 1101.21C113.294 1098.56 113.967 1069.03 114 1064.13C126.32 1064.12 138.64 1064.03 150.958 1063.86Z"/><path fill="#FBFBFB" d="M306.295 1025.95C317.35 1025.43 330.764 1025.76 341.93 1025.82C341.977 1037.31 342.161 1049.91 341.818 1061.45C341.771 1063.03 341.405 1063.01 340.471 1063.71C328.41 1063.91 316.345 1063.89 304.285 1063.63C304.077 1058.38 303.701 1029.55 304.822 1026.4L306.295 1025.95Z"/><path fill="#FBFBFB" d="M532.077 1025.96L569.989 1025.92L569.913 1063.74C558.184 1063.39 544.204 1063.76 532.113 1063.62C531.875 1051.07 531.863 1038.51 532.077 1025.96Z"/><path fill="#FBFBFB" d="M266.121 836.111L304.003 836.108L304.003 873.816L266.053 873.947L266.121 836.111Z"/><path fill="#FBFBFB" d="M190.118 456.296C200.383 456.265 218.363 455.684 228.04 456.525C228.075 469.005 228.035 481.485 227.918 493.964C215.302 494.039 202.685 494.021 190.069 493.908C189.823 481.626 189.987 468.559 190.118 456.296Z"/><path fill="#FBFBFB" d="M342.005 228.421L380.154 228.274C380.071 240.947 380.065 253.619 380.137 266.292L342.202 266.227C341.898 253.785 342.035 240.897 342.005 228.421Z"/><path fill="#FBFBFB" d="M986.65 1063.85L986.967 1063.89C988.314 1065.62 987.752 1096.44 987.773 1101.63C975.844 1101.91 963.91 1101.9 951.981 1101.62L950.422 1101.37C949.034 1098.78 949.707 1069.13 949.735 1064.14C962.041 1064.17 974.347 1064.07 986.65 1063.85Z"/><path fill="#FBFBFB" d="M797.939 949.723C797.508 962.095 797.747 975.326 797.768 987.764C786.547 987.801 770.679 987.34 759.942 987.849L759.923 950.182C771.999 949.535 785.728 949.793 797.939 949.723Z"/><path fill="#FBFBFB" d="M151.98 114.228C164.51 114.195 177.331 114.02 189.832 114.397C190.088 126.659 189.905 139.833 189.93 152.152L152.194 152.152C151.758 139.833 151.982 126.615 151.98 114.228Z"/><path fill="#FBFBFB" d="M228.602 797.973L265.894 797.914C265.963 803.963 266.494 832.277 265.649 835.814C253.189 835.99 240.727 836 228.266 835.846C228.189 829.863 227.488 801.811 228.602 797.973Z"/><path fill="#FBFBFB" d="M342.162 988.192C354.015 987.613 367.927 987.955 379.929 987.96L380.114 1025.63C368.43 1026.14 353.842 1025.88 342.146 1025.59C341.842 1013.27 342.083 1000.54 342.162 988.192Z"/><path fill="#FBFBFB" d="M1075.26 114.218C1083.67 113.953 1093.1 114.138 1101.6 114.117C1101.59 126.805 1101.65 139.493 1101.78 152.18C1097.4 152.272 1092.92 152.261 1088.52 152.296L1064.09 152.222C1063.73 139.813 1063.97 126.879 1064.02 114.429L1075.26 114.218Z"/><path fill="#FBFBFB" d="M949.723 873.939C949.492 886.273 949.696 899.393 949.686 911.786C937.154 911.918 924.621 911.91 912.089 911.76C911.805 899.176 911.767 886.588 911.977 874.003C924.447 873.819 937.218 873.977 949.723 873.939Z"/><path fill="#FBFBFB" d="M1025.87 1064.1C1038.56 1063.96 1051.25 1063.97 1063.93 1064.14C1063.22 1075.08 1064.78 1091.53 1063.52 1101.56C1051.08 1101.87 1038.62 1101.9 1026.18 1101.65C1025.18 1092.41 1025.8 1073.96 1025.87 1064.1Z"/><path fill="#FBFBFB" d="M310.295 38.2693C314.607 37.6678 337.298 38.1303 341.966 38.4148C341.986 43.843 342.421 71.5278 341.577 75.1494C339.706 76.3815 339.194 75.9555 336.535 76.0757C326.017 76.3428 314.854 76.0539 304.288 75.9479C304.179 66.3255 303.708 48.1439 304.553 38.9176C305.953 38.0228 308.35 38.3093 310.295 38.2693Z"/><path fill="#FBFBFB" d="M114.387 1139.94L151.904 1139.84C151.969 1152.25 152.234 1165.29 151.787 1177.64C139.203 1178.06 126.608 1178.04 114.025 1177.6C113.892 1166.77 113.373 1150.41 114.387 1139.94Z"/><path fill="#FBFBFB" d="M190.082 759.999C200.133 759.967 218.709 759.367 228.077 760.234L228.03 797.749C215.401 797.968 202.768 797.955 190.139 797.709C189.552 786.079 189.97 771.831 190.082 759.999Z"/><path fill="#FBFBFB" d="M721.896 949.786L721.746 987.688C709.152 987.954 696.553 987.979 683.958 987.763L683.94 950.006C696.591 949.861 709.243 949.787 721.896 949.786Z"/><path fill="#FBFBFB" d="M228.09 570.099C240.723 569.951 253.358 569.945 265.992 570.081L266.04 607.914L228.329 607.938C228.166 595.326 228.087 582.712 228.09 570.099Z"/><path fill="#FBFBFB" d="M1025.88 456.301L1063.8 456.32C1063.77 468.172 1063.34 482.425 1063.8 493.982C1051.63 493.983 1038.11 493.723 1026.03 494.015C1025.51 482.625 1025.62 467.829 1025.88 456.301Z"/><path fill="#FBFBFB" d="M911.996 190.419L949.73 190.358C949.481 202.606 949.68 215.786 949.666 228.098C937.106 228.268 924.544 228.274 911.984 228.115C911.346 216.724 911.868 202.02 911.996 190.419Z"/><path fill="#FBFBFB" d="M190.082 836.069C201.107 835.889 217.363 835.352 228.05 836.289L228.001 873.801C215.422 873.917 202.843 873.88 190.266 873.69C189.653 861.865 190.009 848.016 190.082 836.069Z"/><path fill="#FBFBFB" d="M683.958 987.763C683.543 999.875 683.852 1013.44 683.866 1025.66C671.267 1025.92 658.663 1025.93 646.063 1025.68L646.031 988.131C658.636 987.88 671.345 987.856 683.958 987.763Z"/><path fill="#FBFBFB" d="M113.958 988.142C126.601 987.936 139.245 987.892 151.889 988.012L151.969 1025.78C140.607 1025.86 124.822 1025.28 113.945 1025.72C113.969 1013.28 114.133 1000.56 113.958 988.142Z"/><path fill="#FBFBFB" d="M873.816 1064.15C886.46 1063.97 899.107 1063.97 911.751 1064.18L911.731 1101.62C899.519 1102.14 886.113 1101.92 873.882 1101.77C873.582 1089.41 873.786 1076.55 873.816 1064.15Z"/><path fill="#FBFBFB" d="M337.236 949.991C339.757 949.839 339.778 949.419 341.604 950.44C342.583 953.369 341.903 982.752 341.877 987.726C330.885 988.048 319.476 987.891 308.449 987.881C306.607 987.918 306.628 988.007 304.919 987.408C303.432 984.295 304.237 955.355 304.287 949.997L337.236 949.991Z"/><path fill="#FBFBFB" d="M114.013 911.974C126.611 912.043 139.21 912.045 151.808 911.979C151.987 924.588 152.017 937.2 151.896 949.811C139.245 949.881 126.593 949.87 113.942 949.779L114.013 911.974Z"/><path fill="#FBFBFB" d="M1064.92 874.097C1077.16 873.891 1089.4 873.869 1101.64 874.031C1101.7 881.494 1102.27 905.863 1101.34 911.798C1088.94 911.937 1076.55 911.928 1064.15 911.77C1064.06 906.994 1063.03 876.967 1064.92 874.097Z"/><path fill="#FBFBFB" d="M266.079 228.375C278.694 228.3 291.31 228.295 303.925 228.361C304.218 240.565 303.994 253.915 304.003 266.196C292.412 266.306 277.443 266.77 266.053 266.05L266.079 228.375Z"/><path fill="#FBFBFB" d="M266.1 760.182C278.725 760.208 291.349 760.14 303.973 759.978C303.983 772.572 304.271 785.326 304.206 797.862L266.172 797.823C266.01 785.277 265.986 772.729 266.1 760.182Z"/><path fill="#FBFBFB" d="M190.127 152.367C202.761 152.205 215.396 152.206 228.031 152.371L228.063 190.014C216.678 190.713 201.787 190.249 190.127 190.103L190.127 152.367Z"/><path fill="#FBFBFB" d="M38.0497 988.154C50.678 987.919 63.3091 987.872 75.9388 988.014L75.9548 1025.72C63.1322 1025.82 50.9715 1025.9 38.1326 1025.61C37.7407 1013.58 38.0331 1000.28 38.0497 988.154Z"/><path fill="#FBFBFB" d="M1064.06 949.941C1076.35 949.611 1089.34 949.787 1101.67 949.756L1101.67 987.797C1089.17 987.944 1076.66 987.944 1064.16 987.796C1063.86 975.18 1063.83 962.559 1064.06 949.941Z"/><path fill="#FBFBFB" d="M342.069 1064.1L379.929 1064L380.126 1101.65C367.454 1101.89 354.78 1101.85 342.11 1101.55L342.069 1064.1Z"/><path fill="#FBFBFB" d="M304.206 797.862C316.793 797.96 329.38 797.969 341.966 797.888L341.933 835.848C330.087 836.091 316.206 836.255 304.291 835.847C304.132 823.186 304.104 810.524 304.206 797.862Z"/><path fill="#FBFBFB" d="M228.263 114.411C240.784 114.202 253.307 114.151 265.83 114.258C265.769 123.499 266.815 144.071 265.525 152.152L228.153 152.143C228.209 139.552 227.917 127.01 228.263 114.411Z"/><path fill="#FBFBFB" d="M304.226 418.413C316.794 418.298 329.363 418.275 341.931 418.344L342.075 456.187L304.208 456.216L304.226 418.413Z"/><path fill="#FBFBFB" d="M228.128 1025.94L266.01 1025.92C265.674 1038.03 265.992 1051.42 265.996 1063.64C253.433 1063.91 240.866 1063.91 228.303 1063.65C227.802 1051.72 228.123 1038.01 228.128 1025.94Z"/><path fill="#FBFBFB" d="M228.13 494.235C240.697 494.116 253.265 494.111 265.832 494.221C265.968 506.798 266.019 519.375 265.984 531.952L228.263 531.986C227.692 520.891 228.129 505.656 228.13 494.235Z"/><path fill="#FBFBFB" d="M1064.2 418.487C1076.67 418.327 1089.15 418.273 1101.63 418.323C1101.72 430.909 1101.7 443.496 1101.58 456.083C1089.24 456.315 1076.48 456.158 1064.11 456.164C1063.64 445.351 1063.6 429.139 1064.2 418.487Z"/><path fill="#FBFBFB" d="M234.057 418.511C243.151 417.894 256.491 418.298 265.9 418.304C265.905 424.905 266.767 450.915 265.435 455.515C264.01 456.436 262.186 456.151 260.383 456.137L228.115 456.168C228.187 443.624 228.185 431.079 228.109 418.534L234.057 418.511Z"/><path fill="#FBFBFB" d="M304.266 266.342C316.783 266.325 329.385 266.229 341.895 266.361L341.968 304.208L304.219 304.278L304.266 266.342Z"/><path fill="#FBFBFB" d="M266.093 912.054L304.003 912.034L304.003 949.717C292.862 950.349 277.374 950.025 266.186 949.656C265.764 937.633 266.074 924.18 266.093 912.054Z"/><path fill="#FBFBFB" d="M1064.1 1025.85L1101.63 1025.84C1101.49 1037.88 1102.42 1051.78 1101.43 1063.64C1089.6 1064.24 1076.1 1063.77 1064.08 1063.7C1063.63 1052.09 1063.88 1037.45 1064.1 1025.85Z"/><path fill="#FBFBFB" d="M228.09 646.061L265.926 646.013C265.767 658.649 266.102 670.968 265.841 683.766C255.083 683.905 238.662 684.315 228.215 683.493C227.888 671.558 228.119 658.092 228.09 646.061Z"/><path fill="#FBFBFB" d="M342.025 836.123L380.142 836.108L379.929 873.856C367.343 873.999 354.755 873.958 342.169 873.733C341.849 861.388 342.026 848.508 342.025 836.123Z"/><path fill="#FBFBFB" d="M494.219 152.371C506.792 152.318 519.365 152.345 531.938 152.451L531.943 190.212C519.334 190.382 506.724 190.343 494.116 190.093L494.219 152.371Z"/><path fill="#FBFBFB" d="M242.016 342.585C249.324 342.161 258.439 342.356 265.886 342.352C266.054 354.953 266.047 367.556 265.864 380.156L251.351 380.213L228.293 380.197C227.994 367.953 228.116 354.877 228.071 342.591L242.016 342.585Z"/><path fill="#FBFBFB" d="M380.132 797.824C392.362 797.937 405.914 797.477 417.892 798.265L417.892 835.889C405.359 836.073 392.824 836.058 380.292 835.844C380.228 823.484 380.458 810.04 380.132 797.824Z"/><path fill="#FBFBFB" d="M304.2 342.35L341.914 342.362C341.925 354.593 341.643 368.06 341.979 380.16L304.213 380.21L304.2 342.35Z"/><path fill="#FBFBFB" d="M190.153 912.06L228.077 912.034L228.017 949.719C215.414 950.011 202.805 949.995 190.202 949.67C189.778 938.126 190.143 923.807 190.153 912.06Z"/><path fill="#FBFBFB" d="M1064 722.025L1101.64 722C1101.66 733.687 1101.27 748.377 1101.88 759.826C1089.65 759.831 1076.22 759.586 1064.08 759.866C1063.92 747.253 1063.9 734.638 1064 722.025Z"/><path fill="#FBFBFB" d="M76.0323 1101.85L113.854 1101.85L113.894 1139.68C102.202 1139.95 87.8327 1140.05 76.2381 1139.61C76.3044 1127.02 76.2358 1114.43 76.0323 1101.85Z"/><path fill="#FBFBFB" d="M228.13 190.404L265.94 190.413C266.044 200.226 266.521 218.47 265.782 228.077C253.227 228.185 240.672 228.185 228.117 228.077L228.13 190.404Z"/><path fill="#FBFBFB" d="M228.116 1101.91C240.317 1101.64 253.608 1101.86 265.885 1101.85L266.018 1139.74C253.451 1139.83 240.884 1139.83 228.317 1139.72C227.868 1127.51 228.176 1114.25 228.116 1101.91Z"/><path fill="#FBFBFB" d="M266.053 1140.09L304.003 1139.84L304.003 1177.65C291.437 1177.79 278.869 1177.81 266.302 1177.71C265.778 1165.65 266.05 1152.25 266.053 1140.09Z"/><path fill="#FBFBFB" d="M113.942 949.779C113.396 960.408 113.826 976.779 113.805 987.757C101.678 987.941 88.2946 988.093 76.2381 987.728L76.2381 949.997C88.8065 950.006 101.375 949.933 113.942 949.779Z"/><path fill="#FBFBFB" d="M152.164 1101.85L189.977 1101.85C189.879 1114.49 189.859 1127.13 189.919 1139.77C177.334 1139.89 164.748 1139.86 152.164 1139.66L152.164 1101.85Z"/><path fill="#FBFBFB" d="M570.075 1064.18C582.707 1064.02 595.339 1063.98 607.971 1064.06L607.983 1101.58C595.337 1101.78 582.69 1101.81 570.044 1101.67L570.075 1064.18Z"/><path fill="#FBFBFB" d="M417.95 1064.1L455.848 1063.92L455.855 1101.58C443.283 1101.93 430.705 1101.93 418.134 1101.57C417.608 1089.58 417.915 1076.2 417.95 1064.1Z"/><path fill="#FBFBFB" d="M228.09 874.253C240.391 873.854 253.668 874.082 266.04 874.071L265.913 911.74C253.365 911.891 240.816 911.942 228.267 911.892C228.095 899.346 228.036 886.799 228.09 874.253Z"/><path fill="#FBFBFB" d="M304.237 1102.09C316.437 1101.62 329.654 1101.85 341.932 1101.85L341.95 1139.76L304.302 1139.74C304.125 1127.19 304.104 1114.64 304.237 1102.09Z"/><path fill="#FBFBFB" d="M404.277 949.991C408.113 949.607 413.883 949.759 417.892 949.754L417.892 987.743C409.883 987.845 401.874 987.89 393.865 987.88C389.317 987.893 384.769 987.825 380.223 987.674L380.171 949.997L404.277 949.991Z"/><path fill="#FBFBFB" d="M304.307 114.43C316.858 114.18 329.413 114.124 341.966 114.261L341.91 152.001C329.636 152.36 316.66 152.133 304.334 152.108C304.106 139.549 304.097 126.988 304.307 114.43Z"/><path fill="#FBFBFB" d="M342.148 912.138C354.35 911.795 367.645 912.063 379.929 912.069L379.929 949.763C367.386 950.141 354.762 949.862 342.209 949.695C342.078 937.177 342.057 924.657 342.148 912.138Z"/><path fill="#FBFBFB" d="M380.24 1177.95C392.79 1177.85 405.342 1177.87 417.892 1178.02L417.865 1215.7L380.211 1215.72C380.032 1203.34 380.221 1190.38 380.24 1177.95Z"/><path fill="#FBFBFB" d="M228.09 1177.94C240.697 1177.88 253.304 1177.89 265.911 1177.99C266.086 1190.57 266.075 1203.15 265.877 1215.72L228.351 1215.72C227.794 1204.12 228.113 1189.8 228.09 1177.94Z"/><path fill="#FBFBFB" d="M342.01 1140.07C354.649 1139.97 367.289 1139.93 379.929 1139.96L379.929 1177.58C367.886 1178.08 354.325 1177.75 342.182 1177.7C341.882 1165.45 342.064 1152.41 342.01 1140.07Z"/><path fill="#FBFBFB" d="M1064.15 342.474L1101.64 342.337L1101.66 380.164C1089.15 380.246 1076.63 380.254 1064.12 380.187C1063.86 367.617 1063.86 355.043 1064.15 342.474Z"/><path fill="#FBFBFB" d="M304.255 190.426C316.68 190.234 329.51 190.416 341.966 190.433L341.886 228.077L304.107 228.077C304.358 215.78 304.215 202.769 304.255 190.426Z"/><path fill="#FBFBFB" d="M304.191 874.071L341.874 874.071C342.053 886.59 341.948 899.33 341.966 911.867C329.411 911.951 316.856 911.914 304.302 911.756C304.142 899.195 304.106 886.633 304.191 874.071Z"/><path fill="#FBFBFB" d="M494.172 988.05C506.708 987.892 519.245 987.918 531.78 988.129L531.78 1025.69C519.262 1025.98 506.739 1025.97 494.221 1025.67C493.929 1013.27 494.128 1000.48 494.172 988.05Z"/><path fill="#FBFBFB" d="M1064.02 494.209C1074.25 494.158 1091.88 493.608 1101.58 494.464C1101.69 506.958 1101.73 519.451 1101.69 531.945L1064.13 531.889C1063.88 519.331 1063.84 506.769 1064.02 494.209Z"/><path fill="#FBFBFB" d="M380.193 874.308C392.444 873.868 405.574 874.079 417.892 874.071L417.878 911.934C406.337 911.512 392.124 911.928 380.261 911.797C379.987 899.55 380.195 886.609 380.193 874.308Z"/><path fill="#FBFBFB" d="M190.127 988.107C200.976 987.62 217.217 987.78 228.074 988.177L228.046 1025.71C215.415 1025.99 202.78 1025.95 190.151 1025.6L190.127 988.107Z"/><path fill="#FBFBFB" d="M494.152 1064.08L531.78 1063.89L531.78 1101.62C520.102 1102.04 505.792 1101.91 494.167 1101.58C494.088 1089.08 494.083 1076.58 494.152 1064.08Z"/><path fill="#FBFBFB" d="M190.127 1140.06C202.765 1139.88 215.405 1139.85 228.044 1139.97L228.066 1177.62C215.42 1177.78 202.773 1177.8 190.127 1177.68L190.127 1140.06Z"/><path fill="#FBFBFB" d="M266.053 1064.11C278.702 1064.01 291.353 1063.98 304.003 1064.02L304.003 1101.57C291.355 1101.87 278.702 1101.93 266.053 1101.72L266.053 1064.11Z"/><path fill="#FBFBFB" d="M380.181 1026.07C392.339 1025.68 405.649 1025.93 417.892 1025.92L417.892 1063.67C405.339 1063.89 392.783 1063.89 380.229 1063.66L380.181 1026.07Z"/></svg>