<?xml version="1.0" encoding="utf-8" ?><svg xmlns="http://www.w3.org/2000/svg" xmlns:xlink="http://www.w3.org/1999/xlink" width="1254" height="1254" viewBox="0 0 1254 1254"><path fill="#FCFCFC" d="M0 0L1254 0L1254 1254L0 1254L0 0Z"/><path fill="#004051" d="M541.863 704.763C543.313 704.637 544.77 704.638 546.219 704.766C551.602 705.288 555.452 709.311 555.716 714.651C556.548 729.432 555.715 744.411 555.993 759.209C556.35 778.242 555.239 795.697 551.959 814.427C572.428 826.715 595.581 838.994 617.97 847.231C628.722 851.187 639.782 846.021 649.607 841.639C667.314 833.742 684.285 824.121 701.226 814.642L701.008 813.543C696.592 791.038 697.175 767.485 697.164 744.642C697.161 737.959 696.045 713.784 699.204 709.405C701.112 706.784 704.002 705.048 707.212 704.595C712.434 703.86 719.043 708.534 719.233 713.974C720.279 743.893 717.921 773.401 721.567 803.239C727.715 799.651 733.99 796.286 740.381 793.151C770.941 778.212 809.199 766.076 842.97 777.269C871.971 786.882 893.215 817.425 882.289 847.868C873.292 872.938 839.627 890.846 816.356 901.633C792.837 912.605 768.486 921.697 743.53 928.822C660.975 953.096 585.312 952.135 503.248 926.826C473.731 917.722 445.265 906.877 418.06 892.073C398.838 881.248 376.062 866.752 369.858 844.249C361.212 812.889 385.282 783.29 414.903 775.78C453.746 765.932 498.412 783.96 531.734 803.167C535.223 777.872 533.243 751.542 533.727 726.068C533.921 715.855 531.752 710.256 541.863 704.763Z"/><path fill="#FCFCFC" d="M431.019 795.612C467.2 791.181 513.191 818.458 543.658 835.532C557.421 843.41 571.412 850.885 585.612 857.946C619.918 874.745 629.599 875.864 664.429 859.589C703.915 841.376 738.31 814.827 780.068 801.435C804.956 793.454 840.466 789.565 857.714 814.754C872.373 836.162 855.921 851.973 838.798 863.656C797.927 890.412 737.713 909.213 689.992 918.104C617.134 931.678 545.991 920.117 477.199 894.201C453.672 885.239 431.602 875.587 410.859 861.084C393.627 849.035 381.647 832.593 397.127 812.622C405.556 801.747 417.635 797.255 431.019 795.612Z"/><path fill="#004051" d="M609.515 268.444C611.608 268.227 615.295 268.203 617.494 268.146C701.374 266.089 782.578 297.744 842.936 356.027C903.84 413.728 939.367 493.233 941.72 577.097C943.158 631.936 930.237 686.199 904.24 734.506C899.569 743.373 894.143 753.78 887.706 761.469C883.614 766.358 875.647 765.661 871.615 760.867C870.989 760.12 870.49 759.276 870.136 758.369C869.082 755.672 869.426 750.854 870.848 748.482C882.011 729.859 891.986 711.95 899.874 691.532C910.403 664.961 916.881 636.958 919.093 608.463C925.329 534.382 899.964 454.166 851.721 397.55C797.221 333.592 727.161 297.767 643.682 290.975C607.341 289.212 570.989 294.204 536.468 305.698C461.22 330.815 399.06 384.845 363.708 455.862C326.892 529.753 323.245 615.817 353.677 692.559C358.979 705.627 365.081 718.356 371.95 730.673C375.814 737.682 380.132 742.821 383.329 750.56C387.916 761.667 373.734 768.395 366.587 762.664C362.519 759.402 356.336 747.783 353.461 742.688C330.069 702.064 315.96 656.765 312.147 610.043C305.882 526.71 332.817 444.28 387.081 380.725C443.02 314.795 523.25 274.296 609.515 268.444Z"/><path fill="#004051" d="M620.081 399.317C665.247 395.774 704.689 429.616 708.052 474.795C711.414 519.975 677.416 559.282 632.224 562.465C587.285 565.63 548.246 531.864 544.902 486.938C541.558 442.012 575.169 402.839 620.081 399.317Z"/><path fill="#FCFCFC" d="M619.165 421.802C651.677 417.784 681.31 440.829 685.421 473.329C689.533 505.829 666.573 535.528 634.085 539.733C601.464 543.955 571.618 520.881 567.489 488.249C563.361 455.616 586.521 425.836 619.165 421.802Z"/><path fill="#004051" d="M588.642 585.621C588.881 585.61 589.121 585.6 589.36 585.589C641.512 586.691 703.775 575.574 738.18 625.529C752.656 646.547 757.054 669.004 765.995 692.303C777.036 721.073 811.253 717.375 835.032 710.085C840.848 708.302 846.597 704.452 852.834 704.304C862.202 703.341 867.88 718.438 860.036 723.319C842.219 734.407 815.612 738.781 795.724 737.244C734.367 732.502 746.608 671.024 716.679 634.219C704.169 618.835 685.389 611.148 665.724 609.311C654.239 607.797 635.149 607.94 623.344 607.937C606.305 607.934 588.292 607.16 571.627 610.461C537.216 616.401 523.492 650.444 514.595 680.315C506.43 707.727 497.496 729.817 466.181 736.073C446.511 740.002 427.556 736.741 408.509 730.554C398.575 727.328 381.983 721.444 392.463 708.247C398.378 700.873 408.164 706.194 415.488 708.871C434.875 715.956 464.033 720.701 480.109 704.105C486.896 697.099 490.844 682.162 493.917 672.743C500.686 652.002 507.788 630.658 522.504 613.935C540.471 593.684 562.624 587.333 588.642 585.621Z"/></svg>