<?xml version="1.0" encoding="utf-8" ?><svg xmlns="http://www.w3.org/2000/svg" xmlns:xlink="http://www.w3.org/1999/xlink" width="1254" height="1254" viewBox="0 0 1254 1254"><path fill="#F8F8F8" d="M0 0L1254 0L1254 1254L0 1254L0 0Z"/><path fill="#003649" d="M664.161 298.866C679.482 281.709 695.024 266.952 712.78 253.257C761.214 215.9 777.121 251.573 778.736 298.093C779.675 325.124 776.803 345.199 772.277 371.64C779.604 390.175 782.032 405.136 783.8 424.693C793.237 422.877 832.503 413.358 835.455 425.862C838.343 438.098 819.036 437.18 811.345 438.037C802.013 439.105 792.729 440.563 783.518 442.405C782.506 452.799 781.221 459.061 778.702 469.051C791.854 470.503 837.401 475.998 845.453 484.522C846.994 486.153 847.962 488.235 847.636 490.528C847.315 492.791 845.87 495.163 844.013 496.489C841.849 498.035 839.501 498 836.974 497.638C830.047 496.646 823.253 493.869 816.351 492.445C801.912 489.466 787.609 487.782 772.996 486.022C763.461 506.437 757.022 515.533 741.493 531.54C747.738 554.742 762.163 556.319 781.194 565.565C828.094 588.353 870.085 623.872 893.439 671.183C926.555 737.998 918.678 837.697 849.847 879.095C845.172 881.906 839.269 880.374 837.156 875.337C834.515 869.041 839.437 864.928 843.955 861.855C896.271 826.273 904.541 752.866 884.914 696.915C863.805 636.744 810.858 597.307 754.288 572.93C737.404 565.73 721.492 544.613 724.384 525.736C725.503 522.648 728.773 519.215 730.942 516.958C740.234 507.286 747.57 497.363 753.524 485.323C748.193 485.12 737.781 486.702 733.716 483.055C729.199 479.002 731.209 469.805 738.038 468.847C745.535 467.795 753.098 468.226 760.71 468.297C763.124 461.23 764.285 453.644 765.583 446.289C758.096 448.049 740.677 456.107 738.984 443.447C737.567 432.846 758.556 430.488 766.28 428.7C765.79 416.155 763.761 403.717 760.24 391.667C758.849 386.9 754.588 377.267 754.552 373.222C754.488 365.817 757.064 356.148 758.053 348.398C759.912 333.838 761.624 318.374 761.064 303.518C760.582 293.21 759.191 265.372 751.489 258.309C742.519 250.084 723.005 268.199 715.709 273.97C707.695 280.308 697.934 290.192 690.384 297.59C684.353 303.5 677.696 311.801 670.876 316.897C667.172 319.664 656.836 315.643 652.631 314.689C646.971 313.35 640.662 311.439 634.6 310.525C607.593 306.319 580.058 306.899 553.252 312.238C518.174 318.917 531.313 326.528 503.777 298.468C496.226 290.796 488.447 283.35 480.452 276.142C472.956 269.515 459.659 256.962 449.143 256.21C446.604 256.028 444.372 256.73 442.502 258.477C429.501 270.629 432.94 328.015 435.138 345.448C436.259 354.334 439.836 364.862 439.104 373.692C438.582 379.994 434.558 386.97 432.693 393.082C429.161 404.657 427.436 416.79 426.787 428.844C433.757 430.376 455.368 434.857 457.243 440.085C464.542 460.442 431.747 447.601 427.628 446.461C428.212 454.205 430.292 462.232 432.078 469.813C439.046 470.039 459.423 468.905 462.285 473.131C474.733 491.512 441.421 486.953 438.597 486.984C442.113 494.676 445.316 500.197 449.722 507.249C452.945 506.764 457.737 506.351 461.395 505.561C469.712 503.765 483.558 506.346 476.032 517.874C473.312 522.04 466.866 522.308 461.901 522.741C464.616 525.807 467.684 528.539 470.484 531.521C472.162 533.307 474.198 535.811 474.595 538.327C475.471 543.864 467.856 559.686 465.848 565.4C460.759 579.878 456.56 594.951 454.037 610.1C447.783 647.66 453.735 684.55 468.61 719.395C476.639 738.201 485.427 756.664 489.799 776.767C495.294 802.037 493.25 829.811 493.186 855.608C493.154 868.478 493.786 881.57 493.267 894.401C492.836 905.058 485.739 906.459 479.08 912.868C474.892 916.899 471.289 922.633 471.215 928.611C471.179 931.533 472.347 937.322 474.804 939.166C479.949 943.027 522.165 941.34 531.098 941.261C526.515 916.534 535.688 894.497 558.338 882.672C557.516 836.037 558.7 788.633 558.156 741.951C558.112 738.182 558.074 734.991 560.996 732.347C562.833 730.703 565.256 729.873 567.715 730.046C579.273 730.777 575.608 752.964 575.561 761.368L575.563 806.217L575.625 859.019C575.631 868.171 575.743 877.298 575.44 886.513C575.137 896.644 565.894 897.902 558.486 904.145C549.434 911.084 543.125 929.416 550.205 939.23C553.136 943.293 566.276 939.265 570.275 945.27C573.95 950.507 569.588 958.689 562.96 958.7C533.722 958.748 504.25 959.476 475.047 958.427C469.717 958.235 462.013 952.97 459.402 948.372C447.586 927.559 456.705 905.685 475.326 892.923C475.61 875.824 475.39 857.805 475.348 840.659C475.298 820.544 476.526 797.079 471.827 777.76C467.94 761.778 459.838 744.396 453.245 729.141C424.865 663.474 429.197 606.867 455.915 541.832C451.119 537.171 446.372 531.569 441.907 526.526C420.932 530.973 401.734 537.835 381.812 545.613C378.15 547.043 374.353 549.242 370.489 547.343C368.533 546.382 366.411 544.173 365.835 542.029C365.267 539.916 365.64 538.186 366.778 536.371C373.002 526.437 418.723 514.174 431.207 510.865C426.518 503.143 423.38 496.12 419.898 487.892C406.453 488.715 392.903 490.725 379.714 493.443C372.278 494.975 364.457 497.414 356.955 498.242C354.913 498.467 353.286 498.17 351.568 496.97C349.716 495.677 348.031 493.153 347.8 490.872C347.597 488.869 348.15 487.141 349.394 485.587C356.24 477.038 402.164 471.854 414.12 470.878C411.688 460.431 410.711 453.392 409.527 442.882C397.088 440.408 384.358 438.74 371.164 437.348C362.215 438.37 355.958 426.169 363.819 421.658C371.557 417.217 401.77 423.791 409.489 425.32C409.871 406.466 415.402 389.205 421.348 371.613C419.914 365.155 418.315 355.567 417.786 349.008C415.496 320.669 406.421 241.79 446.793 237.793C455.926 238.207 462.739 240.671 470.383 245.586C492.687 259.927 512.067 280.333 530.013 299.496C573.264 285.663 620.743 287.282 664.161 298.866Z"/><path fill="#003649" d="M938.094 858.569C950.347 858.011 951.676 869.423 945.219 874.612C924.501 891.263 903.467 910.271 882.428 926.218C838.517 959.501 785.148 957.933 733.107 954.003C688.053 950.601 649.95 958.072 612.139 984.154C571.15 1012.06 533.084 1022.91 482.975 1014.76C482.09 1014.56 481.209 1014.34 480.332 1014.11C470.265 1011.4 469.861 998.227 479.497 996.532C482.322 996.035 493.208 998.237 497.052 998.569C512.862 999.933 528.582 999.993 544.118 996.153C589.291 984.763 613.311 954.957 659.441 941.685C720.227 923.341 786.735 952.25 846.201 926.196C881.583 910.693 906.036 879.971 937.503 858.858C937.7 858.762 937.897 858.665 938.094 858.569Z"/><path fill="#003649" d="M700.763 713.456C701.222 713.397 701.681 713.344 702.141 713.298C711.234 712.411 716.49 720.525 710.128 727.777C708.505 729.627 703.294 732.326 700.988 733.87C696.698 736.731 692.664 739.959 688.933 743.518C660.37 770.894 655.693 812.741 665.074 849.567C667.058 857.355 670.32 866.639 671.748 874.24C673.254 882.249 657.321 885.713 651.255 888.895C646.912 891.188 642.92 894.091 639.399 897.515C632.005 904.701 628.716 913.661 627.456 923.727C626.742 929.434 627.289 932.077 622.928 936.131C618.157 937.85 612.745 937.657 610.623 932.285C607.53 924.457 611.032 911.516 614.158 904.118C621.478 886.797 634.706 876.021 651.855 869.084C642.557 835.96 638.298 804.168 650.538 771.101C660.476 744.253 676.126 727.222 700.763 713.456Z"/><path fill="#003649" d="M583.641 456.972C591.619 456.731 599.61 456.675 607.607 456.719C614.897 456.759 623.331 460.015 621.989 468.799C620.472 478.728 613.783 484.936 606.359 490.837C606.27 497.094 606.118 503.136 606.479 509.395C612.242 518.479 620.62 522.738 631.081 518.091C635.861 515.967 647.254 506.205 650.722 514.86C655.226 526.097 643.86 532.136 635.018 535.169C625.317 538.362 615.342 537.392 606.238 532.785C602.539 530.393 601.313 529.39 598.05 526.449C584.615 538.328 569.24 540.358 553.264 532.123C537.084 523.783 544.248 502.935 561.037 515.824C571.014 523.483 582.902 520.216 589.303 509.097L589.226 490.683C579.287 482.915 562.356 461.829 583.641 456.972Z"/><path fill="#003649" d="M676.367 411.727C677.362 411.737 678.357 411.768 679.351 411.82C688.127 412.305 697.339 415.966 703.452 422.475C706.219 425.422 709.081 433.386 703.975 435.706C693.98 440.247 690.359 430.735 680.109 428.862L679.332 428.728C667.541 428.71 667.174 433.933 658.081 436.656C649.927 439.099 643.582 429.682 651.338 422.327C659.35 414.729 665.854 412.501 676.367 411.727Z"/><path fill="#003649" d="M512.697 412.195C519.605 411.666 524.577 411.826 531.266 413.909C538.451 416.147 551.063 424.28 547.123 433.341C546.468 434.881 545.205 436.081 543.633 436.655C536.157 439.464 531.643 432.14 524.96 429.571C513.613 427.723 510.33 431.215 500.517 436.126C492.171 440.302 486.871 430.512 491.061 424.247C495.503 417.608 504.842 413.717 512.697 412.195Z"/></svg>