<?xml version="1.0" encoding="utf-8" ?><svg xmlns="http://www.w3.org/2000/svg" xmlns:xlink="http://www.w3.org/1999/xlink" width="1254" height="1254" viewBox="0 0 1254 1254"><path fill="#F5F5F4" d="M0 0L42.0979 0L83.7258 0L125.599 0L167.288 0L209.043 0L250.952 0L292.748 0L334.471 0L376.338 0L418.155 0L459.92 0L501.713 0L543.694 0L585.245 0L627.017 0L668.955 0L710.562 0L752.444 0L794.232 0L835.906 0L877.949 0L919.548 0L961.48 0L1003.16 0L1044.75 0L1086.75 0L1128.49 0L1170.31 0L1212.15 0L1254 0L1254 41.9742L1254 83.9368L1254 125.426L1254 167.231L1254 209.117L1254 251.099L1254 292.644L1254 334.578L1254 376.276L1254 418.285L1254 459.816L1254 501.79L1254 543.521L1254 585.371L1254 626.97L1254 669.13L1254 710.842L1254 752.503L1254 794.132L1254 835.875L1254 877.985L1254 919.622L1254 961.35L1254 1003.24L1254 1044.87L1254 1086.89L1254 1128.51L1254 1170.21L1254 1212.06L1254 1254L1212.02 1254L1170.28 1254L1128.46 1254L1086.88 1254L1044.92 1254L1003.19 1254L961.316 1254L919.59 1254L877.825 1254L835.882 1254L794.125 1254L752.559 1254L710.423 1254L668.913 1254L627.105 1254L585.372 1254L543.598 1254L501.697 1254L459.762 1254L418.158 1254L376.468 1254L334.499 1254L292.609 1254L251.047 1254L209.188 1254L167.29 1254L125.467 1254L83.8618 1254L41.8 1254L0 1254L0 1212.28L0 1170.13L0 1128.51L0 1086.71L0 1045.07L0 1003.18L0 961.355L0 919.484L0 877.999L0 836.09L0 794.245L0 752.4L0 710.83L0 668.741L0 627.138L0 585.224L0 543.718L0 501.626L0 459.917L0 418.215L0 376.539L0 334.444L0 292.717L0 250.825L0 209.375L0 167.171L0 125.481L0 83.6955L0 42.0394L0 0Z"/><path fill="#FCFCFC" d="M1212.27 125.423L1212.07 167.134L1170.23 167.107C1170.27 179.68 1170.8 196.618 1170.15 208.829C1156.48 208.918 1142.21 209.213 1128.58 208.861L1128.48 167.208C1138.55 168.006 1159.65 167.323 1170.32 167.268L1170.39 125.601C1184.12 125.603 1198.6 125.832 1212.27 125.423Z"/><path fill="#FCFCFC" d="M1128.55 1170.32L1170.29 1170.27L1170.32 1211.77L1128.43 1211.8L1128.46 1254L1086.88 1254L1086.92 1212.29L1128.56 1212.04L1128.55 1170.32Z"/><path fill="#FCFCFC" d="M1045.02 84.0053L1086.77 83.9669C1086.68 97.7885 1086.7 111.611 1086.85 125.432C1072.92 125.264 1058.88 125.58 1044.99 125.274C1044.94 138.406 1044.5 154.19 1044.95 167.119C1031.1 167.139 1017.13 167.253 1003.29 167.105C1003.11 153.273 1003.11 139.439 1003.27 125.606L1045.16 125.555C1044.86 114.274 1044.3 95.2594 1045.02 84.0053Z"/><path fill="#FCFCFC" d="M0 627.138L41.8632 627.11C41.7454 640.702 41.6431 655.69 41.9002 669.281L83.7499 669.19C83.7392 682.809 83.9522 697.161 83.6839 710.72L42.1591 710.73C42.0264 697.533 41.64 682.108 41.9985 669.002C28.3617 668.383 13.7889 669.018 0 668.741L0 627.138Z"/><path fill="#FCFCFC" d="M0 1128.51C13.9974 1128.66 27.9959 1128.68 41.9937 1128.58C41.6813 1141.45 41.4994 1157.46 42.0394 1170.36C55.9378 1170.2 69.8375 1170.22 83.7354 1170.42L83.7341 1211.78C69.7976 1211.98 55.9842 1211.73 42.129 1211.89C41.7402 1202.7 41.5527 1179.09 42.1401 1170.07L0 1170.13L0 1128.51Z"/><path fill="#FCFCFC" d="M501.777 1212.22L543.6 1212.25L543.598 1254L501.697 1254C501.619 1240.07 501.645 1226.15 501.777 1212.22Z"/><path fill="#FCFCFC" d="M1212.15 0L1254 0L1254 41.9742C1241.16 41.7273 1225.08 41.5034 1212.36 42.0008C1212.08 28.1553 1212.18 13.8695 1212.15 0Z"/><path fill="#FCFCFC" d="M334.672 1212.37C348.55 1212.1 362.431 1212.07 376.309 1212.28C376.335 1224.71 375.845 1241.94 376.468 1254L334.499 1254C334.394 1240.12 334.452 1226.24 334.672 1212.37Z"/><path fill="#FCFCFC" d="M1128.49 0L1170.31 0C1170.36 13.379 1170.8 28.4813 1170.19 41.7021C1156.5 41.9696 1142.31 41.7959 1128.58 41.8438C1128.31 28.147 1128.5 13.7413 1128.49 0Z"/><path fill="#FCFCFC" d="M836.037 1212.33C849.94 1212.1 863.845 1212.08 877.748 1212.29L877.825 1254L835.882 1254C835.917 1240.61 835.629 1225.59 836.037 1212.33Z"/><path fill="#FCFCFC" d="M627.017 0L668.955 0C668.773 13.9342 668.774 27.8701 668.957 41.8043C655.333 41.5552 640.831 41.8202 627.14 41.8383C626.838 28.1944 627.034 13.7016 627.017 0Z"/><path fill="#FCFCFC" d="M919.697 1212.32C933.329 1212.19 947.834 1211.82 961.39 1212.34C961.379 1226.13 961.507 1240.24 961.316 1254L919.59 1254C919.503 1240.11 919.539 1226.21 919.697 1212.32Z"/><path fill="#FCFCFC" d="M1170.39 1212.31C1184.28 1212.12 1198.18 1212.14 1212.07 1212.36C1212.13 1225.99 1212.43 1240.43 1212.02 1254L1170.28 1254C1170.3 1240.23 1170.17 1226.05 1170.39 1212.31Z"/><path fill="#FCFCFC" d="M459.92 0L501.713 0C501.774 13.9445 501.691 27.8892 501.465 41.8319C487.65 41.9266 473.835 41.8991 460.02 41.7493C459.718 28.1445 459.924 13.6706 459.92 0Z"/><path fill="#FCFCFC" d="M1044.75 0L1086.75 0L1086.78 41.808C1072.91 41.8772 1059.04 41.8512 1045.17 41.7299C1044.52 28.1892 1045.04 13.7401 1044.75 0Z"/><path fill="#FCFCFC" d="M2.17534e-15 1212.28C13.933 1212.18 27.8665 1212.2 41.7991 1212.35C41.8221 1225.61 42.2065 1240.91 41.8 1254L0 1254L0 1212.28L2.17534e-15 1212.28Z"/><path fill="#FCFCFC" d="M83.9123 1212.31C96.7482 1211.86 112.607 1211.85 125.466 1212.23L125.467 1254L83.8618 1254C83.736 1240.1 83.7529 1226.21 83.9123 1212.31Z"/><path fill="#FCFCFC" d="M0 292.717L41.894 292.766C41.575 305.157 41.5498 321.868 41.8769 334.387C27.9192 334.635 13.9584 334.654 0 334.444L0 292.717Z"/><path fill="#FCFCFC" d="M710.562 0L752.444 0L752.439 41.8073L710.962 41.7973C709.811 31.6786 710.493 10.8225 710.562 0Z"/><path fill="#FCFCFC" d="M167.304 1212.3C181.162 1212.21 195.021 1212.23 208.878 1212.36C209.449 1225.7 209.342 1240.58 209.188 1254L167.29 1254L167.304 1212.3Z"/><path fill="#FCFCFC" d="M0 459.917C13.7227 459.956 28.3295 459.753 41.9792 460.082C41.75 473.872 41.7057 487.664 41.8461 501.455C27.8988 501.704 13.9488 501.761 0 501.626L0 459.917Z"/><path fill="#FCFCFC" d="M1254 167.231L1254 209.117C1240.14 209.144 1226.28 209.088 1212.42 208.949C1211.68 197.113 1212.21 179.65 1212.24 167.323C1226.16 167.424 1240.08 167.393 1254 167.231Z"/><path fill="#FCFCFC" d="M292.748 0L334.471 0C334.094 13.3037 334.377 28.2534 334.334 41.7072C320.488 41.8521 306.642 41.86 292.796 41.7308C292.661 27.821 292.645 13.9102 292.748 0Z"/><path fill="#FCFCFC" d="M1086.82 167.223C1086.72 181.091 1086.72 194.96 1086.82 208.828C1073.56 209.333 1058.6 208.953 1045.17 208.879C1044.55 196.53 1044.55 179.667 1045.04 167.366C1058.97 167.465 1072.9 167.417 1086.82 167.223Z"/><path fill="#FCFCFC" d="M125.599 0L167.288 0C166.877 13.2782 167.176 28.3173 167.165 41.7303C153.309 41.8903 139.452 41.8899 125.597 41.7293C125.502 27.8197 125.502 13.9096 125.599 0Z"/><path fill="#FCFCFC" d="M0 961.355C13.9569 961.462 27.9143 961.473 41.8714 961.388C41.6684 975.242 41.693 989.098 41.9452 1002.95L0 1003.18L0 961.355Z"/><path fill="#FCFCFC" d="M209.043 0L250.952 0L250.887 41.7524C237.016 41.8314 223.145 41.8301 209.274 41.7486C208.762 28.8581 209.229 13.2477 209.043 0Z"/><path fill="#FCFCFC" d="M752.568 1212.31C766.228 1212.13 780.506 1211.79 794.109 1212.31L794.125 1254L752.559 1254C752.492 1240.11 752.495 1226.21 752.568 1212.31Z"/><path fill="#FCFCFC" d="M961.48 0L1003.16 0L1003.05 41.7635C989.207 41.9204 975.363 41.9451 961.519 41.8375C961.199 28.044 961.425 13.8261 961.48 0Z"/><path fill="#FCFCFC" d="M418.229 1212.25C431.782 1211.87 446.131 1212.16 459.745 1212.35L459.762 1254L418.158 1254C418.102 1240.08 418.126 1226.17 418.229 1212.25Z"/><path fill="#FCFCFC" d="M794.232 0L835.906 0L835.867 41.7782L794.314 41.828L794.232 0Z"/><path fill="#FCFCFC" d="M669.142 1212.25C682.27 1212.17 697.511 1211.71 710.475 1212.29C710.533 1225.7 710.91 1240.69 710.423 1254L668.913 1254C668.879 1240.26 668.666 1225.94 669.142 1212.25Z"/><path fill="#FCFCFC" d="M-4.35069e-15 209.375C13.9175 209.263 27.8357 209.265 41.7532 209.381C41.8152 222.679 41.4497 237.862 41.8287 250.926C28.1304 250.923 13.6321 251.129 0 250.825L0 209.375L-4.35069e-15 209.375Z"/><path fill="#FCFCFC" d="M1212.26 459.848C1211.64 472.302 1212.09 488.852 1212.07 501.586C1202.23 501.57 1178.97 502.435 1170.34 501.338C1170.44 487.579 1170.44 473.821 1170.35 460.063C1184.16 459.652 1198.31 460.256 1212.26 459.848Z"/><path fill="#FCFCFC" d="M251.069 1212.21C264.941 1212.16 278.713 1211.98 292.58 1212.34L292.609 1254L251.047 1254C250.969 1240.07 250.977 1226.14 251.069 1212.21Z"/><path fill="#FCFCFC" d="M1254 1170.21L1254 1212.06C1240.82 1211.56 1225.79 1212.02 1212.35 1211.85C1211.85 1199.09 1212.24 1183.32 1212.25 1170.36C1222.59 1171.06 1243 1170.28 1254 1170.21Z"/><path fill="#FCFCFC" d="M1003.18 1212.38C1017.22 1211.91 1030.87 1212.16 1044.92 1212.36L1044.92 1254L1003.19 1254L1003.18 1212.38Z"/><path fill="#FCFCFC" d="M0 376.539L41.753 376.578L41.7774 418.103L0 418.215L0 376.539Z"/><path fill="#FCFCFC" d="M0 710.83C14.0053 710.938 28.011 710.976 42.0167 710.943C41.6847 723.305 41.6124 739.936 42.009 752.287C28.0065 752.429 14.0031 752.467 -2.17534e-15 752.4L0 710.83Z"/><path fill="#FCFCFC" d="M1212.15 585.417C1226.01 585.255 1240.12 585.376 1254 585.371L1254 626.97C1240.25 627.135 1226.16 626.966 1212.39 626.932C1212.04 613.447 1212.25 598.988 1212.15 585.417Z"/><path fill="#FCFCFC" d="M1254 1003.24L1254 1044.87C1240.9 1045.33 1225.57 1044.86 1212.33 1044.76C1211.9 1031.39 1212.21 1016.87 1212.25 1003.42L1254 1003.24Z"/><path fill="#FCFCFC" d="M1212.08 919.78C1226.05 919.802 1240.03 919.749 1254 919.622L1254 961.35C1240.08 961.445 1226.16 961.393 1212.25 961.195C1212.33 947.39 1212.28 933.584 1212.08 919.78Z"/><path fill="#FCFCFC" d="M0 42.0394C13.8433 42.1293 28.139 42.4045 41.9473 42.2918C41.8132 56.0814 41.7593 69.8716 41.7857 83.6619C27.8573 83.7577 13.9285 83.7689 0 83.6955L0 42.0394Z"/><path fill="#FCFCFC" d="M1212.24 752.604L1254 752.503L1254 794.132L1212.21 794.12L1212.24 752.604Z"/><path fill="#FCFCFC" d="M1254 835.875L1254 877.985C1240.09 877.872 1226.18 877.883 1212.27 878.017L1212.27 836.354C1225.38 836.302 1241.17 836.641 1254 835.875Z"/><path fill="#FCFCFC" d="M376.338 0L418.155 0L418.06 41.7282C404.52 42.1828 390.139 41.8734 376.534 41.794C376.153 28.3569 376.388 13.5553 376.338 0Z"/><path fill="#FCFCFC" d="M1212.11 669.247L1254 669.13L1254 710.842L1212.37 710.651L1212.11 669.247Z"/><path fill="#FCFCFC" d="M0 794.245L41.8702 794.306C41.9325 807.008 41.2889 823.577 41.9439 835.84L0 836.09L0 794.245Z"/><path fill="#FCFCFC" d="M1128.57 836.379C1142.49 836.241 1156.41 836.216 1170.33 836.302L1170.22 878.038C1157.94 877.428 1141.27 877.901 1128.67 877.94C1128.44 864.087 1128.41 850.232 1128.57 836.379Z"/><path fill="#FCFCFC" d="M1254 334.578L1254 376.276C1240.45 376.384 1225.82 376.62 1212.37 376.024C1211.91 362.978 1212.21 348.067 1212.21 334.876C1225.4 334.752 1241.29 335.227 1254 334.578Z"/><path fill="#FCFCFC" d="M0 125.481L41.8909 125.555C41.7268 139.391 41.7267 153.229 41.8905 167.066C27.963 167.125 13.9179 167.282 0 167.171L0 125.481Z"/><path fill="#FCFCFC" d="M1254 501.79L1254 543.521C1240.25 543.557 1225.97 543.792 1212.26 543.277L1212.24 502.106C1226.16 501.719 1240.08 501.614 1254 501.79Z"/><path fill="#FCFCFC" d="M42.0979 0L83.7258 0L83.7123 41.7459C70.0935 41.9993 55.8465 41.8283 42.1815 41.8375C41.7591 28.9723 41.8052 12.8753 42.0979 0Z"/><path fill="#FCFCFC" d="M543.694 0L585.245 0L585.197 41.7302C571.401 41.9432 557.602 41.9772 543.805 41.8323C543.344 28.2597 543.568 13.6097 543.694 0Z"/><path fill="#FCFCFC" d="M1254 251.099L1254 292.644C1240.1 292.746 1226.2 292.701 1212.3 292.509C1211.94 279.357 1212.28 264.463 1212.24 251.147L1254 251.099Z"/><path fill="#FCFCFC" d="M585.374 1212.35C599.227 1212.13 613.081 1212.12 626.934 1212.32L627.105 1254L585.372 1254L585.374 1212.35Z"/><path fill="#FCFCFC" d="M0 1045.07L41.7637 1045.15C41.819 1057.6 41.3247 1074.71 41.9747 1086.7L0 1086.71L0 1045.07Z"/><path fill="#FCFCFC" d="M1254 83.9368L1254 125.426L1212.27 125.423C1212.52 112 1212.23 97.5616 1212.2 84.0594L1254 83.9368Z"/><path fill="#FCFCFC" d="M1170.22 878.038C1183.1 878.26 1199.34 878.342 1212.27 878.017C1211.65 890.199 1212.1 907.011 1212.13 919.465C1198.21 919.571 1184.3 919.565 1170.38 919.446C1170.06 905.681 1170.67 891.887 1170.22 878.038Z"/><path fill="#FCFCFC" d="M877.949 0L919.548 0L919.472 41.7471C905.673 42.0654 891.832 41.5779 878.027 41.9601C877.732 28.1349 877.928 13.8587 877.949 0Z"/><path fill="#FCFCFC" d="M0 877.999L41.8376 878.134C41.8011 891.438 41.4921 906.263 42.0209 919.465C28.2932 919.535 13.6876 919.778 0 919.484L0 877.999Z"/><path fill="#FCFCFC" d="M1086.85 125.432C1100.13 125.95 1115.02 125.595 1128.43 125.56L1128.48 167.208C1115.36 166.82 1100.02 167.11 1086.82 167.223C1087.32 154.366 1086.86 138.474 1086.85 125.432Z"/><path fill="#FCFCFC" d="M1254 1086.89L1254 1128.51L1212.36 1128.4C1211.88 1115.41 1212.24 1100.18 1212.21 1086.95L1254 1086.89Z"/><path fill="#FCFCFC" d="M0 543.718L41.8567 543.733C41.8445 553.889 41.1947 575.8 42.0786 585.137L0 585.224L0 543.718Z"/><path fill="#FCFCFC" d="M1254 418.285L1254 459.816C1240.09 459.89 1226.18 459.659 1212.26 459.848L1212.23 418.42C1226.06 418.203 1240.15 418.306 1254 418.285Z"/><path fill="#002A5A" d="M418.184 209.352C432.062 209.215 445.94 209.217 459.818 209.359C459.796 222.414 459.394 238.163 459.87 251.027C473.02 251.535 488.344 251.155 501.678 251.114C501.661 264.798 501.864 279.212 501.484 292.829C512.921 292.806 533.048 293.393 543.741 292.668C543.498 306.752 543.817 320.863 543.543 334.909C555.736 334.665 573.905 335.18 585.427 334.42L585.388 292.84C599.166 292.792 613.225 292.94 626.956 292.756C627.131 306.785 627.156 320.816 627.032 334.845C640.383 334.824 655.632 335.151 668.829 334.725C668.828 337.662 668.781 340.706 668.892 343.631L761.407 343.671C806.729 343.619 851.737 338.34 886.774 374.029C919.701 407.568 919.077 444.002 919.052 487.473L919.05 537.598C919.053 581.048 919.148 624.508 918.949 667.958C918.797 700.901 913.556 725.475 893.028 752.089C887.753 758.081 883.576 762.414 877.34 767.432C846.914 790.894 821.955 790.483 785.784 790.483L743.529 790.485L598.651 790.484C574.226 809.902 549.569 829.027 524.684 847.852C512.875 856.754 501.638 865.539 489.041 873.557C476.779 881.362 461.692 879.998 458.938 863.459C457.438 854.454 457.931 844.559 457.82 835.321C457.542 820.377 457.378 805.43 457.329 790.483C416.157 790.6 387.85 783.549 359.894 751.148C358.633 749.509 357.408 747.843 356.22 746.151C346.581 732.372 340.077 716.649 337.163 700.087C334.379 683.605 334.929 664.65 334.934 647.779L335.001 586.281L334.948 500.769C334.938 473.924 333.809 453.343 338.568 426.947C343.8 407.075 351.967 390.314 366.273 375.218C368.887 372.459 374.289 368.239 377.311 365.491C376.969 365.079 376.628 364.667 376.287 364.255C375.865 355.633 376.396 343.385 376.339 334.958C390.22 334.603 403.989 334.97 418.018 334.51L418.488 340.576C418.559 338.659 418.595 338.189 418.968 336.218C420.686 334.509 420.113 335.046 423.077 334.66C421.604 334.314 420.616 334.332 419.105 334.258C417.594 332.648 418.144 326.671 418.144 324.246C418.148 313.747 418.143 303.248 418.128 292.749C406.597 292.002 388.876 292.722 376.502 292.469C376.15 279.24 376.472 264.493 376.514 251.141C390.358 251.081 404.413 251.34 418.217 251.067L418.184 209.352Z"/><path fill="#FCFCFC" d="M418.184 209.352C432.062 209.215 445.94 209.217 459.818 209.359C459.796 222.414 459.394 238.163 459.87 251.027C473.02 251.535 488.344 251.155 501.678 251.114C501.661 264.798 501.864 279.212 501.484 292.829C512.921 292.806 533.048 293.393 543.741 292.668C543.498 306.752 543.817 320.863 543.543 334.909C555.736 334.665 573.905 335.18 585.427 334.42L585.388 292.84C599.166 292.792 613.225 292.94 626.956 292.756C627.131 306.785 627.156 320.816 627.032 334.845C640.383 334.824 655.632 335.151 668.829 334.725C668.828 337.662 668.781 340.706 668.892 343.631L510.353 343.646L465.933 343.663C429.509 343.705 408.617 343.754 377.311 365.491C376.969 365.079 376.628 364.667 376.287 364.255C375.865 355.633 376.396 343.385 376.339 334.958C390.22 334.603 403.989 334.97 418.018 334.51L418.488 340.576C418.559 338.659 418.595 338.189 418.968 336.218C420.686 334.509 420.113 335.046 423.077 334.66C421.604 334.314 420.616 334.332 419.105 334.258C417.594 332.648 418.144 326.671 418.144 324.246C418.148 313.747 418.143 303.248 418.128 292.749C406.597 292.002 388.876 292.722 376.502 292.469C376.15 279.24 376.472 264.493 376.514 251.141C390.358 251.081 404.413 251.34 418.217 251.067L418.184 209.352Z"/><path fill="#FCFCFC" d="M437.493 368.25C439.544 368.052 443.15 368.062 445.298 368.043L704.059 368.061L779.334 368.012C794.218 368 813.606 367.34 827.85 369.563C842.799 371.897 859.58 380.199 870.245 391.102C890.551 411.863 895.081 434.813 895.202 462.783L895.209 604.402L895.209 650.23C895.204 685.193 896.658 715.297 869.796 742.309C843.711 768.538 816.25 766.623 782.219 766.597L732.915 766.614L646.329 766.573C634.16 766.56 603.433 765.413 590.849 768.161C588.552 768.663 571.299 782.907 567.95 785.579L532.575 813.342C523.451 820.419 490.017 847.412 481.416 850.617C478.411 829.12 481.157 801.772 480.017 779.81C479.246 764.958 461.629 765.863 451.153 766.536C401.29 769.74 361.381 735.31 359.029 685.121C358.179 668.932 358.36 652.06 358.381 635.239L358.444 554.206L358.381 485.829C358.399 453.63 356.493 421.963 379.416 395.766C394.99 377.967 414.138 370.02 437.493 368.25Z"/><path fill="#002A5A" d="M623.561 545.882C639.307 543.946 653.665 555.083 655.706 570.816C657.748 586.55 646.708 600.982 630.988 603.129C615.119 605.296 600.519 594.128 598.459 578.244C596.398 562.361 607.663 547.837 623.561 545.882Z"/><path fill="#002A5A" d="M496.675 545.935C512.497 543.793 527.049 554.911 529.14 570.74C531.23 586.569 520.063 601.084 504.227 603.122C488.466 605.15 474.033 594.047 471.953 578.292C469.872 562.538 480.928 548.068 496.675 545.935Z"/><path fill="#002A5A" d="M750.004 545.952C765.682 543.994 780.013 555.027 782.128 570.684C784.243 586.342 773.354 600.782 757.719 603.054C747.464 604.545 737.199 600.413 730.836 592.235C724.472 584.057 722.991 573.091 726.956 563.517C730.921 553.943 739.722 547.236 750.004 545.952Z"/><path fill="#FCFCFC" d="M251.097 376.605L292.627 376.593C292.637 389.879 292.281 405.106 292.693 418.23C306.657 418.344 320.621 418.355 334.585 418.262C334.689 420.619 334.724 425.609 335.372 427.64C335.437 424.9 335.443 421.944 335.685 419.233C337.524 418.644 336.619 418.663 338.497 419.206C339.861 422.103 337.009 423.651 338.568 426.947C333.809 453.343 334.938 473.924 334.948 500.769L335.001 586.281L334.934 647.779C334.929 664.65 334.379 683.605 337.163 700.087C340.077 716.649 346.581 732.372 356.22 746.151C357.408 747.843 358.633 749.509 359.894 751.148C356.916 753.558 339.42 752.411 334.674 752.289C334.155 743.878 334.136 717.739 335.096 710.28C323.83 711.394 304.63 710.745 292.826 710.653C292.701 696.857 292.687 683.06 292.783 669.264C295.488 669.297 297.382 669.224 300.079 669.013C298.4 668.42 295.25 668.637 293.294 668.637L293.294 627.612C305.02 627.598 320.374 628.182 331.728 627.303C330.089 626.696 296.317 627.01 292.719 627.023L292.78 585.415C304.082 585.28 321.497 586.025 332.081 584.975C320.379 584.332 305.246 584.755 293.294 584.751L293.294 544.339C302.952 544.332 323.911 544.923 332.566 543.92C326.181 542.654 300.645 543.474 292.798 543.426C292.681 529.548 292.661 515.669 292.739 501.79L250.98 501.79L250.96 543.252C238.46 543.531 221.671 543.946 209.275 543.202C209.165 529.395 209.152 515.587 209.236 501.779L251.088 501.779C250.958 487.809 250.924 473.837 250.985 459.866C241.054 459.124 220.13 459.748 209.377 459.689C209.014 445.897 208.92 432.098 209.094 418.302C223.084 418.385 237.075 418.365 251.065 418.243C250.947 404.364 250.957 390.484 251.097 376.605Z"/><path fill="#FCFCFC" d="M752.571 42.2956L794.157 42.1617C794.156 55.1453 793.709 71.1757 794.209 83.9084C807.61 84.2762 822.403 84.1066 835.866 83.9442C835.861 97.3561 835.548 112.169 835.888 125.467C847.408 126.143 865.984 125.549 878.005 125.539C877.884 111.724 877.893 97.9088 878.033 84.0944L919.682 83.9202C919.373 70.2841 919.635 55.9915 919.686 42.3088C933.568 42.1932 947.45 42.1677 961.331 42.2321L961.387 83.8677C947.761 83.3424 933.34 83.9048 919.56 83.6928L919.5 125.333C905.61 125.42 891.72 125.437 877.831 125.384C877.745 138.552 877.424 154.213 877.893 167.309L919.555 167.305L919.477 208.913C905.817 208.917 891.649 209.113 878.029 208.796C877.829 194.893 877.838 180.988 878.056 167.085L835.863 167.135L835.845 208.925C822.014 209.028 808.182 209.001 794.351 208.844C794.241 195.495 794.683 180.383 794.197 167.266C783.427 166.516 763.819 167.129 752.519 167.208L752.501 125.481C742.936 124.699 721.446 125.434 710.654 125.271C710.241 112.028 710.414 97.2027 710.713 84.0043C724.556 83.6849 738.507 84.187 752.483 83.8554L752.571 42.2956Z"/><path fill="#FCFCFC" d="M1170.39 376.618L1212.14 376.57L1212.08 418.115C1198.21 418.194 1184.34 418.197 1170.48 418.123C1169.58 428.716 1170.31 448.322 1170.26 459.769C1158.44 459.765 1139.77 459.181 1128.48 459.853C1128.12 473.198 1128.43 488.086 1128.41 501.551C1114.58 501.796 1100.75 501.758 1086.92 501.437L1086.86 459.928C1078.43 459.107 1054.74 459.738 1045.2 459.734C1044.82 445.927 1044.78 432.114 1045.08 418.305C1058.84 418.325 1073.14 418.542 1086.85 418.203L1086.95 376.612L1128.42 376.597C1128.43 390.251 1128.2 404.633 1128.45 418.225C1142.42 418.36 1156.4 418.393 1170.37 418.322C1170.28 404.421 1170.29 390.519 1170.39 376.618Z"/><path fill="#FCFCFC" d="M125.521 83.9004C139.104 84.2883 153.526 84.0066 167.17 83.9574L167.219 125.477C181.107 125.634 194.997 125.655 208.885 125.542C209.243 139.393 209.279 153.249 208.993 167.101C200.24 167.104 174.407 166.513 167.199 167.281L167.125 208.852C153.547 208.994 139.116 209.38 125.606 208.978L125.537 167.205C113.008 166.678 96.7449 167.137 83.9452 167.134C83.5109 153.317 83.7564 139.423 83.8837 125.595C97.7759 125.648 111.668 125.602 125.56 125.457L125.521 83.9004Z"/><path fill="#FCFCFC" d="M83.8896 710.927C97.7558 710.821 111.623 710.845 125.489 711C125.494 724.509 125.224 739.033 125.514 752.455C138.994 752.913 153.618 752.593 167.183 752.542C167.178 765.533 166.747 781.422 167.218 794.18C157.458 793.441 136.064 794.026 125.555 794.171L125.48 835.836C111.623 836.094 97.7614 836.09 83.9038 835.822C83.7201 822.053 83.8138 807.967 83.8153 794.182C71.7035 793.605 54.5995 794.114 42.1185 794.112C41.8663 780.284 41.8772 766.452 42.1512 752.625L83.8189 752.473C83.6988 738.625 83.7223 724.775 83.8896 710.927Z"/><path fill="#FCFCFC" d="M251.018 877.974C264.449 878.43 279.134 878.118 292.656 878.093C292.652 891.371 292.283 906.541 292.675 919.661C306.57 919.918 320.481 919.698 334.378 919.777C334.392 932.919 334.777 948.259 334.35 961.223C321.359 961.428 305.077 960.718 292.697 961.321C292.327 974.617 292.645 989.557 292.639 1002.97C278.798 1003.18 264.954 1003.2 251.112 1003.03L251.035 961.32C239.073 960.746 221.744 961.291 209.352 961.27C209.099 947.462 209.072 933.65 209.27 919.841C223.118 919.553 237.19 920.106 251.019 919.613L251.018 877.974Z"/><path fill="#FCFCFC" d="M125.578 878.013C125.437 891.894 125.414 905.777 125.508 919.659C139.236 919.986 153.448 919.78 167.212 919.754L167.185 961.219C153.782 961.353 138.662 960.93 125.528 961.337C125.267 974.94 125.487 989.318 125.481 1002.98C111.607 1003.13 97.732 1003.11 83.8589 1002.92C83.7642 989.055 83.7444 975.194 83.7994 961.334C70.4766 960.927 55.7262 961.402 42.102 961.191L42.0246 919.79C55.9459 919.663 69.8889 919.93 83.8219 919.645C83.7555 905.806 83.7689 891.966 83.8622 878.127C97.6632 877.908 111.701 878.167 125.578 878.013Z"/><path fill="#FCFCFC" d="M1086.94 1045.19C1100.77 1045.04 1114.6 1045.06 1128.43 1045.24C1128.43 1058.87 1128.19 1073.34 1128.46 1086.89L1170.51 1086.91C1170.08 1100.57 1170.36 1114.69 1170.2 1128.44C1156.8 1128.45 1141.78 1128.12 1128.51 1128.49C1128.39 1142.37 1128.36 1156.25 1128.44 1170.13C1116.23 1170.13 1098.6 1169.6 1086.83 1170.23L1086.9 1128.42L1045.13 1128.42C1044.32 1115.43 1044.72 1099.99 1045.12 1086.98C1058.99 1086.77 1072.93 1087.01 1086.86 1086.81C1086.81 1072.93 1086.84 1059.06 1086.94 1045.19Z"/><path fill="#FCFCFC" d="M83.8523 376.574C97.5136 376.564 111.854 376.775 125.461 376.518C125.474 390.125 125.218 404.692 125.507 418.216C139.399 418.399 153.293 418.432 167.186 418.317L167.125 459.732C155.287 459.742 136.83 459.182 125.515 459.846L125.453 501.553C111.591 501.697 97.7269 501.687 83.8646 501.52C83.4955 488.138 83.8142 473.456 83.7996 459.967C73.452 459.185 53.3082 459.76 42.2443 459.749C41.519 446.753 42.0013 431.45 42.1275 418.299C56.032 418.383 69.937 418.352 83.841 418.204C83.7608 404.328 83.7646 390.451 83.8523 376.574Z"/><path fill="#FCFCFC" d="M251.095 42.2358C264.943 42.1686 278.79 42.1845 292.637 42.2835C292.65 55.8096 292.367 70.5175 292.687 83.9424C306.645 84.1402 320.501 83.8991 334.43 83.9828L334.404 125.342C322.105 125.416 304.387 124.8 292.71 125.39L292.624 167.107C279.768 167.128 263.584 166.691 250.998 167.204L251.001 125.461C240.854 124.716 220.43 125.44 209.207 125.276C209.26 111.505 209.215 97.7332 209.073 83.9626C222.801 84.0768 237.375 84.2455 251.045 83.8617L251.095 42.2358Z"/><path fill="#FCFCFC" d="M376.48 125.435C376.068 138.992 376.246 153.486 376.207 167.11L334.678 167.121C334.407 181.025 334.328 194.932 334.442 208.838C320.727 209.001 306.874 208.897 293.148 208.895C292.241 205.635 292.787 172.766 292.828 167.397L334.686 167.295C334.026 154.615 334.501 138.456 334.611 125.558C348.432 125.575 362.694 125.77 376.48 125.435Z"/><path fill="#FCFCFC" d="M1045.05 251.189C1058.95 251.087 1072.84 251.074 1086.74 251.15L1086.74 292.458C1072.8 292.762 1058.85 292.747 1044.92 292.413C1044.95 299.674 1045.46 328.99 1044.65 334L1043.21 334.569C1030.86 334.936 1015.59 334.786 1003.28 334.391C1003.12 320.542 1003.11 306.691 1003.25 292.842L1045.18 292.755C1044.33 285.044 1044.71 259.465 1045.05 251.189Z"/><path fill="#FCFCFC" d="M1170.24 292.708C1184.17 292.87 1198.1 292.895 1212.03 292.782C1212.2 306.631 1212.24 320.482 1212.13 334.332C1198.37 334.566 1183.83 335.003 1170.14 334.312C1170.54 346.562 1170.83 363.446 1170.22 375.559C1168 377.129 1133.69 376.33 1128.59 376.09L1128.55 334.883C1141.44 334.822 1157.74 335.214 1170.38 334.647C1170.26 321.673 1170.87 305.223 1170.24 292.708Z"/><path fill="#FCFCFC" d="M669.078 1045.2C682.936 1045.06 696.796 1045.06 710.654 1045.18C710.634 1058.66 710.285 1073.05 710.463 1086.4C705.647 1087.33 675.486 1086.73 668.958 1086.67C668.903 1099.47 668.424 1115.8 668.931 1128.38C655.009 1128.5 641.086 1128.5 627.164 1128.38C626.946 1114.56 627.287 1100.48 627.008 1086.81L669.21 1086.94C668.833 1073.3 668.971 1058.89 669.078 1045.2Z"/><path fill="#FCFCFC" d="M836.011 794.342L877.151 794.304C877.816 795.065 877.723 794.7 877.799 795.228C877.795 807.922 877.406 823.395 877.884 835.884C863.859 836.103 849.833 836.137 835.808 835.985C835.904 849.976 835.921 863.968 835.861 877.959C824.968 877.907 804.642 877.322 794.223 878.07C794.352 864.183 794.378 850.296 794.301 836.41C808.232 836.223 822.165 836.171 836.096 836.252C835.859 822.283 835.831 808.312 836.011 794.342Z"/><path fill="#FCFCFC" d="M418.279 878.137C431.793 878.063 446.401 877.815 459.864 878.166L459.835 919.514L418.108 919.485C418.102 933.41 417.988 947.489 418.161 961.398C404.43 960.999 390.289 961.435 376.474 961.218L376.357 919.798L418.311 919.719C418.038 906.495 417.954 891.376 418.279 878.137Z"/><path fill="#FCFCFC" d="M1045.03 627.018C1044.31 640.271 1045.72 656.197 1044.68 669.272C1058.7 669.172 1072.73 669.176 1086.75 669.284L1086.75 710.65L1045.12 710.753C1044.33 699.06 1044.65 680.796 1044.95 668.946C1032.15 668.467 1016.38 668.879 1003.36 668.847C1002.77 655.833 1003.16 640.43 1003.24 627.23C1017.15 626.969 1031.1 627.216 1045.03 627.018Z"/><path fill="#FCFCFC" d="M1128.49 251.107C1142.31 251.518 1156.41 250.909 1170.28 251.2C1170.43 265.036 1170.41 278.873 1170.24 292.708C1156.35 292.497 1142.23 292.866 1128.42 292.491L1128.47 334.432C1114.6 334.576 1100.72 334.57 1086.85 334.413L1086.93 292.895L1128.6 292.774C1128.33 279.075 1128.58 264.877 1128.49 251.107Z"/><path fill="#FCFCFC" d="M334.574 1128.81C348.097 1128.7 362.95 1128.98 376.314 1128.62C376.354 1139.05 377.031 1160.27 376.06 1170.01C362.194 1170.16 348.328 1170.2 334.462 1170.13L334.638 1211.82L292.793 1211.87C292.761 1198.63 293.128 1183.26 292.708 1170.2C306.368 1170.58 320.851 1170.3 334.571 1170.26C334.44 1157.07 334.185 1141.96 334.574 1128.81Z"/><path fill="#FCFCFC" d="M627.04 167.199C640.27 167.43 655.615 167.637 668.794 167.336L668.8 208.804C656.005 209.011 639.122 208.433 626.985 209.01L627.017 251.018C616.831 250.327 595.937 250.794 585.339 251.06C585.832 238.404 585.383 222.288 585.379 209.374L627.126 209.307L627.04 167.199Z"/><path fill="#FCFCFC" d="M167.307 1128.82C180.471 1128.69 196.04 1129.05 208.868 1128.6C209.51 1141.52 209.328 1157.37 209.106 1170.37C221.764 1170.31 238.715 1170.82 250.994 1170.17C250.442 1182.48 250.945 1199.21 250.961 1211.85L209.366 1211.85C208.487 1201.49 209.028 1180.96 209.295 1170.11L167.244 1170.17L167.307 1128.82Z"/><path fill="#FCFCFC" d="M543.769 1003.41C557.14 1003.09 571.747 1003.36 585.212 1003.37L585.193 1044.69C571.621 1045.13 557.256 1044.91 543.625 1044.91L543.534 1086.71L501.84 1086.69C501.106 1074.05 501.575 1058.05 501.687 1045.15C515.725 1045.01 529.764 1045.04 543.802 1045.24C543.3 1031.72 543.606 1016.98 543.769 1003.41Z"/><path fill="#FCFCFC" d="M543.69 961.366C543.461 975.265 543.731 989.086 543.567 1002.94C529.919 1003.04 515.284 1002.85 501.732 1003.21C501.512 989.319 501.529 975.428 501.784 961.54C515.493 961.158 529.839 961.573 543.69 961.366Z"/><path fill="#FCFCFC" d="M167.224 627.034C178.63 627.286 198.138 627.654 209.209 627.02C208.676 639.41 209.129 656.054 209.101 668.777C195.174 668.866 181.247 668.884 167.32 668.832C167.38 654.899 167.348 640.966 167.224 627.034Z"/><path fill="#FCFCFC" d="M501.612 42.1855C514.852 41.7683 530.305 42.1387 543.687 42.179L543.486 83.6927C529.603 83.7715 515.72 83.7791 501.838 83.7155C501.209 70.5907 501.583 55.4589 501.612 42.1855Z"/><path fill="#FCFCFC" d="M752.519 167.208C752.134 180.542 752.425 195.41 752.418 208.847C738.494 208.953 724.57 208.986 710.646 208.944C709.979 197.223 710.52 179.205 710.696 167.301C724.637 167.383 738.578 167.352 752.519 167.208Z"/><path fill="#FCFCFC" d="M1170.42 627.269C1184.29 627.067 1198.16 627.055 1212.03 627.233C1212.28 634.824 1212.65 662.506 1211.76 668.808C1198.1 669.07 1184.01 668.528 1170.46 669.006C1170.05 655.382 1170.35 640.952 1170.42 627.269Z"/><path fill="#FCFCFC" d="M752.535 251.067L752.466 292.703C749.014 292.354 741.255 292.607 737.534 292.625C728.594 292.709 719.654 292.679 710.715 292.535C709.857 281.416 710.545 262.812 710.691 251.169L752.535 251.067Z"/><path fill="#FCFCFC" d="M167.238 292.738C181.128 292.852 195.017 292.87 208.907 292.791C209.442 306.146 209.269 320.942 209.117 334.378C195.617 334.452 180.826 334.828 167.429 334.312C167.259 321.319 167.832 305.275 167.238 292.738Z"/><path fill="#FCFCFC" d="M1044.89 836.356C1058.85 836.136 1072.8 836.134 1086.76 836.349C1086.75 849.564 1086.37 865.014 1086.81 878.048C1076.99 877.27 1055.66 877.84 1045.15 877.95C1044.62 864.041 1044.97 850.267 1044.89 836.356Z"/><path fill="#FCFCFC" d="M125.548 292.65C125.462 306.688 125.464 320.726 125.555 334.763C111.645 334.472 97.7385 334.574 83.8157 334.4C83.6957 320.548 83.7158 306.695 83.8759 292.844C97.6831 292.689 111.815 293.102 125.548 292.65Z"/><path fill="#FCFCFC" d="M543.698 125.479C543.488 137.27 543.045 155.74 543.674 167.253C532.79 166.484 513.295 167.103 501.841 167.113C501.113 155.491 501.665 137.724 501.766 125.603C515.744 125.684 529.722 125.642 543.698 125.479Z"/><path fill="#FCFCFC" d="M669.075 292.829L710.683 292.788C710.467 306.715 710.612 321.109 710.577 335.073C705.699 333.836 676.256 334.662 669.108 334.444C668.595 321.271 668.975 306.121 669.075 292.829Z"/><path fill="#FCFCFC" d="M334.907 293.016C348.328 292.543 362.843 292.794 376.345 292.782C376.435 306.633 376.354 320.484 376.102 334.333C362.94 334.943 347.979 334.561 334.704 334.311C334.374 327.299 334.007 298.77 334.907 293.016Z"/><path fill="#FCFCFC" d="M1170.41 794.317L1212.13 794.318C1212.16 800.031 1212.83 832.679 1211.62 835.859C1198.79 836.479 1183.47 836.03 1170.42 835.901C1170.13 822.243 1170.31 807.989 1170.41 794.317Z"/><path fill="#FCFCFC" d="M1086.82 585.305C1086.69 599.18 1086.67 613.055 1086.75 626.93C1073.43 626.951 1058.17 626.62 1045.03 627.018C1044.63 613.702 1044.9 598.832 1044.9 585.391C1058.87 585.444 1072.85 585.415 1086.82 585.305Z"/><path fill="#FCFCFC" d="M167.218 794.18C180.951 794.55 195.351 794.324 209.133 794.306C209.018 807.651 209.439 822.275 208.929 835.443C205.051 836.687 173.402 835.931 167.398 835.832C167.355 824.34 167.927 805.019 167.218 794.18Z"/><path fill="#FCFCFC" d="M919.678 1045.24C933.56 1045.06 947.443 1045.03 961.325 1045.15C961.444 1059.01 961.438 1072.87 961.307 1086.73C948.867 1086.73 931.753 1086.22 919.675 1086.81C919.503 1072.96 919.505 1059.1 919.678 1045.24Z"/><path fill="#FCFCFC" d="M334.631 794.301L376.281 794.281C376.151 800.25 377.178 832.898 375.815 835.909C362.931 836.468 347.641 836.046 334.589 835.887C334.123 822.886 334.577 807.558 334.631 794.301Z"/><path fill="#FCFCFC" d="M710.697 1003.36L752.449 1003.31C752.398 1014.78 753.075 1033.22 752.195 1044L751.324 1044.68C738.151 1045.15 724.111 1044.92 710.872 1044.91C709.831 1034.6 710.598 1014.34 710.697 1003.36Z"/><path fill="#FCFCFC" d="M1003.24 460.064C1017.06 459.884 1031.08 460.002 1044.91 460.006C1044.96 473.836 1044.68 487.794 1044.83 501.585C1030.99 501.73 1017.15 501.767 1003.31 501.698C1002.74 489.487 1003.03 472.442 1003.24 460.064Z"/><path fill="#FCFCFC" d="M1003.19 1045.24C1017.1 1045.04 1031.01 1045.01 1044.91 1045.16C1045.03 1059 1044.99 1072.84 1044.79 1086.68C1030.96 1086.81 1017.13 1086.8 1003.31 1086.65C1002.72 1074.3 1003.17 1057.91 1003.19 1045.24Z"/><path fill="#FCFCFC" d="M961.409 961.325C960.831 973.763 961.459 990.015 961.281 1002.99C947.451 1003.26 933.559 1002.82 919.696 1003.21C919.325 989.463 919.59 975.338 919.688 961.557C933.481 961.275 947.719 961.85 961.409 961.325Z"/><path fill="#FCFCFC" d="M710.566 837.046C714.153 835.404 746.606 836.296 752.492 836.363C752.369 850.291 752.365 864.219 752.479 878.147C744.535 877.116 720.467 877.712 710.874 877.733C710.006 865.7 710.395 849.294 710.566 837.046Z"/><path fill="#FCFCFC" d="M919.663 794.322L961.375 794.31C961.411 804.338 962.06 826.955 961.128 835.801C947.471 836.346 933.4 836.017 919.703 835.883C919.397 822.196 919.619 808.043 919.663 794.322Z"/><path fill="#FCFCFC" d="M251.026 251.047C250.336 262.409 250.937 280.681 250.976 292.519C243.859 292.597 214.779 293.294 209.182 292.19C208.645 279.935 209.084 263.675 209.102 251.14L251.026 251.047Z"/><path fill="#FCFCFC" d="M251.056 1086.82C250.305 1097.31 250.923 1117.3 250.956 1128.44C244.899 1128.42 213.003 1129.06 209.117 1128.02C208.836 1114.71 209.111 1100.39 209.158 1087C223.019 1086.75 237.148 1086.94 251.056 1086.82Z"/><path fill="#FCFCFC" d="M668.084 1003.33C669.379 1004.7 668.93 1040.37 668.898 1044.94L628.955 1044.91L627.715 1044.54C626.355 1041.54 627.088 1008.82 627.117 1003.43L668.084 1003.33Z"/><path fill="#FCFCFC" d="M167.292 1045.28C181.157 1045.05 195.025 1045.03 208.891 1045.2C209.278 1059 209.29 1072.8 208.925 1086.59C198.554 1087.43 178.265 1086.75 167.337 1086.71C167.13 1073.07 167.355 1058.98 167.292 1045.28Z"/><path fill="#FCFCFC" d="M334.528 1045.28C348.46 1045.09 362.393 1045.05 376.325 1045.15C376.086 1058.71 376.315 1072.96 376.261 1086.61C362.732 1087.03 348.274 1086.74 334.677 1086.7C334.209 1073.29 334.501 1058.77 334.528 1045.28Z"/><path fill="#FCFCFC" d="M919.675 376.569L961.351 376.539L961.391 418.218C947.579 418.138 933.487 418.367 919.728 418.145C919.57 404.287 919.553 390.428 919.675 376.569Z"/><path fill="#FCFCFC" d="M334.587 961.541L376.345 961.402C376.342 974.457 376.763 990.169 376.083 1003.01C362.277 1003.15 348.471 1003.18 334.665 1003.11C333.998 991.422 334.427 973.407 334.587 961.541Z"/><path fill="#FCFCFC" d="M919.684 209.363C933.566 209.232 947.448 209.234 961.329 209.368C961.416 223.227 961.405 237.086 961.296 250.944C948.653 250.915 932.001 250.454 919.68 251.046C919.563 237.152 919.565 223.257 919.684 209.363Z"/><path fill="#FCFCFC" d="M1128.48 585.275C1142.31 585.648 1156.45 585.308 1170.32 585.384L1170.43 626.931C1157.33 626.962 1141.36 626.56 1128.5 627.07L1128.48 585.275Z"/><path fill="#FCFCFC" d="M167.313 42.2405C181.125 42.0459 195.165 42.1544 208.998 42.1455C209.227 56.028 209.225 69.9134 208.992 83.7959C195.476 83.4964 180.956 83.7317 167.361 83.7038C167.09 70.1858 167.32 55.8211 167.313 42.2405Z"/><path fill="#FCFCFC" d="M501.799 209.361L543.543 209.346C543.653 223.206 543.62 237.068 543.441 250.928C529.971 250.644 515.397 250.932 501.846 250.95C501.381 237.508 501.623 222.839 501.799 209.361Z"/><path fill="#FCFCFC" d="M167.345 460.104L209.116 459.927C209.209 473.475 209.436 488.253 208.988 501.733L167.313 501.549L167.345 460.104Z"/><path fill="#FCFCFC" d="M1137.44 501.781C1148.2 501.612 1159.46 501.796 1170.26 501.807C1170.39 515.605 1170.29 529.622 1170.23 543.423L1163.54 543.521L1128.61 543.431C1128.25 530.122 1128.53 515.443 1128.55 502.029L1137.44 501.781Z"/><path fill="#FCFCFC" d="M167.323 376.649C181.105 376.483 195.077 376.585 208.875 376.581C209.175 390.401 209.254 404.226 209.112 418.048C195.341 418.407 181.199 418.154 167.399 418.067C167.071 404.691 167.332 390.116 167.323 376.649Z"/><path fill="#FCFCFC" d="M292.73 292.67C292.071 304.084 292.622 322.378 292.602 334.417C280.176 334.82 263.846 334.842 251.484 334.351C250.339 331.377 251.064 298.188 251.091 292.863C264.793 292.494 278.847 292.995 292.73 292.67Z"/><path fill="#FCFCFC" d="M1170.65 961.518L1212.07 961.418C1212.2 975.297 1212.2 989.177 1212.06 1003.06C1198.32 1003.28 1184.17 1003.13 1170.4 1003.13C1169.9 991.426 1170.11 973.164 1170.65 961.518Z"/><path fill="#FCFCFC" d="M1057.23 501.782L1086.74 501.788L1086.81 543.187L1075.97 543.555L1045.1 543.425C1044.43 531.124 1044.9 514.51 1045.03 501.887C1049.07 501.9 1053.18 501.822 1057.23 501.782Z"/><path fill="#FCFCFC" d="M1086.83 1003.09C1086.25 1015.44 1086.73 1032.28 1086.73 1044.96C1076.5 1044.21 1055.76 1044.73 1045.18 1044.94C1044.43 1033.27 1044.71 1015.19 1044.98 1003.36L1070.77 1003.34C1075.2 1003.36 1082.64 1003.64 1086.83 1003.09Z"/><path fill="#FCFCFC" d="M292.719 627.023C292.222 639.866 292.627 655.675 292.624 668.733C278.786 668.858 264.946 668.884 251.107 668.811C250.918 654.981 251.01 640.892 251.001 627.047C262.607 627.258 281.45 627.647 292.719 627.023Z"/><path fill="#FCFCFC" d="M73.3201 836.123L83.7291 836.338L83.7409 877.927L53.7206 877.93L42.1879 877.873C41.6744 864.906 42.0688 849.472 42.1358 836.332L73.3201 836.123Z"/><path fill="#FCFCFC" d="M752.466 292.703C766.371 292.806 780.277 292.823 794.183 292.755L794.145 334.618C780.519 334.611 766.107 334.837 752.543 334.414C752.511 321.436 752.953 305.428 752.466 292.703Z"/><path fill="#FCFCFC" d="M1003.17 209.35C1017.08 209.284 1031 209.289 1044.91 209.363C1045.17 223.041 1044.79 236.975 1044.94 250.721C1037.34 251.59 1012 250.943 1003.29 250.939C1002.75 238.353 1003.17 222.205 1003.17 209.35Z"/><path fill="#FCFCFC" d="M1128.51 794.204C1128.13 807.491 1128.45 822.526 1128.48 835.943C1114.63 836.201 1100.79 836.186 1086.95 835.899C1086.69 822.147 1086.95 808 1086.85 794.183C1098.89 794.468 1116.63 794.734 1128.51 794.204Z"/><path fill="#FCFCFC" d="M877.981 1128.49C877.608 1139.62 877.366 1159.29 877.943 1170.25C868.847 1169.47 846.281 1170.11 836.081 1170.13C835.51 1157.78 835.931 1141.53 835.914 1128.91C849.67 1128.48 864.577 1129.23 877.981 1128.49Z"/><path fill="#FCFCFC" d="M1045.06 752.605L1086.69 752.569C1086.72 764.979 1086.24 782.154 1086.85 794.183C1073.07 793.954 1058.75 794.444 1045.14 794.065C1044.69 780.249 1044.66 766.423 1045.06 752.605Z"/><path fill="#FCFCFC" d="M1003.2 42.1956C1017.1 42.0567 1031.01 42.0757 1044.92 42.2524L1044.94 82.4571L1044.18 83.4812C1036.54 84.3438 1011.73 83.7531 1003.36 83.6939C1002.84 70.376 1003.17 55.6186 1003.2 42.1956Z"/><path fill="#FCFCFC" d="M54.2728 501.779C64.0965 501.84 73.9204 501.841 83.744 501.783L83.7137 543.434L74.2419 543.487L42.1618 543.526C41.3363 532.29 42.0151 514.1 42.0326 502.05L54.2728 501.779Z"/><path fill="#FCFCFC" d="M221.498 1003.26L250.903 1003.37L250.934 1044.91L236.197 1045L209.084 1044.89C208.736 1031.83 209.101 1016.76 209.089 1003.52L221.498 1003.26Z"/><path fill="#FCFCFC" d="M1002.32 1003.26C1003.94 1005.02 1003.06 1040.47 1002.96 1044.81C989.36 1044.95 975.763 1044.98 962.167 1044.89C962.139 1044.87 962.1 1044.86 962.082 1044.83C960.339 1041.84 961.474 1009.14 961.511 1003.36L1002.32 1003.26Z"/><path fill="#FCFCFC" d="M83.8542 1045.21C97.7254 1045.05 111.598 1045.05 125.469 1045.23L125.499 1086.86C116.901 1086.06 93.3057 1086.64 83.8451 1086.8C83.7117 1072.94 83.7147 1059.07 83.8542 1045.21Z"/><path fill="#FCFCFC" d="M209.212 836.352C223.131 836.231 237.051 836.231 250.971 836.352C250.929 849.43 250.518 865.094 251.018 877.974C237.392 877.634 223.072 877.868 209.396 877.886C208.876 863.86 209.501 850.211 209.212 836.352Z"/><path fill="#FCFCFC" d="M627.019 919.658C640.117 919.955 655.706 920.03 668.798 919.712C668.699 931.128 668.219 950.045 668.981 961.199C655.589 961.342 640.111 960.903 627.045 961.336L627.019 919.658Z"/><path fill="#FCFCFC" d="M919.627 292.835L961.309 292.784C960.988 306.164 961.406 320.82 961.313 334.382C947.496 334.484 933.491 334.725 919.694 334.299C919.368 320.751 919.546 306.404 919.627 292.835Z"/><path fill="#FCFCFC" d="M83.8451 1086.8C83.6955 1100.72 83.6763 1114.64 83.7872 1128.57C73.707 1127.82 53.0649 1128.42 42.1999 1128.4C41.7805 1114.95 41.9405 1100.46 42.0196 1086.95C55.9616 1086.97 69.9036 1086.92 83.8451 1086.8Z"/><path fill="#FCFCFC" d="M1170.25 710.841C1184.02 711.151 1198.29 710.957 1212.1 710.945C1212.18 724.249 1211.77 738.965 1212.1 752.047C1205.6 753.111 1178.22 752.393 1170.35 752.307C1170.29 738.766 1170.55 724.293 1170.25 710.841Z"/><path fill="#FCFCFC" d="M376.481 878.029C376.137 891.53 376.278 905.983 376.258 919.524C362.392 919.579 348.526 919.563 334.66 919.475C334.154 906.221 334.492 891.577 334.536 878.221C348.517 878.086 362.499 878.022 376.481 878.029Z"/><path fill="#FCFCFC" d="M250.998 167.204C250.591 180.399 250.918 195.527 250.941 208.866L209.233 209.043L209.089 167.29C222.204 167.318 238.11 167.718 250.998 167.204Z"/><path fill="#FCFCFC" d="M251.037 794.181C263.241 794.449 280.654 794.743 292.711 794.22C292.604 808.115 292.572 822.011 292.616 835.906C278.786 836.122 264.955 836.099 251.126 835.837C250.978 821.952 250.948 808.066 251.037 794.181Z"/><path fill="#FCFCFC" d="M501.591 878.112C515.619 878.01 529.647 878.017 543.675 878.133L543.539 919.561L501.913 919.496C501.23 906.066 501.547 891.631 501.591 878.112Z"/><path fill="#FCFCFC" d="M1086.85 334.413C1086.68 348.277 1086.65 362.142 1086.75 376.006C1077.36 376.406 1068.67 376.382 1059.27 376.214C1056.87 376.171 1047.04 376.04 1045.08 376.412C1044.33 363.974 1044.94 347.646 1045.13 334.887C1055.36 334.879 1077.83 335.455 1086.85 334.413Z"/><path fill="#FCFCFC" d="M1128.45 919.703L1170.2 919.775C1170.37 933.589 1170.44 947.403 1170.42 961.217C1157.02 961.342 1141.62 960.912 1128.53 961.329L1128.45 919.703Z"/><path fill="#FCFCFC" d="M292.683 1086.83C306.63 1086.94 320.577 1086.96 334.524 1086.88C334.323 1100.61 334.701 1114.86 334.349 1128.43C320.687 1128.43 306.332 1128.23 292.72 1128.49L292.683 1086.83Z"/><path fill="#FCFCFC" d="M1170.38 209.411C1184.27 209.19 1198.16 209.192 1212.05 209.416C1212.34 220.265 1212.69 240.715 1211.84 250.849L1170.45 250.97C1170.07 237.379 1170.43 223.09 1170.38 209.411Z"/><path fill="#FCFCFC" d="M167.209 877.979C180.13 878.703 195.737 877.934 209.062 878.155C209.143 891.468 209.508 906.004 208.939 919.214C204.946 919.963 173.102 919.626 167.419 919.426C167.231 906.731 167.864 890.092 167.209 877.979Z"/><path fill="#FCFCFC" d="M1128.5 627.07C1128.17 640.574 1128.44 655.224 1128.44 668.812C1114.78 668.667 1100.75 668.851 1087.07 668.89C1086.15 660.865 1086.92 636.271 1086.97 627.246C1100.81 627.113 1114.66 627.055 1128.5 627.07Z"/><path fill="#FCFCFC" d="M1170.67 1128.76C1184.43 1128.51 1198.32 1128.68 1212.12 1128.55C1212.18 1139.36 1212.45 1157.86 1212 1169.17C1211.71 1169.48 1211.43 1169.8 1211.14 1170.11C1197.59 1170.19 1184.04 1170.16 1170.5 1170.02C1170.34 1164 1169.85 1132.84 1170.67 1128.76Z"/><path fill="#FCFCFC" d="M459.904 1086.81C473.805 1087.11 487.78 1086.8 501.693 1086.91C501.738 1100.76 501.655 1114.6 501.446 1128.44C489.544 1128.45 471.328 1127.88 459.91 1128.54C460.213 1115.09 459.945 1100.33 459.904 1086.81Z"/><path fill="#FCFCFC" d="M627.238 1170.34C641.092 1170.48 655.032 1170.25 668.915 1170.31C668.382 1182.57 668.656 1199.41 668.942 1211.81C655.018 1211.92 641.093 1211.91 627.169 1211.78C626.761 1199.4 626.81 1182.7 627.238 1170.34Z"/><path fill="#FCFCFC" d="M961.375 919.642C975.006 920.011 989.368 919.758 1003.05 919.721C1003.22 933.552 1003.21 947.384 1003.04 961.215C989.972 961.389 973.971 960.815 961.409 961.325C961.761 948.365 961.598 932.665 961.375 919.642Z"/><path fill="#FCFCFC" d="M878.068 836.355C891.889 836.201 905.712 836.211 919.534 836.387C919.624 850.231 919.585 864.075 919.416 877.918C905.928 877.67 891.6 877.916 878.049 877.929C877.503 864.957 877.831 849.345 878.068 836.355Z"/><path fill="#FCFCFC" d="M1128.5 752.49C1141.97 752.939 1156.6 752.619 1170.16 752.572C1170.37 766.409 1170.37 780.247 1170.16 794.084L1128.51 794.204C1128.58 780.3 1128.58 766.395 1128.5 752.49Z"/><path fill="#FCFCFC" d="M42.1422 167.32C56.0097 167.267 69.8774 167.326 83.744 167.496C83.7674 181.118 83.9771 195.236 83.589 208.816C69.7706 208.949 55.9514 208.971 42.1327 208.883C41.5759 196.308 41.9832 180.09 42.1422 167.32Z"/><path fill="#FCFCFC" d="M167.2 710.862C181.173 710.984 195.147 711.02 209.121 710.969C208.822 724.647 209.342 738.37 209.089 752.04C200.51 753.117 176.887 752.415 167.347 752.339C167.407 738.513 167.358 724.687 167.2 710.862Z"/><path fill="#FCFCFC" d="M835.958 42.185L877.812 42.2649L877.837 83.7385C864.092 83.5434 849.89 83.7215 836.11 83.7211C835.668 70.1829 835.93 55.7871 835.958 42.185Z"/><path fill="#FCFCFC" d="M1045.06 919.778L1086.75 919.777C1086.75 932.699 1086.33 948.702 1086.84 961.375C1073.04 960.972 1059 961.531 1045.16 961.207C1044.86 949.878 1044.35 931.025 1045.06 919.778Z"/><path fill="#FCFCFC" d="M1128.59 669.309C1142.5 669.157 1156.41 669.13 1170.32 669.226L1170.25 710.841C1156.45 710.435 1142.42 710.894 1128.6 710.706C1128.47 696.908 1128.46 683.108 1128.59 669.309Z"/><path fill="#FCFCFC" d="M209.082 669.654C213.12 668.584 244.969 669.261 250.963 669.326C250.9 682.712 250.611 697.53 251.007 710.851C237.44 710.453 222.986 710.711 209.354 710.726C209.153 697.036 209.063 683.345 209.082 669.654Z"/><path fill="#FCFCFC" d="M710.596 919.778L752.372 919.761C752.229 933.465 752.422 947.51 752.398 961.258C738.52 961.392 724.641 961.38 710.764 961.224C710.16 948.795 710.581 932.504 710.596 919.778Z"/><path fill="#FCFCFC" d="M464.444 1170.44C475.921 1170.15 490.218 1169.98 501.661 1170.41C501.671 1176.71 502.415 1209.49 500.59 1211.69L497.956 1211.84L459.951 1211.88C459.794 1202.08 459.388 1180.44 460.158 1171.4C461.616 1170.13 461.97 1170.57 464.444 1170.44Z"/><path fill="#FCFCFC" d="M83.8156 251.042C83.3406 263.862 83.7246 279.474 83.665 292.531C69.8378 292.686 56.0094 292.694 42.1821 292.556C41.3377 281.984 42.0366 262.443 41.9483 251.131C55.4134 251.286 70.4099 251.398 83.8156 251.042Z"/><path fill="#FCFCFC" d="M501.732 1003.21C501.037 1014.77 501.648 1032.8 501.668 1044.77C487.689 1044.56 474.359 1045.19 460.033 1044.58C459.864 1030.84 459.857 1017.11 460.013 1003.37C473.92 1003.43 487.827 1003.38 501.732 1003.21Z"/><path fill="#FCFCFC" d="M167.331 209.405L208.983 209.357C209.469 221.949 209.364 238.239 208.98 250.877C195.797 250.543 180.772 250.925 167.451 250.964C166.774 239.068 167.3 221.684 167.331 209.405Z"/><path fill="#FCFCFC" d="M627.021 125.47C627.017 139.296 626.876 153.396 627.04 167.199C614.89 166.636 597.696 167.048 585.288 167.201C585.68 153.969 585.366 138.972 585.348 125.599C599.239 125.684 613.131 125.64 627.021 125.47Z"/><path fill="#FCFCFC" d="M877.943 1170.25C890.973 1170.73 906.392 1170.33 919.583 1170.22C919.255 1183.61 919.542 1198.31 919.543 1211.79C905.674 1211.92 891.805 1211.93 877.936 1211.83C877.543 1198.59 877.86 1183.54 877.943 1170.25Z"/><path fill="#FCFCFC" d="M251.003 752.442C250.478 763.801 250.629 782.682 251.037 794.181C239.444 793.515 221.406 794.064 209.346 794.041C209.033 780.496 209.154 766.267 209.089 752.68C223.044 752.493 237.033 752.774 251.003 752.442Z"/><path fill="#FCFCFC" d="M961.487 836.352C975.328 836.238 989.17 836.25 1003.01 836.389C1003.07 850.142 1003.31 864.313 1003 878.032C989.812 877.563 974.926 877.898 961.602 877.923C961.356 864.068 961.318 850.209 961.487 836.352Z"/><path fill="#FCFCFC" d="M1002.35 334.766C1003.83 336.281 1003.07 371.194 1003.03 376.068C989.164 376.415 976.053 376.36 962.158 376.278C960.683 374.239 961.449 340.014 961.478 334.885C975.103 334.771 988.728 334.731 1002.35 334.766Z"/><path fill="#FCFCFC" d="M1003.22 961.513C1017.03 961.342 1031.09 961.452 1044.92 961.445L1044.9 1003.07L1003.28 1003.02C1002.92 989.603 1003.09 974.952 1003.22 961.513Z"/><path fill="#FCFCFC" d="M333.729 1003.38L334.208 1003.85C334.954 1009.66 334.383 1037.65 334.359 1044.93C321.17 1044.8 308.196 1045.01 294.978 1044.69C294.376 1044.7 293.905 1044.46 293.281 1044.26C292.153 1040.12 292.746 1009.44 292.787 1003.36L333.729 1003.38Z"/><path fill="#FCFCFC" d="M961.479 251.287C975.341 251.079 989.205 251.034 1003.07 251.151C1003.18 264.962 1003.17 278.774 1003.02 292.584C989.179 292.71 975.333 292.698 961.488 292.547C961.354 278.794 961.352 265.04 961.479 251.287Z"/><path fill="#FCFCFC" d="M418.211 1086.75C417.685 1099.33 418.124 1115.6 418.13 1128.46L376.462 1128.41L376.334 1086.98C390.231 1086.74 404.252 1086.97 418.211 1086.75Z"/><path fill="#FCFCFC" d="M835.948 1045.16C849.763 1045 863.894 1045.14 877.733 1045.15L877.763 1086.67C863.884 1086.8 850.004 1086.8 836.125 1086.65C835.77 1072.99 835.948 1058.86 835.948 1045.16Z"/><path fill="#FCFCFC" d="M919.711 919.657C919.106 932.081 919.501 948.468 919.447 961.213C905.626 961.346 891.803 961.372 877.981 961.291C877.364 948.75 877.924 932.547 878.018 919.786C891.916 919.862 905.814 919.819 919.711 919.657Z"/><path fill="#FCFCFC" d="M125.549 585.284C139.413 585.427 153.277 585.466 167.141 585.402L167.224 627.034C154.563 626.537 138.38 626.939 125.55 627.014C125.99 614.106 125.62 598.387 125.549 585.284Z"/><path fill="#FCFCFC" d="M919.671 878.187C933.578 878.054 947.487 878.032 961.395 878.123C961.366 890.963 960.89 907.051 961.375 919.642C953.414 918.947 928.401 919.36 919.711 919.657C919.574 905.834 919.561 892.01 919.671 878.187Z"/><path fill="#FCFCFC" d="M334.622 209.362C348.509 209.29 362.397 209.301 376.284 209.397C375.989 223.021 376.397 237.116 376.239 250.871L334.733 250.973C333.931 239.504 334.546 221.275 334.622 209.362Z"/><path fill="#FCFCFC" d="M167.327 961.542L209.116 961.441C209.252 975.325 209.243 989.211 209.09 1003.09C195.191 1003.17 181.291 1003.13 167.393 1002.97C167.062 989.599 167.329 975 167.327 961.542Z"/><path fill="#FCFCFC" d="M209.23 585.388L250.896 585.406C250.885 598.112 250.433 614.629 251.001 627.047C239.579 626.385 220.962 626.944 209.209 627.02C209.102 613.143 209.109 599.265 209.23 585.388Z"/><path fill="#FCFCFC" d="M66.7633 1003.26C72.4165 1003.34 78.0705 1003.34 83.7238 1003.27L83.7328 1044.72C75.3889 1044.98 66.6213 1044.87 58.2389 1044.88C53.2239 1045.02 47.3116 1044.83 42.2267 1044.79C41.7371 1031.14 41.8927 1017.05 41.9346 1003.37L66.7633 1003.26Z"/><path fill="#FCFCFC" d="M585.342 1086.79C585.035 1100.68 585.323 1114.53 585.226 1128.41C573.692 1128.43 554.647 1127.87 543.704 1128.57C543.587 1114.69 543.585 1100.8 543.699 1086.91C557.584 1086.83 571.447 1087.03 585.342 1086.79Z"/><path fill="#FCFCFC" d="M752.527 1086.8C751.989 1099.33 752.432 1115.61 752.427 1128.42L710.88 1128.41C709.76 1118.75 710.539 1097.58 710.719 1086.94L752.527 1086.8Z"/><path fill="#FCFCFC" d="M919.675 1086.81C919.141 1100.53 919.771 1114.69 919.445 1128.46C906.083 1128.46 891.217 1128.14 877.981 1128.49C877.655 1114.92 877.894 1100.6 878.042 1087L919.675 1086.81Z"/><path fill="#FCFCFC" d="M418.223 125.482C432.061 125.66 445.901 125.686 459.74 125.559C459.741 137.627 459.232 155.577 459.918 167.203C449.41 166.494 429.364 167.103 418.209 167.206C418.086 153.298 418.09 139.389 418.223 125.482Z"/><path fill="#FCFCFC" d="M919.695 125.596L961.288 125.491L961.305 167.115L919.722 167.112C919.288 153.912 919.603 138.892 919.695 125.596Z"/><path fill="#FCFCFC" d="M247.523 334.627C249.623 334.647 249.674 334.258 250.775 335.333C251.573 345.737 250.892 364.97 250.985 376.061C238.923 376.416 225.95 376.275 213.846 376.254C212.43 376.227 211.384 376.087 209.981 375.926C208.421 374.062 209.221 339.458 209.213 334.882C221.983 334.929 234.754 334.844 247.523 334.627Z"/><path fill="#FCFCFC" d="M125.55 627.014C125.064 639.918 125.469 655.645 125.398 668.82L83.8998 668.807C83.6288 654.935 83.629 641.059 83.9006 627.187C97.7838 627.257 111.667 627.199 125.55 627.014Z"/><path fill="#FCFCFC" d="M1086.97 42.238C1100.36 42.1907 1115.25 41.8103 1128.47 42.2079C1128.46 55.6181 1128.12 70.6096 1128.47 83.895C1115.75 83.2712 1099.95 83.8177 1086.93 83.7414C1086.79 69.9071 1086.81 56.0719 1086.97 42.238Z"/><path fill="#FCFCFC" d="M585.357 42.2551L627.043 42.266L627 83.8649C613.319 83.382 599.124 83.9175 585.37 83.6781L585.357 42.2551Z"/><path fill="#FCFCFC" d="M83.8106 585.242C83.4976 598.846 83.6979 613.286 83.6933 626.956L42.1428 626.947L41.9978 585.377C55.646 585.397 70.2361 585.674 83.8106 585.242Z"/><path fill="#FCFCFC" d="M167.244 1170.17C166.715 1182.74 167.158 1198.96 167.146 1211.8C153.416 1211.97 139.419 1211.83 125.665 1211.82C125.493 1198.01 125.483 1184.19 125.633 1170.37C139.504 1170.39 153.375 1170.32 167.244 1170.17Z"/><path fill="#FCFCFC" d="M752.619 961.612C766.12 961.185 780.61 961.447 794.183 961.454L794.111 1003.03C780.26 1003.16 766.409 1003.15 752.559 1002.99C752.42 989.2 752.441 975.405 752.619 961.612Z"/><path fill="#FCFCFC" d="M459.871 961.309C459.272 973.418 459.754 990.705 459.87 1002.99C446 1003.13 432.129 1003.11 418.259 1002.95L418.161 961.398C428.396 961.499 450.417 962.102 459.871 961.309Z"/><path fill="#FCFCFC" d="M292.679 251.072C306.289 251.512 320.938 251.082 334.676 251.128C334.401 264.824 334.717 278.989 334.349 292.465C321.946 292.678 304.327 292.001 292.73 292.67C292.814 278.804 292.797 264.938 292.679 251.072Z"/><path fill="#FCFCFC" d="M1128.53 961.329L1128.39 1003.07C1115.81 1003.09 1099.05 1002.57 1086.83 1003.09C1087.25 990.081 1086.88 974.552 1086.84 961.375C1097.98 961.612 1117.78 962.003 1128.53 961.329Z"/><path fill="#FCFCFC" d="M167.312 543.802L209.189 543.651C209.253 557.479 209.223 571.307 209.1 585.135C195.383 585.371 181.147 585.176 167.388 585.149C167.009 571.97 167.319 557.108 167.312 543.802Z"/><path fill="#FCFCFC" d="M1003.23 794.321L1044.91 794.3L1044.9 835.929C1031.26 836.039 1016.85 836.385 1003.29 835.89C1002.94 822.229 1003.17 808.017 1003.23 794.321Z"/><path fill="#FCFCFC" d="M627.045 961.336L626.99 1003.01C613.128 1003.15 599.266 1003.17 585.403 1003.07C585.447 989.157 585.413 975.247 585.301 961.338C596.259 961.672 616.372 961.962 627.045 961.336Z"/><path fill="#FCFCFC" d="M627.279 836.363C641.172 836.258 655.066 836.24 668.96 836.311C668.614 849.839 668.734 864.207 668.833 877.733L627.438 877.733C626.595 868.837 626.879 845.778 627.279 836.363Z"/><path fill="#FCFCFC" d="M1045.15 877.95C1044.78 881.238 1044.96 888.577 1044.96 892.135C1044.92 901.271 1044.94 910.407 1045.02 919.543L1003.28 919.472C1002.85 905.932 1003.29 891.771 1003 878.032C1013.35 878.092 1035.75 878.75 1045.15 877.95Z"/><path fill="#FCFCFC" d="M836.034 209.399C849.953 209.299 863.873 209.284 877.792 209.354L877.74 250.945C863.962 250.788 849.903 250.918 836.104 250.913C835.58 237.663 835.959 222.743 836.034 209.399Z"/><path fill="#FCFCFC" d="M1128.55 1003.39L1170.17 1003.35C1170.32 1017.15 1170.39 1030.95 1170.37 1044.76C1156.48 1045.19 1142.53 1044.66 1128.64 1044.95C1128.33 1031.43 1128.55 1016.99 1128.55 1003.39Z"/><path fill="#FCFCFC" d="M961.484 167.316C973.184 167.907 990.744 167.327 1003.07 167.37C1003.26 181.197 1003.23 195.027 1002.97 208.853C989.139 209.111 975.301 209.128 961.467 208.901L961.484 167.316Z"/><path fill="#FCFCFC" d="M543.674 167.253C552.586 167.729 576.543 167.827 585.288 167.201C584.649 178.768 585.199 196.795 585.192 208.836C571.373 209.024 557.553 209.062 543.733 208.95C543.427 195.247 543.692 181.012 543.674 167.253Z"/><path fill="#FCFCFC" d="M1128.47 83.895C1141.96 84.3051 1156.67 84.062 1170.23 83.9737C1170.3 97.5872 1170.41 111.58 1170.23 125.187C1157.25 125.658 1141.65 125.617 1128.58 125.343C1128.56 112.317 1128.94 96.6866 1128.47 83.895Z"/><path fill="#FCFCFC" d="M585.308 1170.17C584.652 1181.51 585.217 1199.91 585.21 1211.77C571.388 1211.89 557.565 1211.92 543.742 1211.88C543.317 1198.66 543.603 1183.83 543.726 1170.56C557.616 1170.21 571.438 1170.44 585.308 1170.17Z"/><path fill="#FCFCFC" d="M125.515 251.044C139.404 251.205 153.294 251.234 167.183 251.131C167.175 263.929 166.712 280.22 167.238 292.738C158.037 291.954 135.657 292.523 125.548 292.65L125.515 251.044Z"/><path fill="#FCFCFC" d="M752.565 1045.21C766.419 1045.06 780.274 1045.05 794.129 1045.15C794.137 1058.64 793.826 1073.51 794.171 1086.87C784.884 1086.06 762.754 1086.72 752.527 1086.8L752.565 1045.21Z"/><path fill="#FCFCFC" d="M585.339 251.06C585.216 264.881 585.166 278.702 585.19 292.522C574.267 292.63 553.761 291.959 543.741 292.668C543.604 278.806 543.582 264.942 543.675 251.079C557.318 251.113 571.765 251.364 585.339 251.06Z"/><path fill="#FCFCFC" d="M961.372 752.473C975.278 752.669 989.186 752.69 1003.09 752.537C1003.12 766.192 1003.36 780.529 1002.98 794.129L961.484 794.093C961.427 782.723 962.032 762.985 961.372 752.473Z"/><path fill="#FCFCFC" d="M919.68 251.046C918.932 261.008 919.514 281.69 919.468 292.6C905.656 292.667 891.844 292.655 878.032 292.564C877.619 279.026 877.878 264.764 877.952 251.179C891.089 251.117 906.853 251.673 919.68 251.046Z"/><path fill="#FCFCFC" d="M459.918 167.203C473.815 167.419 487.715 167.451 501.614 167.297L501.675 209.011C487.961 208.794 473.634 209.277 460.093 208.799C459.826 195.222 460.376 180.371 459.918 167.203Z"/><path fill="#FCFCFC" d="M627 83.8649C640.522 84.3255 655.26 84.0084 668.869 83.9724C668.657 95.5333 668.267 113.955 669.046 125.292C656.721 125.41 638.723 124.824 627.021 125.47C627.104 111.602 627.097 97.7332 627 83.8649Z"/><path fill="#FCFCFC" d="M460.008 919.76L501.793 919.728L501.601 961.17C487.748 961.525 473.317 960.881 459.871 961.309C460.072 947.61 459.644 933.262 460.008 919.76Z"/><path fill="#FCFCFC" d="M83.8784 209.347L125.493 209.333C125.489 222.562 125.093 237.999 125.515 251.044C117.549 250.295 92.5381 250.743 83.8156 251.042C83.7444 237.143 83.7654 223.245 83.8784 209.347Z"/><path fill="#FCFCFC" d="M585.378 1045.25C599.226 1045.07 613.075 1045.04 626.923 1045.18C627.084 1059.05 627.112 1072.93 627.008 1086.81C615.661 1086.15 597.128 1086.65 585.342 1086.79L585.378 1045.25Z"/><path fill="#FCFCFC" d="M139.934 501.776C149.005 501.78 158.075 501.841 167.145 501.959L167.155 543.467L153.995 543.516L125.583 543.426C125.485 529.611 125.498 515.796 125.623 501.981L139.934 501.776Z"/><path fill="#FCFCFC" d="M292.823 752.623L334.454 752.546C334.388 766.318 334.86 780.458 334.344 794.117C321.714 794.094 304.982 793.629 292.711 794.22L292.823 752.623Z"/><path fill="#FCFCFC" d="M83.8401 83.8477C83.1257 94.2333 83.7201 114.135 83.6652 125.161C77.6287 125.462 46.5291 125.977 42.1043 125.018C41.8918 111.373 41.9035 97.7253 42.1397 84.0808C55.7098 83.886 70.4321 84.4658 83.8401 83.8477Z"/><path fill="#FCFCFC" d="M752.509 1170.19C751.891 1181.71 752.458 1199.69 752.436 1211.79L710.58 1211.88C710.472 1198.01 710.468 1184.14 710.57 1170.27C724.549 1170.41 738.53 1170.39 752.509 1170.19Z"/><path fill="#FCFCFC" d="M83.8929 42.1743L125.518 42.2256C125.503 55.3819 125.089 70.9319 125.521 83.9004C117.636 83.1143 92.6807 83.6593 83.8401 83.8477C83.787 69.9565 83.8046 56.0652 83.8929 42.1743Z"/><path fill="#FCFCFC" d="M418.209 167.206C417.535 178.921 418.063 196.681 418.049 208.82L376.451 208.947L376.406 167.358C388.621 167.241 406.711 168.067 418.209 167.206Z"/><path fill="#FCFCFC" d="M966.44 1170.42C978.658 1170.31 990.876 1170.28 1003.09 1170.34C1003.14 1176.2 1004.05 1209.29 1002.06 1211.68L999.434 1211.84L961.508 1211.91C961.164 1200.94 961.01 1182.13 961.636 1171.38C963.134 1170.26 964.188 1170.59 966.44 1170.42Z"/><path fill="#FCFCFC" d="M585.346 1128.82C598.892 1128.65 613.746 1129.05 626.974 1128.72C627.062 1142.51 627.06 1156.3 626.966 1170.1C613.843 1170.14 598.167 1169.71 585.308 1170.17C585.39 1156.39 585.403 1142.6 585.346 1128.82Z"/><path fill="#FCFCFC" d="M1003.14 376.647C1016.76 376.599 1031.58 376.928 1045.08 376.412C1044.74 389.818 1044.83 404.735 1045.05 418.135L1003.28 418.126C1002.85 405.019 1003.15 389.878 1003.14 376.647Z"/><path fill="#FCFCFC" d="M799.493 1170.42C811.607 1170.29 823.721 1170.24 835.835 1170.25C835.839 1175.89 836.66 1209.58 834.914 1211.66L832.172 1211.87C819.549 1211.94 806.926 1211.94 794.303 1211.87C794.275 1202.06 793.689 1180.05 794.517 1171.24C795.886 1170.29 797.724 1170.48 799.493 1170.42Z"/><path fill="#FCFCFC" d="M1170.41 1045.23C1184.28 1045.09 1198.15 1045.06 1212.02 1045.14C1212.57 1057.76 1212.17 1074 1212.03 1086.68L1170.71 1086.75C1169.71 1076.82 1170.36 1055.85 1170.41 1045.23Z"/><path fill="#FCFCFC" d="M1170.39 543.802L1212.14 543.663C1212.31 556.746 1212.48 572.248 1211.94 585.227C1198.07 585.275 1184.2 585.238 1170.33 585.115L1170.39 543.802Z"/><path fill="#FCFCFC" d="M961.523 585.403L1003.01 585.401C1003.35 598.783 1003.2 613.539 1002.97 626.93C989.213 627.069 975.266 626.944 961.496 626.924C961.399 613.084 961.408 599.243 961.523 585.403Z"/><path fill="#FCFCFC" d="M125.499 1086.86C139.389 1086.95 153.28 1086.96 167.17 1086.89L167.198 1128.43L125.617 1128.46C125.565 1115.44 125.959 1099.61 125.499 1086.86Z"/><path fill="#FCFCFC" d="M83.8157 334.4C83.3632 347.428 83.7577 363.081 83.7604 376.305L42.0963 376.342C41.9222 362.523 41.9057 348.702 42.0468 334.883C55.1573 334.867 70.9891 335.218 83.8157 334.4Z"/><path fill="#FCFCFC" d="M1170.33 42.231C1184.17 42.0877 1198.29 42.2392 1212.16 42.2681L1212.06 83.7088L1170.6 83.6996C1170.36 69.8781 1170.27 56.0544 1170.33 42.231Z"/><path fill="#FCFCFC" d="M1003.21 711.021L1045 710.948L1044.91 752.39C1031.04 752.47 1017.18 752.459 1003.31 752.358C1003.13 738.58 1003.09 724.8 1003.21 711.021Z"/><path fill="#FCFCFC" d="M376.487 836.401C390.355 836.292 404.223 836.256 418.091 836.295C418.176 850.141 418.154 863.987 418.024 877.832C405.406 877.9 388.806 877.441 376.481 878.029L376.487 836.401Z"/><path fill="#FCFCFC" d="M251.085 209.327L292.645 209.326C292.633 221.432 292.059 239.433 292.679 251.072C285.767 250.232 259.065 250.875 251.026 251.047L251.085 209.327Z"/><path fill="#FCFCFC" d="M971.77 501.784C982.094 501.753 992.797 501.575 1003.08 502.058C1003.15 515.837 1003.15 529.617 1003.07 543.397L993.464 543.414C982.853 543.479 972.241 543.439 961.631 543.294L961.631 502.042L971.77 501.784Z"/><path fill="#FCFCFC" d="M1086.83 1170.23C1086.36 1183.08 1086.76 1198.73 1086.78 1211.79L1045.22 1211.91C1044.43 1199.76 1044.64 1182.6 1045.2 1170.41L1086.83 1170.23Z"/><path fill="#FCFCFC" d="M1003.25 543.784L1044.97 543.71C1045.05 557.516 1045 571.322 1044.82 585.126C1030.98 585.268 1017.14 585.255 1003.3 585.09C1002.77 572.443 1003.12 556.492 1003.25 543.784Z"/><path fill="#FCFCFC" d="M292.72 1128.49C292.571 1142.39 292.567 1156.3 292.708 1170.2C278.803 1170.08 264.899 1170.07 250.994 1170.17C251.434 1157.31 251.033 1141.83 251.034 1128.78C264.138 1128.75 279.859 1129.09 292.72 1128.49Z"/><path fill="#FCFCFC" d="M543.704 1128.57C543.242 1141.58 543.583 1156.91 543.569 1170.08L501.786 1170.09C501.612 1156.37 501.559 1142.65 501.627 1128.93C515.704 1128.41 529.627 1128.88 543.704 1128.57Z"/><path fill="#FCFCFC" d="M83.7872 1128.57C97.6709 1128.87 111.745 1128.42 125.488 1128.8L125.488 1170.08C111.619 1170.18 97.7497 1170.19 83.8807 1170.1C83.6993 1156.34 84.0662 1142.13 83.7872 1128.57Z"/><path fill="#FCFCFC" d="M669.117 125.607L710.642 125.532C710.968 138.759 710.69 153.729 710.45 166.947C702.797 167.82 677.861 167.152 669.119 167.132C669.043 153.29 669.042 139.448 669.117 125.607Z"/><path fill="#FCFCFC" d="M794.223 878.07C793.652 890.145 794.154 907.092 794.151 919.528C780.291 919.61 766.43 919.573 752.571 919.414L752.479 878.147C765.348 878.128 781.641 878.577 794.223 878.07Z"/><path fill="#FCFCFC" d="M251.079 1045.25C264.934 1045.09 278.79 1045.06 292.646 1045.16C292.655 1058.66 292.357 1073.44 292.683 1086.83C280.855 1086.21 263.151 1086.6 251.056 1086.82L251.079 1045.25Z"/><path fill="#FCFCFC" d="M459.893 83.8628C472.598 84.4541 488.657 84.0097 501.626 83.9657C501.681 97.7688 501.638 111.572 501.498 125.375C488.102 125.401 473.285 125.738 460 125.215C459.984 112.881 460.495 95.7993 459.893 83.8628Z"/><path fill="#FCFCFC" d="M961.401 1128.6C961.2 1142.41 961.6 1156.32 961.245 1170.08C949.266 1170.11 931.061 1169.56 919.583 1170.22L919.626 1128.79C933.094 1128.65 948.155 1129.09 961.401 1128.6Z"/><path fill="#FCFCFC" d="M334.633 42.2467L376.29 42.1721L376.257 83.7479C362.769 83.4599 348.234 83.728 334.665 83.7295C334.152 70.4538 334.478 55.5956 334.633 42.2467Z"/><path fill="#FCFCFC" d="M794.199 251.019C807.513 251.484 822.4 251.184 835.825 251.137C835.882 264.959 835.856 278.782 835.745 292.604C821.926 292.722 808.107 292.674 794.29 292.46C794.301 279.792 794.761 263.404 794.199 251.019Z"/><path fill="#FCFCFC" d="M669.159 1128.73C682.988 1128.61 696.818 1128.57 710.648 1128.63C710.154 1141.12 710.441 1157.34 710.644 1169.94C702.495 1170.78 678.512 1170.15 669.119 1170.11C668.905 1156.32 668.918 1142.52 669.159 1128.73Z"/><path fill="#FCFCFC" d="M752.583 209.416C766.43 209.268 780.278 209.255 794.126 209.378C794.133 222.495 793.738 238.098 794.199 251.019C783.894 250.366 763.097 250.703 752.535 251.067L752.583 209.416Z"/><path fill="#FCFCFC" d="M794.171 1086.87L835.851 1086.9C835.865 1100.64 835.724 1114.74 835.912 1128.45C822.144 1128.45 808.088 1128.58 794.343 1128.4C794.319 1117.1 794.908 1097.48 794.171 1086.87Z"/><path fill="#FCFCFC" d="M627.017 251.018C640.784 251.414 655.011 251.129 668.838 251.238L668.73 292.506C655.258 292.62 640.494 292.923 627.111 292.497C627.036 279.149 627.392 264.194 627.017 251.018Z"/><path fill="#FCFCFC" d="M389.57 1003.26C399.078 1003.39 408.588 1003.39 418.096 1003.25L418.124 1044.71L405.652 1044.91L376.47 1044.78C376.26 1031.19 376.468 1017.02 376.486 1003.39L389.57 1003.26Z"/><path fill="#FCFCFC" d="M292.748 334.911L334.591 334.631C334.291 342.115 335.079 371.466 334.112 376.121C320.335 376.305 306.556 376.345 292.778 376.24C292.417 363.052 292.731 348.208 292.748 334.911Z"/><path fill="#FCFCFC" d="M418.223 1170.26C417.459 1180.08 418.1 1201.17 418.114 1211.8L376.458 1211.86C376.363 1198.01 376.412 1184.16 376.606 1170.3C389.768 1170.51 405.16 1170.7 418.223 1170.26Z"/><path fill="#FCFCFC" d="M543.675 919.801L585.219 919.725C585.219 932.15 584.71 949.289 585.301 961.338C573.785 960.758 555.726 961.35 543.69 961.366L543.675 919.801Z"/><path fill="#FCFCFC" d="M961.495 1087C975.351 1086.86 989.208 1086.83 1003.06 1086.92C1003.09 1100.59 1002.91 1114.84 1003.16 1128.46C992.216 1128.43 971.67 1127.78 961.401 1128.6L961.495 1087Z"/><path fill="#FCFCFC" d="M1086.81 878.048C1100.65 878.323 1114.59 877.93 1128.44 878.092C1128.44 891.863 1128.29 905.959 1128.45 919.703C1117.3 918.985 1098.62 919.524 1086.99 919.474L1086.81 878.048Z"/><path fill="#FCFCFC" d="M961.391 418.218C975.284 418.346 989.178 418.377 1003.07 418.312C1003.11 431.672 1003.46 446.522 1002.91 459.763L961.571 459.827C961.39 446.799 961.91 430.783 961.391 418.218Z"/><path fill="#FCFCFC" d="M83.8964 543.789L125.487 543.681C125.493 556.905 125.131 572.231 125.549 585.284C112.933 584.732 96.6751 585.197 83.8106 585.242C83.7487 571.424 83.7773 557.606 83.8964 543.789Z"/><path fill="#FCFCFC" d="M418.249 1045.21C432.064 1045.17 446.035 1045.02 459.838 1045.17C459.753 1056.95 459.21 1075.29 459.904 1086.81C449.298 1086.1 429.43 1086.73 418.211 1086.75L418.249 1045.21Z"/><path fill="#FCFCFC" d="M251.007 710.851C264.918 711.243 278.834 710.636 292.605 711.004L292.679 752.113C280.244 752.9 263.855 752.435 251.003 752.442L251.007 710.851Z"/><path fill="#FCFCFC" d="M752.535 1128.79L794.123 1128.56C794.196 1142.4 794.176 1156.24 794.062 1170.09L752.509 1170.19L752.535 1128.79Z"/><path fill="#FCFCFC" d="M919.415 711.44C928.344 710.266 951.115 710.891 961.375 710.933L961.372 752.473C951.582 751.852 929.846 752.141 919.687 752.487L919.415 711.44Z"/><path fill="#FCFCFC" d="M125.618 1003.4C139.464 1003.29 153.31 1003.3 167.156 1003.41L167.141 1044.72C154 1045.24 138.767 1044.98 125.635 1044.67C125.532 1030.92 125.527 1017.16 125.618 1003.4Z"/><path fill="#FCFCFC" d="M125.599 836.412C139.445 836.296 153.291 836.276 167.136 836.352C167.141 849.208 166.691 865.383 167.209 877.979C163.928 877.618 156.614 877.826 153.068 877.833C143.904 877.813 134.741 877.873 125.578 878.013L125.599 836.412Z"/><path fill="#FCFCFC" d="M418.185 83.8316C418.018 95.4722 417.577 114.23 418.223 125.482C407.144 124.793 388.149 125.419 376.48 125.435L376.456 84.0473C390.039 84.0623 404.688 84.3445 418.185 83.8316Z"/><path fill="#FCFCFC" d="M1086.94 209.404C1100.77 209.306 1114.6 209.297 1128.43 209.378C1128.44 222.175 1127.96 238.594 1128.49 251.107C1116.16 250.445 1099.52 250.791 1086.93 250.919L1086.94 209.404Z"/><path fill="#FCFCFC" d="M125.555 334.763L167.241 334.588C167.168 347.96 167.491 362.916 167.108 376.128C156.974 376.293 134.223 375.519 125.581 376.307L125.555 334.763Z"/><path fill="#FCFCFC" d="M895.883 1003.27L919.518 1003.37L919.488 1044.69C914.22 1044.89 908.743 1044.85 903.456 1044.89C894.995 1044.99 886.534 1044.93 878.075 1044.72C877.805 1030.92 877.798 1017.11 878.054 1003.31L895.883 1003.27Z"/><path fill="#FCFCFC" d="M125.601 669.256L167.157 669.236C167.168 682.849 166.925 697.322 167.2 710.862C153.406 710.432 139.445 710.907 125.657 710.697C125.511 696.884 125.492 683.069 125.601 669.256Z"/><path fill="#FCFCFC" d="M1086.89 710.964C1100.45 710.923 1114.96 710.618 1128.44 711.013C1128.44 724.159 1128.06 739.525 1128.5 752.49C1114.77 752.224 1100.5 752.803 1086.92 752.263L1086.89 710.964Z"/><path fill="#FCFCFC" d="M585.409 878.165C599.154 878.117 613.29 877.901 627.004 878.169L627.019 919.658C613.185 919.245 599.239 919.74 585.403 919.447L585.409 878.165Z"/><path fill="#FCFCFC" d="M418.177 42.2412L459.828 42.2734C459.777 55.9057 459.494 70.2898 459.893 83.8628C456.59 83.4916 449.086 83.6931 445.511 83.6956C436.402 83.6737 427.294 83.719 418.185 83.8316L418.177 42.2412Z"/><path fill="#FCFCFC" d="M669.143 209.414C682.964 209.27 696.787 209.265 710.608 209.4C710.651 222.698 711.02 237.689 710.277 250.84L669.216 250.914C668.817 237.084 668.793 223.245 669.143 209.414Z"/><path fill="#FCFCFC" d="M961.387 83.8677C974.543 84.3632 989.784 83.9885 1003.12 83.9468L1002.98 125.355C989.382 125.425 974.982 125.697 961.436 125.259C961.506 111.462 961.49 97.6644 961.387 83.8677Z"/><path fill="#FCFCFC" d="M543.725 84.0502L585.278 83.91L585.187 125.261C571.86 125.471 556.657 124.989 543.698 125.479C543.561 111.67 543.57 97.8594 543.725 84.0502Z"/><path fill="#FCFCFC" d="M251.133 543.81L292.627 543.707L292.624 585.148C278.788 585.246 264.952 585.235 251.116 585.117C251.007 571.348 251.013 557.579 251.133 543.81Z"/><path fill="#FCFCFC" d="M1086.94 543.797L1128.46 543.752C1128.46 557.31 1128.2 571.797 1128.48 585.275C1115.76 584.831 1099.63 585.081 1086.82 585.305L1086.94 543.797Z"/><path fill="#FCFCFC" d="M669.055 42.2026C682.441 42.523 697.192 42.2238 710.681 42.2191C710.705 56.0595 710.608 69.8998 710.389 83.7385L669.131 83.7106C668.903 69.8757 668.878 56.0382 669.055 42.2026Z"/><path fill="#FCFCFC" d="M292.791 836.388L334.379 836.292C334.427 849.915 334.712 864.351 334.307 877.909L292.83 877.892C292.739 864.057 292.726 850.223 292.791 836.388Z"/><path fill="#FCFCFC" d="M459.91 1128.54C459.515 1141.13 459.506 1157.43 459.844 1170.07C448.083 1170.11 429.414 1169.56 418.223 1170.26L418.193 1128.84C431.754 1128.34 446.101 1128.96 459.91 1128.54Z"/><path fill="#FCFCFC" d="M669.076 961.631L710.573 961.631C710.634 975.425 710.566 989.219 710.37 1003.01C696.596 1003.11 682.82 1003.09 669.045 1002.98C668.962 989.195 668.972 975.413 669.076 961.631Z"/><path fill="#FCFCFC" d="M961.478 669.255L1003.07 669.188C1003.19 683.033 1003.14 696.879 1002.92 710.723L961.532 710.708C961.344 696.891 961.326 683.072 961.478 669.255Z"/><path fill="#FCFCFC" d="M794.327 1003.35C808.16 1003.55 821.955 1003.23 835.914 1003.5L835.806 1044.71C821.974 1044.87 808.141 1044.9 794.309 1044.79L794.327 1003.35Z"/><path fill="#FCFCFC" d="M1004.94 1128.8L1044.92 1128.58C1044.9 1135.06 1045.52 1165.85 1044.4 1170.08L1003.35 1170.12C1003.05 1165.21 1002.82 1132.65 1003.58 1129.43L1004.94 1128.8Z"/><path fill="#FCFCFC" d="M668.949 878.096L710.573 878.111C710.595 891.473 710.903 906.115 710.277 919.369L669.137 919.369L668.949 878.096Z"/><path fill="#FCFCFC" d="M893.028 752.089C900.224 752.915 912.226 752.676 919.687 752.487C919.312 766.389 919.746 780.302 919.484 794.128L877.912 794.133C877.905 787.333 878.292 773.503 877.34 767.432C883.576 762.414 887.753 758.081 893.028 752.089Z"/></svg>