<?xml version="1.0" encoding="utf-8" ?><svg xmlns="http://www.w3.org/2000/svg" xmlns:xlink="http://www.w3.org/1999/xlink" width="1254" height="1254" viewBox="0 0 1254 1254"><path fill="#F6F6F6" d="M0 0L27.0364 0L54.0042 0L81.5387 0L108.949 0L136.55 0L163.934 0L191.351 0L218.616 0L246.288 0L273.667 0L301.34 0L328.802 0L465.964 0L493.55 0L521.01 0L548.431 0L630.402 0L657.771 0L739.976 0L767.35 0L849.842 0L877.404 0L904.718 0L932.42 0L960.036 0L1042.45 0L1124.51 0L1151.87 0L1179.44 0L1206.91 0L1234.58 0L1254 0L1254 28.4766L1254 56.8173L1254 85.1416L1254 113.364L1254 141.941L1254 170.186L1254 255.17L1254 283.356L1254 311.657L1254 339.907L1254 368.087L1254 396.382L1254 424.617L1254 453.097L1254 481.251L1254 509.532L1254 537.809L1254 566.211L1254 594.449L1254 622.544L1254 650.718L1254 678.877L1254 707.203L1254 735.381L1254 763.598L1254 791.965L1254 820.177L1254 848.307L1254 933.143L1254 961.427L1254 1046.24L1254 1074.63L1254 1102.88L1254 1131.05L1254 1159.2L1254 1187.76L1254 1215.98L1254 1244.22L1254 1254L1234.53 1254L1206.85 1254L1179.41 1254L1151.73 1254L1124.58 1254L1097.19 1254L1069.6 1254L1042.53 1254L1014.81 1254L987.475 1254L960.018 1254L932.438 1254L904.613 1254L877.419 1254L849.607 1254L822.304 1254L795.101 1254L767.671 1254L739.883 1254L712.496 1254L630.319 1254L603.029 1254L575.664 1254L548.485 1254L521.066 1254L493.452 1254L466.022 1254L438.51 1254L411.199 1254L383.791 1254L356.136 1254L328.732 1254L301.343 1254L273.652 1254L246.212 1254L218.584 1254L191.335 1254L163.872 1254L136.53 1254L108.922 1254L81.4745 1254L54.0024 1254L27.0314 1254L0 1254L0 1244.22L0 1215.95L0 1187.79L0 1159.19L0 1130.95L0 1102.82L0 1074.44L0 1046.29L0 1017.95L0 933.137L0 904.801L0 876.423L0 848.217L0 820.362L0 791.801L0 763.675L0 735.392L0 707.271L0 678.93L0 594.329L0 566.205L0 481.267L0 453.064L0 424.754L0 396.324L0 368.128L0 339.843L0 311.709L0 283.391L0 255.144L0 226.861L0 141.9L0 113.334L0 85.124L0 56.9138L0 28.5854L0 0Z"/><path fill="#FCFCFB" d="M849.842 0L877.404 0L904.718 0L932.42 0L960.036 0L1042.45 0L1124.51 0L1151.87 0L1179.44 0L1206.91 0L1234.58 0L1254 0L1254 28.4766L1254 56.8173L1254 85.1416L1254 113.364L1254 141.941L1254 170.186L1254 255.17L1254 283.356L1254 311.657L1254 339.907L1254 368.087L1254 396.382L1254 424.617L1254 453.097L1254 481.251L1254 509.532L1254 537.809L1254 566.211L1254 594.449L1254 622.544L1254 650.718L1254 678.877L1254 707.203L1254 735.381L1254 763.598L1254 791.965L1254 820.177L1254 848.307L1254 933.143L1254 961.427L1254 1046.24L1254 1074.63L1254 1102.88L1254 1131.05L1254 1159.2L1254 1187.76L1254 1215.98L1254 1244.22L1254 1254L1234.53 1254L1206.85 1254L1179.41 1254L1151.73 1254L1124.58 1254L1097.19 1254L1069.6 1254L1042.53 1254L1014.81 1254L987.475 1254L960.018 1254L932.438 1254L904.613 1254L877.419 1254L849.607 1254L822.304 1254L795.101 1254L767.671 1254L739.883 1254L712.496 1254L630.319 1254L603.029 1254L575.664 1254L548.485 1254L521.066 1254L493.452 1254L466.022 1254L438.51 1254L411.199 1254L383.791 1254L356.136 1254C356.261 1251.07 356.163 1247.31 356.16 1244.31C365.394 1244.36 374.629 1244.33 383.864 1244.25C383.521 1234.73 383.668 1225.56 383.792 1216.04L411.388 1216.04C410.927 1207.83 411.291 1196.47 411.238 1187.94C420.293 1187.74 429.904 1187.9 439.001 1187.9C438.474 1178.66 438.748 1168.82 438.887 1159.54L465.957 1159.4L466.003 1187.78C475.256 1188.09 484.319 1187.86 493.552 1187.88L493.51 1216C502.7 1215.93 511.891 1215.93 521.081 1215.99L521.002 1187.83L548.468 1187.94C548.47 1196.94 548.232 1207.1 548.509 1216.01C557.584 1216.04 566.66 1215.99 575.735 1215.87C575.605 1206.61 575.672 1197.22 575.663 1187.95L603.336 1187.9C603.065 1178.56 603.224 1168.78 603.246 1159.41C594.611 1159.36 583.236 1160.1 574.567 1159.15C571.62 1158.83 568.171 1158.86 565.251 1158.79C567.548 1158.75 572.93 1158.8 574.915 1158.3C575.19 1157.31 575.125 1133.4 574.917 1131.63C572.36 1130.45 552.881 1130.92 548.551 1130.95C548.207 1121.82 548.438 1111.94 548.494 1102.75L520.98 1102.71L520.981 1131.06L493.548 1130.93L493.491 1159.09C484.537 1159.27 475.161 1159.13 466.175 1159.12C465.932 1149.83 465.898 1140.53 466.075 1131.24L493.765 1131.32C493.05 1113.32 493.486 1092.68 493.518 1074.59L465.964 1074.59C465.988 1076.99 465.903 1079.36 465.836 1081.75C465.213 1079.96 465.352 1076.94 465.301 1074.91C458.28 1075.01 451.259 1074.95 444.241 1074.74L445.144 1074.63C442.966 1074.19 440.974 1074.31 438.733 1074.28L438.722 1046.46C446.133 1046.32 459.184 1046.85 466.061 1045.98C465.91 1036.65 465.916 1027.32 466.076 1017.99L438.722 1017.96L438.722 1046.12C430.239 1046.51 419.942 1046.26 411.322 1046.27C410.958 1055.15 411.168 1065.3 411.156 1074.27C401.973 1074.47 392.787 1074.51 383.603 1074.4L383.603 1046.16C377.189 1046.32 362.435 1046.47 356.253 1045.92C355.965 1055.22 356.115 1065.15 356.104 1074.5L328.837 1074.52C328.703 1083.94 328.679 1093.36 328.766 1102.78C320.335 1102.45 310.027 1102.74 301.451 1102.75L301.242 1074.62C292.126 1074.47 283.008 1074.4 273.891 1074.41C273.847 1067.44 274.14 1054.6 273.488 1048.1C272.826 1055.95 273.077 1065.94 273.088 1073.98C269.101 1073.99 251.328 1073.82 248.583 1074.38C256.514 1074.96 265.643 1074.71 273.705 1074.66C273.696 1083.64 273.437 1093.91 273.732 1102.79C265.589 1102.43 254.828 1102.79 246.483 1102.82C246.131 1093.75 246.333 1083.57 246.325 1074.42L218.804 1074.47C218.434 1065.58 218.674 1055.23 218.674 1046.22C212.181 1046.31 197.128 1046.61 191.34 1045.89C191.227 1055.58 191.668 1064.62 191.216 1074.48L163.992 1074.47L163.804 1102.89L191.59 1102.79C191.045 1094.18 191.277 1083.49 191.253 1074.7L218.637 1074.68L218.608 1102.77C209.565 1102.68 200.522 1102.66 191.479 1102.7C191.508 1112.12 191.417 1121.54 191.208 1130.96C185.815 1130.91 169.722 1131.4 165.199 1130.8C163.765 1129.38 164.212 1129.62 163.806 1127.16L163.603 1127.25C163.521 1128.47 163.466 1128.94 163.291 1130.12C158.661 1131 145.369 1129.76 138.885 1130.72L139.864 1130.7L139.335 1130.91C147.18 1131.31 156.026 1131.17 163.965 1131.19L163.907 1159.1C154.811 1159.22 145.714 1159.23 136.618 1159.14C136.522 1149.74 136.52 1140.33 136.613 1130.93L109.095 1130.93C108.872 1121.56 108.813 1112.18 108.919 1102.8C100.008 1102.57 90.668 1102.68 81.7227 1102.66C81.1947 1094.32 81.5016 1083.21 81.4668 1074.61C89.9858 1074.98 100.352 1074.63 109.007 1074.55C108.683 1065.69 108.974 1055.4 109.021 1046.42C115.225 1046.4 131.465 1046.83 136.564 1046L136.555 1017.97L109.176 1017.96C109.659 1009.83 109.304 998.201 109.303 989.804C118.306 989.552 127.633 989.647 136.664 989.631C136.293 980.681 136.519 970.342 136.51 961.288L109.082 961.2C108.828 951.915 108.821 942.624 109.061 933.338L136.534 933.198C136.599 923.772 136.591 914.346 136.509 904.92L164.097 904.988C164.002 895.568 163.992 886.149 164.068 876.729L191.167 876.696C191.374 886.147 191.438 895.6 191.357 905.052C200.372 904.98 209.619 904.805 218.609 904.994C218.609 914.266 218.744 923.882 218.576 933.123L191.351 933.042L191.402 961.444C200.42 961.438 209.772 961.301 218.761 961.452C218.706 952.251 218.492 942.487 218.719 933.332C227.941 933.221 237.164 933.194 246.387 933.252C246.373 942.289 246.565 952.193 246.302 961.155L239.932 961.449C241.981 961.788 243.797 961.849 245.499 962.88C245.519 965.931 245.374 982.581 245.939 984.407C246.659 978.855 246.359 967.545 246.338 961.479L273.692 961.421C273.698 963.482 273.478 966.973 274.102 968.73C274.299 966.198 274.355 964.47 274.313 961.931C282.103 961.935 292.029 962.181 299.594 961.528C291.157 961.165 282.271 961.26 273.789 961.234L273.815 933.348L301.326 933.186C301.476 923.769 301.461 914.35 301.281 904.934L328.955 904.992C328.633 895.792 328.817 885.779 328.823 876.516C319.673 876.625 310.522 876.618 301.372 876.494C301.22 867.221 301.356 857.6 301.336 848.29C310.53 848.224 319.726 848.233 328.92 848.316C328.77 839.015 328.777 829.711 328.941 820.41C333.764 820.303 352.492 820.841 355.056 819.927C355.817 818.95 356.528 818.215 356.462 816.851C356.061 808.521 355.997 800.042 355.983 791.717L328.759 791.768C328.686 801.128 328.712 810.489 328.837 819.849C319.693 820.155 310.542 820.196 301.396 819.971L301.308 792.064L328.893 792.04C328.584 782.99 328.836 772.649 328.851 763.502L301.44 763.638L301.324 735.431C310.454 735.496 319.585 735.513 328.716 735.482L328.856 763.685C340.049 763.667 366.95 763.945 379.431 763.204C379.903 762.732 380.375 762.26 380.848 761.787C383.09 769.329 385.774 778.432 386.175 786.259C387.071 803.745 386.733 821.669 386.743 839.172L386.697 909.713C386.678 921.94 386.229 934.842 387.332 946.997C387.923 953.508 393.088 956.451 399.077 956.278C414.355 956.496 429.642 956.409 444.925 956.404L528.964 956.364L610.541 956.393C617.293 956.393 640.483 957.556 645.812 955.724C648.609 954.763 650.799 952.82 651.972 950.125C655.252 942.592 653.608 905.544 653.624 894.709L688.418 894.674C702.298 894.7 714.77 895.351 728.415 891.788C790.586 875.551 789.223 812.233 789.378 760.361C838.605 753.94 854.213 736.914 829.344 690.177C824.621 681.301 821.221 670.416 816.347 661.479C810.413 649.318 791.285 655.129 796.156 669.18C801.226 682.606 808.476 696.668 814.368 709.71C820.706 723.737 824.103 730.085 805.809 735.233C782.897 741.679 768.779 732.167 767.606 762.335C764.506 764.492 744.601 763.591 739.984 763.511L739.976 735.437C748.802 735.697 758.617 735.474 767.517 735.46C767.096 726.891 767.382 715.767 767.656 707.128L740.014 707.07C739.734 698.012 739.929 688.068 739.894 678.93L712.628 678.733C711.951 661.219 713.388 641.6 713.335 623.326C719.368 623.368 732.23 623.741 737.563 622.935C735.289 622.348 716.085 622.433 712.41 622.406L712.41 594.276C703.316 594.589 694.212 594.546 685.121 594.149L685.088 679.1C694.194 678.889 703.303 678.866 712.41 679.031L712.41 707.082C703.336 707.014 694.262 707.054 685.189 707.202C685.587 698.76 685.253 687.436 685.247 678.768C676.25 678.94 666.955 678.819 657.934 678.812C657.811 669.408 657.758 660.003 657.775 650.598L630.587 650.767L630.37 678.888L603.269 678.896C602.952 669.9 603.186 659.752 603.201 650.67L575.798 650.578C575.688 641.261 575.672 631.944 575.75 622.628L603.247 622.709C603.075 613.262 603.063 603.812 603.211 594.363C594.016 594.456 584.821 594.41 575.628 594.227L575.668 622.219C567.479 622.766 557.013 622.603 548.651 622.693C548.169 614.152 548.465 603.225 548.473 594.507C557.594 594.477 566.715 594.499 575.836 594.572C575.484 585.623 575.751 575.225 575.775 566.169L548.796 566.22C548.149 561.651 548.889 512.254 549.811 510.364L554.226 509.985L553.882 509.54C551.93 509.553 550.374 509.838 548.826 508.785C547.955 502.223 548.46 487.939 548.609 481.119C539.604 481.326 530.184 481.193 521.147 481.194L521.056 453.141L548.612 453.176C548.303 443.731 548.607 434.343 548.239 424.942C557.2 424.762 566.577 424.903 575.571 424.906C575.593 428.674 575.924 431.621 576.32 435.359C577.593 434.401 575.489 428.587 576.669 425.821C579.543 425.309 598.071 425.039 600.797 425.957C602.495 427.313 602.452 427.568 603.031 429.54L603.227 424.902L630.407 424.87C630.018 430.844 632.208 433.557 625.599 435.414C629.805 435.351 634.127 434.892 638.006 436.406C651.517 441.68 647.787 457.159 633.696 457.754C623.467 458.186 613.425 457.686 603.315 457.744C602.839 465.429 603.017 473.604 603.035 481.335C612.231 481.24 621.428 481.232 630.624 481.313C630.561 479.269 630.225 476.155 630.948 474.373C631.432 477.071 631.361 477.869 631.286 480.659C635.694 480.666 652.667 480.46 655.848 481.016C647.377 481.217 638.902 481.27 630.429 481.175C630.471 490.65 630.452 500.125 630.373 509.6C638.117 509.594 645.763 509.608 653.504 509.724C661.952 509.852 674.162 510.633 682.336 509.779C682.31 509.78 682.284 509.78 682.257 509.781L681.209 509.654C676.387 509.112 663.399 509.376 657.917 509.312C657.645 500.037 657.805 490.85 657.912 481.575C664.03 481.069 676.96 482.568 681.207 480.239C664.323 434.094 681.687 382.411 723.007 355.82C764.327 329.228 818.56 334.837 853.564 369.321C853.66 369.309 853.756 369.297 853.852 369.285C859.106 366.791 870.892 367.855 877.433 367.995C877.388 363.602 876.981 350.931 878.009 347.537C876.158 344.078 876 343.786 875.189 339.887C867.871 339.509 857.443 339.835 849.879 339.829L849.794 324.238C849.39 327.164 849.578 336.443 849.567 339.838C840.594 339.925 831.621 339.94 822.648 339.881C822.405 330.47 822.33 321.055 822.422 311.64C813.998 311.79 805.571 311.727 797.151 311.451C800.049 310.867 817.493 311.057 821.713 311.051C821.671 302.455 821.725 293.859 821.875 285.265C822.544 289.993 822.222 306.234 822.213 311.927C831.338 311.645 840.726 311.783 849.879 311.815C849.483 302.697 849.756 292.663 849.838 283.466L877.466 283.494C877.295 274.248 877.41 264.651 877.395 255.376C885.372 255.249 894.895 255.795 902.636 255.026C901.139 254.46 881.186 254.723 878.045 254.719L878.045 227.777C884.124 227.797 897.135 228.078 902.662 227.313C895.788 226.797 884.343 226.651 877.483 227.071L877.425 199.085C885.138 198.32 896.697 198.666 904.765 198.687C904.773 204.775 904.487 218.872 905.234 224.266C906.417 218.763 905.032 198.008 904.801 192.021C904.522 184.812 904.653 177.334 904.674 170.084L877.439 170.184L877.338 141.986C870.352 141.599 856.751 141.814 849.838 142.057L849.896 113.585C859.041 113.485 868.298 113.563 877.453 113.567L877.381 85.1768C868.192 85.0881 859.002 85.0874 849.814 85.1745C849.929 75.8084 849.817 66.2628 849.8 56.8817C840.746 56.749 831.692 56.6657 822.637 56.6317C822.492 47.3295 822.408 38.0264 822.384 28.723C831.553 28.5877 840.702 28.6954 849.869 28.3644C849.692 18.9105 849.683 9.4542 849.842 0Z"/><path fill="#003B4E" d="M681.207 480.239C664.323 434.094 681.687 382.411 723.007 355.82C764.327 329.228 818.56 334.837 853.564 369.321C884.278 399.578 893.383 445.532 876.526 485.214C859.669 524.897 820.275 550.249 777.175 549.151C734.074 548.053 696.022 520.729 681.207 480.239Z"/><path fill="#FCFCFB" d="M772.498 361.596C818.186 357.56 858.458 391.413 862.335 437.115C866.213 482.816 832.22 522.97 786.506 526.69C741.015 530.391 701.099 496.6 697.241 451.122C693.382 405.644 727.034 365.612 772.498 361.596Z"/><path fill="#003B4E" d="M625.599 435.414C629.805 435.351 634.127 434.892 638.006 436.406C651.517 441.68 647.787 457.159 633.696 457.754C623.467 458.186 613.425 457.686 603.315 457.744C593.247 457.873 576.539 460.774 576.293 446.067C576.239 443.624 577.198 441.267 578.943 439.556C581.247 437.263 585.771 435.529 588.951 435.452C601.095 435.16 613.456 435.436 625.599 435.414Z"/><path fill="#003B4E" d="M875.189 339.887C875.559 338.248 876.197 335.365 877.291 334.07C887.826 321.589 900.202 309.893 912.039 298.623C916.021 294.83 924.608 296.874 927.537 301.904C929.161 304.637 929.561 307.928 928.638 310.971C926.957 316.533 896.394 345.687 889.602 350.282C886.296 352.518 881.013 349.987 878.009 347.537C876.158 344.078 876 343.786 875.189 339.887Z"/><path fill="#003B4E" d="M922.608 435.553C931.276 435.044 971.24 434.166 977.202 436.889C979.725 438.041 981.574 440.266 982.465 442.871C983.451 445.753 983.371 449.437 981.864 452.133C980.097 455.294 977.187 456.578 973.889 457.634C966.785 457.974 925.675 458.334 920.995 456.842C918.38 456.007 916.213 454.151 914.986 451.695C911.23 444.314 915.632 438.316 922.608 435.553Z"/><path fill="#003B4E" d="M673.617 535.938C684.27 537.127 688.144 546.047 681.974 553.675C672.261 565.682 658.606 577.801 647.313 588.606C646.152 589.716 643.681 590.315 642.202 590.644C631.577 589.255 626.725 580.597 633.85 572.059C643.871 560.052 656.582 548.481 668.105 537.87C669.312 536.759 672.031 536.236 673.617 535.938Z"/><path fill="#003B4E" d="M776.989 579.985C778.779 579.849 780.69 579.674 782.461 580.043C785.354 580.646 787.989 582.451 789.479 585.031C792.087 589.544 792.097 635.853 790.232 640.981C788.931 644.56 785.883 646.087 782.593 647.521C781.299 647.55 779.486 647.562 778.23 647.367C775.503 646.932 773.07 645.408 771.488 643.144C767.321 637.191 769.398 596.765 770.09 587.427C770.342 584.038 774.349 581.538 776.989 579.985Z"/><path fill="#003B4E" d="M883.505 534.584C886.538 534.459 890.107 534.401 892.62 536.573C901.175 543.964 908.971 552.357 917.068 560.251C919.839 563.729 925.937 567.994 927.858 571.885C931.668 579.6 926.887 584.979 920.819 587.702C919.144 587.736 917.409 587.819 915.778 587.373C910.254 585.866 879.567 555.198 876.394 549.19C875.308 547.135 875.275 544.439 875.963 542.254C877.166 538.429 880.121 536.37 883.505 534.584Z"/><path fill="#003B4E" d="M380.848 761.787C374.637 743.904 367.651 736.237 357.164 721.484C323.729 674.449 307.824 613.66 317.318 556.505C326.697 497.415 359.395 444.56 408.082 409.787C457.254 374.781 514.966 364.029 573.892 373.896C581.082 375.561 596.695 378.655 602.147 382.595C610.245 394.204 602.172 404.529 591.036 401.245C537.026 385.318 475.704 391.04 426.672 423.815C381.519 453.521 350.338 500.263 340.254 553.363C330.025 604.671 342.512 660.762 371.548 704.036C383.419 721.728 393.466 732.462 401.068 753.55C404.566 763.217 406.863 773.278 407.907 783.505C409.069 794.718 408.875 806.43 408.775 817.729C408.432 856.444 409.163 895.268 408.746 933.974C482.309 932.658 557.664 934.472 631.469 933.821C631.543 923.785 631.526 913.748 631.418 903.713C631.219 877.594 629.421 872.18 658.226 872.264L690.95 872.313C700.203 872.275 708.862 872.451 717.948 871.073C737.466 868.114 754.711 854.691 760.745 835.587C767.878 813.008 766.217 785.836 767.606 762.335C768.779 732.167 782.897 741.679 805.809 735.233C824.103 730.085 820.706 723.737 814.368 709.71C808.476 696.668 801.226 682.606 796.156 669.18C791.285 655.129 810.413 649.318 816.347 661.479C821.221 670.416 824.621 681.301 829.344 690.177C854.213 736.914 838.605 753.94 789.378 760.361C789.223 812.233 790.586 875.551 728.415 891.788C714.77 895.351 702.298 894.7 688.418 894.674L653.624 894.709C653.608 905.544 655.252 942.592 651.972 950.125C650.799 952.82 648.609 954.763 645.812 955.724C640.483 957.556 617.293 956.393 610.541 956.393L528.964 956.364L444.925 956.404C429.642 956.409 414.355 956.496 399.077 956.278C393.088 956.451 387.923 953.508 387.332 946.997C386.229 934.842 386.678 921.94 386.697 909.713L386.743 839.172C386.733 821.669 387.071 803.745 386.175 786.259C385.774 778.432 383.09 769.329 380.848 761.787Z"/><path fill="#FCFCFB" d="M0 424.754L26.8754 424.9C26.8183 434.363 26.8328 443.826 26.9187 453.288C35.8944 453.103 44.8726 453.073 53.8493 453.199L53.979 481.177C45.4878 481.184 35.2949 480.915 26.9481 481.256L26.8841 509.692L54.1951 509.5C54.1823 518.854 54.3034 528.594 53.8833 537.904L81.4923 537.904C81.4887 547.35 81.5874 556.996 81.4394 566.424L109.031 566.332C108.889 556.933 108.877 547.532 108.996 538.133C118.148 538.025 127.301 538.034 136.453 538.161L136.458 566.383C144.899 566.379 155.802 566.7 164.035 566.302C163.891 575.625 163.871 584.949 163.976 594.273C154.843 594.392 145.708 594.43 136.574 594.387C136.372 603.507 136.468 613.047 136.423 622.203C127.086 622.621 118.406 622.456 109.088 622.097C108.761 612.967 108.94 603.599 109.014 594.442C100.109 594.391 90.4721 594.53 81.634 594.207C81.5079 584.866 81.4876 575.524 81.5732 566.183L54.0767 566.209C53.9285 556.804 53.9185 547.398 54.0467 537.993L26.94 537.916C26.8319 547.408 26.8246 556.901 26.918 566.393C35.8979 566.336 44.8782 566.345 53.858 566.421C53.9119 575.547 54.1716 585.457 53.9929 594.517C63.1586 594.354 72.3265 594.353 81.4922 594.514L81.4893 622.327C72.6787 622.532 62.9733 622.869 54.1958 622.234C53.9874 612.934 53.9437 603.632 54.0648 594.331C44.8124 594.434 36.108 594.533 26.8718 594.156L26.9247 622.681L53.9994 622.646C54.1009 632.074 54.0747 641.503 53.9207 650.93C63.0958 650.802 72.2721 650.788 81.4476 650.886L81.4972 678.948C89.7667 679.013 100.938 679.378 109.011 678.986C108.937 688.393 108.929 697.8 108.986 707.207C116.991 707.295 128.779 707.69 136.538 707.213C136.375 716.597 136.361 725.983 136.497 735.367C145.376 735.758 154.989 735.556 163.938 735.519L163.785 763.47L136.546 763.616C136.454 773.085 136.418 782.553 136.437 792.022L164.009 792.022C163.954 801.383 163.641 810.504 163.829 819.912C156.081 820.442 144.596 820.074 136.515 820.071L136.434 848.289L163.969 848.257C163.899 857.589 163.891 866.921 163.945 876.252C154.448 876.691 146.058 876.59 136.583 876.338C136.522 866.911 136.535 857.484 136.62 848.057C127.535 848.256 118.103 848.117 108.99 848.099C108.923 838.861 108.934 829.622 109.022 820.385L136.646 820.188C136.481 810.789 136.568 801.168 136.553 791.75L109.048 791.681C108.728 782.68 108.924 772.697 108.923 763.624C102.457 763.117 88.8563 763.511 81.8176 763.506C81.1959 754.78 81.4507 744.22 81.4772 735.312L54.2335 735.306C53.6863 727.218 54.0132 715.564 54.0013 707.21C44.9778 707.117 35.9537 707.116 26.9302 707.206C26.6439 715.524 26.7068 726.87 26.9893 735.323C35.4297 735.536 45.741 735.767 54.123 735.432C54.2064 744.829 54.1537 754.227 53.9651 763.622C47.6504 763.104 33.863 763.655 26.9894 763.591C26.839 772.937 26.769 782.285 26.7793 791.632C17.8539 791.802 8.92679 791.858 0 791.801L0 763.675L0 735.392L0 707.271L0 678.93L0 594.329L0 566.205L0 481.267L0 453.064L0 424.754Z"/><path fill="#FCFCFB" d="M0 1159.19C7.30716 1159.28 19.9 1159.87 26.8439 1159.5C26.8633 1168.75 26.7057 1178.65 26.9668 1187.84L54.0046 1187.94C54.0495 1197.13 54.2431 1206.82 54.0057 1215.96L81.4018 1216.02C81.4678 1225.29 81.6709 1234.98 81.4615 1244.22C89.8846 1244.32 100.7 1244.63 109.023 1244.2C108.929 1234.79 108.92 1225.38 108.995 1215.97C118.179 1216.03 127.364 1216.03 136.548 1215.99C136.445 1225.4 136.429 1234.82 136.5 1244.23C144.736 1244.3 155.89 1244.66 164.032 1244.19C163.95 1234.81 163.963 1225.42 164.071 1216.03C173.22 1215.96 182.369 1215.96 191.517 1216.05C190.869 1209.89 191.264 1194.48 191.277 1187.91C200.282 1187.79 209.509 1187.88 218.534 1187.87C218.518 1190.12 218.59 1192.37 218.75 1194.61C219.727 1193.76 218.672 1191.47 219.667 1188.57C227.957 1188.55 236.212 1188.62 244.489 1188.13C241.834 1187.64 222.674 1187.63 218.79 1187.58C218.519 1178.39 218.706 1168.86 218.773 1159.64C228.257 1159.35 236.803 1159.19 246.278 1159.38C246.398 1168.92 246.358 1178.46 246.158 1188L273.746 1187.83L273.799 1159.25C279.738 1159.32 296.184 1159.85 301.178 1159.26L301.238 1187.82C309.593 1187.94 320.565 1188.25 328.825 1187.8C328.665 1197.19 328.641 1206.58 328.752 1215.96C337.419 1215.98 347.718 1216.28 356.247 1215.97C356.106 1225.35 356.049 1234.73 356.077 1244.11C346.987 1244.07 337.897 1244.1 328.808 1244.21C328.735 1247.47 328.709 1250.74 328.732 1254L301.343 1254L273.652 1254L246.212 1254L218.584 1254L191.335 1254L163.872 1254L136.53 1254L108.922 1254L81.4745 1254L54.0024 1254L27.0314 1254L0 1254L0 1244.22L0 1215.95L0 1187.79L0 1159.19Z"/><path fill="#FCFCFB" d="M0 876.423C8.57707 876.485 18.4201 876.77 26.894 876.432C26.7955 885.402 26.5926 896.068 26.9727 904.953L53.9203 904.918C53.9698 914.017 54.2414 924.183 53.9524 933.198C44.9184 933.08 35.8836 933.027 26.8488 933.04C26.8675 942.439 26.7773 952.054 26.925 961.433C35.8439 961.409 45.1259 961.521 54.0121 961.343L54.0152 989.412C45.0229 989.621 35.9308 989.937 26.9492 989.657L26.8831 1018.31C28.8977 1018.24 32.0544 1017.9 33.821 1018.58C31.1709 1018.92 30.2409 1018.94 27.5537 1018.87C27.5402 1024.96 27.728 1032.61 27.2595 1038.56C26.9345 1031.54 26.9767 1025 27.0235 1017.98L0 1017.95L0 933.137L0 904.801L0 876.423Z"/><path fill="#FCFCFB" d="M81.5387 0L108.949 0L108.939 28.7496L136.506 28.5614L136.493 56.9157C145.645 56.8699 154.798 56.9162 163.95 57.0544C163.813 60.6879 164.138 83.2912 163.733 84.5456C162.001 85.8815 140.847 84.9367 136.551 85.1365C136.017 92.5377 136.433 105.538 136.433 113.36C127.322 113.404 118.211 113.383 109.1 113.296C108.915 103.924 108.882 94.5485 109.001 85.1747L81.7906 85.016C81.207 76.8499 81.4813 65.2987 81.4594 56.9264C90.6019 56.9555 99.9145 57.078 109.042 56.9689C108.921 47.458 108.929 37.9459 109.064 28.4352C100.012 28.4541 90.9594 28.418 81.9074 28.327C81.2042 20.0419 81.5126 8.57669 81.5387 0Z"/><path fill="#FCFCFB" d="M0 141.9L26.9253 142.06C26.9183 151.413 26.8141 160.93 26.9171 170.266C35.9488 170.165 44.9814 170.175 54.0128 170.295C54.1001 179.762 54.0637 189.23 53.9037 198.696L26.9464 198.695C26.9018 207.781 26.6335 218.044 26.9705 227.036C19.2772 226.591 8.00978 226.881 0 226.861L0 141.9Z"/><path fill="#FCFCFB" d="M0 1046.29L26.8581 1046.38C26.7759 1055.77 26.81 1065.16 26.9604 1074.56C35.9618 1074.7 44.9649 1074.72 53.9668 1074.61C54.182 1083.99 54.1974 1093.39 54.0128 1102.78L26.9872 1102.8C26.911 1112.18 26.8841 1121.56 26.9064 1130.95L0 1130.95L0 1102.82L0 1074.44L0 1046.29Z"/><path fill="#FCFCFB" d="M0 28.5854L26.927 28.7279C26.8931 37.4467 26.5491 48.4374 26.9592 56.9747C35.8892 56.963 44.9337 56.8735 53.8528 56.9642C54.0367 66.3337 54.055 75.7057 53.9076 85.0758C45.352 85.0685 35.3955 84.803 26.9605 85.09C26.7921 94.4878 26.7813 103.888 26.9279 113.286C17.9522 113.362 8.97599 113.378 -2.17534e-15 113.334L0 85.124L0 56.9138L0 28.5854Z"/><path fill="#FCFCFB" d="M0 255.144L26.8876 255.34C26.8392 264.691 26.8529 274.042 26.9287 283.392C34.1452 283.421 45.2372 283.163 52.1318 283.764C44.314 284.334 35.4892 284.125 27.5537 284.109L27.5537 311.051C31.9306 311.057 48.94 310.841 52.1222 311.391C43.6156 311.778 35.0107 311.342 26.9386 311.717C26.5956 320.864 26.8242 330.633 26.8929 339.835L0 339.843L0 311.709L0 283.391L0 255.144Z"/><path fill="#FCFCFB" d="M109.053 1159.48L136.512 1159.33L136.436 1187.91C145.432 1187.66 154.918 1187.91 164.035 1187.78C163.889 1197.16 163.862 1206.54 163.952 1215.93C155.171 1215.93 145.23 1215.7 136.548 1215.99C136.435 1206.6 136.544 1197.03 136.563 1187.62C127.524 1187.84 118.179 1187.72 109.114 1187.72C108.852 1178.31 108.832 1168.89 109.053 1159.48Z"/><path fill="#FCFCFB" d="M328.766 1102.78C337.816 1102.81 347.097 1102.73 356.126 1102.89L356.119 1131.08C365.251 1131.1 374.62 1131.01 383.73 1131.2C383.725 1140.44 383.799 1149.8 383.662 1159.03C374.57 1159.16 365.476 1159.18 356.384 1159.09C355.998 1149.8 356.118 1140.23 356.13 1130.91C348.853 1130.92 335.599 1130.51 328.809 1131.05C329.078 1122.14 328.792 1111.8 328.766 1102.78Z"/><path fill="#FCFCFB" d="M685.189 707.202C684.736 715.149 685.121 726.72 685.141 734.939C676.724 735.633 666.284 735.379 657.826 735.25C657.993 744.348 657.737 754.275 657.711 763.443C648.696 763.561 639.681 763.583 630.665 763.508C629.956 755.506 630.402 743.767 630.547 735.565L657.89 735.482C657.675 726.1 657.726 716.713 658.043 707.334C667.079 707.148 676.125 707.378 685.189 707.202Z"/><path fill="#FCFCFB" d="M163.973 538.074C172.954 537.967 182.496 537.699 191.432 537.861C191.369 547.019 191.095 557.334 191.319 566.388L218.565 566.425C218.586 575.616 218.693 584.958 218.576 594.135C209.544 594.362 200.508 594.411 191.473 594.283C191.341 584.92 191.294 575.557 191.332 566.193C182.653 566.216 172.596 565.985 164.035 566.302L163.973 538.074Z"/><path fill="#FCFCFB" d="M877.439 170.184C877.049 178.759 877.376 189.726 877.267 198.617C868.279 198.803 859.009 198.665 849.997 198.636C849.79 189.179 849.728 179.72 849.814 170.261C859.022 170.289 868.231 170.263 877.439 170.184Z"/><path fill="#FCFCFB" d="M218.608 1102.77L246.464 1102.84C246.383 1112.16 246.429 1121.76 246.193 1131.05C238.494 1131.12 225.513 1130.54 218.644 1131.07L218.608 1102.77Z"/><path fill="#FCFCFB" d="M521.01 0L548.431 0L548.446 28.1785C539.504 28.8915 530.059 28.5608 521.102 28.1547C521.013 18.7701 520.982 9.38499 521.01 0Z"/><path fill="#FCFCFB" d="M739.976 0L767.35 0C767.366 9.44222 767.324 18.8845 767.226 28.3262C758.373 28.5795 748.924 28.4401 740.025 28.4569C739.839 19.1653 739.99 9.33626 739.976 0Z"/><path fill="#FCFCFB" d="M136.55 0L163.934 0C163.848 9.50474 163.856 19.0101 163.958 28.5147C155.17 28.2422 145.559 28.3686 136.669 28.2327C136.322 19.2849 136.551 9.04431 136.55 0Z"/><path fill="#FCFCFB" d="M54.0517 28.7733C63.5098 28.4821 72.1644 28.6516 81.5801 28.6831L81.4594 56.9264C72.466 56.6766 63.1282 56.8048 54.1035 56.8162C54.0009 47.4689 53.9836 38.1209 54.0517 28.7733Z"/><path fill="#FCFCFB" d="M630.402 0L657.771 0C657.643 9.45376 657.642 18.9088 657.768 28.3626C648.723 28.5902 639.674 28.5366 630.634 28.2017C630.339 18.8042 630.262 9.40109 630.402 0Z"/><path fill="#FCFCFB" d="M465.964 0L493.55 0L493.478 28.1461C484.348 28.3914 475.214 28.431 466.082 28.2651C465.947 18.844 465.908 9.42185 465.964 -1.08767e-15L465.964 0Z"/><path fill="#FCFCFB" d="M301.34 0L328.802 0L328.824 28.2454C319.706 28.5934 310.578 28.5841 301.461 28.2175C301.241 18.9661 301.36 9.28526 301.34 0Z"/><path fill="#FCFCFB" d="M246.288 0L273.667 0L273.652 28.3608C264.65 28.7442 255.635 28.6926 246.638 28.206C246.016 19.9635 246.305 8.49173 246.288 0Z"/><path fill="#FCFCFB" d="M54.0574 1159.53C63.1812 1159.35 72.3078 1159.39 81.4295 1159.65C81.4955 1169.04 81.5106 1178.43 81.4749 1187.82C72.4767 1187.74 63.4781 1187.7 54.4795 1187.71C53.671 1179.4 53.9581 1168.06 54.0574 1159.53Z"/><path fill="#FCFCFB" d="M328.913 1159.54C337.972 1159.36 347.034 1159.33 356.094 1159.46L356.169 1187.66L328.825 1187.8C328.759 1178.38 328.788 1168.96 328.913 1159.54Z"/><path fill="#FCFCFB" d="M493.551 424.936C502.696 424.789 511.844 424.781 520.99 424.912L521.056 453.141C512.011 453.018 502.964 452.979 493.918 453.024C493.423 443.709 493.536 434.272 493.551 424.936Z"/><path fill="#FCFCFB" d="M109.046 876.842L136.444 876.634L136.509 904.92C127.818 904.542 117.875 904.779 109.087 904.804C108.878 895.485 108.865 886.162 109.046 876.842Z"/><path fill="#FCFCFB" d="M54.1951 1046.39L81.5054 1046.37L81.4668 1074.61C72.309 1074.38 63.2265 1074.67 54.1158 1074.49C53.8858 1064.84 54.2871 1055.85 54.1951 1046.39Z"/><path fill="#FCFCFB" d="M493.605 1159.35C502.653 1159.66 511.911 1159.5 520.98 1159.43C520.983 1168.76 520.826 1178.55 521.002 1187.83L493.741 1187.73C493.434 1178.21 493.536 1168.87 493.605 1159.35Z"/><path fill="#FCFCFB" d="M273.778 876.832C282.841 876.674 292.321 876.366 301.339 876.801C301.282 886.012 301.068 895.769 301.281 904.934L273.881 904.751C273.64 895.447 273.605 886.138 273.778 876.832Z"/><path fill="#FCFCFB" d="M849.872 227.103C858.965 226.813 868.346 227.072 877.483 227.071C877.084 235.613 877.31 246.233 877.238 254.924C868.28 255.127 858.889 255.003 849.896 255.019C849.795 245.714 849.787 236.408 849.872 227.103Z"/><path fill="#FCFCFB" d="M108.952 650.834L136.585 650.836L136.451 678.904C128.547 678.898 116.585 678.507 109.011 678.986L108.952 650.834Z"/><path fill="#FCFCFB" d="M191.351 0L218.616 0L218.583 28.2157C209.787 28.6233 200.347 28.436 191.486 28.4039C191.119 19.4853 191.36 9.03438 191.351 0Z"/><path fill="#FCFCFB" d="M273.732 1102.79C282.924 1102.9 292.117 1102.92 301.31 1102.86L301.206 1130.97C292.112 1131.01 283.017 1130.98 273.924 1130.86C273.736 1121.74 274.062 1111.58 273.732 1102.79Z"/><path fill="#FCFCFB" d="M54.0128 1102.78L81.5281 1102.84C81.5451 1112.01 81.726 1121.81 81.4245 1130.92L54.1779 1130.99C53.9546 1121.59 53.8995 1112.18 54.0128 1102.78Z"/><path fill="#FCFCFB" d="M81.4749 1187.82C90.6314 1187.9 99.7884 1187.92 108.945 1187.89L108.995 1215.97C100.455 1215.68 90.4501 1215.94 81.792 1215.93C81.1883 1207.55 81.5908 1196.56 81.4749 1187.82Z"/><path fill="#FCFCFB" d="M27.0364 0L54.0042 0C54.22 9.32942 54.0045 18.8506 53.8831 28.197C45.1823 28.9315 35.7964 28.4995 27.0462 28.2321L27.0364 0Z"/><path fill="#FCFCFB" d="M164.063 1159.65C172.94 1159.53 182.328 1159.24 191.166 1159.34C191.353 1168.78 191.342 1178.22 191.134 1187.66C183.091 1187.67 171.802 1187.34 164.035 1187.78C163.968 1178.4 163.978 1169.03 164.063 1159.65Z"/><path fill="#FCFCFB" d="M81.6086 622.735L108.897 622.659L108.952 650.834C99.8484 650.505 90.7278 650.764 81.6453 650.56C81.4476 641.286 81.4354 632.01 81.6086 622.735Z"/><path fill="#FCFCFB" d="M356.304 1187.97C365.442 1187.88 374.581 1187.86 383.719 1187.92C383.748 1197.07 383.941 1206.83 383.688 1215.94L356.247 1215.97L356.304 1187.97Z"/><path fill="#FCFCFB" d="M822.359 142.14L849.838 142.057C849.361 150.01 849.726 161.869 849.719 170.118L822.499 170.152L822.359 142.14Z"/><path fill="#FCFCFB" d="M53.9651 763.622L81.4939 763.777C81.4849 773.044 81.5728 782.497 81.4256 791.747L54.0588 791.77L53.9651 763.622Z"/><path fill="#FCFCFB" d="M136.593 679.052L163.952 678.988L163.948 707.075C156.716 707.047 143.164 706.614 136.538 707.213L136.593 679.052Z"/><path fill="#FCFCFB" d="M53.9524 933.198C63.1314 933.273 72.3109 933.29 81.4901 933.247L81.5028 961.184C72.4136 961.368 63.3216 961.371 54.2322 961.194C53.8756 951.789 54.2909 942.311 53.9524 933.198Z"/><path fill="#FCFCFB" d="M849.814 85.1745C849.453 93.7849 849.786 104.481 849.824 113.247C840.69 113.303 831.555 113.292 822.421 113.214L822.356 85.308C831.509 85.364 840.662 85.3195 849.814 85.1745Z"/><path fill="#FCFCFB" d="M218.644 1131.07C218.512 1140.31 218.623 1149.82 218.615 1159.09C213.427 1159.19 195.897 1159.77 191.347 1158.69C191.242 1149.6 191.236 1140.51 191.329 1131.41C200.327 1131.07 209.611 1131.14 218.644 1131.07Z"/><path fill="#FCFCFB" d="M328.809 1131.05C328.377 1139.09 328.79 1150.75 328.826 1159.06C319.911 1159.28 310.383 1159.11 301.422 1159.1L301.374 1131.37C310.343 1130.94 319.75 1131.24 328.809 1131.05Z"/><path fill="#FCFCFB" d="M26.9705 227.036C36.1226 227.179 44.9437 226.384 53.937 227.096C53.9994 236.407 53.9911 245.718 53.9123 255.029C44.9561 255.197 35.9971 255.144 27.0435 254.872C27.0017 246.044 27.2738 235.687 26.9705 227.036Z"/><path fill="#FCFCFB" d="M0 368.128L26.8491 368.315C26.8666 377.547 26.7938 386.922 26.9093 396.139C17.9416 396.377 8.97011 396.438 1.08767e-15 396.324L0 368.128Z"/><path fill="#FCFCFB" d="M-4.35069e-15 820.362C8.93725 820.191 17.8771 820.208 26.8136 820.415C26.7881 829.404 26.5916 839.096 26.9461 848.023L0 848.217L0 820.362L-4.35069e-15 820.362Z"/><path fill="#FCFCFB" d="M573.892 373.896C576.023 372.622 575.792 372.472 575.693 369.784C577.817 367.383 598.344 368.27 602.82 368.295C602.82 373.483 602.15 378.199 602.147 382.595C596.695 378.655 581.082 375.561 573.892 373.896Z"/><path fill="#FCFCFB" d="M108.933 424.965C118.146 424.896 127.36 424.875 136.573 424.903C136.444 434.311 136.422 443.72 136.507 453.128L163.827 453.117C164.173 462.383 163.553 472.335 164.021 481.309L191.277 481.337C191.329 490.675 191.317 500.013 191.243 509.351L164.019 509.423C163.754 518.626 163.928 528.418 163.947 537.669L136.654 537.846C136.384 528.65 136.523 518.755 136.485 509.505C128.062 509.145 117.583 509.428 108.998 509.42C108.878 500.025 108.877 490.629 108.994 481.234C100.739 480.864 90.0855 481.177 81.6459 481.178C81.3598 471.834 81.5942 462.582 81.7628 453.24C90.7193 453.041 100.023 453.12 109.009 453.079L108.933 424.965Z"/><path fill="#FCFCFB" d="M273.782 311.766C282.883 311.776 292.178 311.684 301.26 311.815C301.264 321.078 301.121 330.737 301.285 339.965L328.721 340.107L355.445 340.129C355.637 349.729 356.13 357.887 356.061 367.774C347.317 367.726 337.527 367.475 328.872 367.828C320.415 368.261 309.921 368.038 301.308 368.088L301.205 396.326L273.795 396.22L273.828 368.033L246.744 367.952C246.222 358.686 246.324 349.553 246.385 340.279C255.266 339.94 264.819 340.053 273.766 339.99L273.782 311.766Z"/><path fill="#FCFCFB" d="M109.075 255.352L136.467 255.326C136.476 264.574 136.627 274.252 136.411 283.464C143.854 283.474 157.052 283.918 164.025 283.403C163.908 292.556 163.705 302.62 163.995 311.752C155.81 311.241 145.318 311.787 136.561 311.506C127.945 311.305 117.487 311.157 108.94 311.572C100.193 311.822 90.6997 311.619 81.8971 311.59C81.2629 302.566 81.5417 292.594 81.6124 283.467C90.7407 283.535 99.8694 283.487 108.996 283.323C108.853 273.999 108.88 264.674 109.075 255.352Z"/><path fill="#FCFCFB" d="M164.015 339.928C163.862 349.275 163.83 358.623 163.92 367.971L136.453 367.98L136.432 396.331L109.056 396.169C108.885 386.77 108.886 377.369 109.056 367.97C100.642 368.016 91.8429 368.184 83.4662 367.871C84.9779 366.945 104.921 367.363 108.378 367.383C108.34 360.185 107.965 347.966 108.723 341.232C109.19 349.529 108.929 359.852 108.923 368.303C118.156 368.15 127.391 368.158 136.623 368.325C136.453 359.113 136.595 349.608 136.624 340.372C145.494 339.944 155.755 340.647 164.015 339.928Z"/><path fill="#FCFCFB" d="M328.785 113.38C328.688 122.917 328.672 132.455 328.737 141.993C319.575 141.863 310.412 141.836 301.249 141.91L301.21 170.082C292.616 170.104 282.183 169.842 273.746 170.211C274.007 161.437 273.756 150.86 273.719 142.008C282.796 142.169 292.209 141.931 301.313 141.815C301.383 132.46 301.387 123.104 301.324 113.748C309.187 113.063 320.291 113.662 328.785 113.38Z"/><path fill="#FCFCFB" d="M191.328 283.523L218.588 283.441C218.594 292.551 218.81 302.529 218.564 311.565C209.521 311.685 200.476 311.677 191.433 311.541C191.45 320.869 191.6 330.561 191.128 339.843C182.671 339.851 172.313 339.571 164.015 339.928L163.995 311.752L191.47 311.765C191.279 302.276 191.485 292.9 191.328 283.523Z"/><path fill="#FCFCFB" d="M438.722 594.546C447.822 594.423 456.924 594.409 466.024 594.504L465.981 622.649C475.036 622.507 484.463 622.686 493.546 622.735C493.568 632.067 493.522 641.398 493.408 650.729C484.31 650.763 475.212 650.663 466.117 650.427C465.918 641.087 465.907 631.743 466.084 622.402C457.017 622.424 447.95 622.392 438.884 622.306C438.424 613.951 438.724 603.088 438.722 594.546Z"/><path fill="#FCFCFB" d="M54.0239 198.998L81.5583 198.79C81.6126 208.253 81.5595 217.717 81.3992 227.179C90.6732 226.978 99.6253 226.744 108.897 227.018C108.979 233.963 109.45 248.427 108.696 254.971C99.8909 255.267 90.4846 255.105 81.626 255.088C81.3478 245.963 81.5419 236.07 81.5604 226.887C72.6311 227.057 63.3851 226.93 54.4307 226.921C53.687 218.624 53.9993 207.556 54.0239 198.998Z"/><path fill="#FCFCFB" d="M191.412 735.54C200.479 735.592 209.547 735.561 218.615 735.445L218.548 763.962C224.082 763.41 241.033 763.279 246.4 763.914L246.158 791.682L218.855 791.778C218.514 782.427 218.698 772.844 218.769 763.468L191.6 763.561C191.267 754.367 191.403 744.771 191.412 735.54Z"/><path fill="#FCFCFB" d="M603.116 735.339C603.016 744.759 603.227 754.236 603.064 763.614C595.204 763.132 583.803 763.493 575.678 763.505L575.618 791.715C566.729 791.619 557.562 791.763 548.648 791.79C548.255 782.75 548.455 773.015 548.497 763.908C555.619 763.321 568.41 763.698 575.954 763.688C575.277 756.211 575.681 743.444 575.743 735.548C584.747 735.539 594.155 735.659 603.116 735.339Z"/><path fill="#003B4E" d="M776.981 235.25C784.659 234.687 790.993 237.613 790.952 246.359C790.872 263.285 792.065 281.522 790.277 298.338C789.937 301.534 785.584 304.15 783.025 305.461C765.685 306.527 768.692 286.945 769.267 274.469C769.874 261.315 764.803 241.887 776.981 235.25Z"/><path fill="#003B4E" d="M636.871 298.295C639.255 298.066 641.865 297.71 644.203 298.428C648.402 299.718 680.124 331.392 682.773 336.343C683.978 338.594 684.192 341.961 683.419 344.377C682.232 348.085 679.51 350.045 676.148 351.668C666.398 353.235 660.469 343.951 653.855 337.641C646.609 330.728 638.838 323.025 632.297 315.499C626.657 309.01 630.45 302.419 636.871 298.295Z"/><path fill="#FCFCFB" d="M466.157 113.545C475.155 113.297 484.504 113.539 493.535 113.658C493.584 123.062 493.553 132.466 493.443 141.869L466.188 141.951C465.978 132.483 465.968 123.013 466.157 113.545Z"/><path fill="#FCFCFB" d="M218.723 28.6686C227.36 28.3261 237.657 28.5701 246.387 28.5725L246.258 56.7501L218.844 56.8711C218.504 47.6172 218.678 37.9638 218.723 28.6686Z"/><path fill="#FCFCFB" d="M218.756 142.104C227.966 142.022 237.177 142.004 246.388 142.049C246.403 151.414 246.335 160.779 246.181 170.143C237.103 170.234 227.889 170.122 218.8 170.09C218.414 161.383 218.714 150.939 218.756 142.104Z"/><path fill="#FCFCFB" d="M531.011 113.591C536.59 113.418 542.835 113.537 548.468 113.516L548.416 141.848L539.511 141.889L521.089 141.967C520.908 132.575 520.919 123.18 521.12 113.788L531.011 113.591Z"/><path fill="#FCFCFB" d="M273.746 170.211C273.467 179.254 273.682 189.401 273.673 198.532C264.602 198.714 255.528 198.721 246.457 198.55C246.17 189.273 246.335 179.602 246.37 170.29L273.746 170.211Z"/><path fill="#FCFCFB" d="M81.5405 113.611L108.912 113.52L108.98 141.988C99.8388 141.842 90.6961 141.815 81.5542 141.908L81.5405 113.611Z"/><path fill="#FCFCFB" d="M493.574 28.6608C502.021 28.6089 512.686 28.8338 520.949 28.3348L521.032 56.9294C511.916 56.8506 502.799 56.8194 493.682 56.8357C493.512 47.4451 493.476 38.0525 493.574 28.6608Z"/><path fill="#FCFCFB" d="M411.356 170.292C418.888 170.205 431.54 169.851 438.71 170.59C438.699 179.956 438.635 189.322 438.519 198.687C429.483 198.799 420.445 198.736 411.411 198.497C411.302 189.096 411.283 179.694 411.356 170.292Z"/><path fill="#FCFCFB" d="M218.677 424.989C227.913 424.851 237.151 424.842 246.387 424.963C246.451 434.308 246.402 443.654 246.241 452.998L218.792 452.986C218.695 443.654 218.657 434.321 218.677 424.989Z"/><path fill="#FCFCFB" d="M493.554 876.576C502.696 876.483 511.839 876.499 520.98 876.623L520.974 904.896C511.936 904.922 502.75 905.037 493.732 904.695C493.344 895.607 493.536 885.73 493.554 876.576Z"/><path fill="#FCFCFB" d="M632.33 113.529C640.774 113.562 649.218 113.552 657.662 113.5C657.617 117.938 658.234 138.54 657.364 141.575L655.931 141.903C647.548 141.955 639.041 141.838 630.647 141.797C630.423 136.469 629.656 118.836 630.807 114.303L632.33 113.529Z"/><path fill="#FCFCFB" d="M218.65 707.225C227.92 707.357 237.191 707.399 246.462 707.349C246.261 716.625 246.201 725.903 246.28 735.18C237.146 735.385 228.008 735.412 218.872 735.262C218.315 726.601 218.707 716.124 218.65 707.225Z"/><path fill="#FCFCFB" d="M246.35 113.857C255.211 113.379 264.794 113.492 273.715 113.509C273.702 122.874 273.538 132.679 273.719 142.008C264.636 141.851 255.551 141.813 246.466 141.895C246.263 132.551 246.225 123.203 246.35 113.857Z"/><path fill="#FCFCFB" d="M218.661 481.246C227.917 481.325 237.174 481.354 246.431 481.335L246.15 509.417C237.865 509.416 226.753 509.078 218.699 509.511L218.661 481.246Z"/><path fill="#FCFCFB" d="M575.727 227.108C584.848 226.944 593.97 226.863 603.092 226.865C603.166 236.25 603.136 245.635 603.001 255.019C593.941 255.175 584.879 255.194 575.819 255.074C575.627 245.753 575.596 236.43 575.727 227.108Z"/><path fill="#FCFCFB" d="M273.835 538.059C282.89 537.89 292.163 537.953 301.236 537.916C301.198 545.494 301.848 558.962 301.036 566.07L273.818 566.201C273.721 556.82 273.727 547.439 273.835 538.059Z"/><path fill="#FCFCFB" d="M367.527 113.606C372.899 113.507 378.305 113.594 383.723 113.488L383.675 141.931L374.271 141.857L356.351 141.809C356.031 132.947 356.239 122.843 356.217 113.885L367.527 113.606Z"/><path fill="#FCFCFB" d="M466.016 678.998L493.529 679.039L493.567 707.227C484.977 706.896 474.901 707.108 466.191 707.07C465.778 698.375 466.03 687.831 466.016 678.998Z"/><path fill="#FCFCFB" d="M577.546 113.582C585.854 113.374 594.664 113.532 603.012 113.557C603.109 121.217 603.516 134.137 602.829 141.467L601.915 141.881L575.777 141.885C575.686 137.271 575.045 118.035 576.229 114.253L577.546 113.582Z"/><path fill="#FCFCFB" d="M301.273 56.9296C310.279 56.9291 319.754 56.8338 328.726 57.0535L328.811 85.1735C320.427 84.8404 309.815 85.0677 301.28 85.1401C301.446 75.7373 301.444 66.3323 301.273 56.9296Z"/><path fill="#FCFCFB" d="M218.763 594.575C227.97 594.382 237.181 594.372 246.388 594.545C246.071 603.797 246.819 612.999 245.907 622.39C236.869 622.538 227.829 622.573 218.789 622.497C218.552 613.325 218.721 603.779 218.763 594.575Z"/><path fill="#FCFCFB" d="M273.81 28.783C282.937 28.7056 292.064 28.684 301.192 28.718C301.206 37.9898 301.071 47.6948 301.273 56.9296C292.262 56.6852 282.955 56.7926 273.918 56.7913C273.711 47.4566 273.675 38.119 273.81 28.783Z"/><path fill="#FCFCFB" d="M301.28 85.1401C301.028 94.1237 301.237 104.162 301.222 113.233C292.077 113.399 282.93 113.434 273.784 113.337L273.759 85.1791C282.03 85.2791 293.106 85.6166 301.28 85.1401Z"/><path fill="#FCFCFB" d="M383.878 142.138C392.989 142.04 402.1 142.028 411.212 142.1C411.323 151.445 411.29 160.791 411.114 170.135C402.232 169.984 392.857 170.168 383.937 170.201C383.439 160.963 383.729 151.412 383.878 142.138Z"/><path fill="#FCFCFB" d="M218.7 820.397C227.932 820.237 237.165 820.224 246.397 820.359C246.445 829.599 246.393 838.839 246.242 848.078C237.436 848.377 227.577 848.166 218.692 848.162C218.533 839.061 218.688 829.532 218.7 820.397Z"/><path fill="#FCFCFB" d="M521.032 56.9294C529.733 56.9159 539.867 56.6652 548.453 57.0538C548.442 66.3096 548.537 75.7851 548.371 85.0209L521.077 85.1328L521.032 56.9294Z"/><path fill="#FCFCFB" d="M521.078 707.153C520.922 716.557 520.913 725.962 521.051 735.365C512.603 735.049 502.201 735.331 493.59 735.362L493.567 707.227C502.737 707.266 511.908 707.241 521.078 707.153Z"/><path fill="#FCFCFB" d="M493.59 735.362C493.604 744.768 493.568 754.174 493.481 763.579C485.429 763.089 474.193 763.477 466.032 763.562L466.03 735.327C473.097 735.538 486.884 735.919 493.59 735.362Z"/><path fill="#FCFCFB" d="M493.6 650.941C502.729 650.803 511.86 650.802 520.99 650.938L521.022 678.998C512.123 678.963 502.575 678.745 493.731 678.922C493.443 669.51 493.524 660.359 493.6 650.941Z"/><path fill="#FCFCFB" d="M492.698 509.747C492.73 509.762 492.771 509.764 492.794 509.791C494.473 511.752 493.511 533.741 493.486 537.882C484.747 537.913 476.008 537.858 467.27 537.717C464.964 535.16 466.103 514.125 466.423 509.75L492.698 509.747Z"/><path fill="#FCFCFB" d="M273.729 509.423C273.43 518.296 273.698 528.638 273.707 537.625C264.251 537.782 256.123 537.938 246.657 537.587C246.065 528.763 246.282 518.594 246.288 509.638C255.408 509.424 264.455 509.719 273.729 509.423Z"/><path fill="#FCFCFB" d="M108.998 509.42C108.555 517.648 108.927 529.425 108.927 537.925L81.8589 537.662C81.0677 530.558 81.5049 517.301 81.5849 509.682C90.5383 509.421 99.9348 509.606 108.998 509.42Z"/><path fill="#FCFCFB" d="M415.019 1074.67L438.716 1074.64C438.745 1079.19 439.484 1100.14 437.723 1102.55L436.114 1102.8C427.869 1102.97 419.622 1102.92 411.38 1102.68C410.998 1097.01 410.922 1081.34 411.359 1075.93C412.518 1074.54 412.601 1074.98 415.019 1074.67Z"/><path fill="#FCFCFB" d="M438.872 538.187C447.921 537.986 456.973 537.967 466.023 538.129L466.019 566.313C456.983 566.18 447.946 566.145 438.909 566.206C438.336 556.938 438.531 547.465 438.872 538.187Z"/><path fill="#FCFCFB" d="M630.456 170.366C639.592 170.261 648.73 170.235 657.867 170.287L657.649 198.488C648.612 198.716 639.571 198.724 630.534 198.512C630.053 190.127 630.371 178.854 630.456 170.366Z"/><path fill="#FCFCFB" d="M493.627 538.043L520.981 538.078L520.967 566.251C512.769 566.234 501.508 565.866 493.559 566.301L493.627 538.043Z"/><path fill="#FCFCFB" d="M273.706 481.26C282.878 481.369 292.129 481.159 301.233 481.318L301.201 509.472C294.079 509.431 280.315 508.918 273.729 509.423C274.061 500.752 273.856 490.031 273.706 481.26Z"/><path fill="#FCFCFB" d="M218.754 85.2903L246.388 85.2725C246.463 94.6152 246.395 103.959 246.183 113.299L218.676 113.359L218.754 85.2903Z"/><path fill="#FCFCFB" d="M108.98 141.988C116.236 142.137 129.318 142.339 136.596 141.925C136.111 150.192 136.443 161.592 136.442 170.094L109.095 170.101C108.952 160.731 108.913 151.359 108.98 141.988Z"/><path fill="#FCFCFB" d="M575.729 57.0146L603.101 56.9283C603.041 66.3153 603.04 75.7025 603.099 85.0895C596.073 85.0764 582.163 84.6151 575.695 85.1448L575.729 57.0146Z"/><path fill="#FCFCFB" d="M328.811 85.1735C337.935 85.2975 347.06 85.3317 356.184 85.2761C356.191 94.623 356.123 103.97 355.98 113.316C347.714 113.407 336.666 113.026 328.785 113.38L328.811 85.1735Z"/><path fill="#FCFCFB" d="M273.762 707.221L301.259 707.341C301.28 716.556 301.414 726.026 301.265 735.22C293.371 735.259 281.437 734.925 273.769 735.393L273.762 707.221Z"/><path fill="#FCFCFB" d="M685.258 113.509C694.333 113.453 703.409 113.454 712.484 113.512L712.416 141.82C703.369 141.91 694.322 141.937 685.275 141.9L685.258 113.509Z"/><path fill="#FCFCFB" d="M246.254 678.99C255.421 679.059 264.59 679.037 273.757 678.924C273.632 688.356 273.634 697.789 273.762 707.221C265.461 706.885 255.223 707.149 246.766 707.129C246.153 698.314 246.281 687.86 246.254 678.99Z"/><path fill="#FCFCFB" d="M273.811 650.921C283.012 650.757 292.215 650.734 301.417 650.851L301.204 678.734L273.757 678.924L273.811 650.921Z"/><path fill="#FCFCFB" d="M207.427 396.468C209.732 396.213 216.014 396.503 218.632 396.561C218.697 405.915 218.66 415.269 218.521 424.622L203.092 424.739C200.157 424.497 194.593 424.638 191.459 424.62C191.141 415.74 191.358 405.616 191.345 396.641L207.427 396.468Z"/><path fill="#FCFCFB" d="M273.809 424.934L301.241 424.865C301.24 433.688 300.94 444.416 301.295 453.078C293.752 452.609 281.584 452.953 273.758 453.094L273.809 424.934Z"/><path fill="#FCFCFB" d="M493.481 763.579C502.649 763.737 511.82 763.746 520.988 763.605L521.016 791.847L493.655 791.783C493.573 782.669 493.781 772.553 493.481 763.579Z"/><path fill="#FCFCFB" d="M739.976 170.337C747.608 170.242 760.172 169.863 767.46 170.583C767.497 179.875 767.408 189.167 767.192 198.456C758.266 198.597 748.843 198.9 739.976 198.382L739.976 170.337Z"/><path fill="#FCFCFB" d="M218.699 509.511C218.261 517.809 218.605 529.149 218.606 537.678C209.599 537.891 200.588 537.858 191.582 537.578C191.153 528.717 191.357 518.577 191.351 509.613C200.467 509.641 209.583 509.607 218.699 509.511Z"/><path fill="#FCFCFB" d="M521.051 735.365C530.17 735.583 539.292 735.605 548.412 735.432C548.59 744.806 548.499 754.184 548.138 763.553L521.108 763.585L521.051 735.365Z"/><path fill="#FCFCFB" d="M164.082 255.345L191.356 255.31L191.335 283.246L164.025 283.403C164.024 274.51 163.757 264.114 164.082 255.345Z"/><path fill="#FCFCFB" d="M301.295 453.078C310.446 453.15 319.596 453.173 328.746 453.146L328.75 481.133L301.689 481.176C300.82 472.518 301.735 461.979 301.295 453.078Z"/><path fill="#FCFCFB" d="M575.711 792.08C584.83 792.023 593.95 792.044 603.068 792.143C603.124 801.45 603.086 810.757 602.954 820.064C593.946 820.02 584.938 820.102 575.933 820.308C575.395 811.747 575.686 800.819 575.711 792.08Z"/><path fill="#FCFCFB" d="M712.614 707.322C721.64 707.221 730.791 707.309 739.828 707.319C740.068 716.331 739.884 726.144 739.892 735.218C730.818 735.417 721.74 735.434 712.665 735.27C712.277 726.249 712.536 716.414 712.614 707.322Z"/><path fill="#FCFCFB" d="M247.593 1131.23C256.291 1131 264.995 1131.05 273.689 1131.39C273.735 1136.25 274.168 1154.8 273.472 1158.46L272.486 1159.06C264.058 1159.25 255.187 1159.11 246.723 1159.1C246.219 1154.33 245.901 1136.17 246.568 1131.73L247.593 1131.23Z"/><path fill="#FCFCFB" d="M273.78 255.362L301.346 255.313L301.205 283.184C292.064 283.309 282.923 283.37 273.782 283.365L273.78 255.362Z"/><path fill="#FCFCFB" d="M657.8 28.8187C666.896 28.6107 675.996 28.5682 685.093 28.6914L685.081 56.7902L657.891 56.8548C657.435 48.609 657.787 37.2942 657.8 28.8187Z"/><path fill="#FCFCFB" d="M136.588 113.806C145.372 113.277 155.063 113.428 163.939 113.404L163.869 141.934C155.833 141.907 144.345 141.503 136.596 141.925L136.588 113.806Z"/><path fill="#FCFCFB" d="M246.402 57.0038C255.507 56.9237 264.612 56.9166 273.717 56.9824C273.724 66.3193 273.626 75.8613 273.759 85.1791L246.723 85.1463C246.074 76.0676 246.331 66.1705 246.402 57.0038Z"/><path fill="#FCFCFB" d="M521.18 509.713C529.969 509.426 539.616 509.595 548.471 509.577L548.373 537.696L521.185 537.735C520.994 528.395 520.992 519.053 521.18 509.713Z"/><path fill="#FCFCFB" d="M712.577 85.255L739.899 85.2352C739.995 94.5642 740.01 103.894 739.943 113.223C730.864 113.448 721.782 113.473 712.702 113.299C712.265 104.013 712.401 94.5443 712.577 85.255Z"/><path fill="#FCFCFB" d="M301.396 283.468L328.716 283.525L328.708 311.578C319.622 311.661 310.536 311.663 301.45 311.582C301.265 302.401 301.412 292.692 301.396 283.468Z"/><path fill="#FCFCFB" d="M273.838 763.736L301.377 763.737C301.097 772.795 301.252 782.674 301.218 791.796C292.266 792.043 282.843 791.776 273.848 791.651C273.763 782.346 273.759 773.041 273.838 763.736Z"/><path fill="#FCFCFB" d="M55.8854 311.849C64.4431 311.775 73.0012 311.77 81.559 311.835C81.5709 317.181 81.9151 334.951 81.1754 339.199L80.2202 339.765C71.6979 339.964 62.7507 339.846 54.1951 339.86C54.1645 335.65 53.7341 315.489 54.6808 312.363L55.8854 311.849Z"/><path fill="#FCFCFB" d="M575.736 679.007L603.052 679.037C603.066 687.99 602.817 698.396 603.148 707.226C595.527 706.895 583.235 706.904 575.707 707.198L575.736 679.007Z"/><path fill="#FCFCFB" d="M54.1459 481.312L81.4187 481.34C81.5473 490.697 81.5531 500.056 81.4362 509.413L54.2579 509.384C53.6741 500.792 54.0019 489.932 54.1459 481.312Z"/><path fill="#FCFCFB" d="M493.559 566.301C493.222 575.014 493.49 585.329 493.499 594.163C484.399 594.404 475.294 594.418 466.193 594.207C465.885 585.102 465.995 575.433 466.019 566.313C472.898 566.509 486.606 566.715 493.559 566.301Z"/><path fill="#FCFCFB" d="M273.809 594.606C282.99 594.454 292.172 594.438 301.353 594.559C301.078 603.56 301.226 613.34 301.188 622.402C292.075 622.421 282.961 622.389 273.848 622.306C273.597 613.42 273.808 603.567 273.809 594.606Z"/><path fill="#FCFCFB" d="M54.1284 255.381L81.4831 255.328C81.5596 263.536 81.8971 275.07 81.2756 283.06C73.3395 283.69 62.2734 283.417 54.3075 283.084C53.7957 274.081 54.0426 264.425 54.1284 255.381Z"/><path fill="#FCFCFB" d="M493.615 255.378C502.738 255.221 511.863 255.213 520.987 255.354L520.986 283.185C511.859 283.185 502.938 283.389 493.719 283.311C493.322 274.633 493.598 264.187 493.615 255.378Z"/><path fill="#FCFCFB" d="M191.332 679.505C195.658 678.494 213.474 678.992 218.57 679.074C218.586 688.146 218.374 698.243 218.65 707.225C209.571 706.924 200.594 707.222 191.555 707.041C191.257 697.866 191.183 688.684 191.332 679.505Z"/><path fill="#FCFCFB" d="M273.758 453.094C273.647 462.482 273.63 471.872 273.706 481.26C265.542 480.889 254.959 481.189 246.605 481.179C246.209 472.202 246.392 462.355 246.394 453.306C255.362 453.058 264.756 453.144 273.758 453.094Z"/><path fill="#FCFCFB" d="M86.5407 1131.17C94.2716 1131.06 101.18 1130.98 108.909 1131.47C108.933 1139.29 109.494 1151.08 108.812 1158.43C107.678 1159.49 107.55 1159.11 105.469 1159.15L81.6657 1159.15C81.4079 1153.23 81.021 1137.25 81.7909 1132.07C83.6675 1130.91 83.9845 1131.3 86.5407 1131.17Z"/><path fill="#FCFCFB" d="M246.417 622.772C255.503 622.664 264.589 622.638 273.675 622.695C273.69 631.163 274.013 642.031 273.457 650.28C264.197 650.682 255.717 650.723 246.439 650.68C245.959 642.605 246.224 630.982 246.417 622.772Z"/><path fill="#FCFCFB" d="M603.164 28.7646C612.228 28.5544 621.296 28.515 630.362 28.6466C630.358 37.2644 630.639 48.1695 630.13 56.6012C621.166 56.8803 611.747 56.5885 603.101 56.9283L603.164 28.7646Z"/><path fill="#FCFCFB" d="M466.073 453.211L493.626 453.1C493.66 462.455 493.58 471.811 493.385 481.165L466.376 481.167C465.771 472.287 465.921 462.098 466.073 453.211Z"/><path fill="#FCFCFB" d="M548.366 651.903C550.821 650.062 571.149 650.755 575.639 650.77C575.666 660.014 575.521 669.813 575.736 679.007C571.357 678.862 551.738 679.282 549.654 678.685C547.373 676.183 548.476 657.42 548.366 651.903Z"/><path fill="#FCFCFB" d="M411.26 622.706C420.403 622.625 429.547 622.618 438.69 622.684C438.616 631.797 438.812 641.482 438.322 650.51C429.361 650.624 420.4 650.638 411.439 650.555C411.012 641.632 411.232 631.712 411.26 622.706Z"/><path fill="#FCFCFB" d="M438.863 707.324C447.554 707.287 457.345 707.038 465.948 707.362L466.03 735.327L439.005 735.254C438.15 726.927 438.598 715.802 438.863 707.324Z"/><path fill="#FCFCFB" d="M273.769 735.393C273.253 742.957 273.63 755.499 273.61 763.442C264.605 763.495 255.6 763.496 246.594 763.445C246.064 755.002 246.129 743.95 246.502 735.454C255.177 735.598 265.192 735.698 273.769 735.393Z"/><path fill="#FCFCFB" d="M521.11 792.033L548.481 792.123L548.389 820.045C539.699 820.314 529.91 820.059 521.142 820.018C520.894 810.945 521.088 801.159 521.11 792.033Z"/><path fill="#FCFCFB" d="M54.1951 424.92L81.4956 424.838C81.5388 434.233 81.5183 443.628 81.4341 453.022L54.1951 453L54.1951 424.92Z"/><path fill="#FCFCFB" d="M822.344 198.941C831.505 198.828 840.666 198.826 849.827 198.934C849.546 207.876 849.783 217.836 849.812 226.853L822.767 226.794C822.026 219.824 822.363 206.397 822.344 198.941Z"/><path fill="#FCFCFB" d="M172.826 368.301C178.149 367.953 185.789 368.2 191.281 368.21C191.363 377.53 191.33 386.851 191.183 396.17L181.548 396.221L164.093 396.313L164.036 368.307L172.826 368.301Z"/><path fill="#FCFCFB" d="M218.905 650.822C227.994 650.83 237.197 650.76 246.276 650.879C246.246 660.166 246.1 669.727 246.254 678.99L218.905 678.724L218.905 650.822Z"/><path fill="#FCFCFB" d="M54.1453 85.2842L81.4332 85.2648C81.5193 94.5789 81.5078 103.894 81.3989 113.207C72.278 113.397 63.1542 113.405 54.033 113.231C54.0025 103.915 54.04 94.5994 54.1453 85.2842Z"/><path fill="#FCFCFB" d="M767.53 85.4226L794.901 85.4226C795.055 94.7188 795.048 104.017 794.881 113.313C785.77 113.402 776.657 113.396 767.546 113.294L767.53 85.4226Z"/><path fill="#FCFCFB" d="M521.022 678.998L548.313 678.991L548.313 706.793C538.985 707.293 529.857 706.725 521.078 707.153L521.022 678.998Z"/><path fill="#FCFCFB" d="M657.928 142.096L685.137 141.969L685.091 170.036L658.158 170.139C657.565 161.182 657.758 151.056 657.928 142.096Z"/><path fill="#FCFCFB" d="M466.032 763.562L466.023 791.821L438.891 791.801C438.541 782.615 438.748 772.931 438.812 763.695C447.885 763.769 456.96 763.725 466.032 763.562Z"/><path fill="#FCFCFB" d="M493.639 594.537L520.98 594.519C521.009 603.803 520.98 613.088 520.894 622.372C511.826 622.605 502.754 622.61 493.687 622.385C493.42 613.214 493.586 603.738 493.639 594.537Z"/><path fill="#FCFCFB" d="M273.793 198.898L301.197 198.872L301.21 226.794C292.315 226.846 282.713 227.071 273.898 226.577C273.58 217.788 273.799 207.779 273.793 198.898Z"/><path fill="#FCFCFB" d="M54.1951 876.791C61.4051 876.212 73.8897 876.584 81.4927 876.579C81.5579 886.061 81.6256 895.204 81.2935 904.676C72.2618 904.855 63.2277 904.879 54.1951 904.748L54.1951 876.791Z"/><path fill="#FCFCFB" d="M438.722 650.935C447.804 650.818 456.886 650.804 465.968 650.894L466.016 678.998L438.833 678.726C438.604 669.464 438.567 660.198 438.722 650.935Z"/><path fill="#FCFCFB" d="M630.432 679.087C639.506 678.962 648.581 678.959 657.654 679.08L657.799 707.059C648.783 707.171 639.622 707.098 630.593 707.11C630.034 698.678 630.378 687.724 630.432 679.087Z"/><path fill="#FCFCFB" d="M273.81 820.411C282.826 820.127 292.236 820.266 301.257 820.402L301.229 848.091C292.37 848.345 283.046 848.163 274.146 848.116C273.393 841.847 273.786 827.367 273.81 820.411Z"/><path fill="#FCFCFB" d="M575.695 85.1448C575.325 93.6694 575.646 104.537 575.652 113.244C566.673 113.354 557.589 113.293 548.6 113.302C548.331 104.249 548.541 94.3704 548.567 85.2571C557.61 85.3571 566.653 85.3196 575.695 85.1448Z"/><path fill="#FCFCFB" d="M411.215 735.445C420.36 735.527 429.506 735.543 438.652 735.493C438.746 744.807 438.702 754.121 438.519 763.433C429.428 763.528 420.337 763.573 411.245 763.567L411.215 735.445Z"/><path fill="#FCFCFB" d="M603.148 707.226L630.426 707.324C630.43 716.609 630.385 725.894 630.292 735.179L603.116 735.339C603.199 725.968 603.21 716.597 603.148 707.226Z"/><path fill="#FCFCFB" d="M521.077 85.1328C520.586 93.0804 520.973 105.12 520.979 113.375L493.945 113.243C493.202 105.1 493.544 93.6827 493.603 85.2565C502.761 85.3456 511.92 85.3044 521.077 85.1328Z"/><path fill="#FCFCFB" d="M191.397 57.0088C200.093 56.7683 209.811 57.0234 218.583 57.0674L218.564 85.0623C209.528 85.1453 200.492 85.1341 191.457 85.0287C191.245 75.8247 191.362 66.2289 191.397 57.0088Z"/><path fill="#FCFCFB" d="M191.343 453.176L218.61 453.147C218.606 461.745 218.268 472.858 218.661 481.246C209.532 481.088 200.525 481.226 191.426 481.155L191.343 453.176Z"/><path fill="#FCFCFB" d="M521.157 848.354L548.313 848.354C548.348 857.632 548.304 866.91 548.18 876.188C539.194 876.563 530.196 876.61 521.206 876.329C520.89 867.096 521.081 857.613 521.157 848.354Z"/><path fill="#FCFCFB" d="M575.707 707.198C575.228 714.794 575.662 727.304 575.68 735.272C566.707 735.377 557.62 735.3 548.637 735.296C548.495 725.981 548.474 716.665 548.575 707.349C557.62 707.39 566.664 707.34 575.707 707.198Z"/><path fill="#FCFCFB" d="M767.53 142.12L794.848 141.972C795.218 150.598 794.871 161.339 794.82 170.122L767.636 170.146C767.296 161.363 767.542 151.023 767.53 142.12Z"/><path fill="#FCFCFB" d="M191.346 792.114C200.437 791.943 209.531 791.981 218.62 792.226L218.586 820.124C209.578 820.078 200.571 820.106 191.564 820.208C191.223 811.093 191.366 801.286 191.346 792.114Z"/><path fill="#FCFCFB" d="M328.831 255.21C337.386 254.903 347.388 255.256 356.049 255.367L356.049 283.346C346.996 283.464 337.941 283.436 328.889 283.262C328.55 274.391 328.807 264.181 328.831 255.21Z"/><path fill="#FCFCFB" d="M493.689 820.429C502.785 820.27 511.883 820.257 520.979 820.39L520.99 848.08C511.99 848.229 502.987 848.23 493.987 848.084C493.149 842.757 493.617 826.694 493.689 820.429Z"/><path fill="#FCFCFB" d="M685.282 283.394L712.41 283.477L712.41 311.642C703.405 311.745 694.294 311.663 685.279 311.649L685.282 283.394Z"/><path fill="#FCFCFB" d="M27.137 1131.16C35.9632 1131.16 45.2155 1130.79 53.9621 1131.44C54.1203 1140.65 54.1429 1149.87 54.03 1159.09C45.033 1159.2 36.0349 1159.21 27.0377 1159.11C26.925 1149.79 26.9581 1140.47 27.137 1131.16Z"/><path fill="#FCFCFB" d="M32.1524 113.512L53.8541 113.528C53.9404 119.945 54.3264 135.552 53.6505 141.371C51.9917 142.118 50.1986 141.859 48.219 141.874L27.0692 141.899C27.0189 136.36 26.5592 119.192 27.3178 114.531C28.6094 113.443 30.3499 113.623 32.1524 113.512Z"/><path fill="#FCFCFB" d="M81.7488 792.194C90.6259 791.903 99.9531 792.06 108.872 792.086L108.944 820.138C99.8782 820.168 90.8128 820.1 81.7488 819.934L81.7488 792.194Z"/><path fill="#FCFCFB" d="M712.59 763.856L739.882 763.856C740.094 772.843 739.779 782.57 739.64 791.615C730.64 791.756 721.639 791.781 712.638 791.692C712.301 782.501 712.503 773.071 712.59 763.856Z"/><path fill="#FCFCFB" d="M191.357 340.056C199.919 340.308 209.899 340.018 218.572 339.982L218.564 367.95C209.518 368.003 200.472 367.994 191.427 367.925C191.11 358.795 191.3 349.23 191.357 340.056Z"/><path fill="#FCFCFB" d="M657.928 763.793C666.678 763.532 676.286 763.702 685.105 763.676L685.107 791.677L658.036 791.782C657.7 782.982 657.939 772.706 657.928 763.793Z"/><path fill="#FCFCFB" d="M81.7488 1018.23C90.8119 1017.94 99.8825 1017.97 108.943 1018.33C109.037 1027.56 108.952 1036.88 108.93 1046.12L81.494 1046.12C81.4565 1036.82 81.5414 1027.52 81.7488 1018.23Z"/><path fill="#FCFCFB" d="M109.008 198.868L136.232 198.871L136.232 226.835C127.188 226.877 118.145 226.85 109.102 226.755C108.791 217.437 108.928 208.187 109.008 198.868Z"/><path fill="#FCFCFB" d="M685.734 227.04C693.978 226.785 704.266 226.685 712.41 227.13L712.41 255.019L685.256 255.019C685.199 249.436 684.708 231.655 685.734 227.04Z"/><path fill="#FCFCFB" d="M163.97 763.705L191.348 763.696C191.369 773.043 191.323 782.39 191.212 791.736L164.111 791.733C163.842 782.661 163.997 772.836 163.97 763.705Z"/><path fill="#FCFCFB" d="M163.961 820.248L191.32 820.437C191.108 829.448 191.254 839.039 191.237 848.095C182.397 848.315 172.995 848.166 164.112 848.173L163.961 820.248Z"/><path fill="#FCFCFB" d="M795.084 56.972C803.998 56.7752 813.286 56.9077 822.23 56.9149L822.233 85.1026C813.244 85.1908 804.087 85.0565 795.084 85.0104L795.084 56.972Z"/><path fill="#FCFCFB" d="M603.064 763.614L630.362 763.718C630.356 772.74 630.554 782.844 630.135 791.772L603.321 791.806C603.086 782.411 603.001 773.012 603.064 763.614Z"/><path fill="#FCFCFB" d="M712.599 311.975L739.781 311.975C739.98 321.291 739.98 330.611 739.782 339.927L712.741 339.809C712.377 330.683 712.554 321.145 712.599 311.975Z"/><path fill="#FCFCFB" d="M356.377 566.411C365.293 566.244 374.652 566.415 383.603 566.447L383.603 594.236L356.369 594.236C356.25 584.961 356.252 575.686 356.377 566.411Z"/><path fill="#FCFCFB" d="M411.373 566.376L438.65 566.4C438.735 575.679 438.713 584.958 438.585 594.236L411.412 594.236C411.098 585.088 411.266 575.531 411.373 566.376Z"/><path fill="#FCFCFB" d="M356.119 622.712C365.28 622.637 374.442 622.623 383.603 622.671L383.595 650.304C375.331 650.834 364.681 650.564 356.232 650.568L356.119 622.712Z"/><path fill="#FCFCFB" d="M548.491 820.431C557.423 820.185 566.719 820.355 575.684 820.404L575.596 848.036C566.61 848.168 557.623 848.223 548.636 848.201C548.34 839.281 548.515 829.423 548.491 820.431Z"/><path fill="#FCFCFB" d="M466.264 311.959L493.245 311.961C493.258 320.633 493.507 330.695 493.132 339.256L492.296 339.656C486.429 339.579 476.356 338.792 470.638 339.763C468.662 340.099 468.567 341.263 465.707 340.184L465.363 339.334C466.968 335.674 466.285 317.454 466.264 311.959Z"/><path fill="#FCFCFB" d="M27.0386 340.141L53.9243 340.141C53.9922 349.428 54.0024 358.715 53.955 368.001C44.9776 368.047 36 368.039 27.0227 367.976L27.0386 340.141Z"/><path fill="#FCFCFB" d="M437.186 1131.72L438.023 1132.31C439.218 1134.89 438.696 1154.56 438.661 1159.06C430.286 1159.33 421.09 1159.13 412.648 1159.11L412.668 1158.83C415.396 1157.72 432.606 1159.35 436.837 1157.9C437.571 1151.75 437.199 1138.42 437.186 1131.72Z"/></svg>