<?xml version="1.0" encoding="utf-8" ?><svg xmlns="http://www.w3.org/2000/svg" xmlns:xlink="http://www.w3.org/1999/xlink" width="1254" height="1254" viewBox="0 0 1254 1254"><path fill="#FCFCFC" d="M0 0L1254 0L1254 1254L0 1254L0 0Z"/><path fill="#003C4F" d="M609.185 292.162C776.626 282.485 920.186 410.43 929.77 577.877C939.354 745.324 811.33 888.812 643.878 898.304C476.556 907.788 333.204 779.886 323.627 612.57C314.051 445.253 441.874 301.83 609.185 292.162Z"/><path fill="#FCFCFC" d="M616.826 306.837C776.129 301.379 909.689 426.106 915.128 585.41C920.566 744.714 795.822 878.259 636.517 883.678C477.24 889.095 343.724 764.378 338.287 605.102C332.85 445.826 457.55 312.294 616.826 306.837Z"/><path fill="#003C4F" d="M439.246 551.92C445.966 550.867 456.184 551.686 463.024 552.493C509.911 557.872 539.176 596.578 583.338 609.694C640.41 626.644 674.144 596.747 719.599 569.627C745.637 554.092 782.448 548.162 811.594 557.46C835.249 565.006 861.46 580.29 877.3 599.981C880.719 604.162 875.442 608.998 871.626 610.512C867.407 610.296 857.859 600.751 854.222 597.706C845.169 590.129 836.63 584.57 826.251 579.108C791.598 560.873 754.118 565.812 721.185 585.362C694.632 601.204 682.186 612.894 651.553 623.346C667.349 627.31 679.661 631.317 694.746 637.141C751.222 658.943 797.365 710.043 770.512 773.169C757.744 803.186 730.237 823.513 700.294 835.166C651.731 854.065 594.326 852.015 546.555 831.634C498.961 811.747 448.996 760.58 472.252 705.111C480.542 685.735 498.146 674.04 516.784 666.642C567.041 646.691 675.923 662.995 696.004 720.458C700.649 733.723 699.74 748.302 693.482 760.887C685.289 777.549 670.962 786.069 654.092 791.899C620.668 802.832 566.582 793.338 546.235 761.705C540.88 753.797 538.508 741.802 540.991 732.438C550.019 698.384 612.684 701.32 629.011 726.801C638.249 741.218 621.596 756.511 606.386 750.694C603.381 749.544 600.852 746.94 599.523 743.877C596.848 735.796 608.609 735.812 611.185 730.07C610.569 728.561 610.214 727.985 608.313 727.184C597.775 722.726 580.264 719.722 569.247 724.002C537.24 736.436 563.151 764.99 582.718 772.906C606.396 782.485 629.044 784.797 653.168 776.655C665.181 772.601 676.677 763.232 681.63 751.657C693.659 720.036 664.003 698.404 638.881 687.016C597.099 668.076 505.895 661.492 484.575 713.098C465.363 759.602 517.494 805.688 557.671 820.284C604.412 837.265 654.727 838.844 701.31 818.929C724.619 808.862 750.349 788.324 758.828 763.548C786.486 682.733 689.99 643.63 627.255 632.815C606.072 629.164 587.15 627.234 567.443 619.732C536.398 607.86 515.528 585.677 484.446 573.231C453.461 560.823 419.615 565.787 391.473 583.507C385.155 587.485 376.663 595.613 372.082 584.094C371.516 582.67 372.809 579.771 373.814 578.615C385.756 567.466 403.285 560.679 418.656 555.689C425.103 553.701 433.362 552.561 439.246 551.92Z"/><path fill="#003C4F" d="M449.551 480.309C517.923 479.304 540.007 534.97 599.747 546.782C643.509 555.434 673.536 531.754 706.098 508.026C734.661 488.077 765.845 475.981 801.318 482.684C825.997 487.348 853.224 503.766 870.688 522.303C875.957 527.897 868.074 536.751 861.514 532.603C856.7 529.558 852.345 524.853 847.712 521.193C837.378 513.19 826.013 506.616 813.923 501.646C800.583 496.501 786.213 494.59 771.991 496.07C712.765 502.657 691.866 555.086 629.547 562.495C550.087 571.943 520.761 495.848 452.935 495.097C437.653 494.857 422.563 498.521 409.092 505.742C403.373 508.865 394.926 515.241 389.1 516.471C383.97 517.554 378.696 509.934 384.071 504.753C388.127 500.398 393.419 497.89 398.548 494.962C415.437 485.32 430.333 481.541 449.551 480.309Z"/><path fill="#003C4F" d="M620.137 374.449C642.528 370.897 663.55 386.192 667.062 408.589C670.575 430.985 655.243 451.981 632.84 455.453C610.493 458.917 589.561 443.632 586.058 421.291C582.554 398.95 597.803 377.992 620.137 374.449Z"/><path fill="#FCFCFC" d="M624.6 388.51C639.092 387.449 651.744 398.234 652.991 412.711C654.237 427.188 643.614 439.977 629.154 441.409C619.635 442.351 610.344 438.099 604.835 430.279C599.326 422.459 598.449 412.279 602.541 403.633C606.633 394.986 615.06 389.209 624.6 388.51Z"/><path fill="#003C4F" d="M522.273 428.677C541.165 428.852 554.153 450.597 566.265 462.415C601.875 497.162 656.149 495.697 689.927 459.254C697.637 450.936 717.498 425.711 730.99 429.241C733.159 429.818 734.994 431.267 736.058 433.244C738.57 437.828 735.29 441.692 730.926 443.106C717.869 446.491 708.478 461.793 697.905 472.054C691.356 478.527 684.011 484.141 676.047 488.762C653.756 502.08 627.034 505.843 601.932 499.199C570.802 490.977 554.982 472.422 534.994 449.626C531.344 445.462 519.261 443.809 516.751 438.179C514.763 433.719 519.083 430.336 522.273 428.677Z"/><path fill="#003C4F" d="M411.274 636.438C415.192 635.621 419.243 637.017 421.828 640.073C424.412 643.13 425.114 647.357 423.657 651.085C422.199 654.813 418.817 657.443 414.845 657.937C409.04 658.659 403.699 654.672 402.741 648.901C401.782 643.131 405.547 637.631 411.274 636.438Z"/><path fill="#003C4F" d="M827.864 646.837C833.67 645.444 839.511 649.001 840.936 654.799C842.362 660.597 838.837 666.458 833.047 667.916C827.211 669.385 821.294 665.826 819.857 659.982C818.42 654.139 822.012 648.241 827.864 646.837Z"/><path fill="#003C4F" d="M422.245 702.102C425.547 700.962 429.209 701.724 431.783 704.087C434.356 706.45 435.427 710.034 434.571 713.422C433.716 716.81 431.072 719.455 427.685 720.313C422.743 721.565 417.694 718.699 416.235 713.815C414.776 708.931 417.426 703.765 422.245 702.102Z"/><path fill="#003C4F" d="M815.555 719.246C818.838 718.264 822.395 719.158 824.824 721.576C827.253 723.993 828.163 727.546 827.197 730.833C826.23 734.121 823.542 736.616 820.191 737.334C815.287 738.385 810.427 735.376 809.182 730.518C807.937 725.659 810.75 720.684 815.555 719.246Z"/></svg>