<?xml version="1.0" encoding="utf-8" ?><svg xmlns="http://www.w3.org/2000/svg" xmlns:xlink="http://www.w3.org/1999/xlink" width="1254" height="1254" viewBox="0 0 1254 1254"><path fill="#F6F6F6" d="M0 0L29.8716 0L59.9365 0L89.5662 0L119.468 0L149.33 0L179.274 0L208.834 0L238.801 0L268.816 0L298.713 0L327.877 0L358.498 0L387.901 0L447.907 0L478.144 0L507.691 0L537.579 0L567.245 0L597.061 0L626.978 0L656.948 0L686.826 0L716.936 0L746.381 0L776.081 0L806.105 0L835.842 0L865.681 0L895.739 0L925.308 0L955.188 0L985.198 0L1015.5 0L1044.29 0L1074.66 0L1104.71 0L1134.49 0L1164.6 0L1194.88 0L1224.05 0L1254 0L1254 30.0034L1254 59.7058L1254 90.0088L1254 119.462L1254 149.362L1254 178.493L1254 298.772L1254 328.425L1254 358.511L1254 388.161L1254 418.016L1254 447.669L1254 477.842L1254 507.534L1254 537.553L1254 567.446L1254 597.294L1254 626.937L1254 776.453L1254 806.093L1254 955.508L1254 985.237L1254 1015.1L1254 1044.89L1254 1194.31L1254 1223.95L1254 1254L1223.94 1254L1194.31 1254L1164.42 1254L1134.6 1254L1104.69 1254L1074.68 1254L1044.7 1254L1014.82 1254L985.105 1254L955.299 1254L925.188 1254L895.637 1254L865.894 1254L835.775 1254L806.15 1254L776.184 1254L746.435 1254L716.709 1254L686.694 1254L656.96 1254L627.126 1254L597.069 1254L567.294 1254L537.596 1254L507.545 1254L477.91 1254L448.05 1254L417.904 1254L388.151 1254L358.309 1254L328.495 1254L298.762 1254L268.718 1254L238.842 1254L208.881 1254L179.017 1254L149.279 1254L119.399 1254L89.4463 1254L59.6936 1254L29.9529 1254L0 1254L0 1223.98L0 1194.02L0 1164.24L0 1134.68L0 1044.71L0 1015.13L0 985.239L0 955.362L0 925.664L0 895.715L0 865.913L0 836.408L0 746.399L0 717.009L0 686.394L0 656.91L0 627.044L0 597.069L0 567.537L0 537.679L0 507.639L0 477.647L0 447.808L0 418.204L0 328.195L0 298.714L0 268.737L0 238.908L0 208.903L0 179.273L0 149.372L0 119.315L0 29.9749L0 0Z"/><path fill="#FCFCFB" d="M0 985.239C9.99269 985.464 19.9879 985.558 29.983 985.523L30.01 1015.19C39.0589 1015.55 50.4342 1015.25 59.6936 1015.33C59.6518 1021.9 59.685 1028.46 59.7931 1035.03C60.1656 1034.25 59.8502 990.643 59.911 985.511L89.5088 985.261C89.7869 995.275 89.725 1005.29 89.3233 1015.3C99.2609 1015 109.523 1015.21 119.49 1015.3L119.416 985.394C129.335 985.223 139.351 985.379 149.311 985.262L149.244 1015.33C159.203 1015.12 169.165 1015.11 179.125 1015.3L179.105 1044.94C189.049 1044.8 198.994 1044.78 208.939 1044.86L208.861 1015.17L238.82 1015.3C238.809 1024.99 238.673 1034.99 238.875 1044.65C229.176 1044.79 218.729 1045.12 209.108 1044.64L209.108 1074.84L238.844 1074.75C238.826 1084.6 238.705 1094.64 238.833 1104.47C228.811 1104.68 218.786 1104.72 208.762 1104.58C209.336 1114.34 209.13 1124.81 209.108 1134.64C217.846 1134.66 230.437 1135.1 238.862 1134.61L238.854 1164.05C228.872 1164.47 218.877 1164.52 208.891 1164.19L208.904 1194.04C201.343 1194.09 158.18 1192.6 154.548 1193.8C159.352 1194.48 173.683 1194.3 179.144 1194.26C179.161 1204.06 179.309 1214.19 178.868 1223.95C169.413 1223.95 158.696 1223.69 149.347 1224C149.211 1234 149.189 1244 149.279 1254L119.399 1254L89.4463 1254L59.6936 1254L29.9529 1254L0 1254L0 1223.98L0 1194.02L0 1164.24L0 1134.68L0 1044.71L0 1015.13L0 985.239Z"/><path fill="#FCFCFB" d="M0 0L29.8716 0L59.9365 0L89.5662 0L119.468 0L149.33 0L179.274 0L208.834 0L238.801 0L268.816 0L298.713 0L327.877 0C327.893 5.71178 327.937 11.4234 328.01 17.1348C328.097 21.0974 329.344 26.2146 326.748 29.2668C324.006 30.3524 303.59 29.6853 298.505 29.7389C298.505 38.9699 298.144 51.0527 298.604 60.0489L299.223 60.0957C307.98 60.6944 317.72 59.9608 326.7 60.4495C317.607 60.631 308.512 60.6872 299.417 60.6182C299.462 80.6868 298.427 99.6837 298.505 119.699L305.668 119.774C303.965 120.153 301.263 120.024 299.417 120.012L299.328 127.943C298.929 125.213 299.057 121.952 299.062 119.151C289.283 119.106 278.656 118.864 268.952 119.249C269.348 109.8 269.105 99.2444 269.073 89.7088C263.501 89.7278 243.49 90.1811 239.06 89.5718L239.099 59.7058L209.096 59.7667L209.096 29.7911C202.859 29.7645 196.623 29.6819 190.388 29.5435C186.529 29.4844 182.258 28.8159 179.504 31.4854C177.374 35.9028 179.141 52.9713 179.103 59.7032L149.606 59.7058C149.763 49.7629 149.763 39.8181 149.607 29.8751C140.234 29.4807 128.591 29.5664 119.189 29.8354C119.073 39.7918 119.043 49.749 119.099 59.7058C113.332 59.6932 94.1943 58.525 90.5649 61.0497C87.997 64.9951 89.1211 83.7219 89.1367 89.6965C95.5219 89.6899 120.335 88.7044 124.812 89.6768L123.963 89.6909C122.098 89.7338 120.858 89.4868 119.47 90.5787C118.641 94.3473 119.067 114.722 119.099 119.638L149.102 119.699L149.102 149.102C140.012 149.105 128.047 148.748 119.194 149.201C119.067 159.165 119.036 169.129 119.099 179.093C129.177 179.118 138.778 179.745 149.102 179.705C149.052 187.996 148.453 200.547 149.717 208.626C150.39 212.925 150.043 217.48 149.864 221.747C149.792 217.249 150.573 212.113 147.657 209.265C144.138 208.121 119.156 206.536 118.999 212.794C118.788 221.134 119.17 230.586 119.099 239.099L149.102 239.099L149.102 268.5C141.795 268.485 125.878 268.036 119.221 268.676C119.049 278.618 119.008 288.562 119.099 298.505C109.697 298.515 98.9905 298.272 89.6965 298.603L89.6965 268.483C79.9462 268.502 69.3855 268.31 59.7058 268.571L59.7058 298.505C50.5783 298.5 38.8514 298.162 29.9346 298.638L30.0029 328.195L0 328.195L0 298.714L0 268.737L0 238.908L0 208.903L0 179.273L0 149.372L0 119.315L0 29.9749L0 0Z"/><path fill="#FCFCFB" d="M89.3965 388.201L119.399 388.201L119.399 418.204L149.402 418.204C149.39 424.451 149.032 437.662 149.671 443.318L149.715 418.516C156.398 418.482 171.693 418.036 177.671 418.817C179.01 420.812 179.717 473.597 178.693 477.278C173.117 478.096 155.946 477.587 149.402 477.598L149.402 448.207L119.399 448.207L119.399 477.711C124.843 477.595 129.878 477.87 135.307 478.059C140.057 478.224 144.871 477.502 149.402 477.598L149.402 507.601C139.62 507.589 129.111 507.781 119.393 507.55L119.379 537.826L149.102 537.879L149.102 567.306C139.434 567.318 128.971 567.127 119.369 567.394L119.399 596.997C113.451 596.982 94.8012 595.825 90.9163 598.29C88.0759 601.88 89.4405 620.886 89.3965 627L59.7627 626.971C49.8676 626.887 39.972 626.902 30.0772 627.016C29.7083 636.672 29.9268 647.097 29.9653 656.818L30.0029 686.394L0 686.394L0 656.91L0 627.044L0 597.069L0 567.537L0 537.679L0 507.639L0 477.647L0 447.808L0 418.204C9.04037 418.211 21.3761 418.587 30.1529 418.054C29.8326 427.783 29.9779 437.835 30.0029 447.595L59.3936 447.595C59.3519 437.673 60.1958 427.847 60.0059 418.204L89.3965 418.204L89.3965 388.201Z"/><path fill="#FCFCFB" d="M507.691 0L537.579 0L567.245 0L597.061 0L626.978 0L656.948 0L686.826 0L716.936 0C716.807 9.97877 716.739 19.9582 716.731 29.9378L686.694 29.953L686.694 59.6933L657.004 59.9867L656.989 89.7781C666.762 89.7696 676.968 89.617 686.694 90.0091L686.694 119.331C677.059 119.329 666.603 119.13 657.035 119.435C657.012 129.235 657.141 139.456 656.939 149.219C648.185 149.256 635.522 148.874 627.065 149.369C626.997 139.392 626.984 129.414 627.024 119.436C617.334 119.209 607.049 119.342 597.309 119.3C597.332 109.417 597.235 99.5339 597.018 89.6531L567.475 89.5453C567.17 80.1122 567.403 69.6886 567.267 60.0799C570.732 60.1024 573.514 60.1667 576.986 59.7766C572.67 59.7824 571.551 59.3927 567.413 58.3056C567.249 58.6549 566.737 60.0543 566.132 60.0467C556.664 59.9279 547.195 59.889 537.726 59.8384C537.321 50.557 537.589 39.4663 537.564 30.0235C528.802 29.5838 516.71 29.9623 507.703 30.0063C507.569 20.0047 507.565 10.0017 507.691 0Z"/><path fill="#FCFCFB" d="M895.757 1164.48C905.514 1164.45 915.411 1164.32 925.155 1164.41C925.2 1174.41 925.191 1184.41 925.127 1194.41C935.13 1194.3 945.133 1194.27 955.137 1194.31L955.168 1224.04C963.896 1224.19 976.445 1224.42 985.071 1224.02L985.14 1194.31L1014.89 1194.31L1014.89 1224.06L1045.04 1224.04C1044.15 1231.29 1045.08 1245.85 1044.7 1254L1014.82 1254L985.105 1254L955.299 1254L925.188 1254L895.637 1254C895.381 1244.31 895.62 1233.92 895.682 1224.18C905.528 1224.03 915.375 1223.98 925.221 1224.02C925.315 1214.02 925.342 1204.03 925.303 1194.03C915.492 1194.13 905.68 1194.12 895.869 1194.01C895.337 1184.37 895.525 1174.16 895.757 1164.48Z"/><path fill="#FCFCFB" d="M567.299 1134.65C577.199 1134.78 587.099 1134.77 596.999 1134.64L596.975 1164.56C606.992 1164.39 617.011 1164.39 627.028 1164.54C627.098 1174.46 627.085 1184.39 626.991 1194.31L656.969 1194.32L657.008 1224L686.694 1224.04L686.694 1254L656.96 1254L627.126 1254L597.069 1254L597.145 1224.08L627.006 1223.96L627.03 1194.33C618.67 1193.66 606.032 1194.08 597.319 1194.01C597.159 1184.11 597.079 1174.2 597.078 1164.29C587.242 1164.43 577.405 1164.43 567.57 1164.28C567.227 1154.41 567.729 1144.16 567.299 1134.65Z"/><path fill="#FCFCFB" d="M925.308 0L955.188 0L985.198 0L985.198 30.0029L954.986 29.9866C954.868 38.7511 954.491 51.3477 955.022 59.9198C955.204 69.8566 955.198 79.7961 955.002 89.7327L925.318 89.7693C925.37 79.8283 925.328 69.8871 925.192 59.947C918.246 59.3866 903.315 59.8981 895.771 59.9202C895.373 50.1488 895.543 40.0004 895.575 30.1913C905.101 29.8645 915.595 30.0449 925.194 30.0184C925.707 21.6008 925.303 8.75425 925.308 0Z"/><path fill="#FCFCFB" d="M1134.6 1164.45C1144.5 1164.31 1154.4 1164.33 1164.29 1164.51C1164.27 1171.27 1163.82 1187.85 1164.53 1193.88C1166.49 1194.57 1190.12 1194.29 1194.12 1194.31C1194.16 1204.02 1194.38 1214.29 1194.03 1223.95C1184.5 1223.96 1173.98 1223.74 1164.53 1224.01L1164.42 1254L1134.6 1254C1134.4 1244.23 1134.58 1233.83 1134.58 1224.01C1125.38 1223.66 1114.32 1223.94 1104.96 1223.94C1104.41 1214.95 1104.73 1203.48 1104.75 1194.3C1114.68 1194.1 1124.63 1194.29 1134.58 1194.1L1134.6 1164.45Z"/><path fill="#FCFCFB" d="M806.105 0L835.842 0L865.681 0L895.739 0L895.531 29.9495C885.999 29.9553 875.264 29.7079 865.836 29.9997C865.468 39.3506 865.725 50.4403 865.701 59.9262C855.963 59.7556 845.692 59.9295 835.91 59.9341C835.636 50.1856 835.822 39.7939 835.84 29.9954C826.533 29.6994 815.78 29.9682 806.358 29.972C805.787 20.9555 806.101 9.22635 806.105 0Z"/><path fill="#FCFCFB" d="M1074.66 0L1104.71 0L1134.49 0L1164.6 0L1164.6 30.0029L1134.4 29.9823C1133.94 38.9323 1134.3 51.0645 1134.3 60.2566C1139.27 60.2533 1144.24 60.3012 1149.21 60.4003C1146.65 60.4386 1137.18 60.3135 1135.41 61.0153C1135.34 62.8747 1135.39 64.3505 1134.93 66.1659L1134.86 59.7058L1104.9 59.7058L1104.9 29.7029C1096.63 29.6791 1082.34 29.2248 1074.59 29.9824C1075.13 26.2429 1076.08 2.8196 1074.66 0Z"/><path fill="#FCFCFB" d="M627.065 149.369C627.175 159.376 627.133 169.384 626.939 179.389C636.947 179.181 646.958 179.19 656.966 179.416L656.964 208.907C646.977 209.165 636.985 209.136 627 208.821C627.162 218.809 627.147 228.799 626.953 238.787C619.057 238.951 604.778 239.528 597.133 238.653C597.002 231.67 596.731 215.592 597.412 209.213C606.918 208.906 617.513 209.119 627.102 209.108C626.991 199.103 626.98 189.098 627.068 179.093L597.118 179.093C596.824 169.236 597.776 159.269 596.952 149.534C606.994 149.385 616.994 149.591 627.065 149.369Z"/><path fill="#FCFCFB" d="M1194.88 0L1224.05 0L1254 0L1254 30.0034L1254 59.7058L1224.29 59.7053L1224.3 29.7107L1194.88 29.7139L1194.88 0Z"/><path fill="#FCFCFB" d="M1224 90.0088L1254 90.0088L1254 119.462L1254 149.362L1254 178.493C1243.53 178.427 1234.58 178.822 1224.28 179.104L1224.27 149.202C1223.67 141.073 1224.04 128.078 1224.02 119.586L1224 90.0088Z"/><path fill="#FCFCFB" d="M358.498 0L387.901 0C387.901 9.09572 387.532 21.2976 388.011 30.1387C397.67 30.4735 407.685 30.2759 417.379 30.2056L417.277 59.7561C407.675 59.7286 397.679 59.5638 388.113 59.8413L358.503 59.8317C358.264 49.9113 358.243 39.9869 358.439 30.0655C358.7 20.3907 358.489 9.75223 358.498 0Z"/><path fill="#FCFCFB" d="M746.381 0L776.081 0C776.302 10.0234 776.354 20.0497 776.237 30.0749C785.605 30.059 795.666 29.8687 804.972 30.2319C798.161 31.0802 784.387 30.6533 777.015 30.6152C777.052 37.3969 777.486 52.5353 776.569 58.5753C776.128 49.5828 776.327 39.0843 776.295 29.9774L746.399 29.9701L746.373 59.9765L716.958 59.8829C716.339 50.8467 716.776 39.3378 716.929 30.1203C726.673 29.9382 736.737 30.0563 746.507 30.0494L746.381 0Z"/><path fill="#FCFCFB" d="M0 836.408C10.3621 836.205 19.3627 835.73 30.0029 835.796L29.9625 866.064L29.9475 895.693L0 895.715L0 865.913L0 836.408Z"/><path fill="#FCFCFB" d="M60.0253 895.842C59.2726 903.785 59.7014 917.278 59.6936 925.678C49.9035 925.653 39.7432 925.765 29.9851 925.534L29.9349 955.188L0 955.362L0 925.664C9.1524 925.685 21.0572 926.042 30.0972 925.605C29.9696 915.698 29.9405 905.789 30.0099 895.881L60.0253 895.842Z"/><path fill="#FCFCFB" d="M238.887 925.845C248.829 925.618 258.774 925.592 268.717 925.767L268.69 955.166L238.812 955.246L238.809 985.275C229.961 984.846 217.932 985.212 208.833 985.207C208.826 975.519 208.657 965.265 208.977 955.627C218.521 955.549 229.501 955.778 238.855 955.474L238.887 925.845Z"/><path fill="#FCFCFB" d="M537.614 1165.89L538.153 1165.8C538.423 1174.78 538.208 1184.34 538.216 1193.38C542.722 1193.39 562.854 1193.12 566.102 1193.68C560.197 1194.62 544.287 1194.16 537.57 1194.12L537.594 1223.99L507.646 1223.96C507.594 1215.7 507.168 1202.23 508.06 1194.31L537.703 1194.31C537.555 1184.84 537.526 1175.37 537.614 1165.89Z"/><path fill="#FCFCFB" d="M418.052 1224.07L447.267 1224.1C447.734 1223.58 448.195 1223.06 448.649 1222.53C450.417 1222.56 450.445 1222.39 451.845 1223.39L452.024 1223.85C449.858 1224.15 449.458 1223.82 448.108 1225.02C447.341 1233.32 448.145 1245.32 448.05 1254L417.904 1254C417.907 1244.81 417.578 1233.05 418.052 1224.07Z"/><path fill="#FCFCFB" d="M0 717.009C5.39778 717.022 26.0797 717.544 29.7858 716.017C30.4635 712.427 29.9133 695.998 30.118 690.502L30.3844 690.531L30.3278 688.867L30.209 691.025L30.4871 690.473C30.9976 708.975 29.9292 727.646 30.0029 746.399L0 746.399L0 717.009Z"/><path fill="#FCFCFB" d="M865.84 1224.01L865.894 1254L835.775 1254L835.803 1224.12L865.84 1224.01Z"/><path fill="#FCFCFB" d="M268.952 119.249C268.419 128.026 268.795 140.362 268.802 149.402L238.799 149.402L238.799 119.399C248.755 119.424 259.029 119.576 268.952 119.249Z"/><path fill="#FCFCFB" d="M179.085 1224.13C189.007 1224 198.931 1223.96 208.854 1224.03C208.947 1234.02 208.956 1244.01 208.881 1254L179.017 1254C178.947 1244.04 178.969 1234.09 179.085 1224.13Z"/><path fill="#FCFCFB" d="M1074.75 1224.07C1084.71 1223.98 1094.67 1223.99 1104.63 1224.1L1104.69 1254L1074.68 1254L1074.75 1224.07Z"/><path fill="#FCFCFB" d="M298.736 1224.11C308.655 1224.01 318.576 1223.99 328.495 1224.05L328.495 1254L298.762 1254C298.466 1243.93 298.603 1234.18 298.736 1224.11Z"/><path fill="#FCFCFB" d="M238.823 1224.1C248.784 1224 258.746 1224.01 268.708 1224.13L268.718 1254L238.842 1254L238.823 1224.1Z"/><path fill="#FCFCFB" d="M776.359 1224.17C786.21 1224.03 796.062 1224 805.913 1224.08C806.18 1234.05 806.259 1244.02 806.15 1254L776.184 1254C776.393 1244.06 776.452 1234.11 776.359 1224.17Z"/><path fill="#FCFCFB" d="M388.204 1224.02C388.062 1234.01 388.045 1244.01 388.151 1254L358.309 1254C358.416 1244.16 358.328 1234.16 358.334 1224.3C368.289 1224.05 378.247 1223.95 388.204 1224.02Z"/><path fill="#FCFCFB" d="M1224.06 597.082C1234.11 597.392 1244.02 597.025 1254 597.294L1254 626.937C1244.1 626.996 1234.2 626.996 1224.3 626.939C1223.8 617.785 1224.06 606.317 1224.06 597.082Z"/><path fill="#FCFCFB" d="M865.82 1194.31C875.649 1194.26 885.773 1194.09 895.576 1194.29C895.713 1204.17 895.714 1214.06 895.578 1223.94C885.85 1223.95 875.517 1223.78 865.84 1224.01C865.588 1214.11 865.581 1204.21 865.82 1194.31Z"/><path fill="#FCFCFB" d="M537.594 1223.99C547.529 1224.22 557.415 1223.9 567.294 1224.11L567.294 1254L537.596 1254L537.594 1223.99Z"/><path fill="#FCFCFB" d="M507.703 30.0063C507.558 39.8939 507.513 49.7827 507.568 59.6712C498.016 60.058 487.567 59.8592 477.943 59.8515C477.478 50.5775 477.741 39.5949 477.75 30.1877C487.544 29.9255 497.865 30.0463 507.703 30.0063Z"/><path fill="#FCFCFB" d="M447.907 0L478.144 0C477.285 5.21054 477.67 23.7366 477.691 29.9376L448.108 29.9285C447.532 21.2665 447.899 8.9356 447.907 0Z"/><path fill="#FCFCFB" d="M1224.04 1015.25L1254 1015.1L1254 1044.89C1244.12 1044.92 1234.3 1045.01 1224.42 1044.59C1223.76 1035.86 1224.05 1024.22 1224.04 1015.25Z"/><path fill="#FCFCFB" d="M1194.09 507.83C1203.83 507.443 1214.17 507.623 1223.96 507.642L1223.99 537.606C1214.33 537.248 1204.07 537.591 1194.31 537.515C1194.31 528.4 1194.62 516.738 1194.09 507.83Z"/><path fill="#FCFCFB" d="M477.91 1224.12L507.594 1223.97C507.591 1233.77 507.783 1244.27 507.545 1254L477.91 1254L477.91 1224.12Z"/><path fill="#FCFCFB" d="M298.739 985.239C308.657 985.374 318.577 985.389 328.495 985.285C328.48 995.135 328.593 1005.26 328.438 1015.09C319.003 1015.06 308.068 1014.78 298.754 1015.17C298.687 1005.19 298.682 995.216 298.739 985.239Z"/><path fill="#FCFCFB" d="M1223.99 537.606L1254 537.553L1254 567.446L1224.47 567.43C1223.68 559.541 1224.06 546.014 1223.99 537.606Z"/><path fill="#FCFCFB" d="M1224.17 418.265C1234.01 418.025 1244.14 418.08 1254 418.016L1254 447.669C1244.18 447.995 1234.06 447.699 1224.21 447.535C1223.86 438.165 1224.12 427.718 1224.17 418.265Z"/><path fill="#FCFCFB" d="M1194.31 1224.1L1224.02 1224.04C1224.01 1233.65 1224.26 1244.48 1223.94 1254L1194.31 1254L1194.31 1224.1Z"/><path fill="#FCFCFB" d="M268.801 955.525C277.751 955.512 290.107 955.855 298.734 955.374L298.739 985.239C289.922 984.813 277.859 985.188 268.787 985.187L268.801 955.525Z"/><path fill="#FCFCFB" d="M1224.06 955.55L1254 955.508L1254 985.237L1224.2 985.173C1223.93 975.545 1224.08 965.23 1224.06 955.55Z"/><path fill="#FCFCFB" d="M268.787 985.187C268.468 994.632 268.708 1005.49 268.687 1015.05L239.033 1015.11C238.613 1005.51 238.809 994.953 238.809 985.275C245.206 985.501 262.371 985.728 268.787 985.187Z"/><path fill="#FCFCFB" d="M1224.1 776.489L1254 776.453L1254 806.093C1244.14 806.102 1234.29 806.033 1224.43 805.887C1223.73 797.029 1224.06 785.571 1224.1 776.489Z"/><path fill="#FCFCFB" d="M1224.03 358.694C1234.02 358.544 1244.01 358.483 1254 358.511L1254 388.161L1224.21 388.142C1223.92 378.597 1224.07 368.298 1224.03 358.694Z"/><path fill="#FCFCFB" d="M1224.12 1194.31L1254 1194.31L1254 1223.95L1224.42 1223.94C1223.79 1214.4 1224.06 1203.94 1224.12 1194.31Z"/><path fill="#FCFCFB" d="M716.709 1224.09C726.501 1223.92 736.629 1224.03 746.448 1224.01L746.435 1254L716.709 1254L716.709 1224.09Z"/><path fill="#FCFCFB" d="M298.754 1015.17C298.422 1024.4 298.683 1035.32 298.581 1044.75C288.694 1044.89 278.806 1044.83 268.922 1044.57C268.753 1034.82 268.727 1025.06 268.844 1015.3C278.814 1015.34 288.784 1015.3 298.754 1015.17Z"/><path fill="#FCFCFB" d="M149.309 955.742C159.212 955.506 169.118 955.374 179.024 955.346C179.197 965.275 179.163 975.206 178.922 985.134C169.302 985.169 158.856 984.993 149.311 985.262C149.333 975.756 149.592 965.158 149.309 955.742Z"/><path fill="#FCFCFB" d="M208.833 985.207L208.861 1015.17C199.143 1014.92 189.086 1015.08 179.339 1015.11C178.951 1005.4 179.136 995.202 179.174 985.442C189.061 985.493 198.948 985.415 208.833 985.207Z"/><path fill="#FCFCFB" d="M1254 477.842L1254 507.534L1224.36 507.481C1223.95 498.007 1224.13 487.576 1224.11 478.025C1233.67 477.686 1244.36 477.877 1254 477.842Z"/><path fill="#FCFCFB" d="M1224.04 298.806L1254 298.772L1254 328.425C1244.1 328.534 1234.2 328.455 1224.31 328.19C1224.41 318.394 1224.32 308.598 1224.04 298.806Z"/><path fill="#FCFCFB" d="M388.161 1194.31L417.892 1194.34L417.892 1223.94C409.086 1223.94 396.712 1223.55 388.204 1224.02C388.162 1214.39 388.434 1203.8 388.161 1194.31Z"/><path fill="#FCFCFB" d="M746.373 59.9765C756.278 60.0586 766.184 60.0661 776.09 59.9988L776.09 89.4776C766.22 89.6613 756.347 89.7291 746.475 89.6808C746.447 79.98 746.61 69.6181 746.373 59.9765Z"/><path fill="#FCFCFB" d="M746.504 1194.34L776.09 1194.31L776.09 1223.93C766.39 1223.94 756.097 1223.78 746.448 1224.01L746.504 1194.34Z"/><path fill="#FCFCFB" d="M1194.31 567.745C1204.19 567.559 1214.08 567.53 1223.96 567.658C1223.98 576.965 1223.71 587.917 1224.06 597.082C1214.14 597.136 1204.22 597.118 1194.31 597.028L1194.31 567.745Z"/><path fill="#FCFCFB" d="M1194.31 269.114C1203.72 269.12 1214.73 269.378 1224 268.81L1224.04 298.806C1214.14 298.68 1204.24 298.651 1194.34 298.717L1194.31 269.114Z"/><path fill="#FCFCFB" d="M30.2702 388.525L59.1972 388.447L59.0935 417.902C50.7177 417.975 38.075 417.528 30.1529 418.054C30.5074 408.42 30.3103 398.211 30.2702 388.525Z"/><path fill="#FCFCFB" d="M1015.5 0L1044.29 0L1044.32 29.7366L1015.49 29.7293L1015.5 0Z"/><path fill="#FCFCFB" d="M1074.59 29.9824C1073.85 35.2991 1074.29 53.4349 1074.32 59.7058L1045.34 59.7654C1045.67 50.1569 1045.47 39.9621 1045.43 30.303C1053.51 30.3342 1066.92 30.7182 1074.59 29.9824Z"/><path fill="#004A5D" d="M615.441 396.421C618.751 396.244 622.065 396.133 625.38 396.088C674.572 395.615 721.93 414.742 756.995 449.247C792.002 483.646 811.957 530.512 812.493 579.589C812.527 625.283 795.566 669.356 764.908 703.238C755.181 714.04 744.853 722.519 734.597 732.551C714.508 752.496 708.067 782.266 709.142 809.707C709.841 827.535 691.232 823.448 678.64 823.448L639.342 823.464L584.81 823.471C574.58 823.495 564.16 823.784 554.073 823.042C549.675 822.718 545.279 818.02 545.142 814.084C544.412 793.121 544.444 776.177 535.71 756.442C527.018 736.804 512.993 726.985 497.855 712.492C465.09 681.058 445.195 638.558 442.042 593.263C438.778 544.8 454.789 497.009 486.59 460.293C519.218 422.56 565.655 399.541 615.441 396.421Z"/><path fill="#FCFCFB" d="M619.404 417.244C622.296 417.043 625.039 417.037 627.937 417.039C671.602 417.026 713.483 434.356 744.372 465.218C775.202 496.122 792.448 538.036 792.296 581.689C792.013 621.087 777.365 659.028 751.1 688.394C742.462 698.019 732.76 706.261 723.506 715.246C698.551 739.476 689.732 768.756 689.406 802.841L635.903 802.94L564.563 802.914C563.469 768.662 557.19 742.734 532.48 717.163C524.025 708.413 514.804 701.031 506.192 691.972C479.766 664.255 464.075 628.032 461.931 589.797C459.608 546.763 474.334 504.548 502.919 472.295C533.61 438.002 573.598 419.761 619.404 417.244Z"/><path fill="#FCFCFB" d="M835.849 1015.2C835.804 1025.03 835.887 1035.16 835.693 1044.97C845.254 1044.5 856.036 1044.8 865.702 1044.88L865.781 1074.78L895.688 1074.77L895.633 1104.72C904.639 1104.73 916.42 1105.08 925.201 1104.61C925.392 1094.95 925.255 1084.82 925.272 1075.11C933.793 1074.38 946.543 1074.69 955.221 1074.69C954.849 1084.36 955.101 1095.07 955.143 1104.81L985.045 1104.7C985.081 1114.28 985.341 1125.04 984.864 1134.51L955.214 1134.58C955.009 1144.24 955.19 1154.58 955.181 1164.29L925.276 1164.23L925.213 1134.62C916.975 1134.14 904.09 1134.58 895.497 1134.6L895.491 1104.46C885.836 1104.88 875.61 1104.7 865.9 1104.69C865.432 1113.86 865.72 1125.26 865.853 1134.51C855.838 1134.65 845.823 1134.63 835.809 1134.46C835.597 1124.85 835.786 1114.57 835.791 1104.91C842.759 1104.96 858.144 1105.06 864.888 1104.42C858.465 1103.49 843.522 1103.94 836.408 1103.99L836.408 1075.21C845.537 1075.23 854.93 1075.38 864.023 1074.94C856.632 1074.31 843.659 1074.68 835.853 1074.67C835.684 1064.69 835.681 1054.7 835.845 1044.72C826.006 1044.91 816.163 1044.89 806.324 1044.68C805.854 1035.51 806.105 1024.62 806.105 1015.31C816.034 1015.23 825.9 1015.37 835.849 1015.2Z"/><path fill="#FCFCFB" d="M925.298 717.008C935.24 716.864 945.184 716.802 955.128 716.822L955.181 730.799L955.142 746.648C964.661 746.594 975.59 746.801 984.989 746.43C985.017 756.214 985.217 766.56 985.012 776.298C975.065 776.41 965.118 776.422 955.171 776.335L955.139 806.105L925.121 806.105L925.173 836.108L895.673 836.108C895.717 846.016 895.696 855.924 895.61 865.831C885.673 865.783 875.736 865.829 865.799 865.968C865.641 856.015 865.646 846.061 865.814 836.108L851.694 836.021C856.393 835.81 861.096 835.735 865.799 835.796L865.799 805.793C875.985 805.944 885.727 805.748 895.802 805.793C895.792 786.382 895.338 766.171 895.61 746.888C905.359 746.462 915.486 746.57 925.275 746.551L925.298 717.008Z"/><path fill="#FCFCFB" d="M925.254 358.653L955.037 358.511C955.191 368.416 955.256 378.323 955.23 388.23C965.083 388.402 974.888 388.261 984.726 388.338C985.801 395.692 984.779 409.677 984.886 417.876C975.009 418.102 965.129 418.199 955.249 418.167C954.906 427.456 955.15 438.399 955.115 447.822L925.347 447.895L925.211 418.092L895.662 418.116L895.626 447.889C905.499 447.815 915.373 447.817 925.246 447.895L925.143 477.866C933.655 477.757 946.736 477.33 955.118 478.016L955.19 507.633C946.555 507.148 934.24 507.501 925.281 507.489L925.291 477.91L865.799 477.598C865.879 457.928 865.401 437.689 865.829 418.175C873.946 418.626 887.108 418.173 895.734 418.191C895.368 408.141 895.559 398.353 895.74 388.301L925.225 388.278C925.333 378.404 925.342 368.528 925.254 358.653Z"/><path fill="#FCFCFB" d="M794.015 746.706C797.928 746.41 802.047 746.621 805.982 746.72L806.018 776.524L835.828 776.462C836.039 786.104 835.802 796.402 835.739 806.093C838.823 806.09 841.908 806.133 844.991 806.221C842.025 806.485 838.793 806.402 835.796 806.405L835.796 835.796L805.793 835.796C805.807 833.712 805.983 829.84 805.521 827.969C805.506 830.397 805.923 833.583 804.847 835.339C803.638 835.577 803.335 835.586 802.137 835.562L801.044 835.536L801.095 835.648C802.763 835.733 803.518 835.702 805.144 836.112C796.968 836.321 785.266 836.461 777.194 835.95C778.86 835.878 779.634 835.911 781.264 835.526C778.528 835.458 778.21 835.973 776.758 834.563L776.715 820.182C776.697 816.63 776.659 813.079 776.599 809.528C776.07 816.698 776.412 828.302 776.402 835.796L746.399 835.796L746.399 806.405C755.911 806.617 766.417 805.757 776.402 805.793C776.218 796.312 777.049 786.743 777.015 777.015C786.263 777.018 795.766 777.13 804.983 776.815C800.433 776.087 782.148 776.305 776.329 776.181C776.377 766.394 776.341 756.606 776.222 746.819L794.015 746.706Z"/><path fill="#FCFCFB" d="M776.24 149.481L805.892 149.456C806.549 157.271 806.15 171.209 806.178 179.374C816.041 179.285 825.906 179.295 835.769 179.404C835.931 189.218 835.795 199.346 835.784 209.185C844.67 208.552 856.752 208.965 865.869 209.078C865.507 199.245 865.716 189.209 865.814 179.355L895.699 179.252C895.493 188.913 895.635 199.133 895.607 208.841C887.039 209.102 873.56 208.367 865.685 209.17L865.702 238.816C855.749 239.035 845.793 239.049 835.839 238.858C835.773 228.944 835.758 219.029 835.795 209.114L806.389 208.963C806.003 199.148 806.119 188.948 806.105 179.093C801.775 179.131 778.277 179.764 776.35 178.381C776.386 168.748 776.349 159.114 776.24 149.481Z"/><path fill="#004A5D" d="M556.612 843.871C601.864 842.446 648.35 844.659 693.711 843.886C709.284 843.621 710.365 862.125 696.195 864.151C677.349 864.714 658.503 864.16 639.656 864.236C628.459 864.282 560.018 865.526 554.328 863.616C551.753 862.752 549.699 860.643 548.711 858.142C547.653 855.467 547.544 851.935 548.878 849.351C550.402 846.398 553.603 844.826 556.612 843.871Z"/><path fill="#FCFCFB" d="M358.511 627.084L388.095 627.049L388.078 657.013L418.082 657.018C418.336 666.589 418.09 677.232 418.075 686.887L388.087 686.694C388.203 691.383 388.131 696.075 387.873 700.758C387.512 696.784 387.614 691.703 387.589 687.618C383.911 687.636 361.615 688.01 359.073 687.169L360.494 686.882C368.5 686.881 379.556 687.203 387.322 686.702C384.964 686.145 362.766 686.391 358.811 686.394C358.867 683.171 358.701 680.115 358.552 676.903L357.97 685.169C357.238 677.445 357.594 665.758 357.879 657.93L358.498 669.86C358.857 665.965 358.785 661.57 358.811 657.615C364.637 657.642 377.16 657.906 382.592 657.242C378.417 656.628 363.348 656.773 358.351 656.719C358.303 646.84 358.356 636.961 358.511 627.084Z"/><path fill="#004A5D" d="M587.213 884.183C594.326 884.127 596.068 887.079 602.776 891.307C614.111 898.452 635.486 897.482 647.792 893.446C653.388 890.514 657.17 886.024 663.564 884.565C671.309 882.798 674.15 888.062 674.093 895.157C674.058 899.443 670.815 902.036 667.677 904.85C624.288 936.523 555.506 899.368 587.213 884.183Z"/><path fill="#004A5D" d="M624.575 249.308C626.17 249.234 627.893 249.259 629.453 249.647C632.101 250.307 634.546 251.942 635.752 254.443C637.592 258.261 637.732 339.702 636.284 343.758C635.092 347.099 632.574 348.739 629.52 350.24C627.9 350.269 626.175 350.356 624.589 349.98C621.903 349.345 619.532 347.696 618.244 345.221C616.836 342.515 616.219 260.419 617.674 256.003C618.847 252.443 621.409 250.964 624.575 249.308Z"/><path fill="#004A5D" d="M857.034 572.736C865.713 572.364 929.301 571.373 934.48 574.029C936.898 575.269 938.737 577.594 939.479 580.196C940.222 582.797 939.716 585.93 938.381 588.263C936.715 591.175 933.974 592.334 930.908 593.253C920.06 593.227 859.137 594.792 853.674 592.097C851.264 590.908 849.345 588.736 848.545 586.166C847.717 583.508 847.889 580.373 849.338 577.959C851.116 574.998 853.81 573.615 857.034 572.736Z"/><path fill="#004A5D" d="M323.218 572.672C332.248 572.378 395.118 571.324 400.632 574.143C403.039 575.374 404.717 577.789 405.404 580.364C406.128 583.079 405.638 586.078 404.183 588.48C402.524 591.22 399.886 592.364 396.933 593.203C386.098 593.424 324.857 594.539 319.634 592.047C317.228 590.9 315.357 588.39 314.585 585.883C313.756 583.193 314.384 580.36 315.688 577.924C317.34 574.836 320.02 573.653 323.218 572.672Z"/><path fill="#FCFCFB" d="M268.77 1074.91L298.883 1074.91C298.146 1083.87 298.946 1095.41 298.608 1104.76C308.057 1104.74 319.184 1105 328.495 1104.6C328.486 1113.91 328.793 1125.38 328.372 1134.51C318.811 1134.55 308.292 1134.79 298.811 1134.45C298.534 1124.51 298.499 1114.56 298.706 1104.61C290.069 1104.59 277.085 1104.16 268.806 1104.62C268.74 1094.71 268.728 1084.81 268.77 1074.91Z"/><path fill="#004A5D" d="M822.229 415.537C817.372 419.465 814.142 424.417 808.306 427.211C800.088 431.146 791.656 419.161 796.805 413.004C804.348 403.983 813.707 395.528 822.101 387.151C831.607 377.666 841.293 367.995 851.243 358.976C857.154 353.542 867.289 357.787 867.498 365.844C867.696 373.45 857.104 380.12 852.42 385.596L851.656 386.506C843.922 393.318 829.338 407.8 822.229 415.537Z"/><path fill="#FCFCFB" d="M1134.6 507.674C1144.26 507.655 1154.71 507.846 1164.29 507.596C1164.41 517.636 1164.46 527.676 1164.44 537.716C1174.11 537.732 1184.51 537.932 1194.13 537.647C1194.27 547.579 1194.27 557.513 1194.11 567.446C1184.59 567.457 1173.95 567.223 1164.53 567.513C1164.5 557.893 1164.71 547.096 1164.4 537.579C1154.52 537.629 1144.63 537.602 1134.75 537.498C1134.41 527.655 1134.56 517.545 1134.6 507.674Z"/><path fill="#FCFCFB" d="M955.247 925.842C965.125 925.58 975.007 925.531 984.886 925.694C984.837 935.798 985.219 944.906 984.867 955.183C974.961 955.385 965.051 955.387 955.145 955.188L955.106 985.155C945.164 985.265 935.221 985.254 925.28 985.121L925.301 955.611L955.323 955.48C954.966 945.729 955.174 935.627 955.247 925.842Z"/><path fill="#FCFCFB" d="M1074.79 985.518L1104.63 985.235C1104.65 995.252 1104.72 1005.27 1104.86 1015.28L1134.63 1015.16C1134.11 1023.34 1134.53 1036.17 1134.53 1044.7C1124.64 1044.89 1114.74 1044.86 1104.86 1044.59C1104.5 1035.21 1104.74 1024.53 1104.75 1015.06C1094.8 1015.06 1084.85 1015.01 1074.91 1014.89C1074.91 1005.04 1074.69 995.492 1074.79 985.518Z"/><path fill="#FCFCFB" d="M268.855 836.108L298.704 836.108C298.772 846.109 298.735 856.111 298.593 866.111L328.495 866.111C328.525 875.954 328.502 885.798 328.426 895.641C318.661 896.002 308.634 895.792 298.842 895.702C298.257 886.725 298.579 874.998 298.62 865.831L268.896 865.859C268.783 855.942 268.769 846.025 268.855 836.108Z"/><path fill="#FCFCFB" d="M238.888 627.193C248.83 627.045 258.772 626.995 268.714 627.041L268.665 656.774L238.945 656.781C229.311 656.504 218.796 656.73 209.096 656.756L209.096 627.266C219.027 627.326 228.958 627.302 238.888 627.193Z"/><path fill="#004A5D" d="M387.542 360.713C391.663 360.319 395.168 360.012 398.398 363.091C413.06 377.103 427.549 391.274 442.144 405.367C446.454 409.529 454.072 415.321 452.293 422.18C451.366 425.758 449.163 427.323 446.152 429.16C436.041 431.166 430.433 421.999 423.437 415.257C410.263 402.559 397.015 389.767 384.246 376.681C378.807 371.107 382.332 364.748 387.542 360.713Z"/><path fill="#FCFCFB" d="M418.452 179.604L447.295 179.643C447.26 189.302 447.301 198.962 447.418 208.62C441.234 208.533 423.442 207.105 419.204 210.344C416.85 214.152 417.886 232.783 417.868 238.704C408.075 238.51 398.28 238.454 388.486 238.538C388.554 233.171 387.709 213.432 389.065 209.888C395.122 208.438 411.79 211.091 417.708 208.53C419.255 205.177 418.513 184.683 418.452 179.604Z"/><path fill="#FCFCFB" d="M851.656 386.506C856.362 386.368 860.64 377.122 864.287 375.724C865.764 379.414 865.287 383.55 865.187 387.589L857.847 387.634L857.538 387.987L856.452 387.91L858.51 387.717L857.869 388.131C860.497 388.2 863.125 388.244 865.753 388.263L865.829 418.175C858.618 417.629 843.712 418.189 835.964 418.246C836.004 427.057 835.194 437.409 835.476 445.826C834.889 438.006 835.187 426.889 835.184 418.816C830.959 418.858 827.045 418.878 822.823 418.713L822.537 418.156C825.474 417.896 831.468 418.099 835.188 417.891C834.421 417.134 826.283 418.308 822.725 417.173L822.229 415.537C829.338 407.8 843.922 393.318 851.656 386.506Z"/><path fill="#FCFCFB" d="M835.184 865.187C835.182 855.97 835.055 846.404 835.37 837.222C836.256 842.488 835.833 859.672 835.825 866.073C845.411 865.754 856.127 865.965 865.799 865.968C865.693 875.885 865.666 885.802 865.718 895.72C856.288 895.734 845.107 895.435 835.81 895.753L835.795 865.826C828.414 865.887 814.047 866.365 807.297 865.444C811.515 864.851 829.924 865.192 835.184 865.187Z"/><path fill="#FCFCFB" d="M985.192 507.592C985.013 498.162 985.024 488.73 985.223 479.301C986.291 481.582 985.837 502.821 985.811 506.988L1013.15 506.985L1013.34 507.457L1013.29 507.535L985.04 507.496L984.886 537.24C977.155 537.977 963.432 537.532 955.133 537.518C955.072 527.556 955.091 517.594 955.19 507.633C965.19 507.717 975.192 507.703 985.192 507.592Z"/><path fill="#FCFCFB" d="M745.787 1045.58C747.052 1048.68 746.432 1070.6 746.373 1074.91L776.09 1074.91L776.09 1104.53C766.604 1104.8 757.113 1104.79 747.627 1104.52L746.912 1104.27C746.126 1101.34 746.394 1079.18 746.391 1074.66C737.29 1074.69 727.834 1074.85 718.782 1074.34L720.329 1074.35C721.042 1073.81 742.917 1073.98 745.787 1073.98L745.787 1045.58Z"/><path fill="#FCFCFB" d="M627.045 1134.57C636.051 1134.81 648.088 1135.04 657.008 1134.63C657.003 1138.45 656.494 1163.17 657.629 1164.36C659.224 1164.36 660.212 1164.29 661.788 1164.66L661.591 1165.18C659.639 1165.22 658.711 1164.83 657.687 1165.84C657.537 1174.15 657.513 1182.47 657.615 1190.78L657.392 1192.7C656.719 1189.18 657.037 1169.15 657.059 1164.21C647.556 1164.41 636.606 1164.68 627.109 1164.14C626.983 1154.28 626.962 1144.43 627.045 1134.57Z"/><path fill="#FCFCFB" d="M1134.6 119.399L1164.6 119.399L1164.6 149.402L1134.6 149.402L1134.6 119.399Z"/><path fill="#FCFCFB" d="M268.802 268.802L298.805 268.802L298.805 298.805L268.802 298.805L268.802 268.802Z"/><path fill="#FCFCFB" d="M208.781 268.802C214.15 268.85 234.484 267.881 237.569 269.57C240.311 273.051 238.801 293.532 238.799 298.805L208.838 298.739C208.664 288.761 208.645 278.781 208.781 268.802Z"/><path fill="#FCFCFB" d="M537.551 955.175C538.101 957.139 537.552 981.648 537.528 985.209C527.62 985.281 517.712 985.276 507.804 985.193C507.181 978.085 507.662 963.245 507.706 955.572C517.221 955.133 528.291 956.059 537.551 955.175Z"/><path fill="#FCFCFB" d="M298.643 388.213C308.619 388.306 318.596 388.34 328.573 388.316L328.55 417.548C325.908 418.823 302.842 418.134 298.856 418.071C298.49 409.641 298.328 396.775 298.643 388.213Z"/><path fill="#FCFCFB" d="M835.826 686.986C845.328 686.575 856.218 686.853 865.808 686.933L865.732 716.697C855.772 716.802 845.81 716.769 835.851 716.599C835.646 706.73 835.638 696.857 835.826 686.986Z"/><path fill="#FCFCFB" d="M1074.91 627.075C1084.84 627.023 1094.77 627.039 1104.71 627.123C1104.69 635.384 1105.11 649.195 1104.42 656.931C1096.21 656.924 1082.89 657.338 1075.17 656.665C1074.2 647.85 1074.72 636.068 1074.91 627.075Z"/><path fill="#FCFCFB" d="M955.158 1045.11C964.487 1044.68 975.745 1044.48 985.086 1044.98C985.073 1054.39 985.33 1065.35 984.949 1074.63L955.221 1074.69C955.116 1064.83 955.095 1054.97 955.158 1045.11Z"/><path fill="#FCFCFB" d="M119.355 835.768L119.509 835.845C118.944 844.506 119.314 856.862 119.318 865.798C109.57 865.862 99.8222 865.855 90.0747 865.778C89.0094 861.935 89.5055 841.491 89.568 836.083C99.388 835.653 109.428 836.275 119.355 835.768Z"/><path fill="#FCFCFB" d="M844.45 1164.27C850.301 1164.04 859.622 1164.51 865.72 1164.63L865.734 1193.98L857.073 1194.12L835.859 1194.11C835.531 1184.42 835.761 1174.2 835.838 1164.47L844.45 1164.27Z"/><path fill="#FCFCFB" d="M835.883 627.113L865.726 626.974L865.726 656.878C856.512 656.873 844.854 656.534 835.841 656.966C835.84 647.055 835.754 637.012 835.883 627.113Z"/><path fill="#FCFCFB" d="M597.007 925.881C606.693 925.294 617.172 925.532 626.939 925.576C627.162 935.451 627.181 945.33 626.996 955.207C617.076 955.33 607.154 955.321 597.233 955.18C597.036 945.415 596.961 935.648 597.007 925.881Z"/><path fill="#FCFCFB" d="M657.017 328.685C666.99 328.49 676.966 328.461 686.94 328.597C686.951 338.647 686.788 348.261 686.945 358.396C676.981 358.506 667.017 358.445 657.056 358.215C656.97 348.372 656.957 338.528 657.017 328.685Z"/><path fill="#FCFCFB" d="M835.796 149.45C845.786 149.498 855.776 149.465 865.765 149.352L865.764 179.139L835.914 179.151C835.637 169.396 835.783 159.239 835.796 149.45Z"/><path fill="#FCFCFB" d="M835.924 268.982L865.743 268.918C865.786 278.34 866.047 289.129 865.535 298.442C855.86 298.847 845.655 298.707 835.929 298.716C835.672 288.807 835.67 278.892 835.924 268.982Z"/><path fill="#FCFCFB" d="M1018.58 627.102C1027.28 626.956 1036.27 627.085 1044.98 627.101C1044.88 637.091 1044.98 647.304 1044.79 657.248L1043.89 656.792C1034.43 656.977 1024.68 656.877 1015.2 656.897C1015.07 652.441 1014.2 629.943 1015.81 627.472L1018.58 627.102Z"/><path fill="#FCFCFB" d="M507.7 1074.91L537.617 1074.91C537.715 1084.79 537.685 1094.67 537.527 1104.55C527.638 1104.91 517.575 1104.68 507.666 1104.56C507.583 1094.68 507.594 1084.79 507.7 1074.91Z"/><path fill="#FCFCFB" d="M1090.98 1104.9C1093.98 1104.48 1101.56 1104.64 1104.67 1104.94L1104.62 1134.5L1087.91 1134.62L1075.03 1134.48C1074.22 1125.71 1074.69 1113.74 1074.93 1104.91L1090.98 1104.9Z"/><path fill="#FCFCFB" d="M925.202 656.975C935.191 657.033 945.181 657.038 955.171 656.99L955.043 686.808C945.131 686.898 935.219 686.885 925.307 686.769C925.292 676.861 925.341 666.875 925.202 656.975Z"/><path fill="#FCFCFB" d="M865.797 119.732C875.694 119.564 885.592 119.502 895.489 119.546C895.488 129.439 895.557 139.331 895.698 149.223L865.765 149.352C865.6 139.479 865.61 129.604 865.797 119.732Z"/><path fill="#FCFCFB" d="M268.786 746.444C268.65 756.443 268.644 766.444 268.768 776.444C261.296 775.881 246.957 776.331 238.947 776.295C238.616 766.57 238.823 756.517 238.9 746.761C248.164 746.166 259.102 746.975 268.786 746.444Z"/><path fill="#FCFCFB" d="M247.059 1044.87C254.174 1044.68 261.538 1044.81 268.673 1044.85L268.704 1074.51L262.832 1074.64C254.882 1074.66 246.931 1074.61 238.982 1074.49C238.775 1064.68 238.761 1054.86 238.939 1045.05L247.059 1044.87Z"/><path fill="#FCFCFB" d="M925.279 836.108L955.152 836.108L955.105 865.74L925.28 865.948L925.279 836.108Z"/><path fill="#FCFCFB" d="M1075.08 388.299L1104.65 388.287L1104.59 417.989C1094.64 418.124 1084.69 418.142 1074.73 418.043C1074.63 409.612 1074.23 396.276 1075.08 388.299Z"/><path fill="#FCFCFB" d="M627.082 358.598C636.993 358.485 647.031 358.582 656.953 358.599C657.018 368.456 657.011 378.313 656.932 388.17C646.98 388.276 637.027 388.286 627.075 388.2C626.796 378.725 627.051 368.154 627.082 358.598Z"/><path fill="#FCFCFB" d="M627.033 1104.66L627.045 1134.57C618.239 1134.32 605.773 1135.15 597.309 1134.23C597.352 1124.42 597.273 1114.6 597.073 1104.79L627.033 1104.66Z"/><path fill="#FCFCFB" d="M716.701 1104.7C726.6 1104.62 736.5 1104.62 746.4 1104.72C746.452 1114.66 746.421 1124.6 746.306 1134.54C736.469 1134.6 726.632 1134.58 716.795 1134.49C716.478 1125.03 716.714 1114.26 716.701 1104.7Z"/><path fill="#FCFCFB" d="M1134.58 925.547C1144.43 925.806 1154.72 925.691 1164.61 925.715C1164.24 935.11 1164.45 945.752 1164.44 955.241C1154.79 955.61 1144.37 955.377 1134.66 955.325C1134.4 945.624 1134.57 935.296 1134.58 925.547Z"/><path fill="#FCFCFB" d="M835.745 985.336C844.64 985.365 857.116 985.79 865.72 985.308L865.774 1015.17C858.133 1014.61 843.94 1015.03 835.849 1015.2L835.745 985.336Z"/><path fill="#FCFCFB" d="M371.213 1104.9C375.94 1104.47 383.251 1104.73 388.178 1104.76L388.162 1134.53L373.353 1134.62L358.52 1134.54C358.266 1124.67 358.202 1114.79 358.328 1104.91L371.213 1104.9Z"/><path fill="#FCFCFB" d="M268.806 1104.62C268.407 1113.75 268.716 1125.22 268.703 1134.54L238.884 1134.62C238.599 1125.07 238.863 1114.38 238.896 1104.74C248.777 1104.77 258.956 1104.92 268.806 1104.62Z"/><path fill="#FCFCFB" d="M955.243 328.73C964.95 328.385 975.135 328.527 984.886 328.526C985.028 338.419 985.028 348.313 984.886 358.206C974.988 358.432 965.087 358.439 955.189 358.228C955.136 348.396 955.154 338.563 955.243 328.73Z"/><path fill="#FCFCFB" d="M855.09 746.706C858.555 746.418 862.297 746.682 865.796 746.815C865.454 755.995 865.72 766.852 865.71 776.163C858.954 776.315 852.197 776.371 845.44 776.332L835.883 776.337C835.604 766.713 835.787 756.46 835.807 746.786L855.09 746.706Z"/><path fill="#FCFCFB" d="M835.749 89.9165C845.77 89.7355 855.794 89.7662 865.814 90.0083L865.73 119.42L835.855 119.352C835.671 109.541 835.636 99.7282 835.749 89.9165Z"/><path fill="#FCFCFB" d="M268.858 537.78C278.735 537.625 288.614 537.57 298.492 537.614L298.492 567.465C288.614 567.503 278.736 567.488 268.858 567.42C268.753 557.541 268.753 547.66 268.858 537.78Z"/><path fill="#FCFCFB" d="M358.341 507.703L388.095 507.629C388.212 517.573 388.23 527.519 388.151 537.464C378.255 537.605 368.357 537.577 358.462 537.381C358.079 528.137 358.35 517.084 358.341 507.703Z"/><path fill="#FCFCFB" d="M955.22 268.98L984.886 268.908L984.886 298.693L955.221 298.721C955.145 288.807 955.145 278.893 955.22 268.98Z"/><path fill="#FCFCFB" d="M627.05 1074.92L656.965 1074.91L656.966 1104.53C646.988 1104.64 637.011 1104.68 627.033 1104.66L627.05 1074.92Z"/><path fill="#FCFCFB" d="M1015.01 746.795C1024.37 746.447 1035.41 746.719 1044.91 746.712C1044.91 756.569 1044.83 766.425 1044.68 776.281C1034.82 776.447 1024.95 776.432 1015.09 776.235C1014.63 767.412 1014.89 755.797 1015.01 746.795Z"/><path fill="#FCFCFB" d="M269.251 358.691C278.294 358.617 289.892 358.868 298.717 358.39C298.708 368.177 298.863 378.468 298.643 388.213C288.722 388.129 278.801 388.102 268.88 388.13C268.819 383.442 268.271 361.587 269.251 358.691Z"/><path fill="#FCFCFB" d="M507.657 119.439L537.563 119.712C537.623 129.578 537.607 139.444 537.516 149.309L507.709 149.308C507.628 139.352 507.611 129.395 507.657 119.439Z"/><path fill="#FCFCFB" d="M1093.12 269.108C1096.13 268.821 1101.42 268.922 1104.62 268.9L1104.62 298.714L1084.24 298.696L1074.91 298.704C1074.81 288.889 1074.35 278.856 1075.06 269.114L1093.12 269.108Z"/><path fill="#FCFCFB" d="M1134.61 985.357L1164.45 985.339C1164.45 994.817 1164.71 1005.71 1164.34 1015.07C1155.36 1015.08 1143.35 1014.71 1134.63 1015.16L1134.61 985.357Z"/><path fill="#FCFCFB" d="M508.021 776.479C517.934 776.539 527.847 776.506 537.76 776.38C537.292 785.697 537.675 796.27 537.346 806.014C527.349 805.843 517.776 806.221 507.618 805.838C507.554 796.972 507.266 785.08 508.021 776.479Z"/><path fill="#FCFCFB" d="M149.709 895.938C159.348 895.699 169.419 895.837 179.093 895.835C179.141 902.837 179.6 919.178 178.87 925.806C174.156 925.177 155.264 925.63 149.499 925.657C149.38 919.158 148.81 901.965 149.709 895.938Z"/><path fill="#FCFCFB" d="M537.602 328.574C547.114 328.33 557.536 328.543 567.12 328.544C567.272 338.611 567.392 348.208 567.024 358.267C557.267 358.5 547.506 358.497 537.749 358.256C537.295 349.08 537.588 337.901 537.602 328.574Z"/><path fill="#FCFCFB" d="M1134.64 388.313L1164.29 388.347L1164.29 418.013L1134.65 418.105C1134.63 408.246 1134.5 398.151 1134.64 388.313Z"/><path fill="#FCFCFB" d="M119.443 925.86C129.39 925.678 139.339 925.653 149.288 925.786C149.365 935.609 149.349 945.433 149.238 955.257C139.32 955.414 129.4 955.405 119.482 955.23C119.197 945.803 119.427 935.364 119.443 925.86Z"/><path fill="#FCFCFB" d="M955.165 866.111L984.886 866.111C984.807 875.909 985.125 885.923 985.091 895.826C976.381 895.412 964.342 895.782 955.273 895.681C954.911 886.019 955.115 875.823 955.165 866.111Z"/><path fill="#FCFCFB" d="M368.92 746.706C373.784 746.27 382.614 746.649 387.99 746.527C388.285 756.129 388.101 766.589 388.13 776.271L379.17 776.38L358.325 776.289L358.355 746.805L368.92 746.706Z"/><path fill="#FCFCFB" d="M925.202 298.776C935.208 298.835 945.215 298.817 955.221 298.721C954.868 307.911 955.14 318.94 955.121 328.277C945.175 328.492 935.225 328.473 925.279 328.222C925.379 318.406 925.353 308.59 925.202 298.776Z"/><path fill="#FCFCFB" d="M386.064 239.216C386.33 239.094 387.104 239.085 387.448 239.061C388.875 241.211 388.228 264.502 388.201 268.802L360.494 268.802L358.776 268.578C357.572 265.39 358.146 244.461 358.198 239.411C367.27 239.434 377.061 239.63 386.064 239.216Z"/><path fill="#FCFCFB" d="M865.774 1015.17C875.703 1015.31 885.632 1015.35 895.561 1015.31C895.663 1025.08 895.662 1034.85 895.558 1044.61C885.673 1044.9 875.783 1044.96 865.896 1044.78C865.645 1034.92 865.604 1025.04 865.774 1015.17Z"/><path fill="#FCFCFB" d="M746.315 208.802L746.592 208.917C745.992 212.849 746.36 232.89 746.243 238.855C736.892 239.047 727.118 238.874 717.735 238.838C715.826 236.998 716.765 213.752 716.825 209.224C724.602 208.992 739.39 209.698 746.315 208.802Z"/><path fill="#FCFCFB" d="M328.615 418.278C338.485 418.068 348.359 418.059 358.23 418.251C358.317 426.973 358.642 439.152 357.986 447.696C348.235 447.899 338.481 447.87 328.731 447.61C328.22 437.84 328.182 428.052 328.615 418.278Z"/><path fill="#FCFCFB" d="M806.46 686.694C805.63 677.214 806.618 666.38 805.953 657.046L835.841 656.966L835.739 686.654C825.631 686.887 816.618 686.873 806.46 686.694Z"/><path fill="#FCFCFB" d="M477.91 388.327L507.597 388.319C507.634 392.042 508.3 415.664 506.947 417.785C498.198 418.172 486.598 418.557 477.91 417.694C477.844 407.905 477.844 398.116 477.91 388.327Z"/><path fill="#FCFCFB" d="M835.81 895.753C835.612 905.536 835.738 915.681 835.731 925.492C826.153 925.459 815.797 926.019 806.32 925.382C805.967 915.65 806.089 905.673 806.105 895.915L835.81 895.753Z"/><path fill="#FCFCFB" d="M865.748 717.03C875.726 716.785 885.708 716.756 895.687 716.941L895.551 746.475L865.832 746.414C865.596 736.738 865.733 726.734 865.748 717.03Z"/><path fill="#FCFCFB" d="M358.511 447.907C368.396 447.873 378.282 447.908 388.167 448.013L388.091 477.734C378.236 477.86 368.38 477.821 358.526 477.616L358.511 447.907Z"/><path fill="#FCFCFB" d="M686.809 298.87C696.678 298.72 706.806 298.819 716.697 298.799C716.734 308.603 716.701 318.408 716.6 328.212C706.755 328.529 696.903 328.525 687.059 328.198C686.848 318.424 686.765 308.647 686.809 298.87Z"/><path fill="#FCFCFB" d="M507.657 1134.69C517.419 1134.49 527.865 1134.71 537.717 1134.68C537.747 1144.55 537.685 1154.42 537.528 1164.29L507.716 1164.29C507.436 1154.6 507.621 1144.42 507.657 1134.69Z"/><path fill="#FCFCFB" d="M1074.91 746.773C1084.45 746.496 1095.12 746.722 1104.75 746.712C1104.42 756.099 1104.64 766.718 1104.61 776.201C1094.71 776.41 1084.81 776.444 1074.91 776.302L1074.91 746.773Z"/><path fill="#FCFCFB" d="M790.798 269.108C793.912 268.677 802.482 268.89 806.002 268.892C806.154 278.829 806.127 288.768 805.921 298.705L792.475 298.698L776.408 298.724C776.226 289.016 776.361 278.859 776.344 269.114L790.798 269.108Z"/><path fill="#FCFCFB" d="M1074.71 567.734C1083.63 567.293 1095.56 567.64 1104.71 567.63C1104.42 576.992 1104.65 587.527 1104.65 596.979C1094.79 597.115 1084.93 597.095 1075.07 596.918C1074.19 590.247 1074.65 574.984 1074.71 567.734Z"/><path fill="#FCFCFB" d="M1134.6 567.669C1144.58 567.569 1154.54 567.727 1164.53 567.513C1164.2 576.957 1164.42 587.483 1164.27 597.118C1154.41 597.18 1144.54 597.119 1134.68 596.935C1134.57 587.18 1134.54 577.425 1134.6 567.669Z"/><path fill="#FCFCFB" d="M482.962 1104.85C489.081 1104.02 500.171 1105.23 507.598 1104.71C507.642 1109.37 508.307 1131.55 506.883 1134.33L505.304 1134.52L477.91 1134.48C477.874 1127.03 477.414 1112.54 478.153 1105.67C479.687 1104.59 480.716 1104.96 482.962 1104.85Z"/><path fill="#FCFCFB" d="M567.306 298.857C577.281 298.787 587.256 298.773 597.231 298.815C597.026 308.548 597.037 318.471 596.95 328.221C587.109 328.525 577.26 328.545 567.417 328.28C567.116 318.846 567.32 308.371 567.306 298.857Z"/><path fill="#FCFCFB" d="M1194.11 925.829C1204.07 925.662 1214.04 925.603 1224 925.654C1224.03 933.927 1224.45 947.329 1223.78 955.214C1213.95 955.357 1204.13 955.358 1194.31 955.217C1194.25 945.386 1194.39 935.664 1194.11 925.829Z"/><path fill="#FCFCFB" d="M1074.91 925.74C1084.58 925.446 1094.93 925.651 1104.66 925.684L1104.58 955.247C1094.7 955.375 1084.82 955.332 1074.94 955.118C1074.44 945.892 1074.8 935.102 1074.91 925.74Z"/><path fill="#FCFCFB" d="M59.824 925.817C69.7636 925.647 79.7053 925.621 89.6457 925.742C89.2821 935.097 89.6578 945.453 89.3696 955.213C79.6179 955.335 69.6626 955.211 59.894 955.189C59.5749 945.61 59.7788 935.446 59.824 925.817Z"/><path fill="#FCFCFB" d="M1200.59 1044.89C1207.28 1044.51 1217.05 1044.86 1223.96 1044.9C1223.99 1050.35 1224.42 1069.26 1223.59 1073.91C1221.59 1074.84 1218.79 1074.61 1216.5 1074.63L1194.34 1074.63C1194.29 1069.26 1193.77 1050.29 1194.5 1045.75C1196.35 1044.51 1198.26 1044.87 1200.59 1044.89Z"/><path fill="#FCFCFB" d="M1164.56 239.193C1173.97 238.892 1184.62 239.122 1194.12 239.111C1194.25 248.973 1194.2 258.836 1193.97 268.695C1184.17 268.911 1174.37 268.901 1164.57 268.665C1164.26 259.287 1164.53 248.663 1164.56 239.193Z"/><path fill="#FCFCFB" d="M805.002 985.508L805.4 985.681C806.667 988.04 805.992 1010.8 805.942 1015.08L777.191 1015.12L776.689 1014.67C776.049 1011.73 776.283 990.32 776.247 985.511L805.002 985.508Z"/><path fill="#FCFCFB" d="M716.71 268.917L746.4 268.961L746.348 298.698L716.96 298.665C716.372 289.995 716.727 277.882 716.71 268.917Z"/><path fill="#FCFCFB" d="M268.768 776.444C278.75 776.583 288.734 776.576 298.716 776.422L298.492 806.034C288.612 806.083 278.731 806.025 268.851 805.861L268.768 776.444Z"/><path fill="#FCFCFB" d="M955.309 567.737C964.963 567.48 975.189 567.63 984.886 567.619C985.02 577.452 985.02 587.286 984.886 597.119C975.041 597.221 965.195 597.184 955.351 597.008C954.964 586.973 955.117 577.798 955.309 567.737Z"/><path fill="#FCFCFB" d="M776.317 328.764C786.184 328.529 796.053 328.462 805.922 328.564C806.008 338.468 806.014 348.373 805.941 358.277C796.078 358.462 786.213 358.487 776.35 358.353L776.317 328.764Z"/><path fill="#FCFCFB" d="M537.66 268.93C547.472 269.009 557.432 268.875 567.257 268.829C566.994 278.467 567.204 289.015 567.203 298.723L537.724 298.72C537.45 288.919 537.618 278.763 537.66 268.93Z"/><path fill="#FCFCFB" d="M1104.91 298.862C1114.7 298.712 1124.75 298.818 1134.56 298.806C1134.59 305.596 1135.02 322.05 1134.11 328.259C1124.52 328.499 1114.47 328.664 1104.91 328.183C1104.79 318.41 1104.79 308.635 1104.91 298.862Z"/><path fill="#FCFCFB" d="M1104.91 597.327L1134.57 597.309L1134.5 626.93L1104.91 626.932L1104.91 597.327Z"/><path fill="#FCFCFB" d="M746.487 298.851L776.407 298.825C775.717 306.693 776.227 319.11 776.09 327.631C773.687 329.306 751.318 328.419 746.471 328.344C746.316 318.618 746.461 308.599 746.487 298.851Z"/><path fill="#FCFCFB" d="M1134.64 268.935C1144.53 268.852 1154.41 268.83 1164.29 268.868L1164.29 298.36C1154.2 298.983 1144.81 298.798 1134.7 298.697C1134.42 288.887 1134.59 278.773 1134.64 268.935Z"/><path fill="#FCFCFB" d="M298.661 925.686C308.545 925.423 318.595 925.645 328.495 925.768L328.478 955.291C318.576 955.347 308.673 955.328 298.772 955.233C298.391 945.515 298.595 935.44 298.661 925.686Z"/><path fill="#FCFCFB" d="M895.572 269.114C905.426 269.114 915.279 269.048 925.132 268.914L925.202 298.776C915.434 298.692 905.665 298.67 895.897 298.711C895.405 288.782 895.513 279.05 895.572 269.114Z"/><path fill="#FCFCFB" d="M119.487 866.223C128.977 865.916 139.52 866.123 149.09 866.111C149.25 875.968 149.25 885.827 149.09 895.684C139.202 895.821 129.312 895.817 119.424 895.674L119.487 866.223Z"/><path fill="#FCFCFB" d="M1164.53 895.903L1194.01 895.84C1194.16 905.75 1194.17 915.662 1194.04 925.572C1184.23 925.669 1174.42 925.716 1164.61 925.715C1164.46 915.778 1164.43 905.84 1164.53 895.903Z"/><path fill="#FCFCFB" d="M895.764 149.452L925.127 149.44C925.181 159.363 925.181 169.287 925.127 179.21C915.318 179.146 905.508 179.16 895.699 179.252C895.548 169.319 895.569 159.384 895.764 149.452Z"/><path fill="#FCFCFB" d="M477.91 746.712L507.587 746.712C507.701 756.592 507.706 766.473 507.602 776.353L477.91 776.343L477.91 746.712Z"/><path fill="#FCFCFB" d="M567.301 1015.35C577.129 1015.06 587.192 1015.25 597.042 1015.34C597.118 1025.12 597.067 1034.9 596.889 1044.68C587.291 1045.09 577.195 1044.82 567.549 1044.71C567.198 1035.2 567.338 1024.92 567.301 1015.35Z"/><path fill="#FCFCFB" d="M1194.34 627.109C1204.21 627.015 1214.08 627.024 1223.95 627.135C1223.99 631.077 1224.58 654.414 1223.32 656.691L1194.44 656.858C1194.15 647.106 1194.32 636.9 1194.34 627.109Z"/><path fill="#FCFCFB" d="M776.299 89.9587C785.28 89.4633 796.828 89.7616 805.891 89.7927C806.177 99.4764 806.031 109.59 806.024 119.31C796.143 119.411 786.262 119.4 776.382 119.278C776.209 109.618 776.317 99.6447 776.299 89.9587Z"/><path fill="#FCFCFB" d="M358.511 925.798C367.013 925.144 379.593 925.573 388.183 925.721L388.198 955.286C378.302 955.408 368.405 955.352 358.511 955.119L358.511 925.798Z"/><path fill="#FCFCFB" d="M448.013 955.678C456.749 955.157 468.659 955.511 477.631 955.521L477.65 985.121C467.832 985.292 458.011 985.313 448.192 985.185C447.49 977.216 447.891 963.879 448.013 955.678Z"/><path fill="#FCFCFB" d="M358.511 1164.57C368.294 1164.37 378.08 1164.28 387.866 1164.29C388.174 1174.18 388.181 1184.08 387.889 1193.98C378.551 1194.35 367.944 1194.1 358.511 1194.08L358.511 1164.57Z"/><path fill="#FCFCFB" d="M1164.52 1015.32C1174.38 1015.12 1184.24 1015.13 1194.1 1015.35C1194.18 1025.13 1194.16 1034.91 1194.05 1044.69C1184.21 1044.87 1174.36 1044.89 1164.52 1044.74C1164.42 1034.94 1164.42 1025.13 1164.52 1015.32Z"/><path fill="#FCFCFB" d="M746.39 358.738C756.068 358.422 766.382 358.496 776.09 358.484C776.024 368.596 776.493 377.89 776.048 388.115C766.182 388.169 756.315 388.166 746.449 388.106L746.39 358.738Z"/><path fill="#FCFCFB" d="M1164.43 955.61C1174.31 955.494 1184.2 955.491 1194.08 955.599C1194.22 965.458 1194.2 975.319 1194 985.177L1164.59 985.194C1164.37 975.44 1164.46 965.39 1164.43 955.61Z"/><path fill="#FCFCFB" d="M179.105 746.844C188.176 746.407 199.641 746.717 208.892 746.712L208.771 776.293C198.953 776.397 189.134 776.399 179.316 776.299C178.75 767.736 179.101 755.669 179.105 746.844Z"/><path fill="#FCFCFB" d="M895.614 925.884C905.551 925.698 915.22 925.471 925.166 925.798C925.324 935.588 925.292 945.38 925.07 955.168C915.338 955.304 905.624 955.515 895.895 955.189C895.431 945.336 895.547 935.734 895.614 925.884Z"/><path fill="#FCFCFB" d="M1134.57 328.541L1164.29 328.604L1164.29 358.24C1154.48 358.568 1144.5 358.356 1134.67 358.247C1134.41 348.614 1134.59 338.231 1134.57 328.541Z"/><path fill="#FCFCFB" d="M268.827 716.888C278.623 716.879 288.723 716.745 298.492 716.985C298.719 726.786 298.719 736.59 298.492 746.391C289.326 746.393 277.745 746.051 268.786 746.444L268.827 716.888Z"/><path fill="#FCFCFB" d="M1194.31 1104.91L1223.96 1104.91L1223.96 1134.53C1214.08 1134.58 1204.19 1134.56 1194.31 1134.48L1194.31 1104.91Z"/><path fill="#FCFCFB" d="M985.079 597.335L1014.89 597.309L1014.89 626.901C1005.15 627.101 995.001 626.947 985.23 626.933C984.91 617.148 985.045 607.142 985.079 597.335Z"/><path fill="#FCFCFB" d="M716.844 1164.46C726.703 1164.38 736.562 1164.39 746.421 1164.49L746.351 1194.06C736.531 1194.14 726.711 1194.13 716.891 1194.02C716.414 1184.84 716.755 1173.78 716.844 1164.46Z"/><path fill="#FCFCFB" d="M477.91 925.813C487.615 925.584 497.839 925.706 507.586 925.667L507.607 955.237C497.708 955.323 487.808 955.291 477.91 955.139C477.734 945.365 477.734 935.588 477.91 925.813Z"/><path fill="#FCFCFB" d="M746.477 955.649C756.132 955.387 766.389 955.531 776.09 955.508L776.09 985.151L746.461 985.193L746.477 955.649Z"/><path fill="#FCFCFB" d="M895.8 328.668C905.57 328.567 915.34 328.518 925.11 328.522L925.116 358.217C915.765 358.548 905.252 358.272 895.813 358.217C895.05 349.968 895.584 337.017 895.8 328.668Z"/><path fill="#FCFCFB" d="M448.016 358.578C457.889 358.44 467.763 358.491 477.634 358.73L477.694 388.083L448.211 388.155C447.602 379.179 447.859 367.624 448.016 358.578Z"/><path fill="#FCFCFB" d="M328.589 1015.29C338.483 1015.2 348.379 1015.21 358.273 1015.32L358.163 1044.76C348.338 1044.89 338.511 1044.88 328.686 1044.74C328.154 1035.83 328.506 1024.25 328.589 1015.29Z"/><path fill="#FCFCFB" d="M895.755 627.515C904.145 626.648 916.441 626.989 925.161 627.071L925.202 656.975L895.877 656.745C895.33 647.036 895.698 637.25 895.755 627.515Z"/><path fill="#FCFCFB" d="M477.91 1164.59C487.804 1164.41 497.7 1164.39 507.595 1164.52L507.651 1194.05C497.737 1194.12 487.823 1194.11 477.91 1194.03L477.91 1164.59Z"/><path fill="#FCFCFB" d="M895.71 985.511L925.081 985.511C925.191 994.018 925.646 1006.75 924.993 1015.08L895.871 1015.06C895.168 1005.81 895.55 994.817 895.71 985.511Z"/><path fill="#FCFCFB" d="M776.351 1104.91L806.024 1104.91L805.955 1134.55C796.076 1134.64 786.196 1134.61 776.317 1134.48L776.351 1104.91Z"/><path fill="#FCFCFB" d="M477.91 985.511L507.642 985.511L507.608 1015.13L477.968 1014.89C477.879 1005.1 477.86 995.303 477.91 985.511Z"/><path fill="#FCFCFB" d="M746.482 239.349C755.912 238.916 766.563 239.12 776.09 239.111L776.09 268.775C766.229 269 756.365 268.967 746.506 268.676C746.445 258.9 746.437 249.125 746.482 239.349Z"/><path fill="#FCFCFB" d="M985.084 716.891C995.019 716.807 1004.95 716.802 1014.89 716.877L1014.89 746.373C1004.97 746.443 995.049 746.423 985.13 746.313C984.969 736.622 985.091 726.608 985.084 716.891Z"/><path fill="#FCFCFB" d="M477.91 89.8961C487.796 89.7746 497.682 89.7792 507.568 89.9099L507.657 119.439C497.741 119.344 487.826 119.315 477.91 119.354L477.91 89.8961Z"/><path fill="#FCFCFB" d="M1134.65 866.131L1164.29 866.111L1164.28 895.689C1154.44 895.852 1144.6 895.853 1134.77 895.695C1134.4 886.084 1134.61 875.8 1134.65 866.131Z"/><path fill="#FCFCFB" d="M865.747 298.865C875.661 298.778 885.576 298.789 895.489 298.898L895.489 328.218C885.793 328.622 875.529 328.427 865.83 328.251C865.709 318.456 865.681 308.66 865.747 298.865Z"/><path fill="#FCFCFB" d="M1194.31 1164.41C1203.88 1164.64 1214.29 1164.44 1223.94 1164.49C1224 1174.32 1224.01 1184.15 1223.94 1193.99C1214.07 1194.11 1204.19 1194.13 1194.32 1194.04L1194.31 1164.41Z"/><path fill="#FCFCFB" d="M895.642 89.9234C905.498 89.7467 915.355 89.7435 925.211 89.914L925.16 119.332L895.796 119.366C895.266 109.83 895.545 99.5421 895.642 89.9234Z"/><path fill="#FCFCFB" d="M119.361 746.712L149.09 746.712L149.09 776.284C139.227 776.386 129.363 776.395 119.499 776.311C119.265 766.616 119.529 756.544 119.361 746.712Z"/><path fill="#FCFCFB" d="M1223.95 806.322L1223.96 835.931C1214.08 836.056 1204.19 836.043 1194.31 835.894L1194.31 806.36C1204.19 806.118 1214.07 806.105 1223.95 806.322Z"/><path fill="#FCFCFB" d="M537.599 985.511L567.145 985.511C567.302 995.368 567.284 1005.23 567.089 1015.08L537.731 1015.07C537.433 1005.35 537.58 995.264 537.599 985.511Z"/><path fill="#FCFCFB" d="M1134.65 418.105C1134.1 425.935 1134.53 439.554 1134.52 447.824C1124.65 447.812 1114.78 447.742 1104.91 447.613L1104.91 418.189C1114.82 418.275 1124.74 418.247 1134.65 418.105Z"/><path fill="#FCFCFB" d="M209.096 388.516C218.674 388.307 228.871 388.466 238.5 388.447L238.548 417.904L209.096 417.904L209.096 388.516Z"/><path fill="#FCFCFB" d="M746.712 836.108L776.09 836.108L776.09 865.884C769.343 865.937 752.925 866.353 746.712 865.33L746.712 836.108Z"/><path fill="#FCFCFB" d="M329.108 149.731C338.626 149.556 348.44 149.654 357.984 149.631C357.708 159.028 357.936 169.359 357.96 178.825C349.839 178.558 338.889 178.023 330.666 178.696C329.393 178.8 329.05 179.842 328.6 180.752L327.885 184.195C327.388 183.716 327.575 181.628 327.556 180.647C326.387 179.442 305.678 180.152 302.046 179.857C304.339 179.187 325.588 179.557 329.055 179.528C329.28 169.865 329.096 159.455 329.108 149.731Z"/><path fill="#FCFCFB" d="M1104.49 179.348L1104.86 179.382C1103.84 182.739 1104.28 203.615 1104.3 208.517C1095.05 208.87 1085.04 208.335 1075.44 208.65C1075.22 199.294 1075.46 189.124 1075.51 179.707C1082.24 178.869 1096.03 179.98 1104.49 179.348Z"/><path fill="#FCFCFB" d="M1015.41 179.61L1044.37 179.644C1044.18 189.137 1044.31 199.041 1044.29 208.568C1034.68 208.463 1025.07 208.477 1015.46 208.608C1015.51 198.942 1015.49 189.276 1015.41 179.61Z"/><path fill="#FCFCFB" d="M179.6 179.666C189.054 179.47 199.004 179.635 208.496 179.647L208.566 208.628C198.915 208.505 189.263 208.483 179.612 208.562C179.743 198.93 179.738 189.297 179.6 179.666Z"/></svg>