<?xml version="1.0" encoding="utf-8" ?><svg xmlns="http://www.w3.org/2000/svg" xmlns:xlink="http://www.w3.org/1999/xlink" width="1254" height="1254" viewBox="0 0 1254 1254"><path fill="#F7F7F7" d="M0 0L25.1516 0L50.269 0L1254 0L1254 1254L0 1254L0 451.569L0 426.476L0 401.36L0 376.267L0 326.677L0 275.962L0 251.092L0 225.707L0 200.906L0 175.812L0 150.81L0 125.518L0 100.468L0 75.3574L0 50.4699L0 25.2414L0 0Z"/><path fill="#FEFEFE" d="M0 0L25.1516 0L50.269 0L50.2138 25.2112C58.4758 25.3243 66.7389 25.3376 75.0012 25.2511L75.0012 50.2181C67.4218 50.2479 57.6046 49.9389 50.2366 50.2587C50.1662 58.6296 50.1592 67.0009 50.2158 75.3719C58.4774 75.4554 66.7397 75.45 75.0012 75.3557L75.0012 99.9563C69.838 100.787 56.1135 100.48 50.3091 100.474C49.5831 107.387 49.8783 118.254 49.8967 125.538L25.2045 125.591L25.0612 150.637L0 150.81L0 125.518L0 100.468L0 75.3574L0 50.4699L0 25.2414L0 0Z"/><path fill="#FEFEFE" d="M0 225.707L25.0833 225.897C25.0938 233.437 24.792 243.608 25.1553 250.988C33.402 251.019 41.9101 250.948 50.1317 251.141L50.209 301.254L25.1045 301.254C25.0879 307.083 25.3965 318.398 24.9243 323.785C24.744 316.973 24.2461 308.529 24.8387 301.866L1.83691 301.866C1.90311 306.515 2.30643 321.746 1.45196 325.55L0 326.677L0 275.962L0 251.092L0 225.707Z"/><path fill="#FEFEFE" d="M25.2353 150.831L50.1655 150.83C50.2285 159.138 50.2166 167.446 50.1298 175.754C41.6534 175.854 33.568 175.958 25.0963 175.657C25.1322 183.943 25.2804 192.556 25.0148 200.808C16.9633 200.833 7.96801 200.653 0 200.906L0 175.812L25.2767 175.812C25.1318 167.485 25.118 159.158 25.2353 150.831Z"/><path fill="#FEFEFE" d="M0 426.476L25.1027 426.476C25.1507 434.673 25.3419 443.424 25.0997 451.569L0 451.569L0 426.476Z"/><path fill="#FEFEFE" d="M0 376.267L24.7201 376.267C25.0004 381.576 26.4182 395.429 23.9674 399.478C20.2014 402.505 5.72647 401.39 0 401.36L0 376.267Z"/><path fill="#003545" d="M920.945 302.527C927.047 302.449 931.184 304.082 932.624 310.684C945.81 371.171 928.698 435.829 898.201 488.543C929.038 530.919 922.05 611.091 890.739 651.655C867.812 681.358 829.945 662.968 807.597 643.472C804.598 653.755 802.405 660.08 796.975 669.263C815.586 697.227 832.127 686.704 854.323 704.026C862.627 714.546 872.8 743.047 876.398 755.581C885.176 786.165 900.498 770.859 911.117 781.194C912.779 782.79 913.68 785.02 913.593 787.323C913.498 789.783 912.432 792.105 910.629 793.782C905.139 798.801 877.359 791.289 873.3 787.306C860.776 775.016 856.886 750.594 849.851 734.364C844.25 721.442 844.093 714.348 827.626 710.369C808.477 705.425 797.426 699.945 785.483 684.422C778.252 691.618 770.915 695.873 761.635 699.797C763.03 706.884 763.319 710.22 762.904 717.412C777.261 727.119 778.631 739.107 783.37 754.739L794.184 790.761C795.68 795.745 797.885 804.221 800.679 808.415C805.018 816.998 830.557 811.694 833.741 820.548C836.881 833.463 825.989 833.398 817.552 832.509C784.42 829.018 785.027 821.825 776.115 792.173L764.87 755.693C763.686 751.818 760.296 739.616 757.935 737.102C748.728 727.296 731.59 731.688 746.354 713.264L745.36 703.302L736.759 703.377C721.292 734.612 696.28 739.423 679.036 749.484C672.292 768.88 669.158 800.5 663.001 819.22C658.731 832.205 646.767 832.232 637.776 835.68C631.414 838.12 622.434 840.802 618.828 834.701C617.523 832.51 617.17 829.881 617.851 827.424C620.506 817.934 636.72 819.524 643.335 815.219C648.276 812.003 650.227 795.863 651.44 789.832L658.521 755.157C644.118 758.265 634.457 759.804 619.547 760.04C603.882 774.227 589.251 779.392 567.517 778.086C563.243 777.829 557.658 775.172 553.452 775.872C546.719 776.992 539.81 778.592 533.113 779.953C521.914 782.29 510.58 783.929 499.176 784.859C458.677 788.983 423.739 786.716 384.131 779.015C383.673 818.873 385.991 839.198 337.664 839.841C329.46 839.951 311.218 846.434 311.081 832.589C311.041 828.529 313.305 825.744 316.903 824.377C325.595 820.692 356.322 823.767 361.843 817.174C367.679 810.207 366.402 784.123 366.539 774.025C352.465 769.313 338.707 763.774 325.863 756.245C320.88 753.324 315.291 748.084 316.871 741.621C318.765 733.874 328.819 727.576 335.008 722.865C345.799 714.671 356.771 706.719 367.916 699.014C367.968 666.365 369.213 633.492 369.811 600.716C371.363 583.36 368.265 562.256 372.402 545.565C377.01 526.975 396.859 524.026 412.006 528.285C414.875 515.776 419.727 504.926 432.235 499.085C438.328 496.074 449.918 495.292 456.083 499.046C468.875 506.836 481.739 518.028 493.558 527.228C521.351 548.863 548.416 571.527 576.581 592.64C604.957 583.323 634.406 577.666 664.214 575.809C683.025 546.273 731.127 535.003 763.907 536.828L764.24 534.616C771.518 487.729 807.2 453.781 856.173 461.886C866.156 420.964 865.644 368.244 835.573 335.168C833.678 331.649 820.747 325.002 819.613 322.888C812.744 310.082 824.513 304.541 835.992 312.464C869.944 335.898 880.616 380.394 879.781 419.43C879.431 435.78 876.447 451.454 873.197 467.278C878.091 470.054 880.857 471.611 885.254 475.019C907.206 436.534 922.424 385.315 918.893 340.806C918.573 336.772 918.219 332.144 917.667 328.092C916.858 322.154 913.095 314.364 914.818 308.462C915.73 305.336 918.327 303.939 920.945 302.527Z"/><path fill="#FEFEFE" d="M398.205 543.889C407.106 544.692 416.29 551.83 423.901 556.656C434.366 563.271 444.754 570.007 455.063 576.863C493.414 602.314 532.625 629.495 569.231 657.367C582.875 668.483 596.711 679.551 608.401 692.736C625.423 711.935 620.757 736.065 601.959 751.479C591.959 758.519 578.509 762.277 566.509 759.937C540.818 754.926 517.388 719.449 502.784 699.851C490.464 683.365 478.245 666.803 466.128 650.167C441.522 616.616 414.193 581.267 390.448 547.584C393.65 545.457 394.471 544.815 398.205 543.889Z"/><path fill="#FEFEFE" d="M838.698 478.451C902.594 474.7 908.615 563.194 893.285 607.101C885.586 629.15 877.169 656.181 847.887 647.427C839.47 644.466 831.615 640.098 824.658 634.51C802.135 616.722 785.015 586.484 781.988 557.957C777.838 518.844 797.447 483.013 838.698 478.451Z"/><path fill="#003545" d="M843.18 518.865C858.36 516.573 872.516 527.044 874.769 542.23C877.021 557.416 866.514 571.545 851.322 573.758C836.185 575.963 822.12 565.502 819.876 550.372C817.631 535.241 828.055 521.149 843.18 518.865Z"/><path fill="#FEFEFE" d="M846.942 535.274C859.595 537.46 860.987 552.331 848.325 557.519C843.285 556.66 839.876 555.133 838.125 549.901C837.136 546.878 837.475 543.576 839.057 540.816C841.066 537.315 843.302 536.368 846.942 535.274Z"/><path fill="#FEFEFE" d="M749.916 554.391C754.197 554.018 759.427 554.202 763.81 554.242C765.986 583.319 775.583 603.932 792.718 627.293C791.796 633.844 790.217 640.285 788.003 646.519C777.989 674.997 753.648 693.257 723.406 682.152C719.429 680.401 715.7 678.137 712.312 675.417C692.362 659.488 663.632 605.39 682.677 580.691C695.379 564.219 729.71 556.16 749.916 554.391Z"/><path fill="#FEFEFE" d="M453.623 665.483C454.121 665.564 454.877 665.804 455.186 666.206C472.852 689.179 489.542 712.911 507.498 735.661C515.127 745.325 523.156 753.536 532.021 762.023C514.526 766.491 481.799 768.431 463.656 768.948C438.521 769.175 408.975 766.175 384.598 760.17L385.553 708.791C407.884 693.798 430.58 679.357 453.623 665.483Z"/><path fill="#FEFEFE" d="M654.985 594.198L657.076 593.932C660.236 595.461 658.534 600.96 658.821 604.924C660.245 624.571 666.72 640.768 675.073 657.978C661.744 674.935 650.441 684.246 630.916 693.499C621.657 679.144 615.44 673.419 602.888 661.941C587.789 648.004 567.695 633.492 551.183 621.077C584.289 607.106 619.259 598.051 654.985 594.198Z"/><path fill="#FEFEFE" d="M441.586 514.336C442.873 514.283 446.897 514.171 447.778 514.818C484.492 541.799 520.097 572.18 556.149 599.877C550.831 601.704 545.285 604.069 540.045 606.19L533.866 608.805C513.095 594.243 492.174 579.896 471.106 565.767C457.229 556.584 442.62 547.535 428.953 538.239C429.617 527.769 431.465 519.307 441.586 514.336Z"/><path fill="#FEFEFE" d="M387.824 575.303C391.72 577.795 438.942 643.485 443.596 650.002L420.911 664.373L385.924 686.865C385.778 650.599 387.307 611.815 387.824 575.303Z"/><path fill="#FEFEFE" d="M685.69 673.991C686.667 674.848 692.088 680.96 693.472 682.368C701.936 690.983 707.448 694.295 718.082 699.47L717.698 700.204C707.414 719.466 679.377 729.977 659.594 736.16C650.994 738.677 641.477 740.234 632.585 741.218C636.751 729.674 637.122 722.599 636.664 710.508C657.329 701.155 670.777 691.23 685.69 673.991Z"/><path fill="#FEFEFE" d="M366.752 721.9C368.352 723.542 366.908 750.553 366.742 755.007C360.096 752.833 354.897 750.596 348.491 747.852C345.442 746.504 341.653 744.306 338.641 742.665C348.089 735.944 356.947 728.775 366.752 721.9Z"/><path fill="#FEFEFE" d="M89.8649 50.5153C92.7081 49.8635 97.131 50.3991 100.106 50.694C100.135 56.2037 100.45 69.878 99.5644 74.523C97.1028 75.7548 88.2041 75.3774 84.9573 75.3654L75.2701 75.313C75.3735 67.0492 75.3503 58.7843 75.2004 50.5213L89.8649 50.5153Z"/><path fill="#FEFEFE" d="M25.1019 201.148L49.8967 201.148L49.8967 225.628L25.2112 225.628C25.0005 217.602 25.1065 209.207 25.1019 201.148Z"/></svg>