<?xml version="1.0" encoding="utf-8" ?><svg xmlns="http://www.w3.org/2000/svg" xmlns:xlink="http://www.w3.org/1999/xlink" width="1254" height="1254" viewBox="0 0 1254 1254"><path fill="#FCFCFC" d="M0 0L1254 0L1254 1254L0 1254L0 0Z"/><path fill="#00425B" d="M276.717 611.31C295.244 610.527 310.628 621.185 320.21 636.494C324.888 643.967 329.838 656.443 333.572 664.954L350.509 703.622C374.883 759.79 370.255 751.768 424.961 779.466C414.314 768.458 401.749 758.401 391.606 746.857C386.041 740.522 382.906 731.632 382.851 723.153C382.761 713.421 386.576 704.059 393.442 697.161C400.319 690.216 409.698 686.324 419.472 686.36C427.167 686.411 434.678 688.724 441.069 693.012C446.759 696.789 454.94 705 460.105 709.998C472.594 721.073 486.212 736.635 500.305 745.372C565.655 785.888 606.436 787.766 606.105 879.244L606.105 930.319C606.129 940.844 607.784 960.867 602.387 969.941C595.73 981.132 582.882 979.898 571.577 979.984C559.25 980.096 546.922 980.114 534.595 980.037L502.518 980.065C492.676 980.057 482.701 981.326 474.276 975.352C457.616 963.538 473.632 937.857 458.513 925.537C450.174 918.742 437.523 911.954 427.988 906.218L362.439 866.522C334.723 849.822 307.301 837.282 296.457 804.36C293.721 796.053 290.607 787.572 287.798 779.245L267.643 719.153L254.773 680.995C252.438 674.127 250.252 667.178 247.967 660.316C240.36 637.474 250.764 614.279 276.717 611.31Z"/><path fill="#FCFCFC" d="M278.498 631.41C299.997 632.957 307.402 655.889 314.615 672.499L333.32 715.136C343.856 739.577 351.634 764.122 376.685 777.507C396.535 788.114 416.604 798.242 436.55 808.656L463.602 822.787C466.889 824.498 474.245 828.554 477.499 829.77C479.776 830.61 482.266 830.678 484.585 829.962C487.297 829.133 489.522 827.179 490.694 824.597C494.903 815.456 479.761 804.521 473.624 798.582L430.723 757.23C423.407 750.215 415.996 743.325 408.829 736.163C403.115 730.453 400.982 722.414 404.962 715.047C406.967 711.284 410.404 708.487 414.496 707.29C418.762 706.032 425.481 706.643 428.926 709.408C445.418 722.644 460.213 739.567 476.503 752.942C497.701 770.346 524.231 782.935 548.387 795.948C589.841 820.967 585.954 857.418 585.967 899.514C586.035 919.489 585.99 939.464 585.833 959.439C553.225 960.114 518.499 959.529 485.714 959.455C484.672 942.405 487.8 924.198 472.525 911.148C460.474 900.851 444.927 892.792 431.253 884.474L344.768 831.977C318.928 815.999 315.885 798.299 306.752 771.516C299.674 750.925 292.71 730.294 285.861 709.626L272.756 670.902C268.109 657.288 256.657 635.589 278.498 631.41Z"/><path fill="#00425B" d="M967.666 611.792C968.593 611.717 969.52 611.65 970.448 611.591C991.804 610.246 1006.88 624.279 1007.13 645.453C1007.26 656.791 1000.89 672.033 997.209 682.911L981.499 729.422L963.671 782.67C961.014 790.618 955.903 807.009 952.322 814.162C947.618 823.656 941.129 832.155 933.209 839.193C923.9 847.483 904.661 858.542 893.41 865.426L842.83 896.848L811.143 916.491C807.137 918.972 798.182 924.145 794.926 927.011C780.337 939.849 794.247 960.488 781.384 973.437C774.266 980.602 767.633 979.918 758.432 979.987L697.298 979.998C675.983 980.021 647.575 985.253 647.606 955.277C647.613 948.711 647.552 942.078 647.563 935.504L647.652 888.76C647.432 853.898 647.74 822.477 673.53 795.328C684.451 783.831 700.209 774.916 714.459 768.061C745.779 752.994 771.019 733.68 795.14 708.793C799.682 704.121 807.522 696.594 813.133 692.896C819.258 688.79 826.43 686.522 833.802 686.359C843.677 686.139 853.215 689.955 860.213 696.926C867.14 703.863 870.98 713.298 870.868 723.101C870.691 741.242 860.283 749.356 848.375 760.728C841.674 767.044 835.051 773.441 828.506 779.918C839.726 773.897 864.983 762.222 873.764 755.32C878.363 751.706 882.282 747.303 885.34 742.316C890.281 734.434 895.503 720.673 899.376 711.591L920.95 661.439C931.122 637.904 939.742 617.674 967.666 611.792Z"/><path fill="#FCFCFC" d="M973.127 631.468C998.448 633.967 981.679 665.907 976.757 680.412L962.213 723.679L946.111 771.213C929.28 821.028 931.408 817.876 886.829 845.509L827.792 882.197C813.796 890.935 792.301 903.135 780.384 913.574C766.872 925.411 767.741 943.05 767.692 959.429C735.468 959.977 699.932 959.772 667.684 959.395C666.809 944.247 667.333 926.679 667.536 911.294C668.131 866.167 660.42 826.236 702.781 797.435C724.65 784.985 747.27 775.116 767.863 760.185C782.282 750.117 794.335 736.984 807.286 725.2C814.078 719.02 823.225 707.866 832.419 706.773C837.084 706.223 841.766 707.646 845.336 710.697C848.597 713.562 850.601 717.593 850.918 721.922C851.653 733.32 836.029 744.872 828.129 752.445L787.741 791.602C780.223 798.84 772.623 806.014 765.366 813.493C756.996 822.119 767.446 833.488 774.571 830.328C793.05 822.135 811.212 811.707 829.26 802.424C847.09 793.254 865.577 784.663 882.622 774.148C902.158 761.765 909.732 739.042 918.381 718.812L932.923 685.401C935.076 680.326 937.231 675.228 939.376 670.15C946.412 653.494 952.621 634.627 973.127 631.468Z"/><path fill="#00425B" d="M609.601 241.508C616.221 240.915 628.087 241.092 634.877 241.207C713.144 243.08 787.577 275.482 842.278 331.492C895.768 386.627 925.1 460.794 923.79 537.602C923.334 560.045 920.054 582.587 915.574 604.522C913.136 612.608 903.692 618.037 897.392 610.493C892.4 604.514 897.168 594.376 898.215 586.937C899.144 580.332 900.523 573.585 901.366 566.729C910.215 495.453 890.302 423.589 846.032 367.033C799.643 307.838 731.938 272.471 657.762 263.43C631.355 260.103 596.981 261.985 571 267.172C497.986 281.157 433.615 323.804 392.267 385.587C353.001 445.808 339.155 519.118 353.752 589.512C356.167 601.582 343.377 605.52 337.892 600.69C331.428 594.997 329.244 562.084 328.681 554.124C322.748 477.202 348.037 401.13 398.842 343.069C453.06 280.874 527.893 247.065 609.601 241.508Z"/><path fill="#00425B" d="M484.134 496.219C490.387 495.251 508.475 495.994 514.337 496.531C580.99 502.557 628.392 553.564 687.029 579.449C734.544 600.425 784.956 593.742 827.986 565.674C831.645 563.287 839.135 557.264 843.037 555.868C845.927 554.84 849.123 555.129 851.784 556.658C856.843 559.513 858.498 566.13 854.748 570.719C850.714 575.656 844.527 579.164 839.211 582.577C817.888 596.266 794.824 606.265 769.675 610.327C695.134 623.192 641.971 577.862 583.054 542.109C538.053 514.8 483.533 506.126 435.298 530.664C427.664 534.547 420.899 538.254 414.121 543.717C411.745 545.622 407.68 548.399 404.673 549.093C402.036 549.722 399.255 549.165 397.063 547.57C384.105 538.195 402.417 526.606 409.606 521.971C433.01 506.881 456.52 498.922 484.134 496.219Z"/></svg>