<?xml version="1.0" encoding="utf-8" ?><svg xmlns="http://www.w3.org/2000/svg" xmlns:xlink="http://www.w3.org/1999/xlink" width="1254" height="1254" viewBox="0 0 1254 1254"><path fill="#FBFBFA" d="M0 0L1254 0L1254 1254L0 1254L0 0Z"/><path fill="#01394E" d="M625.183 258.444C639.131 257.628 640.33 267.121 640.116 278.538C639.927 288.683 639.951 298.992 639.92 309.139C653.851 309.494 668.396 311.867 682.059 314.561C799.671 337.751 890.388 443.247 894.084 563.585C907.484 563.503 921.626 562.898 934.921 563.842C950.083 565.15 949.218 585.922 935.313 587.031C922.125 588.083 907.339 587.428 894.08 587.398C892.119 646.719 866.597 705.666 827.75 750.135C788.909 793.785 736.99 823.699 679.746 835.41C665.986 838.185 653.767 839.288 639.826 840.218C639.936 850.077 642.322 877.106 637.17 884.67C635.066 887.76 632.05 888.765 628.554 889.516C616.838 888.083 616.153 879.86 616.274 869.94C616.394 860.053 616.366 850.08 616.409 840.186C554.684 838.498 493.264 812.207 447.401 771.258C394.799 724.131 363.133 657.994 359.405 587.468C348.759 587.159 319.083 590.099 311.338 583.876C309.068 582.052 307.802 579.625 307.652 576.717C307.481 573.41 308.537 570.028 310.879 567.641C313.177 565.298 316.333 564.143 319.515 563.64C324.362 562.875 329.719 563.417 334.634 563.458L359.402 563.538C362.188 499.775 387.917 439.166 431.851 392.871C480.113 341.97 546.355 311.943 616.444 309.198C616.547 300.039 616.279 290.896 616.31 281.745C616.345 271.66 614.499 263.175 625.183 258.444Z"/><path fill="#FBFBFA" d="M383.275 563.551C384.659 512.679 406.914 457.022 440.348 418.884C488.088 364.427 545.405 338.516 616.529 333.04C616.425 344.794 615.898 358.982 616.761 370.715C617.228 373.161 618.338 375.969 619.996 377.783C626.704 385.129 638.946 380.237 639.624 370.461C640.46 358.397 639.99 345.272 639.937 333.127C644.498 333.413 649.05 333.822 653.588 334.355C718.4 341.226 777.745 373.815 818.321 424.819C837.022 448.858 847.977 469.532 858.224 498.187C865.391 521.014 869.589 539.414 870.321 563.488C860.943 563.673 832.969 561.664 829.082 567.074C810.102 593.493 863.973 587.389 870.347 587.503C867.637 637.969 849.031 686.283 817.193 725.532C782.932 767.944 735.506 797.719 682.42 810.146C667.285 813.617 655.366 814.798 639.944 816.329C640.003 806.634 642.461 777.496 636.092 770.704C634.038 768.514 631.273 767.534 628.308 767.516C625.278 767.497 622.435 768.423 620.296 770.63C618.44 772.545 617.357 775.074 616.797 777.652C614.965 786.099 616.323 806.827 616.377 816.367C561.439 813.767 508.957 792.833 467.312 756.908C415.697 712.131 388.273 655.309 383.372 587.486C391.316 587.281 421.594 589.61 425.416 583.438C441.266 557.846 396.107 563.547 383.275 563.551Z"/><path fill="#01394E" d="M617.792 471.259C675.062 466.287 725.488 508.753 730.333 566.033C735.177 623.314 692.598 673.646 635.307 678.362C578.197 683.063 528.059 640.648 523.23 583.548C518.401 526.449 560.703 476.216 617.792 471.259Z"/><path fill="#FBFBFA" d="M620.576 494.905C664.86 491.469 703.497 524.692 706.736 568.991C709.975 613.289 676.581 651.778 632.268 654.821C588.233 657.844 550.037 624.705 546.818 580.683C543.599 536.662 576.569 498.319 620.576 494.905Z"/></svg>