<?xml version="1.0" encoding="utf-8" ?><svg xmlns="http://www.w3.org/2000/svg" xmlns:xlink="http://www.w3.org/1999/xlink" width="1254" height="1254" viewBox="0 0 1254 1254"><path fill="#F5F5F5" d="M0 0L27.605 0L55.0493 0L82.7063 0L110.379 0L138.081 0L165.454 0L193.308 0L220.86 0L248.602 0L276.29 0L303.733 0L331.515 0L358.906 0L386.809 0L414.439 0L441.908 0L469.586 0L497.054 0L524.709 0L552.389 0L579.861 0L607.752 0L635.463 0L663.007 0L690.669 0L718.389 0L745.891 0L773.702 0L801.287 0L828.761 0L856.283 0L883.986 0L911.669 0L939.297 0L1077.49 0L1104.86 0L1132.72 0L1160.28 0L1187.85 0L1215.53 0L1242.9 0L1254 0L1254 28.1182L1254 55.6415L1254 83.7013L1254 111.215L1254 139.364L1254 167.083L1254 194.794L1254 222.556L1254 250.393L1254 278.049L1254 306.013L1254 333.646L1254 361.355L1254 389.249L1254 417.128L1254 444.458L1254 472.625L1254 500.115L1254 528.487L1254 555.673L1254 583.621L1254 611.082L1254 639.126L1254 666.719L1254 694.788L1254 722.308L1254 750.137L1254 777.842L1254 805.825L1254 833.361L1254 861.286L1254 888.975L1254 916.728L1254 944.355L1254 972.357L1254 1000.09L1254 1027.84L1254 1055.47L1254 1083.39L1254 1111.08L1254 1139.01L1254 1166.66L1254 1194.4L1254 1222.06L1254 1249.83L1254 1254L1243.53 1254L1215.75 1254L1187.49 1254L1159.92 1254L1132.45 1254L1104.52 1254L1022.74 1254L994.188 1254L967.325 1254L938.809 1254L911.395 1254L883.637 1254L856.911 1254L828.254 1254L746.417 1254L717.953 1254L635.088 1254L552.778 1254L524.401 1254L497.574 1254L469.666 1254L441.458 1254L413.975 1254L331.591 1254L248.802 1254L221.285 1254L192.966 1254L110.917 1254L83.2783 1254L54.6045 1254L28.1332 1254L0 1254L0 1250.24L0 1222.12L0 1194.18L0 1166.78L0 1138.87L0 999.951L0 972.27L0 889.001L0 861.314L0 833.304L0 805.737L0 777.68L0 750.062L0 722.285L0 694.492L0 666.815L0 639.063L0 611.356L0 583.418L0 555.836L0 527.906L0 500.216L0 472.52L0 444.67L0 416.968L0 389.313L0 361.304L0 333.758L0 305.938L0 278.115L0 250.299L0 222.479L0 194.753L0 167.131L0 139.133L0 111.361L0 83.2699L0 55.7313L0 27.9881L0 0Z"/><path fill="#FCFCFC" d="M939.297 0L1077.49 0L1104.86 0L1132.72 0L1160.28 0L1187.85 0L1215.53 0L1242.9 0L1254 0L1254 28.1182L1254 55.6415L1254 83.7013L1254 111.215L1254 139.364L1254 167.083L1254 194.794L1254 222.556L1254 250.393L1254 278.049L1254 306.013L1254 333.646L1254 361.355L1254 389.249L1254 417.128L1254 444.458L1254 472.625L1254 500.115L1254 528.487L1254 555.673L1254 583.621L1254 611.082L1254 639.126L1254 666.719L1254 694.788L1254 722.308L1254 750.137L1254 777.842L1254 805.825L1254 833.361L1254 861.286L1254 888.975L1254 916.728L1254 944.355L1254 972.357L1254 1000.09L1254 1027.84L1254 1055.47L1254 1083.39L1254 1111.08L1254 1139.01L1254 1166.66L1254 1194.4L1254 1222.06L1254 1249.83L1254 1254L1243.53 1254L1215.75 1254L1187.49 1254L1159.92 1254L1132.45 1254L1104.52 1254L1022.74 1254L994.188 1254L967.325 1254L938.809 1254L911.395 1254C911.57 1252.57 911.729 1251.92 912.086 1250.52C915.677 1249.26 934.165 1249.95 939.256 1250.05C939.324 1240.75 939.314 1231.44 939.226 1222.14C947.643 1222.48 958.045 1222.14 966.793 1222.28L966.902 1250.01L994.497 1250.01L994.522 1222.03L966.946 1222.03L966.971 1194.66C969.988 1194.65 972.097 1194.55 975.1 1194.27C973.173 1193.87 969.557 1194 967.441 1193.99C967.455 1185.64 967.579 1177.15 967.191 1168.82C966.616 1176.46 966.862 1186.3 966.879 1194.15C957.689 1194.55 948.486 1194.53 939.297 1194.09L939.276 1166.76L967.104 1166.6C966.619 1157.99 966.847 1147.69 966.839 1138.95C975.233 1139.27 985.951 1138.9 994.527 1138.85C994.481 1129.58 994.487 1120.31 994.545 1111.04C985.342 1111.14 976.137 1111.08 966.936 1110.85C966.591 1102.25 966.865 1092.09 966.887 1083.37C966.801 1074.07 966.804 1064.76 966.896 1055.46C966.718 1037.03 967.487 1019 967.441 1000.51C970.467 1000.55 972.716 1000.47 975.737 1000.27C973.833 999.789 969.123 999.868 966.947 999.834C966.819 990.629 966.804 981.423 966.903 972.218L939.282 972.263L939.283 999.989L911.803 999.908C911.657 990.691 911.624 981.472 911.703 972.254L884.105 972.2C883.862 962.964 883.842 953.723 884.043 944.486C893.28 944.598 902.518 944.594 911.755 944.474L911.696 916.682C902.63 916.878 893.18 916.69 884.082 916.629C883.644 907.601 883.922 898.283 884.069 889.224C893.338 889.083 902.609 889.048 911.879 889.118C911.65 879.833 911.612 870.544 911.766 861.257C921.059 861.053 929.957 860.913 939.254 861.289L939.182 889.077C947.973 889.098 958.314 889.38 966.981 889.02C966.886 881.06 966.512 868.874 967.194 861.211C976.302 861.074 985.412 861.043 994.522 861.118L994.48 833.269C985.278 833.366 976.076 833.373 966.874 833.291C966.493 841.785 966.785 852.4 966.784 861.055C957.676 861.364 948.4 861.209 939.273 861.144C939.342 851.88 939.334 842.616 939.25 833.353C932.154 832.93 918.915 833.237 911.704 833.357L911.692 805.776C920.595 805.776 930.437 805.994 939.259 805.747L939.272 778.144C948.434 777.736 957.61 777.76 966.769 778.215C966.712 787.408 966.738 796.602 966.847 805.796L994.574 805.837C994.444 796.538 994.431 787.238 994.534 777.939L966.986 777.939C966.696 768.913 966.877 759.197 966.893 750.117C959.639 749.626 946.916 750.052 939.243 750.056C939.306 740.877 939.309 731.697 939.251 722.518C946.845 722.521 959.726 722.884 966.889 722.184C966.749 713.099 966.897 703.718 966.928 694.609C975.853 694.926 985.487 694.789 994.433 694.789L994.499 701.972L994.764 701.063L994.733 702.247L995.096 695.535C996.511 694.242 997.731 695.579 1000.65 694.646C998.237 694.16 996.255 694.751 994.601 693.75C994.174 685.543 994.487 675.073 994.516 666.701L967.141 666.697C967.132 663.96 967.413 644.217 967.061 643.473C965.986 649.113 967.616 662.294 966.451 665.374C965.78 663.317 967.414 646.605 965.914 640.098C963.946 639.541 963.601 639.64 961.616 639.765L961.027 639.806L961.042 639.323C962.975 639.342 964.946 639.572 966.681 638.855C967.234 631.134 966.848 619.122 966.829 611.08L959.519 611.015L959.185 610.678L958.173 610.809L959.268 610.876L959.233 610.558C961.353 610.385 964.672 610.478 966.891 610.468C966.833 602.22 966.703 594.183 967.154 585.942C967.708 592.753 967.433 603.365 967.441 610.468C971.088 610.385 974.819 610.971 978.656 610.882C983.742 610.763 988.673 610.519 993.771 610.468C993.758 606.538 993.467 586.105 994.079 583.621L994.544 584.916C1003.55 584.354 1010.12 584.204 1019 583.861C1011.91 583.248 1001.89 583.471 994.564 583.46C994.445 574.288 994.426 565.114 994.507 555.941C1002.17 555.945 1009.55 555.969 1017.21 555.621C1011.11 555.142 1001.38 555.373 994.995 555.36L994.995 528.419C997.18 528.402 999.364 528.364 1001.55 528.304C1000.92 527.796 995.852 527.876 994.589 527.841C994.326 518.791 994.49 509.312 994.521 500.227L966.964 500.213C966.788 491.552 966.895 483.121 966.611 474.383C965.967 481.954 966.212 491.849 966.217 499.641L939.888 499.641L939.888 473.312C943.366 473.346 953.286 473.524 956.454 472.667L939.273 472.381L939.302 444.539L911.672 444.514C911.721 453.76 911.72 463.006 911.668 472.252C902.498 472.6 893.318 472.582 884.15 472.2C883.861 463.053 883.85 453.9 884.118 444.753C893.35 444.709 902.582 444.724 911.813 444.796C911.596 435.638 911.72 426.177 911.732 416.993L884.256 416.945C883.859 407.327 883.927 399.066 884.102 389.404L911.829 389.421C911.655 380.106 911.639 370.788 911.782 361.472C920.934 361.478 930.086 361.419 939.238 361.296C939.399 352.177 939.301 342.757 939.324 333.612L911.749 333.702C911.578 324.576 911.736 315.06 911.761 305.904C903.096 305.674 892.819 306.004 884.066 306.046L883.856 333.562C874.676 333.718 865.494 333.707 856.314 333.528C856.285 324.476 856.44 315.298 856.516 306.236C865.552 306.068 875.203 306.411 884.15 305.861C883.615 297.355 883.811 286.82 884.106 278.319C892.94 277.887 902.855 278.252 911.823 278.295C911.647 268.998 911.622 259.699 911.749 250.401C920.928 250.298 930.107 250.275 939.287 250.331L939.319 222.692L911.76 222.406C911.654 214.484 911.397 202.581 912.043 194.886L939.26 194.751C939.369 185.587 939.277 176.293 939.262 167.118C930.097 166.994 920.93 167.004 911.764 167.149L911.723 138.961C902.533 139.066 893.341 139.081 884.151 139.006C883.747 129.629 883.9 120.768 884.051 111.384C893.293 111.437 902.536 111.432 911.779 111.368C911.605 102.154 911.754 92.4926 911.756 83.2434C902.575 83.4062 893.392 83.4191 884.211 83.282C883.745 74.3023 883.876 64.8295 883.868 55.7961L911.738 55.739L911.723 28.0965L939.31 28.061L939.297 0Z"/><path fill="#FCFCFC" d="M276.262 916.734C276.117 925.887 276.069 935.041 276.118 944.196C266.969 944.408 257.818 944.501 248.667 944.474C248.572 953.748 248.547 963.024 248.592 972.298C257.812 972.376 267.032 972.382 276.252 972.316L276.286 944.594C284.373 944.534 295.956 944.846 303.775 944.387C303.776 953.383 304.005 963.444 303.727 972.351C312.824 972.341 322.378 972.484 331.435 972.293C331.411 978.655 330.653 1021.08 331.462 1023.47C331.55 1015.72 331.586 1007.96 331.569 1000.21L358.498 1000.21L358.498 1027.75L386.771 1027.75C386.784 1036.93 386.923 1046.44 386.717 1055.59C395.977 1055.64 405.236 1055.62 414.495 1055.55C414.491 1064.17 414.785 1074.78 414.423 1083.23C405.22 1083.3 396.017 1083.27 386.815 1083.15C386.815 1092.09 387.053 1102.19 386.777 1111.03L358.856 1111.03C358.851 1120.32 358.921 1129.71 358.798 1138.99L386.664 1138.89L386.664 1111.18C395.939 1111.06 405.215 1111.01 414.491 1111.03L414.426 1138.95L442.106 1138.87C441.864 1129.67 441.854 1120.47 442.073 1111.27C451.213 1111.01 460.358 1110.93 469.501 1111.04L469.491 1139.07L497.231 1138.88C497.111 1148.17 497.088 1157.45 497.163 1166.74C506.26 1166.77 515.709 1166.67 524.776 1166.91C524.776 1175.89 524.658 1185.13 524.797 1194.09C515.422 1194.46 505.982 1193.92 497.038 1194.25C497.147 1203.44 497.16 1212.62 497.077 1221.81C488.168 1222.24 478.477 1222.05 469.492 1222.03C469.502 1230.91 469.231 1241.46 469.576 1250.2C474.245 1250.1 493.96 1249.25 496.764 1250.73C497.241 1252.17 497.35 1252.51 497.574 1254L469.666 1254L441.458 1254L413.975 1254L331.591 1254L248.802 1254C247.865 1237.1 248.465 1211.61 248.677 1194.41C257.822 1194.37 266.966 1194.41 276.11 1194.56L276.106 1222.25C278.115 1222.23 285.324 1221.7 286.656 1221.86L285.485 1221.94C284.232 1221.26 278.621 1221.54 276.762 1221.55C276.807 1207.85 276.569 1194.58 276.254 1180.9C276.082 1173.45 276.798 1166.06 276.534 1158.4C275.956 1160.17 276.097 1164.51 276.078 1166.58C266.913 1166.95 257.736 1166.9 248.576 1166.42L248.539 1138.86C257.175 1139.17 267.502 1138.92 276.267 1138.95L276.202 1111.02L303.844 1111.02C303.672 1101.84 303.81 1092.35 303.832 1083.15C294.616 1083.27 285.399 1083.29 276.182 1083.22L276.127 1110.98L248.652 1111.1C248.311 1102.06 248.521 1092.34 248.567 1083.25L220.844 1083.19C220.559 1074.5 220.838 1064.35 220.863 1055.54C228.519 1055.59 241.374 1056.06 248.615 1055.53C248.499 1046.41 248.498 1037.29 248.612 1028.17C255.138 1027.35 269.137 1027.73 276.321 1027.75C276.169 1018.59 276.296 1009.08 276.294 999.895L248.572 1000.04L248.544 1027.64C239.359 1027.77 230.174 1027.78 220.989 1027.67C220.731 1018.44 220.73 1009.21 220.985 999.986C212.596 999.664 201.958 999.951 193.425 999.92C193.165 990.956 193.321 981.375 193.319 972.364L220.997 972.31C220.743 963.265 220.876 953.689 220.861 944.602C229.994 944.415 239.41 944.507 248.566 944.486L248.572 916.68L276.262 916.734Z"/><path fill="#FCFCFC" d="M497.054 0L524.709 0L552.389 0L579.861 0L607.752 0L635.463 0L663.007 0L690.669 0L718.389 0L745.891 0L745.918 28.0473C737.185 28.0504 726.984 27.7904 718.376 28.1058C718.257 37.3596 718.223 46.6144 718.274 55.8689L745.937 55.7398L745.985 83.2596C736.712 83.3201 727.44 83.3328 718.167 83.2978C718.241 92.6542 718.268 102.011 718.247 111.368L745.908 111.428L745.884 138.976C736.697 139.085 727.51 139.145 718.322 139.154L718.315 167.089C727.222 167.111 737.09 166.903 745.896 167.229C745.834 176.406 745.844 185.584 745.928 194.761C736.838 194.748 727.309 194.877 718.256 194.644L718.259 222.49C709.098 222.414 699.897 222.579 690.783 222.477L690.696 194.763L663.218 194.647C663.075 185.49 663.031 176.331 663.083 167.173C656.504 166.619 642.65 167.037 635.525 167.027C635.224 158.184 635.424 148.245 635.407 139.318L663.085 139.128C663.44 130.953 663.068 119.685 663.059 111.336C669.319 111.431 685.16 111.828 690.677 111.025C690.582 101.784 690.609 92.5417 690.759 83.3014C681.555 83.321 672.352 83.2932 663.149 83.2182L663.025 55.8031C653.828 55.7632 644.539 55.8063 635.354 55.6508C635.381 64.6058 635.592 74.3515 635.321 83.2439C626.12 83.3899 616.917 83.3763 607.716 83.2031L607.719 111.544C616.95 111.388 626.182 111.354 635.414 111.441C635.415 120.444 635.57 130.032 635.261 138.981L607.747 139.094C607.503 129.802 607.492 120.506 607.714 111.213C599.881 111.22 587.411 110.861 579.983 111.354L580.036 83.2367C570.824 83.3356 561.612 83.3513 552.399 83.2838L552.37 55.8487L524.959 55.6662C524.587 47.0435 524.79 36.865 524.742 28.1206C516.391 27.728 505.751 28.0499 497.229 28.0726L497.054 0Z"/><path fill="#FCFCFC" d="M0 111.361L27.5994 111.38L27.549 139.305L55.0303 139.305L55.1119 167.089C64.3013 167.248 73.4922 167.294 82.6826 167.227L82.664 194.737C75.1714 194.378 62.5379 194.563 55.1274 194.758C55.0304 203.963 55.0097 213.17 55.0651 222.376C45.901 222.46 36.7363 222.458 27.5723 222.369C27.584 231.065 27.2932 241.794 27.6683 250.317C36.621 250.33 46.2304 250.527 55.1273 250.323L55.0393 278.315C64.1316 278.273 73.6679 278.369 82.7215 278.096L82.6029 305.932C73.4136 306.028 64.2235 306.034 55.0341 305.952C54.9681 315.199 54.9955 324.447 55.1162 333.694C64.3343 333.795 73.5531 333.825 82.7716 333.782C82.6545 324.608 82.6688 315.432 82.8145 306.258C91.9863 306.101 101.16 306.061 110.333 306.14L110.382 333.564C101.155 333.698 91.9264 333.718 82.6987 333.624L82.6448 361.454L110.397 361.351L110.262 389.215L82.6423 389.306L82.6488 417.204C91.8704 417.055 101.093 417.015 110.316 417.084L110.237 444.47C101.295 444.513 91.853 444.707 82.9518 444.515C82.4448 435.96 82.6882 425.651 82.7326 416.958C73.8108 416.981 64.0277 416.793 55.1839 417.036C55.0401 426.194 55.0084 435.355 55.0888 444.514C46.3221 444.519 36.3404 444.281 27.6791 444.563C27.5786 453.787 27.5521 463.012 27.5998 472.237C18.4023 472.497 9.20087 472.591 0 472.52L0 444.67L0 416.968L0 389.313L0 361.304L0 333.758L0 305.938L0 278.115L0 250.299L0 222.479L0 194.753L0 167.131L0 139.133L0 111.361Z"/><path fill="#FCFCFC" d="M0 0L27.605 0L55.0493 0L82.7063 0L110.379 0L138.081 0L138.081 28.1687C146.797 28.1106 157.043 27.803 165.635 28.1903L165.635 55.8174L193.311 55.8188L193.222 83.2501C184.134 83.297 174.684 83.4705 165.635 83.2016L165.635 111.219C156.447 111.277 147.259 111.246 138.071 111.127L138.069 83.2028C128.854 83.3024 119.639 83.3101 110.425 83.2259C110.37 74.042 110.364 64.8578 110.407 55.6737C101.723 55.6952 91.2396 55.4271 82.7142 55.7687C82.3057 63.8475 82.6534 74.9389 82.6583 83.2515C73.4855 83.3539 64.3118 83.3422 55.1393 83.2163C54.8628 74.2447 55.1675 64.8634 55.0924 55.8023C48.0013 55.3275 35.1862 55.8105 27.6647 55.8504C27.5728 64.9893 27.5275 74.1285 27.529 83.2679C18.3528 83.3262 9.17624 83.3269 0 83.2699L0 55.7313L0 27.9881L0 0Z"/><path fill="#FCFCFC" d="M0 889.001L27.5648 889.126L27.5783 916.76C36.2495 916.747 46.6138 917.013 55.1389 916.676C55.0796 925.946 55.0808 935.216 55.1426 944.486L27.5644 944.486C27.5037 953.764 27.5114 963.043 27.5873 972.321C36.6181 972.552 46.0253 972.373 55.0899 972.318L55.1517 1000.01C46.3204 999.987 36.388 999.726 27.6532 999.96C27.6403 1009.33 27.5678 1018.69 27.4355 1028.06C36.624 1027.87 45.8147 1027.8 55.005 1027.85C55.0352 1036.87 55.2548 1046.73 54.9627 1055.68L82.7062 1055.6L82.6015 1083.48C91.8261 1083.35 101.052 1083.35 110.276 1083.48L110.378 1110.92C101.174 1111 91.9703 1110.99 82.767 1110.9C82.5587 1101.64 82.5421 1092.38 82.7172 1083.12C73.4996 1083.32 64.2787 1083.33 55.0607 1083.14C55.0658 1092.34 55.243 1102.12 55.033 1111.27L82.6063 1111.15L82.6217 1138.76L55.2105 1138.79C54.9694 1129.54 54.9738 1120.28 55.2236 1111.03L27.5966 1111.03L27.5934 1138.84C18.9684 1138.55 8.74906 1138.84 0 1138.87L0 999.951L0 972.27L0 889.001Z"/><path fill="#FCFCFC" d="M55.1714 555.948C64.3407 555.771 73.5126 555.77 82.6819 555.947L82.6738 583.406C90.3977 584.194 102.231 583.855 110.308 583.839L110.331 611.096C101.94 611.158 90.8874 610.842 82.7177 611.218C82.5856 620.456 82.5449 629.695 82.5957 638.934L110.341 638.937C110.382 629.936 110.255 620.34 110.506 611.389C119.643 611.207 128.783 611.177 137.92 611.299L137.972 638.934L110.336 638.934L110.268 666.829C101.943 666.548 92.8731 666.743 84.4849 666.779C82.5379 665.571 83.4068 666.369 82.3382 663.729C82.1452 665.177 82.2793 664.837 81.74 666.164L76.2211 666.393C78.1024 667.092 80.5383 666.837 82.6759 666.836L82.6679 694.379C73.504 694.485 64.3392 694.472 55.1756 694.342C54.8905 685.346 55.1165 675.769 55.1885 666.726C46.0557 666.78 36.9227 666.78 27.7899 666.726C27.4164 657.768 27.6182 648.029 27.6472 639.006C18.536 639.195 9.13508 639.073 0 639.063L0 611.356L0 583.418L0 555.836C9.00039 555.866 18.6583 555.732 27.6018 556.062L27.5922 583.547C36.169 583.623 46.5596 583.883 55.0617 583.493C55.0861 574.386 54.9988 565.033 55.1714 555.948Z"/><path fill="#FCFCFC" d="M635.312 1194.53C644.637 1194.4 653.648 1194.23 662.966 1194.62L662.951 1222.24C672.247 1222.17 681.544 1222.16 690.84 1222.23C690.408 1213.07 690.632 1203.63 690.734 1194.43C699.896 1194.41 709.059 1194.44 718.221 1194.53L718.233 1222.25C727.467 1222.06 736.705 1222.07 745.938 1222.28L745.894 1250.17C755.17 1249.9 764.453 1249.92 773.728 1250.22C773.254 1241.27 773.605 1231.31 773.748 1222.26C782.929 1222.12 792.111 1222.1 801.292 1222.22C801.301 1224.59 801.021 1227.03 801.837 1229.1C802.164 1226.53 802.179 1225.37 802.119 1222.77C820.482 1222.84 838.379 1221.99 856.598 1222.22C856.434 1212.99 856.392 1203.77 856.472 1194.54C865.536 1194.49 874.815 1194.34 883.856 1194.62L883.862 1222.24C893.136 1222.1 902.412 1222.1 911.686 1222.25L911.68 1250.03C907.058 1250.02 890.853 1249.72 885.265 1250.26C884.91 1250.6 884.554 1250.93 884.199 1251.26L883.637 1254L856.911 1254L828.254 1254L746.417 1254L717.953 1254L635.088 1254C635.512 1251.4 635.031 1251.75 636.559 1250.3C638.723 1249.94 659.507 1249.72 662.212 1250.07L663.552 1251.57C665.289 1251.37 671.197 1250.84 672.465 1250.33C669.333 1250.19 666.333 1250.04 663.191 1250.08C663.159 1240.78 663.02 1231.28 663.14 1222C653.932 1222.06 644.723 1222.01 635.517 1221.85C635.454 1212.8 635.491 1203.56 635.312 1194.53Z"/><path fill="#FCFCFC" d="M220.86 0L248.602 0L276.29 0L303.733 0C303.738 8.58012 303.423 19.7219 303.878 28.0937L331.36 28.1223C331.423 37.3465 331.425 46.5711 331.366 55.7953C322.511 55.5107 312.686 55.7111 303.757 55.7098C303.556 64.603 303.796 74.3532 303.836 83.3116C294.745 83.4633 285.377 83.3189 276.264 83.2837C276.094 74.2365 276.243 64.7798 276.254 55.7004L248.615 55.7162C248.286 64.3217 248.539 74.5554 248.529 83.2888C239.369 83.3149 230.208 83.289 221.048 83.211C220.678 74.3601 220.825 64.6785 220.8 55.7591C212.358 55.4155 202 55.6796 193.405 55.6602C193.344 46.4762 193.336 37.292 193.38 28.108L220.923 28.0763C220.602 19.1294 220.839 9.03126 220.86 0Z"/><path fill="#FCFCFC" d="M27.6874 1194.51C36.7976 1194.35 45.91 1194.37 55.0195 1194.56C55.0297 1203.71 55.1548 1213.12 55.0128 1222.25C64.2658 1222.06 73.5218 1222.07 82.7744 1222.28L82.7242 1194.48L110.302 1194.44L110.314 1222.07L82.6469 1222.05L82.6873 1250.11C87.1313 1250.05 107.849 1249.24 110.074 1250.97C110.368 1251.99 110.666 1252.97 110.917 1254L83.2783 1254L54.6045 1254L28.1332 1254L0 1254L0 1250.24L0 1222.12C9.24631 1222 18.4941 1222.05 27.7382 1222.29C27.5802 1213.03 27.5633 1203.77 27.6874 1194.51Z"/><path fill="#FCFCFC" d="M469.585 972.375L497.242 972.317C497.089 981.619 497.03 990.922 497.062 1000.23C506.285 1000.03 515.51 999.971 524.735 1000.04L524.702 1028.04C527.514 1028 531.911 1027.72 534.503 1028.28C531.715 1028.83 528.257 1028.67 525.357 1028.67C525.357 1035.63 525.614 1046.02 525.02 1052.66C524.9 1048.44 524.936 1031.59 524.337 1028.87C523.865 1036.72 524.129 1046.95 524.133 1055C518.948 1055.02 512.608 1054.87 507.528 1055.3C513.612 1055.67 518.68 1055.7 524.739 1055.66L524.771 1083.14C515.599 1083.34 506.424 1083.35 497.251 1083.16C497.137 1073.94 497.137 1064.71 497.249 1055.49L469.584 1055.5C469.391 1046.44 469.537 1037.07 469.572 1027.99C478.733 1027.84 487.896 1027.78 497.058 1027.83C497.15 1035.54 496.802 1046.91 497.457 1054.21C498.44 1049.18 497.503 1028.38 497.302 1022.69C497.097 1015.09 497.087 1007.5 497.272 999.9C488.054 999.963 478.837 999.967 469.619 999.911C469.368 990.624 469.47 981.669 469.585 972.375Z"/><path fill="#FCFCFC" d="M386.809 0L414.439 0C414.472 9.32861 414.449 18.6573 414.369 27.9857C405.302 28.1553 395.91 28.0175 386.818 27.9992C386.848 37.1745 386.983 46.5493 386.569 55.6977C377.461 55.7762 368.352 55.7403 359.244 55.59C358.755 46.6467 358.952 37.1834 358.995 28.1876C368.284 28.0362 377.575 28.0219 386.865 28.1447C386.329 20.252 386.616 8.09335 386.809 0Z"/><path fill="#FCFCFC" d="M55.1913 833.481L82.6945 833.453L82.6806 861.2L54.7143 861.159C55.4943 866.356 55.1168 882.979 55.1066 889.087C45.987 888.918 36.8657 888.867 27.7448 888.933C27.5402 879.714 27.5237 870.491 27.6952 861.27C36.8545 861.017 46.019 861.017 55.1784 861.27C55.0112 852.008 55.0155 842.743 55.1913 833.481Z"/><path fill="#FCFCFC" d="M82.7343 916.799L109.772 916.751C110.827 918.582 110.405 940.251 110.397 944.269C101.167 944.507 91.9318 944.509 82.7014 944.275L82.609 972.2C73.5392 972.221 64.1298 972.115 55.0899 972.318C55.0132 963.069 55.0434 953.819 55.1803 944.57C64.2563 944.468 73.797 944.662 82.7579 944.448L82.7343 916.799Z"/><path fill="#FCFCFC" d="M55.1211 722.383C64.2975 722.497 73.4747 722.518 82.6515 722.446C82.7074 731.707 82.6998 740.968 82.6286 750.229L110.444 750.191C110.295 759.009 110.688 769.264 110.231 777.768C101.102 777.956 91.9703 777.967 82.841 777.802C82.6685 768.536 82.6394 759.268 82.754 750L55.1242 750.115C54.878 741.062 55.1112 731.497 55.1211 722.383Z"/><path fill="#FCFCFC" d="M414.422 28.1797C423.612 28.07 432.803 28.0445 441.994 28.1034L442.026 55.7929C450.334 55.8053 461.557 56.1657 469.626 55.7479C469.406 64.9524 469.594 74.0698 469.481 83.2523L442.017 83.2969C441.989 75.5064 442.41 62.9653 441.746 55.7088L414.488 55.772C414.381 46.575 414.359 37.3772 414.422 28.1797Z"/><path fill="#FCFCFC" d="M165.454 0L193.308 0C193.392 9.31108 193.352 18.6229 193.188 27.9329C184.099 28.0692 174.871 28.0107 165.769 28.0323C165.262 19.1058 165.458 9.02616 165.454 0Z"/><path fill="#FCFCFC" d="M773.702 0L801.287 0C801.407 9.3436 801.381 18.6885 801.212 28.0313L773.846 28.0484C773.606 18.538 773.312 9.50337 773.702 0Z"/><path fill="#FCFCFC" d="M883.986 0L911.669 0L911.628 27.9605L884.053 28.0685C883.686 19.2413 883.955 8.93643 883.986 0Z"/><path fill="#FCFCFC" d="M828.761 0L856.283 0C856.562 8.89629 856.248 19.0133 856.159 27.9981C847.042 28.1049 837.923 28.0603 828.806 27.8643C828.551 18.6606 828.706 9.22761 828.761 0Z"/><path fill="#FCFCFC" d="M441.908 0L469.586 0L469.493 28.0237C460.376 28.1405 451.258 28.1105 442.142 27.9337C441.949 18.7033 441.981 9.25034 441.908 0Z"/><path fill="#FCFCFC" d="M0 833.304C8.83894 833.372 18.8247 833.681 27.57 833.461C27.6219 842.65 27.6013 851.839 27.5081 861.028C18.2293 861.372 9.2893 861.347 0 861.314L0 833.304Z"/><path fill="#FCFCFC" d="M745.988 28.2067C755.273 28.0841 764.56 28.0313 773.846 28.0484C773.473 36.4687 773.758 47.1247 773.739 55.7205C764.523 55.8192 755.306 55.8005 746.09 55.6645C745.732 47.0269 745.977 36.9497 745.988 28.2067Z"/><path fill="#FCFCFC" d="M884.112 778.142C893.307 778.045 902.502 778.044 911.696 778.142L911.692 805.776C902.518 805.688 893.344 805.661 884.17 805.693C883.617 797.057 883.835 786.849 884.112 778.142Z"/><path fill="#FCFCFC" d="M911.704 833.357L911.688 860.991C902.447 861.407 893.556 861.283 884.308 861.198C883.79 851.962 883.741 842.706 884.16 833.465C893.341 833.521 902.523 833.485 911.704 833.357Z"/><path fill="#FCFCFC" d="M911.775 1138.93L939.249 1138.81L939.253 1166.74C930.094 1166.88 920.933 1166.84 911.776 1166.59C911.505 1157.69 911.735 1147.9 911.775 1138.93Z"/><path fill="#FCFCFC" d="M331.515 0L358.906 0L358.9 27.9547C349.817 28.0245 340.734 28.0363 331.651 27.9899C331.236 18.7235 331.406 9.27549 331.515 0Z"/><path fill="#FCFCFC" d="M82.7051 250.364C91.9355 250.329 101.166 250.342 110.396 250.405L110.396 278.052L82.7215 278.096L82.7051 250.364Z"/><path fill="#FCFCFC" d="M0 777.68C8.92261 778.275 18.5444 777.977 27.5792 778.194L27.6045 805.796C19.6638 805.356 8.20677 805.727 0 805.737L0 777.68Z"/><path fill="#FCFCFC" d="M220.875 1111.25C229.955 1111.16 239.509 1110.93 248.538 1111.26L248.539 1138.86C239.382 1138.74 230.224 1138.7 221.066 1138.75C220.776 1129.59 220.712 1120.42 220.875 1111.25Z"/><path fill="#FCFCFC" d="M27.615 750.076C36.1164 750.107 46.8048 750.456 55.1242 750.115C54.8648 758.941 55.0719 768.875 55.0516 777.793C46.2161 778.096 36.6439 777.936 27.7505 777.942C27.3988 768.895 27.5877 759.179 27.615 750.076Z"/><path fill="#FCFCFC" d="M82.6769 500.252C82.5495 509.416 82.6644 518.835 82.6657 528.02C73.525 528.127 64.3832 528.086 55.2438 527.898C54.8594 519.018 55.0546 509.155 55.1433 500.23C64.321 500.315 73.4991 500.322 82.6769 500.252Z"/><path fill="#FCFCFC" d="M82.7037 694.681L110.25 694.529L110.379 722.102C101.194 722.502 91.8561 722.427 82.6515 722.446L82.7037 694.681Z"/><path fill="#FCFCFC" d="M303.775 916.68C313.057 916.756 322.338 916.772 331.62 916.728C331.35 925.873 331.295 935.022 331.453 944.169C322.277 944.638 313.083 944.652 303.905 944.212C303.806 935.035 303.762 925.857 303.775 916.68Z"/><path fill="#FCFCFC" d="M497.188 1111.16C506.358 1111.01 515.53 1111 524.701 1111.15L524.72 1138.61C515.725 1139.19 506.337 1138.59 497.231 1138.88C497.17 1129.64 497.155 1120.4 497.188 1111.16Z"/><path fill="#FCFCFC" d="M883.961 167.165C893.229 167.111 902.497 167.106 911.764 167.149L911.609 194.591C902.464 194.709 893.318 194.727 884.173 194.645C883.449 187.335 883.873 174.677 883.961 167.165Z"/><path fill="#FCFCFC" d="M441.999 1055.59C450.452 1055.69 461.283 1055.91 469.584 1055.5L469.554 1083.27C461.011 1082.96 450.841 1083.23 442.083 1083.13C441.824 1074.21 441.999 1064.56 441.999 1055.59Z"/><path fill="#FCFCFC" d="M939.283 999.989L966.742 1000.08C966.785 1009.18 966.942 1018.56 966.779 1027.65C957.7 1027.73 948.46 1027.91 939.399 1027.61C939.278 1018.41 939.24 1009.2 939.283 999.989Z"/><path fill="#FCFCFC" d="M469.554 1083.27C478.782 1083.52 487.83 1083.38 497.054 1083.34C497.178 1092.55 497.231 1101.77 497.214 1110.98C487.999 1111.01 478.784 1110.98 469.57 1110.88L469.554 1083.27Z"/><path fill="#FCFCFC" d="M0 722.285C9.19402 722.493 18.391 722.543 27.5867 722.434L27.615 750.076C18.9136 749.795 8.81244 750.055 0 750.062L0 722.285Z"/><path fill="#FCFCFC" d="M110.268 666.829L137.982 666.825C138.003 675.615 137.786 685.653 138.114 694.339C128.928 694.575 119.737 694.576 110.551 694.342C109.819 685.647 110.658 675.628 110.268 666.829Z"/><path fill="#FCFCFC" d="M220.996 889.156L248.519 889.124L248.572 916.68C239.609 916.63 229.903 916.849 221.049 916.562C220.82 907.428 220.802 898.29 220.996 889.156Z"/><path fill="#FCFCFC" d="M386.855 55.8511L414.488 55.772L414.426 83.2671C405.241 83.4076 396.054 83.4093 386.869 83.2723C386.464 74.4051 386.747 64.7927 386.855 55.8511Z"/><path fill="#FCFCFC" d="M442.017 83.2969C441.747 92.177 441.965 102.223 441.951 111.198C432.816 111.286 423.682 111.308 414.547 111.265C414.274 102.46 414.497 92.5847 414.504 83.6986C423.677 83.7521 432.849 83.6182 442.017 83.2969Z"/><path fill="#FCFCFC" d="M469.595 28.1091L497.229 28.0726C496.926 37.1724 497.079 46.5879 497.116 55.7205C488.383 55.7173 478.238 55.4527 469.626 55.7479C469.514 46.5822 469.594 37.2861 469.595 28.1091Z"/><path fill="#FCFCFC" d="M27.5934 1138.84C36.7505 1138.93 45.9082 1138.94 55.0654 1138.86L55.0573 1166.75C46.9742 1166.74 35.5101 1167.07 27.6926 1166.53C27.5883 1157.52 27.8508 1147.66 27.5934 1138.84Z"/><path fill="#FCFCFC" d="M0 500.216C8.37482 500.248 19.4514 500.628 27.6004 500.247L27.5142 527.878C18.3435 528.036 9.17095 528.045 0 527.906L0 500.216Z"/><path fill="#FCFCFC" d="M55.1457 778.14C64.3384 777.919 73.5024 777.715 82.6926 778.217C82.6792 786.829 82.945 797.293 82.5546 805.753C73.4167 805.67 64.2782 805.672 55.1404 805.759L55.1457 778.14Z"/><path fill="#FCFCFC" d="M0 666.815L27.6367 666.898L27.5537 694.38C18.1541 694.66 9.31822 694.43 0 694.492L0 666.815Z"/><path fill="#FCFCFC" d="M939.292 1111.28C948.452 1111.04 957.616 1111 966.778 1111.16C966.777 1119.96 966.511 1130.28 966.839 1138.95C959.441 1138.44 947.029 1138.82 939.249 1138.81L939.292 1111.28Z"/><path fill="#FCFCFC" d="M911.723 1194.5L939.19 1194.53L939.226 1222.14C930.083 1222.04 920.939 1222 911.795 1222.01C911.659 1212.84 911.635 1203.67 911.723 1194.5Z"/><path fill="#FCFCFC" d="M414.423 1083.23C421.63 1083.37 435.234 1083.86 441.936 1083.35L441.949 1110.9C432.808 1111.07 423.665 1111.07 414.524 1110.89C414.435 1101.67 414.401 1092.45 414.423 1083.23Z"/><path fill="#FCFCFC" d="M27.6773 694.749C34.8266 694.686 48.6836 695.163 55.008 694.601C55.0418 703.592 54.8626 713.473 55.1211 722.383C46.1326 722.382 36.667 722.505 27.7173 722.281C27.5667 713.104 27.5534 703.926 27.6773 694.749Z"/><path fill="#FCFCFC" d="M911.685 750.166C920.871 750.192 930.058 750.156 939.243 750.056L939.177 777.785C930.201 778.021 920.79 777.913 911.779 777.94L911.685 750.166Z"/><path fill="#FCFCFC" d="M497.275 944.6C506.461 944.469 515.549 944.271 524.732 944.573L524.765 972.188C515.591 972.181 506.416 972.224 497.242 972.317L497.275 944.6Z"/><path fill="#FCFCFC" d="M911.749 333.702L911.655 361.206L884.169 361.325C883.833 352.156 883.815 342.979 884.115 333.808L911.749 333.702Z"/><path fill="#FCFCFC" d="M82.664 194.737L110.437 194.825L110.235 222.424C101.077 222.334 91.9175 222.353 82.7595 222.481C82.7333 213.739 82.9896 203.329 82.664 194.737Z"/><path fill="#FCFCFC" d="M856.342 28.1741C865.539 28.046 874.846 28.0936 884.053 28.0685C883.712 36.5098 884.04 46.8998 883.933 55.6425L856.538 55.6756C856.162 46.9412 856.356 36.9999 856.342 28.1741Z"/><path fill="#FCFCFC" d="M55.1696 222.822C64.3364 222.715 73.5041 222.7 82.6712 222.778L82.6878 250.177C73.5025 250.39 64.3142 250.438 55.1273 250.323C55.0088 241.156 55.023 231.988 55.1696 222.822Z"/><path fill="#FCFCFC" d="M82.7495 472.662L110.315 472.581C110.346 481.648 110.523 491.157 110.34 500.187L82.6769 500.252L82.7495 472.662Z"/><path fill="#FCFCFC" d="M276.266 889.143C285.417 889.084 294.569 889.086 303.721 889.149L303.775 916.68C296.256 916.247 284.133 916.698 276.262 916.734L276.266 889.143Z"/><path fill="#FCFCFC" d="M552.611 111.389C561.737 111.328 570.845 111.485 579.983 111.354C579.523 118.413 580.024 131.72 580.236 139.169C571.027 139.192 561.819 139.167 552.611 139.093L552.611 111.389Z"/><path fill="#FCFCFC" d="M469.619 999.911C469.163 1007.99 469.532 1019.42 469.468 1027.88L442.108 1027.68C441.939 1018.5 441.945 1009.32 442.124 1000.14C451.29 1000.12 460.455 1000.05 469.619 999.911Z"/><path fill="#FCFCFC" d="M0 1166.78C9.09374 1166.77 18.5261 1166.63 27.5912 1166.82L27.6154 1194.1C18.1486 1194.48 9.48236 1194.36 0 1194.18L0 1166.78Z"/><path fill="#FCFCFC" d="M27.6369 472.574L55.0832 472.583C55.0917 481.438 54.8595 491.477 55.1433 500.23L27.6004 500.247C27.5334 491.022 27.5456 481.798 27.6369 472.574Z"/><path fill="#FCFCFC" d="M414.461 1027.99C423.158 1027.64 433.298 1027.73 442.052 1027.94C441.95 1037.16 441.933 1046.37 441.999 1055.59C432.832 1055.46 423.663 1055.45 414.495 1055.55L414.461 1027.99Z"/><path fill="#FCFCFC" d="M27.6045 805.796C36.6034 805.787 46.1952 805.954 55.1404 805.759C54.7859 814.214 55.0668 824.65 55.0608 833.26C45.9733 833.338 36.8853 833.333 27.7979 833.245C27.3208 825.018 27.6315 814.273 27.6045 805.796Z"/><path fill="#FCFCFC" d="M193.305 1028.01C202.487 1027.77 211.673 1027.74 220.856 1027.9C220.937 1037.11 220.939 1046.33 220.863 1055.54L193.412 1055.43L193.305 1028.01Z"/><path fill="#FCFCFC" d="M55.1066 889.087C64.285 889.181 73.464 889.194 82.6426 889.126L82.6257 916.592C73.4634 916.573 64.301 916.601 55.1389 916.676L55.1066 889.087Z"/><path fill="#FCFCFC" d="M635.571 83.8127C644.708 83.6721 653.845 83.5964 662.983 83.5857C663.005 92.5672 662.813 102.434 663.059 111.336L635.596 111.226C635.384 102.09 635.375 92.9497 635.571 83.8127Z"/><path fill="#FCFCFC" d="M331.366 55.7953L358.884 55.8243C358.982 64.8168 359.238 74.349 358.875 83.2818L331.48 83.3839C331.353 74.1883 331.315 64.9916 331.366 55.7953Z"/><path fill="#FCFCFC" d="M524.401 1254C524.922 1251.34 524.43 1251.38 526.037 1250.16C530.228 1250 548.436 1249.63 551.538 1250.34C552.604 1251.66 552.51 1252.3 552.778 1254L524.401 1254Z"/><path fill="#FCFCFC" d="M192.966 1254C193.481 1251.36 192.979 1251.74 194.585 1250.26C200.404 1249.79 214.112 1249.74 219.938 1250.2C221.358 1251.77 220.915 1251.48 221.285 1254L192.966 1254Z"/><path fill="#014052" d="M495.561 326.223C522.526 310.44 550.34 299.168 582.006 296.728C591.892 295.966 611.389 292.61 607.515 308.638C598.774 317.921 589.267 324.348 579.985 334.545C550.714 366.912 535.096 409.345 536.398 452.965C538.334 518.321 577.903 580.399 634.937 611.855C653.746 622.339 667.662 627.557 688.609 632.946C723.455 639.719 749.966 639.325 784.843 633.646C791.768 632.518 798.014 639.611 795.382 646.75C781.917 675.538 747.956 701.837 721.556 715.732C670.768 742.108 611.639 747.43 556.957 730.547C535.632 723.858 515.338 714.242 496.657 701.974C478.137 689.142 469.397 681.799 453.76 665.397C449.872 661.075 446.083 656.666 442.395 652.172L432.873 638.892C409.686 604.51 398.834 568.666 395.057 527.867L394.64 515.401C394.85 474.15 402.435 445.872 419.739 408.853C417.468 410.059 416.687 412.411 415.429 414.826C414.773 413.038 415.137 393.42 415.143 390.038C419.109 390.038 423.075 389.985 427.04 389.877C423.744 389.292 418.046 389.361 414.516 389.301C414.125 379.839 414.27 370.744 414.383 361.272C423.153 361.521 433.109 361.269 441.973 361.251C441.59 352.142 441.833 342.787 442.016 333.674L469.696 333.692C469.416 324.011 469.395 315.841 469.607 306.112L497.169 306.016C497.345 311.365 498.429 322.323 495.561 326.223Z"/><path fill="#FCFCFC" d="M469.607 306.112L497.169 306.016C497.345 311.365 498.429 322.323 495.561 326.223C491.244 329.162 486.206 332.425 482.112 335.567C478.299 338.566 474.313 341.613 470.611 344.725C454.918 358.806 443.329 371.212 431.542 388.865C428.641 393.21 422.097 405.775 419.739 408.853C417.468 410.059 416.687 412.411 415.429 414.826C414.773 413.038 415.137 393.42 415.143 390.038C419.109 390.038 423.075 389.985 427.04 389.877C423.744 389.292 418.046 389.361 414.516 389.301C414.125 379.839 414.27 370.744 414.383 361.272C423.153 361.521 433.109 361.269 441.973 361.251C441.59 352.142 441.833 342.787 442.016 333.674L469.696 333.692C469.416 324.011 469.395 315.841 469.607 306.112Z"/><path fill="#FCFCFC" d="M453.293 639.582C432.382 613.644 417.354 575.56 412.862 542.668C404.894 487.088 419.563 430.636 453.581 385.966C483.91 346.162 528.76 319.979 578.331 313.137C564.601 326.487 553.497 339.84 544.191 356.725C519.823 400.526 513.896 452.227 527.721 500.407C541.267 547.441 570.757 588.297 611.132 615.966C620.321 622.323 628.524 626.724 638.323 632.093C641.786 633.63 645.223 635.224 648.633 636.875C694.058 654.351 726.509 657.514 774.73 650.911C744.033 691.064 697.559 715.755 647.808 722.391C592.903 729.192 537.539 713.971 493.826 680.059C483.756 672.334 476.049 665.158 467.278 656.13C462.063 650.354 458.06 645.722 453.293 639.582Z"/><path fill="#014052" d="M429.429 794.421C416.857 785.591 404.907 775.908 393.662 765.44C386.093 758.44 355.233 729.273 355.72 720.952C355.847 718.771 356.768 717.194 358.295 715.698C359.753 714.27 361.398 713.671 363.455 713.761C369.729 714.035 380.892 729.506 385.368 734.598C387.04 730.1 386.766 727.252 386.694 722.455C395.75 722.471 405.485 722.672 414.485 722.465L414.512 750.149C422.755 750.157 434.008 750.509 442.006 750.056C442.014 758.877 441.828 768.745 442.303 777.463C449.74 778.341 461.796 778.109 469.633 778.167C469.679 781.888 470.644 798.349 468.248 800.215C473.275 805.519 511.576 821.029 519.947 824.077C616.013 859.055 717.506 843.906 802.897 788.842C818.212 778.904 832.756 767.826 846.406 755.701C853.153 749.641 859.643 743.301 865.86 736.698C869.85 732.457 874.078 726.892 878.656 723.393C879.723 722.578 881.156 722.032 882.481 721.853C884.82 721.536 887.895 722.509 889.558 724.203C890.874 725.542 891.21 727.47 890.911 729.258C888.517 743.55 836.503 784.905 822.33 794.686C829.65 807.672 838.344 818.843 850.412 827.783C855.354 831.444 866.28 835.235 865.382 842.378C865.081 844.697 863.778 846.767 861.818 848.042C856.143 851.733 848.565 845.386 843.948 842.285C828.681 832.03 818.736 819.101 809.441 803.524C802.104 807.631 795.13 812.229 787.516 816.427C769.829 826.177 754.255 832.766 735.43 839.731C739.136 852.974 745.435 866.162 753.174 877.519C756.957 883.069 767.306 889.923 764.668 897.2C763.951 899.136 762.434 900.67 760.505 901.408C753.808 904.021 749.736 897.759 745.95 893.33C734.011 879.362 725.738 862.29 720.748 844.68C692.185 853.279 662.594 857.993 632.773 858.695C633.2 875.221 633.57 888.977 640.333 904.23C642.313 908.694 645.571 915.532 641.581 919.669C640.168 921.106 638.238 921.915 636.223 921.915C620.563 921.992 617.59 869.96 617.643 858.511C587.795 858.11 559.752 852.954 531.197 844.638C525.455 862.805 517.5 880.161 504.708 894.488C501.575 897.997 497.395 903.465 491.989 901.84C489.824 901.169 488.024 899.649 487 897.627C483.729 891.047 494.244 883.134 497.921 878.098C506.843 865.881 511.709 853.969 516.136 839.705C485.871 827.97 469.947 820.65 442.271 803.136C431.624 821.835 418.343 836.663 399.542 847.377C388.673 853.571 381.56 841.818 389.891 834.916C393.011 832.331 398.648 829.637 402.136 827.067C414.082 818.261 422.024 807.024 429.429 794.421Z"/><path fill="#FCFCFC" d="M386.694 722.455C395.75 722.471 405.485 722.672 414.485 722.465L414.512 750.149C422.755 750.157 434.008 750.509 442.006 750.056C442.014 758.877 441.828 768.745 442.303 777.463C449.74 778.341 461.796 778.109 469.633 778.167C469.679 781.888 470.644 798.349 468.248 800.215C440.578 786.703 406.5 756.741 385.368 734.598C387.04 730.1 386.766 727.252 386.694 722.455Z"/><path fill="#FCFCFC" d="M276.213 361.301C276.182 370.534 276.031 380.069 276.212 389.275L303.783 389.358L303.729 417.21L331.339 417.067L331.385 444.574C340.361 444.625 350.009 444.868 358.925 444.722L358.913 472.23C351.12 472.395 343.325 472.49 335.53 472.516C343.289 472.7 351.05 472.761 358.811 472.699C358.823 478.434 358.471 491.887 358.967 497.006C359.151 488.876 359.203 480.744 359.123 472.613C368.303 472.503 377.484 472.497 386.664 472.595L386.664 500.18L358.906 500.211C358.894 509.387 358.802 518.682 358.893 527.848C349.772 527.933 340.651 527.954 331.53 527.912C331.355 518.673 331.339 509.431 331.483 500.19L303.757 500.227L303.696 527.908C294.565 528.13 285.43 528.138 276.299 527.933L276.223 500.183L248.625 500.267L248.622 472.417C257.703 472.801 267.017 472.277 276.249 472.624C276.205 463.239 276.241 453.854 276.356 444.47C267.123 444.561 257.888 444.598 248.654 444.581C248.379 435.662 248.567 425.968 248.579 416.992C239.758 416.753 229.977 416.95 221.076 416.934C220.728 407.825 220.856 398.5 220.886 389.367C230.037 389.395 239.488 389.54 248.611 389.295C248.555 379.972 248.556 370.649 248.613 361.326C256.646 361.632 268.018 361.568 276.213 361.301Z"/><path fill="#014052" d="M807.104 445.337C785.741 440.899 798.565 420.86 783.271 403.341C767.052 384.761 754.522 396.29 740.423 383.627C738.858 382.221 738.081 377.081 738.812 374.549C741.936 363.209 755.039 364.459 764.427 362.364C778.426 359.239 787.935 348.687 791.217 334.964C791.904 330.401 792.806 326.018 793.535 321.457C794.775 313.704 803.423 306.964 811.255 310.135C823.861 315.239 819.54 333.871 826.383 344.731C832.768 354.865 839.528 360.97 851.913 363.115C856.681 363.829 861.322 364.385 865.987 365.558C873.418 367.428 877.508 374.481 874.266 381.76C869.665 392.089 852.714 389.069 843.199 393.771C832.136 399.238 827.775 405.445 823.289 416.398C825.059 416.669 827.066 416.7 828.314 417.811C829.456 423.013 828.502 438.373 828.488 444.539C825.012 444.6 817.102 445.324 814.82 443.392L814.99 442.28C811.655 444.164 810.718 444.362 807.104 445.337Z"/><path fill="#FCFCFC" d="M823.289 416.398C825.059 416.669 827.066 416.7 828.314 417.811C829.456 423.013 828.502 438.373 828.488 444.539C825.012 444.6 817.102 445.324 814.82 443.392L814.99 442.28C822.366 435.798 820.394 426.694 823.037 417.277L823.289 416.398Z"/><path fill="#FCFCFC" d="M806.8 334.828C807.238 335.574 807.23 335.435 807.383 336.234C810.324 351.553 819.411 364.628 833.213 372.092C837.483 374.401 841.428 375.693 846.269 377.158C824.269 383.354 811.753 397.157 807.26 419.534C806.395 418.534 803.469 407.14 800.963 402.822C792.25 387.807 783.293 382.059 767.407 377.122C790.81 370.45 801.16 358.151 806.8 334.828Z"/><path fill="#014052" d="M745.278 525.954C768.16 512.506 790.896 507.56 817.119 514.397C839.459 520.372 858.537 534.925 870.202 554.893C874.377 562.064 877.238 569.482 879.563 577.421C899.472 576.804 915.041 579.559 930.349 593.887C942.799 605.351 950.032 621.399 950.374 638.319C950.775 655.437 945.414 669.235 933.836 681.896C914.146 703.428 889.764 698.256 863.574 698.966C860.816 699.298 851.933 698.083 850.493 695.427C844.567 684.496 856.068 682.995 864.058 683.092C890.704 683.413 918.975 687.741 931.457 657.618C936.161 646.152 936.127 633.287 931.362 621.846C926.659 610.639 917.774 601.074 906.433 596.463C901.573 594.494 896.426 593.326 891.192 593.003C884.334 592.589 874.936 594.675 868.985 592.376C866.487 591.412 862.497 575.04 861.288 571.878C854.792 554.894 840.062 540.558 823.625 533.265C805.732 525.502 785.503 525.097 767.314 532.138C749.179 539.152 734.663 553.219 727.084 571.126C725.151 575.513 723.684 580.09 722.706 584.783C721.752 589.469 721.085 601.035 716.732 602.165C702.73 605.799 705.921 590.193 707.171 583.481C711.384 560.852 723.095 543.925 740.337 529.473L745.278 525.954Z"/><path fill="#FCFCFC" d="M442.062 111.44L469.491 111.354C469.519 120.556 469.682 130.157 469.462 139.324C478.072 139.272 488.778 139.517 497.205 139.11C496.757 148.493 497.33 157.781 497.137 167.133C488.912 166.745 477.921 166.939 469.584 167.11C469.549 175.934 469.804 186.091 469.455 194.751L442.054 194.746C441.95 204.091 441.95 213.438 442.055 222.783C451.206 222.785 460.357 222.674 469.505 222.452L469.496 250.193C461.13 250.591 450.627 250.307 442.099 250.309C441.85 241.239 442.053 231.673 442.111 222.562C433.51 222.874 423.219 222.466 414.494 222.325C414.284 213.337 414.487 203.687 414.519 194.65L386.89 194.628C386.398 185.908 386.705 175.931 386.829 167.165L414.538 167.124C414.198 158.194 414.375 148.233 414.35 139.226C423.571 139.253 432.793 139.234 442.013 139.167C442.008 130.066 441.855 120.502 442.062 111.44Z"/><path fill="#FCFCFC" d="M221.012 722.508L248.531 722.576L248.53 750.177C257.75 750.112 266.971 750.095 276.191 750.127L276.043 777.904C284.337 778.033 296.175 777.57 303.922 778.291C303.786 787.433 303.751 796.577 303.819 805.72L276.08 805.627C276.109 814.757 276.266 824.197 276.141 833.3L248.624 833.34L248.599 805.703L221.065 805.721C220.904 799.432 220.339 784.685 221.14 778.869C224.112 777.16 224.641 779.003 226.515 777.78C224.747 777.735 223.363 777.667 221.603 777.519C219.586 773.049 220.774 767.974 220.306 763.558C218.176 743.438 227.069 752.734 239.753 750.334C239.11 749.939 222.86 750.068 220.922 750.064C220.74 740.879 220.77 731.692 221.012 722.508Z"/><path fill="#FCFCFC" d="M718.265 1083.24C718.244 1092.46 718.376 1101.84 718.282 1111.03C727.9 1110.93 736.314 1111.11 745.851 1111.32L745.84 1138.76C736.665 1138.78 727.351 1138.88 718.189 1138.78C718.261 1148.09 718.279 1157.41 718.243 1166.73C709.066 1166.92 699.885 1166.93 690.707 1166.76L690.724 1194.22C681.554 1194.36 672.382 1194.33 663.212 1194.15C663.012 1185.08 662.979 1176 663.113 1166.93C671.866 1166.63 682.578 1167.16 690.74 1166.64C690.594 1157.36 690.575 1148.08 690.685 1138.8C681.476 1138.87 672.266 1138.87 663.056 1138.8L663.096 1111.22C672.318 1111.1 681.542 1111.04 690.766 1111.03C690.366 1102.09 690.641 1092.19 690.722 1083.17C697.937 1083.48 711.238 1083.76 718.265 1083.24Z"/><path fill="#FCFCFC" d="M453.76 665.397C469.397 681.799 478.137 689.142 496.657 701.974C497.794 704.606 497.138 718.09 497.216 722.181C502.494 722.75 519.644 722.669 524.738 721.958L524.767 750.053C515.583 750.166 506.402 749.996 497.199 750.12C497.122 759.389 497.113 768.658 497.171 777.927L469.696 778.048C469.379 768.59 469.509 759.48 469.627 750.013C460.45 750.12 451.191 750.057 442.006 750.056C441.901 740.891 441.928 731.725 442.088 722.56C451.257 722.467 460.427 722.439 469.597 722.477L469.432 694.331C460.469 694.537 451.079 694.912 442.171 694.381C441.915 685.206 441.854 676.027 441.988 666.85C445.836 666.928 450.853 667.601 453.76 665.397Z"/><path fill="#FCFCFC" d="M718.279 333.667C727.502 333.828 736.726 333.863 745.949 333.772C745.943 342.705 746.187 353.102 745.817 361.916C736.617 361.614 727.415 361.384 718.211 361.226C718.228 370.54 718.359 380.095 718.238 389.387C724.168 389.346 731.382 389.107 737.193 389.579C731.782 390.201 724.416 390.068 718.846 390.038C718.84 396.05 718.995 402.744 718.465 408.677L718.384 389.214L690.682 389.205C690.668 398.023 690.381 408.335 690.675 417.025C682.639 416.625 671.428 416.999 663.149 417.017L663.108 389.397L690.816 389.35C690.283 381.099 690.631 369.69 690.701 361.279L718.37 361.518C718.392 352.234 718.362 342.951 718.279 333.667Z"/><path fill="#FCFCFC" d="M276.233 111.347L303.78 111.45C303.801 120.618 303.733 129.928 303.856 139.082L276.175 139.166C276.156 148.23 275.925 158.143 276.143 167.134C268.868 166.683 255.93 166.926 248.583 167.174L248.624 139.074L220.886 139.102C220.643 130.022 220.866 120.517 220.956 111.397L248.557 111.423L248.522 139.266L276.253 139.264L276.233 111.347Z"/><path fill="#FCFCFC" d="M414.473 916.699L442.036 916.695C441.945 925.865 441.931 935.035 441.993 944.205C432.857 944.49 423.717 944.542 414.579 944.362C414.514 953.533 414.597 963.13 414.364 972.263C405.878 971.957 395.507 972.278 386.874 972.308C386.631 963.021 386.613 953.729 386.82 944.44L414.56 944.444C414.369 935.197 414.34 925.947 414.473 916.699Z"/><path fill="#FCFCFC" d="M580.055 1138.96C589.297 1138.84 598.539 1138.82 607.781 1138.9C607.323 1146.99 607.685 1158.51 607.69 1166.85C616.932 1166.84 626.173 1166.77 635.414 1166.66C635.476 1175.83 635.448 1185.01 635.332 1194.18C626.497 1194.51 616.687 1194.29 607.774 1194.26C607.141 1186.19 607.604 1174.88 607.755 1166.7C598.732 1166.82 589.377 1166.97 580.386 1166.51C579.506 1159.78 579.974 1146.33 580.055 1138.96Z"/><path fill="#FCFCFC" d="M524.83 250.38C534.02 250.331 543.209 250.331 552.399 250.381C552.397 259.554 552.491 268.904 552.357 278.061C543.409 278.119 533.565 277.896 524.731 278.138C524.716 287.128 524.862 296.713 524.59 305.655C517.273 306.545 504.927 306.1 497.169 306.016C496.991 296.73 497.001 287.441 497.2 278.155C505.822 278.193 516.339 278.517 524.809 278.142C524.815 268.937 524.724 259.569 524.83 250.38Z"/><path fill="#FCFCFC" d="M193.32 361.35L220.929 361.464C220.86 370.696 220.867 379.927 220.948 389.159L193.264 389.21C193.421 398.454 193.375 407.7 193.125 416.943L165.803 416.988C165.161 409.067 165.555 397.604 165.635 389.381L193.379 389.37C193.144 380.221 193.307 370.539 193.32 361.35Z"/><path fill="#FCFCFC" d="M248.624 833.34C248.449 842.521 248.53 851.995 248.491 861.2L220.966 861.2C220.818 870.45 220.8 879.701 220.912 888.95C211.743 889.037 202.572 888.951 193.406 888.692C193.184 879.859 193.381 870.213 193.383 861.316C202.077 860.982 212.134 861.215 220.931 861.213C220.55 852.155 220.809 842.534 220.913 833.418C230.07 833.463 239.498 833.621 248.624 833.34Z"/><path fill="#FCFCFC" d="M110.439 944.564L137.92 944.481L137.881 972.367C147.074 972.276 156.416 972.374 165.622 972.385C165.653 978.006 165.988 995.079 165.167 999.893C156.139 1000.08 147.109 1000.07 138.081 999.884L138.081 972.187C129.32 972.332 119.059 972.466 110.379 972.034C110.316 962.877 110.336 953.72 110.439 944.564Z"/><path fill="#FCFCFC" d="M303.841 250.257L331.457 250.372C331.542 259.593 331.511 268.815 331.362 278.035C322.16 278.156 312.958 278.18 303.756 278.106L303.797 306.085C295.546 305.718 284.741 306.073 276.297 306.104C276.185 296.836 276.141 287.567 276.165 278.299C285.399 278.113 294.635 278.115 303.868 278.305C303.739 268.956 303.73 259.606 303.841 250.257Z"/><path fill="#FCFCFC" d="M635.435 1055.51L635.641 1056.01C635.177 1058.33 635.326 1079.04 635.252 1083.3C643.125 1083.24 655.47 1082.86 662.991 1083.49C663.049 1092.6 663.036 1101.71 662.953 1110.81C654.389 1111.06 645.819 1111.06 637.256 1110.79C636.401 1110.66 636.92 1110.81 635.811 1110.07C634.805 1106.17 635.311 1088 635.367 1083.2C626.273 1083.36 616.837 1083.22 607.715 1083.21C607.275 1074.19 607.572 1064.68 607.736 1055.63C616.969 1055.73 626.203 1055.69 635.435 1055.51Z"/><path fill="#FCFCFC" d="M690.716 916.637C699.884 916.737 709.052 916.772 718.22 916.743C718.235 925.896 718.311 935.049 718.447 944.201C709.318 944.321 699.796 944.577 690.706 944.346L690.613 972.205L663.107 972.279L663.08 944.634L690.811 944.477C690.698 935.197 690.666 925.917 690.716 916.637Z"/><path fill="#FCFCFC" d="M248.625 500.267C248.332 509.157 248.558 519.377 248.536 528.375C257.459 527.842 267.089 528.193 276.081 528.35C276.148 537.498 276.125 546.648 276.014 555.796C266.895 555.923 257.776 555.909 248.658 555.753C248.526 546.541 248.541 537.326 248.704 528.114C239.732 527.832 230.027 527.938 220.97 527.833C220.794 518.661 220.785 509.486 220.943 500.314L248.625 500.267Z"/><path fill="#FCFCFC" d="M755.128 1083.47C760.84 1083.13 767.821 1083.48 773.633 1083.63L773.808 1111.03C782.937 1111 792.066 1111.05 801.195 1111.19C801.266 1120.38 801.208 1129.57 801.022 1138.76L788.495 1138.85L773.919 1138.77C773.335 1129.78 773.58 1120.08 773.653 1111.02C764.468 1111.04 755.283 1110.97 746.099 1110.82L745.981 1083.64L755.128 1083.47Z"/><path fill="#FCFCFC" d="M331.365 555.858C340.588 555.779 349.811 555.809 359.034 555.946L358.895 583.675C367.095 583.683 375.26 583.669 383.452 583.191C384.568 583.125 385.569 583.735 386.381 584.453C387.352 586.93 386.628 605.42 386.664 610.068C383.639 612.327 364.424 611.233 359.305 611.065C358.754 601.846 358.881 592.749 358.914 583.518L331.49 583.525C331.388 574.303 331.347 565.08 331.365 555.858Z"/><path fill="#FCFCFC" d="M96.5877 83.5778C101.167 83.5887 105.746 83.5367 110.324 83.4216L110.411 111.121C101.151 111.222 91.8899 111.259 82.6292 111.232L82.6749 139.084L71.1804 139.147L55.2198 139.012C54.942 129.799 54.8994 120.579 55.092 111.364L82.7275 111.376C82.6885 102.183 82.704 92.99 82.7739 83.797C87.3795 83.8276 91.9853 83.7545 96.5877 83.5778Z"/><path fill="#FCFCFC" d="M469.538 916.762L497.145 916.718C497.073 925.905 497.062 935.091 497.112 944.278L469.7 944.474L469.472 972.22L442.071 972.311C441.959 963.073 441.946 953.835 442.031 944.597C451.109 944.481 460.766 944.674 469.71 944.42C469.437 935.204 469.38 925.982 469.538 916.762Z"/><path fill="#FCFCFC" d="M856.361 1028.09C865.577 1027.91 874.795 1027.84 884.013 1027.89C884.058 1037.05 884.035 1046.21 883.946 1055.37C874.945 1055.6 865.38 1055.46 856.336 1055.48C856.147 1064.57 856.266 1074.1 856.234 1083.22C847.076 1083.25 837.918 1083.24 828.761 1083.17L828.761 1055.69L856.624 1055.62C856.081 1047.64 856.358 1036.24 856.361 1028.09Z"/><path fill="#FCFCFC" d="M469.558 83.6221C477.856 83.6355 489.017 83.9645 497.086 83.4432L497.16 111.401L524.729 111.435L524.797 139.084C516.162 139.147 505.505 138.763 497.205 139.11C496.999 129.806 497.037 120.499 497.32 111.197C488.116 111.272 478.911 111.288 469.707 111.245C469.49 102.039 469.44 92.8298 469.558 83.6221Z"/><path fill="#FCFCFC" d="M386.97 805.723L387.15 805.852C386.334 810.563 386.969 828.244 387.068 833.697C377.667 833.413 368.262 833.27 358.857 833.267C358.956 842.511 358.949 851.756 358.837 861C350.952 861.473 340.597 861.194 332.528 861.194C330.753 858.671 331.524 837.653 331.569 833.48L359.123 833.42L359.123 805.805C368.405 805.867 377.688 805.84 386.97 805.723Z"/><path fill="#FCFCFC" d="M193.304 1139C202.451 1138.88 211.733 1138.96 220.892 1138.97C220.717 1148.03 220.896 1157.67 220.907 1166.78L248.551 1166.62L248.54 1194.15C239.376 1194.35 230.209 1194.35 221.044 1194.16C220.656 1185.36 220.804 1175.47 220.791 1166.62C211.633 1166.8 202.472 1166.78 193.314 1166.56L193.304 1139Z"/><path fill="#FCFCFC" d="M773.653 167.132C782.885 167.126 792.116 167.166 801.347 167.253C801.394 176.548 801.366 185.843 801.261 195.137C809.293 194.495 820.426 194.797 828.735 194.825C828.606 203.665 828.704 212.697 828.622 221.582C826.283 223.559 805.786 222.377 801.404 222.26C801.482 213.211 801.279 203.846 801.202 194.771C792.101 194.664 782.999 194.649 773.898 194.727C773.389 186.316 773.655 175.711 773.653 167.132Z"/><path fill="#FCFCFC" d="M276.269 556.01C285.446 555.83 294.626 555.816 303.803 555.968L303.725 583.676L331.438 583.533C331.42 592.619 331.537 602.048 331.366 611.104C322.18 611.26 312.993 611.28 303.806 611.167C303.798 601.97 303.71 592.649 303.824 583.464L276.175 583.491L276.269 556.01Z"/><path fill="#FCFCFC" d="M635.39 528.376C644.597 528.324 653.805 528.334 663.012 528.405L662.97 555.755C653.734 555.895 644.496 555.883 635.26 555.718L635.26 583.307C632.069 583.834 611.962 583.465 607.719 583.432L607.719 555.94L635.505 555.834C634.938 548.426 635.358 536.144 635.39 528.376Z"/><path fill="#FCFCFC" d="M193.305 306.114C202.425 305.901 211.805 306.087 220.949 306.168L220.845 333.561C211.655 333.685 202.464 333.71 193.274 333.636L193.243 361.206C184.07 361.327 174.896 361.341 165.723 361.247C165.295 353.291 165.64 342.028 165.635 333.817C174.832 333.694 184.218 333.786 193.432 333.782C193.201 324.76 193.332 315.178 193.305 306.114Z"/><path fill="#FCFCFC" d="M303.823 83.6493C313.034 83.7598 322.246 83.7911 331.458 83.743L331.424 111.327L358.943 111.42C358.991 120.622 358.966 129.824 358.869 139.026C349.753 139.141 340.637 139.131 331.522 138.994C331.305 129.846 331.424 120.404 331.433 111.23L303.918 111.306C303.663 102.335 303.828 92.6722 303.823 83.6493Z"/><path fill="#FCFCFC" d="M110.527 222.786L137.938 222.767L137.901 250.41C147.14 250.185 156.383 250.167 165.622 250.354L165.622 278.081C156.485 278.203 147.346 278.166 138.209 277.971C137.849 269.245 138.087 259.026 138.081 250.187C129.452 250.537 119.225 250.241 110.527 250.12L110.527 222.786Z"/><path fill="#FCFCFC" d="M165.666 167.238L193.176 167.244L193.176 194.821L220.73 194.852C220.653 204.011 221.172 213.256 220.801 222.391L193.384 222.45C193.39 213.19 193.337 203.93 193.225 194.67L165.697 194.734C165.433 185.571 165.423 176.402 165.666 167.238Z"/><path fill="#FCFCFC" d="M635.272 583.622C643.993 583.264 654.209 583.47 663.069 583.417L663.073 611.103C659.275 611.299 651.618 611.483 648.162 612.126C652.945 612.261 657.729 612.32 662.514 612.305C662.527 613.529 662.396 619.677 662.835 620.184C662.966 617.265 663.057 614.344 663.107 611.422L690.743 611.392C690.784 616.128 691.335 628.236 689.703 632.104L688.609 632.946C667.662 627.557 653.746 622.339 634.937 611.855C635.918 606.255 635.319 590.14 635.272 583.622Z"/><path fill="#FCFCFC" d="M165.082 886.793C165.213 886.927 165.784 888.326 165.877 888.541C170.16 889.825 188.073 889.188 193.176 889.107L193.28 916.744C201.739 916.682 211.803 916.469 220.175 916.923C217.432 917.731 198.256 917.232 194.101 917.232L194.101 934.071C194.145 937.121 194.036 939.448 193.854 942.47C192.858 937.897 193.686 922.809 193.146 916.551C184.099 916.657 174.949 916.588 165.893 916.588C165.177 908.025 165.529 897.705 165.638 888.962C160.132 889.028 154.625 888.965 149.121 888.776C153.312 888.691 160.564 888.757 164.456 888.103L165.082 886.793Z"/><path fill="#FCFCFC" d="M552.393 778.016C561.128 777.993 571.408 777.731 580.01 778.184C580.025 787.381 579.983 796.578 579.886 805.775L552.4 805.723C552.388 812.349 552.607 820.933 552.064 827.393C551.521 820.451 551.67 813.377 551.687 806.405C544.215 806.387 532.909 806.021 525.739 806.536C525.07 808.132 525.272 809.25 525.335 810.98L525.041 811.417C524.868 809.4 524.761 807.811 524.729 805.788L552.443 805.832L552.393 778.016Z"/><path fill="#FCFCFC" d="M193.362 640.165C194.7 642.218 194.126 662.067 194.101 666.188C202.352 666.166 210.431 666.119 218.678 666.419C210.982 666.987 201.083 666.722 193.176 666.693L193.176 694.391C184.054 694.497 174.798 694.42 165.664 694.425L165.635 666.892C174.834 666.775 184.184 666.847 193.396 666.833C193.242 658.068 193.365 648.958 193.362 640.165Z"/><path fill="#FCFCFC" d="M634.723 1111.03C636.077 1112.97 635.306 1135.24 635.242 1138.77L608.11 1138.78C606.927 1134.45 607.542 1116.29 607.627 1111.18C616.088 1110.81 626.141 1111.04 634.723 1111.03Z"/><path fill="#FCFCFC" d="M718.324 778.11C727.515 778.013 736.708 778.036 745.899 778.181C745.817 787.367 745.922 796.663 745.955 805.858L762.652 805.863L762.928 806.405C755.926 806.251 753.186 806.298 746.225 807.309C745.964 806.049 746.202 806.635 745.512 805.551C736.487 805.677 727.461 805.714 718.434 805.66C718.103 796.922 718.324 786.942 718.324 778.11Z"/><path fill="#FCFCFC" d="M607.688 500.286C616.309 500.286 626.992 500.592 635.437 500.228C635.111 508.722 635.403 519.291 635.38 527.927C626.749 528.347 616.675 528.037 607.933 527.959C607.564 518.74 607.482 509.511 607.688 500.286Z"/><path fill="#FCFCFC" d="M745.937 916.829C755.038 916.596 764.649 916.756 773.79 916.771C773.912 925.933 773.864 935.097 773.648 944.257C764.462 944.592 755.267 944.573 746.083 944.2C745.762 935.352 745.934 925.738 745.937 916.829Z"/><path fill="#FCFCFC" d="M497.186 1222.24C506.321 1221.88 515.557 1222.13 524.707 1222.27C524.762 1230.12 525.161 1242.25 524.524 1249.77C515.047 1250.34 506.766 1250.13 497.295 1249.9C496.96 1241.01 497.165 1231.21 497.186 1222.24Z"/><path fill="#FCFCFC" d="M746.638 139.271L773.758 139.255C773.855 148.508 773.805 157.763 773.609 167.014C764.673 167.044 754.835 167.265 745.98 166.857C745.946 162.788 745.319 141.148 746.638 139.271Z"/><path fill="#FCFCFC" d="M223.081 278.192C231.57 278.096 240.059 278.12 248.548 278.264C248.54 284.299 248.968 300.644 248.275 305.55L247.371 305.931C238.612 306.047 229.852 306.048 221.093 305.935C220.942 301.208 220.11 282.093 221.583 278.651L223.081 278.192Z"/><path fill="#FCFCFC" d="M663.055 500.224C672.282 500.319 681.51 500.335 690.738 500.271C690.439 509.072 690.662 519.193 690.642 528.099C681.506 528.283 672.367 528.204 663.236 527.862C663.02 518.651 662.96 509.437 663.055 500.224Z"/><path fill="#FCFCFC" d="M884.107 500.236C892.234 500.436 903.568 500.567 911.767 500.279C911.52 509.146 911.7 518.943 911.672 527.888C902.551 528.148 893.424 528.149 884.302 527.891C883.816 518.68 883.75 509.452 884.107 500.236Z"/><path fill="#FCFCFC" d="M358.966 916.851C367.644 916.483 377.869 916.704 386.664 916.679C386.706 922.191 387.118 939.517 386.337 944.201C377.287 944.622 368.222 944.648 359.17 944.279C358.935 935.138 358.867 925.994 358.966 916.851Z"/><path fill="#FCFCFC" d="M524.767 750.053C533.976 750.164 543.187 750.192 552.397 750.137C552.463 754.614 552.953 774.894 551.938 777.916C542.931 777.963 533.925 777.965 524.918 777.922L524.767 750.053Z"/><path fill="#FCFCFC" d="M856.44 861.392C864.365 860.906 876.148 861.138 884.169 861.405L883.969 889.013C874.896 888.882 865.491 889.029 856.391 889.048C856.152 880.118 856.387 870.38 856.44 861.392Z"/><path fill="#FCFCFC" d="M635.289 472.565L662.982 472.497L663.055 500.224L635.437 500.228C635.396 491.261 635.552 481.48 635.289 472.565Z"/><path fill="#FCFCFC" d="M552.361 1111.03C561.471 1111.01 570.793 1110.88 579.877 1111.24C580.051 1120.42 580.048 1129.61 579.868 1138.8C570.758 1138.86 561.648 1138.86 552.538 1138.79C552.186 1129.74 552.348 1120.13 552.361 1111.03Z"/><path fill="#FCFCFC" d="M635.392 1138.97L663.056 1138.8L662.949 1166.63C653.635 1167 644.905 1166.87 635.575 1166.74C634.933 1159.14 635.336 1146.94 635.392 1138.97Z"/><path fill="#FCFCFC" d="M856.314 1138.98C865.551 1138.85 874.788 1138.85 884.024 1138.96L884.033 1166.49C874.855 1166.8 865.669 1166.81 856.49 1166.51C856.098 1157.88 856.324 1147.72 856.314 1138.98Z"/><path fill="#FCFCFC" d="M442.067 833.34C451.153 833.466 460.24 833.478 469.325 833.377C469.258 838.936 470.667 857.779 468.48 861.176C465.712 861.162 462.004 861.285 459.567 861.163C445.284 860.446 439.741 867.154 441.842 847.939C442.141 845.203 442.018 836.884 442.067 833.34Z"/><path fill="#FCFCFC" d="M469.595 250.396C478.795 250.29 487.995 250.278 497.194 250.361L497.21 278.217C488.012 278.186 478.815 278.093 469.618 277.938C469.347 268.602 469.456 259.741 469.595 250.396Z"/><path fill="#FCFCFC" d="M865.043 139.3C869.297 138.89 879.24 139.228 883.91 139.305C884.198 148.333 884.026 157.691 883.971 166.752C882.053 166.893 879.959 166.945 878.023 167.028C871.56 167.05 862.74 167.332 856.468 166.811C856.511 157.642 856.438 148.473 856.249 139.305L865.043 139.3Z"/><path fill="#FCFCFC" d="M220.945 555.946L248.575 555.854L248.576 583.576C239.376 583.434 230.174 583.392 220.972 583.452C220.745 574.285 220.736 565.113 220.945 555.946Z"/><path fill="#FCFCFC" d="M497.197 778.138C506.377 778.005 515.559 778.019 524.739 778.181L524.729 805.788C515.573 805.802 506.417 805.763 497.261 805.67C496.856 796.416 497.061 787.397 497.197 778.138Z"/><path fill="#FCFCFC" d="M220.886 139.102L220.918 166.996L193.402 167.07C193.277 157.816 193.28 148.56 193.411 139.305C202.57 139.288 211.728 139.22 220.886 139.102Z"/><path fill="#FCFCFC" d="M663.134 361.268C662.865 370.251 663.021 380.148 662.972 389.207L635.539 389.267C635.144 380.654 635.415 370.384 635.34 361.572C644.605 361.538 653.87 361.437 663.134 361.268Z"/><path fill="#FCFCFC" d="M786.667 944.455C790.765 944.155 797.083 944.352 801.341 944.355C801.403 953.568 801.354 962.783 801.195 971.995C796.566 972.149 791.936 972.239 787.305 972.265L773.901 972.027C773.296 964.282 773.644 952.613 773.668 944.594L786.667 944.455Z"/><path fill="#FCFCFC" d="M165.635 1166.88C174.281 1166.51 184.496 1166.72 193.176 1166.92C193.085 1174.4 193.989 1187.51 192.917 1194.29C183.843 1194.4 174.767 1194.39 165.693 1194.25C165.366 1184.91 165.481 1176.24 165.635 1166.88Z"/><path fill="#FCFCFC" d="M773.721 111.381L801.298 111.399C801.373 120.641 801.488 129.758 801.208 138.997C792.108 139.095 783.008 139.115 773.907 139.057C773.268 130.132 773.571 120.35 773.721 111.381Z"/><path fill="#FCFCFC" d="M248.654 444.581L248.531 472.113C239.996 472.61 229.713 472.381 221.037 472.387C220.528 463.735 220.808 453.582 220.859 444.805L248.654 444.581Z"/><path fill="#FCFCFC" d="M746.16 194.92C755.334 194.743 764.41 195.071 773.641 194.778C773.682 200.325 774.093 217.586 773.315 222.31C764.223 222.636 755.123 222.639 746.031 222.318C745.912 215.013 745.469 201.753 746.16 194.92Z"/><path fill="#FCFCFC" d="M165.658 444.75L193.288 444.702C193.377 453.86 193.34 463.02 193.176 472.178C184.65 472.613 174.416 472.38 165.76 472.387C165.093 466.022 165.281 451.156 165.658 444.75Z"/><path fill="#FCFCFC" d="M690.741 1055.54L690.722 1083.17C681.544 1083.28 672.364 1083.27 663.186 1083.14C662.807 1074.64 663.069 1064.35 663.071 1055.71L690.741 1055.54Z"/><path fill="#FCFCFC" d="M580.284 473.777L581.096 472.774C588.162 472.112 600.335 472.508 607.777 472.569C607.591 481.807 607.562 491.047 607.688 500.286C598.52 500.2 589.352 500.176 580.184 500.213C580.04 492.097 579.673 481.818 580.284 473.777Z"/><path fill="#FCFCFC" d="M690.75 1028C699.077 1027.78 710.105 1027.42 718.376 1027.9C718.266 1037.01 718.21 1046.12 718.207 1055.23C709.906 1056.01 699.303 1055.25 690.741 1055.54C690.584 1046.36 690.587 1037.18 690.75 1028Z"/><path fill="#FCFCFC" d="M248.557 250.39C257.754 250.342 266.951 250.343 276.148 250.394L276.173 278.168C266.989 278.118 257.805 278.118 248.621 278.169C248.323 269.275 248.542 259.358 248.557 250.39Z"/><path fill="#FCFCFC" d="M884.014 1000.21L911.698 1000.21L911.663 1027.75C902.502 1027.8 893.341 1027.75 884.182 1027.58C883.792 1018.2 883.89 1009.62 884.014 1000.21Z"/><path fill="#FCFCFC" d="M55.1337 1000.09L82.6803 1000.02L82.6267 1027.85C74.1258 1027.52 64.1151 1027.74 55.486 1027.74C54.443 1024.57 55.0567 1004.27 55.1337 1000.09Z"/><path fill="#FCFCFC" d="M745.965 750.212C754.523 749.968 764.924 750.344 773.641 750.386C773.709 759.503 773.669 768.621 773.52 777.738C764.566 778.013 755.179 777.905 746.188 777.927C745.715 769.166 745.947 759.08 745.965 750.212Z"/><path fill="#FCFCFC" d="M772.585 83.5662L773.234 83.6606C774.286 85.4303 773.679 107.85 773.641 111.185C764.815 111.385 755.986 111.355 747.162 111.096C745.151 109.017 746.024 88.2982 746.076 83.6694C754.745 83.4963 763.835 83.6518 772.585 83.5662Z"/><path fill="#FCFCFC" d="M607.714 389.281C611.537 389.818 630.533 389.41 635.358 389.384C635.41 398.574 635.377 407.764 635.26 416.953C626.11 417.029 616.959 417.057 607.808 417.038C607.38 408.927 607.721 397.636 607.714 389.281Z"/><path fill="#FCFCFC" d="M82.7237 1027.95C91.6801 1027.93 101.422 1027.72 110.315 1027.98C110.344 1036.99 110.539 1046.64 110.272 1055.6C101.092 1055.46 91.9097 1055.42 82.7283 1055.48C82.7117 1046.38 82.5778 1037.02 82.7237 1027.95Z"/><path fill="#FCFCFC" d="M773.853 278.299L801.195 278.299C801.105 286.932 802.089 297.524 801.061 305.975C792.053 306.178 782.691 306.017 773.653 305.976C773.647 296.75 773.714 287.524 773.853 278.299Z"/><path fill="#FCFCFC" d="M370.144 361.566C373.635 361.07 382.746 361.332 386.664 361.344L386.664 389.114L375.649 389.114L359.123 389.114L359.123 361.572L370.144 361.566Z"/><path fill="#FCFCFC" d="M607.764 167.3C616.964 167.165 626.166 167.155 635.366 167.27C635.382 171.838 634.903 192.748 635.831 195.176C633.364 194.25 611.831 194.628 607.741 194.638C607.379 185.852 607.664 176.167 607.764 167.3Z"/><path fill="#FCFCFC" d="M386.868 111.484L414.484 111.39L414.393 139.073C405.23 139.09 396.068 139.042 386.906 138.93C386.499 129.903 386.752 120.547 386.868 111.484Z"/><path fill="#FCFCFC" d="M691.015 750.199L718.204 750.171C718.281 754.772 718.88 773.582 717.798 777.256L716.549 777.764C708.037 777.955 699.381 777.872 690.832 777.993C690.635 770.37 690.166 757.648 691.015 750.199Z"/><path fill="#FCFCFC" d="M607.655 778.103C616.712 777.925 626.171 778.099 635.26 778.142L635.26 805.709L607.858 805.686C607.139 797.701 607.541 786.205 607.655 778.103Z"/><path fill="#FCFCFC" d="M303.83 361.407C313.051 361.32 322.274 361.332 331.495 361.443L331.354 389.227C322.462 389.237 312.596 389.04 303.783 389.358L303.83 361.407Z"/><path fill="#FCFCFC" d="M497.137 167.133L524.777 167.105L524.693 194.669L497.178 194.78L497.137 167.133Z"/><path fill="#FCFCFC" d="M193.393 250.417C202.448 250.212 211.856 250.355 220.94 250.377L220.935 277.985C211.881 278.202 202.483 278.04 193.401 277.998C193.192 269.005 193.371 259.451 193.393 250.417Z"/><path fill="#FCFCFC" d="M861.669 195.019C868.444 194.59 876.921 194.814 883.85 194.827C883.949 200.699 884.513 216.554 883.616 221.716C882.232 222.718 879.187 222.504 877.28 222.552C870.505 222.632 863.318 222.452 856.512 222.389C856.291 218.032 855.787 199.226 856.888 195.893C858.855 194.611 858.856 195.068 861.669 195.019Z"/><path fill="#FCFCFC" d="M303.842 528.323C312.197 528.28 323.308 528.534 331.442 528.048L331.365 555.858C322.232 555.819 313.1 555.827 303.968 555.881C303.776 546.696 303.734 537.509 303.842 528.323Z"/><path fill="#FCFCFC" d="M55.1859 444.702C64.0219 444.473 73.7936 444.699 82.7018 444.718C82.7067 452.51 83.0762 464.648 82.4401 472.078C74.2026 472.695 63.4074 472.512 55.1725 472.219C54.9893 463.266 55.1726 453.703 55.1859 444.702Z"/><path fill="#FCFCFC" d="M690.761 250.384L718.219 250.394L718.199 278.028L690.764 278.086C690.398 269.073 690.659 259.458 690.761 250.384Z"/><path fill="#FCFCFC" d="M884.044 222.75C892.688 222.444 902.924 222.711 911.692 222.713L911.636 250.235C902.805 250.49 893.075 250.308 884.172 250.328C883.87 241.138 883.827 231.942 884.044 222.75Z"/><path fill="#FCFCFC" d="M82.7486 1138.96L110.424 1138.93L110.354 1166.63C101.238 1166.72 92.2695 1166.85 83.1564 1166.55C82.3322 1158.68 82.6918 1147.17 82.7486 1138.96Z"/><path fill="#FCFCFC" d="M220.824 666.913L248.602 666.896L248.495 694.389C239.344 694.593 230.189 694.594 221.038 694.391C220.629 685.395 220.794 675.957 220.824 666.913Z"/><path fill="#FCFCFC" d="M276.297 611.286C285.149 611.187 294.95 611.001 303.731 611.356C303.756 617.772 304.201 633.234 303.505 638.88C294.435 639.21 285.357 639.199 276.289 638.847L276.297 611.286Z"/><path fill="#FCFCFC" d="M690.797 472.483L718.163 472.512C718.293 481.671 718.539 491.043 718.249 500.18L690.738 500.271C690.59 490.785 690.523 481.958 690.797 472.483Z"/><path fill="#FCFCFC" d="M663.107 972.279C662.661 980.251 663.003 991.677 662.99 999.914C653.837 999.996 644.683 999.995 635.53 999.913C635.237 991.056 635.429 981.335 635.437 972.413C644.661 972.433 653.884 972.388 663.107 972.279Z"/><path fill="#FCFCFC" d="M414.435 306.133L441.998 306.037L442.071 333.6L414.535 333.761L414.435 306.133Z"/><path fill="#FCFCFC" d="M386.819 1000.21L414.477 1000.21L414.348 1027.7C405.182 1027.75 396.016 1027.74 386.85 1027.68C386.407 1019.08 386.667 1008.83 386.819 1000.21Z"/><path fill="#FCFCFC" d="M939.119 528.177L939.401 528.141C938.835 532.213 939.232 550.543 939.244 555.66L912.454 555.886C911.074 554.164 911.728 532.215 911.76 528.215L939.119 528.177Z"/><path fill="#FCFCFC" d="M165.635 222.844C174.721 222.6 184.077 223.034 193.176 222.536C193.172 227.602 193.687 246.166 192.726 250.113C184.361 250.555 174.24 250.315 165.741 250.315C165.247 241.485 165.535 231.763 165.635 222.844Z"/><path fill="#FCFCFC" d="M690.736 444.611C690.654 453.796 690.625 462.981 690.651 472.166C681.917 472.606 671.871 472.384 663.123 472.234C662.987 463.178 663.073 453.919 663.06 444.845C672.286 444.876 681.512 444.798 690.736 444.611Z"/><path fill="#FCFCFC" d="M40.8805 83.5805C45.7284 83.6153 50.1853 83.6056 55.0258 83.4103L55.0366 111.248L42.0959 111.316C37.4008 111.315 32.3493 111.411 27.6981 111.117C27.5908 101.94 27.5583 92.763 27.6006 83.5857L40.8805 83.5805Z"/><path fill="#FCFCFC" d="M358.995 83.6702C368.256 83.7869 377.518 83.8255 386.78 83.7863C386.889 92.9308 386.821 102.077 386.575 111.219L359.323 111.287C358.674 102.398 358.91 92.5992 358.995 83.6702Z"/><path fill="#FCFCFC" d="M524.548 916.199C527.446 917.393 547.154 916.493 552.421 916.966L552.285 944.226C543.239 944.621 533.906 944.462 524.829 944.415C524.678 936.548 525.337 923.517 524.548 916.199Z"/><path fill="#FCFCFC" d="M525.602 194.961C534.418 194.755 543.52 194.822 552.359 194.778C552.373 202.963 552.465 211.378 552.274 219.561C552.221 221.811 552.298 221.421 551.105 222.426C542.04 222.594 533.977 222.631 524.926 222.325C524.855 218.31 524.169 196.984 525.602 194.961Z"/><path fill="#FCFCFC" d="M276.175 583.491L276.091 611.109C266.457 611.314 258.315 611.381 248.651 611.088C248.428 602.123 248.581 592.585 248.576 583.576C257.033 583.635 267.795 583.929 276.175 583.491Z"/><path fill="#FCFCFC" d="M497.178 194.78C496.647 201.931 497.058 214.855 497.056 222.44C488.295 222.699 478.434 222.428 469.592 222.373C469.418 213.376 469.547 203.963 469.535 194.932C478.523 194.655 488.065 194.917 497.178 194.78Z"/><path fill="#FCFCFC" d="M856.513 972.348L884.015 972.368L884.054 999.94L856.516 999.96L856.513 972.348Z"/><path fill="#FCFCFC" d="M249.017 83.6826C257.326 83.7155 267.962 83.9247 276.162 83.4439C276.163 92.3056 275.906 102.605 276.233 111.347C267.183 111.27 257.701 111.4 248.717 111.161C248.644 106.694 248.077 86.6573 249.017 83.6826Z"/><path fill="#FCFCFC" d="M867.792 1083.47C872.499 1083.25 879.128 1083.55 883.973 1083.62C884.054 1092.23 884.333 1102.37 883.874 1110.85C880.016 1110.95 876.092 1110.97 872.228 1111.02C866.948 1111.02 861.668 1110.96 856.39 1110.85C856.157 1102.07 856.396 1092.4 856.384 1083.51L867.792 1083.47Z"/><path fill="#FCFCFC" d="M331.569 666.921C340.657 666.842 349.746 666.818 358.834 666.847C359.045 676.08 359.08 685.316 358.939 694.55C349.626 694.64 340.866 694.713 331.569 694.343L331.569 666.921Z"/><path fill="#FCFCFC" d="M729.111 444.84C732.562 444.346 740.592 445.06 745.891 444.487C745.765 453.64 745.916 463.128 745.939 472.308L736.296 472.387C730.311 472.46 724.325 472.395 718.342 472.194L718.283 444.845L729.111 444.84Z"/><path fill="#FCFCFC" d="M276.171 194.735C276.072 203.968 276.059 213.201 276.133 222.434C266.987 222.616 257.837 222.566 248.693 222.284C248.518 213.357 248.654 204.116 248.675 195.164C255.379 194.45 268.75 194.824 276.171 194.735Z"/><path fill="#FCFCFC" d="M111.074 444.759L137.953 444.729C138 452.948 138.108 461.721 137.845 469.959C137.792 471.633 137.564 471.456 136.57 472.188C127.858 472.536 119.135 472.54 110.423 472.199C110.375 468.495 109.652 446.868 111.074 444.759Z"/><path fill="#FCFCFC" d="M663.143 1000.08C672.323 1000.07 681.504 1000.11 690.684 1000.21L690.63 1027.75L663.237 1027.75C663.033 1018.53 663.002 1009.3 663.143 1000.08Z"/><path fill="#FCFCFC" d="M663.015 333.812L690.727 333.83L690.701 361.279L663.134 361.268L663.015 333.812Z"/><path fill="#FCFCFC" d="M359.13 861.259L386.664 861.213L386.625 888.93L359.187 888.986C358.911 880.16 359.135 870.176 359.13 861.259Z"/><path fill="#FCFCFC" d="M856.364 83.8288C865.484 83.6344 874.799 83.6483 883.936 83.5643C884.01 87.6939 884.702 108.207 883.423 111.066C874.762 111.318 865.058 111.53 856.395 111.093C856.482 102.005 856.472 92.9166 856.364 83.8288Z"/><path fill="#FCFCFC" d="M718.294 222.855C727.387 222.551 736.765 222.618 745.886 222.579C745.958 229.145 746.398 243.916 745.623 249.975C738.424 250.684 726.012 250.321 718.362 250.293L718.294 222.855Z"/><path fill="#FCFCFC" d="M165.654 111.407L193.274 111.436L193.176 139.03L165.726 139.095C165.462 129.868 165.438 120.635 165.654 111.407Z"/><path fill="#FCFCFC" d="M248.694 639.151C257.853 638.993 267.015 639.01 276.174 639.203C276.164 647.943 275.884 658.179 276.181 666.79L248.688 666.691C248.525 657.512 248.527 648.33 248.694 639.151Z"/><path fill="#FCFCFC" d="M82.7888 972.349L110.396 972.357L110.265 999.864C101.07 999.976 91.8754 1000.03 82.6803 1000.02C82.6943 990.874 82.6002 981.477 82.7888 972.349Z"/><path fill="#FCFCFC" d="M414.364 972.263C423.395 972.303 433.093 972.522 442.071 972.311L441.989 999.905C432.823 999.992 423.656 999.999 414.489 999.925L414.364 972.263Z"/><path fill="#FCFCFC" d="M359.123 139.305L386.664 139.305L386.664 166.847L359.123 166.847L359.123 139.305Z"/><path fill="#FCFCFC" d="M773.775 1055.68L801.356 1055.6C801.357 1064.57 801.303 1073.54 801.195 1082.51C799.219 1083.86 777.471 1083.26 773.922 1083.22C773.148 1074.97 773.616 1064.07 773.775 1055.68Z"/><path fill="#FCFCFC" d="M884.109 1166.75L911.694 1166.75L911.656 1194.17C902.864 1194.38 892.969 1194.44 884.229 1194.1C883.742 1184.87 883.872 1175.97 884.109 1166.75Z"/><path fill="#FCFCFC" d="M303.802 194.786L331.397 194.803C331.394 203.84 331.55 213.46 331.281 222.448C322.325 222.436 312.776 222.588 303.869 222.343L303.802 194.786Z"/><path fill="#FCFCFC" d="M552.322 1055.67C561.384 1055.49 570.907 1055.64 580.006 1055.63C580.238 1064.4 579.96 1074.26 579.905 1083.11C570.738 1083.25 561.569 1083.28 552.401 1083.19L552.322 1055.67Z"/><path fill="#FCFCFC" d="M565.313 444.839C569.506 444.504 575.541 444.657 579.871 444.638C580.003 453.811 580.035 462.985 579.965 472.158L567.147 472.387C562.302 472.373 557.456 472.321 552.611 472.23C552.483 463.102 552.406 453.974 552.38 444.845L565.313 444.839Z"/><path fill="#FCFCFC" d="M220.902 167.231L248.583 167.174L248.538 194.775C239.801 194.466 229.861 194.673 221.031 194.653C220.621 185.609 220.819 176.304 220.902 167.231Z"/><path fill="#FCFCFC" d="M303.896 139.197L331.351 139.242C331.468 148.499 331.45 157.758 331.297 167.014L303.962 167.003C303.746 157.736 303.724 148.465 303.896 139.197Z"/><path fill="#FCFCFC" d="M331.473 167.144C340.601 167.049 349.73 167.101 358.856 167.299C358.99 176.43 359.027 185.562 358.969 194.693C349.987 194.817 340.703 194.679 331.697 194.661C331.158 185.901 331.409 176.014 331.473 167.144Z"/><path fill="#FCFCFC" d="M210.333 1083.47C213.518 1083.3 217.662 1083.38 220.925 1083.34C220.836 1092.51 220.944 1101.84 220.956 1111.02L203.132 1111.02L193.381 1110.9C193.146 1102.05 193.326 1092.39 193.314 1083.48L210.333 1083.47Z"/><path fill="#FCFCFC" d="M663.06 778.242C672.248 778.115 681.437 778.117 690.625 778.248C690.652 787.05 690.868 796.634 690.628 805.374C681.064 805.902 672.329 805.478 663.033 805.757C663.306 796.778 663.109 787.264 663.06 778.242Z"/><path fill="#FCFCFC" d="M165.635 555.957L193.176 555.843L193.144 583.421L165.663 583.443L165.635 555.957Z"/><path fill="#FCFCFC" d="M414.535 333.761C414.418 342.931 414.367 352.101 414.383 361.272L386.882 361.253C386.517 352.129 386.722 342.915 386.831 333.777L414.535 333.761Z"/><path fill="#FCFCFC" d="M580.242 194.851C589.338 194.771 598.434 194.762 607.531 194.824C607.528 199.684 608.406 219.636 606.672 222.297C597.838 222.489 589 222.504 580.165 222.341C580.128 215.169 579.581 201.333 580.242 194.851Z"/><path fill="#FCFCFC" d="M248.559 306.018L276.247 306.16C276.142 315.226 275.908 324.644 276.206 333.672C267.046 333.416 257.882 333.814 248.737 333.631C248.508 324.429 248.449 315.223 248.559 306.018Z"/><path fill="#FCFCFC" d="M193.398 528.409C202.39 528.21 212.005 528.619 220.909 528.118C220.94 531.682 221.475 553.724 220.217 555.751C215.191 555.755 197.365 556.625 194.412 555.412C191.872 552.596 193.356 533.027 193.398 528.409Z"/><path fill="#FCFCFC" d="M966.99 528.214C976.008 528.06 985.433 528.257 994.482 528.32C994.548 537.433 994.493 546.547 994.315 555.659C985.246 555.853 976.173 555.848 967.103 555.644C966.692 546.607 966.905 537.285 966.99 528.214Z"/><path fill="#FCFCFC" d="M303.793 722.459C303.748 731.649 303.779 740.839 303.884 750.028C295.182 750.051 284.74 749.789 276.191 750.127C276.312 740.907 276.319 731.685 276.212 722.464C285.405 722.577 294.599 722.576 303.793 722.459Z"/><path fill="#FCFCFC" d="M856.398 472.575L884.001 472.6C884.03 481.627 883.883 491.262 884.107 500.236L856.583 500.217C856.215 490.747 856.684 481.713 856.398 472.575Z"/><path fill="#FCFCFC" d="M939.303 555.917C948.406 555.646 957.73 555.846 966.855 555.939L966.809 583.456L939.354 583.545L939.303 555.917Z"/><path fill="#FCFCFC" d="M718.243 1055.62L745.87 1055.64L745.986 1083.26C737.257 1083.24 726.85 1082.94 718.265 1083.24C718.389 1074.03 718.382 1064.82 718.243 1055.62Z"/><path fill="#FCFCFC" d="M303.823 639.148C313.012 639.047 322.202 639.055 331.391 639.173C331.462 648.353 331.435 657.534 331.31 666.714L304.025 666.74C303.838 657.544 303.771 648.346 303.823 639.148Z"/><path fill="#FCFCFC" d="M442.061 889.194C451.223 889.085 460.386 889.067 469.548 889.14L469.568 916.631C460.509 916.682 451.063 916.868 442.036 916.695C441.975 907.528 441.983 898.361 442.061 889.194Z"/><path fill="#FCFCFC" d="M524.809 139.305L552.337 139.305C552.376 148.432 552.547 157.941 552.289 167.034C543.705 167.039 533.199 166.75 524.777 167.105L524.809 139.305Z"/><path fill="#FCFCFC" d="M119.556 1000.2C125.331 999.756 131.859 1000.21 137.822 1000C138.057 1009.05 137.904 1018.66 137.909 1027.75L128.278 1027.75L110.61 1027.69C110.23 1018.6 110.374 1009.32 110.419 1000.21L119.556 1000.2Z"/><path fill="#FCFCFC" d="M110.272 1055.6L137.976 1055.62L137.95 1083.15C128.795 1083.22 119.639 1083.22 110.483 1083.17C110.229 1073.98 110.159 1064.79 110.272 1055.6Z"/><path fill="#FCFCFC" d="M845.449 1000.2L856.24 1000.21L856.241 1027.82L842.072 1027.72C837.677 1027.76 833.282 1027.72 828.889 1027.6C828.502 1019.17 828.768 1008.78 828.761 1000.21L845.449 1000.2Z"/><path fill="#FCFCFC" d="M386.749 889.157C395.954 889.076 405.16 889.059 414.366 889.107L414.473 916.699L386.708 916.621L386.749 889.157Z"/><path fill="#FCFCFC" d="M663.091 889.102L690.665 889.071L690.716 916.637L663.177 916.535C663.109 907.496 662.916 898.11 663.091 889.102Z"/><path fill="#FCFCFC" d="M303.797 306.085L331.484 306.098L331.357 333.525C322.189 333.692 313.019 333.716 303.85 333.595L303.797 306.085Z"/><path fill="#FCFCFC" d="M276.181 666.79L303.84 666.849L303.749 694.39C294.662 694.562 285.571 694.549 276.484 694.351C275.866 686.577 276.262 675.005 276.181 666.79Z"/><path fill="#FCFCFC" d="M856.366 250.38C865.48 250.221 874.911 250.359 884.05 250.377L883.984 278.001C875.006 278.281 865.504 278.153 856.484 278.169L856.366 250.38Z"/><path fill="#FCFCFC" d="M248.672 694.909C257.822 694.742 266.974 694.661 276.126 694.666C276.126 703.297 275.826 714.005 276.212 722.464L248.738 722.298C248.532 713.17 248.51 704.038 248.672 694.909Z"/><path fill="#FCFCFC" d="M580.165 805.855C589.22 805.692 598.549 805.83 607.626 805.859L607.589 833.271C598.292 833.408 589.452 833.529 580.165 833.245L580.165 805.855Z"/><path fill="#FCFCFC" d="M413.684 222.57C415.09 224.464 414.29 246.244 414.218 250.12L387.659 250.12C385.85 246.987 386.68 227.589 386.744 222.776C395.725 222.863 404.706 222.795 413.684 222.57Z"/><path fill="#FCFCFC" d="M497.126 222.849C506.122 222.569 515.677 222.708 524.717 222.699L524.692 250.259L497.299 250.284C497.081 241.239 497.157 231.917 497.126 222.849Z"/><path fill="#FCFCFC" d="M143.748 195.012C148.457 194.407 160.523 194.775 165.674 194.811C165.411 201.306 166.12 216.044 165.124 221.571C163.572 222.733 163.563 222.323 161.189 222.373C153.535 222.439 145.777 222.351 138.115 222.326C138.049 216.152 137.547 201.354 138.321 195.898C140.406 194.605 140.844 195.077 143.748 195.012Z"/><path fill="#FCFCFC" d="M663.074 555.948C672.282 555.874 681.49 555.849 690.698 555.873L690.7 583.419L663.069 583.417L663.074 555.948Z"/><path fill="#FCFCFC" d="M580.115 972.382L607.722 972.447C607.418 978.155 608.18 995.843 607.36 999.877C598.31 999.978 589.259 999.992 580.209 999.918C579.92 991.257 579.825 981.047 580.115 972.382Z"/><path fill="#FCFCFC" d="M138.081 417.144C147.329 417.042 156.578 417.025 165.827 417.092C165.232 424.24 165.55 436.815 165.506 444.369C161.981 445.014 142.672 444.536 138.175 444.481C137.926 435.647 138.095 426.038 138.081 417.144Z"/><path fill="#FCFCFC" d="M552.342 1166.79L580.018 1166.77C580.22 1175.75 579.993 1185.15 579.902 1194.16C570.928 1194.44 561.445 1194.27 552.43 1194.24L552.342 1166.79Z"/><path fill="#FCFCFC" d="M181.711 944.481C184.248 944.268 190.372 944.475 193.176 944.486L193.176 972.028C188.29 972.009 183.825 972.047 178.946 972.259L165.721 972.318C165.293 964.202 165.64 952.848 165.635 944.482L181.711 944.481Z"/><path fill="#FCFCFC" d="M276.143 167.134C285.337 167.223 294.532 167.264 303.727 167.258C303.743 176.221 303.571 185.884 303.802 194.786C295.793 194.434 284.209 194.605 276.171 194.735C276.33 185.536 276.321 176.334 276.143 167.134Z"/><path fill="#FCFCFC" d="M165.635 722.51L193.176 722.51L193.176 749.999C184.005 750.088 174.834 750.097 165.664 750.025L165.635 722.51Z"/><path fill="#FCFCFC" d="M303.983 861.213L331.353 861.245C331.434 867.67 331.907 883.081 331.12 889.002L303.901 888.95C303.637 879.706 303.664 870.455 303.983 861.213Z"/><path fill="#FCFCFC" d="M138.081 1139.07C147.231 1138.86 156.384 1138.81 165.536 1138.92C165.376 1146.65 166.22 1159.23 165.129 1166.5C156.129 1166.89 147.118 1166.95 138.113 1166.69L138.081 1139.07Z"/><path fill="#FCFCFC" d="M911.765 472.656C920.386 472.612 930.719 472.845 939.189 472.49L939.22 500.174L911.767 500.279L911.765 472.656Z"/><path fill="#FCFCFC" d="M690.992 306.109C700.091 306.049 709.191 306.043 718.29 306.093L718.279 333.667L690.82 333.612C690.699 324.012 690.814 315.654 690.992 306.109Z"/><path fill="#FCFCFC" d="M718.546 500.288L745.892 500.292C745.902 505.169 746.39 522.397 745.278 525.954L740.337 529.473C740.058 529.439 739.356 529.37 738.981 529.25C733.585 527.523 724.571 528.092 718.546 528.107L718.546 500.288Z"/><path fill="#FCFCFC" d="M801.402 28.1801C810.412 28.0745 819.693 27.8466 828.674 28.1631L828.564 55.6552L801.415 55.7751C801.208 46.578 801.204 37.3774 801.402 28.1801Z"/><path fill="#FCFCFC" d="M137.968 528.346C146.893 528.492 156.526 528.189 165.501 528.065C165.602 534.283 166.067 549.925 165.102 555.66L138.144 555.863C137.725 547.462 137.988 536.91 137.968 528.346Z"/><path fill="#FCFCFC" d="M635.294 417.194C644.479 416.977 653.941 417.051 663.149 417.017C662.894 425.978 662.976 435.432 662.911 444.432C653.756 444.58 644.6 444.613 635.445 444.53L635.294 417.194Z"/><path fill="#FCFCFC" d="M585.217 417.222C592.528 416.861 600.412 417.061 607.772 417.107C607.361 425.486 608.113 435.45 607.276 443.616C606.119 444.799 606.13 444.388 603.885 444.467C596.013 444.575 588.139 444.57 580.266 444.452C580.031 438.961 579.496 422.722 580.396 418.057C581.807 416.952 583.327 417.232 585.217 417.222Z"/><path fill="#FCFCFC" d="M193.31 694.84C202.352 694.696 211.664 694.792 220.73 694.772C220.716 703.639 220.508 713.486 221.055 722.243C211.808 722.545 202.553 722.494 193.31 722.091C193.38 713.007 193.38 703.923 193.31 694.84Z"/><path fill="#FCFCFC" d="M635.463 306.159C644.323 305.937 653.899 306.129 662.814 306.143C662.845 312.802 663.266 327.161 662.558 333.234C654.031 333.942 644.113 333.694 635.44 333.666C635.21 324.579 635.386 315.268 635.463 306.159Z"/><path fill="#FCFCFC" d="M635.33 805.863C644.564 805.772 653.798 805.736 663.033 805.757C662.422 810.098 662.795 827.873 662.814 833.287L635.47 833.454C634.905 826.885 635.337 812.941 635.33 805.863Z"/><path fill="#FCFCFC" d="M138.057 583.653L165.545 583.574C165.263 590.738 166.262 604.633 165.164 611.099C156.149 611.332 147.13 611.34 138.115 611.123C138.03 601.967 138.01 592.81 138.057 583.653Z"/><path fill="#FCFCFC" d="M110.371 333.805L137.865 333.804C137.918 342.961 137.913 352.118 137.851 361.275C128.836 361.402 119.464 361.251 110.42 361.232C110.191 352.298 110.359 342.783 110.371 333.805Z"/><path fill="#FCFCFC" d="M220.948 333.791L248.573 333.795C248.576 342.721 248.376 352.472 248.613 361.326L220.971 361.292C220.811 352.126 220.803 342.958 220.948 333.791Z"/><path fill="#FCFCFC" d="M276.287 222.861C285.448 222.764 294.611 222.732 303.773 222.764C303.775 231.806 303.637 241.249 303.841 250.257C294.966 250.268 285.04 250.511 276.257 250.27L276.287 222.861Z"/><path fill="#FCFCFC" d="M812.072 583.833C816.439 583.359 824.12 583.559 828.741 583.543C828.623 592.743 828.605 601.945 828.687 611.146L816.657 611.38C811.597 611.381 806.381 611.234 801.308 611.158L801.332 583.839L812.072 583.833Z"/><path fill="#FCFCFC" d="M801.415 55.7751L801.305 83.2845L773.744 83.4053C773.455 74.2221 773.481 65.0317 773.822 55.8502L801.415 55.7751Z"/><path fill="#FCFCFC" d="M110.426 167.241C119.582 167.083 128.74 167.102 137.896 167.296C138.08 176.187 137.878 185.74 137.852 194.682L110.57 194.675C110.047 186.131 110.35 175.938 110.426 167.241Z"/><path fill="#FCFCFC" d="M828.761 167.248L856.306 167.204C856.325 173.336 856.669 189.172 855.854 194.677C846.953 194.819 837.747 194.675 828.822 194.646C828.561 185.63 828.718 176.296 828.761 167.248Z"/><path fill="#FCFCFC" d="M208.634 83.5764L220.911 83.5147C220.642 92.3499 220.876 102.286 220.889 111.205L207.069 111.323L193.385 111.224L193.363 83.6956C198.454 83.7417 203.545 83.702 208.634 83.5764Z"/><path fill="#FCFCFC" d="M331.448 333.81L358.942 333.65L358.889 361.194C349.81 361.437 340.726 361.452 331.646 361.239C331.215 352.33 331.41 342.785 331.448 333.81Z"/><path fill="#FCFCFC" d="M801.349 250.418C810.34 250.23 819.693 250.347 828.713 250.338C828.855 259.42 828.699 268.923 828.69 278.04C819.572 278.199 810.452 278.202 801.334 278.047L801.349 250.418Z"/><path fill="#FCFCFC" d="M663.025 222.778L690.674 222.699C690.696 229.933 691.12 243.245 690.451 249.949C685.719 250.658 668.469 250.388 663.179 250.158C663.026 241.081 663.066 231.867 663.025 222.778Z"/><path fill="#FCFCFC" d="M497.195 55.9886C506.154 55.7104 515.696 55.8423 524.7 55.8233L524.709 83.2066C515.561 83.418 506.41 83.4268 497.261 83.2331C497.123 74.1523 497.101 65.07 497.195 55.9886Z"/><path fill="#FCFCFC" d="M331.486 389.415L358.89 389.35L358.923 416.95L331.783 416.943C331.27 407.682 331.39 398.681 331.486 389.415Z"/><path fill="#FCFCFC" d="M856.562 417.198C864.345 417.523 875.953 417.082 884.028 417.094L884.012 444.445L856.521 444.564C856.097 435.944 856.331 425.835 856.562 417.198Z"/><path fill="#FCFCFC" d="M580.325 1194.41C589.412 1194.37 598.5 1194.38 607.587 1194.44C607.649 1203.63 607.657 1212.82 607.61 1222.01L580.165 1221.99C580.218 1214.75 579.536 1201.05 580.325 1194.41Z"/><path fill="#FCFCFC" d="M746.099 472.608C754.948 472.332 764.724 472.559 773.641 472.594L773.65 500.171C764.467 500.289 755.283 500.295 746.099 500.188L746.099 472.608Z"/><path fill="#FCFCFC" d="M276.206 333.672C285.414 333.828 294.625 333.835 303.834 333.692L303.835 361.176C294.628 361.292 285.421 361.334 276.213 361.301C276.311 352.092 276.309 342.882 276.206 333.672Z"/><path fill="#FCFCFC" d="M718.546 278.299L745.844 278.299L745.876 305.84L718.546 305.84L718.546 278.299Z"/><path fill="#FCFCFC" d="M580.165 1027.97C589.11 1027.75 598.575 1027.96 607.562 1028.02C607.578 1036.9 607.745 1046.35 607.402 1055.17C598.797 1055.76 588.942 1055.51 580.331 1055.27C579.921 1046.84 580.173 1036.54 580.165 1027.97Z"/><path fill="#FCFCFC" d="M138.081 694.933C147.102 694.553 156.555 694.689 165.622 694.696C165.62 703.921 165.565 713.146 165.457 722.37C156.331 722.446 147.205 722.387 138.081 722.191L138.081 694.933Z"/><path fill="#FCFCFC" d="M138.081 306.099L165.633 306.051C165.292 315.118 165.777 324.353 165.389 333.654C156.286 333.698 147.183 333.658 138.081 333.533L138.081 306.099Z"/><path fill="#FCFCFC" d="M358.179 222.669C359.466 224.949 358.914 245.773 358.895 250.12L331.812 250.12C330.945 245.313 331.409 228.228 331.472 222.71C340.375 222.759 349.277 222.745 358.179 222.669Z"/><path fill="#FCFCFC" d="M828.761 55.8359L856.305 55.8377L856.169 83.3337C847.037 83.4044 837.905 83.3926 828.773 83.2981C828.503 74.3222 828.702 64.856 828.761 55.8359Z"/><path fill="#FCFCFC" d="M773.769 222.808L801.195 222.663C801.235 228.466 801.647 244.915 800.881 249.954C792.249 250.57 782.638 250.301 773.902 250.243C773.522 241.247 773.711 231.847 773.769 222.808Z"/><path fill="#FCFCFC" d="M304.015 694.876C313.086 694.53 322.347 694.637 331.44 694.653L331.321 722.193C322.146 722.362 312.97 722.451 303.793 722.459L304.015 694.876Z"/><path fill="#FCFCFC" d="M110.637 389.394L137.837 389.44C138.142 398.106 137.885 408.154 137.87 416.925L110.502 416.948C110.293 408.631 110.01 397.566 110.637 389.394Z"/><path fill="#FCFCFC" d="M138.081 639.15C147.253 639.016 156.426 639.028 165.598 639.186C165.363 648.096 165.503 657.71 165.388 666.713C156.286 666.789 147.183 666.802 138.081 666.751L138.081 639.15Z"/><path fill="#FCFCFC" d="M690.675 417.025C699.887 417.165 709.03 417.032 718.222 417.098L718.216 444.459C709.97 444.482 698.73 444.163 690.736 444.611L690.675 417.025Z"/><path fill="#FCFCFC" d="M801.328 472.576L828.764 472.623C828.356 480.873 828.698 491.753 828.72 500.2C819.614 500.255 810.507 500.259 801.401 500.212C801.27 491.001 801.246 481.788 801.328 472.576Z"/><path fill="#FCFCFC" d="M193.335 805.868C202.537 805.807 211.74 805.796 220.942 805.835L220.73 833.28C211.605 833.35 202.481 833.343 193.356 833.259L193.335 805.868Z"/><path fill="#FCFCFC" d="M303.809 805.844C312.906 805.683 322.3 805.804 331.421 805.807L331.306 833.249C322.15 833.319 312.995 833.325 303.839 833.269L303.809 805.844Z"/><path fill="#FCFCFC" d="M801.139 83.8002C810.365 83.677 819.592 83.6055 828.819 83.5857C828.492 92.5529 828.66 102.279 828.741 111.26L801.41 111.236C801.44 102.09 801.35 92.9439 801.139 83.8002Z"/><path fill="#FCFCFC" d="M773.677 1166.83L801.195 1166.79L801.195 1194.13C792.637 1194.51 782.537 1194.28 773.866 1194.29C773.347 1186.2 773.666 1175.15 773.677 1166.83Z"/><path fill="#FCFCFC" d="M801.349 972.405C810.374 972.241 819.692 972.349 828.741 972.342L828.732 999.875C819.781 1000.08 810.472 999.92 801.491 999.883C801.357 990.725 801.309 981.565 801.349 972.405Z"/><path fill="#FCFCFC" d="M580.165 1083.48C589.329 1083.46 598.493 1083.5 607.656 1083.61L607.564 1110.85C598.701 1111.22 589.1 1110.93 580.165 1110.81L580.165 1083.48Z"/><path fill="#FCFCFC" d="M552.611 389.492C561.637 389.285 570.937 389.383 579.986 389.376C580.388 397.645 579.991 408.467 579.886 416.951L552.32 416.936C552.161 408.061 552.536 398.465 552.611 389.492Z"/><path fill="#FCFCFC" d="M746.099 583.771C754.719 583.374 764.905 583.601 773.641 583.588L773.641 611.057C764.462 611.247 755.28 611.273 746.099 611.136L746.099 583.771Z"/><path fill="#FCFCFC" d="M801.36 916.932L828.641 916.932L828.748 944.225C819.746 944.575 810.342 944.333 801.332 944.166L801.36 916.932Z"/><path fill="#FCFCFC" d="M110.527 555.989C119.673 555.861 128.82 555.847 137.967 555.945L137.968 583.417C129.333 583.516 118.991 583.799 110.527 583.06L110.527 555.989Z"/><path fill="#FCFCFC" d="M331.569 889.178C340.683 889.05 349.798 889.036 358.912 889.136L359.002 916.593C349.858 916.732 340.713 916.754 331.569 916.66L331.569 889.178Z"/><path fill="#FCFCFC" d="M801.311 694.79L828.789 694.666C828.58 702.211 829.268 715.072 828.245 722.207L801.451 722.207C801.185 713.35 801.341 703.708 801.311 694.79Z"/><path fill="#FCFCFC" d="M414.496 639.034C420.622 639.105 426.749 639.058 432.873 638.892L442.395 652.172C441.613 656.636 441.862 662.069 441.911 666.68C432.802 666.749 423.692 666.771 414.583 666.744C414.376 657.656 414.503 648.155 414.496 639.034Z"/><path fill="#FCFCFC" d="M386.845 500.311L394.167 500.093C394.081 503.084 393.474 513.496 394.64 515.401L395.057 527.867L386.779 527.731L386.845 500.311Z"/></svg>