<?xml version="1.0" encoding="utf-8" ?><svg xmlns="http://www.w3.org/2000/svg" xmlns:xlink="http://www.w3.org/1999/xlink" width="1254" height="1254" viewBox="0 0 1254 1254"><path fill="#FCFCFB" d="M0 0L1254 0L1254 1254L0 1254L0 0Z"/><path fill="#042C56" d="M427.77 308.856C430.1 308.47 436.584 308.463 439.201 308.448L712.412 308.437L783.069 308.425C800.569 308.397 824.321 307.439 840.756 310.719C864.018 315.482 885.363 326.984 902.134 343.792C920.817 362.414 934.562 390.127 937.112 416.415C938.575 431.489 937.885 449.211 937.945 464.548L937.899 616.891C937.81 641.94 939.708 684.88 934.417 707.486C929.2 729.034 918.162 748.733 902.508 764.432C882.912 784.151 857.009 796.354 829.327 798.908C818.032 799.934 802.703 799.524 791.138 799.514L734.283 799.483L642.556 799.488C634.52 804.412 618.732 816.91 610.446 823.09L549.168 868.713C539.836 875.665 530.334 883.381 520.56 889.47C508.725 896.843 492.076 891.386 490.093 876.606C488.804 866.996 489.216 857.778 489.222 848.159C489.294 832.205 489.273 816.25 489.162 800.297C439.556 799.717 399.983 807.053 358.728 772.146C333.518 751.068 317.932 720.67 315.53 687.897C314.533 675.797 315.1 656.222 315.111 643.546L315.18 563.658L315.112 470.432C315.111 451.446 314.069 424.801 317.49 406.749C321.526 386.083 330.765 366.787 344.333 350.686C365.748 325.569 395.058 311.483 427.77 308.856Z"/><path fill="#FCFCFB" d="M434.326 333.366L438.46 333.345L704.467 333.422L785.102 333.34C799.218 333.34 822.916 332.597 835.733 335.016C854.383 338.561 871.524 347.669 884.9 361.141C908.115 384.413 913.717 409.071 913.76 440.499L913.755 607.539L913.747 656.674C913.715 670.768 914.408 686.276 911.346 699.933C907.255 717.915 898.1 734.35 884.963 747.293C855.599 776.492 828.589 775.085 791.039 775.036L736.756 774.959L677.544 774.908C664.796 774.871 648.935 774.129 636.652 776.016C627.924 779.031 616.973 787.807 610.016 793.136C577.866 817.761 544.302 841.076 512.55 866.094C512.367 850.944 512.96 835.474 512.602 820.46C512.274 806.733 516.078 786.12 501.393 778.954C492.177 774.456 483.284 775.968 473.552 775.696C455.714 775.197 436.599 777.119 419.048 774.247C402.006 771.313 386.099 763.748 373.069 752.378C353.042 734.876 340.878 710.069 339.304 683.519C338.395 668.34 339.154 645.775 339.153 629.793L339.175 523.592L339.171 459.821C339.135 446.422 338.401 425.909 340.682 413.513C343.941 395.709 351.978 379.126 363.933 365.537C383.12 344.087 406.044 334.922 434.326 333.366Z"/><path fill="#042C56" d="M626.675 463.302C628.709 461.35 630.823 459.482 633.01 457.702C649.35 444.314 671.986 437.248 693.038 439.516C713.892 441.739 732.967 452.281 745.945 468.755C760.029 486.368 764.955 507.384 762.933 529.738C758.896 574.386 712.995 616.314 678.952 643.012C670.393 649.978 637.104 676.052 627.776 676.603C615.291 677.34 574.303 643.309 563.513 634.38C531.078 607.539 493.833 572.141 489.858 527.887C487.675 505.896 494.411 483.949 508.556 466.971C523.308 449.525 541.325 441.233 563.872 439.28L564.698 439.204C588.812 437.23 609.072 448.197 626.675 463.302Z"/><path fill="#FCFCFB" d="M563.624 463.733C579.616 461.649 596.363 468.572 608.087 479.306C613.109 483.523 623.837 500.769 632.032 492.411C648.065 476.058 661.399 462.465 686.79 463.473C701.653 464.003 715.67 470.517 725.659 481.536C729.058 485.245 731.42 488.901 733.593 493.412C756.731 541.465 711.656 582.477 680.043 610.897C663.118 625.409 645.272 638.812 626.618 651.022C615.686 643.903 605.027 636.372 594.666 628.444C565.004 605.803 518.663 567.027 513.55 527.901C509.266 495.126 530.409 467.77 563.624 463.733Z"/></svg>