<?xml version="1.0" encoding="utf-8" ?><svg xmlns="http://www.w3.org/2000/svg" xmlns:xlink="http://www.w3.org/1999/xlink" width="1254" height="1254" viewBox="0 0 1254 1254"><path fill="#FDFDFC" d="M0 0L27.8408 0L55.2868 0L247.048 0L274.347 0L301.924 0L329.634 0L356.837 0L384.473 0L466.608 0L796.908 0L824.418 0L851.795 0L879.445 0L906.827 0L989.392 0L1016.49 0L1044.04 0L1071.57 0L1098.95 0L1126.58 0L1153.89 0L1237.55 0L1254 0L1254 27.866L1254 55.9972L1254 82.9734L1254 1254L1208.86 1254L1181.72 1254L1153.89 1254L1126.61 1254L1043.97 1254L1016.88 1254L989.061 1254L961.989 1254L934.381 1254L906.837 1254L879.27 1254L851.805 1254L824.199 1254L796.693 1254L714.257 1254L687.006 1254L659.14 1254L631.756 1254L604.256 1254L576.866 1254L439.444 1254L412.038 1254L329.388 1254L302.018 1254L274.293 1254L246.86 1254L219.197 1254L191.78 1254L164.41 1254L137.055 1254L109.635 1254L82.1667 1254L0 1254L0 110.555L0 83.56L0 55.4197L0 28.4403L0 0Z"/><path fill="#FAF9F9" d="M796.908 0L824.418 0L851.795 0L879.445 0L906.827 0L989.392 0L1016.49 0L1044.04 0L1071.57 0L1098.95 0L1126.58 0L1153.89 0C1153.9 5.5883 1155.11 23.9122 1152.55 27.097C1149.71 28.301 1131.19 27.876 1126.51 27.9953C1126.28 34.1553 1127.59 51.546 1124.59 54.6975C1121.35 55.9339 1103.96 55.3913 1098.94 55.5634C1098.77 61.2291 1098.37 78.0747 1099.08 83.2772C1094.23 82.5823 1076.66 82.9221 1071.43 83.1579C1070.9 91.2003 1071.22 102.275 1071.23 110.544L1044.27 110.54C1044.38 101.413 1044.33 92.2858 1044.14 83.1606C1036.18 82.6277 1024.94 82.961 1016.73 82.9734L1016.73 55.4197L989.184 55.4197L989.184 82.9734C980.134 82.879 971.083 82.918 962.035 83.0904C955.189 83.6401 941.682 83.227 934.336 83.2357L934.416 111.14L906.804 110.901C906.704 120.224 906.695 129.546 906.776 138.869C897.76 138.716 888.428 138.893 879.386 138.953L879.489 110.956C888.613 111.125 897.739 111.126 906.863 110.959C906.814 101.712 906.829 92.4653 906.907 83.2189L879.264 83.2518L879.359 110.996C870.137 110.938 860.915 110.986 851.694 111.139L851.654 138.817C843.086 138.909 834.518 138.845 825.953 138.628C832.8 138.093 843.926 138.392 851.104 138.381L851.104 111.439C848.452 111.468 846.156 111.379 843.504 111.254C845.457 110.919 849.659 111.006 851.819 110.982C851.727 101.726 851.757 92.4688 851.908 83.2137C852.364 75.8617 852.115 63.0618 851.868 55.5819C843.926 55.0757 832.657 55.4118 824.465 55.4176C824.556 46.2897 824.512 37.161 824.332 28.0344C816.53 27.5046 804.982 27.8578 796.908 27.866L796.908 0Z"/><path fill="#FAF9F9" d="M247.048 0L274.347 0L301.924 0L329.634 0L356.837 0L384.473 0L466.608 0C466.567 9.1287 466.365 18.8167 466.962 27.8761C457.931 27.8797 448.47 27.737 439.477 27.9155C439.393 37.0194 439.149 46.6046 439.611 55.6527C430.334 55.5274 421.057 55.5328 411.781 55.6691C411.807 64.7558 411.708 74.1907 411.945 83.2464C402.853 83.2274 393.588 83.1133 384.511 83.2241C384.297 92.2306 384.502 101.975 384.521 111.037C375.359 110.901 366.195 110.883 357.032 110.982L357.019 83.1405C349.255 83.5222 337.169 83.2728 329.392 83.1259C321.569 82.6702 309.949 82.8537 302.04 83.1133C296.662 83.5876 279.785 83.2643 274.276 83.1252C268.726 82.7246 251.986 82.7358 246.762 83.2694C247.437 78.4338 247.11 60.7959 246.859 55.5817C239.049 55.0594 227.586 55.4116 219.505 55.4197L219.505 28.4504C225.744 28.4891 241.357 28.8962 246.901 28.1042C247.424 20.2024 247.051 8.20749 247.048 0Z"/><path fill="#FAF9F9" d="M1044.09 1164.6C1053.19 1164.72 1062.28 1164.74 1071.38 1164.64L1071.48 1192.22C1080.53 1192.28 1089.87 1192.46 1098.89 1192.2C1098.71 1201.49 1098.76 1210.79 1099.03 1220.08L1071.48 1220.02C1071.44 1229.24 1071.29 1238.7 1071.49 1247.89C1062.6 1247.86 1052.81 1247.63 1043.99 1247.96C1044.63 1239.61 1044.32 1228.58 1044.05 1220.22C1035.49 1219.79 1025.47 1220.02 1016.8 1220.02L1016.81 1192.27L1044.15 1192.24C1044.31 1183.03 1044.29 1173.81 1044.09 1164.6Z"/><path fill="#FAF9F9" d="M1237.55 0L1254 0L1254 27.866L1236.56 27.866C1236.59 33.0135 1237.28 51.8435 1235.26 55.1466C1231.24 55.9533 1213.92 55.3876 1209.83 54.4957C1209.19 50.3334 1209.56 33.545 1209.58 28.4537L1237.14 28.4516C1237.12 21.5114 1235.55 5.33452 1237.55 0Z"/><path fill="#FAF9F9" d="M1099.08 83.2772C1103.71 83.7296 1122.22 83.8841 1126.64 83.2691C1125.94 88.2709 1126.32 104.6 1126.34 110.539L1099.38 110.54C1099.38 102.993 1099.79 90.3166 1099.08 83.2772Z"/><path fill="#FAF9F9" d="M27.8408 0L55.2868 0C53.4544 4.26645 54.1572 21.7407 54.218 27.2725C50.2527 27.2009 46.2266 27.7364 42.1464 27.69C37.3229 27.6351 32.6731 27.3545 27.8379 27.2782L27.8408 0Z"/><path fill="#FAF9F9" d="M1126.92 56.0088L1153.89 56.0008L1153.89 82.9734C1147.96 82.9514 1131.63 82.5758 1126.64 83.2691C1127.35 76.2945 1126.93 63.5015 1126.92 56.0088Z"/><path fill="#FAF9F9" d="M246.762 83.2694C246.078 88.1938 246.441 104.65 246.459 110.513L219.505 110.541L219.505 83.5669C226.974 83.5797 239.822 83.9897 246.762 83.2694Z"/><path fill="#FAF9F9" d="M0 83.56C5.22319 83.5476 23.5323 82.3261 26.3328 84.9961C27.6126 87.8712 26.6188 105.162 26.6747 110.54L0 110.555L0 83.56Z"/><path fill="#FAF9F9" d="M0 28.4403L27.2537 28.454C27.2574 37.585 26.5281 46.4153 26.6746 55.4197L0 55.4197L0 28.4403Z"/><path fill="#FAF9F9" d="M1237.07 83.1738C1235.38 89.0722 1237.4 106.064 1236.06 109.049C1233.19 111.662 1214.42 110.577 1209.59 110.543L1209.58 83.5655C1216 83.5966 1231.37 83.9997 1237.07 83.1738Z"/><path fill="#FAF9F9" d="M1254 55.9972L1254 82.9734C1248.38 82.9415 1242.68 82.8209 1237.07 83.1738C1235.59 78.3377 1237.15 62.1997 1237.13 56.0112L1254 55.9972Z"/><path fill="#FAF9F9" d="M851.805 1254C851.76 1251.87 851.407 1249.92 852.498 1248.22C856.14 1248.04 875.79 1247.75 879.002 1248.23C879.304 1250.67 879.331 1251.54 879.27 1254L851.805 1254Z"/><path fill="#FAF9F9" d="M82.3619 1248.04C85.6949 1248.02 107.019 1247.7 109.236 1248.28C109.631 1250.76 109.661 1251.47 109.635 1254L82.1667 1254C82.1973 1252.64 82.1963 1249.23 82.3619 1248.04Z"/><path fill="#FAF9F9" d="M302.018 1254C301.988 1252.19 301.694 1249.58 302.537 1248.16C311.158 1247.85 320.292 1248.03 328.962 1248.07C329.682 1249.6 329.422 1252.18 329.388 1254L302.018 1254Z"/><path fill="#FAF9F9" d="M796.693 1254C796.744 1251.78 796.423 1249.95 797.43 1248.24C800.623 1248.1 821.046 1247.76 823.785 1248.25C824.426 1250.59 824.263 1251.53 824.199 1254L796.693 1254Z"/><path fill="#FAF9F9" d="M906.837 1254C906.853 1251.92 906.665 1250.12 907.314 1248.2C912.304 1248.13 930.298 1247.67 934.152 1248.21C934.401 1250.57 934.432 1251.63 934.381 1254L906.837 1254Z"/><path fill="#FAF9F9" d="M246.86 1254C246.839 1252.15 246.555 1249.65 247.292 1248.16C256.109 1248.04 264.927 1248.02 273.745 1248.11C274.557 1249.1 274.273 1252.35 274.293 1254L246.86 1254Z"/><path fill="#FAF9F9" d="M191.78 1254C191.833 1251.55 191.457 1250.03 192.599 1248.18C196.611 1248.06 216.309 1247.68 218.956 1248.42C219.131 1250.52 219.217 1251.9 219.197 1254L191.78 1254Z"/><path fill="#FAF9F9" d="M137.055 1254C137.094 1252.24 136.929 1249.6 137.728 1248.19C145.617 1247.52 156.088 1248.17 164.415 1247.98L164.41 1254L137.055 1254Z"/><path fill="#FAF9F9" d="M412.038 1254C412.056 1252.03 411.825 1249.98 412.7 1248.3C418.975 1247.51 432.346 1248.14 439.321 1247.97C439.364 1249.95 439.444 1252.03 439.444 1254L412.038 1254Z"/><path fill="#FAF9F9" d="M576.866 1254C576.843 1251.94 576.543 1249.96 577.506 1248.24C585.595 1247.53 595.642 1248.19 604.056 1247.96L604.256 1254L576.866 1254Z"/><path fill="#FAF9F9" d="M631.756 1254C631.753 1251.95 631.487 1249.97 632.418 1248.24C635.637 1248.1 656.599 1247.61 658.65 1248.46C659.43 1250.53 659.21 1251.8 659.14 1254L631.756 1254Z"/><path fill="#FAF9F9" d="M1126.61 1254C1126.61 1251.99 1126.32 1249.7 1127.21 1248.13C1133.19 1248 1148 1247.73 1153.49 1248.46C1154.13 1250.5 1153.94 1251.88 1153.89 1254L1126.61 1254Z"/><path fill="#FAF9F9" d="M961.989 1254C961.989 1252.03 961.74 1249.73 962.488 1248.08C966.758 1248.02 985.263 1247.74 988.355 1248.32C989.331 1250.22 989.077 1251.83 989.061 1254L961.989 1254Z"/><path fill="#FAF9F9" d="M1043.99 1247.96L1043.97 1254L1016.88 1254C1016.81 1251.66 1016.65 1250.85 1017.4 1248.59C1020.68 1247.7 1039.7 1247.97 1043.99 1247.96Z"/><path fill="#FAF9F9" d="M687.006 1254C686.984 1252.08 686.711 1249.97 687.531 1248.34C691.295 1248.22 711.015 1247.76 713.544 1248.23C714.487 1250.22 714.261 1251.78 714.257 1254L687.006 1254Z"/><path fill="#FAF9F9" d="M1181.72 1254C1181.67 1251.82 1181.32 1250.2 1182.54 1248.51C1185.76 1247.84 1204.44 1248.14 1208.13 1248.39C1209.13 1250.22 1208.87 1251.86 1208.86 1254L1181.72 1254Z"/><path fill="#014264" d="M647.309 239.603C663.459 237.804 676.597 242.34 688.238 253.796C705.102 270.391 703.506 287.753 703.518 309.549L703.508 346.286L703.488 476.818C746.631 498.586 792.113 519.832 835.677 541.181L869.585 557.683C882.014 563.717 897.055 569.685 906.758 579.296C914.793 587.14 920.171 597.305 922.134 608.362C923.403 615.827 923.068 631.267 923.086 639.415L922.983 698.182L922.92 916.992L968.409 917.065C975.075 917.059 982.516 916.638 988.857 917.037C996.933 917.544 1001.58 927.943 995.303 933.83C992.482 936.477 990.36 936.408 986.641 936.504C974.534 936.816 962.407 936.622 950.302 936.638L873.846 936.638L632.33 936.69C551.703 935.632 468.827 936.664 387.999 936.63L319.863 936.594C310.333 936.585 299.186 936.456 289.748 936.693C274.646 937.073 274.958 919.264 285.745 917.463C292.046 916.411 304.68 917.024 311.803 917.031L364.883 917.029L364.903 573.141L364.877 468.629C364.877 455.123 364.075 427.545 365.373 415.223C366.46 405.268 370.089 395.759 375.91 387.611C387.603 371.422 413.386 360.832 431.033 351.358L509.251 309.325L592.333 265.193C607.437 257.18 630.978 242.299 647.309 239.603Z"/><path fill="#FAF9F9" d="M648.994 259.124C650.266 259.042 651.539 258.982 652.813 258.944C660.813 258.674 668.569 261.72 674.247 267.361C679.322 272.338 682.521 278.916 683.303 285.981C684.051 292.978 683.748 304.801 683.755 312.137L683.765 356.323L683.703 500.233L683.671 917.067L591.19 917.054C590.878 889.618 591.636 861.697 591.279 834.205C590.615 821.987 592.694 807.195 590.144 795.338C586.421 778.028 569.816 767.887 552.78 768.409C544.616 768.659 536.175 768.469 528.257 768.435C513.162 768.37 498.23 767.071 486.662 778.892C474.424 791.144 476.456 807.621 476.471 823.67L476.497 916.962C445.862 917.232 415.226 917.295 384.591 917.151C384.2 881.387 384.571 844.903 384.57 809.091L384.566 598.278L384.556 480.434C384.554 460.231 384.396 439.656 384.785 419.454C384.894 413.797 386.84 406.914 389.805 402.09C392.965 396.875 397.274 392.45 402.404 389.154C406.301 386.647 413.893 382.885 418.144 380.629L448.256 364.54L552.084 309.07L611.822 277.352C620.423 272.79 640.801 261.096 648.994 259.124Z"/><path fill="#014264" d="M476.969 606.833C478.722 606.863 480.292 606.954 481.966 607.524C484.477 608.38 486.457 610.026 487.485 612.503C489.27 616.804 489.31 691.691 487.613 696.081C486.355 699.339 483.617 700.77 480.618 702.18C479.256 702.155 477.872 702.129 476.543 701.798C473.72 701.093 471.54 699.514 470.201 696.896C468.566 693.701 468.227 617.573 470.053 612.693C471.186 609.665 474.222 608.085 476.969 606.833Z"/><path fill="#014264" d="M587.869 606.757C601.091 606.967 599.42 617.223 599.404 627.123C599.37 648.658 599.523 670.218 599.304 691.747C599.238 698.176 596.364 700.469 590.624 702.307C589.748 702.231 588.899 702.115 588.044 701.908C585.468 701.288 582.728 700.091 581.454 697.6C579.678 694.13 579.029 618.2 580.95 613.046C582.219 609.643 584.742 608.242 587.869 606.757Z"/><path fill="#014264" d="M476.33 444.506C484.895 444.095 488.357 448.091 488.336 456.619C488.273 481.837 489.147 507.581 487.882 532.751C487.733 535.711 483.551 538.122 481.232 539.38C473.945 539.574 469.172 536.89 469.195 528.914C469.268 503.105 468.295 476.924 469.754 451.206C469.916 448.343 474.204 445.725 476.33 444.506Z"/><path fill="#014264" d="M587.828 444.502C589.375 444.52 591.045 444.488 592.539 444.924C595.075 445.665 597.26 447.5 598.304 449.941C599.888 453.645 600.502 528.539 598.768 533.067C597.322 536.842 594.89 538.171 591.311 539.688C589.865 539.602 588.512 539.467 587.107 539.093C584.821 538.483 582.512 537.209 581.437 534.984C579.386 530.737 579.203 456.486 580.772 451.368C581.892 447.71 584.57 446.087 587.828 444.502Z"/><path fill="#FAF9F9" d="M703.501 499.018C711.709 502.277 724.475 509.011 732.843 513.084L788.321 540.154L847.982 569.192C860.585 575.259 873.274 581.207 885.705 587.613C894.444 592.116 901.905 603.095 902.989 612.901C904.106 622.991 903.652 634.176 903.638 644.434L903.613 702.559L903.519 917.086C878.496 917.825 847.96 917.119 822.656 917.09C782.932 917.235 743.207 917.171 703.484 916.898L703.501 499.018Z"/><path fill="#014264" d="M802.187 679.137C810.958 680.241 812.513 684.469 812.52 692.614C812.542 718.141 812.721 743.691 812.433 769.214C812.351 776.439 809.63 778.475 803.123 780.177C801.82 779.872 799.663 779.304 798.462 778.783C796.408 777.898 794.823 776.186 794.1 774.069C792.044 768.028 793.577 742.218 793.224 733.517C792.682 720.188 793.639 704.227 793.237 690.738C793.033 683.888 796.498 680.752 802.187 679.137Z"/><path fill="#FAF9F9" d="M509.61 788.21L549.493 787.971C574.918 788.051 571.609 800.941 571.774 821.192C571.825 827.438 571.735 833.865 571.719 840.114L571.582 917.075L558.043 917.15L495.994 917.108L495.936 842.979C495.926 829.902 495.736 816.775 496.183 803.712C496.497 794.564 501.144 790.424 509.61 788.21Z"/><path fill="#FAF9F9" d="M109.728 277.414C118.84 277.514 127.954 277.503 137.066 277.383C136.953 286.662 136.976 295.942 137.136 305.221C146.385 305.373 155.186 305.548 164.424 305.189C164.238 314.391 164.105 323.844 164.583 333.042C155.569 333.022 146.078 332.85 137.103 333.047L137.225 305.865C134.887 304.629 113.56 305.203 109.657 305.24C109.483 314.507 109.481 323.776 109.651 333.043C100.456 332.935 91.2605 332.935 82.0655 333.042C82.1016 323.771 82.0874 314.499 82.0229 305.228L109.964 305.228C109.72 295.927 109.986 286.668 109.728 277.414Z"/><path fill="#FAF9F9" d="M164.637 555.342L191.712 555.275C191.556 564.487 191.574 573.702 191.767 582.914C200.934 583.029 210.102 583.004 219.269 582.84C219.232 591.86 219.026 601.557 219.501 610.498L246.67 610.604L246.707 638.106L219.339 638.137C219.391 628.928 219.384 619.719 219.316 610.51L192.11 610.611L191.77 583.001L164.496 582.989C164.7 573.775 164.746 564.558 164.637 555.342Z"/><path fill="#FAF9F9" d="M741.119 83.0092C745.577 83.6377 763.777 83.2899 769.259 83.285C769.153 92.5222 769.25 101.761 769.55 110.993C778.32 111.266 788.234 110.582 796.686 111.231C796.559 120.467 796.541 129.704 796.631 138.94L769.652 138.892C769.722 129.573 769.691 120.253 769.559 110.935C761.538 111.45 749.966 111.084 741.683 111.066C741.845 107.227 742.548 85.3939 741.119 83.0092Z"/><path fill="#FAF9F9" d="M219.126 360.649L219.351 360.732C219.007 362.981 219.103 384.016 219.256 387.079L219.319 388.262C218.194 388.763 195.45 388.476 191.647 388.568C191.551 397.804 191.571 407.04 191.707 416.275C183.27 416.232 174.832 416.239 166.394 416.297C165.545 416.221 166.062 416.332 164.927 415.69C164.117 412.563 164.518 392.662 164.542 388.518L191.982 388.591C191.816 380.596 191.611 368.595 192.248 360.846C199.727 360.942 212.073 361.384 219.126 360.649Z"/><path fill="#FAF9F9" d="M191.191 859.956C198.845 860.42 211.199 860.069 219.235 860.147L219.3 887.53L246.607 887.802L246.753 915.284L219.352 915.295L219.437 887.623L192.041 887.763C191.694 882.39 192.769 863.094 191.191 859.956Z"/><path fill="#FAF9F9" d="M961.949 471.833C965.648 471.914 987.297 472.304 989.222 471.842L989.291 499.693C998.18 499.772 1007.07 499.777 1015.96 499.709C1016.94 501.743 1016.37 522.845 1016.59 527.225C1007.58 527.225 998.39 527.13 989.397 527.271L989.429 499.74C980.237 499.588 971.044 499.583 961.852 499.726C962.215 490.704 961.995 480.919 961.949 471.833Z"/><path fill="#FAF9F9" d="M1016.21 581.223L1016.81 582.307C1019.42 583.703 1039.46 583 1043.93 582.935L1043.97 610.468L1016.46 610.564C1016.4 615.03 1017.22 635.476 1015.73 637.867L1014.13 638.136L989.335 638.133C989.529 629.028 989.406 619.599 989.4 610.469L1016.73 610.626C1016.84 601.638 1017.25 592.482 1016.62 583.546C1015.24 582.174 1015.05 583.585 1012.05 582.6C1014.63 582.214 1014.54 582.644 1016.21 581.223Z"/><path fill="#FAF9F9" d="M82.34 56.0102L109.317 56.0106C109.314 64.2094 108.985 75.228 109.445 83.1985C109.615 92.5091 109.685 101.821 109.653 111.133C101.29 111.096 90.1029 111.546 82.0856 110.869C82.0438 101.752 81.8625 92.187 82.181 83.1173C82.5625 74.3828 82.3654 64.8196 82.34 56.0102Z"/><path fill="#FAF9F9" d="M137.099 194.209C146.187 194.329 155.276 194.339 164.364 194.24C164.27 203.243 164.022 212.852 164.544 221.783C155.543 221.694 145.976 221.481 137.011 222.088C137.001 231.01 136.783 240.855 137.053 249.702C128.168 249.711 118.605 249.546 109.773 249.811C109.875 240.559 109.867 231.306 109.749 222.054C118.706 222.151 128.133 222.368 137.061 221.849L137.099 194.209Z"/><path fill="#FAF9F9" d="M164.637 55.7341C173.568 55.7047 182.817 55.5567 191.712 55.8643C200.665 56.1737 209.935 56.0404 218.919 56.019L218.915 82.9734C210.789 82.9671 199.706 82.6324 191.819 83.1096C185.816 83.6749 171.197 83.2402 164.556 83.2378C164.864 74.4662 164.645 64.589 164.637 55.7341Z"/><path fill="#FAF9F9" d="M1154.68 967.978C1154.86 968.88 1154.71 968.32 1155.3 969.602L1160.31 970.386L1154.01 970.758C1153.77 979.767 1153.94 989.424 1153.94 998.481C1162.42 998.517 1170.9 998.629 1179.38 998.817C1176.42 999.478 1158.91 999.277 1154.81 999.281L1154.81 1023.93L1155 1025.43L1156.59 1025.69L1156.19 1026.6L1155.52 1026.38C1153.27 1023.85 1154.14 1003.47 1154.15 998.43L1126.59 998.357L1126.62 970.815C1131.54 970.785 1150.21 971.681 1153.77 970.198L1154.68 967.978Z"/><path fill="#FAF9F9" d="M1071.5 970.859C1072.94 973.578 1071.42 1019.36 1071.5 1026.23C1062.68 1026.05 1053.54 1026.19 1044.69 1026.21C1043.79 1025.19 1044.26 1002.16 1044.28 998.544L1071.53 998.569C1071.58 989.332 1071.57 980.096 1071.5 970.859Z"/><path fill="#FAF9F9" d="M1154.18 166.571L1181.3 166.541C1181.25 172.614 1180.83 187.999 1181.86 193.466C1184.19 195.058 1184.6 193.361 1186.74 194.602C1185.02 194.599 1184.12 194.469 1182.5 195.094C1182.03 200.886 1182.34 211.363 1182.36 217.521C1182.36 219.014 1182.29 219.241 1182.07 220.728L1181.74 220.553C1181.75 211.752 1181.72 202.951 1181.63 194.15L1154.19 194.153L1154.18 166.571Z"/><path fill="#FAF9F9" d="M82.023 861.207C83.3425 863.522 82.4827 882.277 82.7029 886.877C83.5571 887.184 84.3711 887.35 85.2633 887.506C82.6983 887.892 83.5857 887.289 82.1135 888.756C81.6295 896.405 81.9942 907.383 82.0284 915.273L56.7914 915.377L55.2332 915.143C54.2093 912.285 54.8716 891.896 54.9348 887.749C63.9817 887.845 73.0297 887.768 82.0736 887.516L82.023 861.207Z"/><path fill="#FAF9F9" d="M191.747 1192.22C200.919 1192.35 210.092 1192.35 219.263 1192.22C219.256 1197.75 218.815 1217.2 219.621 1220.81C216.012 1219.19 196.796 1220.1 191.991 1220.21C191.921 1211.08 192.075 1201.26 191.747 1192.22Z"/><path fill="#FAF9F9" d="M851.842 1192.26C860.995 1192.41 870.15 1192.48 879.305 1192.47C879.229 1198.13 878.694 1215.75 879.902 1220.61C875.46 1219.42 856.966 1220.12 851.784 1220.26C851.874 1210.93 851.893 1201.59 851.842 1192.26Z"/><path fill="#FAF9F9" d="M82.0384 249.793L109.773 249.811C109.454 258.147 109.277 269.094 109.728 277.414C100.532 277.373 91.3359 277.399 82.1404 277.492L82.0384 249.793Z"/><path fill="#FAF9F9" d="M191.473 471.706C194.56 472.452 214.732 471.99 219.229 471.927L219.293 499.67L191.794 499.644C191.904 493.324 192.397 477.592 191.473 471.706Z"/><path fill="#FAF9F9" d="M1126.71 693.755C1135.78 693.815 1144.85 693.827 1153.92 693.791C1153.96 698.083 1154.59 719.611 1153.53 721.468C1148.89 721.426 1129.73 722.178 1127.45 721.201C1125.23 718.678 1126.69 698.219 1126.71 693.755Z"/><path fill="#FAF9F9" d="M1043.53 386.589C1045.85 390.069 1066.42 388.567 1071.43 388.506C1071.36 397.758 1071.39 407.01 1071.52 416.261C1062.37 416.214 1053.23 416.225 1044.09 416.295C1044.29 409.348 1044.52 392.993 1043.53 386.589Z"/><path fill="#FAF9F9" d="M879.425 277.382C888.538 277.539 897.654 277.544 906.767 277.397C906.516 286.61 906.921 295.973 906.669 305.256C897.555 305.124 888.439 305.12 879.325 305.246C879.5 296.089 879.396 286.57 879.425 277.382Z"/><path fill="#FAF9F9" d="M1126.57 749.338L1153.88 749.342L1153.89 777.007L1126.63 777.051L1126.57 749.338Z"/><path fill="#FAF9F9" d="M109.681 1108.93C118.771 1109.13 127.864 1109.16 136.954 1109.01C136.933 1118.21 136.789 1127.75 137.105 1136.91C127.96 1136.78 118.814 1136.77 109.668 1136.89C109.791 1127.57 109.795 1118.25 109.681 1108.93Z"/><path fill="#FAF9F9" d="M82.0964 1108.97C81.8217 1118.34 81.9267 1127.52 82.013 1136.9C73.031 1136.82 64.0485 1136.83 55.0666 1136.91C54.3854 1130.43 54.7314 1115.89 54.7148 1109.07C63.8421 1109.14 72.9699 1109.11 82.0964 1108.97Z"/><path fill="#FAF9F9" d="M1154.21 277.417C1163.29 277.571 1172.37 277.564 1181.44 277.398C1181.28 286.636 1181.28 295.877 1181.45 305.115L1154.19 305.206L1154.21 277.417Z"/><path fill="#FAF9F9" d="M576.915 1192.29C586.003 1192.32 595.092 1192.29 604.18 1192.17C603.962 1198.09 603.65 1214.97 604.611 1220.25C596.019 1219.71 585.658 1219.98 576.924 1220.01L576.915 1192.29Z"/><path fill="#FAF9F9" d="M1099.06 166.564L1126.42 166.575C1126.38 175.332 1126.11 185.569 1126.55 194.197C1118.11 194.173 1107.33 194.493 1099.06 194.127L1099.06 166.564Z"/><path fill="#FAF9F9" d="M934.524 555.307L961.919 555.289C961.659 564.157 961.5 574.072 961.949 582.884C953.068 583.139 943.339 582.967 934.391 582.991C934.514 573.764 934.558 564.536 934.524 555.307Z"/><path fill="#FAF9F9" d="M851.875 1081.31C861.027 1081.44 870.182 1081.44 879.335 1081.31L879.335 1108.93L852.041 1108.94C851.879 1099.73 851.824 1090.52 851.875 1081.31Z"/><path fill="#FAF9F9" d="M82.1003 1081.31C91.2876 1081.46 100.477 1081.47 109.664 1081.34C109.434 1090.54 109.44 1099.74 109.681 1108.93C100.652 1108.73 91.1622 1108.91 82.0964 1108.97C82.1839 1099.75 82.1852 1090.53 82.1003 1081.31Z"/><path fill="#FAF9F9" d="M1126.7 1081.38C1135.82 1081.45 1144.94 1081.43 1154.07 1081.32C1153.89 1090.52 1153.89 1099.72 1154.08 1108.92C1144.95 1109.03 1135.69 1108.95 1126.56 1108.94L1126.7 1081.38Z"/><path fill="#FAF9F9" d="M1181.6 1081.32C1190.73 1081.42 1199.87 1081.42 1209 1081.31C1208.98 1090.43 1208.83 1099.88 1209.22 1108.95C1199.99 1108.88 1190.76 1108.88 1181.54 1108.96C1181.7 1099.75 1181.72 1090.53 1181.6 1081.32Z"/><path fill="#FAF9F9" d="M1126.55 194.197C1135.73 194.359 1144.9 194.355 1154.07 194.182C1153.96 203.343 1153.74 212.575 1154.19 221.719C1145.55 221.738 1135.04 221.483 1126.55 221.897C1126.58 213.915 1127.01 201.847 1126.55 194.197Z"/><path fill="#FAF9F9" d="M1126.6 582.916C1135.74 583.084 1144.89 583.086 1154.03 582.922L1153.93 610.356C1145.29 610.675 1135.34 610.487 1126.6 610.537L1126.6 582.916Z"/><path fill="#FAF9F9" d="M1044.2 1053.84C1053.06 1053.64 1062.5 1053.79 1071.41 1053.77C1071.39 1062.96 1071.43 1072.16 1071.55 1081.36L1044.2 1081.42L1044.2 1053.84Z"/><path fill="#FAF9F9" d="M784.062 277.68C787.495 277.353 793.036 277.442 796.641 277.393C796.528 286.676 796.552 295.959 796.714 305.24L780.995 305.24L769.28 305.24C770.097 301.593 769.652 282.637 769.592 277.686L784.062 277.68Z"/><path fill="#FAF9F9" d="M549.36 55.7067C558.489 55.7368 567.619 55.7156 576.749 55.643C576.709 64.4972 576.453 74.4882 576.797 83.25L549.281 83.2456C549.354 74.0661 549.38 64.8864 549.36 55.7067Z"/><path fill="#FAF9F9" d="M329.616 277.508L356.857 277.418C356.649 286.378 356.558 296.324 356.913 305.24C347.772 305.152 338.63 305.15 329.489 305.234L329.616 277.508Z"/><path fill="#FAF9F9" d="M1126.59 471.999L1154.03 472.027C1153.94 481.203 1153.75 490.494 1154.16 499.651C1144.96 499.535 1135.75 499.562 1126.54 499.732C1126.7 490.488 1126.72 481.243 1126.59 471.999Z"/><path fill="#FAF9F9" d="M384.783 221.837C393.985 222.377 403.539 221.534 411.878 222.2C411.803 231.295 411.63 240.571 411.958 249.645C403.572 249.985 393.179 249.711 384.572 249.798C384.854 240.569 384.281 231.149 384.783 221.837Z"/><path fill="#FAF9F9" d="M934.502 333.154C943.497 332.974 952.828 333.068 961.852 333.037C961.703 342.44 961.607 351.244 961.89 360.635L934.438 360.729C934.701 351.705 934.532 342.217 934.502 333.154Z"/><path fill="#FAF9F9" d="M1044.25 166.572L1071.45 166.539C1071.42 175.752 1071.45 184.966 1071.54 194.18C1062.69 194.168 1052.84 193.934 1044.07 194.183C1044.3 184.981 1044.36 175.776 1044.25 166.572Z"/><path fill="#FAF9F9" d="M1126.66 804.592C1135.59 804.806 1144.94 804.671 1153.91 804.669C1153.83 813.834 1153.9 822.999 1154.11 832.162L1126.69 832.148L1126.66 804.592Z"/><path fill="#FAF9F9" d="M934.483 1164.67C943.61 1164.76 952.737 1164.77 961.863 1164.71C961.643 1173.84 961.647 1182.97 961.876 1192.1C952.743 1192.23 943.609 1192.26 934.476 1192.19C934.609 1183.12 934.488 1173.77 934.483 1164.67Z"/><path fill="#FAF9F9" d="M934.481 194.168C934.488 185.326 934.736 175.311 934.467 166.57L961.875 166.553C961.802 175.465 961.528 185.387 961.942 194.199C952.788 194.115 943.635 194.105 934.481 194.168Z"/><path fill="#FAF9F9" d="M576.839 1081.34C585.964 1081.47 595.09 1081.46 604.214 1081.33C603.962 1090.52 603.996 1099.72 604.316 1108.91L576.923 1108.9L576.839 1081.34Z"/><path fill="#FAF9F9" d="M961.852 499.726C961.304 507.746 961.808 519.092 961.971 527.219L934.452 527.22L934.596 499.706C943.681 499.772 952.767 499.779 961.852 499.726Z"/><path fill="#FAF9F9" d="M576.797 83.25L604.159 83.2503L604.032 110.994L576.934 111.127C576.912 102.012 577.053 92.3173 576.797 83.25Z"/><path fill="#FAF9F9" d="M109.834 610.442C118.654 610.708 127.983 610.574 136.844 610.581C136.79 619.775 136.827 628.97 136.953 638.163C129.085 638.084 117.383 637.746 109.799 638.364L109.834 610.442Z"/><path fill="#FAF9F9" d="M1181.59 499.74C1181.18 509.414 1181.3 516.944 1181.52 526.689C1179.71 527.77 1157.83 527.203 1154.24 527.166L1154.16 499.651C1163.3 499.729 1172.44 499.758 1181.59 499.74Z"/><path fill="#FAF9F9" d="M934.529 277.426C943.635 277.545 952.741 277.538 961.847 277.406C961.604 286.683 961.645 295.965 961.969 305.24L934.433 305.235C934.517 295.966 934.549 286.696 934.529 277.426Z"/><path fill="#FAF9F9" d="M961.942 194.199C971.11 194.368 980.281 194.363 989.449 194.185C988.983 202.595 989.266 213.091 989.284 221.66C980.649 221.689 970.511 221.478 961.997 221.895C962.003 212.82 962.163 203.231 961.942 194.199Z"/><path fill="#FAF9F9" d="M54.8589 166.521L81.9948 166.564C81.924 174.46 82.4549 186.218 81.8529 193.72L80.9103 194.135C73.5634 194.115 61.7859 193.747 54.7951 194.353L54.8589 166.521Z"/><path fill="#FAF9F9" d="M769.638 998.545L796.646 998.601L796.627 1026.15L769.577 1026.19L769.638 998.545Z"/><path fill="#FAF9F9" d="M1044.07 194.183C1043.83 203.249 1043.95 212.635 1043.96 221.729C1034.83 221.603 1025.7 221.635 1016.58 221.824C1016.95 213.189 1016.72 203.009 1016.73 194.257C1025.84 194.348 1034.96 194.323 1044.07 194.183Z"/><path fill="#FAF9F9" d="M1016.96 249.83L1043.95 249.814C1043.9 259.033 1043.92 268.253 1043.99 277.471L1016.75 277.442L1016.96 249.83Z"/><path fill="#FAF9F9" d="M741.813 194.219C750.955 194.295 760.097 194.303 769.238 194.24C769.333 203.217 768.979 212.906 769.499 221.744C760.27 221.602 751.039 221.673 741.813 221.957L741.813 194.219Z"/><path fill="#FAF9F9" d="M109.915 555.332L136.836 555.297L137.045 582.86L109.915 582.902L109.915 555.332Z"/><path fill="#FAF9F9" d="M164.53 1108.45C166.689 1109.59 187.557 1109.12 191.722 1109.1L191.656 1136.82L164.585 1136.88C164.744 1127.79 164.995 1117.49 164.53 1108.45Z"/><path fill="#FAF9F9" d="M164.604 998.558C173.638 998.598 182.672 998.535 191.704 998.369C191.632 1007.64 191.634 1016.92 191.712 1026.19L164.616 1026.18C164.732 1016.97 164.729 1007.76 164.604 998.558Z"/><path fill="#FAF9F9" d="M1016.75 471.902L1043.9 472.081C1043.87 481.267 1043.92 490.454 1044.06 499.64L1016.71 499.652C1016.9 490.403 1016.92 481.151 1016.75 471.902Z"/><path fill="#FAF9F9" d="M164.681 1164.62C173.675 1164.74 182.671 1164.75 191.665 1164.66C191.652 1173.34 191.376 1183.66 191.747 1192.22L164.636 1192.26L164.681 1164.62Z"/><path fill="#FAF9F9" d="M109.915 998.538L136.844 998.566C136.86 1007.08 136.462 1017.97 137.07 1026.21L109.915 1026.18L109.915 998.538Z"/><path fill="#FAF9F9" d="M769.684 166.593L796.642 166.547C796.523 175.758 796.548 184.971 796.717 194.182C787.67 194.081 778.622 194.082 769.575 194.186C769.74 185.086 769.655 175.715 769.684 166.593Z"/><path fill="#FAF9F9" d="M1209.09 666.184L1236.41 666.227C1236.33 675.326 1236.4 684.426 1236.6 693.523C1234.22 693.985 1213.29 693.738 1209.24 693.743C1209.28 684.556 1209.23 675.369 1209.09 666.184Z"/><path fill="#FAF9F9" d="M1181.74 83.2686C1180.93 89.1727 1182.23 105.804 1180.66 109.15C1177.62 111.645 1159.59 110.568 1154.5 110.542L1154.47 83.5644C1161.84 83.582 1174.92 83.9829 1181.74 83.2686Z"/><path fill="#FAF9F9" d="M109.903 28.4543L136.31 28.4543C136.699 34.1989 136.77 49.3115 136.297 54.7854C128.546 55.7571 117.969 55.4357 109.903 55.4197L109.903 28.4543Z"/><path fill="#FAF9F9" d="M989.77 83.5663L1016.15 83.5652L1016.15 110.538L989.77 110.539L989.77 83.5663Z"/><path fill="#FAF9F9" d="M1182.03 56.0076L1208.42 56.0036L1208.43 82.9734C1202.62 82.9527 1186.63 82.5919 1181.74 83.2686C1182.45 76.2375 1182.04 63.5463 1182.03 56.0076Z"/><path fill="#FAF9F9" d="M27.8268 56.0238L54.2132 56.0086L54.2087 82.9734C48.9712 82.9218 32.5373 84.025 29.0842 82.0705C26.6724 78.9492 27.8194 61.3889 27.8268 56.0238Z"/><path fill="#FAF9F9" d="M55.456 28.4501L81.7581 28.4513L81.7488 55.4197L54.8031 55.4169C54.7378 45.7996 54.7375 38.023 55.456 28.4501Z"/></svg>