<?xml version="1.0" encoding="utf-8" ?><svg xmlns="http://www.w3.org/2000/svg" xmlns:xlink="http://www.w3.org/1999/xlink" width="1254" height="1254" viewBox="0 0 1254 1254"><path fill="#FCFCFC" d="M0 0L1254 0L1254 1254L0 1254L0 0Z"/><path fill="#003E59" d="M617.288 445.088C711.526 439.713 792.258 511.793 797.554 606.036C802.85 700.278 730.701 780.949 636.455 786.166C542.32 791.377 461.765 719.333 456.475 625.202C451.186 531.072 523.162 450.457 617.288 445.088Z"/><path fill="#FCFCFC" d="M616.231 463.129C700.335 457.189 773.365 520.473 779.454 604.566C785.542 688.66 722.389 761.802 638.306 768.04C554.012 774.293 480.646 710.946 474.542 626.642C468.438 542.337 531.915 469.083 616.231 463.129Z"/><path fill="#003E59" d="M624.7 525.985C630.284 525.676 634.227 527.476 635.446 533.277C640.624 557.912 646.119 584.548 671.134 596.181C684.448 602.372 696.591 605.95 711.024 608.881C719.714 610.152 719.496 624.091 712.342 625.424C692.339 629.15 670.031 633.558 655.26 648.968C646.917 657.673 641.578 675.086 638.563 686.709C636.528 694.559 637.435 703.716 629.109 707.521C616.724 707.242 618.469 698.431 615.98 688.689C612.15 673.696 606.192 654.246 593.402 644.307C580.152 634.01 561.732 628.511 545.328 626.379C534.821 626.994 533.185 611.113 541.252 609.227C561.105 604.586 586.017 599.514 600.041 583.202C609.417 572.296 615.215 548.904 618.192 534.896C619.211 530.103 620.28 528.561 624.7 525.985Z"/><path fill="#FCFCFC" d="M626.611 569.807C628.039 571.212 631.391 579.461 632.758 582.093C643.429 602.639 653.733 607.685 673.462 617.069C672.186 617.578 670.918 618.105 669.657 618.651C646.495 628.684 636.664 640.047 627.387 663.395C625.911 662.155 623.392 655.268 622.188 652.984C611.748 633.162 600.164 625.306 580.106 616.982C582.065 616.182 584.007 615.341 585.931 614.461C607.985 604.334 618.069 592.737 626.611 569.807Z"/><path fill="#003E59" d="M803.999 735.982C805.301 735.871 806.693 735.716 807.994 735.882C811.661 736.348 869.39 778.556 872.571 782.93C873.89 784.743 874.319 788.08 873.793 790.23C872.979 793.56 870.282 795.37 867.463 796.923C864.527 797.163 861.665 797.145 859.155 795.363C841.527 782.848 824.228 769.866 806.798 757.073C802.496 753.915 796.006 750.28 797.224 743.94C797.966 740.075 800.855 737.931 803.999 735.982Z"/><path fill="#003E59" d="M444.662 735.976C449.557 735.498 452.601 736.222 455.582 740.582C458.088 744.464 456.96 749.581 453.411 752.361C438.208 764.266 422.369 775.407 406.806 786.838C402.321 790.132 396.768 794.547 391.896 796.906C380.304 798.279 376.605 786.388 383.797 780.702C397.378 769.967 411.741 759.889 425.618 749.496C431.55 745.054 438.374 739.622 444.662 735.976Z"/><path fill="#003E59" d="M625.146 325.772C626.74 325.734 628.51 325.873 630.048 326.33C632.204 326.948 633.986 328.472 634.93 330.507C637.504 335.985 636.249 388.694 634.935 397.436C634.672 399.188 630.634 401.295 628.823 402.119C627.32 402.094 625.737 402.109 624.277 401.722C622.006 401.12 619.986 399.793 618.877 397.68C616.975 394.06 616.639 336.329 618.314 331.98C619.586 328.676 622.096 327.232 625.146 325.772Z"/><path fill="#003E59" d="M357.423 578.697C375.645 578.032 398.976 578.271 417.308 579.227C424.754 579.615 428.85 591.957 417.568 597.191C409.242 597.511 362.183 598.339 356.822 596.911C354.466 596.278 352.47 594.713 351.294 592.577C349.997 590.265 349.76 587.505 350.644 585.006C351.832 581.572 354.378 580.199 357.423 578.697Z"/><path fill="#003E59" d="M808.741 399.887C824.632 399.098 822.73 413.707 812.512 421.464C803.288 428.466 783.519 454.741 774.314 458.921C765.739 459.778 760.529 450.757 763.504 447.115C771.466 437.37 799.562 404.583 808.741 399.887Z"/><path fill="#003E59" d="M440.896 399.89C443.817 399.971 446.812 400.148 449.005 402.409C457.913 411.597 466.851 420.772 475.776 429.945C479.915 435.047 487.531 440.597 490.673 446.368C493.656 451.849 487.943 456.93 483.854 458.849C482.146 458.845 480.424 458.81 478.768 458.346C475.809 457.517 435.851 416.837 433.891 412.403C432.933 410.235 433.276 407.042 434.32 404.972C435.709 402.219 438.127 400.927 440.896 399.89Z"/><path fill="#003E59" d="M836.89 578.743C852.641 577.972 871.918 579.663 887.04 578.521C906.125 577.078 908.899 592.351 896.066 597.423C879.426 597.379 862.786 597.443 846.146 597.411C840.249 597.401 833.387 598.239 830.373 591.875C829.356 589.78 829.229 587.363 830.018 585.172C831.334 581.58 833.658 580.308 836.89 578.743Z"/><path fill="#003E59" d="M688.247 821.119C698.378 820.626 699.038 825.679 701.556 834.179C706.332 850.296 711.572 866.33 715.833 882.589C717.357 888.406 713.925 891.317 709.188 893.651C708.012 893.727 706.888 893.719 705.72 893.558C703.345 893.23 701.063 892.224 699.72 890.132C696.976 885.859 681.092 831.937 681.976 828.255C682.841 824.654 685.243 822.959 688.247 821.119Z"/><path fill="#003E59" d="M560.837 821.13C566.368 820.97 573.137 823.598 571.874 830.354C569.411 843.523 564.539 856.484 561.116 869.46C559.417 875.899 557.308 882.514 555.019 888.764C553.941 891.674 551.265 892.828 548.629 893.917C543.747 893.817 536.592 890.017 537.935 884.501C542.562 865.487 548.989 846.695 554.267 827.819C555.331 824.013 557.513 822.837 560.837 821.13Z"/></svg>