<?xml version="1.0" encoding="utf-8" ?><svg xmlns="http://www.w3.org/2000/svg" xmlns:xlink="http://www.w3.org/1999/xlink" width="1254" height="1254" viewBox="0 0 1254 1254"><path fill="#F9F8F8" d="M0 0L35.9846 0L71.7479 0L107.847 0L143.7 0L179.407 0L214.953 0L251.043 0L286.742 0L322.582 0L358.323 0L394.216 0L429.898 0L465.93 0L501.507 0L537.43 0L573.201 0L608.994 0L644.632 0L680.367 0L716.289 0L751.985 0L787.54 0L823.486 0L859.246 0L895.164 0L930.848 0L966.762 0L1002.48 0L1038.59 0L1074.05 0L1109.99 0L1145.72 0L1181.76 0L1217.87 0L1254 0L1254 36.1005L1254 72.1266L1254 108.272L1254 144.302L1254 180.202L1254 216.206L1254 252.245L1254 288.047L1254 323.964L1254 359.915L1254 395.57L1254 431.426L1254 467.727L1254 503.354L1254 539.375L1254 574.99L1254 611.128L1254 647.157L1254 682.732L1254 718.829L1254 754.895L1254 790.47L1254 826.448L1254 862.214L1254 898.205L1254 934.334L1254 969.998L1254 1005.89L1254 1041.68L1254 1077.3L1254 1113.43L1254 1149.44L1254 1185.33L1254 1221.21L1254 1254L1217.89 1254L1181.82 1254L1145.8 1254L1110.08 1254L1073.98 1254L1038.44 1254L1002.47 1254L966.743 1254L930.759 1254L895.163 1254L859.33 1254L823.494 1254L787.566 1254L752.081 1254L716.329 1254L680.285 1254L644.587 1254L608.97 1254L573.226 1254L537.423 1254L501.473 1254L465.852 1254L429.889 1254L394.206 1254L358.369 1254L322.592 1254L286.68 1254L251.054 1254L215.11 1254L179.381 1254L143.612 1254L107.813 1254L71.9085 1254L36.0119 1254L0 1254L0 1221.29L0 1185.23L0 1149.4L0 1113.35L0 1077.54L0 1041.61L0 1005.79L0 969.885L0 934.337L0 898.217L0 862.212L0 826.431L0 790.402L0 754.748L0 718.792L0 682.795L0 647.181L0 611.127L0 575.297L0 539.306L0 503.295L0 467.657L0 431.446L0 395.614L0 359.893L0 323.84L0 288.325L0 252.28L0 216.183L0 180.155L0 144.318L0 108.239L0 72.2184L0 36.1614L0 0Z"/><path fill="#FCFCFC" d="M506.131 247.155C575.858 247.117 647.329 246.294 716.886 247.219C739.39 247.196 753.161 249.343 769.664 266.451C794.881 292.592 820.53 318.592 845.552 344.898C861.889 362.074 880.405 379.86 895.99 397.397C916.147 427.407 912.602 446.02 912.558 480.275L912.551 561.449L912.577 638.828C912.57 650.134 913.096 662.324 911.865 673.477C911.049 680.858 901.724 682.818 895.666 682.029L893.424 681.182C884.038 673.484 886.71 664.064 886.623 652.77C886.765 634.174 886.748 615.578 886.571 596.982C886.979 590.904 886.703 581.222 886.705 574.871L886.697 539.009C884.942 540.247 863.58 539.404 859.634 539.423C859.606 551.362 859.516 563.301 859.364 575.238C847.807 575.238 834.967 575.523 823.518 575.168C823.355 563.195 823.348 551.221 823.496 539.247C835.231 539.259 847.521 539.454 859.213 539.131C858.902 527.98 859.188 515.025 859.055 503.614L823.548 503.402C823.166 491.829 823.442 479.386 823.502 467.747C835.647 467.594 847.29 467.394 859.441 467.696C858.895 455.856 859.097 443.453 859.129 431.558C847.445 431.804 835.406 431.651 823.694 431.643L823.557 467.669C811.667 467.822 799.775 467.752 787.888 467.456C787.004 460.621 787.189 438.353 787.872 431.651C775.989 431.744 764.105 431.727 752.222 431.601C752.21 419.588 752.113 407.576 751.931 395.564L787.661 395.604C787.033 384.674 787.402 371.023 787.56 360.029L752.087 359.988C751.984 347.981 751.973 335.973 752.053 323.966C760.741 323.744 770.052 323.944 778.519 323.552C773.615 322.443 750.019 323.942 743.953 324.059C734.874 324.236 725.361 324.074 716.232 324.015L716.239 288.097C705.348 288.672 691.608 288.136 680.5 287.945C680.352 299.874 680.513 312.015 680.435 323.995C668.543 324.133 656.65 324.099 644.759 323.891C644.78 329.56 644.044 371.046 644.625 372.676C694.79 386.966 736.237 418.446 756.22 467.838C761.46 481.197 763.927 489.33 766.602 503.627C773.635 547.177 763.542 588.742 738.181 624.691L750.688 636.988C777.71 664.307 805.935 692.883 833.329 719.775L858.74 745.471C873.724 760.576 888.987 776.392 904.174 791.226L928.898 816.405C932.384 819.977 935.896 823.523 939.435 827.042C946.993 836.714 942.212 847.591 930.145 848.948C931.406 850.498 931.18 859.432 931.262 862.211C919.249 862.4 907.234 862.401 895.221 862.215L895.287 898.294L859.654 898.323C859.657 909.948 859.922 922.779 859.434 934.308L895.251 934.217L895.23 969.863C883.33 970.025 871.429 970.072 859.529 970.006C859.651 981.976 859.663 993.948 859.566 1005.92L895.091 1005.79L895.187 969.904C904.011 970.688 921.356 969.811 930.994 969.82C931.155 981.859 931.143 993.899 930.955 1005.94L895.248 1005.95L895.261 1041.6C883.347 1041.71 871.433 1041.68 859.521 1041.51C859.565 1052.95 859.906 1066.31 859.465 1077.6C871.394 1077.41 883.326 1077.39 895.256 1077.54L895.292 1113.34C883.361 1113.49 871.429 1113.53 859.498 1113.46C858.311 1103.27 859.514 1088.22 859.157 1077.56C847.272 1077.78 835.384 1077.81 823.498 1077.65C823.367 1065.61 823.361 1053.58 823.48 1041.55L859.182 1041.5L859.145 1005.96L823.548 1006C823.229 994.154 823.406 981.879 823.526 970.006L787.843 970C786.794 961.224 787.42 943.445 787.571 934.32L752.222 934.379L752.225 969.983C764.007 969.93 776.041 970.046 787.779 969.896C787.925 979.307 788.601 997.037 787.797 1005.96C776.638 1005.61 763.693 1006.03 752.249 1005.87C751.65 995.419 751.993 980.799 751.927 969.991L716.366 970.056C715.58 964.993 716.068 940.607 716.084 934.342L680.532 934.407C680.58 946.259 680.516 958.111 680.34 969.962C668.472 970.027 656.603 970.021 644.735 969.945C644.814 980.49 645.239 995.685 644.676 1005.97L609.166 1006C609.133 1017.7 608.929 1029.93 609.172 1041.6C597.159 1041.78 585.145 1041.77 573.133 1041.55C573.26 1053.62 573.277 1065.69 573.182 1077.75L537.446 1077.65C537.604 1089.59 537.579 1101.52 537.372 1113.46C526.624 1113.46 511.585 1114.18 501.449 1113.34C501.301 1101.43 501.302 1089.52 501.452 1077.61C513.53 1077.57 525.036 1077.41 537.151 1077.63C536.837 1066.17 537.084 1053.16 537.066 1041.6C525.21 1041.82 513.351 1041.83 501.494 1041.63C501.344 1029.76 501.33 1017.89 501.452 1006.02L465.868 1005.92C465.2 994.838 465.575 980.984 465.85 969.963C453.864 970.039 441.877 970.048 429.891 969.991C429.995 982.006 430.013 994.023 429.944 1006.04C418.36 1005.79 405.812 1006.01 394.159 1006.01C394.499 1014.38 394.752 1033.54 393.925 1041.54C382.052 1041.84 370.172 1041.84 358.298 1041.56C357.939 1030.1 358.189 1017.41 358.171 1005.86L393.881 1005.79C393.823 993.878 393.836 981.961 393.919 970.045L358.303 969.959C358.144 958.074 358.133 946.189 358.27 934.304C346.403 934.385 334.536 934.403 322.669 934.356C322.736 946.23 322.734 958.105 322.661 969.979C311.564 969.623 298.141 969.985 286.792 969.967C286.144 961.187 286.415 943.186 286.792 934.253L322.374 934.237C322.266 922.231 322.336 910.223 322.584 898.219C310.654 898.363 298.722 898.378 286.792 898.265C286.131 887.752 286.445 872.738 286.97 862.202C274.977 862.362 262.982 862.376 250.989 862.244C250.785 850.405 250.959 838.196 250.983 826.329C262.141 826.693 275.342 826.381 286.628 826.338L286.591 790.524L250.973 790.528C250.824 778.604 250.839 766.678 251.018 754.754L286.87 754.756C287.078 766.637 287.137 778.521 287.049 790.404L322.511 790.402C321.993 781.379 321.776 764.323 322.716 755.688C324.625 753.987 324.909 755.786 327.078 754.487C325.041 754.464 325.267 754.662 323.441 753.986C322.771 744.487 323.278 729.366 323.297 719.458C326.174 719.472 331.882 719.049 334.382 719.308C330.537 719.227 326.604 718.946 322.643 718.892C321.957 707.629 322.128 694.245 322.169 682.872L287.052 682.862C286.14 676.615 286.209 653.59 287.036 647.17L322.528 646.952C321.771 637.389 322.263 621.079 322.486 611.219L286.671 611.253C286.508 599.261 286.51 587.266 286.675 575.273C298.682 575.007 310.692 574.903 322.701 574.962C322.531 586.7 322.751 599.206 322.778 610.993C328.723 611.048 333.971 611.107 339.926 610.73L339.994 407.586L340.012 348.868C340.023 326.68 337.88 308.633 348.035 288.084C352.794 279.676 357.414 272.643 364.806 266.181C367.466 263.856 370.946 261.599 373.442 259.326L374.098 258.722C402.161 244.308 412.343 247.096 443.119 247.143L506.131 247.155Z"/><path fill="#022958" d="M721.21 644.288C714.656 650.715 707.59 656.597 700.081 661.878C664.41 687.024 620.055 696.603 577.185 688.421C535.565 680.415 498.766 656.355 474.741 621.439C450.183 586.026 440.976 542.192 449.208 499.89C457.457 457.185 482.447 419.554 518.608 395.384C556.909 369.42 599.989 363.994 644.625 372.676C694.79 386.966 736.237 418.446 756.22 467.838C761.46 481.197 763.927 489.33 766.602 503.627C773.635 547.177 763.542 588.742 738.181 624.691L750.688 636.988C777.71 664.307 805.935 692.883 833.329 719.775L858.74 745.471C873.724 760.576 888.987 776.392 904.174 791.226L928.898 816.405C932.384 819.977 935.896 823.523 939.435 827.042C946.993 836.714 942.212 847.591 930.145 848.948C927.383 848.432 924.146 847.96 922.047 846.053C915.175 839.808 908.381 832.769 901.854 826.192L862.065 785.979L721.21 644.288Z"/><path fill="#F9F8F8" d="M603.061 394.523C677.89 392.051 740.556 450.708 743.027 525.538C745.499 600.368 686.84 663.032 612.011 665.503C537.182 667.973 474.519 609.316 472.048 534.488C469.576 459.66 528.232 396.995 603.061 394.523Z"/><path fill="#022958" d="M506.131 247.155C575.858 247.117 647.329 246.294 716.886 247.219C739.39 247.196 753.161 249.343 769.664 266.451C794.881 292.592 820.53 318.592 845.552 344.898C861.889 362.074 880.405 379.86 895.99 397.397C916.147 427.407 912.602 446.02 912.558 480.275L912.551 561.449L912.577 638.828C912.57 650.134 913.096 662.324 911.865 673.477C911.049 680.858 901.724 682.818 895.666 682.029L893.424 681.182C884.038 673.484 886.71 664.064 886.623 652.77C886.765 634.174 886.748 615.578 886.571 596.982C886.979 590.904 886.703 581.222 886.705 574.871L886.697 539.009L886.713 478.352C886.722 457.298 890.081 430.669 875.432 413.672C871.137 408.689 865.981 403.625 861.388 398.858L832.532 368.982C806.134 341.689 779.827 314.23 753.364 287.029C747.602 281.107 740.139 274.408 731.848 273.553C722.868 272.626 711.109 272.982 701.982 272.981L640.196 273.005L417.443 272.943C392.863 272.97 369.029 287.845 366.468 314.296C364.663 332.937 365.758 354.63 365.798 373.567L365.798 482.886L365.682 842.035C365.738 859.134 367.057 870.238 379.381 883.037C396.548 900.866 422.973 897.147 445.718 897.11L515.312 897.08L755.628 897.077C765.765 896.994 774.529 897.285 784.162 893.67C803.509 886.411 814.917 867.523 813.98 847.116C813.657 840.082 812.704 832.475 818.213 827.018C820.621 824.63 823.876 823.293 827.267 823.3C830.453 823.304 833.486 824.669 835.602 827.051C840.95 833.088 839.616 849.539 838.854 857.18C837.122 876.423 827.708 894.156 812.74 906.373C802.478 914.888 789.988 920.279 776.753 921.907C770.15 922.755 760.376 922.579 753.551 922.592L719.973 922.615L608.632 922.572L471.233 922.56L429.414 922.597C422.287 922.581 412.476 922.79 405.653 922.079C386.389 920.196 368.675 910.696 356.45 895.69C338.368 873.469 340.021 854.012 339.964 827.139L339.993 777.126L339.926 610.73L339.994 407.586L340.012 348.868C340.023 326.68 337.88 308.633 348.035 288.084C352.794 279.676 357.414 272.643 364.806 266.181C367.466 263.856 370.946 261.599 373.442 259.326L374.098 258.722C402.161 244.308 412.343 247.096 443.119 247.143L506.131 247.155Z"/><path fill="#F9F8F8" d="M573.141 970.045L608.756 969.978C608.713 981.601 608.436 994.163 608.847 1005.71L573.119 1005.88C573.268 993.936 573.275 981.99 573.141 970.045Z"/><path fill="#F9F8F8" d="M537.463 1005.97C549.349 1006.04 561.234 1006.01 573.119 1005.88C573.098 1017.47 572.826 1030.04 573.133 1041.55L537.433 1041.63L537.463 1005.97Z"/><path fill="#F9F8F8" d="M537.602 934.429L573.063 934.328C572.999 946.234 573.025 958.14 573.141 970.045L537.428 969.977L537.602 934.429Z"/><path fill="#F9F8F8" d="M823.616 934.355L859.192 934.327C859.162 945.971 858.921 958.324 859.208 969.913C847.314 969.816 835.419 969.847 823.526 970.006C823.629 958.123 823.659 946.239 823.616 934.355Z"/><path fill="#F9F8F8" d="M465.938 934.344L501.517 934.332C501.356 946.186 501.329 958.042 501.438 969.896C489.625 969.906 477.649 969.809 465.85 969.963C466.025 958.091 466.054 946.217 465.938 934.344Z"/><path fill="#F9F8F8" d="M394.283 934.394L429.888 934.301C429.639 946.196 429.64 958.095 429.891 969.991C418.021 969.881 406.152 969.871 394.282 969.96C394.35 958.105 394.35 946.249 394.283 934.394Z"/><path fill="#F9F8F8" d="M609.078 288.095L644.632 288.094C644.521 297.944 643.915 314.537 644.759 323.891C632.871 323.716 620.981 323.717 609.093 323.893C609.178 311.96 609.173 300.028 609.078 288.095Z"/><path fill="#F9F8F8" d="M609.051 934.348L644.54 934.331C644.492 942.221 643.897 962.956 644.735 969.945L609.194 969.854C609.101 958.068 609.246 946.085 609.051 934.348Z"/><path fill="#022958" d="M451.242 790.033C464.158 789.329 483.131 789.894 496.566 789.895L584.894 789.885L682.013 789.881C698.953 789.881 715.993 789.675 732.934 790.048C735.525 790.161 737.024 790.238 739.238 791.711C744.847 795.444 747.606 801.422 744.726 807.875C742.938 811.88 739.508 813.813 735.506 815.421C722.397 816.096 704.34 815.516 690.718 815.52L602.881 815.511L506.531 815.534C488.764 815.544 470.942 815.698 453.179 815.351C450.507 815.31 449.35 815.077 447.121 813.711C441.409 810.212 439.194 803.819 441.814 797.558C443.499 793.53 447.17 791.567 451.242 790.033Z"/><path fill="#F9F8F8" d="M394.269 431.61C406.15 431.669 418.031 431.657 429.911 431.577C429.351 442.639 429.774 456.311 429.874 467.546C437.95 467.914 446.855 467.872 455.018 468.037C449.436 468.7 436.751 468.46 430.45 468.579L430.45 502.702L442.357 502.818C439.656 503.31 432.919 503.362 429.856 503.457C429.541 515.142 429.746 527.496 429.829 539.197C419.424 539.523 407.456 539.224 396.927 539.219L394.923 539.166C393.559 536.76 394.324 508.371 394.368 503.627C406.208 503.744 418.049 503.662 429.886 503.381C430.001 491.486 429.989 479.59 429.852 467.695C417.998 467.489 406.141 467.487 394.287 467.689L394.269 431.61Z"/><path fill="#F9F8F8" d="M537.166 323.923L537.232 323.157C537.873 314.931 536.829 294.386 537.861 288.483C546.658 287.912 564.281 287.781 573.165 288.15L573.172 323.965C561.217 323.734 549.259 323.712 537.303 323.9C537.241 334.057 536.659 350.318 537.388 359.877C525.512 359.854 513.287 359.685 501.443 360.001C501.946 348.635 501.681 335.396 501.533 323.93C513.409 324.177 525.29 324.174 537.166 323.923Z"/><path fill="#F9F8F8" d="M394.265 718.822L429.832 718.857C429.547 730.543 429.788 743.011 429.815 754.753C439.801 755.04 455.877 754.249 465.044 755.35C454.346 755.907 441.318 755.579 430.45 755.584L430.45 789.873C432.722 789.839 437.41 789.507 439.283 790.288L429.973 790.562L429.962 754.598C419.289 755.082 405.249 754.658 394.311 754.659L394.265 718.822Z"/><path fill="#F9F8F8" d="M573.138 826.391C584.988 826.572 596.841 826.613 608.693 826.513C608.54 834.566 608.265 853.77 609.025 861.174C610.954 862.679 611.266 862.192 614.239 862.435L614.145 862.62C612.443 862.616 611.564 862.486 609.962 863.113C609.412 871.1 609.838 883.934 609.855 892.281L609.725 895.173C608.828 894.044 609.217 865.863 609.225 862.131L573.167 862.167C573.317 850.242 573.307 838.315 573.138 826.391Z"/><path fill="#F9F8F8" d="M429.912 323.941C441.875 324.065 453.84 324.086 465.804 324.006C465.602 334.304 464.907 350.057 465.876 359.946C454.848 359.542 440.925 359.874 429.889 359.974C430.523 350.016 429.964 334.273 429.912 323.941Z"/><path fill="#F9F8F8" d="M429.918 682.868C441.828 683.047 453.74 683.015 465.649 682.774C465.611 691.987 464.877 710.559 465.927 718.769C453.895 718.663 441.863 718.692 429.832 718.857C430.49 710.328 430.032 691.761 429.918 682.868Z"/><path fill="#F9F8F8" d="M501.537 288L501.738 276.493L502.061 276.765C502.058 279.116 501.878 285.901 502.421 287.749L504.46 287.934C502.106 288.407 502.953 287.82 501.577 289.314C501.188 298.112 501.014 315.07 501.533 323.93C489.669 323.778 477.802 323.789 465.938 323.962L465.936 288.005L479.588 288.236C486.905 288.286 494.223 288.207 501.537 288Z"/><path fill="#F9F8F8" d="M465.927 718.769C477.748 718.933 489.571 718.967 501.393 718.872C501.321 730.801 501.357 742.731 501.502 754.659C490.027 754.667 477.328 754.407 465.95 754.835C465.951 743.2 466.204 730.312 465.927 718.769Z"/><path fill="#F9F8F8" d="M609.049 718.8C620.893 718.999 632.739 719.007 644.583 718.824C644.415 730.773 644.451 742.725 644.691 754.673C633.34 754.987 620.686 754.694 609.164 754.84L609.049 718.8Z"/><path fill="#F9F8F8" d="M465.832 395.616C465.422 408.385 465.439 418.603 465.743 431.295C453.798 431.224 441.853 431.318 429.911 431.577C430.012 419.833 429.642 407.233 430.107 395.607C442.014 395.8 453.924 395.803 465.832 395.616Z"/><path fill="#F9F8F8" d="M390.305 287.324C393.24 287.168 392.242 287.357 394.398 287.554C405.403 288.56 418.908 288.195 429.846 288.15C429.649 300.08 429.671 312.012 429.912 323.941C418.031 323.796 406.149 323.788 394.268 323.918C394.363 313.563 394.936 298.612 394.132 288.622C392.306 286.825 391.724 288.345 390.305 287.324Z"/><path fill="#F9F8F8" d="M752.222 718.804C763.976 718.924 775.731 718.943 787.485 718.86C787.222 728.315 788.229 746.466 787.267 754.751C775.537 754.641 763.806 754.674 752.077 754.851L752.222 718.804Z"/><path fill="#F9F8F8" d="M393.948 574.785C397.502 576.088 424.77 575.326 429.82 575.208C429.73 586.993 429.451 599.353 429.841 611.087C418.005 611.013 406.169 611.014 394.333 611.088C394.37 605.005 394.801 578.994 393.948 574.785Z"/><path fill="#F9F8F8" d="M394.267 647.094C406.093 647.241 417.921 647.279 429.748 647.208C429.758 658.542 429.445 671.678 429.918 682.868C418.012 682.697 406.105 682.649 394.198 682.723C394.302 670.847 394.325 658.97 394.267 647.094Z"/><path fill="#F9F8F8" d="M465.876 359.946C477.732 360.048 489.588 360.067 501.443 360.001C501.401 371.626 501.146 383.967 501.414 395.536C489.709 395.559 477.499 395.42 465.832 395.616C466.56 387.146 465.967 369.029 465.876 359.946Z"/><path fill="#F9F8F8" d="M394.125 359.999C406.046 360.064 417.968 360.056 429.889 359.974C429.431 370.892 429.739 384.477 429.797 395.557L394.253 395.612C394.419 383.741 394.377 371.868 394.125 359.999Z"/><path fill="#F9F8F8" d="M287.094 826.357C298.884 826.681 310.681 826.649 322.469 826.262C322.234 838.074 321.956 850.093 322.565 861.889C319.676 862.439 291.817 862.161 287.167 862.185C287.022 850.243 286.998 838.3 287.094 826.357Z"/></svg>