<?xml version="1.0" encoding="utf-8" ?><svg xmlns="http://www.w3.org/2000/svg" xmlns:xlink="http://www.w3.org/1999/xlink" width="1254" height="1254" viewBox="0 0 1254 1254"><path fill="#FBFBFB" d="M0 0L1254 0L1254 1254L0 1254L0 0Z"/><path fill="#003B55" d="M578.994 276.388C587.905 274.867 599.039 277.089 603.328 285.944C608.009 295.604 602.133 304.238 595.979 311.282C578.381 331.426 565.738 355.147 556.83 380.268C536.294 435.994 539.246 496.883 565.83 550.077C593.485 605.253 641.9 647.204 700.451 666.725C751.346 683.929 806.722 682.317 856.53 662.181C869.472 656.827 880.739 650.552 892.779 643.511C901.436 638.449 914.347 639.856 918.649 650.044C923.127 660.647 916.331 674.605 912.759 684.762C882.257 760.161 823.096 812.526 749.257 843.772C723.994 853.824 697.508 860.481 670.494 863.568C587.379 872.538 504.098 848.2 438.894 795.885C378.422 747.771 338.219 680.302 329.533 603.05C321.165 523.756 344.792 444.402 395.168 382.598C439.233 327.605 508.218 284.102 578.994 276.388Z"/><path fill="#FBFBFB" d="M566.714 305.096L567.422 305.506C565.125 309.657 559.645 316.859 556.538 321.938C546.953 337.65 539.087 354.348 533.076 371.744C511.683 435.198 512.886 500.114 542.933 560.729C573.315 621.952 626.81 668.569 691.614 690.292C743.896 707.876 800.495 707.883 852.781 690.311C865.983 685.729 878.024 679.785 890.503 673.568C859.645 744.66 809.259 792.296 737.225 821.216C720.781 827.282 707.994 831.526 690.602 835.016C615.786 849.313 538.351 833.463 475.17 790.919C414.883 750.793 372.591 691.622 357.98 620.317C329.403 480.846 426.843 333.121 566.714 305.096Z"/><path fill="#003B55" d="M395.388 872.194C426.128 870.257 469.988 880.371 495.524 897.402C539.598 926.796 573.85 944.708 628.56 945.735C664.63 946.31 700.219 937.406 731.768 919.914C743.421 913.581 754.256 905.803 765.619 898.996C790.177 884.182 817.795 875.173 846.366 872.657C878.149 869.941 910.08 875.789 938.839 889.591C943.508 891.877 949.514 894.476 953.324 897.788C965.059 907.787 952.678 924.765 939.407 916.813C917.911 903.934 894.1 897.41 869.013 896.303C837.54 894.564 806.288 902.5 779.458 919.046C767.37 926.342 757.341 933.972 744.587 940.975C724.545 951.884 703.021 959.817 680.692 964.524C630.391 975.223 577.972 969.187 531.418 947.336C516.758 940.298 502.301 931.527 488.954 922.226C449.038 894.409 396.561 889.096 350.383 904.495C345.469 906.13 340.652 908.04 335.952 910.215C329.854 913.069 323.582 917.06 317.069 918.49C312.107 919.578 305.004 915.434 304.615 909.929C303.816 898.638 313.785 894.762 322.029 890.633C345.154 879.052 369.73 873.599 395.388 872.194Z"/><path fill="#003B55" d="M789.912 315.416C804.737 314.133 805.993 324.056 809.026 336.004C810.959 343.619 812.802 350.418 816.303 357.496C827.669 362.873 840.968 364.813 852.329 369.432C859.416 372.314 860.919 386.902 851.855 391.16C840.337 396.572 826.915 397.736 815.719 404.902C810.855 414.707 809.457 425.418 806.039 435.655C804.129 441.376 801.724 443.411 796.512 445.753C773.735 448.127 780.908 416.207 770.54 405.005C762.113 395.901 736.76 397.701 729.568 386.71C726.05 381.335 728.605 372.159 734.853 369.417C746.084 364.487 758.137 362.976 769.607 357.95C775.188 349.813 777.258 336.6 780.304 327.106C782.372 320.66 784.159 318.412 789.912 315.416Z"/><path fill="#FBFBFB" d="M793.172 362.908C793.81 363.57 793.533 363.206 794.014 364.056C800.395 375.339 800.192 375.528 811.552 380.724C800.465 386.094 798.688 387.071 793.61 398.276L792.988 398.004C786.872 386.319 786.92 386.703 775.054 380.689C786.863 375.538 787.49 374.369 793.172 362.908Z"/><path fill="#003B55" d="M874.345 483.2C893.288 482.294 886.829 500.212 892.943 512.121L893.328 512.854C903.554 515.581 919.087 513.735 922.385 525.214C927.197 541.965 901.881 539.004 895.37 542.416C884.078 548.332 896.279 564.425 879.871 571.606C856.756 573.481 870.675 546.416 857.466 541.686C849.603 538.87 824.357 542.887 833.332 521.28C835.887 515.128 853.109 514.669 859.874 513.228C867.432 501.448 860.429 488.797 874.345 483.2Z"/></svg>