<?xml version="1.0" encoding="utf-8" ?><svg xmlns="http://www.w3.org/2000/svg" xmlns:xlink="http://www.w3.org/1999/xlink" width="1254" height="1254" viewBox="0 0 1254 1254"><path fill="white" d="M0 0L33.5006 0L66.7833 0L167.18 0L401.184 0L635.272 0L668.679 0L768.95 0L802.214 0L1036 0L1069.6 0L1102.97 0L1136.53 0L1236.73 0L1254 0L1254 33.5916L1254 67.1659L1254 100.443L1254 133.973L1254 167.266L1254 267.452L1254 301.316L1254 334.292L1254 368.007L1254 401.372L1254 434.424L1254 601.867L1254 635.305L1254 668.7L1254 702.336L1254 735.678L1254 768.996L1254 802.582L1254 836.108L1254 869.646L1254 902.999L1254 936.386L1254 1036.94L1254 1070.34L1254 1103.79L1254 1137.13L1254 1170.69L1254 1204.09L1254 1237.78L1254 1254L1236.87 1254L1203.48 1254L1170.12 1254L1069.6 1254L1036 1254L935.627 1254L902.517 1254L802.14 1254L768.9 1254L735.344 1254L0 1254L0 66.828L0 33.5741L0 0Z"/><path fill="#F8F8F8" d="M735.312 367.956L769.011 367.945C768.912 378.883 768.665 390.153 769.064 401.056C780.041 401.45 791.028 401.445 802.005 401.042C801.178 408.804 801.842 426.073 802.626 434.284C811.599 435.167 826.434 434.724 835.801 434.663C835.682 444.897 835.212 458.255 835.939 468.227L869.112 468.221C868.971 479.567 868.825 490.073 869.21 501.413L902.462 501.423C902.46 512.186 902.197 524.177 902.582 534.842L935.677 534.842C935.688 536.743 935.523 539.863 936.022 541.557C936.143 539.516 936.245 537.808 936.214 535.767C944.411 535.802 960.208 536.283 967.752 535.373C958.826 534.796 944.786 535.02 935.695 535.121C935.623 524.601 935.242 511.724 936.05 501.442L969.251 501.448C969.266 509.587 968.79 518.974 969.205 526.895L969.415 521.378C969.551 525.865 969.609 530.353 969.591 534.842L1001.55 534.863C997.905 535.519 994.99 534.777 992.008 535.42C994.776 535.774 1000.87 535.513 1002.21 536.374C1003.19 538.649 1002.7 563.942 1002.68 568.322C1010.2 568.526 1030.14 567.921 1036.18 568.61C1035.99 579.686 1035.97 590.764 1036.12 601.841L1069.74 601.862C1069.61 613.085 1069.62 624.309 1069.77 635.532C1079.52 635.024 1092.91 635.408 1102.94 635.382C1102.76 646.461 1102.86 657.543 1103.24 668.617L1136.36 668.567C1136.27 657.769 1136.74 646.354 1136.75 635.367C1147.82 635.472 1158.88 635.458 1169.95 635.325L1169.92 601.88C1181.07 601.96 1192.22 601.94 1203.37 601.822C1203.25 612.992 1203.3 624.164 1203.53 635.332C1214.47 635.548 1225.79 635.398 1236.76 635.391L1236.73 601.9L1254 601.867L1254 635.305L1254 668.7L1254 702.336L1254 735.678L1254 768.996L1254 802.582L1254 836.108L1254 869.646L1254 902.999L1254 936.386L1254 1036.94L1254 1070.34L1254 1103.79L1254 1137.13L1254 1170.69L1254 1204.09L1254 1237.78L1254 1254L1236.87 1254L1203.48 1254L1170.12 1254L1069.6 1254L1036 1254L935.627 1254L902.517 1254L802.14 1254L768.9 1254L735.344 1254L735.346 1237.46C737.94 1237.56 739.129 1237.57 741.702 1237.29C740.3 1236.65 737.705 1236.86 735.99 1236.85L735.99 1205.02C741.724 1205.07 746.266 1205.09 752.024 1204.63C746.536 1204.23 740.787 1204.38 735.266 1204.41L735.342 1170.67C741.789 1170.76 763.522 1170.09 768.447 1171.06C768.808 1172.1 768.831 1172.19 769.335 1173.19C769.816 1172.37 769.576 1172.9 770.004 1171.5C778.415 1170.85 792.667 1171.32 801.507 1171.34C801.502 1181.75 801.362 1192.53 801.678 1202.91C802.646 1194.82 802.109 1179.66 802.192 1170.71C791.906 1171.11 779.377 1170.83 768.898 1170.86C769.014 1159.54 768.994 1148.22 768.837 1136.91C779.763 1137.21 791.143 1137.05 802.105 1137.05L802.105 1103.91L768.956 1103.96C769.12 1092.86 768.946 1081.36 768.928 1070.23C779.974 1070.42 791.023 1070.43 802.069 1070.27C802.199 1059.19 802.178 1048.11 802.007 1037.03C791.447 1036.64 779.56 1036.87 768.957 1036.91C768.674 1026.12 768.949 1014.21 768.97 1003.33C780.124 1003.37 791.278 1003.34 802.431 1003.27C802.479 999.37 802.39 996.144 802.189 992.25L802.121 997.445C801.506 988.952 801.789 978.284 801.807 969.608C791.047 969.189 780.015 969.511 769.108 969.244C768.537 975.74 768.418 996.651 769.308 1003.05C765.648 1003.72 740.962 1003.44 735.269 1003.55L735.328 903.185C724.996 903.044 714.052 903.488 703.845 903.031C703.228 901.473 703.587 901.816 702.509 900.726C702.184 902.262 702.386 901.498 701.901 903.018C692.662 903.653 678.255 903.171 668.637 903.149L668.637 936.214C656.351 936.101 647.013 936.554 634.364 936.214L634.38 848.188C690.585 846.402 744.162 823.976 784.882 785.193C833.12 739.494 855.838 682.357 857.657 616.655C895.469 616.197 933.459 616.761 971.276 616.647C983.896 616.608 981.865 601.904 973.508 601.597C960.983 601.137 947.837 601.442 935.265 601.458L857.04 601.434C855.834 585.756 854.042 573.061 850.004 557.737C837.672 512.167 812.026 471.311 776.347 440.396C762.072 428.26 750.803 421.115 734.766 411.752L734.766 402.284C733.569 402.295 725.756 401.857 725.551 401.885C724.644 401.682 734.802 401.364 735.323 401.37L735.312 367.956Z"/><path fill="#024A5A" d="M919.597 751.257C928.549 750.115 929.702 755.189 929.754 762.705L929.762 831.959C929.737 857.523 933.589 883.397 913.943 903.024C907.009 909.905 898.325 914.757 888.83 917.054C878.946 919.447 853.816 918.725 842.453 918.729L768.902 918.642C756.85 918.569 755.717 906.223 765.401 903.957C770.743 902.706 781.8 903.661 787.772 903.606L849.157 903.518C875.092 903.463 903.107 907.152 913.051 875.164C916.157 865.173 914.871 851.374 914.861 840.752L914.856 788.532C914.823 778.792 914.615 768.692 914.968 758.956C915.114 754.918 916.681 753.705 919.597 751.257Z"/><path fill="#024A5A" d="M619.129 384.868L619.13 311.922C619.115 304.388 617.931 273.104 621.043 269.317C622.475 267.608 624.582 266.608 626.812 266.58C636.338 266.457 634.335 279.278 634.313 285.365L634.359 308.982L634.362 384.943C671.423 386.016 702.093 394.969 734.766 411.752C750.803 421.115 762.072 428.26 776.347 440.396C812.026 471.311 837.672 512.167 850.004 557.737C854.042 573.061 855.834 585.756 857.04 601.434L935.265 601.458C947.837 601.442 960.983 601.137 973.508 601.597C981.865 601.904 983.896 616.608 971.276 616.647C933.459 616.761 895.469 616.197 857.657 616.655C855.838 682.357 833.12 739.494 784.882 785.193C744.162 823.976 690.585 846.402 634.38 848.188L634.364 936.214C634.353 943.036 636.923 959.097 627.62 959.875C625.511 960.035 623.43 959.313 621.873 957.882C619.477 955.655 619.214 952.281 619.188 949.19C619.102 938.751 619.149 928.287 619.148 917.848L619.148 848.244C561.801 846.002 507.335 822.523 466.332 782.367C421.836 739.047 396.65 679.641 396.451 617.541C358.987 616.427 320.846 618.153 283.327 617.37C272.34 617.141 272.324 602.386 283.281 602.383C294.667 602.379 306.063 602.463 317.459 602.45L396.82 602.479C401.086 549.078 420.96 499.067 457.63 459.455C499.337 414.015 557.493 387.156 619.129 384.868Z"/><path fill="#F8F8F8" d="M612.515 401.513C731.314 393.523 834.09 483.367 842.053 602.168C850.015 720.969 760.148 823.725 641.345 831.66C522.58 839.593 419.865 749.761 411.905 630.999C403.945 512.236 493.754 409.5 612.515 401.513Z"/><path fill="#024A5A" d="M623.138 543.401C664.055 542.195 698.187 574.415 699.34 615.333C700.493 656.251 668.228 690.342 627.309 691.442C586.464 692.539 552.45 660.346 551.299 619.504C550.149 578.661 582.297 544.604 623.138 543.401Z"/><path fill="#F8F8F8" d="M621.24 558.558C653.82 556.304 682.044 580.924 684.233 613.509C686.422 646.094 661.746 674.268 629.157 676.392C596.659 678.51 568.582 653.919 566.399 621.426C564.216 588.932 588.751 560.806 621.24 558.558Z"/><path fill="#F8F8F8" d="M167.18 0L401.184 0C401.125 10.9655 400.895 22.4252 401.274 33.3448L406.204 33.6442L406.49 34.0396L406.841 34.0624L401.921 34.5795C401.268 39.2347 402.009 48.0842 401.442 51.0062C401.137 44.8903 401.069 39.7805 401.111 33.682C392.748 33.6429 384.274 33.5656 375.92 33.7502C367.588 33.9342 358.882 34.7724 350.548 33.9161L357.284 33.2838C350.65 33.1092 345.909 33.0231 339.219 33.5204L342.272 33.8759C339.306 34.2337 337.905 34.3625 334.931 34.2891C334.879 45.2492 333.784 55.1866 334.418 66.4037C335.904 67.7162 336.048 67.2899 338.505 67.5019C337.348 67.5966 336.231 67.7663 335.094 68.0022C334.13 70.7511 334.633 95.3132 334.631 100.106C342.632 100.115 353.426 99.8158 361.208 100.309C341.237 100.619 321.264 100.76 301.291 100.73C301.284 110.183 301.756 125.013 301.141 134.026C305.447 133.929 332.405 134.532 334.095 133.129C334.264 131.205 334.392 129.278 334.478 127.349C335.505 128.096 334.291 130.366 335.33 133.336C344.601 134.04 358.407 132.674 366.862 133.763C365.737 134.267 338.014 134.196 334.502 134.216C334.416 145.263 334.415 156.311 334.5 167.358L301.231 167.339C301.335 178.694 300.918 189.491 301.324 200.961C290.028 200.807 278.731 200.807 267.435 200.962C267.527 189.758 267.54 178.554 267.475 167.35L234.217 167.356C234.315 156.311 234.264 145.266 234.065 134.223L200.711 134.036C200.415 123.946 200.427 110.142 200.751 100.092C191.765 99.3462 177.197 99.8164 167.813 99.8839C167.634 93.9046 166.367 72.6689 168.32 68.5263C169.04 67.8487 170.055 66.9658 171.08 66.9358C180.832 66.65 190.736 66.9974 200.524 66.7479L200.524 33.6564C189.378 33.5582 178.232 33.6088 167.088 33.8083L167.18 0Z"/><path fill="#F8F8F8" d="M1236.75 67.0535L1254 67.1659L1254 100.443L1254 133.973L1254 167.266L1237 167.303C1236.88 172.556 1237.31 200.588 1236.64 203.369C1236.48 201.573 1236.87 202.249 1235.91 201.03C1231.87 200.862 1206.01 200.907 1203.81 201.544C1203.49 202.536 1203.39 203.396 1203.32 204.436C1203.21 202.77 1203.42 202.331 1202.44 201.075C1195.61 200.516 1185.8 200.815 1178.8 200.825L1136.43 200.942C1136.48 189.673 1136.47 178.404 1136.4 167.135L1169.8 167.102L1169.8 134.09C1158.66 134.005 1147.53 134.045 1136.39 134.209L1136.47 100.256C1147.71 100.366 1158.94 100.346 1170.17 100.194C1170.07 111.39 1170.06 122.587 1170.15 133.782L1203.49 133.782L1203.49 100.293C1214.62 100.211 1225.75 100.241 1236.88 100.383C1236.3 90.3586 1236.7 77.2764 1236.75 67.0535Z"/><path fill="#F8F8F8" d="M133.525 100.233C144.767 100.318 156.009 100.328 167.25 100.264L167.252 133.908C178.405 133.788 189.559 133.831 200.711 134.036C200.559 145.096 200.269 156.315 200.909 167.347C190.58 167.361 177.27 167.768 167.177 167.232C166.799 157.024 167.105 144.522 167.069 134.117C155.877 134.034 144.685 134.036 133.493 134.121C133.575 122.825 133.586 111.529 133.525 100.233Z"/><path fill="#F8F8F8" d="M133.559 167.137C144.765 167.107 155.971 167.139 167.177 167.232C167.558 177.704 167.269 190.043 167.295 200.665L200.524 200.708L200.524 234.202C189.435 234.058 178.304 234.192 167.2 234.119C166.909 223.337 167.101 211.716 167.104 200.872L133.551 200.884C133.692 189.635 133.694 178.385 133.559 167.137Z"/><path fill="#F8F8F8" d="M1236.78 334.219C1242.52 334.276 1248.26 334.3 1254 334.292L1254 368.007C1248.3 367.97 1242.6 368.051 1236.9 368.249C1236.8 379.28 1236.8 390.311 1236.91 401.342C1225.82 401.201 1214.59 401.284 1203.49 401.276L1203.49 367.922C1214.58 368.038 1225.67 368.052 1236.76 367.964L1236.78 334.219Z"/><path fill="#F8F8F8" d="M1102.97 0L1136.53 0L1136.54 33.4638C1144.89 33.5727 1161.73 33.076 1169.24 34.0604C1159.46 34.6033 1147.02 34.2818 1137.05 34.2891C1137.06 40.9576 1137.09 47.3681 1136.79 54.0373C1136.22 47.5361 1136.39 40.2617 1136.38 33.6797L1103.21 33.755C1102.32 25.3005 1102.86 8.97185 1102.97 0Z"/><path fill="#F8F8F8" d="M33.5006 0L66.7833 0C66.7151 11.1564 66.7439 22.3131 66.8697 33.4689C72.7383 33.4746 77.5492 33.484 83.4306 33.9789C78.4674 34.4071 72.4128 34.2716 67.3535 34.2891C67.3959 42.6037 67.8827 58.1475 66.9412 65.8258C66.2493 57.4072 66.6858 42.653 66.6717 33.7724C55.505 33.5771 44.3357 33.5755 33.1689 33.7674C33.647 22.5757 33.5159 11.2136 33.5006 0Z"/><path fill="#F8F8F8" d="M768.95 0L802.214 0L802.316 33.4308C810.939 33.8004 827.281 32.973 834.332 34.0385C824.573 34.5677 812.656 34.282 802.731 34.2891C802.772 36.747 802.689 38.6348 802.529 41.0903C801.934 39.329 802.12 35.714 802.103 33.6587C791.059 33.515 780.013 33.5616 768.971 33.7987L768.95 0Z"/><path fill="#F8F8F8" d="M1036 0L1069.6 0L1069.73 33.6432C1058.48 33.6014 1047.24 33.6378 1035.99 33.7523C1036.27 22.7184 1036.04 11.0777 1036 0Z"/><path fill="#F8F8F8" d="M635.272 0L668.679 0C668.58 11.224 668.591 22.4486 668.71 33.6724C657.564 33.4628 646.416 33.5098 635.272 33.8135L635.272 0Z"/><path fill="#F8F8F8" d="M0 33.5741C11.0914 33.7107 22.1844 33.6614 33.2741 33.4261C33.2325 43.2659 32.5648 59.1211 34.1921 68.2762L33.6807 68.431L32.9514 66.9709C24.7253 66.441 9.0644 66.9093 0 66.828L0 33.5741Z"/><path fill="#F8F8F8" d="M1236.75 267.386L1254 267.452L1254 301.316C1248.27 301.134 1242.48 301.25 1236.74 301.304L1236.75 267.386Z"/><path fill="#F8F8F8" d="M1236.73 0L1254 0L1254 33.5916L1236.66 33.8114C1236.87 22.7174 1236.71 11.133 1236.73 0Z"/><path fill="#F8F8F8" d="M1236.73 401.372L1254 401.372L1254 434.424C1248.61 434.366 1242.12 434.727 1236.62 434.828C1236.8 423.789 1236.75 412.414 1236.73 401.372Z"/><path fill="#F8F8F8" d="M835.713 100.24C835.69 95.0688 835.272 71.3469 836.25 67.7942C836.416 78.4638 836.469 89.1349 836.408 99.8057C841.466 99.7792 864.302 99.3593 867.819 100.322C857.123 100.571 846.424 100.634 835.727 100.51C835.604 111.434 835.356 122.903 835.891 133.782L891.558 134.087C905.73 134.039 921.693 133.491 935.646 134.042L935.687 100.51C933.539 100.512 930.685 100.683 928.691 100.105L929.528 100.073C933.388 99.8987 933.305 98.904 935.671 98.6311L936.419 100.141C943.292 100.824 961.769 100.338 969.218 100.239C969.333 111.455 969.373 122.672 969.338 133.889L1002.55 133.931L1002.51 167.326C994.081 167.349 976.961 167.924 969.225 167.243C969.331 178.328 969.071 189.918 969.358 200.883L935.611 200.842C936.185 209.012 935.682 225.259 935.801 234.183C924.674 233.998 913.544 234.012 902.417 234.224C902.535 223.104 902.538 211.983 902.426 200.863C891.353 200.882 879.995 201.034 868.95 200.72C869.345 210.901 869.008 223.774 869.036 234.186C857.927 233.978 846.815 233.997 835.706 234.244C835.642 223.093 835.661 211.942 835.764 200.792C825.761 201.253 812.532 200.841 802.117 200.961L802.103 167.448C791.172 167.204 779.843 167.331 768.882 167.31C769.059 156.222 769.092 145.132 768.982 134.044C776.989 133.853 794.397 133.465 802.177 134.06L802.068 100.252C813.283 100.352 824.498 100.348 835.713 100.24Z"/><path fill="#F8F8F8" d="M668.457 100.248C679.758 100.332 691.059 100.318 702.359 100.207C702.208 111.456 702.212 122.706 702.371 133.955C710.126 133.954 728.446 133.414 735.352 134.08C735.479 145.131 735.495 156.183 735.398 167.234L702.288 167.342C702.271 178.134 701.994 190.142 702.372 200.839L668.595 200.848C668.864 211.843 668.324 222.928 668.665 234.195C657.534 234.026 646.401 234.018 635.27 234.171C635.292 225.618 635.804 208.583 634.848 200.845L601.558 200.882C601.697 189.644 601.724 178.406 601.637 167.169L635.017 167.231C635.226 156.139 635.205 145.045 634.953 133.954C646.066 133.918 657.519 133.742 668.599 134.059L668.457 100.248Z"/><path fill="#024A5A" d="M764.183 307.452C768.934 307.198 774.198 307.29 778.977 307.315C811.446 307.48 843.94 307.11 876.403 307.423C891.455 307.568 906.042 314.348 916.088 325.546C922.39 332.644 926.709 341.279 928.61 350.579C930.939 361.897 929.6 391.861 929.768 404.783C930.023 424.414 929.842 445.843 929.75 465.653C929.729 470.294 929.312 472.616 925.896 475.66C911.026 479.615 914.82 458.831 914.836 449.363L914.903 391.723C914.912 371.792 918.268 349.626 903.432 334.251C889.01 319.307 866.818 322.497 847.822 322.555L799.148 322.528C789.631 322.575 780.097 322.772 770.599 322.721C765.224 322.692 757.925 320.666 759.008 313.862C759.521 310.641 761.701 309.221 764.183 307.452Z"/><path fill="#024A5A" d="M376.636 307.634C382.76 307.253 392.089 307.482 398.402 307.468L441.681 307.444L468.537 307.407C473.178 307.362 479.97 307.461 484.477 307.385C496.328 307.186 498.608 321.33 488.508 322.324C478.942 323.265 466.522 322.739 456.597 322.733L388.932 322.703C373.961 322.729 361.671 323.108 350.203 334.634C339.324 345.569 338.67 358.669 338.751 373.047L338.791 436.226C338.82 446.942 338.893 457.719 338.761 468.446C338.52 472.535 336.842 475.837 332.518 476.409C320.821 477.956 323.778 459.278 323.806 451.293L323.898 420.548L323.846 380.721C323.837 371.953 323.376 360.557 324.999 352.202C326.79 342.654 331.013 333.73 337.258 326.29C347.806 313.855 360.777 308.831 376.636 307.634Z"/><path fill="#024A5A" d="M330.052 751.198C333.61 751.269 336.866 752.552 337.971 756.109C340.084 762.912 338.808 771.819 338.831 778.89C338.91 803.09 338.888 827.237 338.922 851.431C338.931 858.297 338.694 865.538 340.076 872.267C341.4 878.91 344.383 885.11 348.747 890.291C353.769 896.147 360.496 900.286 367.986 902.131C376.866 904.36 391.939 903.633 401.433 903.59L459.173 903.597C467.011 903.603 474.81 903.686 482.805 903.568C489.531 903.468 496.408 904.949 494.511 913.624C493.983 916.039 491.171 917.564 489.158 918.64C478.905 919.454 457.513 918.712 446.277 918.716L401.395 918.757C390.951 918.772 374.861 919.356 365.068 917.089C351.634 913.948 339.967 905.666 332.571 894.019C328.47 887.303 325.767 879.829 324.624 872.045C323.359 863.269 323.046 762.875 324.595 757.129C325.471 753.881 327.267 752.756 330.052 751.198Z"/><path fill="#F8F8F8" d="M267.466 635.429C277.488 635.421 289.177 635.139 299.06 635.621C293.927 636.665 274.539 636.214 268.189 636.185L268.189 668.024C273.967 668.004 279.618 667.877 285.374 668.445C279.705 668.876 273.438 668.796 267.709 668.843L267.617 689.608C267.614 693.861 267.653 698.113 267.736 702.365L234.141 702.359C234.577 692.103 234.222 679.278 234.23 668.821L200.773 668.823C200.555 678.607 199.974 692.802 200.94 702.375L167.053 702.34C167.218 691.092 167.212 679.842 167.036 668.594C178.24 668.668 189.445 668.669 200.649 668.595C200.727 657.542 200.724 646.488 200.642 635.435C211.794 635.466 222.946 635.437 234.098 635.348C234.079 645.505 233.634 658.762 234.434 668.553C245.277 668.772 256.531 668.623 267.428 668.678C267.547 657.595 267.56 646.512 267.466 635.429Z"/><path fill="#F8F8F8" d="M167.06 534.825C177.659 535.244 189.812 534.972 200.525 534.981C200.424 557.44 201.497 578.776 201.448 601.283C209.429 601.27 225.495 600.893 232.987 601.564C226.366 602.432 208.134 602.046 200.766 602.108C200.518 612.891 200.249 624.704 200.797 635.419C189.598 635.573 178.288 635.516 167.08 635.539C167.179 624.307 167.161 613.075 167.025 601.843C178.209 601.918 189.392 601.912 200.576 601.827C200.881 591.12 200.659 579.526 200.656 568.754L167.069 568.838C167.192 557.501 167.189 546.162 167.06 534.825Z"/><path fill="#F8F8F8" d="M1135.83 268.189C1126.12 268.183 1113.72 268.511 1104.23 267.947C1110.4 266.991 1129.13 267.448 1136.57 267.457C1136.55 278.543 1136.37 290.051 1136.57 301.105L1169.9 300.912C1169.91 298.947 1169.7 294.844 1170.41 293.245C1170.85 296.183 1170.79 297.65 1170.73 300.642C1174.78 300.64 1179.96 300.482 1183.87 301.058C1179.34 301.16 1174.67 301.325 1170.16 301.335C1170.15 310.939 1170.58 325.213 1170.01 334.371C1169.45 344.686 1169.83 357.201 1169.81 367.695C1159.39 367.681 1146.84 367.339 1136.59 367.845C1136.98 358.383 1136.98 343.953 1136.57 334.509C1136.24 323.601 1136.41 312.277 1136.43 301.333L1130.01 301.192L1129.7 300.784C1131.5 300.687 1134.71 300.907 1135.74 300.018C1135.91 289.41 1135.93 278.799 1135.83 268.189Z"/><path fill="#F8F8F8" d="M434.467 331.381L434.887 333.434C436.779 335.033 463.42 334.264 467.976 334.231C467.801 345.471 467.812 356.714 468.011 367.954L501.528 367.934L501.541 401.248L474.383 401.315L468.113 401.351C468.188 390.409 467.895 379.101 467.762 368.135C456.85 367.907 445.435 368.083 434.486 368.09C434.62 356.85 434.693 345.61 434.706 334.369C425.976 334.415 417.671 334.486 408.951 334.065C417.307 333.387 425.794 334.15 433.879 333.54L434.467 331.381Z"/><path fill="#F8F8F8" d="M1002.66 100.309L1036.1 100.293C1035.97 111.475 1035.97 122.658 1036.11 133.84L1069.64 133.946C1069.48 145.072 1069.54 156.2 1069.82 167.323L1035.96 167.398C1036.09 156.31 1036.1 145.222 1035.97 134.134C1024.87 133.979 1013.76 133.986 1002.66 134.154L1002.66 100.309Z"/><path fill="#F8F8F8" d="M333.706 938.349L334.046 938.481C334.858 940.591 334.48 965.349 334.532 969.966L301.118 970.095L301.268 1003.32L334.509 1003.39C334.471 1009.22 334.497 1015.06 334.149 1020.88C333.549 1015.39 333.695 1009.72 333.706 1004.18L316.255 1004.18C309.867 1004 307.796 1004.08 301.518 1005.15C300.621 1003.67 300.514 1003.42 300.076 1003.42C293.222 1003.49 272.897 1003.55 267.483 1003.56L267.467 969.852C277.775 969.924 288.106 969.932 298.41 969.808C301.948 969.765 299.997 969.117 301.53 967.469C302.036 968.268 301.789 967.749 302.211 969.14C311.066 969.731 324.509 969.297 333.706 969.278L333.706 938.349Z"/><path fill="#F8F8F8" d="M1069.64 234.819C1070.91 236.957 1070.33 262.508 1070.31 266.965C1080.3 266.941 1091.18 266.706 1101.07 267.306C1096.23 268.003 1075.64 267.648 1069.7 267.659C1069.6 276.929 1070.23 292.696 1069.51 301.182C1058.33 301.099 1047.14 301.139 1035.96 301.304C1036.06 290.027 1036.08 278.749 1036.03 267.472L1069.49 267.374L1069.64 234.819Z"/><path fill="#F8F8F8" d="M768.947 100.237C768.863 89.4196 768.903 78.6018 769.065 67.7855C770.195 70.9016 769.657 94.8734 769.667 99.8057C775.148 99.7953 780.845 99.6434 786.273 100.25C780.851 100.676 774.479 100.554 768.995 100.507C768.812 111.062 768.499 123.567 768.982 134.044C761.657 134.655 743.269 134.155 735.352 134.08L735.336 100.244C746.54 100.33 757.744 100.328 768.947 100.237Z"/><path fill="#F8F8F8" d="M400.992 167.137C412.213 167.207 423.434 167.205 434.655 167.132C434.336 178.294 434.385 189.464 434.801 200.623C440.348 200.624 444.711 200.713 450.228 201.129C446.725 201.544 442.452 201.429 438.869 201.448C436.568 201.451 437.493 201.058 435.734 202.077C434.705 204.888 435.249 209.492 435.211 212.889C434.319 208.655 434.566 205.18 434.645 200.866C423.431 200.806 412.218 200.817 401.004 200.898C401.206 189.645 401.202 178.39 400.992 167.137Z"/><path fill="#F8F8F8" d="M267.464 501.427L300.942 501.444C300.903 507.835 300.369 529.185 301.569 534.887C306.26 534.811 310.952 534.861 315.641 535.039L316.075 535.767C301.067 536.096 283.301 535.078 267.47 535.137C267.596 523.952 267.484 512.624 267.464 501.427Z"/><path fill="#F8F8F8" d="M133.564 434.628C144.786 434.71 156.01 434.707 167.232 434.62L167.246 468.405L133.538 468.424C133.801 457.368 133.523 445.77 133.564 434.628Z"/><path fill="#F8F8F8" d="M1002.34 401.06L1036.02 401.06L1036.02 434.736L1002.37 434.707L1002.34 401.06Z"/><path fill="#F8F8F8" d="M768.989 167.105C768.806 177.846 768.479 189.649 769.113 200.374C766.213 201.385 739.891 200.89 735.259 200.964L735.398 167.234C746.595 167.124 757.792 167.081 768.989 167.105Z"/><path fill="#F8F8F8" d="M66.6789 501.398L99.9957 501.431C100.68 509.777 100.269 525.806 100.414 535.003C96.5999 535.573 71.8543 535.159 66.6675 535.137L66.6789 501.398Z"/><path fill="#F8F8F8" d="M601.637 969.833C612.794 969.867 623.952 969.835 635.109 969.737C634.924 980.923 634.913 992.112 635.076 1003.3C629.578 1004.04 608.132 1003.6 601.593 1003.62L601.637 969.833Z"/><path fill="#F8F8F8" d="M467.8 969.819L501.518 969.779C501.51 978.746 502.038 995.106 501.303 1003.5C490.324 1003.66 479.112 1003.56 468.113 1003.58C468.206 992.326 468.102 981.07 467.8 969.819Z"/><path fill="#F8F8F8" d="M1069.85 367.845C1069.53 377.518 1069.94 387.883 1069.62 397.539C1069.59 398.582 1068.8 399.62 1068.12 400.377C1063.51 402.844 1042.66 401.128 1036.02 401.06L1036.02 367.995C1047.15 368.018 1058.76 368.206 1069.85 367.845Z"/><path fill="#F8F8F8" d="M634.858 1137.05L668.686 1137.02C668.39 1148.16 668.742 1159.59 668.53 1170.82C657.443 1170.74 646.356 1170.75 635.269 1170.84C635.288 1160.67 635.681 1146.89 634.858 1137.05Z"/><path fill="#F8F8F8" d="M1169.61 501.961L1170.15 502.049C1170.38 512.675 1170.02 524.192 1170.19 535.153L1137.09 535.162L1136.58 534.719C1135.96 525.681 1136.46 511.225 1136.5 501.79C1147.51 501.738 1158.6 502.199 1169.61 501.961Z"/><path fill="#F8F8F8" d="M869.173 367.951L902.228 367.946L902.225 401.236L887.076 401.243L869.061 401.246C869.111 404.541 869.22 406.233 868.579 409.531C868.12 397.327 866.682 403.62 863.909 401.375C866.977 400.744 867.203 401.772 868.844 400.131C869.419 389.737 869.19 378.428 869.173 367.951Z"/><path fill="#F8F8F8" d="M468.113 1170.66L501.493 1170.69C501.489 1175.47 501.936 1201 501.151 1204.41C490.146 1204.01 479.13 1204 468.124 1204.4L468.113 1170.66Z"/><path fill="#F8F8F8" d="M1136.59 367.845C1136.05 377.88 1136.43 390.813 1136.44 401.06C1132.61 400.989 1128.47 401.596 1124.8 401.476C1117.39 401.233 1110.18 401.082 1102.76 401.06L1102.76 367.995C1113.89 368.018 1125.5 368.206 1136.59 367.845Z"/><path fill="#F8F8F8" d="M1070.19 401.143C1080.18 400.723 1092.58 401.065 1102.76 401.06C1102.78 411.637 1103.14 424.361 1102.61 434.736L1069.7 434.736C1069.7 429.959 1069.1 404.466 1070.19 401.143Z"/><path fill="#F8F8F8" d="M200.686 367.95L234.063 367.945C233.972 379.039 234.012 390.135 234.184 401.229C223.019 401.182 211.854 401.225 200.69 401.358L200.686 367.95Z"/><path fill="#F8F8F8" d="M401.104 367.971L434.663 367.926C434.521 379.022 434.534 390.119 434.702 401.214L401.017 401.253C401.191 390.16 401.22 379.065 401.104 367.971Z"/><path fill="#F8F8F8" d="M434.699 802.653L467.863 802.691C467.769 813.823 467.824 824.955 468.027 836.085C458.021 835.965 444.474 835.6 434.628 836.338L434.699 802.653Z"/><path fill="#F8F8F8" d="M601.603 1103.76L635.068 1103.81C634.938 1114.95 634.955 1126.1 635.118 1137.24L601.696 1137.24C601.753 1126.08 601.722 1114.92 601.603 1103.76Z"/><path fill="#F8F8F8" d="M1070 334.618L1102.46 334.618L1102.46 367.695C1092.22 367.681 1079.92 367.348 1069.85 367.845C1070.23 357.034 1070.02 345.488 1070 334.618Z"/></svg>