<?xml version="1.0" encoding="utf-8" ?><svg xmlns="http://www.w3.org/2000/svg" xmlns:xlink="http://www.w3.org/1999/xlink" width="1254" height="1254" viewBox="0 0 1254 1254"><path fill="#F6F6F5" d="M0 0L83.6286 0L111.52 0L139.345 0L167.234 0L195.138 0L222.865 0L250.79 0L278.787 0L418.051 0L445.996 0L473.862 0L501.738 0L529.484 0L557.547 0L585.097 0L613.174 0L640.651 0L668.66 0L696.503 0L724.331 0L752.209 0L780.156 0L807.673 0L835.682 0L863.445 0L891.514 0L946.923 0L974.826 0L1002.82 0L1030.59 0L1058.58 0L1086.77 0L1114.34 0L1142.34 0L1170.2 0L1198.12 0L1225.94 0L1254 0L1254 83.7955L1254 111.339L1254 139.294L1254 167.164L1254 251.036L1254 279.137L1254 306.824L1254 334.891L1254 362.445L1254 390.512L1254 418.251L1254 446.254L1254 473.965L1254 501.435L1254 529.493L1254 557.283L1254 585.338L1254 613.057L1254 640.922L1254 668.658L1254 696.482L1254 724.441L1254 752.348L1254 780.076L1254 807.784L1254 835.738L1254 863.439L1254 891.393L1254 975.356L1254 1002.95L1254 1030.93L1254 1058.7L1254 1086.74L1254 1114.53L1254 1142.28L1254 1170.11L1254 1197.98L1254 1225.87L1254 1254L1225.84 1254L1198.24 1254L1170.26 1254L1142.19 1254L1114.32 1254L1086.46 1254L1058.61 1254L1030.54 1254L1002.71 1254L974.845 1254L946.672 1254L918.96 1254L891.274 1254L863.437 1254L835.675 1254L807.733 1254L780.131 1254L752.381 1254L724.278 1254L696.401 1254L668.654 1254L640.713 1254L613.008 1254L585.255 1254L557.211 1254L529.504 1254L501.499 1254L473.921 1254L446.219 1254L417.762 1254L390.11 1254L362.426 1254L334.699 1254L306.79 1254L278.609 1254L250.727 1254L222.872 1254L195.251 1254L167.186 1254L139.411 1254L111.453 1254L83.5857 1254L55.8287 1254L28.1273 1254L0 1254L0 1225.85L0 1198.24L0 1170.08L0 1086.75L0 1058.66L0 1030.82L0 1002.92L0 975.277L0 947.215L0 919.382L0 891.509L0 863.573L0 835.714L0 807.942L0 780.172L0 752.332L0 724.436L0 696.488L0 668.668L0 640.72L0 612.971L0 585.312L0 557.164L0 529.305L0 501.451L0 473.942L0 446.22L0 418.221L0 390.542L0 362.507L0 334.887L0 306.89L0 279.057L0 251.086L0 223.186L0 195.276L0 167.297L0 139.335L0 111.469L0 83.736L0 55.8607L0 28.0995L0 0Z"/><path fill="#004052" d="M624.572 449.001C628.435 444.839 632.423 432.689 635.498 426.986C658.01 385.162 716.104 372.207 752.835 403.47C757.142 406.377 764.625 416.243 769.192 417.599C793.781 424.898 815.053 424.525 837.508 439.353C877.982 466.079 873.268 527.636 825.183 542.163C820.031 543.719 813.935 545.683 809.535 548.879C789.069 564.26 750.531 613.642 751.484 639.71C752.273 661.315 770.242 708.026 785.083 723.637C791.604 730.498 823.254 730.993 835.796 734.625C847.173 738.816 854.92 744.424 860.087 755.819C863.085 762.432 863.366 772.436 860.614 779.23C858.616 784.164 854.887 788.301 849.872 790.255C841.576 793.488 794.3 791.827 781.728 791.846C783.064 799.441 783.559 807.546 778.851 814.164C772.462 823.146 762.185 822.494 752.522 822.316C734.302 822.246 715.684 822.691 697.499 822.332C675.071 821.888 662.557 808.402 648.387 792.959C648.926 805.988 646.733 820.503 630.426 821.948C619.665 822.902 608.172 822.383 597.291 822.372L535.678 822.328L467.164 822.361C441.79 822.371 414.696 825.076 393.504 808.238C383.861 800.526 377.705 789.277 376.408 776.998C374.735 761.855 380.628 750.302 389.717 738.855C386.591 717.881 387.916 690.451 392.668 669.61C407.743 603.496 446.832 549.7 503.37 513.227C518.545 503.671 529.437 497.86 545.81 490.52C570.562 479.425 607.517 470.634 624.572 449.001Z"/><path fill="#FCFCFC" d="M700.195 404.334C717.54 403.165 733.537 409.191 745.626 421.62C750.555 426.407 756.266 432.421 763.001 434.75C786.123 442.747 815.393 441.574 834.212 459.788C842.286 467.474 846.943 478.076 847.141 489.222C847.462 522.614 812.061 528.549 786.277 532.104C774.555 533.661 762.81 535.032 751.045 536.218C743.684 536.953 727.315 535.909 728.152 546.553C729.085 558.403 742.453 555.141 749.82 554.429C760.125 553.413 770.42 552.291 780.702 551.063C765.195 567.34 752.196 587.011 742.069 607.071C739.137 612.878 737.786 619.782 734.289 625.241C724.575 640.406 711.576 654.593 698.473 666.895C693.546 671.521 688.199 675.728 683.358 680.436C679.66 684.032 677.098 687.277 677.152 692.605C677.29 706.21 703.309 767.187 713.517 773.181C724.738 779.77 747.614 775.122 759.762 787.532C763.474 791.323 764.958 796.122 764.986 801.341C764.456 802.294 763.287 804.093 762.048 804.008C747.33 802.992 694.999 807.818 684.629 801.117C656.277 782.794 631.419 738.524 621.46 706.763C618.545 697.466 620.92 685.098 616.329 672.524C610.841 657.149 599.358 644.654 584.5 637.89C552.841 623.183 513.366 634.314 486.18 653.897C480.16 658.233 474.252 666.527 484.105 672.381C487.762 674.554 494.72 670.631 498.002 668.273C505.684 662.755 513.574 658.708 522.45 655.029C545.032 646.486 577.674 645.964 592.869 666.942C619.857 704.201 585.094 752.713 544.888 759.398C537.057 760.701 530.081 761.518 522.276 762.266C515.235 762.941 503.82 760.634 501.744 769.69C500.419 776.369 504.307 780.734 511.092 780.647C523.111 780.494 535.314 778.768 547.264 777.508C562.013 775.996 576.865 775.774 591.652 776.847C603.711 777.829 618.275 779.06 626.413 789.153C628.607 791.875 631.949 796.936 631.143 800.673C630.9 801.797 629.939 803.108 628.894 803.62C626.286 804.897 452.637 804.912 436.124 804.106C430.05 803.81 423.696 802.973 417.918 801.014C408.869 797.947 400.17 791.732 396.116 782.884C393.681 777.567 393.434 772.591 394.684 766.952C399.622 744.675 426.196 737.087 429.578 727.447C430.357 725.225 430.107 722.948 428.974 720.893C427.639 718.471 424.713 716.106 421.915 715.724C416.84 715.032 409.876 721.407 405.926 724.275C402.275 625.338 469.059 540.578 558.227 505.25C587.281 493.74 621.627 484.324 640.731 458.014C645.066 452.043 647.299 443.915 650.746 437.404C661.059 417.746 678.316 406.705 700.195 404.334Z"/><path fill="#004052" d="M705.042 435.168C723 431.757 740.318 443.563 743.707 461.525C747.096 479.486 735.269 496.79 717.303 500.157C699.368 503.517 682.101 491.715 678.718 473.785C675.335 455.854 687.116 438.573 705.042 435.168Z"/><path fill="#FCFCFC" d="M708.245 452.854C716.362 451.224 724.268 456.471 725.918 464.584C727.569 472.698 722.342 480.617 714.233 482.288C706.095 483.965 698.141 478.715 696.485 470.573C694.828 462.43 700.098 454.49 708.245 452.854Z"/><path fill="#FCFCFC" d="M735.683 653.74C741.6 679.335 756.447 729.579 781.971 743.099C796.021 750.541 824.337 745.404 838.642 755.933C842.985 759.13 847.07 768.925 842.997 773.33C839.435 774.509 809.951 773.797 804.415 773.782C793.207 773.908 781.996 773.803 770.792 773.468C755.793 761.804 742.535 760.733 723.924 758.139C720.873 752.37 717.412 746.899 714.306 740.886C706.562 726.001 700.132 710.469 695.089 694.467C709.99 681.53 723.051 668.847 735.683 653.74Z"/><path fill="#FCFCFC" d="M611.33 731.135C617.904 745.401 622.435 754.996 630.699 768.394C623.321 764.575 619.936 763.483 611.833 761.496C603.497 759.799 596.585 758.873 588.09 758.47C590.86 756.154 593.203 753.925 595.814 751.442C602.708 744.327 606.298 739.746 611.33 731.135Z"/><path fill="#FCFCFC" d="M613.229 919.693C622.428 919.466 631.629 919.429 640.829 919.582C640.473 928.146 640.765 938.638 640.774 947.348L668.636 947.369C668.676 956.603 668.665 965.837 668.605 975.071C659.423 975.346 649.99 975.196 640.781 975.15C640.834 984.457 640.835 993.764 640.783 1003.07L668.647 1003.05L668.639 1031.01C677.568 1031.03 687.936 1031.32 696.738 1031.04C696.584 1039.98 696.777 1049.86 696.361 1058.64L668.68 1058.62L668.624 1142.44C671.362 1142.45 675.158 1142.35 677.798 1142.56L676.716 1142.98L678.935 1142.86C678.37 1142.77 670.619 1143.18 669.249 1143.17L669.249 1169.5C673.528 1169.51 691.497 1169.3 694.434 1169.92C686.478 1170.35 676.738 1170.16 668.667 1170.13L668.58 1197.97C677.747 1197.98 687.377 1197.85 696.49 1198.28L696.437 1225.46C689.719 1226.28 675.67 1225.9 668.591 1225.82L668.654 1254L640.713 1254L613.008 1254L585.255 1254L557.211 1254L529.504 1254L501.499 1254L473.921 1254L446.219 1254L417.762 1254L390.11 1254L362.426 1254L334.699 1254L306.79 1254L278.609 1254L250.727 1254L222.872 1254L195.251 1254L195.215 1225.97C187.337 1225.5 175.536 1225.86 167.356 1225.85C167.286 1216.68 167.263 1207.51 167.286 1198.34C176.562 1198 185.975 1198.13 195.268 1198.18L195.281 1170.21C204.365 1170.18 213.732 1170.04 222.791 1170.26L222.927 1198.18C232.195 1198.12 241.464 1198.12 250.733 1198.2L250.733 1170.02C241.51 1170.14 232.286 1170.14 223.063 1170.02C222.771 1161.02 222.961 1151.36 222.993 1142.31C214.871 1142.34 206.682 1142.46 198.572 1142.12C202.621 1141.65 217.436 1141.96 222.267 1141.95L222.267 1115.01C220.071 1115.02 217.487 1115.15 215.361 1114.77L222.925 1114.48L222.926 1086.87L251.001 1086.84C250.501 1077.95 250.835 1067.74 251.015 1058.84L251.018 1030.96C250.666 1021.31 250.515 1012.7 250.84 1003.03L278.632 1003.04C278.658 1012.23 278.532 1021.84 278.715 1030.99C287.738 1030.8 297.751 1031.07 306.856 1031.12C306.296 1022.1 306.582 1012.1 306.672 1002.98L334.49 1003.06C334.57 1012.39 334.711 1021.79 334.68 1031.11C342.9 1031.04 354.526 1030.59 362.477 1031.03C362.428 1021.71 362.427 1012.38 362.472 1003.05L390.35 1003.05L390.35 975.292L418.065 975.41C418.18 984.619 418.19 993.828 418.096 1003.04L445.89 1003.07C446.082 1012.39 446.089 1021.72 445.91 1031.05C450.366 1031.04 469.05 1030.81 472.155 1031.52C455.617 1032.42 435.71 1030.88 418.196 1031C417.951 1022.08 417.47 1011.77 418.02 1002.91L390.076 1002.93C390.185 1012.3 390.189 1021.68 390.088 1031.05C399.435 1031.02 408.782 1031.04 418.129 1031.11L418.044 1058.77L445.993 1058.77C446.066 1068.13 446.038 1077.48 445.908 1086.84C455.045 1086.81 464.804 1086.96 473.884 1086.74C473.795 1077.5 473.791 1068.26 473.869 1059.02C481.373 1058.35 493.739 1058.74 501.64 1058.78L501.494 1086.91C510.265 1086.8 521.145 1087.11 529.614 1086.7C529.475 1077.43 529.457 1068.17 529.561 1058.9C538.772 1058.79 547.984 1058.75 557.195 1058.79L557.207 1086.78C565.989 1086.78 576.754 1087.09 585.302 1086.74C585.117 1077.38 585.078 1068.02 585.185 1058.66L557.375 1058.61L557.298 1030.91C548.151 1030.83 538.806 1030.96 529.642 1030.99L529.395 1058.63L501.767 1058.65C501.378 1049.52 501.569 1040.28 501.66 1031.13L529.654 1030.74C529.347 1021.69 529.522 1012.12 529.552 1003.02L557.274 1003.04C557.14 1012.32 557.214 1021.81 557.186 1031.12C566.584 1031.01 575.983 1031.01 585.381 1031.12C584.969 1022.26 585.156 1012.02 585.119 1003.06L613.223 1003.08C612.89 994.217 613.136 984.092 613.157 975.137C603.928 975.246 594.562 975.162 585.321 975.161C584.739 967.241 585.208 955.403 585.359 947.343C594.547 947.182 604.018 947.335 613.229 947.376L613.229 919.693Z"/><path fill="#FCFCFC" d="M278.674 279.148C278.646 288.395 278.675 297.643 278.761 306.891C287.748 306.894 297.863 307.12 306.759 306.803C306.656 316.205 306.603 325.608 306.6 335.012L334.492 335.035C334.486 343.796 334.814 353.811 334.526 362.396C325.244 362.537 315.96 362.566 306.677 362.481L306.665 390.367C297.331 390.54 287.995 390.551 278.661 390.399C278.667 399.297 278.452 409.313 278.788 418.121C269.475 418.281 260.16 418.311 250.846 418.211C250.849 427.38 250.717 436.921 250.906 446.058C259.368 446.038 270.597 445.695 278.784 446.474L278.646 473.884L250.801 473.863L250.851 501.804C260.124 501.674 269.397 501.607 278.671 501.604L278.696 529.529C286.972 529.56 298.791 529.975 306.778 529.536C306.65 538.754 306.64 547.974 306.749 557.192C316.002 557.398 325.258 557.428 334.513 557.28C334.647 566.523 334.92 575.979 334.353 585.188C326.073 585.195 314.797 584.857 306.764 585.299C306.35 593.543 306.682 604.795 306.67 613.275C315.802 612.967 325.323 613.084 334.489 613.076C334.31 622.265 334.667 631.334 334.36 640.626C325.171 640.901 315.688 640.744 306.469 640.699C307.079 647.92 306.657 661.031 306.632 668.591L278.911 668.597C278.951 677.333 278.906 686.069 278.774 694.803C278.299 687.04 278.612 676.032 278.599 668.024L251.657 668.024C251.734 649.171 250.628 631.635 250.733 612.879C244.244 612.915 228.236 612.529 222.795 613.343L222.866 696.296C213.684 696.49 204.498 696.518 195.315 696.378C195.192 687.165 195.271 677.821 195.272 668.597L167.159 668.645C167.276 677.91 167.276 687.177 167.161 696.442L139.296 696.528L139.266 668.616C130.031 668.692 120.796 668.693 111.561 668.618C111.278 659.601 111.452 649.853 111.456 640.781C103.45 640.839 91.037 640.352 83.5853 641.009C83.5002 631.946 83.3435 622.302 84.0151 613.303C93.2029 613.1 102.393 613.056 111.583 613.17C111.284 603.921 111.437 594.45 111.485 585.178C102.267 585.144 93.0496 585.176 83.8326 585.275C83.0261 579.089 83.6089 564.158 83.7448 557.239C91.5664 557.704 103.42 557.308 111.545 557.293C111.25 548.151 111.482 538.506 111.571 529.316C102.36 529.511 93.1471 529.532 83.936 529.377C83.3737 519.715 83.5282 511.133 83.8092 501.51C76.8962 500.984 63.4579 501.428 56.0532 501.434C55.6509 492.614 55.8766 482.831 55.9164 473.924C46.6746 473.83 37.4321 473.842 28.1906 473.962L28.1486 501.431L0 501.451L0 473.942L0 446.22L0 418.221C8.84533 418.257 19.3621 418.567 28.0728 418.218L28.1503 446.184L55.9992 446.347C55.6473 437.332 55.8645 427.393 55.8955 418.303L83.8212 418.227C83.2472 409.247 83.5453 399.609 83.64 390.555C93.0335 390.439 102.105 390.611 111.392 390.574C111.405 399.481 111.19 409.418 111.445 418.232C120.699 418.34 129.954 418.373 139.209 418.33L139.172 446.373C148.394 446.307 158.084 446.088 167.268 446.24L167.2 418.233C176.559 418.339 185.919 418.358 195.278 418.287C195.387 409.091 195.22 399.562 195.183 390.338L222.952 390.338L222.943 362.393L195.265 362.493L195.188 334.934L222.951 334.947L222.941 306.954C232.064 306.725 241.767 306.87 250.935 306.853L250.808 279.308L278.674 279.148Z"/><path fill="#FCFCFC" d="M390.35 139.539L417.752 139.257C418.525 147.223 418.134 158.957 418.06 167.286L446.001 167.311L445.892 195.363L473.911 195.352C473.575 186.392 473.835 176.366 473.893 167.324C483.129 167.354 492.366 167.323 501.602 167.231C501.552 157.935 501.551 148.639 501.599 139.343L529.331 139.35C529.408 148.361 529.692 158.249 529.508 167.186C538.6 167.251 548.226 167.47 557.273 167.249C557.183 176.568 557.166 185.888 557.219 195.207C548.847 195.204 537.722 194.873 529.573 195.323L529.46 222.859C520.327 223.067 510.676 223.247 501.541 222.957C501.54 230.634 501.115 243.893 501.63 251.225C507.236 251.164 525.352 251.526 529.499 250.943L529.653 223.38C538.837 223.268 548.021 223.205 557.205 223.191C557.205 230.989 556.8 243.585 557.315 250.992C566.471 251.626 575.591 250.664 585.051 251.481L585.051 278.929C576.124 279.349 566.346 279.169 557.347 279.165C557.04 288.442 557.246 297.559 557.138 306.803C548.238 307.288 539.44 307.164 530.529 307.127C529.467 305.929 529.9 306.554 529.193 305.278C526.651 305.578 505.932 306.605 505.945 306.598C512.832 307.372 522.163 306.81 529.397 307.061C529.715 316.179 529.52 325.866 529.469 335.034L557.162 334.932C557.221 341.063 557.724 356.119 556.938 361.483C555.543 362.85 554.8 362.386 552.22 362.549L552.597 363.085C554.528 363.116 555.492 362.729 556.53 363.714C556.653 371.385 556.33 380.937 556.914 388.304C557.646 381.598 557.378 369.792 557.288 362.789C565.412 362.569 577.092 362.237 585.051 362.92L585.051 390.338L557.175 390.34L557.181 418.297L585.047 418.308L585.204 446.355C594.531 446.118 603.863 446.119 613.19 446.358C613.242 448.253 613.117 451.232 613.864 452.808C614.246 450.346 614.203 449.497 614.144 446.972C617.442 446.906 622.592 445.996 624.572 449.001C607.517 470.634 570.562 479.425 545.81 490.52C529.437 497.86 518.545 503.671 503.37 513.227C501.279 510.425 500.639 506.467 501.583 503.119C503.952 501.181 503.317 502.79 507.149 501.799C505.042 501.218 503.406 501.961 501.841 500.768C501.155 493.09 501.507 481.754 501.551 473.756C492.298 473.913 483.044 473.932 473.79 473.813L473.801 501.403L446.067 501.43C445.878 492.396 446.001 482.954 445.986 473.887C436.727 473.781 427.466 473.807 418.208 473.966L418.044 501.445L390.343 501.453C389.841 493.679 390.18 482.117 390.1 473.929C380.891 473.824 371.68 473.828 362.471 473.942C362.165 482.661 362.376 492.624 362.356 501.439L334.893 501.436C334.056 495.336 334.454 480.722 334.494 473.905L306.705 473.799L306.682 501.561C299.754 501.007 286.357 501.416 278.945 501.409L278.911 474.05L306.814 473.899C306.444 464.521 306.624 455.69 306.793 446.297L334.585 446.283C334.27 437.065 334.514 427.587 334.646 418.343L362.312 418.282C361.592 409.977 362.26 393.289 362.372 384.491C362.501 368.007 362.516 351.521 362.416 335.036C371.704 334.858 380.994 334.874 390.281 335.085L390.172 307.013C380.933 307.193 371.69 307.107 362.456 306.755C362.273 297.754 362.413 288.347 362.42 279.314C371.646 279.128 380.875 279.136 390.101 279.34C390.278 288.526 390.258 297.715 390.041 306.9L418.234 306.888C417.889 298.457 417.779 287.52 418.154 279.165C409.369 278.837 399.131 279.084 390.236 279.083C390.056 269.988 390.222 260.345 390.223 251.205C399.58 251.14 408.937 251.145 418.295 251.218C417.673 246.524 417.563 229.15 417.854 224.37L419.585 222.884L419.521 222.207C418.686 212.731 418.783 205.531 418.816 195.937C426.647 195.958 436.332 196.137 444.047 195.704C441.034 194.893 422.144 195.276 418.183 195.311C417.808 187.707 417.688 174.571 418.031 167.132L390.35 167.19L390.35 139.539Z"/><path fill="#FCFCFC" d="M1170.2 251.129C1179.51 251.078 1188.81 251.084 1198.12 251.147C1198.19 260.5 1198.2 269.854 1198.17 279.207L1225.88 279.236C1225.92 288.373 1226.06 297.75 1225.91 306.865C1216.67 307 1207.36 306.719 1198.26 306.865C1198.14 316.222 1198.12 325.579 1198.19 334.935C1207.43 335.011 1216.67 334.979 1225.9 334.838C1226.23 326.153 1225.98 315.812 1226 306.995C1234.69 306.617 1245.18 306.856 1254 306.824L1254 334.891L1254 362.445L1254 390.512L1254 418.251L1254 446.254L1254 473.965L1254 501.435L1254 529.493L1254 557.283C1244.65 557.165 1235.29 557.147 1225.94 557.231L1225.9 585.21L1198.22 585.217C1197.83 593.457 1198.13 604.463 1198.1 612.873C1188.86 612.984 1179.62 612.98 1170.39 612.86C1170.08 604.004 1170.34 594.277 1170.19 585.244C1163.03 584.726 1149.91 585.164 1142.31 585.173L1142.26 557.51C1151.59 557.517 1160.93 557.446 1170.26 557.297C1170.35 548.052 1170.32 538.807 1170.19 529.562L1142.39 529.38C1142.33 520.055 1142.31 510.731 1142.34 501.406L1114.56 501.405C1114.27 492.494 1114.38 482.906 1114.31 473.942C1105.99 473.565 1095.3 473.871 1086.79 473.868C1086.16 464.867 1086.52 455.101 1086.72 446.058L1114.5 446.058L1114.33 418.164C1105.08 418.291 1095.83 418.288 1086.58 418.155C1086.68 427.456 1086.68 436.757 1086.59 446.058L1058.74 446.058C1058.64 442.655 1057.56 422.856 1059.15 418.656C1059.61 417.424 1059.89 419.472 1061.26 417.773L1058.24 417.16C1057.63 411.318 1058.05 397.669 1058.06 391.263C1054.94 391.334 1053.78 391.389 1050.74 390.944C1052.62 390.3 1056.23 390.572 1058.37 390.61L1058.36 362.407C1049.14 362.529 1039.92 362.563 1030.7 362.509C1030.31 353.922 1030.53 343.694 1030.51 334.983L1058.64 334.892C1058.54 344.122 1058.52 353.352 1058.58 362.582C1067.49 362.589 1077.93 362.866 1086.71 362.549C1086.64 368.325 1086.48 373.369 1087.08 379.142C1087.19 372.782 1087.5 369.061 1088.34 362.75C1088.06 362.467 1086.34 360.734 1086.34 360.438C1086.34 355.099 1086.35 349.757 1086.5 344.42L1086.79 335.273C1094.4 334.584 1106.3 334.945 1114.36 334.891C1114.55 325.735 1114.5 316.327 1114.55 307.15C1123.09 306.655 1133.68 306.877 1142.38 306.841C1142.28 297.664 1142.25 288.487 1142.31 279.311L1170.21 279.22C1170.3 269.856 1170.29 260.492 1170.2 251.129Z"/><path fill="#FCFCFC" d="M1170.28 975.413C1179.57 975.318 1188.85 975.317 1198.14 975.411C1198.16 984.31 1197.96 994.173 1198.24 1002.99C1207.41 1003.01 1216.73 1003.12 1225.88 1003.02L1225.92 1031.03L1254 1030.93L1254 1058.7L1254 1086.74L1254 1114.53L1254 1142.28L1254 1170.11L1254 1197.98L1254 1225.87L1254 1254L1225.84 1254L1198.24 1254L1170.26 1254L1142.19 1254L1114.32 1254L1086.46 1254L1086.42 1225.98L1114.35 1225.89L1114.4 1198.1L1142.25 1198.25L1142.25 1169.99C1132.99 1170.19 1123.72 1170.2 1114.46 1170.03C1113.83 1142.84 1114.89 1114.61 1114.43 1087.36C1114.36 1083.36 1114.77 1061.3 1113.93 1058.77C1112.12 1058.73 1112.25 1058.96 1110.71 1058.32C1111.81 1057.99 1111.32 1058.09 1112.56 1057.92L1113.49 1057.8C1115.4 1049.06 1114.57 1040.06 1114.4 1030.99C1121.99 1031.17 1135.05 1031.38 1142.39 1030.8C1142.26 1021.61 1142.33 1012.27 1142.3 1003.06L1170.25 1002.98L1170.28 975.413Z"/><path fill="#FCFCFC" d="M0 919.382L27.8398 919.427C28.0244 928.694 28.1241 937.961 28.139 947.229L55.83 947.367L55.9328 975.266C64.0294 975.344 76.0492 975.716 83.7915 975.247L83.7564 1002.98C91.9904 1003.01 103.517 1003.4 111.482 1002.97L111.389 1030.97C102.281 1030.96 92.7875 1030.8 83.7141 1030.94C83.7071 1040.13 83.8286 1049.66 83.6277 1058.81L111.514 1058.81C111.55 1068.15 111.508 1077.49 111.387 1086.83L139.246 1086.87C139.295 1096.05 139.429 1105.36 139.357 1114.52C148.633 1114.74 157.913 1114.75 167.189 1114.55L167.179 1142.29C176.018 1142.65 186.096 1142.35 195.033 1142.27C195.508 1150.64 195.281 1161.48 195.09 1169.99C185.82 1170.19 176.546 1170.19 167.275 1169.98L167.23 1142.3C157.972 1142.44 148.712 1142.37 139.457 1142.07C139.399 1133.09 139.544 1123.25 139.241 1114.34C129.902 1114.63 120.754 1114.48 111.412 1114.37C111.413 1123.61 111.508 1133.02 111.377 1142.25L139.084 1142.25C139.177 1151.51 139.208 1160.77 139.176 1170.03L111.505 1170.11C111.484 1179.25 111.577 1188.67 111.376 1197.8C101.953 1198.17 93.0119 1198.14 83.5735 1198.08L83.5735 1225.83L56.0731 1225.82C55.7198 1216.56 55.8352 1207.3 55.8817 1198.03C46.7411 1198.07 37.1846 1198.24 28.0805 1198.02C28.0851 1207.03 28.275 1216.78 28.0179 1225.73C18.6794 1225.88 9.33945 1225.92 0 1225.85L0 1198.24L0 1170.08L0 1086.75L0 1058.66L0 1030.82L0 1002.92L0 975.277L0 947.215L0 919.382Z"/><path fill="#FCFCFC" d="M1086.77 0L1114.34 0L1142.34 0L1170.2 0L1198.12 0L1225.94 0L1225.87 28.0092C1217.03 28.0227 1206.97 27.7906 1198.23 28.0742L1198.15 55.8903L1225.92 56.032L1225.92 83.5735C1217.11 83.6349 1207.04 83.92 1198.34 83.4854C1198.24 74.3346 1198.22 65.1832 1198.26 56.032L1170.43 56.032C1170.42 60.9789 1169.37 80.282 1171.43 82.9722C1174.56 84.8455 1192.72 83.7923 1198.15 83.8641C1198.15 92.9157 1198.29 102.33 1198.13 111.35L1170.32 111.352L1170.25 83.6337C1160.92 83.7058 1151.59 83.7009 1142.26 83.6189L1142.26 111.582L1170.09 111.575C1170.12 120.744 1170.26 130.146 1170.15 139.293C1179.21 139.316 1189.2 139.556 1198.19 139.32C1198.18 148.437 1198 158.169 1198.19 167.232L1225.85 167.285L1225.87 195.214C1216.94 195.224 1207.09 195.02 1198.24 195.287C1198.1 204.5 1198.05 213.713 1198.1 222.926C1188.87 223.082 1179.64 223.112 1170.4 223.016C1170.03 213.963 1170.5 204.562 1170.18 195.299C1160.89 195.172 1151.59 195.147 1142.3 195.223C1142.3 204.247 1142.48 213.975 1142.24 222.941L1114.4 222.972C1114.52 213.754 1114.49 204.534 1114.29 195.317C1123.04 195.628 1133.38 195.366 1142.25 195.371L1142.25 167.15L1114.51 167.144C1114.37 162.144 1115.19 142.296 1113.83 139.447L1111.58 139.162L1111.38 138.561L1113.11 138.414C1114.44 137.114 1113.41 121.247 1113.97 117.569C1114.83 118.462 1113.61 124.22 1114.7 126.893C1115.33 124.833 1115.02 114.854 1115.01 112.052C1120.75 112.126 1126.5 112.045 1132.25 111.809C1127 111.202 1120.01 111.317 1114.6 111.254C1113.93 83.9522 1114.52 55.561 1114.3 28.0956C1106.54 27.6793 1094.94 28.0623 1086.85 28.0254C1086.06 19.8129 1086.58 8.37841 1086.77 0Z"/><path fill="#FCFCFC" d="M835.543 1086.85L863.362 1086.78C863.395 1095.91 863.575 1105.52 863.293 1114.61L891.278 1114.7C891.273 1123.79 891.383 1133.18 891.183 1142.25L919.081 1142.25C918.966 1133.13 918.957 1124 919.055 1114.88L946.764 1114.49C946.68 1123.67 946.696 1132.86 946.813 1142.04C937.523 1142.26 928.23 1142.31 918.937 1142.2C918.884 1151.51 918.91 1160.81 919.015 1170.11L946.669 1170.22C946.691 1179.28 946.557 1188.82 946.773 1197.84C938.007 1198.02 927.57 1197.77 919.113 1198.15C918.731 1207.12 918.936 1216.84 918.97 1225.87C909.929 1225.89 900.388 1225.74 891.393 1225.93C891.281 1235.29 891.241 1244.64 891.274 1254L863.437 1254L835.675 1254L807.733 1254C807.606 1244.72 807.711 1235.25 807.671 1225.94C799.288 1225.58 788.823 1225.86 780.276 1225.86C780.166 1218.41 779.771 1205.17 780.48 1198.15C789.495 1198.04 798.684 1198.13 807.711 1198.14L807.686 1170.13C798.54 1170.22 789.393 1170.16 780.249 1169.96L780.164 1142.38C789.435 1142.61 798.483 1142.17 807.721 1142.25L807.683 1114.87C816.649 1114.72 826.956 1114.95 835.678 1114.66C835.682 1120.44 835.361 1136.62 836.147 1141.54C837.425 1132.75 835.841 1115.74 835.462 1106.44C835.197 1099.97 835.436 1093.33 835.543 1086.85Z"/><path fill="#FCFCFC" d="M418.051 0L445.996 0L473.862 0L501.738 0L529.484 0L557.547 0L585.097 0L613.174 0L640.651 0L668.66 0C668.663 9.04766 668.448 19.0927 668.735 28.0579L696.49 28.1922L696.428 55.6877C687.165 55.8117 677.9 55.8291 668.636 55.7399L668.682 83.2805C659.418 83.8814 650.221 83.686 640.949 83.5623C640.51 74.2374 640.674 65.1465 640.798 55.8161L613.258 55.7176C613.111 46.5032 613.021 37.288 612.987 28.0724L585.166 27.9576C585.251 36.934 585.48 46.8398 584.951 55.7898L557.239 55.8295C557.685 47.6508 557.383 36.386 557.232 28.0574C548.008 27.9721 538.782 27.979 529.558 28.078C529.476 37.3129 529.454 46.5481 529.49 55.7832C521.156 55.7881 509.815 55.4459 501.629 55.849C501.603 64.6404 501.286 75.195 501.609 83.8405C493.519 83.3633 482.285 83.6314 473.952 83.5735C473.764 74.3239 473.744 65.0716 473.891 55.8213C465.352 55.8173 456.601 55.9183 448.093 55.5467C451.265 54.8891 468.799 55.1094 473.312 55.1074L473.312 28.7783C454.645 28.8627 436.755 27.822 418.177 28.1283C418.009 18.8764 417.696 9.20999 418.051 0Z"/><path fill="#FCFCFC" d="M835.796 734.625C835.914 726.169 835.96 704.069 835.329 696.685C843.757 696.288 854.736 696.679 863.351 696.746L863.337 724.554L891.388 724.333C891.3 732.728 891.68 744.537 891.17 752.495C900.43 752.479 909.754 752.408 919.007 752.505C918.771 761.659 918.687 770.815 918.757 779.971C909.591 780.162 900.422 780.201 891.254 780.089C891.323 789.221 891.49 798.553 891.246 807.663L863.544 807.972C863.469 805.35 863.506 801.324 862.937 798.892C862.63 811.052 863.753 822.882 863.229 835.69C854.178 835.691 844.736 835.548 835.719 835.713L835.651 863.54C844.907 863.648 854.163 863.655 863.418 863.561L863.375 891.404C854.646 891.14 844.564 891.391 835.723 891.389L835.65 919.142C826.368 919.436 817.08 919.444 807.799 919.169C807.534 910.092 807.665 900.581 807.664 891.467C810.717 891.495 813.771 891.455 816.823 891.348L816.508 890.953L814.689 890.95C811.271 890.929 809.712 891.384 807.433 889.083C806.589 884.058 806.911 870.877 806.979 865.27C807.958 864.798 807.735 864.879 808.569 864.135C807.506 853.797 807.622 846 807.697 835.604L780.246 835.671C780.282 830.188 780.21 826.249 779.764 820.804C779.353 825.282 779.484 831.192 779.464 835.796L751.91 835.796C751.762 831.535 752.433 826.824 752.522 822.316C762.185 822.494 772.462 823.146 778.851 814.164C783.559 807.546 783.064 799.441 781.728 791.846C794.3 791.827 841.576 793.488 849.872 790.255C854.887 788.301 858.616 784.164 860.614 779.23C863.366 772.436 863.085 762.432 860.087 755.819C854.92 744.424 847.173 738.816 835.796 734.625Z"/><path fill="#FCFCFC" d="M167.224 83.843L195.158 83.8579L195.178 111.829C203.861 111.517 213.873 111.345 222.567 111.689L222.567 138.681C219.535 138.695 213.16 138.558 210.43 138.91L222.879 138.993L222.879 167.159C215.226 167.169 204.703 166.878 197.276 167.373L222.913 167.471L222.925 195.269C213.86 195.079 204.371 195.249 195.274 195.285L195.108 222.888L167.348 222.983L167.214 195.279C158.698 194.933 148.175 195.235 139.505 195.247C139.322 186.058 139.418 176.56 139.327 167.32L167.208 167.247C167.305 157.934 167.313 148.619 167.232 139.305L139.427 139.305C139.312 130.122 139.402 120.788 139.407 111.592L167.342 111.511C167.4 102.288 167.361 93.0649 167.224 83.843Z"/><path fill="#FCFCFC" d="M83.6286 0L111.52 0L139.345 0L167.234 0L195.138 0L222.865 0L222.906 27.9882C213.706 27.9747 204.507 28.0107 195.308 28.0964C195.004 36.9179 195.233 47.1017 195.214 56.032L222.886 56.032L222.884 83.7551C213.696 83.7948 204.508 83.7096 195.322 83.4997C194.998 74.6561 195.206 64.6771 195.201 55.7476C185.93 55.8179 176.66 55.8245 167.389 55.7673C167.138 46.8041 167.293 37.1261 167.24 28.0854C158.452 27.7961 148.335 28.0234 139.439 28.0051C139.295 37.3151 139.22 46.6261 139.213 55.9373C148.463 55.9081 157.967 55.765 167.195 55.9032C167.191 64.6882 166.899 75.2075 167.224 83.843C162.27 83.2625 145.342 83.663 139.51 83.6582C139.385 74.3572 139.32 65.0554 139.315 55.7535C130.07 55.8504 120.825 55.8445 111.58 55.7356C111.367 46.6455 111.455 37.1662 111.466 28.0578C93.5674 27.5235 75.4088 29.5527 58.1038 28.5581C60.9986 27.8889 79.7065 28.1012 83.9498 28.099C83.1886 19.5703 83.4902 8.58372 83.6286 0Z"/><path fill="#FCFCFC" d="M0 83.736L28.0344 83.8447C27.9964 93.046 28.0246 102.247 28.1191 111.448C37.3501 111.566 46.5821 111.593 55.8137 111.528L55.8473 138.98C46.4414 139.456 37.522 139.333 28.0977 139.244L28.1328 167.231C36.5962 167.287 47.5462 167.595 55.8717 167.187L55.8803 195.192C47.3628 195.207 36.4789 194.9 28.1646 195.289C28.0448 204.505 28.0173 213.721 28.0821 222.937L0 223.186L0 195.276L0 167.297L0 139.335L0 111.469L0 83.736Z"/><path fill="#FCFCFC" d="M946.923 0L974.826 0L1002.82 0L1030.59 0L1058.58 0C1058.56 9.29723 1058.6 18.6901 1058.46 27.978C1049.69 28.0073 1039.36 27.7648 1030.73 28.0929C1022.21 28.4441 1011.64 28.1582 1002.96 28.166C1003.06 37.5582 1002.76 45.8552 1002.96 55.7197L974.789 55.7197L974.828 27.9365C965.964 27.6477 955.883 27.8737 946.923 27.866L946.923 0Z"/><path fill="#FCFCFC" d="M28.1667 501.699C36.1467 501.695 48.2183 502.081 55.8589 501.607L55.8379 529.315C46.5903 529.542 37.3389 529.566 28.0903 529.388L28.1417 557.202C37.3683 557.4 46.5975 557.437 55.8254 557.314L55.953 585.141C46.6737 585.134 37.3944 585.175 28.1155 585.265C28.1072 594.155 28.31 604.07 27.9842 612.877L0 612.971L0 585.312L0 557.164L0 529.305C9.21992 529.499 19.0336 529.72 28.2494 529.48C28.0889 520.22 28.0613 510.959 28.1667 501.699Z"/><path fill="#FCFCFC" d="M752.209 0L780.156 0L807.673 0L835.682 0C835.666 9.18354 835.784 18.7666 835.529 27.9147C826.364 27.961 816.897 27.8915 807.761 28.1406C807.421 36.7509 807.662 47.0462 807.634 55.791C798.591 55.8604 789.548 55.8465 780.505 55.7491C779.804 48.2718 780.217 36.222 780.046 28.1132C771.599 27.7425 760.997 27.9942 752.413 27.9548C752.276 18.6372 752.208 9.31864 752.209 4.24872e-18L752.209 0Z"/><path fill="#FCFCFC" d="M111.485 111.444C111.415 120.738 111.397 130.033 111.43 139.327C120.337 139.354 130.29 139.177 139.112 139.55C139.188 148.665 139.369 158.016 139.169 167.106C130.3 167.144 120.27 166.945 111.503 167.246C111.406 157.907 111.417 148.568 111.535 139.229C102.274 139.389 93.0117 139.386 83.751 139.221C83.7785 148.525 83.7487 157.828 83.6618 167.132L55.8717 167.187L55.923 139.532L83.8363 139.26C83.3047 130.728 83.604 120.266 83.6647 111.563C92.9384 111.636 102.213 111.597 111.485 111.444Z"/><path fill="#FCFCFC" d="M306.694 947.25C315.951 947.328 325.209 947.353 334.466 947.324C334.529 955.655 334.92 967.246 334.484 975.386C343.713 975.321 352.943 975.329 362.172 975.409C362.257 984.378 362.474 993.887 362.28 1002.82L334.582 1002.89C334.413 993.641 334.405 984.386 334.559 975.132L306.671 975.229L306.672 1002.98C297.87 1002.68 287.758 1002.9 278.852 1002.89C278.602 993.834 278.759 984.472 278.805 975.384C288.145 975.301 297.486 975.272 306.827 975.297C306.557 966.066 306.684 956.509 306.694 947.25Z"/><path fill="#FCFCFC" d="M1198.23 724.424L1225.85 724.395L1225.94 752.373C1216.86 752.381 1207.21 752.544 1198.19 752.243L1198.23 780.161C1188.94 780.023 1179.5 780.092 1170.2 780.079C1170.18 788.253 1170.37 797.835 1169.95 805.873C1169.3 802.958 1169.51 784.993 1169.5 780.688C1165.18 780.704 1146.62 781.013 1143.73 780.258C1152.58 780.122 1161.42 780.129 1170.27 780.277C1170.21 770.996 1170.24 761.715 1170.36 752.434C1179.68 752.516 1189 752.486 1198.32 752.345C1198.14 743.163 1198.24 733.626 1198.23 724.424Z"/><path fill="#FCFCFC" d="M1170.35 919.593C1179.66 919.634 1188.81 919.376 1198.22 919.495C1198.16 928.743 1198.18 937.991 1198.27 947.239L1170.14 947.155C1170.22 956.382 1170.21 965.61 1170.09 974.837C1160.54 975.404 1151.48 974.895 1142.39 975.322L1142.38 947.321L1170.38 947.319C1170.27 938.077 1170.26 928.835 1170.35 919.593Z"/><path fill="#FCFCFC" d="M974.834 1170.16L1002.64 1170.14L1002.64 1198.14C1011.94 1198.08 1021.23 1198.08 1030.52 1198.14L1030.62 1225.91C1022.79 1225.48 1011.07 1225.89 1002.94 1225.9C1002.45 1216.61 1002.4 1207.3 1002.79 1198.01C993.674 1198.26 983.938 1198.11 974.767 1198.13C974.756 1188.93 974.611 1179.33 974.834 1170.16Z"/><path fill="#FCFCFC" d="M222.925 195.269C232.269 195.382 241.614 195.379 250.959 195.26C250.769 204.465 250.72 213.673 250.812 222.88C241.498 222.962 232.183 222.996 222.869 222.984C222.893 232.186 223.082 241.959 222.862 251.115L195.283 251.143C195.452 242.066 195.248 232.324 195.227 223.192C203.675 223.549 214.38 223.172 223.052 223.158C222.77 214.142 222.937 204.344 222.925 195.269Z"/><path fill="#FCFCFC" d="M111.397 195.283C120.684 195.406 129.972 195.438 139.26 195.381L139.15 222.925C129.915 223.094 120.678 223.145 111.442 223.08L111.419 251.127L83.7856 251.043C83.1678 242.497 83.6006 231.754 83.7934 223.164C93.0537 223.227 102.314 223.239 111.575 223.199C111.317 214.11 111.438 204.419 111.397 195.283Z"/><path fill="#FCFCFC" d="M362.418 167.318L390.12 167.309C390.292 176.661 390.253 186.015 390.004 195.365C399.158 195.36 409.095 195.554 418.183 195.311L418 222.945C408.786 223.008 399.572 222.995 390.359 222.906C390.154 213.681 390.131 204.452 390.29 195.226L362.377 195.264L362.418 167.318Z"/><path fill="#FCFCFC" d="M780.179 1031.13C789.272 1030.96 798.573 1031.03 807.683 1031L807.572 1058.75C798.432 1058.65 789.292 1058.62 780.152 1058.65C780.12 1067.91 780.232 1077.54 780.049 1086.76C771.266 1086.48 761.231 1086.7 752.348 1086.68L752.249 1058.88C761.483 1058.71 771.041 1058.82 780.301 1058.8C780.203 1049.58 780.162 1040.35 780.179 1031.13Z"/><path fill="#FCFCFC" d="M501.609 83.8405L529.482 83.8983C529.456 93.0618 529.529 102.412 529.371 111.558C538.083 111.567 548.692 111.842 557.247 111.358L557.207 139.094C548.107 139.448 538.707 139.23 529.573 139.13C529.323 130.174 529.541 120.333 529.563 111.31C520.417 111.473 510.871 111.299 501.693 111.259C501.364 102.528 501.59 92.6557 501.609 83.8405Z"/><path fill="#FCFCFC" d="M83.7916 56.032L111.455 56.032L111.382 83.8942L139.295 83.8962L138.985 111.281C130.85 111.321 119.442 111.007 111.485 111.444L111.519 83.5395L83.897 83.5735C83.354 75.0027 83.5231 64.6907 83.7916 56.032Z"/><path fill="#FCFCFC" d="M83.7819 947.171C77.2997 947.205 62.9115 947.617 57.1231 946.764C65.8364 946.651 76.0432 946.338 84.7272 946.771C86.3315 947.803 107.293 947.31 111.36 947.301C111.452 956.558 111.467 965.815 111.407 975.072L83.7915 975.247C83.3023 965.895 83.2991 956.523 83.7819 947.171Z"/><path fill="#FCFCFC" d="M1058.64 334.892C1058.54 326.729 1058.07 315.273 1058.61 307.402L1057.87 306.084L1058.36 304.396L1058.9 306.375C1060.58 307.309 1080.37 306.892 1084.24 306.936L1086.08 307.124C1087.37 310.235 1086.64 329.769 1086.55 334.63C1077.94 335.206 1067.44 334.886 1058.64 334.892Z"/><path fill="#FCFCFC" d="M1030.62 1225.91L1058.54 1225.97L1058.61 1254L1030.54 1254L1030.62 1225.91Z"/><path fill="#FCFCFC" d="M28.0694 251.078C28.0743 260.348 28.1789 269.804 28.0512 279.057L0 279.057L0 251.086C8.88772 251.095 19.3144 251.38 28.0694 251.078Z"/><path fill="#FCFCFC" d="M1226 251.236C1235.21 250.953 1244.76 251.054 1254 251.036L1254 279.137C1244.7 279.129 1235.39 279.058 1226.09 278.925C1225.75 270.06 1225.98 260.18 1226 251.236Z"/><path fill="#FCFCFC" d="M0 362.507L28.0999 362.568C28.1011 371.781 27.9912 381.227 28.1339 390.419L0 390.542L0 362.507Z"/><path fill="#FCFCFC" d="M863.445 0L891.514 0C891.385 9.32473 891.31 18.6501 891.29 27.9758C882.039 28.0437 872.787 28.029 863.536 27.9316C863.328 18.721 863.44 9.23433 863.445 0Z"/><path fill="#FCFCFC" d="M696.607 1226L724.315 1226L724.278 1254L696.401 1254C696.378 1244.73 696.245 1235.24 696.607 1226Z"/><path fill="#FCFCFC" d="M222.862 251.115C232.118 251.101 241.59 250.98 250.826 251.116L250.961 279.012C242.697 279.018 230.866 278.677 222.889 279.239L222.862 251.115Z"/><path fill="#FCFCFC" d="M0 863.573L28.0504 863.569C28.0705 872.821 28.1725 882.192 28.0943 891.433C18.7854 891.455 9.29058 891.375 0 891.509L0 863.573Z"/><path fill="#FCFCFC" d="M250.967 223.246C260.163 223.062 269.361 223.029 278.558 223.15C278.718 232.48 278.547 241.745 278.674 251.015C269.393 251.188 260.109 251.222 250.826 251.116C250.65 241.826 250.697 232.534 250.967 223.246Z"/><path fill="#FCFCFC" d="M807.572 1058.75L835.476 1058.84C836.053 1066.91 835.689 1078.5 835.55 1086.72L807.803 1086.71C807.55 1077.49 807.925 1067.66 807.572 1058.75Z"/><path fill="#FCFCFC" d="M974.816 1226.07C984.127 1225.95 993.44 1225.93 1002.75 1225.99L1002.71 1254L974.845 1254L974.816 1226.07Z"/><path fill="#FCFCFC" d="M0 640.72C9.29346 640.916 18.6339 640.793 27.8224 640.994C28.1186 650.22 28.2015 659.451 28.0708 668.681L0 668.668L0 640.72Z"/><path fill="#FCFCFC" d="M1254 863.439L1254 891.393C1244.66 891.498 1235.31 891.482 1225.97 891.347L1226.01 863.854L1254 863.439Z"/><path fill="#FCFCFC" d="M111.503 167.246L111.397 195.283C102.521 195.023 92.6101 195.23 83.6512 195.219C83.2388 185.989 83.5839 176.54 83.8321 167.303C93.0558 167.334 102.28 167.315 111.503 167.246Z"/><path fill="#FCFCFC" d="M0 696.488C9.16977 696.631 18.9546 696.946 28.0578 696.587L28.1187 724.323L0 724.436L0 696.488Z"/><path fill="#FCFCFC" d="M139.343 1226.13C148.228 1225.7 158.195 1226 167.178 1226L167.186 1254L139.411 1254C139.477 1244.71 139.454 1235.42 139.343 1226.13Z"/><path fill="#FCFCFC" d="M306.787 251.181C306.683 260.474 306.643 269.768 306.666 279.063C298.731 279.051 286.239 278.634 278.674 279.148C278.943 270.054 278.648 260.54 278.893 251.257C288.101 251.095 297.552 251.201 306.787 251.181Z"/><path fill="#FCFCFC" d="M0 807.942C9.20216 807.982 18.9303 807.866 28.088 808.129C28.0881 817.246 28.2004 826.628 28.0213 835.721C18.681 835.668 9.34038 835.666 6.52603e-15 835.714L0 807.942Z"/><path fill="#FCFCFC" d="M139.274 223.402C148.48 223.105 158.012 222.731 167.205 223.388C167.167 232.637 167.177 241.885 167.235 251.134C157.973 251.161 148.711 251.131 139.449 251.044C139.411 241.943 139.506 232.47 139.274 223.402Z"/><path fill="#FCFCFC" d="M1254 696.482L1254 724.441C1244.68 724.458 1235.35 724.382 1226.03 724.211C1225.7 715.688 1225.97 705.466 1225.97 696.813L1254 696.482Z"/><path fill="#FCFCFC" d="M1225.93 640.909L1254 640.922L1254 668.658C1244.71 668.717 1235.43 668.673 1226.14 668.524C1225.78 659.567 1225.94 649.922 1225.93 640.909Z"/><path fill="#FCFCFC" d="M306.711 223.374C315.833 223.271 325.387 223.025 334.472 223.186C334.535 232.216 334.796 242.152 334.51 251.11C326.346 251.107 314.657 250.728 306.787 251.181C306.702 241.981 306.512 232.549 306.711 223.374Z"/><path fill="#FCFCFC" d="M863.375 891.404C872.65 891.546 881.927 891.578 891.203 891.5C891.233 895.417 891.846 917.122 890.755 919.35C881.91 919.396 872.428 919.604 863.651 919.227C863.052 910.412 863.465 900.394 863.375 891.404Z"/><path fill="#FCFCFC" d="M1225.94 752.373C1235.29 752.454 1244.65 752.446 1254 752.348L1254 780.076C1244.69 780.121 1235.39 780.102 1226.08 780.021C1225.72 771.395 1225.96 761.124 1225.94 752.373Z"/><path fill="#FCFCFC" d="M1254 807.784L1254 835.738L1226.03 835.695C1225.71 827.022 1225.97 816.916 1225.97 808.134C1235.07 807.814 1244.75 807.992 1254 807.784Z"/><path fill="#FCFCFC" d="M250.966 167.471L278.719 167.459C278.76 176.406 278.59 186.33 278.91 195.195L250.959 195.26C250.863 186.078 250.643 176.623 250.966 167.471Z"/><path fill="#FCFCFC" d="M919.089 1226.08C928.282 1225.96 937.476 1225.94 946.67 1226.01C946.681 1235.29 946.791 1244.74 946.672 1254L918.96 1254C918.911 1244.69 918.954 1235.39 919.089 1226.08Z"/><path fill="#FCFCFC" d="M696.503 0L724.331 0L724.285 27.9975C715.063 28.1198 705.84 28.0719 696.62 27.8537C696.29 19.0335 696.512 8.91834 696.503 0Z"/><path fill="#FCFCFC" d="M0 306.89C9.36737 306.812 18.642 307.138 27.8537 307.077L27.8537 334.857C18.6959 334.877 9.12278 335.044 0 334.887L0 306.89Z"/><path fill="#FCFCFC" d="M696.455 1003.06L724.247 1003.06L724.292 1031.04C715.108 1030.89 705.922 1030.89 696.738 1031.04C696.387 1021.54 696.396 1012.57 696.455 1003.06Z"/><path fill="#FCFCFC" d="M1142.28 223.418C1150.85 223.302 1161.81 222.868 1170.18 223.305L1170.2 251.129C1160.97 251.181 1151.74 251.169 1142.52 251.092C1142.34 241.799 1142.39 232.663 1142.28 223.418Z"/><path fill="#FCFCFC" d="M195.265 362.493C195.038 371.521 195.202 381.245 195.187 390.328C185.898 390.434 176.609 390.486 167.32 390.485L167.276 362.752C176.605 362.589 185.935 362.503 195.265 362.493Z"/><path fill="#FCFCFC" d="M557.275 139.463L585.113 139.323L585.231 167.198C575.912 167.123 566.592 167.14 557.273 167.249C557.361 157.987 557.362 148.725 557.275 139.463Z"/><path fill="#FCFCFC" d="M195.283 251.143L195.151 279.047C186.825 279.048 175.298 278.707 167.232 279.217C167.333 269.856 167.334 260.494 167.235 251.134L195.283 251.143Z"/><path fill="#FCFCFC" d="M0 28.0995L28.0773 28.1624C28.1265 37.197 28.3607 46.7474 27.7377 55.7149C18.4922 55.8174 9.24612 55.866 0 55.8607L0 28.0995Z"/><path fill="#FCFCFC" d="M195.295 306.905L195.166 334.749C185.866 334.861 176.565 334.901 167.264 334.867C167.503 325.966 167.307 316.116 167.323 307.136C175.91 306.655 186.551 306.911 195.295 306.905Z"/><path fill="#FCFCFC" d="M1114.42 1002.98C1114.28 1012.32 1114.28 1021.65 1114.4 1030.99C1109.19 1030.37 1092.79 1030.79 1086.78 1030.81C1086.28 1022.32 1086.54 1011.71 1086.54 1003.06L1114.42 1002.98Z"/><path fill="#FCFCFC" d="M0 752.332L27.8537 752.382L27.8537 780.048L0 780.172L0 752.332Z"/><path fill="#FCFCFC" d="M752.364 1226.15L780.074 1226.15L780.131 1254L752.381 1254L752.364 1226.15Z"/><path fill="#FCFCFC" d="M250.79 0L278.787 0C278.4 8.6243 278.659 19.0903 278.65 27.8537L250.824 27.8537C250.634 18.7414 250.786 9.1495 250.79 0Z"/><path fill="#FCFCFC" d="M306.682 501.561C316.04 501.876 325.255 501.571 334.577 501.762C334.47 510.986 334.421 520.211 334.432 529.435L306.778 529.536C306.523 520.446 306.671 510.687 306.682 501.561Z"/><path fill="#FCFCFC" d="M1114.4 222.972C1114.25 231.474 1113.91 242.709 1114.37 251.1L1086.73 251.113C1086.15 242.334 1086.49 232.218 1086.61 223.372C1095.72 223.008 1105.25 223.023 1114.4 222.972Z"/><path fill="#FCFCFC" d="M28.1531 1226.08C37.3628 1225.93 46.5741 1225.9 55.7846 1225.99C55.8165 1235.07 56.055 1244.99 55.8287 1254L28.1273 1254L28.1531 1226.08Z"/><path fill="#FCFCFC" d="M585.231 167.198C594.482 167.33 603.733 167.364 612.984 167.298C613.05 176.61 613.056 185.923 613.001 195.236L585.372 195.185C585.057 185.859 585.01 176.526 585.231 167.198Z"/><path fill="#FCFCFC" d="M1198 696.645C1198.44 705.437 1198.23 715.526 1198.23 724.424C1188.95 724.493 1179.67 724.445 1170.4 724.278C1170.3 716.607 1170.86 704.987 1170.12 697.882C1171.6 696.368 1173.02 696.635 1175.56 696.62C1183.03 696.575 1190.53 696.619 1198 696.645Z"/><path fill="#FCFCFC" d="M83.7439 1226.15L111.422 1226.15C111.498 1235.43 111.508 1244.72 111.453 1254L83.5857 1254L83.7439 1226.15Z"/><path fill="#FCFCFC" d="M1114.37 251.1L1142.43 251.187C1142.34 260.332 1142.4 269.933 1142.13 279.038C1134 279.049 1122.28 278.697 1114.45 279.19C1114.56 269.827 1114.53 260.463 1114.37 251.1Z"/><path fill="#FCFCFC" d="M1226.25 83.9054L1254 83.7955L1254 111.339C1244.7 111.393 1235.4 111.367 1226.1 111.261C1225.83 103.51 1225.7 91.4797 1226.25 83.9054Z"/><path fill="#FCFCFC" d="M334.529 195.09C335.875 195.622 359.475 195.269 362.377 195.264C361.962 203.373 362.304 214.536 362.303 222.879C358.721 222.949 336.786 223.721 334.573 222.351C334.441 213.265 334.426 204.177 334.529 195.09Z"/><path fill="#FCFCFC" d="M780.117 1114.46C780.126 1123.62 779.977 1133.26 780.164 1142.38C770.988 1142.23 761.525 1142.33 752.324 1142.32C752.411 1133.15 752.387 1123.98 752.25 1114.81L780.117 1114.46Z"/><path fill="#FCFCFC" d="M1086.65 279.223L1114.45 279.19C1113.85 285.742 1114.25 299.706 1114.22 306.833C1105.05 307.09 1095.89 307.068 1086.73 306.768C1086.12 299.15 1086.44 286.967 1086.65 279.223Z"/><path fill="#FCFCFC" d="M1226.04 585.391L1254 585.338L1254 613.057L1226.14 612.917C1225.78 603.892 1225.98 594.458 1226.04 585.391Z"/><path fill="#FCFCFC" d="M1114.32 975.346C1122.7 974.891 1133.87 975.256 1142.39 975.322C1142.28 984.493 1142.23 993.666 1142.24 1002.84L1114.42 1002.98C1114.6 993.958 1114.39 984.407 1114.32 975.346Z"/><path fill="#FCFCFC" d="M28.1354 390.538L55.8515 390.475L55.9056 418.137L28.0728 418.218C28.0859 409.139 27.9412 399.576 28.1354 390.538Z"/><path fill="#FCFCFC" d="M111.419 251.127C120.695 251.226 129.972 251.259 139.248 251.226L139.204 278.961C130.969 278.976 119.452 278.688 111.502 279.187C111.424 269.834 111.396 260.48 111.419 251.127Z"/><path fill="#FCFCFC" d="M390.113 28.1642C399.389 28.0293 408.883 28.1306 418.177 28.1283L418.111 55.8708C413.171 55.8521 392.865 56.5884 390.35 54.7072C390.307 45.9005 390.564 36.9321 390.113 28.1642Z"/><path fill="#FCFCFC" d="M139.425 390.644C148.556 390.574 158.086 390.37 167.181 390.575L167.2 418.233C158.043 418.228 148.656 418.33 139.52 418.17C139.378 409.855 139.872 398.291 139.425 390.644Z"/><path fill="#FCFCFC" d="M139.303 279.342C148.612 279.25 157.922 279.208 167.232 279.217C167.147 288.423 167.115 297.629 167.137 306.836C158.009 306.948 148.61 307.196 139.515 306.773C139.299 297.715 139.51 288.51 139.303 279.342Z"/><path fill="#FCFCFC" d="M557.239 55.8295C556.905 64.3651 557.166 74.6934 557.151 83.3719C548.445 83.8741 538.483 83.6743 529.663 83.6764C529.117 75.9962 529.52 64.0962 529.555 56.11C537.443 55.5505 549.069 55.8565 557.239 55.8295Z"/><path fill="#FCFCFC" d="M1086.59 167.306L1114.31 167.309C1114.29 176.458 1114.1 186.22 1114.29 195.317C1105.1 195.194 1095.91 195.169 1086.72 195.243C1086.49 185.932 1086.45 176.618 1086.59 167.306Z"/><path fill="#FCFCFC" d="M28.1669 223.229L55.8384 223.237L55.845 250.983C46.5872 251.125 37.328 251.157 28.0694 251.078L28.1669 223.229Z"/><path fill="#FCFCFC" d="M83.8326 585.275C83.5585 594.358 83.6556 603.741 83.6437 612.852C74.4477 613.003 65.2499 613.008 56.0537 612.866C55.6403 603.831 55.8632 594.396 56.0178 585.351C65.2893 585.44 74.5616 585.415 83.8326 585.275Z"/><path fill="#FCFCFC" d="M1254 139.294L1254 167.164C1245.23 167.425 1235.03 167.127 1226.15 167.087L1226.15 139.558C1235.32 139.259 1244.8 139.332 1254 139.294Z"/><path fill="#FCFCFC" d="M946.806 1198.2L974.767 1198.13L974.769 1225.81L946.91 1225.92C946.579 1216.98 946.781 1207.21 946.806 1198.2Z"/><path fill="#FCFCFC" d="M83.649 279.319L111.502 279.187L111.355 306.928C102.189 306.953 93.0235 306.893 83.8589 306.749C83.4835 297.705 83.6231 288.392 83.649 279.319Z"/><path fill="#FCFCFC" d="M167.264 334.867C166.893 343.308 167.164 353.835 167.145 362.438C157.882 362.649 148.616 362.643 139.353 362.42L139.482 335.053L167.264 334.867Z"/><path fill="#FCFCFC" d="M1226.15 975.374C1235.43 975.285 1244.72 975.279 1254 975.356L1254 1002.95L1226.15 1002.91L1226.15 975.374Z"/><path fill="#FCFCFC" d="M56.0092 529.678L83.688 529.566L83.7448 557.239L56.0051 557.131C55.7912 548.295 55.6771 538.518 56.0092 529.678Z"/><path fill="#FCFCFC" d="M1198.23 780.161L1225.88 780.174C1225.98 789.385 1225.96 798.596 1225.83 807.807C1216.66 807.922 1207.49 807.937 1198.33 807.85C1198.21 798.621 1198.18 789.391 1198.23 780.161Z"/><path fill="#FCFCFC" d="M724.292 1031.04L752.215 1031.11C752.185 1039.75 751.871 1050.18 752.215 1058.68C742.927 1058.71 733.639 1058.69 724.352 1058.62C724.347 1049.95 724.625 1039.55 724.292 1031.04Z"/><path fill="#FCFCFC" d="M1198.31 613.189C1207.49 613.07 1216.67 613.059 1225.85 613.158L1225.93 640.909C1216.93 640.607 1207.04 641.22 1198.35 640.51C1198.27 631.404 1198.25 622.296 1198.31 613.189Z"/><path fill="#FCFCFC" d="M195.205 279.314L222.889 279.239C222.811 288.445 222.807 297.651 222.876 306.857C214.019 306.923 203.931 306.611 195.295 306.905L195.205 279.314Z"/><path fill="#FCFCFC" d="M306.783 279.317L334.556 279.293L334.544 306.843C325.349 306.904 315.928 307.069 306.759 306.803C306.611 297.641 306.618 288.478 306.783 279.317Z"/><path fill="#FCFCFC" d="M1198.27 947.239L1225.88 947.295L1225.95 975.089L1198.33 975.089C1198.24 965.806 1198.22 956.522 1198.27 947.239Z"/><path fill="#FCFCFC" d="M278.911 919.521C287.428 919.52 298.35 919.822 306.671 919.356C306.666 928.177 306.385 938.564 306.694 947.25L278.911 947.152L278.911 919.521Z"/><path fill="#FCFCFC" d="M780.049 1086.76L807.795 1086.81L807.584 1114.49C798.85 1114.47 788.735 1114.18 780.117 1114.46C780.17 1105.23 780.147 1095.99 780.049 1086.76Z"/><path fill="#FCFCFC" d="M111.523 975.411C120.749 975.281 129.976 975.262 139.202 975.354L139.293 1002.9C131.347 1002.89 119.071 1002.49 111.482 1002.97L111.523 975.411Z"/><path fill="#FCFCFC" d="M557.338 83.8899L584.867 83.7469C585.386 92.517 585.282 102.51 585.113 111.354L557.247 111.358C557.388 102.203 557.418 93.046 557.338 83.8899Z"/><path fill="#FCFCFC" d="M891.24 696.879C899.628 696.708 911.018 696.986 919.03 696.547L918.757 724.346C909.635 724.504 900.51 724.5 891.388 724.333L891.24 696.879Z"/><path fill="#FCFCFC" d="M974.802 557.216L1002.71 557.272C1002.82 566.637 1002.83 576.004 1002.73 585.37L1030.49 585.382C1030.54 594.661 1030.51 603.941 1030.42 613.22C1039.71 613.174 1049.35 613.258 1058.6 613.018C1058.53 622.272 1058.5 631.527 1058.52 640.782L1030.51 640.841C1030.61 650.083 1030.59 659.326 1030.44 668.568L1002.8 668.622L1002.65 696.818C1010.19 696.126 1022.75 696.464 1030.57 696.674C1030.56 705.86 1030.67 715.361 1030.43 724.516L1058.59 724.362C1058.58 733.416 1058.75 743.192 1058.5 752.185C1049.27 752.4 1040.05 752.46 1030.82 752.366L1030.42 779.986L1002.68 780.152C1002.55 770.891 1002.54 761.63 1002.65 752.369C993.367 752.432 984.086 752.376 974.807 752.201C974.6 743.032 974.49 733.861 974.477 724.691C965.298 724.457 956.117 724.324 946.935 724.291L946.935 696.747C956.309 696.686 965.683 696.711 975.056 696.825C974.574 687.159 975.015 678.131 974.759 668.703C979.573 668.839 982.127 668.859 986.878 668.352C983.431 667.947 978.971 668.047 975.401 668.024C975.491 649.644 974.776 631.704 974.81 613.3C984.087 613.024 993.37 613.009 1002.65 613.254C1002.59 603.906 1002.59 594.558 1002.65 585.21C993.361 585.176 984.074 585.218 974.787 585.334L974.802 557.216Z"/><path fill="#FCFCFC" d="M222.969 696.801C232.222 696.627 241.478 696.58 250.733 696.66L250.733 724.478L278.654 724.428C278.667 733.409 278.464 743.403 278.767 752.301C269.456 752.419 260.144 752.432 250.832 752.34L250.832 780.116C260.026 780.123 269.476 780.022 278.645 780.252C278.673 786.705 278.355 799.897 278.966 805.824C279.282 797.354 279.243 789.164 279.211 780.688L306.152 780.688C306.16 782.011 306.016 789.722 306.483 790.267L306.428 791.724C306.191 789.77 306.706 782.73 306.711 780.112C314.17 780.102 321.628 780.178 329.084 780.341C322.576 780.915 314.05 780.687 307.377 780.688C307.27 789.259 307.295 797.831 307.453 806.402C308.423 807.311 310.771 806.989 312.749 807.193C311.871 807.951 308.209 807.876 306.692 807.965C306.724 817.151 306.705 826.338 306.633 835.524C297.489 835.723 288.077 835.632 278.91 835.646C278.432 827.436 278.738 816.445 278.735 808.025C269.617 807.813 259.909 807.961 250.744 807.942C250.963 817.142 250.801 826.627 250.749 835.851C260.078 835.67 269.41 835.655 278.739 835.807L278.646 863.505C269.465 863.849 259.954 863.535 250.742 863.361C250.658 854.124 250.656 844.886 250.739 835.649C241.508 835.71 232.277 835.666 223.047 835.518C222.874 826.323 222.824 817.126 222.899 807.93L250.733 807.883L250.733 780.007C244.003 780.049 228.661 779.674 222.916 780.566L222.93 808.058C213.963 807.734 204.379 807.885 195.359 807.885C195.358 798.679 195.239 789.473 195.003 780.27C204.235 780.087 213.768 780.201 223.025 780.198C222.831 770.997 222.975 761.488 223.006 752.261C214.032 752.511 204.295 752.306 195.265 752.277C194.958 743.394 195.196 733.319 195.239 724.378L223.062 724.378C222.895 715.186 222.864 705.993 222.969 696.801Z"/><path fill="#FCFCFC" d="M919.002 1002.95L946.674 1003.03C946.702 1010.17 947.138 1024.46 946.561 1030.94C946.424 1034.26 946.051 1038.58 946.2 1041.81C946.522 1048.78 943.127 1059.26 953.574 1059.17C960.598 1059.12 967.534 1058.92 974.489 1058.97L974.489 1086.54C966.25 1086.55 954.716 1086.19 946.753 1086.63L919.098 1086.75C918.722 1095.27 918.985 1105.84 918.959 1114.52C909.587 1114.62 900.718 1114.69 891.359 1114.36C891.117 1105.32 891.216 1095.75 891.157 1086.67C881.916 1086.8 872.673 1086.77 863.432 1086.58L863.365 1058.76C871.333 1058.77 883.81 1059.2 891.409 1058.71L891.246 1031.15C900.354 1030.93 909.863 1031.07 919.01 1031.07L919.002 1002.95Z"/><path fill="#FCFCFC" d="M807.691 111.457C816.127 111.525 827.395 111.9 835.748 111.443C835.652 120.658 835.617 129.874 835.643 139.089C826.328 139.261 817.01 139.318 807.693 139.261L807.62 167.203C816.977 167.345 826.335 167.371 835.693 167.282C835.679 176.476 835.813 186.14 835.572 195.294C826.284 195.169 816.996 195.167 807.708 195.289C807.479 204.279 807.667 213.96 807.684 223.002L780.253 222.907L780.127 195.283C771.761 194.902 760.878 195.225 752.317 195.228C752.38 185.918 752.385 176.608 752.332 167.298C761.613 167.357 770.895 167.341 780.175 167.25C780.417 158.43 780.165 148.386 780.155 139.465C789.212 139.244 798.654 139.348 807.741 139.324C807.601 130.103 807.768 120.723 807.691 111.457Z"/><path fill="#FCFCFC" d="M1058.66 223.012L1058.56 251.095L1086.62 251.153L1086.61 279.027L1058.74 279.054C1049.31 278.886 1039.88 278.87 1030.45 279.006L1002.86 279.161C1002.24 271.483 1002.68 259.178 1002.83 251.375C1012.08 251.135 1021.34 251.06 1030.59 251.147L1030.59 223.08C1039.94 223.255 1049.3 223.232 1058.66 223.012Z"/><path fill="#FCFCFC" d="M640.783 279.318C650.061 279.26 659.338 279.267 668.616 279.34L668.633 307.034C677.903 306.868 687.176 306.837 696.447 306.943C696.583 316.298 696.562 325.655 696.382 335.009C705.676 334.918 714.969 334.889 724.263 334.923C724.173 343.597 724.629 354.017 723.912 362.425C714.898 362.675 705.548 362.544 696.503 362.529L696.548 334.723C687.632 334.883 677.601 335.134 668.738 334.659C668.683 325.446 668.684 316.232 668.739 307.019C659.214 307.104 650.345 307.194 640.843 306.728L640.783 279.318Z"/><path fill="#FCFCFC" d="M919.072 501.721C927.986 501.693 937.814 501.874 946.651 501.595C946.678 510.793 946.618 520.126 946.746 529.31C937.498 529.54 928.246 529.589 918.996 529.456C918.901 538.709 918.906 547.963 919.012 557.215C909.89 557.217 900.518 557.326 891.419 557.116C891.43 566.472 891.357 575.828 891.2 585.182L863.675 585.21C862.957 578.068 863.374 564.927 863.406 557.303L891.286 557.266L891.216 529.673C900.497 529.464 909.782 529.418 919.066 529.533C918.976 520.263 918.978 510.992 919.072 501.721Z"/><path fill="#FCFCFC" d="M891.278 919.653C900.322 919.543 909.936 919.273 918.925 919.541L918.85 947.386L946.719 947.315C946.749 956.596 946.666 966.124 946.844 975.383C956.117 975.336 965.391 975.342 974.663 975.4C974.789 984.555 974.842 993.712 974.823 1002.87L946.864 1002.89C946.72 993.657 946.693 984.421 946.782 975.186L919.08 975.195L919.038 947.147C909.833 947.284 900.626 947.324 891.42 947.266L891.278 919.653Z"/><path fill="#FCFCFC" d="M668.688 195.298C677.763 195.327 686.838 195.407 695.912 195.54C696.794 194.477 696.415 195.009 697.073 193.959C704.266 194.676 716.149 195.22 723.378 194.613C724.03 192.79 723.835 193.024 723.833 191C724.557 192.137 724.303 193.681 724.35 195.294C715.956 194.899 705.145 195.226 696.57 195.244C696.596 204.467 696.551 213.691 696.433 222.914C687.168 222.872 677.902 222.952 668.639 223.154L668.589 250.959C659.346 251.115 650.1 251.138 640.856 251.028C640.677 241.903 640.819 232.495 640.852 223.347C649.726 223.032 659.833 223.279 668.799 223.298C668.349 214.682 668.702 204.135 668.688 195.298Z"/><path fill="#FCFCFC" d="M1002.79 418.227L1030.65 418.33L1030.48 446.058L1002.79 446.058C1002.8 455.203 1002.64 464.836 1002.84 473.94C994.328 473.595 983.422 473.789 974.801 473.929L974.817 446.388C984.191 446.15 993.568 446.123 1002.94 446.308C1002.43 437.085 1002.6 427.475 1002.79 418.227Z"/><path fill="#FCFCFC" d="M863.381 362.507C863.443 371.79 863.433 381.074 863.351 390.357C854.356 390.617 844.732 390.436 835.688 390.413C835.667 399.651 835.599 408.889 835.484 418.127C826.235 418.265 816.986 418.321 807.737 418.293C807.512 409.304 807.685 399.6 807.677 390.555C817.047 390.569 826.417 390.487 835.786 390.308C835.233 381.624 835.502 371.384 835.544 362.555C844.823 362.657 854.102 362.641 863.381 362.507Z"/><path fill="#FCFCFC" d="M1030.66 891.515C1039.96 891.439 1049.26 891.419 1058.56 891.454L1058.58 919.251C1049.28 919.381 1039.91 919.596 1030.63 919.293C1030.6 928.533 1030.69 938.016 1030.5 947.233L1002.92 947.184C1002.61 937.988 1002.55 928.784 1002.76 919.584C1011.68 919.46 1021.94 919.625 1030.66 919.325C1030.54 910.056 1030.54 900.785 1030.66 891.515Z"/><path fill="#FCFCFC" d="M558.57 307.033C567.652 306.76 576.11 306.837 585.203 306.979C585.238 316.339 585.156 325.699 584.957 335.057C594.319 334.939 603.682 334.92 613.044 335C613.124 339.842 613.648 357.8 612.719 361.844L611.704 362.45C602.931 362.66 594.154 362.669 585.38 362.477C584.5 353.207 585.634 344.153 585.074 334.773C575.997 334.994 566.49 334.868 557.379 334.878C557.292 329.033 556.948 313.034 557.557 307.755L558.57 307.033Z"/><path fill="#FCFCFC" d="M919.034 195.279C919.04 191.44 919.512 169.694 918.823 167.471L946.752 167.471L946.746 195.332C954.412 195.341 967.529 195.781 974.75 195.267C974.696 204.497 974.69 213.728 974.734 222.958C965.47 223.032 956.206 223.017 946.943 222.915C946.485 214.381 946.784 203.825 946.816 195.137L919.034 195.279Z"/><path fill="#FCFCFC" d="M724.298 223.027L724.275 251.216C733.646 251.1 743.017 251.1 752.387 251.215L752.12 278.899L724.381 278.899C724.231 269.736 724.348 260.261 724.342 251.073C715.612 251.384 705.523 251.122 696.693 251.096C696.119 242.501 696.451 232.167 696.554 223.4C704.957 223.211 716.457 223.663 724.298 223.027Z"/><path fill="#FCFCFC" d="M891.289 641.082C900.352 640.633 909.881 640.859 918.992 640.944C918.953 650.193 918.963 659.442 919.021 668.691C909.763 668.467 900.551 668.798 891.342 668.578C891.381 677.672 891.596 687.374 891.036 696.395C881.846 696.642 872.65 696.613 863.462 696.309C863.323 687.221 863.281 678.13 863.335 669.041C868.679 668.279 885.304 668.651 891.415 668.657C891.29 659.466 891.248 650.274 891.289 641.082Z"/><path fill="#FCFCFC" d="M473.895 947.295L501.507 947.344L501.486 975.221L473.748 975.258C473.844 984.447 473.827 993.636 473.698 1002.82L446.178 1002.94C445.631 994.725 445.847 983.663 446.03 975.381C455.323 975.236 464.618 975.243 473.911 975.401C473.462 966.442 473.785 956.353 473.895 947.295Z"/><path fill="#FCFCFC" d="M863.385 334.906L891.266 334.967C891.423 344.232 891.431 353.499 891.291 362.765C900.079 362.601 910.547 362.93 918.958 362.563C918.959 371.683 918.834 381.121 919.005 390.213C911.057 390.49 899.13 390.868 891.296 390.208C891.288 381.105 891.112 371.464 891.295 362.407C881.991 362.602 872.685 362.636 863.381 362.507L863.385 334.906Z"/><path fill="#FCFCFC" d="M835.695 28.1512C844.777 28.1263 854.3 27.9628 863.342 28.209C863.412 37.46 863.37 46.7115 863.218 55.9615C872.594 55.849 881.972 55.8067 891.349 55.8347C891.364 65.1135 891.283 74.3923 891.106 83.6694L863.534 83.7403C863.381 74.402 863.332 65.0623 863.388 55.7229L835.8 55.7544C835.336 46.5599 835.301 37.3489 835.695 28.1512Z"/><path fill="#FCFCFC" d="M306.713 56.032L334.575 56.032L334.598 83.5735L306.707 83.5735C306.642 92.8013 306.926 102.151 306.549 111.347L278.756 111.358L278.73 83.9014C288.089 83.7962 297.449 83.7973 306.808 83.9046C306.638 74.7271 306.737 65.2357 306.713 56.032Z"/><path fill="#FCFCFC" d="M1058.63 474.004C1067.08 473.595 1078.05 473.961 1086.69 474.007L1086.55 501.726L1114.24 501.71C1114.28 509.127 1114.74 522.48 1114.12 529.424C1105.01 529.484 1095.9 529.497 1086.79 529.464C1086.24 520.262 1086.46 510.646 1086.66 501.439L1058.64 501.459C1058.25 492.803 1058.55 482.771 1058.63 474.004Z"/><path fill="#FCFCFC" d="M83.7623 334.914L111.416 334.89L111.368 362.679L139.172 362.624C139.345 371.827 139.307 381.034 139.058 390.235C130.204 390.736 120.333 390.486 111.482 390.093C111.331 380.97 111.413 371.616 111.389 362.473L83.6213 362.498C83.565 353.303 83.612 344.108 83.7623 334.914Z"/><path fill="#FCFCFC" d="M28.1331 56.032L55.7754 56.032C55.8439 61.3299 54.9518 79.6662 56.5904 82.7601C59.453 85.1126 78.6259 83.8526 83.5735 83.9094L83.5735 111.362C74.4286 111.477 65.2824 111.441 56.1387 111.254C55.5273 102.929 55.892 92.0151 56.0195 83.6454C46.744 83.7959 37.4662 83.7316 28.1936 83.4527C27.8384 75.0662 28.1326 64.5803 28.1331 56.032Z"/><path fill="#FCFCFC" d="M780.388 919.594L807.685 919.295L807.669 947.26L780.092 947.208C780.184 956.023 780.155 964.838 780.005 973.652C779.045 971.615 779.441 951.743 779.464 947.848C772.598 947.866 765.448 947.99 758.607 947.792L758.731 947.338L780.388 947.298L780.388 919.594Z"/><path fill="#FCFCFC" d="M1058.64 557.216L1058.55 585.284C1049.55 585.016 1039.78 585.203 1030.72 585.21C1030.33 576.529 1030.6 566.019 1030.6 557.202C1039.17 557.315 1050.16 557.646 1058.64 557.216Z"/><path fill="#FCFCFC" d="M807.669 947.26C816.28 947.288 827.307 947.639 835.722 947.229C835.782 956.55 835.715 965.872 835.523 975.192L807.759 975.312L807.669 947.26Z"/><path fill="#FCFCFC" d="M501.544 863.651L529.528 863.662L529.53 891.364C520.235 891.416 510.94 891.415 501.645 891.36C501.447 882.125 501.413 872.888 501.544 863.651Z"/><path fill="#FCFCFC" d="M1030.58 1002.97C1039.16 1003.01 1050.33 1003.38 1058.69 1003C1058.38 1011.89 1058.57 1021.98 1058.53 1030.96L1030.76 1030.98C1030.36 1021.89 1030.56 1012.12 1030.58 1002.97Z"/><path fill="#FCFCFC" d="M1030.5 947.233C1039.86 947.32 1049.23 947.344 1058.59 947.306L1058.53 975.142L1030.73 975.298C1030.49 965.921 1030.76 956.445 1030.5 947.233Z"/><path fill="#FCFCFC" d="M1030.54 167.325C1039.15 167.313 1049.94 167.612 1058.36 167.232C1058.46 176.076 1058.81 186.288 1058.48 195.006C1051.5 195.675 1038.27 195.205 1030.56 195.286L1030.54 167.325Z"/><path fill="#FCFCFC" d="M946.851 251.2C956.147 251.123 965.443 251.097 974.74 251.122C974.852 260.455 974.881 269.789 974.825 279.122L946.92 279.053C946.708 269.77 946.685 260.484 946.851 251.2Z"/><path fill="#FCFCFC" d="M863.385 947.231C872.73 947.311 882.075 947.323 891.42 947.266C891.098 956.181 891.264 966.238 891.219 975.206L863.503 975.249C863.173 966.334 863.39 956.234 863.385 947.231Z"/><path fill="#FCFCFC" d="M139.248 1058.94C148.568 1058.79 157.889 1058.72 167.211 1058.74L167.192 1086.82C158.012 1086.63 148.342 1086.96 139.317 1086.59C139.435 1077.37 139.412 1068.16 139.248 1058.94Z"/><path fill="#FCFCFC" d="M418.141 947.322L445.937 947.332C446.054 955.986 446.29 966.575 445.769 975.124C436.699 975.334 427.302 975.265 418.205 975.318C417.96 965.988 417.938 956.653 418.141 947.322Z"/><path fill="#FCFCFC" d="M585.233 891.578C594.508 891.39 603.785 891.39 613.06 891.578C613.097 900.842 613.046 910.106 612.909 919.369C603.717 919.465 594.525 919.39 585.337 919.145C584.858 910.04 585.117 900.713 585.233 891.578Z"/><path fill="#FCFCFC" d="M1114.37 947.235C1113.83 953.831 1114.29 967.784 1114.23 975.141C1105.26 975.374 1095.78 975.248 1086.78 975.27C1086.27 966.148 1086.51 956.5 1086.6 947.32L1114.37 947.235Z"/><path fill="#FCFCFC" d="M222.972 919.58L250.771 919.29L250.871 947.24C242.327 946.9 231.643 947.184 222.967 947.269C222.889 938.04 222.891 928.81 222.972 919.58Z"/><path fill="#FCFCFC" d="M946.777 640.98C956.102 641.05 965.427 640.96 974.749 640.708L974.759 668.703C965.533 668.596 956.197 668.777 947.016 668.584C946.589 659.505 946.743 650.097 946.777 640.98Z"/><path fill="#FCFCFC" d="M974.825 501.515C984.134 501.713 993.447 501.739 1002.76 501.594L1002.72 529.384C993.683 529.508 983.597 529.19 974.825 529.474L974.825 501.515Z"/><path fill="#FCFCFC" d="M946.833 306.86L974.753 306.864C974.67 316.201 974.681 325.538 974.785 334.874L947.099 334.857C946.558 325.713 946.777 316.061 946.833 306.86Z"/><path fill="#FCFCFC" d="M974.865 167.319C983.966 167.307 993.663 167.469 1002.71 167.253L1002.73 195.218C993.753 195.227 983.62 194.993 974.75 195.267L974.865 167.319Z"/><path fill="#FCFCFC" d="M113.421 307.102C122.034 306.915 130.65 306.828 139.266 306.842C139.267 311.269 139.567 331.696 138.766 334.503L137.821 334.789C128.852 334.902 120.504 334.942 111.55 334.604C111.463 329.671 110.867 311.63 111.968 307.535L113.421 307.102Z"/><path fill="#FCFCFC" d="M863.375 1003.04L891.218 1003.06C891.286 1012.2 891.497 1021.77 891.002 1030.87C882.304 1030.91 871.989 1030.69 863.432 1031.05L863.375 1003.04Z"/><path fill="#FCFCFC" d="M761.55 223.162C765.795 222.907 775.513 223.3 780.107 223.361C780.143 232.61 780.125 241.86 780.053 251.109L773.363 251.186L752.383 251.186L752.436 223.412L761.55 223.162Z"/><path fill="#FCFCFC" d="M250.871 947.24C260.09 947.278 269.471 947.412 278.674 947.34L278.733 975.165C269.694 975.191 259.951 975.025 250.977 975.253C250.634 965.919 250.599 956.576 250.871 947.24Z"/><path fill="#FCFCFC" d="M306.692 668.697C315.986 668.625 325.281 668.72 334.571 668.983C334.636 675.51 334.991 690.263 334.109 696.325C325.139 696.581 315.795 696.517 306.808 696.523C306.319 687.623 306.488 677.587 306.692 668.697Z"/><path fill="#FCFCFC" d="M529.53 891.364C538.779 891.494 547.969 891.341 557.181 891.442C557.226 900.528 557.416 910.08 557.192 919.126C548.016 919.32 538.734 919.639 529.577 919.202C529.49 909.923 529.474 900.643 529.53 891.364Z"/><path fill="#FCFCFC" d="M640.783 891.537L668.633 891.431L668.625 919.24C659.362 919.405 650.098 919.41 640.835 919.257C640.528 909.948 640.674 900.849 640.783 891.537Z"/><path fill="#FCFCFC" d="M835.8 55.7544C835.429 64.6127 835.739 74.5241 835.494 83.6676L807.812 83.6496C807.548 74.5769 807.691 65.0926 807.703 55.9853C816.513 55.6401 826.886 55.8348 835.8 55.7544Z"/><path fill="#FCFCFC" d="M1142.36 891.471C1151.66 891.426 1160.96 891.445 1170.26 891.528C1170.15 900.738 1170.22 910.041 1170.23 919.258C1160.92 919.442 1151.61 919.387 1142.31 919.092L1142.36 891.471Z"/><path fill="#FCFCFC" d="M863.423 167.317L891.24 167.31C891.393 176.865 891.505 185.659 891.145 195.194C882.225 195.214 872.248 195.007 863.42 195.288L863.423 167.317Z"/><path fill="#FCFCFC" d="M974.814 891.471L1002.72 891.454L1002.72 919.113C993.441 919.28 984.109 919.55 974.842 919.146L974.814 891.471Z"/><path fill="#FCFCFC" d="M1030.54 55.8997C1039.51 55.6571 1049.59 55.9104 1058.64 55.9349L1058.49 83.6764L1030.78 83.6487C1030.27 75.2993 1030.55 64.4369 1030.54 55.8997Z"/><path fill="#FCFCFC" d="M1058.55 585.284L1086.6 585.381C1086.61 594.368 1086.79 604.001 1086.58 612.934C1077.79 612.951 1067.23 612.68 1058.6 613.018C1058.48 603.81 1058.55 594.501 1058.55 585.284Z"/><path fill="#FCFCFC" d="M932.06 223.211C936.881 223.116 941.856 223.177 946.69 223.175C946.673 232.474 946.753 241.773 946.93 251.071L934.071 251.187L919.127 251.126C919.012 241.926 919.103 232.586 919.113 223.374L932.06 223.211Z"/><path fill="#FCFCFC" d="M83.8031 891.524L111.525 891.417L111.402 919.289C102.825 919.435 92.3594 919.564 83.9299 919.127C83.1925 911.414 83.568 899.416 83.8031 891.524Z"/><path fill="#FCFCFC" d="M919.012 557.215C927.61 557.358 938.236 557.656 946.688 557.38C946.709 566.51 946.597 576.045 946.848 585.14C937.681 585.151 928.197 585.043 919.059 585.278L919.012 557.215Z"/><path fill="#FCFCFC" d="M585.755 56.023C594.844 55.8234 603.936 55.8084 613.026 55.9781C613.125 63.0314 613.542 76.8241 612.656 83.6147C603.434 83.675 594.485 83.8978 585.273 83.2434C585.207 79.3278 584.48 58.5198 585.755 56.023Z"/><path fill="#FCFCFC" d="M111.461 863.715C120.693 863.62 129.925 863.58 139.157 863.594C139.257 872.853 139.273 882.113 139.203 891.372L111.525 891.417C111.433 882.183 111.412 872.949 111.461 863.715Z"/><path fill="#FCFCFC" d="M1114.49 919.584C1123.66 919.527 1133.1 919.583 1142.25 919.36C1142.3 928.532 1142.48 937.996 1142.3 947.141L1114.37 947.235C1114.48 938.019 1114.52 928.801 1114.49 919.584Z"/><path fill="#FCFCFC" d="M1058.63 529.615C1067.81 529.623 1077.46 529.782 1086.6 529.574L1086.6 557.104C1077.41 557.266 1067.58 556.94 1058.64 557.216C1058.6 548.098 1058.44 538.708 1058.63 529.615Z"/><path fill="#FCFCFC" d="M1142.51 724.523L1170.22 724.411C1170.15 733.614 1170.45 742.869 1170.09 752.069C1161.31 752.68 1151.29 752.347 1142.45 752.189C1142.19 743.049 1142.41 733.685 1142.51 724.523Z"/><path fill="#FCFCFC" d="M946.888 585.381L974.787 585.334C974.715 594.52 974.714 603.707 974.782 612.893C965.541 612.99 956.193 612.9 946.943 612.88C946.699 603.716 946.681 594.546 946.888 585.381Z"/><path fill="#FCFCFC" d="M974.83 390.617C984.05 390.552 993.537 390.373 1002.73 390.515C1002.75 399.679 1002.65 409.086 1002.79 418.227L974.867 418.139C974.782 408.966 974.769 399.791 974.83 390.617Z"/><path fill="#FCFCFC" d="M167.192 1086.82L195.283 1086.83C195.196 1096.02 195.161 1105.21 195.179 1114.39C186.887 1114.6 175.378 1114.93 167.213 1114.38C167.231 1105.4 167.423 1095.75 167.192 1086.82Z"/><path fill="#FCFCFC" d="M306.725 724.403L334.617 724.472C334.426 733.532 334.889 743.402 334.424 752.21L306.768 752.341C306.478 743.305 306.689 733.5 306.725 724.403Z"/><path fill="#FCFCFC" d="M167.327 863.775C176.63 863.548 185.936 863.475 195.241 863.557L195.238 891.416C185.92 891.293 176.644 891.42 167.335 891.374L167.327 863.775Z"/><path fill="#FCFCFC" d="M195.233 947.258C204.477 947.365 213.723 947.368 222.967 947.269C222.676 956.527 222.861 965.898 222.961 975.168L195.239 975.264C195.616 966.892 195.257 955.835 195.233 947.258Z"/><path fill="#FCFCFC" d="M585.245 390.552C594.509 390.513 603.773 390.528 613.037 390.599C613.156 399.782 613.163 408.965 613.059 418.148C603.809 418.234 594.558 418.224 585.309 418.118C585.017 409.187 585.214 399.54 585.245 390.552Z"/><path fill="#FCFCFC" d="M1170.26 863.662L1198.18 863.662L1198.14 891.335L1170.44 891.373L1170.26 863.662Z"/><path fill="#FCFCFC" d="M501.501 919.408C510.831 919.511 520.162 919.537 529.493 919.485C529.512 928.395 529.296 938.411 529.573 947.223L501.774 947.195C501.391 937.78 501.805 928.568 501.501 919.408Z"/><path fill="#FCFCFC" d="M724.376 307.077L752.165 306.815C752.27 316.168 752.231 325.522 752.048 334.874C744.342 334.86 731.554 334.422 724.263 334.923L724.376 307.077Z"/><path fill="#FCFCFC" d="M350.099 529.302L362.324 529.544C362.461 538.656 362.345 548 362.332 557.131L346.411 557.211L334.635 557.129C334.175 548.268 334.432 538.552 334.515 529.65L350.099 529.302Z"/><path fill="#FCFCFC" d="M835.58 919.583L863.348 919.543L863.385 947.231C854.164 947.175 844.943 947.175 835.722 947.229C835.409 938.017 835.362 928.798 835.58 919.583Z"/><path fill="#FCFCFC" d="M1058.64 195.379L1086.53 195.374L1086.53 222.878L1058.66 223.012C1058.56 213.801 1058.55 204.59 1058.64 195.379Z"/><path fill="#FCFCFC" d="M1058.53 863.662L1086.53 863.662L1086.46 891.343C1077.23 891.471 1067.9 891.413 1058.66 891.429C1058.2 882.887 1058.5 872.356 1058.53 863.662Z"/><path fill="#FCFCFC" d="M724.303 1086.9C733.632 1086.8 742.961 1086.79 752.29 1086.87L752.164 1114.29C745.007 1114.93 731.625 1114.46 724.289 1114.39L724.303 1086.9Z"/><path fill="#FCFCFC" d="M362.45 223.401C371.662 223.176 380.878 223.121 390.093 223.237C390.132 232.428 390.29 241.928 390.05 251.09C380.817 251.159 371.583 251.169 362.35 251.121L362.45 223.401Z"/><path fill="#FCFCFC" d="M919.104 55.9516C928.291 55.8485 937.478 55.8501 946.665 55.9564C946.72 65.1998 946.716 74.4434 946.652 83.6867C937.616 83.8467 928.185 83.6819 919.118 83.6511C919.028 74.4182 919.023 65.1846 919.104 55.9516Z"/><path fill="#FCFCFC" d="M696.547 891.515L724.25 891.498C724.261 900.633 724.391 910.083 724.117 919.188C714.913 919.3 705.886 919.536 696.682 919.12C696.308 910.135 696.503 900.558 696.547 891.515Z"/><path fill="#FCFCFC" d="M278.801 28.1795C287.91 27.9622 297.578 28.1476 306.729 28.1792L306.642 55.7629L278.892 55.7714C278.695 46.5754 278.665 37.3766 278.801 28.1795Z"/><path fill="#FCFCFC" d="M724.412 1142.45C733.519 1142.61 743.018 1142.48 752.157 1142.48C752.253 1151.44 752.525 1161.1 752.076 1169.98C742.844 1170.14 733.611 1170.17 724.378 1170.08C724.241 1161 724.394 1151.56 724.412 1142.45Z"/><path fill="#FCFCFC" d="M361.562 835.537C363.735 835.981 386.02 835.815 390.181 835.851L390.093 863.506C380.84 863.732 371.582 863.688 362.331 863.374C362.387 859.391 363.071 838.076 361.562 835.537Z"/><path fill="#FCFCFC" d="M865.252 613.258C873.617 612.857 882.832 613.094 891.276 613.162C891.296 617.463 891.605 636.84 890.738 640.083L889.753 640.534C881.193 641.086 872.099 640.812 863.508 640.66C863.435 636.317 862.834 617.016 863.889 613.598L865.252 613.258Z"/><path fill="#FCFCFC" d="M278.911 863.737C288.17 863.6 297.431 863.634 306.688 863.842C306.724 872.601 306.981 882.582 306.282 891.203C298.536 891.414 286.376 891.915 278.911 891.029L278.911 863.737Z"/><path fill="#FCFCFC" d="M1002.89 529.58L1030.57 529.585L1030.6 557.202C1021.4 557.195 1012.03 557.279 1002.84 557.14C1002.64 547.954 1002.65 538.765 1002.89 529.58Z"/><path fill="#FCFCFC" d="M640.829 334.966C650.044 334.867 659.414 334.981 668.642 335.009C668.741 344.149 668.699 353.291 668.516 362.43C659.285 362.635 650.05 362.658 640.818 362.498C640.671 353.469 640.821 344.029 640.829 334.966Z"/><path fill="#FCFCFC" d="M835.579 1031.05C844.64 1030.84 854.323 1031.02 863.432 1031.05C863.288 1040.28 863.266 1049.52 863.365 1058.76C855.261 1058.34 844.123 1058.67 835.785 1058.66C835.328 1049.62 835.526 1040.14 835.579 1031.05Z"/><path fill="#FCFCFC" d="M875.859 390.332L891.23 390.631C891.287 399.777 891.284 408.923 891.22 418.069L880.188 418.204L863.541 418.195C863.321 409.153 863.414 399.717 863.376 390.642L875.859 390.332Z"/><path fill="#FCFCFC" d="M640.783 167.471L668.622 167.471C668.641 176.53 668.466 186.305 668.688 195.298C659.422 195.186 650.155 195.162 640.888 195.227C640.79 185.975 640.755 176.723 640.783 167.471Z"/><path fill="#FCFCFC" d="M752.397 279.323C761.614 279.223 770.831 279.222 780.048 279.319C780.145 288.492 780.137 297.665 780.024 306.838C770.716 307.089 761.7 306.934 752.388 306.789C752.282 297.634 752.286 288.478 752.397 279.323Z"/><path fill="#FCFCFC" d="M139.332 891.545L167.203 891.493C167.274 899.35 167.631 911.612 166.945 919.2C157.459 919.246 148.866 919.608 139.349 919.107C139.429 909.92 139.423 900.732 139.332 891.545Z"/><path fill="#FCFCFC" d="M863.42 195.288C863.311 204.489 863.266 213.691 863.285 222.893C854.092 223.145 844.895 223.15 835.702 222.908C835.259 214.656 835.571 203.746 835.572 195.294C844.854 195.412 854.137 195.41 863.42 195.288Z"/><path fill="#FCFCFC" d="M334.508 696.803C343.728 696.631 352.951 696.601 362.172 696.713L362.34 724.316C353.094 724.462 343.846 724.462 334.6 724.315C334.264 715.336 334.458 705.833 334.508 696.803Z"/><path fill="#FCFCFC" d="M946.823 529.68C956.157 529.667 965.492 529.599 974.825 529.474C974.705 538.52 974.615 548.187 974.802 557.216L946.912 557.132C946.602 548.167 946.782 538.693 946.823 529.68Z"/><path fill="#FCFCFC" d="M835.69 975.405C844.905 975.22 854.123 975.215 863.338 975.389L863.375 1003.04C854.166 1002.87 844.956 1002.84 835.747 1002.93C835.349 993.762 835.331 984.578 835.69 975.405Z"/><path fill="#FCFCFC" d="M1002.71 975.359L1030.61 975.393L1030.58 1002.97C1021.33 1002.88 1012.07 1002.86 1002.82 1002.93C1002.6 993.741 1002.57 984.549 1002.71 975.359Z"/><path fill="#FCFCFC" d="M167.311 696.865C176.477 696.745 185.917 696.509 195.056 696.718C195.348 705.973 195.023 715.217 195.239 724.378L167.248 724.346C167.273 715.331 167.459 705.837 167.311 696.865Z"/><path fill="#FCFCFC" d="M362.385 891.546C371.599 891.412 380.952 891.475 390.178 891.457L390.151 919.206C380.92 919.394 371.687 919.422 362.456 919.293C362.13 910.527 362.375 900.413 362.385 891.546Z"/><path fill="#FCFCFC" d="M1030.62 501.828L1058.23 501.79C1058.79 510.863 1058.58 520.219 1058.5 529.321C1049.52 529.629 1039.79 529.453 1030.76 529.448C1030.37 520.672 1030.6 510.699 1030.62 501.828Z"/><path fill="#FCFCFC" d="M1058.61 975.364L1086.62 975.37C1086.61 984.206 1086.83 994.173 1086.5 1002.92C1077.62 1002.93 1067.46 1002.7 1058.69 1003C1058.52 993.79 1058.49 984.577 1058.61 975.364Z"/><path fill="#FCFCFC" d="M195.238 891.416C203.596 891.529 214.838 891.82 222.978 891.436C222.614 900.139 222.889 910.31 222.93 919.122C213.719 919.403 204.503 919.444 195.291 919.248L195.238 891.416Z"/><path fill="#FCFCFC" d="M1114.36 613.02C1113.78 621.56 1114.59 631.681 1114.09 640.746C1105.05 640.818 1096.01 640.794 1086.97 640.674C1086.03 632.232 1086.46 621.807 1086.63 613.221L1114.36 613.02Z"/><path fill="#FCFCFC" d="M278.885 752.478C288.179 752.584 297.475 752.538 306.768 752.341L306.711 780.112L279.061 780.086C278.448 771.341 278.772 761.29 278.885 752.478Z"/><path fill="#FCFCFC" d="M306.79 390.602L334.619 390.466C334.346 399.321 334.59 409.252 334.618 418.187C325.337 418.317 316.053 418.309 306.772 418.164C306.508 408.903 306.663 399.866 306.79 390.602Z"/><path fill="#FCFCFC" d="M921.21 613.219C929.5 612.937 938.283 613.103 946.616 613.14C946.675 617.278 947.299 637.624 946.213 640.612L944.937 640.849C936.332 640.991 927.725 640.927 919.122 640.657C919.052 636.125 918.373 616.94 919.621 613.634L921.21 613.219Z"/><path fill="#FCFCFC" d="M752.381 1003.06L780.116 1003.05C780.201 1012.3 780.165 1021.56 780.008 1030.81L752.431 1030.81L752.381 1003.06Z"/><path fill="#FCFCFC" d="M167.312 975.377L195.239 975.264C195.005 984.155 195.2 993.901 195.196 1002.86C186.66 1002.85 175.524 1002.64 167.134 1003.06C167.862 996.904 167.395 981.802 167.312 975.377Z"/><path fill="#FCFCFC" d="M782.083 307.073C790.38 306.787 799.265 306.888 807.61 306.85C807.661 311.193 808.158 331.199 807.237 334.612L805.946 334.88C797.387 334.967 788.826 334.918 780.268 334.734C780.223 330.797 779.653 310.23 780.775 307.504L782.083 307.073Z"/><path fill="#FCFCFC" d="M473.873 891.543C482.91 891.336 492.483 891.489 501.562 891.487L501.548 919.254C492.401 919.34 483.041 919.541 473.92 919.129C473.761 909.935 473.746 900.738 473.873 891.543Z"/><path fill="#FCFCFC" d="M28.1692 279.294C37.357 279.246 46.5451 279.267 55.7326 279.358C56.0544 288.257 55.9002 297.892 55.9123 306.85C46.6714 306.939 37.4298 306.94 28.1888 306.855C27.9422 297.944 28.1457 288.261 28.1692 279.294Z"/><path fill="#FCFCFC" d="M222.93 863.702C232.253 863.691 241.576 863.627 250.898 863.513L250.749 891.233C241.834 891.411 231.53 891.087 222.978 891.436L222.93 863.702Z"/><path fill="#FCFCFC" d="M919.02 835.704C928.267 835.886 937.483 835.691 946.699 835.856C946.678 845.024 946.707 854.192 946.785 863.359C937.569 863.524 928.351 863.521 919.135 863.348C918.97 854.134 918.932 844.919 919.02 835.704Z"/><path fill="#FCFCFC" d="M724.35 195.294L752.189 195.352L752.164 222.897C743.453 223.024 732.594 222.649 724.298 223.027L724.35 195.294Z"/><path fill="#FCFCFC" d="M529.522 835.841C538.769 835.641 548.019 835.62 557.266 835.777L557.148 863.342C548.262 863.657 538.578 863.502 529.631 863.52C529.281 854.625 529.494 844.811 529.522 835.841Z"/><path fill="#FCFCFC" d="M668.737 919.31C676.758 919.896 688.35 919.607 696.529 919.616C696.039 927.124 696.447 939.344 696.454 947.136C687.387 947.324 677.917 947.175 668.818 947.159C668.724 937.876 668.696 928.593 668.737 919.31Z"/><path fill="#FCFCFC" d="M278.863 195.357C288.037 195.476 297.466 195.357 306.662 195.353L306.602 222.917C297.382 223.046 288.16 223.017 278.942 222.829C278.554 214.029 278.803 204.244 278.863 195.357Z"/><path fill="#FCFCFC" d="M1086.7 557.304L1114.3 557.291L1114.22 585.117L1086.78 585.19C1086.33 575.712 1086.53 566.8 1086.7 557.304Z"/><path fill="#FCFCFC" d="M363.838 501.766L390.128 501.546C390.183 505.787 390.837 527.286 389.209 529.406C380.316 529.595 371.419 529.544 362.528 529.253C362.466 524.02 362.035 506.736 362.789 502.485L363.838 501.766Z"/><path fill="#FCFCFC" d="M640.978 111.543L668.632 111.558L668.676 139.083C659.408 139.333 650.136 139.338 640.868 139.099C640.722 129.914 640.759 120.727 640.978 111.543Z"/><path fill="#FCFCFC" d="M1170.28 641.086C1179.54 640.96 1188.87 640.752 1198.13 641.041C1198.23 649.533 1198.5 660.267 1197.9 668.615L1170.46 668.573C1170.27 659.46 1170.63 650.08 1170.28 641.086Z"/><path fill="#FCFCFC" d="M59.8013 251.143C67.7255 251.122 75.6497 251.148 83.5735 251.223C83.626 256.083 84.3031 275.818 82.8051 278.777L80.9734 279.191C73.1142 278.747 64.0012 278.912 56.032 278.899C56.0888 270.444 55.5048 260.687 56.1732 252.395C57.3842 250.984 57.3391 251.437 59.8013 251.143Z"/><path fill="#FCFCFC" d="M724.296 111.425L724.27 139.102C715.426 139.476 705.528 139.214 696.602 139.153C696.247 130.55 696.505 120.266 696.503 111.536C705.767 111.624 715.033 111.586 724.296 111.425Z"/><path fill="#FCFCFC" d="M891.215 195.398C900.488 195.41 909.762 195.37 919.034 195.279C918.795 204.405 918.937 213.819 918.97 222.973C909.795 223.147 900.618 223.14 891.443 222.949C890.919 214.825 891.332 203.921 891.215 195.398Z"/><path fill="#FCFCFC" d="M56.1771 195.386L83.7146 195.394C83.7648 204.577 83.7455 213.761 83.6568 222.943C74.4793 223.049 65.3008 223.02 56.1243 222.855C55.7339 213.702 55.7515 204.537 56.1771 195.386Z"/><path fill="#FCFCFC" d="M222.946 975.348C232.29 975.454 241.634 975.423 250.977 975.253C250.515 983.284 250.856 994.603 250.854 1002.88L223.043 1002.92C222.8 993.886 222.94 984.414 222.946 975.348Z"/><path fill="#FCFCFC" d="M807.77 335.009L835.688 334.879C835.683 344.055 835.615 353.231 835.484 362.406C826.242 362.567 816.997 362.583 807.755 362.454C807.541 353.413 807.71 344.078 807.77 335.009Z"/><path fill="#FCFCFC" d="M752.338 111.575L780.057 111.535C780.176 120.737 780.149 129.939 779.976 139.14C770.613 139.255 761.624 139.386 752.27 139.05C752.225 129.862 752.478 120.83 752.338 111.575Z"/><path fill="#FCFCFC" d="M83.7723 835.84L111.432 835.83L111.378 863.436C102.234 863.595 93.0883 863.576 83.9452 863.378C83.1908 856.03 83.5658 843.403 83.7723 835.84Z"/><path fill="#FCFCFC" d="M167.254 808.114C176.268 807.806 186.184 808.01 195.266 808.027L195.122 835.641L167.398 835.621C167.18 826.657 167.299 817.126 167.254 808.114Z"/><path fill="#FCFCFC" d="M167.335 919.593C175.22 919.576 187.684 919.928 195.199 919.332C195.158 928.564 195.007 938.05 195.233 947.258L167.332 947.168L167.335 919.593Z"/><path fill="#FCFCFC" d="M1147.53 613.235C1154.88 612.915 1162.73 613.136 1170.12 613.21C1170.18 619.403 1170.63 634.256 1169.85 639.762C1168.39 641.068 1168.5 640.628 1165.98 640.771L1142.37 640.724C1142.29 635.343 1141.71 618.572 1142.81 614.063C1144.2 612.967 1145.67 613.243 1147.53 613.235Z"/><path fill="#FCFCFC" d="M334.541 585.37C343.569 585.178 353.198 585.383 362.271 585.425C362.439 594.594 362.406 603.766 362.171 612.934L334.759 612.873C334.001 605.587 334.432 592.788 334.541 585.37Z"/><path fill="#FCFCFC" d="M1198.23 668.804L1225.9 668.739C1226.05 677.818 1225.91 687.238 1225.9 696.345C1216.7 696.544 1207.5 696.54 1198.3 696.333C1198.1 687.337 1198.24 677.84 1198.23 668.804Z"/><path fill="#FCFCFC" d="M835.546 83.8944C844.741 83.8783 854.192 83.7489 863.364 83.8934L863.316 111.349C854.733 111.359 844.162 111.072 835.748 111.443C835.333 102.182 835.467 93.1634 835.546 83.8944Z"/><path fill="#FCFCFC" d="M752.364 335.016L780.03 334.917C780.122 344.098 780.146 353.281 780.103 362.463C770.839 362.677 761.571 362.65 752.309 362.384L752.364 335.016Z"/><path fill="#FCFCFC" d="M389.941 863.662L418.266 863.662C417.538 871.06 417.887 883.417 417.892 891.203C409.229 891.203 398.82 891.867 390.35 891.037C390.371 884.617 390.773 869.221 389.941 863.662Z"/><path fill="#FCFCFC" d="M278.911 696.738C288.175 696.568 297.441 696.556 306.705 696.699L306.725 724.403L278.911 724.311L278.911 696.738Z"/><path fill="#FCFCFC" d="M334.631 83.9024C343.781 83.7481 353.235 83.8866 362.41 83.9066C362.19 92.8547 362.315 102.32 362.289 111.309C353.211 111.524 343.741 111.382 334.631 111.367L334.631 83.9024Z"/><path fill="#FCFCFC" d="M1170.29 808.213C1179.56 807.945 1188.84 807.951 1198.11 808.23C1198.23 817.356 1198.2 826.484 1198.02 835.609L1170.43 835.644L1170.29 808.213Z"/><path fill="#FCFCFC" d="M1030.72 473.978C1030.22 481.847 1030.52 493.279 1030.49 501.419L1002.99 501.446C1002.35 492.485 1002.67 482.942 1002.84 473.94L1030.72 473.978Z"/><path fill="#FCFCFC" d="M1030.56 195.286C1030.25 204.009 1030.52 214.137 1030.55 222.965L1002.96 222.963C1002.29 214.789 1002.69 203.736 1002.78 195.359C1012.04 195.405 1021.3 195.381 1030.56 195.286Z"/><path fill="#FCFCFC" d="M139.315 835.861C148.51 835.717 157.95 835.823 167.165 835.821L167.104 863.311C157.915 863.51 148.723 863.525 139.533 863.358C139.364 854.246 139.382 844.986 139.315 835.861Z"/><path fill="#FCFCFC" d="M529.573 947.223L557.236 947.298L557.196 975.089L529.62 975.089C529.47 965.888 529.806 956.191 529.573 947.223Z"/><path fill="#FCFCFC" d="M1114.38 752.517L1142.2 752.471L1142.22 779.996L1114.5 780.089C1114.32 771.013 1114.39 761.615 1114.38 752.517Z"/><path fill="#FCFCFC" d="M724.343 83.8914L752.222 83.8719L752.092 111.315C743.051 111.314 733.278 111.136 724.296 111.425L724.343 83.8914Z"/><path fill="#FCFCFC" d="M919.074 279.305L946.69 279.32C946.695 287.864 946.412 298.485 946.833 306.86C937.511 306.958 928.419 307.088 919.102 306.779C919.006 297.621 918.996 288.463 919.074 279.305Z"/><path fill="#FCFCFC" d="M835.658 585.377L863.357 585.372C863.426 594.554 863.399 603.737 863.277 612.919L835.743 612.948C835.342 603.842 835.557 594.508 835.658 585.377Z"/><path fill="#FCFCFC" d="M362.417 56.032L390.146 56.032C390.203 65.3016 390.269 74.2686 389.935 83.5293C380.807 83.7646 371.675 83.7642 362.548 83.528C362.456 74.363 362.412 65.1975 362.417 56.032Z"/><path fill="#FCFCFC" d="M334.631 251.167C343.725 250.981 353.194 251.166 362.35 251.121L362.172 279.074C353.016 278.967 343.859 278.909 334.703 278.899C334.363 270.326 334.638 259.887 334.631 251.167Z"/><path fill="#FCFCFC" d="M334.631 640.98L362.172 640.82C362.213 645.474 362.628 664.918 361.787 668.518C352.869 668.734 343.58 668.619 334.631 668.627C334.547 659.412 334.547 650.196 334.631 640.98Z"/><path fill="#FCFCFC" d="M1030.52 446.253C1039.8 446.089 1049.08 446.134 1058.36 446.388L1058.36 473.843C1051.31 473.851 1037.2 473.426 1030.72 473.978C1030.58 464.737 1030.51 455.495 1030.52 446.253Z"/><path fill="#FCFCFC" d="M1198.32 835.879L1225.87 835.786C1226.09 844.722 1225.91 854.381 1225.92 863.374C1216.47 863.536 1207.74 863.608 1198.31 863.338C1198.13 854.294 1198.28 844.948 1198.32 835.879Z"/><path fill="#FCFCFC" d="M780.166 640.989C789.325 640.865 798.486 640.86 807.645 640.974C807.753 650.197 807.722 659.42 807.55 668.642C798.424 668.74 789.298 668.717 780.172 668.571L780.166 640.989Z"/><path fill="#FCFCFC" d="M919.021 668.691L946.76 668.769L946.684 696.419C937.214 696.541 928.53 696.596 919.088 696.297L919.021 668.691Z"/><path fill="#FCFCFC" d="M696.503 835.636C705.748 835.715 714.993 835.743 724.238 835.72L724.251 863.393C714.952 863.721 705.802 863.505 696.503 863.354L696.503 835.636Z"/><path fill="#FCFCFC" d="M362.472 947.329L390.129 947.322C390.294 956.421 390.142 965.956 390.134 975.089L362.486 975.089C362.358 965.836 362.354 956.582 362.472 947.329Z"/><path fill="#FCFCFC" d="M807.942 557.51L835.484 557.51L835.484 585.051L807.942 585.051L807.942 557.51Z"/><path fill="#FCFCFC" d="M1086.65 780.297C1095.24 779.912 1105.59 780.203 1114.31 780.234L1114.22 807.91L1086.88 807.773C1086.28 799.1 1086.51 788.999 1086.65 780.297Z"/><path fill="#FCFCFC" d="M891.223 585.365C900.502 585.409 909.781 585.38 919.059 585.278C918.592 593.001 918.957 604.886 918.942 612.931L891.502 612.908C890.953 604.91 891.374 593.835 891.223 585.365Z"/><path fill="#FCFCFC" d="M919.051 446.371C928.215 446.306 937.623 446.133 946.764 446.323C946.75 455.312 946.57 464.901 946.8 473.841C938.699 473.85 926.84 473.488 919.046 473.973L919.051 446.371Z"/><path fill="#FCFCFC" d="M390.35 83.9073L418.041 83.8262C418.176 92.9325 418.073 102.237 418.065 111.36C408.827 111.405 399.588 111.39 390.35 111.315L390.35 83.9073Z"/><path fill="#FCFCFC" d="M1086.54 1058.99L1114.08 1058.99L1114.08 1086.53L1086.58 1086.53L1086.54 1058.99Z"/><path fill="#FCFCFC" d="M668.813 139.294C677.539 139.69 687.426 139.302 696.49 139.534L696.423 167.12C687.285 167.241 677.938 167.136 668.783 167.132L668.813 139.294Z"/><path fill="#FCFCFC" d="M618.128 251.351C623.685 250.743 634.82 251.145 640.724 251.196C640.744 255.289 641.449 276.657 639.887 278.762L636.95 278.899L613.349 278.899C613.126 273.195 612.909 257.237 613.467 252.092C615.002 251.028 615.867 251.416 618.128 251.351Z"/><path fill="#FCFCFC" d="M195.191 835.848L222.889 835.757C222.782 844.926 222.87 854.265 222.864 863.449C213.949 863.238 204.377 863.449 195.323 863.342L195.191 835.848Z"/><path fill="#FCFCFC" d="M1114.37 585.358L1142.05 585.337C1142.26 594.535 1142.3 603.735 1142.2 612.934C1134.79 612.921 1121.28 612.474 1114.36 613.02C1114.45 603.799 1114.45 594.578 1114.37 585.358Z"/><path fill="#FCFCFC" d="M83.6676 668.949L111.514 668.949C111.551 678.079 111.505 687.21 111.376 696.339C102.172 696.534 92.9648 696.544 83.7602 696.367C83.4067 687.39 83.6044 677.97 83.6676 668.949Z"/><path fill="#FCFCFC" d="M891.397 975.384L918.912 975.381C918.978 984.29 918.756 994.171 919.002 1002.95C909.785 1002.84 900.567 1002.82 891.349 1002.89C891.22 993.724 891.236 984.553 891.397 975.384Z"/><path fill="#FCFCFC" d="M891.246 474.028C900.512 473.929 909.78 473.911 919.046 473.973C918.785 482.833 918.944 492.513 918.913 501.438L891.398 501.405C890.848 494.539 891.251 481.404 891.246 474.028Z"/><path fill="#FCFCFC" d="M946.935 752.39C955.793 752.684 965.796 752.454 974.74 752.445L974.768 780.04C965.553 780.177 956.166 780.114 946.935 780.143L946.935 752.39Z"/><path fill="#FCFCFC" d="M946.935 473.992C955.956 473.72 965.68 473.974 974.801 473.929C974.736 483.124 974.744 492.32 974.825 501.515C966.336 501.125 955.6 501.407 946.935 501.387L946.935 473.992Z"/><path fill="#FCFCFC" d="M974.846 111.752L1002.64 111.752L1002.64 139.079C993.508 139.462 984.004 139.232 974.832 139.13C974.666 130.149 974.824 120.764 974.846 111.752Z"/><path fill="#FCFCFC" d="M362.432 613.229L390.158 613.229L390.068 640.735C380.882 640.869 371.694 640.82 362.51 640.59L362.432 613.229Z"/><path fill="#FCFCFC" d="M1142.36 835.863C1151.63 835.791 1160.89 835.785 1170.16 835.844L1170.13 863.336C1160.9 863.518 1151.66 863.555 1142.42 863.446L1142.36 835.863Z"/><path fill="#FCFCFC" d="M446.07 83.9069C455.25 83.8282 464.431 83.8365 473.612 83.9318C473.638 90.9261 474.055 104.643 473.368 111.08C464.298 111.371 455.223 111.451 446.149 111.32C445.905 102.475 446.083 92.8154 446.07 83.9069Z"/><path fill="#FCFCFC" d="M891.335 808.065C900.472 807.943 909.61 807.956 918.747 808.106C918.914 817.304 919.005 826.504 919.02 835.704C909.83 835.56 900.515 835.776 891.375 835.569L891.335 808.065Z"/><path fill="#FCFCFC" d="M111.551 752.529L139.097 752.435C139.224 761.653 139.238 770.872 139.137 780.089L111.57 780.088C111.24 771.301 111.498 761.401 111.551 752.529Z"/><path fill="#FCFCFC" d="M334.631 863.662L362.172 863.662L362.172 891.203C352.993 891.437 343.809 891.432 334.631 891.189L334.631 863.662Z"/><path fill="#FCFCFC" d="M696.416 1058.99L724.044 1058.99L724.044 1086.53L696.673 1086.53C696.208 1077.6 696.393 1067.98 696.416 1058.99Z"/><path fill="#FCFCFC" d="M557.51 195.36L585.051 195.378L585.051 222.95C575.871 223.003 566.69 222.989 557.51 222.91L557.51 195.36Z"/><path fill="#FCFCFC" d="M780.463 975.38L807.759 975.312L807.577 1002.93L780.356 1002.93C780.123 995.497 779.85 982.508 780.463 975.38Z"/><path fill="#FCFCFC" d="M780.15 83.8948L807.651 83.855C807.656 92.5706 807.383 102.881 807.691 111.457L780.286 111.317L780.15 83.8948Z"/><path fill="#FCFCFC" d="M195.625 1031.44C204.609 1031.35 213.594 1031.32 222.579 1031.36C222.503 1040.38 222.539 1049.4 222.686 1058.42C213.641 1058.35 204.594 1058.38 195.549 1058.5L195.625 1031.44Z"/></svg>