<?xml version="1.0" encoding="utf-8" ?><svg xmlns="http://www.w3.org/2000/svg" xmlns:xlink="http://www.w3.org/1999/xlink" width="1254" height="1254" viewBox="0 0 1254 1254"><path fill="#FBFBFB" d="M0 0L1254 0L1254 1254L0 1254L0 0Z"/><path fill="#085064" d="M611.684 200.445C836.517 192.227 1025.44 367.831 1033.66 592.665C1041.87 817.498 866.268 1006.42 641.434 1014.63C416.603 1022.85 227.683 847.245 219.468 622.415C211.253 397.584 386.853 208.663 611.684 200.445Z"/><path fill="#FBFBFB" d="M613.898 217.636C614.061 217.626 614.224 217.615 614.387 217.605C717.455 213.561 817.862 250.888 893.259 321.278C973.681 396.837 1015 491.539 1018.53 601.303L978.855 601.282C971.213 601.255 963.083 600.691 955.509 601.68C951.832 602.161 948.257 603.232 945.077 605.169C928.047 615.54 926.448 659.928 921.646 678.896C920.66 682.792 918.282 691.121 914.521 692.983C913.787 693.347 913.047 693.175 912.359 692.741C901.448 685.855 895.369 594.835 893.409 576.579C891.306 556.985 887.622 505.995 871.06 493.36C867.103 490.34 862.445 489.3 857.549 489.987C849.188 491.161 844.104 497.264 840.652 504.515C827.532 532.075 824.467 592.474 821.488 624.241C818.876 652.085 816.117 679.867 811.949 707.529C810.927 714.305 808.391 733.208 803.882 737.668C802.683 738.854 802.355 738.762 800.802 738.648C780.495 724.375 782.015 510.347 763.235 477.357C755.232 459.356 735.393 459.405 727.179 478.754C717.2 502.263 715.148 537.091 712.292 560.325C709.321 584.484 700.812 752.699 685.939 759.849C674.436 758.14 667.454 671.666 666.244 658.124C663.333 624.909 660.65 591.675 658.195 558.424C655.834 528.567 652.853 497.687 646.283 468.391C644.356 459.796 641.331 452.826 635.29 446.307C621.824 435.9 609.628 446.866 605.208 460.204C599.12 478.574 596.596 498.074 594.4 517.242C591.561 543.082 589.278 568.979 587.551 594.916C585.176 628.347 582.124 661.726 578.398 695.033C577.218 705.153 571.731 757.352 563.511 760.903C556.748 758.373 552.878 730.592 551.814 723.399C548.14 698.696 545.317 673.874 543.352 648.977C540.29 613.417 535.433 498.473 518.701 473.191C515.873 468.918 511.837 465.472 506.693 464.506C502.051 463.634 497.013 464.725 493.208 467.533C486.242 472.674 483.59 482.059 481.538 490.063C474.953 515.758 473.274 543.754 471.17 570.145C467.56 615.409 465.557 661.256 458.422 706.137C457.326 713.033 453.78 736.133 448.244 739.46C447.438 739.944 447.175 739.568 446.393 739.263C437.586 729.636 432.783 674.982 431.331 659.95C428.681 630.571 425.81 601.212 422.717 571.876C420.613 553.008 415.679 506.026 400.384 493.299C396.486 490.486 391.071 489.25 386.342 489.831C379.089 490.722 372.838 497.827 370.257 504.368C358.266 534.752 357.843 568.644 354.179 600.674C352.761 613.067 347.77 692.951 335.48 693.238C322.97 686.894 324.47 619.157 308.039 607.23C297.181 599.349 285.498 601.258 272.631 601.259L233.913 601.304C236.88 503.46 271.206 416.162 337.452 343.882C411.194 263.424 505.638 222.767 613.898 217.636Z"/><path fill="#FBFBFB" d="M623.626 458.241C623.987 458.351 624.366 458.416 624.71 458.573C638.012 464.627 645.789 601.201 647.256 620.026C648.808 639.92 650.551 659.798 652.483 679.659C654.687 702.029 657.398 724.393 662.435 746.492C665.512 759.994 671.989 780.237 690.464 775.631C695.702 774.325 701.103 767.775 703.017 762.814C712.623 737.921 714.32 709.657 717.646 683.352C723.696 630.83 724.638 578.317 732.048 526.011C733.886 513.042 736.505 495.451 741.962 483.488C742.865 481.509 743.886 480.765 745.754 480.167C760.226 486.251 765.13 622.922 767.873 644.512C771.493 672.998 773.051 715.582 784.775 743.871C786.806 748.772 793.134 754.169 798.166 755.104C809.58 757.225 818.143 747.408 820.869 737.211C839.69 666.886 834.312 591.811 851.071 521.098C852.132 516.619 855.027 507.694 859.165 505.389C881.742 507.617 877.696 684.087 900.208 702.585C905.167 706.66 907.619 708.576 914.383 708.41C945.304 707.651 937.423 638.158 951.91 620.113C952.696 619.134 954.869 617.795 956.08 617.627C963.369 616.611 971.92 617.019 979.331 617.039L1018.61 617.101C1016.71 714.967 977.709 808.457 909.498 878.661C836.209 954.093 735.796 997.082 630.627 998.051C528.741 998.434 430.556 959.882 356.149 890.279C278.461 817.303 237.592 723.231 234.229 617.184L271.549 617.04C295.984 616.971 299.85 612.772 305.714 641.649C309.066 658.152 313.522 726.411 347.175 704.908C360.945 696.109 362.442 659.631 365.441 644.406C369.569 623.447 373.232 517.939 387.196 506.432C388.808 506.055 389.282 505.832 390.824 506.659C403.903 513.669 410.242 605.913 412.045 624.106C414.084 644.735 416.229 665.352 418.481 685.959C420.338 701.993 424.694 744.873 439.202 753.123C443.25 755.407 448.067 755.9 452.493 754.482C456.854 753.083 460.564 750.158 462.942 746.243C478.069 721.155 482.661 615.005 486.085 580.717C487.09 567.031 488.44 552.735 489.933 539.161C490.934 530.067 494.78 482.44 503.572 480.17C513.543 483.879 519.44 547.986 520.539 559.334C526.789 623.814 527.644 689.904 542.216 753.246C543.539 758.993 547.627 768.548 552.406 772.287C561.118 779.103 572.135 777.058 578.146 767.667C588.052 750.004 590.751 722.536 593.215 702.75C596.124 678.118 598.596 653.437 600.63 628.718C603.192 598.018 609.278 477.834 623.192 458.818C623.335 458.624 623.481 458.433 623.626 458.241Z"/></svg>