<?xml version="1.0" encoding="utf-8" ?><svg xmlns="http://www.w3.org/2000/svg" xmlns:xlink="http://www.w3.org/1999/xlink" width="1254" height="1254" viewBox="0 0 1254 1254"><path fill="#F4F4F3" d="M0 0L38.3104 0L75.9471 0L114.028 0L151.847 0L189.907 0L227.662 0L265.612 0L303.388 0L341.156 0L379.001 0L416.81 0L454.508 0L492.506 0L530.223 0L568.201 0L605.762 0L643.558 0L681.46 0L719.444 0L757.088 0L795.17 0L832.796 0L870.642 0L908.527 0L946.263 0L983.93 0L1097.49 0L1135.38 0L1173.3 0L1211.03 0L1249.12 0L1254 0L1254 37.9792L1254 76.5032L1254 113.707L1254 151.951L1254 189.192L1254 227.732L1254 265.08L1254 303.495L1254 340.93L1254 378.936L1254 416.401L1254 454.729L1254 492.175L1254 530.244L1254 568.096L1254 605.914L1254 643.38L1254 681.941L1254 719.358L1254 757.672L1254 795.207L1254 833.338L1254 871.149L1254 908.917L1254 946.519L1254 984.877L1254 1022.74L1254 1060.53L1254 1098.37L1254 1136.24L1254 1173.83L1254 1211.94L1254 1254L1211.22 1254L1173.51 1254L1135.5 1254L1098.04 1254L1059.43 1254L1022.21 1254L983.786 1254L946.433 1254L908.276 1254L870.555 1254L832.638 1254L795.253 1254L757.054 1254L719.556 1254L681.137 1254L643.49 1254L605.556 1254L568.504 1254L530.134 1254L492.495 1254L454.443 1254L416.561 1254L378.982 1254L341.254 1254L303.132 1254L265.507 1254L227.409 1254L189.642 1254L151.585 1254L113.8 1254L76.2325 1254L38.4939 1254L0 1254L0 1249.71L0 1211.8L0 1173.98L0 1135.86L0 1098.3L0 984.631L0 946.741L0 908.701L0 871.243L0 833.182L0 795.411L0 757.358L0 719.698L0 681.443L0 643.703L0 605.898L0 568.013L0 529.894L0 492.303L0 454.26L0 416.604L0 378.684L0 341.13L0 303.131L0 265.23L0 227.217L0 189.292L0 151.704L0 113.997L0 75.9218L0 38.145L0 0Z"/><path fill="#FCFCFC" d="M643.558 0L681.46 0L719.444 0L757.088 0L795.17 0L832.796 0C832.771 12.4405 832.532 25.5538 832.818 37.9417C823.436 38.032 803.23 37.475 795.222 38.0936L795.166 76.005C807.062 76.4648 820.758 76.0996 832.784 76.0576C832.767 86.9954 832.277 103.333 832.791 113.88C825.373 113.175 803.441 113.747 795.289 113.836C795.154 126.431 795.105 139.026 795.143 151.62C783.593 151.647 768.609 151.286 757.305 151.752C757.837 141.239 757.36 124.33 757.054 113.742C744.516 113.706 731.979 113.745 719.442 113.86C719.067 125.565 719.388 139.67 719.384 151.541C706.874 151.741 694.132 151.64 681.604 151.661C681.421 139.204 681.525 126.394 681.498 113.911C673.46 113.206 652.553 113.74 643.692 113.747C643.286 101.991 643.608 87.8214 643.596 75.9667C634.991 75.3441 615.386 75.8838 606.124 75.8901C605.968 63.3641 605.958 50.8367 606.094 38.3104L643.664 38.2186C643.402 25.7888 643.585 12.4902 643.558 0Z"/><path fill="#FCFCFC" d="M492.506 0L530.223 0L568.201 0L605.762 0C605.679 11.2844 605.183 27.1441 605.906 38.01C593.388 38.021 580.739 37.9342 568.233 38.0967C568.039 48.6226 567.617 65.585 568.209 76.0267C580.089 76.4742 593.636 76.0777 605.665 76.0773L605.678 113.724C594.335 113.728 579.227 113.304 568.189 113.885C567.571 124.808 568.078 140.298 568.099 151.562L530.366 151.736C530.113 139.356 530.319 126.306 530.267 113.868C521.555 113.235 501.968 113.762 492.535 113.759C492.053 102.426 492.39 87.5057 492.358 75.942L454.911 75.8511C454.402 63.5434 454.675 50.6258 454.772 38.2647C466.495 38.094 481.028 38.8279 492.38 38.112C492.351 25.4079 492.393 12.7037 492.506 4.35069e-15L492.506 0Z"/><path fill="#FCFCFC" d="M341.156 0L379.001 0L416.81 0L454.508 0C454.483 12.2947 454.181 25.7273 454.537 37.932C441.952 38.0631 429.366 38.0875 416.78 38.0054L416.68 75.8946C404.729 75.8997 390.829 75.5923 379.016 75.9309C378.858 86.8445 378.44 103.03 379.004 113.888C370.063 113.214 350.86 113.751 341.197 113.76C340.898 101.446 341.229 88.4345 341.068 75.9722L303.506 75.8633C303.387 63.3224 303.334 50.7808 303.348 38.2393C315.928 38.3094 328.509 38.2675 341.089 38.1136C341.509 26.4948 341.148 11.8062 341.156 0Z"/><path fill="#FCFCFC" d="M189.841 189.299C189.59 201.189 189.535 215.338 189.851 227.239C201.253 228.001 215.965 227.443 227.689 227.469L227.579 265.035C215.01 265.206 202.438 265.255 189.868 265.183C189.728 277.805 189.705 290.428 189.799 303.051C178.245 303.089 163.007 302.645 151.846 303.126L151.936 265.172L113.911 265.168C114.457 254.653 114.028 238.438 114.047 227.535C126.332 227.432 139.739 227.812 151.88 227.307L151.967 189.508C164.431 189.299 177.525 189.807 189.841 189.299Z"/><path fill="#FCFCFC" d="M1254 151.951L1254 189.192L1254 227.732L1254 265.08L1254 303.495L1254 340.93L1249.06 341.1L1249.07 303.165C1237.17 302.814 1223.11 303.087 1211.12 303.183C1211.59 291.862 1211.31 276.62 1211.12 265.215C1222.26 265.334 1238.16 265.708 1249.05 265.167L1249.07 227.157C1236.45 227.23 1223.83 227.223 1211.21 227.136L1211.15 189.499C1223.79 189.322 1236.35 189.661 1249.04 189.263C1249.02 179.549 1248.45 161.655 1249.32 152.577C1250.9 151.631 1251.85 151.989 1254 151.951Z"/><path fill="#FCFCFC" d="M1249.12 0L1254 0L1254 37.9792L1254 76.5032L1254 113.707C1251.94 113.653 1251.74 113.624 1249.73 113.162C1248.39 110.505 1249.04 80.7092 1249.03 75.8799L1211.2 75.9549C1211.59 64.5836 1211.19 49.9255 1211.17 38.3388C1223.78 38.0214 1236.47 38.4861 1249.05 38.0928C1248.99 25.3952 1249.01 12.6973 1249.12 0Z"/><path fill="#FCFCFC" d="M1249.05 719.434C1249.04 712.224 1248.53 688.438 1249.39 682.666C1250.92 681.678 1251.85 682.022 1254 681.941L1254 719.358L1254 757.672L1254 795.207L1249.05 795.342L1249.07 757.376C1237.63 756.944 1222.72 757.263 1211.09 757.378C1211.39 745.046 1211.18 732.213 1211.15 719.843C1223.72 719.581 1236.49 719.975 1249.05 719.434Z"/><path fill="#FCFCFC" d="M1254 1211.94L1254 1254L1211.22 1254C1211.16 1252.37 1211.33 1251.31 1210.38 1250.01C1203.52 1249.15 1181.77 1249.71 1173.43 1249.71C1172.92 1237.86 1173.26 1223.9 1173.25 1211.9C1185.84 1211.83 1198.43 1211.86 1211.02 1211.97L1211.07 1249.87C1223.73 1249.76 1236.38 1249.79 1249.03 1249.95C1248.98 1243.1 1248.38 1218.14 1249.38 1212.69C1250.77 1211.61 1252.16 1211.91 1254 1211.94Z"/><path fill="#FCFCFC" d="M189.882 1212.08C202.478 1211.84 215.077 1211.81 227.674 1212C227.59 1224.22 227.857 1237.62 227.388 1249.72C220.848 1249.71 195.235 1249.27 190.367 1250.04C189.582 1251.73 189.712 1252.15 189.642 1254L151.585 1254C151.948 1251.53 151.507 1251.38 152.947 1250.13C160.633 1249.19 181.058 1249.88 189.882 1249.95L189.882 1212.08Z"/><path fill="#FCFCFC" d="M870.642 0L908.527 0C908.533 12.4283 908.761 25.6018 908.431 37.9715C896.504 38.0434 882.345 37.6515 870.615 38.0355C870.489 25.3573 870.498 12.678 870.642 0Z"/><path fill="#FCFCFC" d="M0 946.741L38.178 946.748L38.1716 984.479L0 984.631L0 946.741Z"/><path fill="#FCFCFC" d="M8.70137e-15 1173.98C12.6907 1173.88 25.382 1173.9 38.0724 1174.02C38.1238 1186.39 38.3683 1199.37 38.0747 1211.7C25.3834 1211.81 12.6917 1211.84 0 1211.8L0 1173.98L8.70137e-15 1173.98Z"/><path fill="#FCFCFC" d="M-6.52603e-15 795.411C12.7503 795.346 25.5009 795.345 38.2512 795.409C37.8974 808.022 38.5042 820.454 38.1565 832.93C25.4399 833.223 12.7194 833.307 0 833.182L0 795.411L-6.52603e-15 795.411Z"/><path fill="#FCFCFC" d="M0 189.292C12.6987 189.385 25.398 189.392 38.0968 189.31L38.1692 227.109L0 227.217L0 189.292Z"/><path fill="#FCFCFC" d="M1097.49 0L1135.38 0C1135.45 12.6507 1135.44 25.3018 1135.34 37.9523C1122.81 38.1512 1110.27 38.1617 1097.73 37.9838C1097.45 25.5227 1097.55 12.5039 1097.49 0Z"/><path fill="#FCFCFC" d="M-4.35069e-15 38.145C12.7683 38.1085 25.5367 38.1412 38.3047 38.2431C37.9755 50.8032 38.0829 63.2956 37.9723 75.854L0 75.9218L0 38.145L-4.35069e-15 38.145Z"/><path fill="#FCFCFC" d="M0 416.604C11.8132 416.675 26.567 417.149 38.1861 416.6C38.0803 429.2 38.4396 441.95 38.2997 454.409C30.8289 453.732 8.27045 454.315 0 454.26L0 416.604Z"/><path fill="#FCFCFC" d="M0 265.23L38.1722 265.265L38.0938 303.083C25.4833 303.112 12.5859 303.282 0 303.131L0 265.23Z"/><path fill="#FCFCFC" d="M227.795 265.295L265.542 265.184C265.687 277.811 265.658 290.44 265.453 303.067C252.916 303.174 240.379 303.214 227.841 303.186C227.559 290.708 227.757 277.806 227.795 265.295Z"/><path fill="#FCFCFC" d="M114.028 0L151.847 0L151.834 38.0101C140.935 38.0219 124.421 37.5698 113.921 38.1249C114.384 26.688 113.963 11.6804 114.028 0Z"/><path fill="#FCFCFC" d="M265.612 0L303.388 0C303.1 12.5159 303.27 25.4403 303.282 37.9877C290.743 38.0962 278.204 38.0819 265.666 37.9447C265.232 25.6735 265.543 12.3508 265.612 0Z"/><path fill="#FCFCFC" d="M0 568.013L38.1744 568.153C38.0185 580.664 38.32 593.165 38.1653 605.597C26.2479 605.952 11.9709 606.196 0 605.898L0 568.013Z"/><path fill="#FCFCFC" d="M189.907 0L227.662 0C227.645 12.5228 227.772 25.396 227.571 37.8891C217.619 37.9657 199.33 37.4767 189.84 38.1019C190.332 27.0739 189.902 11.346 189.907 0Z"/><path fill="#FCFCFC" d="M0 643.703L38.071 643.77C38.1265 656.219 37.9698 669.051 38.1353 681.443L0 681.443L0 643.703Z"/><path fill="#FCFCFC" d="M0 719.698L38.3004 719.618C38.2582 732.023 38.0466 744.958 38.2058 757.322L0 757.358L0 719.698Z"/><path fill="#FCFCFC" d="M946.263 0L983.93 0C984.09 12.5594 983.942 25.3796 983.928 37.9594C971.376 38.0896 958.823 38.0837 946.271 37.9417C946.479 25.5041 946.281 12.4819 946.263 0Z"/><path fill="#FCFCFC" d="M0 341.13L38.0932 341.161C38.2871 353.624 38.2671 366.089 38.0333 378.551C26.0695 379.022 12.074 378.964 0 378.684L0 341.13Z"/><path fill="#FCFCFC" d="M0 871.243C12.7249 871.13 25.4507 871.162 38.1748 871.34C38.0196 883.769 38.0262 896.2 38.1944 908.629C25.4642 908.863 12.731 908.887 2.17534e-15 908.701L0 871.243Z"/><path fill="#FCFCFC" d="M908.61 1211.8C908.523 1224.16 908.722 1237.41 908.289 1249.68C895.907 1249.68 882.963 1249.48 870.625 1249.77C870.531 1237.21 870.541 1224.65 870.655 1212.09C882.986 1211.73 896.192 1211.9 908.61 1211.8Z"/><path fill="#FCFCFC" d="M681.511 1135.96C681.234 1148.21 681.459 1161.51 681.438 1173.84C668.845 1173.96 656.25 1173.93 643.657 1173.76C643.58 1161.23 643.596 1148.7 643.703 1136.17C656.354 1135.75 668.88 1136.42 681.511 1135.96Z"/><path fill="#FCFCFC" d="M719.473 1173.9L719.431 1211.68C708.51 1211.75 691.963 1211.34 681.494 1211.92C681.705 1199.54 681.543 1186.53 681.558 1174.11C694.196 1173.97 706.834 1173.9 719.473 1173.9Z"/><path fill="#FCFCFC" d="M227.741 189.287C240.006 189.705 253.176 189.358 265.544 189.435C265.566 202.011 265.67 214.676 265.542 227.245C254.308 226.725 239.346 227.145 227.804 227.168C227.46 215.126 227.777 201.434 227.741 189.287Z"/><path fill="#FCFCFC" d="M38.3104 0L75.9471 0C76.1181 12.4897 75.9724 25.3874 75.9826 37.9072C63.5058 38.0641 51.0275 38.0746 38.5504 37.9386C38.3256 25.2937 38.2456 12.6467 38.3104 0Z"/><path fill="#FCFCFC" d="M0 113.997L38.0902 113.9L38.008 151.547C25.3391 151.673 12.6695 151.726 1.08767e-15 151.704L0 113.997Z"/><path fill="#FCFCFC" d="M1173.3 0L1211.03 0L1210.96 37.9297C1198.47 38.0725 1185.97 38.0738 1173.48 37.9335C1172.98 25.9583 1173.31 12.112 1173.3 0Z"/><path fill="#FCFCFC" d="M643.588 1211.85C655.021 1211.89 670.335 1212.35 681.494 1211.92L681.461 1249.74C670.604 1249.7 653.914 1249.15 643.657 1249.77L643.588 1211.85Z"/><path fill="#FCFCFC" d="M0 492.303L38.1963 492.364C38.1641 504.65 37.9302 517.582 38.2668 529.817L0 529.894L0 492.303Z"/><path fill="#FCFCFC" d="M189.84 38.1019C189.679 49.4714 189.385 64.6814 189.878 75.9549C179.523 75.3645 162.587 75.842 151.889 75.9518C152.274 64.3039 151.919 50.1559 151.949 38.2427C164.317 38.2527 177.539 38.4963 189.84 38.1019Z"/><path fill="#FCFCFC" d="M227.815 38.3306L265.503 38.1129L265.631 75.9712C254.545 75.4707 239.024 75.8593 227.762 75.9799L227.815 38.3306Z"/><path fill="#FCFCFC" d="M1249.05 795.342C1248.92 807.888 1248.91 820.435 1249.02 832.981C1236.45 833.268 1223.87 833.299 1211.3 833.075C1211.2 820.51 1211.18 807.946 1211.22 795.381C1223.83 795.479 1236.44 795.466 1249.05 795.342Z"/><path fill="#FCFCFC" d="M151.882 113.919C163.945 114.336 177.574 113.962 189.749 113.893C189.749 126.259 189.938 139.294 189.732 151.612C177.206 151.633 164.474 151.473 151.987 151.593C151.828 139.209 152.174 126.114 151.882 113.919Z"/><path fill="#FCFCFC" d="M113.911 265.168C113.252 275.275 113.802 292.294 113.838 303.067C101.34 303.204 88.8405 303.205 76.3425 303.071C76.0313 290.991 75.9209 277.252 76.2317 265.242C88.7913 265.324 101.351 265.3 113.911 265.168Z"/><path fill="#FCFCFC" d="M265.542 227.245C274.008 227.949 294.478 227.713 303.241 227.263C303.415 239.86 303.413 252.458 303.235 265.054C290.671 265.17 278.107 265.213 265.542 265.184C265.178 253.227 265.516 239.358 265.542 227.245Z"/><path fill="#FCFCFC" d="M719.42 1135.94C731.934 1136.06 744.794 1135.85 757.238 1136.33C757.121 1148.85 757.265 1161.39 757.072 1173.89C744.845 1173.89 731.628 1173.66 719.473 1173.9C719.537 1161.24 719.52 1148.59 719.42 1135.94Z"/><path fill="#FCFCFC" d="M1249.06 643.548C1248.86 656.18 1248.84 668.815 1249.01 681.448C1237.98 681.445 1221.74 680.988 1211.11 681.556C1211.24 668.984 1211.24 656.41 1211.12 643.838C1223.65 643.51 1236.51 644.086 1249.06 643.548Z"/><path fill="#FCFCFC" d="M1211.11 113.905C1223.71 114.006 1236.31 114.035 1248.91 113.993C1249.02 126.523 1249.01 139.054 1248.9 151.584C1236.77 151.688 1223.32 151.997 1211.28 151.513L1211.11 113.905Z"/><path fill="#FCFCFC" d="M719.473 189.251C719.095 201.62 719.369 214.794 719.429 227.223C706.803 227.122 694.177 227.087 681.551 227.119L681.576 189.471C694.005 189.474 707.097 189.63 719.473 189.251Z"/><path fill="#FCFCFC" d="M416.887 76.1424L454.434 76.0776C454.55 88.641 454.55 101.205 454.436 113.768L416.859 113.811C416.373 101.648 416.699 88.393 416.887 76.1424Z"/><path fill="#FCFCFC" d="M151.847 1211.96L151.81 1249.7C139.198 1249.62 126.586 1249.65 113.974 1249.8C114.308 1237.75 114.02 1224.14 114.007 1211.97C126.594 1211.78 139.256 1212.15 151.847 1211.96Z"/><path fill="#FCFCFC" d="M189.843 416.456C189.713 429.053 189.702 441.652 189.809 454.249C178.997 454.293 161.997 453.802 151.856 454.386C152.143 442.338 151.905 428.982 151.925 416.845C163.154 416.755 179.054 417.213 189.843 416.456Z"/><path fill="#FCFCFC" d="M416.898 1212.11C427.988 1211.69 443.294 1211.61 454.445 1212.05L454.401 1249.82C441.884 1249.62 429.365 1249.58 416.847 1249.68C416.578 1237.16 416.595 1224.63 416.898 1212.11Z"/><path fill="#FCFCFC" d="M379.004 113.888C389.513 114.042 406.678 114.435 416.859 113.811C416.205 122.993 416.698 141.98 416.619 151.672C404.115 151.767 391.612 151.746 379.109 151.61L379.004 113.888Z"/><path fill="#FCFCFC" d="M0 1098.3L38.284 1098.42C38.0965 1110.88 38.0278 1123.35 38.0778 1135.82L0 1135.86L0 1098.3Z"/><path fill="#FCFCFC" d="M265.556 113.841C265.568 126.157 265.829 139.452 265.444 151.692C253.375 151.692 239.695 151.369 227.757 151.801L227.797 114.082C240.391 113.857 252.975 114.192 265.556 113.841Z"/><path fill="#FCFCFC" d="M1173.23 113.891L1173.23 151.765C1166.76 151.107 1143.84 151.678 1135.74 151.668C1134.87 142.035 1135.49 124.047 1135.64 114.027C1148.14 113.903 1160.77 114.188 1173.23 113.891Z"/><path fill="#FCFCFC" d="M1211.2 75.9549C1210.68 87.5948 1210.93 102.167 1211.11 113.905C1201.04 113.236 1183.7 113.731 1173.23 113.891C1173.61 102.139 1173.43 87.7059 1173.22 75.9554C1178.94 76.346 1205.71 76.4715 1211.2 75.9549Z"/><path fill="#FCFCFC" d="M1097.79 1212.05C1110.32 1211.85 1122.85 1211.84 1135.38 1212.02L1135.38 1249.81C1122.87 1249.65 1110.37 1249.63 1097.87 1249.74C1097.67 1237.18 1097.64 1224.61 1097.79 1212.05Z"/><path fill="#FCFCFC" d="M151.973 1174.03C164.426 1173.94 177.341 1173.67 189.749 1174.14L189.788 1211.79C178.17 1211.78 163.227 1211.39 151.847 1211.96L151.973 1174.03Z"/><path fill="#FCFCFC" d="M1211.12 303.183C1210.95 315.594 1211.28 328.654 1210.95 340.916C1201.29 340.926 1182.2 340.423 1173.24 341.09C1173.68 329.679 1173.31 314.946 1173.32 303.31C1185.92 303.365 1198.52 303.322 1211.12 303.183Z"/><path fill="#FCFCFC" d="M151.889 75.9518C151.663 87.3045 151.431 102.627 151.882 113.919C144.674 113.244 122.227 113.743 114.004 113.736L114.009 76.1595C126.636 76.2001 139.264 76.1308 151.889 75.9518Z"/><path fill="#FCFCFC" d="M681.572 1098.43L719.444 1098.39L719.42 1135.94C711.103 1135.25 690.709 1135.87 681.511 1135.96L681.572 1098.43Z"/><path fill="#FCFCFC" d="M38.3621 1212.03C50.8951 1211.86 63.4297 1211.87 75.9623 1212.06L76.0262 1249.78C63.4519 1249.5 50.9539 1249.74 38.3897 1249.7C38.3033 1237.31 38.6307 1224.27 38.3621 1212.03Z"/><path fill="#FCFCFC" d="M189.878 492.265C189.398 504.02 189.751 517.929 189.836 529.852C177.554 529.802 164.196 529.599 151.977 529.979C151.709 517.571 151.914 504.699 151.874 492.233C163.653 492.641 178.031 492.529 189.878 492.265Z"/><path fill="#FCFCFC" d="M151.856 454.386C151.69 466.336 151.533 480.3 151.874 492.233C140.499 491.798 125.382 492.033 113.937 492.262C114.243 480.217 114.007 466.762 114.028 454.622C125.81 454.59 140.384 455.065 151.856 454.386Z"/><path fill="#FCFCFC" d="M1249.06 341.1L1248.94 378.752C1237.95 378.324 1222.94 378.835 1211.35 378.734C1210.61 370.195 1211.15 350.704 1211.14 341.215C1223.39 341.207 1236.94 341.567 1249.06 341.1Z"/><path fill="#FCFCFC" d="M908.676 1174.11L946.155 1174.1L946.333 1211.77L908.61 1211.8C908.515 1199.24 908.537 1186.67 908.676 1174.11Z"/><path fill="#FCFCFC" d="M265.631 75.9712C278.02 76.2849 291.005 76.0481 303.439 75.9992C303.171 88.5753 303.112 101.155 303.261 113.733C291.743 113.747 276.813 113.328 265.556 113.841L265.631 75.9712Z"/><path fill="#FCFCFC" d="M1135.56 38.3238C1148.11 38.1166 1160.67 38.0795 1173.23 38.2125C1173.22 50.3793 1172.94 63.8959 1173.22 75.9554L1135.65 75.9266C1135.07 63.9207 1135.52 50.5022 1135.56 38.3238Z"/><path fill="#FCFCFC" d="M719.429 227.223C726.944 227.94 749.126 227.786 757.18 227.418C757.215 239.674 757.178 251.93 757.068 264.185C755.04 266.03 724.716 265.136 719.568 265.081C719.408 253.479 719.942 238.381 719.429 227.223Z"/><path fill="#FCFCFC" d="M606.001 1174.34C618.408 1173.79 631.113 1173.95 643.554 1173.96C643.562 1186.18 643.285 1199.73 643.588 1211.85C631.808 1211.56 617.676 1211.58 605.872 1211.89C606.03 1199.37 606.073 1186.86 606.001 1174.34Z"/><path fill="#FCFCFC" d="M870.615 38.0355C870.15 50.047 870.451 63.7181 870.444 75.8512C858.589 75.9339 844.739 76.3173 832.984 75.7664C832.549 63.8726 832.85 50.2872 832.833 38.2661C845.428 38.3061 858.022 38.2293 870.615 38.0355Z"/><path fill="#FCFCFC" d="M189.878 75.9549C200.681 76.2844 216.989 76.4274 227.762 75.9799C227.113 85.5162 227.62 103.611 227.621 113.751L190.034 113.751C189.693 101.661 189.908 88.1467 189.878 75.9549Z"/><path fill="#FCFCFC" d="M1173.34 227.525L1211 227.403C1211 237.461 1210.5 255.694 1211.12 265.215C1198.57 265.081 1186.01 265.044 1173.45 265.104C1173.28 252.578 1173.25 240.051 1173.34 227.525Z"/><path fill="#FCFCFC" d="M1248.76 1098.41C1249.59 1109.54 1248.69 1124.32 1249.07 1135.83L1211.23 1135.84L1211.2 1098.43L1248.76 1098.41Z"/><path fill="#FCFCFC" d="M1211.11 681.556C1210.79 693.93 1211.01 707.044 1211.02 719.472L1173.37 719.42C1173.19 706.959 1173.34 694.188 1173.35 681.703C1185.94 681.798 1198.53 681.748 1211.11 681.556Z"/><path fill="#FCFCFC" d="M1211.15 568.195L1249.04 568.158C1248.91 580.664 1248.89 593.171 1249 605.678C1236.21 605.548 1224.06 606.194 1211.22 605.562L1211.15 568.195Z"/><path fill="#FCFCFC" d="M832.791 113.88C845.277 114.15 857.991 113.921 870.512 114.002L870.444 151.682C858.264 151.697 845.18 151.871 833.052 151.528C832.572 139.124 833.371 125.714 832.791 113.88Z"/><path fill="#FCFCFC" d="M151.846 303.126L151.82 340.946C139.236 341.067 126.652 341.035 114.069 340.85L114.066 303.286C123.628 303.876 141.94 303.431 151.846 303.126Z"/><path fill="#FCFCFC" d="M38.2997 454.409C49.8458 454.745 64.417 454.829 75.9848 454.509C75.9663 466.61 75.6292 480.253 76.0401 492.23C63.8055 491.94 50.7964 492.194 38.506 492.229C38.158 480.013 38.4824 466.803 38.2997 454.409Z"/><path fill="#FCFCFC" d="M1249.03 492.256C1248.45 503.075 1248.91 518.525 1248.94 529.767C1236.38 529.9 1223.82 529.885 1211.25 529.72C1211.03 517.536 1211.19 504.602 1211.16 492.368C1223.52 492.411 1236.74 492.684 1249.03 492.256Z"/><path fill="#FCFCFC" d="M113.921 38.1249C113.45 50.1279 114.449 64.1811 113.567 75.8522C108.146 75.899 78.8598 77.2286 76.2167 74.8539L76.2054 38.2007C87.6194 38.1933 102.909 38.7669 113.921 38.1249Z"/><path fill="#FCFCFC" d="M189.944 454.627C202.486 454.517 215.029 454.504 227.571 454.586C227.836 466.429 227.856 480.325 227.573 492.192C215.008 492.134 202.443 492.158 189.878 492.265L189.944 454.627Z"/><path fill="#FCFCFC" d="M1211.09 757.378C1210.53 767.88 1211.01 784.286 1211.01 795.204L1173.53 795.258C1172.96 783.538 1173.3 769.564 1173.3 757.68C1185.74 757.539 1198.71 757.873 1211.09 757.378Z"/><path fill="#FCFCFC" d="M227.757 151.801C227.368 162.903 227.371 178.121 227.741 189.287C217.092 188.749 200.847 189.182 189.841 189.299C190.354 178.789 189.893 162.864 189.886 151.983C202.272 151.692 215.315 151.878 227.757 151.801Z"/><path fill="#FCFCFC" d="M1173.24 341.09C1172.65 350.684 1173.17 368.566 1173.18 378.713L1135.58 378.916C1135.06 367.551 1135.47 352.796 1135.63 341.238C1148.13 341.023 1160.81 341.49 1173.24 341.09Z"/><path fill="#FCFCFC" d="M1173.23 151.765C1185.83 152.036 1198.44 151.74 1211 151.945L1211.02 189.208C1198.66 189.254 1185.64 189.503 1173.34 189.153C1173.33 177.963 1173.73 162.643 1173.23 151.765Z"/><path fill="#FCFCFC" d="M719.526 151.897C731.981 151.801 744.902 152.18 757.305 151.752C756.893 163.987 757.126 176.908 757.16 189.197C745.63 189.22 730.608 188.791 719.473 189.251C719.681 176.939 719.524 164.238 719.526 151.897Z"/><path fill="#FCFCFC" d="M189.917 379.031L227.643 379.074C227.541 391.427 227.753 404.062 227.539 416.353L189.843 416.456L189.917 379.031Z"/><path fill="#FCFCFC" d="M113.937 492.262C113.281 503.269 113.749 518.588 113.752 529.911L76.3656 529.792C76.0053 517.457 76.1952 504.653 76.0401 492.23C86.2238 492.379 104.04 492.924 113.937 492.262Z"/><path fill="#FCFCFC" d="M1254 1098.37C1251.67 1098.12 1250.92 1098.44 1249.31 1097.25C1248.97 1093.16 1248.6 1062.35 1249.64 1060.65L1254 1060.53L1254 1098.37Z"/><path fill="#FCFCFC" d="M1254 530.244L1254 568.096C1251.88 568.029 1251.38 568.099 1249.32 567.386C1248.58 560.82 1248.97 538.088 1249.27 531.086C1250.39 529.94 1251.83 530.342 1254 530.244Z"/><path fill="#FCFCFC" d="M1254 1022.74C1252.25 1022.66 1250.76 1022.82 1249.33 1021.9C1248.8 1014.9 1248.73 992.361 1249.31 985.4C1251.04 984.635 1251.99 984.89 1254 984.877L1254 1022.74Z"/><path fill="#FCFCFC" d="M1249.07 1135.83L1254 1136.24L1254 1173.83C1252.18 1173.82 1251.07 1173.98 1249.43 1173.17C1248.59 1168.29 1249.05 1142.36 1249.07 1135.83Z"/><path fill="#FCFCFC" d="M1254 871.149C1251.89 871.036 1251.41 871.088 1249.36 870.357C1248.96 866.499 1248.65 835.104 1249.63 833.489L1254 833.338L1254 871.149Z"/><path fill="#FCFCFC" d="M1249 605.678L1254 605.914L1254 643.38L1249.06 643.548C1249.11 630.925 1249.09 618.301 1249 605.678Z"/><path fill="#FCFCFC" d="M1249.03 492.256C1249.03 483.995 1248.46 462.676 1249.38 455.4C1250.95 454.432 1251.84 454.785 1254 454.729L1254 492.175L1249.03 492.256Z"/><path fill="#FCFCFC" d="M1254 416.401C1252.2 416.381 1251.23 416.254 1249.46 416.041C1248.69 413.438 1248.89 383.231 1249.35 379.709C1250.9 378.67 1251.78 379.028 1254 378.936L1254 416.401Z"/><path fill="#FCFCFC" d="M1249.15 946.308C1248.95 940.232 1248.62 914.57 1249.45 909.89C1251.29 908.706 1251.47 909.092 1254 908.917L1254 946.519L1249.15 946.308Z"/><path fill="#FCFCFC" d="M0 1249.71C8.30215 1249.77 30.8771 1249.27 37.5372 1250.08C38.6176 1251.36 38.4362 1252.29 38.4939 1254L0 1254L0 1249.71Z"/><path fill="#FCFCFC" d="M454.401 1249.82C462.825 1249.83 485.063 1249.24 491.789 1250.04C492.565 1251.74 492.434 1252.14 492.495 1254L454.443 1254L454.401 1249.82Z"/><path fill="#FCFCFC" d="M113.974 1249.8L113.8 1254L76.2325 1254L76.0262 1249.78C87.4628 1249.97 102.671 1250.23 113.974 1249.8Z"/><path fill="#FCFCFC" d="M303.132 1254C303.302 1251.55 302.869 1251.46 304.164 1250.02C309.326 1249.78 336.293 1249.45 340.582 1250.08C341.204 1251.97 341.158 1251.99 341.254 1254L303.132 1254Z"/><path fill="#FCFCFC" d="M530.134 1254C530.316 1251.95 530.006 1251.47 531.032 1250.06C539.886 1249.54 558.408 1249.5 567.17 1250.18C568.48 1251.37 568.123 1251.77 568.504 1254L530.134 1254Z"/><path fill="#FCFCFC" d="M1135.38 1249.81C1144.58 1249.84 1164.16 1249.24 1172.4 1250.14C1173.45 1251.31 1173.34 1252.4 1173.51 1254L1135.5 1254L1135.38 1249.81Z"/><path fill="#FCFCFC" d="M643.657 1249.77L643.49 1254L605.556 1254C605.748 1251.44 605.322 1251.78 606.643 1250.11C614.477 1249.26 634.714 1249.88 643.657 1249.77Z"/><path fill="#FCFCFC" d="M870.625 1249.77L870.555 1254L832.638 1254C832.724 1252.88 832.895 1251.75 833.043 1250.63C835.332 1249.17 865.459 1249.93 870.625 1249.77Z"/><path fill="#FCFCFC" d="M681.137 1254L681.724 1250.6C683.582 1249.46 714.666 1249.78 719.091 1250.1C719.245 1251.35 719.458 1252.77 719.556 1254L681.137 1254Z"/><path fill="#FCFCFC" d="M378.982 1254C379.118 1251.94 378.787 1251.45 379.805 1250.05C387.246 1249.68 408.913 1249.4 416.081 1250.11C416.993 1251.65 416.721 1252.18 416.561 1254L378.982 1254Z"/><path fill="#FCFCFC" d="M227.409 1254C227.763 1251.77 227.405 1251.35 228.698 1250.15C235.235 1249.71 258.5 1249.44 264.768 1250.11C265.641 1251.72 265.476 1252.16 265.507 1254L227.409 1254Z"/><path fill="#FCFCFC" d="M757.054 1254C757.427 1251.71 757.047 1251.36 758.389 1250.14C766.174 1249.62 786.453 1249.51 794.189 1250.11C795.24 1251.31 795.117 1252.37 795.253 1254L757.054 1254Z"/><path fill="#FCFCFC" d="M908.276 1254C908.685 1251.43 908.225 1251.4 909.718 1250.09C918.856 1249.49 936.072 1249.68 945.273 1250.17C946.631 1251.37 946.189 1251.57 946.433 1254L908.276 1254Z"/><path fill="#FCFCFC" d="M983.786 1254C984.211 1251.23 983.694 1251.38 985.312 1250.12C990.555 1249.98 1019.18 1248.81 1021.74 1250.95C1021.93 1252.04 1022.09 1252.9 1022.21 1254L983.786 1254Z"/><path fill="#FCFCFC" d="M1059.43 1254C1059.93 1251.28 1059.42 1251.77 1061.05 1250.15C1068.66 1249.85 1089.46 1249.54 1096.69 1250.16C1097.82 1251.29 1097.78 1252.38 1098.04 1254L1059.43 1254Z"/><path fill="#014558" d="M530.273 265.166C541.805 265.244 556.745 265.621 568.184 265.151C568.039 270.972 568.072 276.795 568.284 282.614C626.082 262.052 698.695 258.595 756.949 279.443C757.484 274.963 757.198 269.823 757.08 265.257C769.812 265.323 782.544 265.295 795.275 265.172C795.249 269.549 795.702 293.012 794.701 295.55C809.015 303.64 819.019 309.577 832.11 319.704C875.125 353.335 906.366 399.742 921.339 452.251C923.67 460.519 925.607 468.892 927.144 477.343C927.347 478.479 929.783 493.246 929.828 493.371C932.459 491.104 942.563 492.288 946.311 492.347L946.276 529.614C941.715 529.674 936.12 529.985 931.753 529.129C931.706 581.89 918.99 633.869 894.675 680.694C898.592 681.905 904.378 681.677 908.57 681.623L908.459 719.423C903.681 719.468 877.327 720.336 874.499 718.687C869.828 725.933 864.758 735.07 860.397 742.547C851.691 757.475 840.961 773.708 837.582 790.867C834.546 806.283 835.232 826.281 835.24 842.359L835.288 904.531C835.291 907.557 835.087 911.635 835.297 914.507C838.543 958.914 815.16 952.317 780.916 952.302L683.26 952.365L655.564 952.336C652.93 952.335 644.596 952.217 642.411 952.529C642.786 952.921 643.161 953.313 643.537 953.705C643.739 960.151 643.548 979.342 643.518 984.503L606.097 984.49C606.009 973.819 606.035 963.146 606.175 952.475C592.273 952.27 578.024 952.406 564.093 952.407C553.73 952.252 540.382 952.907 530.269 951.892C525.59 950.064 524.341 949.012 521.022 945.243C518.496 947.596 497.162 946.666 492.299 946.598L492.236 908.788C479.633 908.954 467.03 908.947 454.428 908.768C454.219 902.662 454.249 896.55 454.519 890.446C454.676 887.514 454.274 886.037 456.03 884.463C425.168 877.576 408.221 864.684 400.851 833.159L379.041 833.226L379.007 795.311C381.967 795.351 395.862 795.019 397.781 796.047C397.792 793.573 397.79 791.099 397.776 788.624C397.72 780.01 398.294 741.595 395.859 737.116C391.838 729.723 357.968 736.743 341.011 719.996C331.673 707.935 330.793 694.941 336.647 681.166C347.27 656.169 360.399 632.041 371.525 607.263C373.858 603.617 377.081 595.515 379.291 591.515C394.105 564.707 388.598 545.583 389.689 516.659C390.319 497.239 393.194 477.957 398.256 459.197C413.013 405.479 445.029 358.105 489.367 324.377C505.118 312.56 514.735 307.694 531.523 298.051C529.345 294.996 530.273 270.684 530.273 265.166Z"/><path fill="#FCFCFC" d="M456.03 884.463C478.235 887.12 496.173 886.337 518.243 886.692L518.266 917.842C518.256 926.331 517.182 937.705 521.022 945.243C518.496 947.596 497.162 946.666 492.299 946.598L492.236 908.788C479.633 908.954 467.03 908.947 454.428 908.768C454.219 902.662 454.249 896.55 454.519 890.446C454.676 887.514 454.274 886.037 456.03 884.463Z"/><path fill="#FCFCFC" d="M606.175 952.475C618.254 952.363 630.333 952.382 642.411 952.529C642.786 952.921 643.161 953.313 643.537 953.705C643.739 960.151 643.548 979.342 643.518 984.503L606.097 984.49C606.009 973.819 606.035 963.146 606.175 952.475Z"/><path fill="#FCFCFC" d="M530.273 265.166C541.805 265.244 556.745 265.621 568.184 265.151C568.039 270.972 568.072 276.795 568.284 282.614C555.373 287.085 543.887 292.23 531.523 298.051C529.345 294.996 530.273 270.684 530.273 265.166Z"/><path fill="#FCFCFC" d="M894.675 680.694C898.592 681.905 904.378 681.677 908.57 681.623L908.459 719.423C903.681 719.468 877.327 720.336 874.499 718.687C880.136 706.928 888.446 693.274 894.675 680.694Z"/><path fill="#FCFCFC" d="M795.275 265.172C795.249 269.549 795.702 293.012 794.701 295.55C782.376 289.096 770.004 284.143 756.949 279.443C757.484 274.963 757.198 269.823 757.08 265.257C769.812 265.323 782.544 265.295 795.275 265.172Z"/><path fill="#FCFCFC" d="M379.007 795.311C381.967 795.351 395.862 795.019 397.781 796.047C398.028 809.192 398.374 820.042 400.851 833.159L379.041 833.226L379.007 795.311Z"/><path fill="#FCFCFC" d="M929.828 493.371C932.459 491.104 942.563 492.288 946.311 492.347L946.276 529.614C941.715 529.674 936.12 529.985 931.753 529.129C931.659 516.722 930.881 505.714 929.828 493.371Z"/><path fill="#FCFCFC" d="M652.471 289.875C658.934 289.004 668.732 289.331 675.385 289.441C792.297 291.382 888.843 375.08 905.635 491.373C917.522 573.694 891.685 644.449 849.844 714.426C837.744 734.661 820.184 761.285 815.543 784.05C813.956 792.128 812.955 800.309 812.549 808.531C811.203 842.417 813.118 877.418 812.354 911.41C812.245 916.277 812.743 925.445 809.809 929.434C802.995 931.261 759.383 930.56 748.756 930.557L613.219 930.577L541.286 930.501L541.39 897.428C541.401 891.337 541.847 884.896 540.992 878.872C540.047 872.214 537.282 867.746 530.865 865.168C524.174 862.48 516.06 863.331 508.952 863.355C487.883 863.426 454.292 865.217 437.017 851.756C430.852 846.952 427.048 840.306 424.771 832.94C422.002 823.987 421.518 814.303 421.083 804.989C420.017 782.17 422.155 755.337 418.964 733.062C413.952 698.088 374.964 716.855 359.729 704.471C357.842 702.937 356.502 700.693 356.341 698.233C355.676 688.048 402.061 602.358 408.449 582.82C414.833 563.298 412.438 545.296 412.759 525.248C413.64 470.239 432.155 418.529 468.252 376.746C514.121 323.654 583.381 294.848 652.471 289.875Z"/><path fill="#014558" d="M649.246 381.005C659.001 379.894 668.141 384.479 667.756 395.529C667.371 406.574 664.447 418.827 662.382 429.808L652.176 484.734C663.142 485.073 703.318 483.204 710.749 486.198C714.333 487.642 717.039 490.69 718.46 494.237C720.306 498.843 719.543 503.387 717.582 507.825C713.439 517.199 702.924 528.683 696.538 536.983L660.293 584.147L631.297 622.113C622.996 633.011 612.09 650.203 599.285 655.098C589.192 656.103 580.664 651.148 581.24 640.018C581.78 629.608 584.393 618.452 586.285 608.091L596.217 552.618C584.022 552.114 545.4 554.453 536.93 550.849C533.382 549.339 530.303 546.704 528.94 543.025C527.206 538.345 528.544 533.235 530.544 528.871C535.261 518.577 545.278 507.532 552.209 498.335C567.898 477.52 583.713 456.801 599.652 436.177C606.934 426.71 614.164 417.203 621.341 407.655C629.835 396.404 635.518 386.092 649.246 381.005Z"/><path fill="#FCFCFC" d="M616.804 452.703L640.46 422.293C638.347 433.189 636.114 444.205 634.132 455.114C631.656 467.037 628.911 479.789 627.366 491.501C626.511 506.514 634.292 508.755 646.936 508.627C660.83 508.486 675.047 508.24 688.532 508.804C662.003 543.069 635.774 579.049 608.905 612.766C611.482 597.768 614.24 582.802 617.179 567.871C619.175 557.362 627.796 532.004 611.404 529.227C604.627 528.078 594.947 528.587 587.863 528.652C578.208 528.784 568.551 528.736 558.897 528.508C578.001 503.089 597.304 477.82 616.804 452.703Z"/><path fill="#014558" d="M793.947 432.884C809.492 431.527 812.996 448.19 801.763 453.973C787.501 461.317 771.209 467.843 756.365 474.283C742.945 475.758 737.236 462.51 746.665 454.151C749.457 451.675 760.049 447.601 764.125 445.807C774.018 441.391 783.959 437.083 793.947 432.884Z"/><path fill="#014558" d="M760.051 512.003C769.788 512.841 803.852 517.992 813.194 521.185C820.233 523.592 822.528 537.679 808.636 542.415C798.462 541.602 765.545 536.523 755.523 533.149C748.783 530.88 746.271 515.883 760.051 512.003Z"/><path fill="#014558" d="M736.593 368.04C746.485 367.675 749.316 370.542 751.573 379.798C750.584 382.652 747.254 388.544 745.374 390.839C738.296 399.482 726.81 424.352 717.664 428.566C708.966 429.24 698.994 422.467 703.631 413.931C711.493 399.457 722.074 384.787 731.483 371.227C732.377 369.94 735.169 368.684 736.593 368.04Z"/><path fill="#FCFCFC" d="M265.684 606.05C278.163 605.58 290.964 605.742 303.471 605.799C302.882 617.041 303.36 632.282 303.403 643.814C315.85 643.581 328.644 643.695 341.118 643.659C341.039 631.157 341.073 618.655 341.221 606.153L341.951 606.104C346.573 605.837 368.842 604.861 371.525 607.263C360.399 632.041 347.27 656.169 336.647 681.166C330.793 694.941 331.673 707.935 341.011 719.996C340.542 731.438 341.001 745.648 341.054 757.295L303.4 757.368C303.067 745.178 303.294 731.666 303.296 719.419L265.668 719.404C265.248 707.362 265.587 693.886 265.644 681.752C282.667 681.646 299.581 681.689 316.599 682.138C320.643 682.245 324.583 682.246 328.6 681.709C320.779 681.28 311.367 681.466 303.417 681.445C303.307 668.797 303.293 656.148 303.374 643.5C290.798 643.611 278.222 643.634 265.645 643.569C265.454 631.063 265.466 618.555 265.684 606.05Z"/><path fill="#FCFCFC" d="M227.747 681.526C227.612 694.213 227.581 706.901 227.654 719.588C240.221 719.913 252.799 719.695 265.369 719.752C265.561 731.768 265.909 745.311 265.378 757.285C253.634 757.304 239.246 756.944 227.743 757.406C227.347 769.268 227.646 783.158 227.638 795.17C215.069 795.268 202.501 795.274 189.932 795.188C189.753 782.689 189.884 769.93 189.884 757.41C181.322 756.755 160.881 757.342 151.941 757.372L151.913 719.78C164.493 719.542 177.258 719.759 189.923 719.55L189.919 681.82C202.37 681.426 215.172 681.933 227.747 681.526Z"/><path fill="#FCFCFC" d="M151.951 568.217C164.564 568.114 177.179 568.116 189.792 568.223C189.784 580.557 189.61 593.385 189.799 605.68C177.152 605.855 164.503 605.838 151.856 605.629L151.827 643.489L113.994 643.545L114.005 605.973C126.24 605.766 139.713 605.573 151.962 605.815C151.838 593.283 151.835 580.749 151.951 568.217Z"/><path fill="#FCFCFC" d="M908.604 38.2325L946.272 38.1014C946.196 50.7739 946.237 63.4469 946.396 76.1187C958.916 76.1769 971.437 76.15 983.958 76.0379L983.936 113.753L946.316 113.764L946.272 75.9004C934.159 75.9113 920.608 75.6524 908.599 75.9621L908.604 38.2325Z"/><path fill="#FCFCFC" d="M832.912 1098.41L870.149 1098.43C871.008 1102.78 870.445 1129.39 870.444 1135.78L832.736 1135.87L832.81 1173.83L795.28 1173.87C795.274 1161.52 795.097 1148.64 795.271 1136.33C807.901 1135.78 820.718 1136.64 832.84 1136.04C832.774 1123.49 832.798 1110.95 832.912 1098.41Z"/><path fill="#FCFCFC" d="M151.867 795.311C164.507 795.422 177.147 795.446 189.786 795.382C189.76 807.349 189.362 821.472 189.837 833.268C179.538 832.674 162.406 833.182 151.86 833.264L151.867 795.311Z"/><path fill="#FCFCFC" d="M292.994 984.892C295.623 984.583 300.375 984.85 303.179 984.922C303.379 997.492 303.45 1010.06 303.391 1022.63C294.482 1022.94 284.81 1022.81 275.843 1022.85L265.582 1022.67C265.442 1010.08 265.452 997.489 265.611 984.898L292.994 984.892Z"/><path fill="#FCFCFC" d="M795.28 1173.87C794.893 1185.95 795.241 1199.46 795.103 1211.72C782.545 1211.83 769.987 1211.85 757.429 1211.76C757.154 1199.51 757.327 1186.4 757.288 1174.11C769.853 1173.81 782.642 1174.09 795.28 1173.87Z"/><path fill="#FCFCFC" d="M870.706 984.898L908.479 984.898L908.541 1022.66C895.959 1022.8 883.223 1022.7 870.628 1022.69C870.511 1010.09 870.537 997.496 870.706 984.898Z"/><path fill="#FCFCFC" d="M880.789 1136.11C889.088 1135.73 900.077 1136.15 908.482 1136.27L908.473 1173.8L900.853 1173.86C890.963 1174.03 880.605 1173.84 870.68 1173.81C870.546 1161.29 870.539 1148.77 870.659 1136.25L880.789 1136.11Z"/><path fill="#FCFCFC" d="M984.081 265.291L1021.98 265.243C1022.28 277.639 1022.02 290.662 1021.95 303.103L984.286 303.101L984.081 265.291Z"/><path fill="#FCFCFC" d="M989.028 643.839C999.296 643.383 1011.51 643.773 1022.03 643.608C1022.03 651.099 1022.51 674.403 1021.65 680.729C1020.23 681.742 1018.12 681.428 1016.23 681.424C1005.67 681.546 994.889 681.421 984.311 681.41C983.9 674.33 983.651 651.285 984.288 644.613C985.8 643.516 986.74 643.913 989.028 643.839Z"/><path fill="#FCFCFC" d="M908.599 75.9621C908.216 88.0529 908.457 101.505 908.452 113.698C895.873 113.829 883.293 113.856 870.714 113.777C870.298 101.518 870.571 88.4221 870.666 76.1097C882.708 76.3347 896.595 76.3221 908.599 75.9621Z"/><path fill="#FCFCFC" d="M227.922 1174.12C240.443 1173.92 252.966 1173.91 265.487 1174.09C265.646 1186.64 265.629 1199.2 265.437 1211.75C252.906 1211.84 240.374 1211.83 227.843 1211.73C227.642 1199.2 227.668 1186.66 227.922 1174.12Z"/><path fill="#FCFCFC" d="M870.647 833.374L908.491 833.372C908.607 845.931 908.584 858.491 908.422 871.049C895.846 871.172 883.268 871.155 870.692 870.997C870.517 858.457 870.502 845.915 870.647 833.374Z"/><path fill="#FCFCFC" d="M1135.97 1174.11C1148.39 1173.96 1160.81 1173.88 1173.23 1173.87C1173.27 1185.14 1173.74 1200.82 1173.02 1211.72C1160.57 1211.82 1148.11 1211.83 1135.65 1211.75C1135.33 1205.94 1134.99 1178.62 1135.97 1174.11Z"/><path fill="#FCFCFC" d="M113.996 984.898L151.826 984.898L151.821 1022.62C139.604 1023.08 126.296 1022.76 113.997 1022.68L113.996 984.898Z"/><path fill="#FCFCFC" d="M984.339 946.787L1022.06 946.681C1022.24 954.052 1022.48 978.04 1021.69 984.431C1009.23 984.574 996.763 984.586 984.3 984.465C984.171 973.091 983.552 957.882 984.339 946.787Z"/><path fill="#FCFCFC" d="M189.858 643.584C189.704 656.202 189.679 668.822 189.784 681.44C178.067 681.449 163.385 681.088 151.882 681.52L151.916 643.797C164.551 643.556 177.216 643.887 189.858 643.584Z"/><path fill="#FCFCFC" d="M151.973 946.776C164.332 946.569 177.358 946.743 189.758 946.732L189.776 984.544C177.378 984.371 164.426 984.576 151.987 984.611C151.808 972 151.803 959.387 151.973 946.776Z"/><path fill="#FCFCFC" d="M643.748 984.898L681.438 984.898L681.475 1022.56C669.068 1023.03 656.082 1022.77 643.624 1022.69C643.553 1010.09 643.594 997.495 643.748 984.898Z"/><path fill="#FCFCFC" d="M1211.63 1174.12C1223.4 1173.91 1237.35 1173.59 1248.99 1174.41C1248.84 1186.59 1249.41 1199.64 1248.84 1211.69C1236.3 1211.83 1223.75 1211.85 1211.21 1211.75C1211.17 1205.98 1210.47 1177.47 1211.63 1174.12Z"/><path fill="#FCFCFC" d="M568.199 189.263C568.023 201.888 567.99 214.514 568.102 227.139L530.248 227.23C530.335 214.712 530.352 202.193 530.3 189.675C542.975 189.261 555.543 189.529 568.199 189.263Z"/><path fill="#FCFCFC" d="M492.605 984.898L530.252 984.898L530.214 1022.64C517.807 1023.02 504.831 1022.78 492.379 1022.73C492.357 1010.12 492.432 997.508 492.605 984.898Z"/><path fill="#FCFCFC" d="M1211.11 946.629C1223.72 946.813 1236.34 946.85 1248.95 946.74C1248.99 953.739 1249.55 978.106 1248.69 984.472C1236.2 984.564 1223.7 984.547 1211.21 984.422C1211.21 972.825 1211.58 957.996 1211.11 946.629Z"/><path fill="#FCFCFC" d="M341.05 833.236C353.381 833.606 366.642 833.299 379.041 833.226C378.656 845.5 378.929 858.745 378.963 871.088C366.287 870.983 353.88 871.335 341.185 870.813C341.26 858.287 341.215 845.761 341.05 833.236Z"/><path fill="#FCFCFC" d="M530.248 227.23L530.273 265.166C518.332 264.843 504.574 265.14 492.51 265.136C492.146 253 492.435 239.593 492.443 227.362C498.69 227.711 524.398 227.822 530.248 227.23Z"/><path fill="#FCFCFC" d="M151.941 757.372C151.742 768.591 151.391 784.24 151.867 795.311C139.268 795.203 126.669 795.172 114.07 795.217C113.824 782.655 114.153 770.032 113.908 757.411C124.896 757.881 140.873 757.797 151.941 757.372Z"/><path fill="#FCFCFC" d="M151.871 1135.9C151.746 1148.54 151.752 1161.17 151.888 1173.81L113.925 1173.88C114.275 1162.04 113.991 1148.24 114.007 1136.27C126.629 1136.24 139.251 1136.12 151.871 1135.9Z"/><path fill="#FCFCFC" d="M114.026 833.382L151.86 833.264C151.773 845.318 151.468 859.249 151.851 871.207C144.229 870.518 122.682 871.01 114.095 870.861C113.746 858.698 114.003 845.612 114.026 833.382Z"/><path fill="#FCFCFC" d="M454.901 1174.05C467.368 1173.94 479.837 1173.92 492.305 1173.99C492.347 1185.25 492.837 1200.84 492.149 1211.72C479.731 1211.87 467.312 1211.87 454.895 1211.72C453.918 1202.15 454.673 1184.24 454.901 1174.05Z"/><path fill="#FCFCFC" d="M757.565 189.503C770.106 189.348 782.648 189.347 795.189 189.5L795.13 227.117C782.652 227.293 769.891 227.148 757.391 227.139C757.345 216.199 756.803 199.871 757.565 189.503Z"/><path fill="#FCFCFC" d="M719.602 1212.01C732.126 1211.87 744.652 1211.85 757.178 1211.93C756.908 1224.5 757.672 1237.07 756.983 1249.62C744.775 1249.97 731.792 1249.73 719.527 1249.69C719.42 1237.13 719.445 1224.57 719.602 1212.01Z"/><path fill="#FCFCFC" d="M530.294 1211.81C529.804 1222.89 530.213 1238.35 530.205 1249.72L492.466 1249.69L492.41 1212.02C504.829 1211.7 517.755 1212.01 530.294 1211.81Z"/><path fill="#FCFCFC" d="M984.143 795.399L1021.98 795.408C1022.17 801.077 1022.35 829.482 1021.66 833.193C1009.2 833.247 996.742 833.19 984.286 833.022C984.158 820.481 984.11 807.94 984.143 795.399Z"/><path fill="#FCFCFC" d="M984.722 189.504C997.141 189.357 1009.56 189.36 1021.98 189.515C1021.97 194.448 1022.65 225.275 1021.15 227.143C1008.81 227.221 996.459 227.214 984.112 227.121C984.23 221.496 983.488 192.483 984.722 189.504Z"/><path fill="#FCFCFC" d="M1135.58 265.255L1173.3 265.253L1173.14 303.046C1160.64 303.153 1148.14 303.168 1135.63 303.09C1135.03 291.643 1135.48 276.948 1135.58 265.255Z"/><path fill="#FCFCFC" d="M870.731 757.597L908.454 757.552C908.619 769.74 908.739 783.125 908.341 795.236C895.798 795.283 883.255 795.25 870.713 795.137C870.288 783.201 870.517 769.483 870.731 757.597Z"/><path fill="#FCFCFC" d="M227.779 946.764L265.476 946.755C265.613 958.593 265.898 972.663 265.317 984.355C258.509 985.155 235.641 984.542 227.82 984.506C227.642 972.027 227.779 959.265 227.779 946.764Z"/><path fill="#FCFCFC" d="M1175.16 605.894C1187.11 605.782 1199.06 605.761 1211.02 605.829C1211.04 614.733 1211.67 634.989 1210.84 642.998L1209.93 643.479C1197.74 643.646 1185.55 643.678 1173.35 643.575C1173.33 637.71 1172.92 609.692 1173.73 606.326L1175.16 605.894Z"/><path fill="#FCFCFC" d="M492.378 189.243C492.279 201.866 492.256 214.489 492.308 227.112C479.828 227.187 467.347 227.193 454.867 227.128C454.053 217.865 454.623 198.97 454.858 189.409C467.365 189.439 479.872 189.383 492.378 189.243Z"/><path fill="#FCFCFC" d="M227.798 568.228C240.183 567.936 253.08 568.117 265.502 568.121C265.477 573.694 266.423 602.674 264.981 605.648C252.27 605.885 240.537 605.808 227.815 605.634C227.734 593.165 227.728 580.696 227.798 568.228Z"/><path fill="#FCFCFC" d="M990.235 719.754C999.837 719.326 1012.1 719.646 1021.99 719.549C1021.92 729.703 1022.61 747.074 1021.78 756.504C1020.65 757.634 1019.96 757.231 1017.8 757.33C1006.83 757.539 995.252 757.31 984.236 757.268C984.078 751.398 983.71 725.015 984.446 720.638C986.302 719.427 987.953 719.738 990.235 719.754Z"/><path fill="#FCFCFC" d="M1071.08 1174.09C1079.13 1173.67 1089.22 1173.97 1097.43 1174.02C1097.32 1186.46 1097.58 1199.26 1097.54 1211.8L1086.97 1211.8C1077.97 1211.82 1068.96 1211.79 1059.95 1211.7C1059.79 1199.17 1059.77 1186.63 1059.89 1174.1L1071.08 1174.09Z"/><path fill="#FCFCFC" d="M379.008 189.277C390.391 189.772 405.248 189.489 416.808 189.321C416.449 201.849 416.838 214.521 416.605 227.104C405.467 227.145 389.95 226.76 379.027 227.277L379.008 189.277Z"/><path fill="#FCFCFC" d="M189.837 833.268C199.783 833.435 218.23 833.836 227.762 833.19C227.183 844.664 227.605 859.404 227.605 871.119C215.084 871.179 202.563 871.125 190.043 870.956C189.668 858.716 190.034 845.672 189.837 833.268Z"/><path fill="#FCFCFC" d="M76.0816 795.305C88.6176 795.572 101.263 795.366 113.814 795.44L113.802 833.156L76.3057 833.17L76.0816 795.305Z"/><path fill="#FCFCFC" d="M189.894 605.818C202.487 606.066 215.031 605.646 227.61 605.831C227.719 618.387 227.712 630.943 227.589 643.498C215.012 643.591 202.435 643.62 189.858 643.584C189.941 630.996 189.953 618.407 189.894 605.818Z"/><path fill="#FCFCFC" d="M832.845 265.149C845.398 265.315 857.953 265.349 870.507 265.252L870.445 303.077C857.983 303.183 845.521 303.205 833.059 303.142C832.664 290.637 832.835 277.692 832.845 265.149Z"/><path fill="#FCFCFC" d="M341.055 265.17C340.514 275.677 340.974 292.155 340.968 303.065C328.513 303.188 316.058 303.194 303.604 303.084C303.387 290.473 303.311 277.86 303.374 265.247C315.934 265.294 328.495 265.268 341.055 265.17Z"/><path fill="#FCFCFC" d="M1173.26 984.898L1211 984.898C1211.08 997.447 1211.03 1010 1210.83 1022.54C1199.04 1023.16 1185.42 1022.78 1173.5 1022.72C1173.31 1010.11 1173.23 997.504 1173.26 984.898Z"/><path fill="#FCFCFC" d="M832.945 1174.02C845.48 1173.95 858.016 1173.95 870.552 1174.05C870.372 1186.52 870.468 1199.21 870.443 1211.71C857.957 1211.83 845.47 1211.83 832.983 1211.73C832.359 1200.36 832.813 1185.66 832.945 1174.02Z"/><path fill="#FCFCFC" d="M152.008 341.307C164.597 341.162 177.188 341.118 189.779 341.173C189.776 353.515 189.571 366.441 189.826 378.735C180.062 378.698 160.964 378.225 151.932 378.948C151.882 366.401 151.907 353.854 152.008 341.307Z"/><path fill="#FCFCFC" d="M227.829 795.411C240.424 795.528 253.02 795.493 265.614 795.305C265.595 806.783 265.948 821.803 265.449 833.145C254.481 833.23 237.951 832.542 227.762 833.19L227.829 795.411Z"/><path fill="#FCFCFC" d="M151.882 681.52C151.72 694.146 151.681 706.773 151.764 719.399L113.969 719.489L114.003 681.76C126.254 681.755 139.728 682.021 151.882 681.52Z"/><path fill="#FCFCFC" d="M870.76 303.293C882.727 303.612 896.406 303.307 908.485 303.285C908.576 315.83 908.558 328.376 908.431 340.921L870.729 340.96C870.321 328.917 870.518 315.3 870.76 303.293Z"/><path fill="#FCFCFC" d="M881.563 227.471C890.486 227.417 899.554 227.558 908.49 227.614L908.512 265.088L900.241 265.14L870.649 265.048C870.542 252.52 870.544 239.991 870.655 227.463C874.203 227.602 877.995 227.498 881.563 227.471Z"/><path fill="#FCFCFC" d="M341.122 984.898L378.993 984.898C378.722 997.322 378.914 1010.22 378.936 1022.67C366.417 1022.83 353.898 1022.84 341.38 1022.69C341.043 1010.25 341.163 997.37 341.122 984.898Z"/><path fill="#FCFCFC" d="M1135.56 189.419C1147.64 189.656 1161.11 189.57 1173.18 189.404L1173.23 227.01C1165.67 227.81 1144.16 227.193 1135.73 227.173C1135.15 215.048 1135.48 201.64 1135.56 189.419Z"/><path fill="#FCFCFC" d="M379.025 265.177C390.382 265.39 405.616 265.617 416.869 265.194L416.648 303.058C405.391 303.114 389.948 302.698 379.019 303.173C379.518 292.392 379.043 276.284 379.025 265.177Z"/><path fill="#FCFCFC" d="M265.607 833.349C278.063 833.342 290.763 833.219 303.199 833.346L303.258 871.082C291.37 871.122 277.361 870.844 265.624 871.231C265.458 858.604 265.452 845.976 265.607 833.349Z"/><path fill="#FCFCFC" d="M341.079 189.268C340.696 201.215 340.984 215.053 340.975 227.141C335.367 227.195 306.906 227.753 303.572 226.76C303.293 214.344 303.23 201.924 303.382 189.505C315.936 189.379 328.538 189.526 341.079 189.268Z"/><path fill="#FCFCFC" d="M1021.15 38.2727L1021.45 38.4002C1022.7 40.772 1021.95 70.9885 1021.91 75.8757L984.76 75.8457C983.727 72.1882 984.133 44.0928 984.074 38.3102L1021.15 38.2727Z"/><path fill="#FCFCFC" d="M378.996 946.616C391.411 946.93 404.221 946.757 416.667 946.737L416.667 984.498L379.082 984.513L378.996 946.616Z"/><path fill="#FCFCFC" d="M504.221 1136.11C512.248 1135.76 522.049 1136.15 530.219 1136.27L530.203 1173.81L518.469 1173.85L492.523 1173.82C492.359 1161.29 492.35 1148.77 492.495 1136.24C496.382 1136.31 500.329 1136.18 504.221 1136.11Z"/><path fill="#FCFCFC" d="M189.991 1135.98C201.462 1136.58 215.861 1136.19 227.605 1136.26C227.765 1148.66 227.62 1161.33 227.606 1173.75C215.056 1173.97 202.502 1173.98 189.952 1173.78C189.843 1161.18 189.856 1148.58 189.991 1135.98Z"/><path fill="#FCFCFC" d="M1135.57 795.4L1173.4 795.38C1172.95 807.295 1173.22 820.965 1173.1 833.023C1160.64 833.208 1148.17 833.259 1135.71 833.173C1135.08 821.465 1135.5 807.274 1135.57 795.4Z"/><path fill="#FCFCFC" d="M1099.23 605.902C1110.57 605.574 1124.07 605.737 1135.38 605.979C1135.4 611.24 1136.15 641.008 1134.46 643.486C1122.33 643.669 1109.97 643.555 1097.83 643.562C1097.59 637.646 1097.36 610.976 1098.15 606.584L1099.23 605.902Z"/><path fill="#FCFCFC" d="M1135.63 946.76L1173.23 946.686L1173.14 984.561C1160.63 984.675 1148.13 984.651 1135.63 984.489C1135.23 972.56 1135.51 958.692 1135.63 946.76Z"/><path fill="#FCFCFC" d="M227.806 341.245C240.369 341.163 252.934 341.16 265.497 341.237C265.669 353.735 265.661 366.234 265.472 378.731C252.918 378.903 240.362 378.858 227.809 378.598C227.683 366.195 227.791 353.66 227.806 341.245Z"/><path fill="#FCFCFC" d="M341.172 757.569L379.016 757.562C378.971 769.707 378.619 783.278 379.007 795.311C366.417 795.229 353.826 795.213 341.236 795.264L341.172 757.569Z"/><path fill="#FCFCFC" d="M379.027 227.277C378.84 239.91 378.839 252.545 379.025 265.177C367.069 264.844 353.145 265.159 341.055 265.17C341.819 253.523 340.488 239.484 341.398 227.58C352.366 227.569 368.462 228.049 379.027 227.277Z"/><path fill="#FCFCFC" d="M908.533 908.688C908.589 921.279 908.553 933.87 908.423 946.46L870.626 946.49C870.252 934.537 870.592 921.04 870.621 908.972C881.634 908.989 897.933 909.505 908.533 908.688Z"/><path fill="#FCFCFC" d="M1247.92 416.699C1248.25 416.893 1248.58 417.086 1248.91 417.279C1249.16 429.436 1248.99 442.045 1248.99 454.235C1236.78 454.36 1224.57 454.362 1212.37 454.242L1211.55 453.865C1210.77 450.076 1211.14 422.455 1211.15 416.846L1247.92 416.699Z"/><path fill="#FCFCFC" d="M113.948 189.313C113.548 201.434 113.697 214.911 113.817 227.105C103.6 227.137 85.5785 226.656 76.0031 227.279C76.5327 215.452 76.2264 201.416 76.272 189.423C88.8308 189.508 101.39 189.472 113.948 189.313Z"/><path fill="#FCFCFC" d="M908.609 795.412C921.094 795.576 933.692 795.332 946.277 795.495C946.308 807.49 946.581 821.071 946.016 832.93C934.633 833.577 920.269 833.136 908.671 833.041C908.401 820.728 908.606 807.772 908.609 795.412Z"/><path fill="#FCFCFC" d="M1098.59 681.782C1110.86 681.675 1123.13 681.669 1135.4 681.762C1135.19 690.931 1136.28 711.632 1135.09 719.386C1122.67 719.506 1110.25 719.505 1097.83 719.381C1097.67 714.313 1097.04 684.147 1098.59 681.782Z"/><path fill="#FCFCFC" d="M379.019 303.173C378.826 314.012 378.453 330.284 379.014 341.065C369.055 340.438 351.764 340.951 341.279 340.96C340.872 328.969 341.18 315.393 341.18 303.282C347.833 303.627 372.671 303.668 379.019 303.173Z"/><path fill="#FCFCFC" d="M114.015 530.34C126.613 530.232 139.211 530.233 151.809 530.345C151.893 542.889 151.866 555.434 151.728 567.978C141.67 567.35 124.619 567.94 114.001 567.836L114.015 530.34Z"/><path fill="#FCFCFC" d="M227.813 643.945C240.389 643.669 252.97 643.621 265.548 643.803C265.559 656.147 265.776 669.147 265.443 681.44C253.863 681.449 239.098 681.083 227.747 681.526L227.813 643.945Z"/><path fill="#FCFCFC" d="M1059.96 795.438C1072.45 795.334 1084.95 795.342 1097.44 795.462C1097.25 807.91 1097.53 820.614 1097.43 833.126C1085.28 833.478 1072.19 833.195 1059.98 833.021C1059.81 820.494 1059.8 807.966 1059.96 795.438Z"/><path fill="#FCFCFC" d="M1135.67 643.806C1148.19 643.683 1160.71 643.66 1173.23 643.736C1173.25 648.773 1173.88 679.181 1172.44 681.436L1135.54 681.453C1135.4 672.022 1134.91 652.831 1135.67 643.806Z"/><path fill="#FCFCFC" d="M530.302 1174.25C542.264 1173.94 556.025 1173.7 568.049 1174.03L568.089 1211.77C556.838 1211.8 541.262 1211.34 530.294 1211.81L530.302 1174.25Z"/><path fill="#FCFCFC" d="M265.653 1211.96C277.06 1211.55 291.747 1212.03 303.392 1212.06C302.935 1223.64 303.222 1237.93 303.175 1249.71C290.895 1249.5 277.915 1249.68 265.588 1249.67C265.314 1237.26 265.557 1224.4 265.653 1211.96Z"/><path fill="#FCFCFC" d="M113.994 643.545C113.288 654.652 113.816 670.049 113.89 681.43C107.91 681.473 80.2835 681.953 76.3522 681.083C75.8444 669.239 76.2358 655.826 76.1277 643.788C88.5238 643.679 101.691 644.054 113.994 643.545Z"/><path fill="#FCFCFC" d="M1059.99 265.287C1072.41 265.158 1084.99 265.269 1097.42 265.276L1097.52 303.089C1084.98 303.147 1072.43 303.14 1059.89 303.067C1059.81 290.474 1059.85 277.88 1059.99 265.287Z"/><path fill="#FCFCFC" d="M189.892 984.898L227.676 984.898C227.566 997.211 228.024 1010.46 227.52 1022.63C215.486 1023.13 202.021 1022.77 189.895 1022.68L189.892 984.898Z"/><path fill="#FCFCFC" d="M984.389 114.038L1022.11 113.927C1022.15 126.499 1022.04 139.071 1021.78 151.641C1009.29 151.692 996.792 151.681 984.299 151.606C984.022 140.58 983.844 124.902 984.389 114.038Z"/><path fill="#FCFCFC" d="M984.09 416.884L1022.15 416.66C1022.16 429.191 1022.09 441.722 1021.92 454.252C1009.4 454.385 996.873 454.384 984.35 454.249C983.928 442.04 984.106 429.147 984.09 416.884Z"/><path fill="#FCFCFC" d="M1211.16 908.755C1210.8 919.523 1210.67 935.888 1211.11 946.629C1200.29 945.992 1184.59 946.475 1173.4 946.477C1173.06 934.321 1173.3 921.162 1173.3 908.931C1183.76 908.719 1201.86 909.637 1211.16 908.755Z"/><path fill="#FCFCFC" d="M416.857 984.898L454.396 984.898L454.434 1022.68C441.861 1022.84 429.287 1022.86 416.714 1022.74C416.691 1010.13 416.739 997.513 416.857 984.898Z"/><path fill="#FCFCFC" d="M984.286 341.361C996.635 341.017 1009.54 341.17 1021.93 341.142C1022.03 344.21 1021.99 378.758 1021.86 379.018C1019.22 378.394 989.381 378.755 984.321 378.708C983.847 366.67 984.151 353.469 984.286 341.361Z"/><path fill="#FCFCFC" d="M265.654 530.3L303.252 530.248C303.419 541.193 303.798 557.184 303.094 567.83C290.861 568.146 277.97 567.966 265.689 567.985C265.416 555.425 265.405 542.86 265.654 530.3Z"/><path fill="#FCFCFC" d="M1173.3 833.415C1185.87 833.293 1198.44 833.278 1211.01 833.371L1210.97 870.964C1198.43 871.102 1185.9 871.113 1173.36 870.995C1173.07 858.897 1173.3 845.599 1173.3 833.415Z"/><path fill="#FCFCFC" d="M946.323 984.898L983.945 984.898L983.958 1022.61C971.458 1022.86 958.954 1022.89 946.453 1022.68C946.059 1010.54 946.328 997.137 946.323 984.898Z"/><path fill="#FCFCFC" d="M908.653 946.788L946.279 946.661L946.276 984.453L908.663 984.513C908.524 971.939 908.521 959.363 908.653 946.788Z"/><path fill="#FCFCFC" d="M1075.98 189.508C1082.15 189.059 1091.01 189.352 1097.42 189.389C1097.54 201.974 1097.56 214.56 1097.49 227.146L1079.95 227.197L1059.87 227.175C1059.81 214.621 1059.84 202.068 1059.96 189.514L1075.98 189.508Z"/><path fill="#FCFCFC" d="M1135.97 719.726C1148.39 719.659 1160.81 719.668 1173.23 719.753C1173.21 725.62 1173.91 753.302 1172.59 757.063L1170.88 757.32C1159.19 757.401 1147.5 757.399 1135.82 757.315C1135.45 751.343 1135.06 724.458 1135.97 719.726Z"/><path fill="#FCFCFC" d="M984.13 871.339C996.743 871.278 1009.36 871.283 1021.97 871.352C1022.41 882.676 1022.11 897.227 1021.83 908.622C1009.36 908.761 996.77 909.021 984.311 908.617C984.116 896.192 984.056 883.765 984.13 871.339Z"/><path fill="#FCFCFC" d="M151.91 908.785C151.263 919.27 151.783 935.56 151.804 946.455L113.99 946.466L114.015 909.209C126.968 908.678 139.066 909.031 151.91 908.785Z"/><path fill="#FCFCFC" d="M265.658 1136.18L303.366 1136.14C303.155 1144.72 304.165 1166.81 302.932 1173.79C290.522 1173.93 278.11 1173.92 265.7 1173.77C265.438 1161.24 265.424 1148.71 265.658 1136.18Z"/><path fill="#FCFCFC" d="M44.1491 605.811C54.7925 605.724 65.4364 605.721 76.0799 605.8C75.7972 617.892 76.3858 630.676 75.7949 642.625C74.6537 643.794 74.5341 643.387 72.3254 643.49C61.0261 643.661 49.7248 643.667 38.4253 643.508C38.4124 636.011 37.8905 612.644 38.7568 606.768C40.2546 605.651 42.1665 605.883 44.1491 605.811Z"/><path fill="#FCFCFC" d="M1097.75 984.898L1135.38 984.898L1135.5 1022.66C1122.95 1022.85 1110.39 1022.86 1097.84 1022.69C1097.63 1010.09 1097.6 997.495 1097.75 984.898Z"/><path fill="#FCFCFC" d="M379.011 908.733C378.685 921.156 378.933 934.15 378.996 946.616C370.79 945.945 349.958 946.448 341.244 946.405L341.148 908.924C353.76 908.626 366.386 909.033 379.011 908.733Z"/><path fill="#FCFCFC" d="M416.883 227.595C428.908 227.506 442.033 227.196 453.962 227.662C455.034 230.877 454.483 259.476 454.436 265.06L416.869 265.194C416.678 252.358 416.846 240.366 416.883 227.595Z"/><path fill="#FCFCFC" d="M189.973 303.398C202.53 303.221 215.089 303.186 227.647 303.292L227.565 340.99C215.345 340.779 202.319 340.982 190.046 340.985C189.648 328.855 189.883 315.593 189.973 303.398Z"/><path fill="#FCFCFC" d="M832.832 189.241C845.334 189.64 857.933 189.255 870.454 189.412L870.443 227.146C860.567 227.157 842.048 226.657 832.789 227.275L832.832 189.241Z"/><path fill="#FCFCFC" d="M379.032 1135.94C378.579 1147.98 378.902 1161.61 378.921 1173.77C372.932 1173.85 345.195 1174.58 341.17 1173.21L341.131 1136.29C346.992 1136.42 374.778 1136.51 379.032 1135.94Z"/><path fill="#FCFCFC" d="M643.612 189.272C643.045 199.269 643.553 216.639 643.559 227.13C631.091 227.231 618.622 227.231 606.153 227.128C605.968 214.58 605.953 202.029 606.107 189.481C618.509 189.412 631.255 189.603 643.612 189.272Z"/><path fill="#FCFCFC" d="M454.825 265.266L492.349 265.259L492.359 303.025C479.848 303.124 467.336 303.147 454.824 303.092C454.622 290.484 454.623 277.874 454.825 265.266Z"/><path fill="#FCFCFC" d="M76.1507 946.811C88.7147 946.709 101.279 946.677 113.844 946.714L113.747 984.462L76.2764 984.495C76.1293 971.934 76.0874 959.373 76.1507 946.811Z"/><path fill="#FCFCFC" d="M1109.64 227.48C1118.05 227.256 1127 227.482 1135.54 227.362C1135.03 238.768 1135.46 253.397 1135.4 265.099L1122.81 265.179L1097.87 265.142C1097.46 252.903 1097.76 239.869 1097.67 227.51L1109.64 227.48Z"/><path fill="#FCFCFC" d="M189.941 530.317C202.52 530.236 215.1 530.223 227.679 530.277L227.624 567.717C215.09 568.049 202.55 568.049 190.016 567.716C189.581 555.955 189.931 542.227 189.941 530.317Z"/><path fill="#FCFCFC" d="M379.064 1174.08C391.616 1173.95 404.168 1173.94 416.72 1174.04C416.643 1186.5 416.928 1199.37 416.695 1211.74C404.978 1211.75 390.562 1211.4 379.037 1211.8L379.064 1174.08Z"/><path fill="#FCFCFC" d="M454.739 946.767L492.325 946.758L492.308 984.528L454.855 984.511C454.229 973.171 454.658 958.384 454.739 946.767Z"/><path fill="#FCFCFC" d="M1173.49 1136.1C1184.96 1136.56 1199.31 1136.16 1211.01 1136.14L1211.06 1173.93C1199.13 1173.53 1185.49 1173.87 1173.43 1173.89C1172.97 1161.85 1173.37 1148.23 1173.49 1136.1Z"/><path fill="#FCFCFC" d="M151.851 871.207C164.42 871.62 177.158 871.152 189.748 871.355L189.811 908.694C177.177 908.8 164.544 908.83 151.91 908.785L151.851 871.207Z"/><path fill="#FCFCFC" d="M265.66 303.295C278.124 303.425 290.714 303.306 303.188 303.281C303.336 315.84 303.328 328.4 303.164 340.959L265.7 340.978C265.213 328.772 265.532 315.573 265.66 303.295Z"/><path fill="#FCFCFC" d="M908.573 151.773C907.99 161.843 908.483 178.397 908.443 189.162C895.857 189.306 883.27 189.312 870.684 189.18C870.51 176.765 870.489 164.348 870.621 151.933C883.272 152.032 895.923 151.979 908.573 151.773Z"/><path fill="#FCFCFC" d="M379.014 341.065C391.273 341.48 404.45 341.239 416.777 341.227C416.699 353.123 417.126 367.02 416.693 378.674C404.409 378.812 391.34 379.039 379.085 378.633L379.014 341.065Z"/><path fill="#FCFCFC" d="M252.573 416.682L265.592 416.634C265.439 429.219 265.754 441.58 265.381 454.235C256.724 454.373 247.927 454.318 239.258 454.342L227.83 454.232C227.723 441.789 227.722 429.346 227.825 416.903L252.573 416.682Z"/><path fill="#FCFCFC" d="M454.762 113.966L492.305 113.916C492.432 126.446 492.394 138.976 492.191 151.505C479.751 151.754 467.308 151.785 454.867 151.597C454.313 139.461 454.625 126.175 454.762 113.966Z"/><path fill="#FCFCFC" d="M379.037 1211.8C378.593 1223.97 378.903 1237.44 378.936 1249.7L341.301 1249.68C340.94 1237.45 341.146 1224.32 341.119 1212.03C353.671 1211.71 366.388 1212.12 379.037 1211.8Z"/><path fill="#FCFCFC" d="M113.969 719.489C113.641 729.722 113.336 747.358 113.908 757.411C103.573 756.828 87.2446 757.298 76.3064 757.263C76.1344 744.779 76.0655 732.293 76.0996 719.808C88.7234 719.801 101.347 719.694 113.969 719.489Z"/><path fill="#FCFCFC" d="M1059.92 568.138C1072.42 568.065 1084.92 568.103 1097.42 568.252C1097.34 578.831 1098.14 595.463 1097.21 605.605C1085.31 606.271 1071.86 605.902 1059.95 605.638C1059.83 593.139 1059.82 580.638 1059.92 568.138Z"/><path fill="#FCFCFC" d="M1148.07 416.673C1156.45 416.6 1164.82 416.588 1173.19 416.636L1173.16 454.221L1158.98 454.343L1135.68 454.238C1135.07 442.43 1135.51 428.781 1135.48 416.744L1148.07 416.673Z"/><path fill="#FCFCFC" d="M341.249 454.577L378.947 454.511L378.916 492.104C367.27 492.116 352.418 491.724 341.087 492.224C341.399 479.847 341.239 466.99 341.249 454.577Z"/><path fill="#FCFCFC" d="M908.747 189.38C919.597 189.92 934.978 189.405 946.248 189.385L946.21 227.149L908.641 227.135C908.465 214.55 908.5 201.963 908.747 189.38Z"/><path fill="#FCFCFC" d="M1173.31 530.367C1185.87 530.27 1198.44 530.25 1211.01 530.309C1211.04 542.685 1211.23 555.474 1210.91 567.815C1198.36 567.961 1185.82 567.96 1173.28 567.812L1173.31 530.367Z"/><path fill="#FCFCFC" d="M265.607 757.589L303.161 757.583C303.225 769.837 303.542 783.03 303.254 795.211C290.707 795.178 278.16 795.21 265.614 795.305C265.541 782.733 265.539 770.161 265.607 757.589Z"/><path fill="#FCFCFC" d="M1097.87 303.309C1110.18 303.463 1123.05 303.263 1135.38 303.232L1135.36 340.959L1097.84 340.983C1097.42 328.513 1097.72 315.803 1097.87 303.309Z"/><path fill="#FCFCFC" d="M274 908.945C283.648 908.594 293.676 908.796 303.36 908.86L303.224 946.427L297.121 946.492L265.678 946.452C265.392 934.251 265.623 921.443 265.662 909.199L274 908.945Z"/><path fill="#FCFCFC" d="M340.23 1174.1L340.848 1174.67C341.405 1185.94 340.986 1200.22 340.971 1211.71L304.417 1211.81C304.352 1211.75 304.28 1211.69 304.223 1211.62C302.414 1209.38 303.414 1179 303.44 1174.1L340.23 1174.1Z"/><path fill="#FCFCFC" d="M416.955 303.313L454.522 303.282C454.315 313.353 455.261 331.806 454.138 340.979L416.938 341.009C416.263 328.745 416.653 315.58 416.955 303.313Z"/><path fill="#FCFCFC" d="M38.431 984.933L76.0024 984.898L75.9518 1022.62C63.6809 1023.04 50.6768 1022.8 38.3601 1022.67C38.4469 1010.09 38.4705 997.513 38.431 984.933Z"/><path fill="#FCFCFC" d="M1064.34 114.195C1074.44 113.597 1087.26 113.966 1097.54 114.014C1097.45 122.432 1098.08 143.695 1097.09 150.746C1095.82 151.978 1095.48 151.541 1093.12 151.643C1082.07 151.718 1071.03 151.68 1059.99 151.53C1059.88 142.623 1059.15 123.325 1060.12 114.965C1061.29 113.852 1062.18 114.265 1064.34 114.195Z"/><path fill="#FCFCFC" d="M1097.91 757.602L1135.35 757.592C1135.25 763.168 1136.24 792.936 1134.42 795.187C1122.4 795.414 1109.84 795.243 1097.78 795.255C1097.13 783.829 1097.65 769.25 1097.91 757.602Z"/><path fill="#FCFCFC" d="M303.416 795.406L340.989 795.381C340.99 806.621 340.562 822.283 341.05 833.236C328.551 832.915 315.975 833.384 303.48 833.137L303.416 795.406Z"/><path fill="#FCFCFC" d="M416.903 908.829C429.398 908.692 441.895 908.729 454.389 908.941C454.502 921.448 454.515 933.955 454.428 946.461L416.914 946.51C416.777 933.951 416.773 921.389 416.903 908.829Z"/><path fill="#FCFCFC" d="M959.794 1212.06C967.79 1211.76 975.93 1211.94 983.941 1212.02L983.938 1249.67L971.881 1249.71L946.379 1249.67C946.149 1237.36 946.391 1224.42 946.43 1212.06L959.794 1212.06Z"/><path fill="#FCFCFC" d="M1064.34 341.36C1074.56 340.813 1087.18 341.147 1097.57 341.15C1097.57 351.376 1098.08 368.174 1097.15 377.698C1095.96 379.006 1096.15 378.569 1093.74 378.688C1083 379.177 1070.71 378.801 1059.86 378.704C1059.81 368.968 1059.31 351.143 1060.16 342.02C1061.62 341.041 1062.23 341.405 1064.34 341.36Z"/><path fill="#FCFCFC" d="M946.316 605.938C958.598 605.708 971.668 605.892 984.004 605.882L983.917 643.484C971.405 643.647 958.892 643.692 946.379 643.619L946.316 605.938Z"/><path fill="#FCFCFC" d="M151.951 1098.42C164.102 1098.4 177.814 1098.67 189.851 1098.35C189.763 1110.83 189.755 1123.31 189.826 1135.79C178.873 1135.8 162.433 1135.35 151.871 1135.9L151.951 1098.42Z"/><path fill="#FCFCFC" d="M1096.47 38.2728L1097.22 38.8823C1098.04 47.2471 1097.44 66.6966 1097.42 75.8734L1060.68 75.9332C1059.1 74.3417 1059.86 42.7724 1059.89 38.2752L1096.47 38.2728Z"/><path fill="#FCFCFC" d="M189.965 908.918C201.588 908.655 216.145 908.585 227.643 909.122L227.548 946.455L190.001 946.489C189.898 933.966 189.886 921.442 189.965 908.918Z"/><path fill="#FCFCFC" d="M983.133 681.805L983.773 682.389C984.568 691.014 983.962 710.031 983.948 719.422L947.37 719.424L946.846 718.936C945.711 715.419 946.303 687.817 946.302 681.807L983.133 681.805Z"/><path fill="#FCFCFC" d="M966.685 908.967C970.535 908.546 979.81 908.904 983.944 908.972L983.976 946.52L965.758 946.501L946.405 946.471L946.28 908.972L966.685 908.967Z"/><path fill="#FCFCFC" d="M1097.8 1136.23L1135.52 1136.16C1135.23 1148.4 1135.41 1161.46 1135.32 1173.79C1122.88 1173.95 1110.27 1173.85 1097.81 1173.86C1097.66 1161.32 1097.66 1148.77 1097.8 1136.23Z"/><path fill="#FCFCFC" d="M1097.81 530.317L1135.53 530.281C1135.27 536.064 1136.18 565.049 1134.54 567.632C1122.54 568.269 1109.98 567.711 1097.84 567.98C1097.43 555.534 1097.69 542.791 1097.81 530.317Z"/><path fill="#FCFCFC" d="M76.1977 568.16C88.7421 568.022 101.288 568.02 113.832 568.154C113.794 573.044 114.454 603.756 113.136 605.652C100.85 605.959 88.5588 605.965 76.273 605.668L76.1977 568.16Z"/><path fill="#FCFCFC" d="M1087.92 643.839C1090.1 643.545 1095.14 643.733 1097.55 643.753C1097.31 656.136 1097.45 669.014 1097.37 681.445L1069.1 681.459L1059.98 681.422C1059.69 669.054 1059.87 656.247 1059.89 643.845L1087.92 643.839Z"/><path fill="#FCFCFC" d="M38.4873 681.775L75.9781 681.661C76.0008 691.896 76.583 710.018 75.7959 719.415C63.3204 719.502 50.8444 719.496 38.3689 719.397C38.3809 712.486 37.7436 687.002 38.4873 681.775Z"/><path fill="#FCFCFC" d="M76.0031 227.279C75.6082 238.934 75.9659 253.261 75.9776 265.106C70.0781 265.151 42.2089 265.666 38.38 264.723C38.4947 252.273 38.49 239.823 38.3657 227.373C45.3364 227.635 69.9067 227.953 76.0031 227.279Z"/><path fill="#FCFCFC" d="M606.079 114.059C618.59 113.922 631.101 113.87 643.613 113.904C643.587 125.246 643.129 140.718 643.588 151.764C631.247 151.264 618.554 151.818 606.091 151.48C605.981 139.007 605.977 126.533 606.079 114.059Z"/><path fill="#FCFCFC" d="M719.521 984.93L757.109 984.898L757.109 1022.63C744.571 1022.85 732.031 1022.88 719.492 1022.73C719.351 1010.21 719.495 997.47 719.521 984.93Z"/><path fill="#FCFCFC" d="M1135.48 568.153L1173.09 568.191C1173.23 580.044 1173.48 593.802 1173.04 605.577C1161.02 606.226 1147.7 605.846 1135.61 605.626C1135.28 593.329 1135.47 580.491 1135.48 568.153Z"/><path fill="#FCFCFC" d="M341.223 530.318L378.973 530.208C378.835 542.645 378.956 555.342 378.961 567.799C366.397 567.921 353.833 567.933 341.27 567.836C340.986 555.524 341.196 542.669 341.223 530.318Z"/><path fill="#FCFCFC" d="M92.7591 416.681C99.3972 416.47 107.125 416.659 113.837 416.683C113.588 428.903 113.789 441.946 113.787 454.226L97.5604 454.372L76.2766 454.258C75.7937 442.81 76.126 428.536 76.0566 416.903L92.7591 416.681Z"/><path fill="#FCFCFC" d="M303.352 341.24L340.987 341.177C340.951 350.831 341.704 369.539 340.744 378.621C328.915 379.113 315.529 378.83 303.586 378.838C302.873 367.528 303.289 352.776 303.352 341.24Z"/><path fill="#FCFCFC" d="M265.884 454.613C278.306 454.497 290.73 454.475 303.152 454.549C303.311 467.065 303.292 479.582 303.093 492.098L265.659 492.198C265.346 482.276 265.029 464 265.884 454.613Z"/><path fill="#FCFCFC" d="M327.085 416.676L340.985 416.663L340.98 454.23L317.48 454.342L303.423 454.265C303.312 441.803 303.273 429.342 303.305 416.88L327.085 416.676Z"/><path fill="#FCFCFC" d="M151.932 378.948C151.423 390.028 151.804 405.018 151.787 416.38C139.217 416.455 126.647 416.452 114.077 416.373C113.843 404.187 114.02 391.3 114.009 379.063C126.65 379.138 139.292 379.1 151.932 378.948Z"/><path fill="#FCFCFC" d="M76.2719 114.004L113.851 113.974C113.482 126.085 113.909 139.189 113.716 151.514C101.237 151.709 88.7566 151.755 76.2765 151.652C75.8723 139.68 76.2279 126.094 76.2719 114.004Z"/><path fill="#FCFCFC" d="M870.704 1060.55C883.252 1060.5 895.8 1060.51 908.348 1060.58C908.539 1073.08 908.579 1085.59 908.468 1098.09L870.694 1097.93C870.52 1085.47 870.523 1073.01 870.704 1060.55Z"/><path fill="#FCFCFC" d="M416.899 1136.34C429.442 1136.18 441.986 1136.12 454.531 1136.17L454.421 1173.8C441.92 1173.93 429.417 1173.93 416.916 1173.8C416.453 1161.67 416.794 1148.55 416.899 1136.34Z"/><path fill="#FCFCFC" d="M1059.95 946.741L1097.43 946.753C1097.52 959.355 1097.51 971.958 1097.4 984.56L1059.95 984.514C1059.82 971.923 1059.82 959.332 1059.95 946.741Z"/><path fill="#FCFCFC" d="M265.652 1060.57L303.291 1060.53C303.406 1073.01 303.395 1085.48 303.257 1097.96C290.739 1098.14 278.219 1098.16 265.7 1098.01C265.437 1085.53 265.421 1073.05 265.652 1060.57Z"/><path fill="#FCFCFC" d="M227.774 871.337L265.624 871.231L265.482 908.715C252.923 908.859 240.362 908.851 227.803 908.69C227.725 896.239 227.716 883.788 227.774 871.337Z"/><path fill="#FCFCFC" d="M492.56 1060.55L530.226 1060.49L530.221 1098L492.427 1098.01C492.315 1085.52 492.359 1073.03 492.56 1060.55Z"/><path fill="#FCFCFC" d="M303.368 114.031L340.974 113.945C340.998 118.84 341.591 149.426 340.29 151.321C328.178 151.869 315.632 151.668 303.476 151.637C303.345 139.102 303.309 126.566 303.368 114.031Z"/><path fill="#FCFCFC" d="M972.196 757.727C974.58 757.432 981.235 757.547 983.944 757.524L983.945 795.186L960.247 795.267C955.395 795.29 951.225 795.341 946.397 794.935L946.319 757.733L972.196 757.727Z"/><path fill="#FCFCFC" d="M1135.64 1098.42C1148.17 1098.35 1160.7 1098.34 1173.23 1098.41C1173.3 1110.86 1173.29 1123.31 1173.18 1135.76C1160.79 1136.01 1148.02 1135.83 1135.61 1135.8C1135.34 1123.6 1135.51 1110.6 1135.64 1098.42Z"/><path fill="#FCFCFC" d="M1097.81 833.383L1135.38 833.35L1135.38 871.054C1122.86 871.135 1110.34 871.127 1097.81 871.03C1097.5 858.666 1097.74 845.787 1097.81 833.383Z"/><path fill="#FCFCFC" d="M568.173 984.898L605.672 984.898L605.667 1022.6C594.141 1023.2 579.961 1022.79 568.235 1022.67L568.173 984.898Z"/><path fill="#FCFCFC" d="M76.0312 341.043C88.3786 341.395 101.426 341.192 113.824 341.194L113.751 378.772C101.265 378.915 88.7775 378.909 76.2915 378.754C76.1392 366.59 76.4605 353.032 76.0312 341.043Z"/><path fill="#FCFCFC" d="M530.32 1098.34C542.193 1098.68 556.019 1098.38 568.028 1098.37C568.163 1110.82 568.064 1123.38 568.051 1135.83L530.37 1135.84C530.219 1123.38 530.316 1110.8 530.32 1098.34Z"/><path fill="#FCFCFC" d="M1173.23 492.215C1172.78 503.695 1173.18 518.136 1173.19 529.83C1167.64 529.863 1138.75 530.372 1135.63 529.312C1135.16 517.677 1135.48 504.104 1135.48 492.326C1147.28 492.589 1161.5 492.605 1173.23 492.215Z"/><path fill="#FCFCFC" d="M795.223 1212.02C807.736 1211.88 820.25 1211.88 832.764 1212.02L832.658 1249.66C820.595 1249.43 807.506 1249.67 795.374 1249.69C794.852 1238.15 795.219 1223.82 795.223 1212.02Z"/><path fill="#FCFCFC" d="M492.43 151.921L530.241 151.864L530.201 189.185C517.594 189.352 504.986 189.371 492.378 189.243L492.43 151.921Z"/><path fill="#FCFCFC" d="M1173.31 454.574C1185.62 454.523 1198.8 454.802 1211.02 454.532L1210.98 492.116C1198.89 492.139 1185.21 491.88 1173.23 492.215C1173.36 479.668 1173.38 467.121 1173.31 454.574Z"/><path fill="#FCFCFC" d="M757.375 1098.42L795.117 1098.4C795.421 1110.4 795.25 1123.78 795.037 1135.77C782.554 1135.93 769.905 1135.85 757.409 1135.86L757.375 1098.42Z"/><path fill="#FCFCFC" d="M1101.07 908.979C1111.97 908.54 1124.37 908.928 1135.38 909.037C1135.4 913.544 1136.26 943.78 1134.56 946.359L1132.3 946.466L1097.87 946.479C1097.49 937.047 1097.1 918.928 1098.02 909.99C1099.28 908.635 1098.53 909.209 1101.07 908.979Z"/><path fill="#FCFCFC" d="M946.345 227.508L983.966 227.477C984.038 240.01 984.024 252.544 983.924 265.077C971.443 265.151 958.962 265.159 946.481 265.099C946.054 253.314 946.318 239.363 946.345 227.508Z"/><path fill="#FCFCFC" d="M908.664 113.994L946.239 113.872C946.31 126.471 946.303 139.07 946.218 151.668C933.834 151.667 920.914 151.479 908.573 151.773L908.664 113.994Z"/><path fill="#FCFCFC" d="M643.588 151.764C655.644 152.252 669.272 151.917 681.441 151.884L681.435 189.158L643.612 189.272C643.67 176.77 643.662 164.267 643.588 151.764Z"/><path fill="#FCFCFC" d="M38.5012 833.368L75.9671 833.364L75.9487 870.867C63.4443 871.139 50.9362 871.195 38.4299 871.036C38.3193 858.48 38.343 845.924 38.5012 833.368Z"/><path fill="#FCFCFC" d="M973.421 303.398L983.937 303.403L983.961 340.977L957.817 340.925L946.444 340.953C946.084 328.743 946.475 315.729 946.388 303.403L973.421 303.398Z"/><path fill="#FCFCFC" d="M933.308 719.764L946.212 719.573C946.419 731.962 946.229 744.889 946.215 757.321L921.672 757.353L908.543 757.271C908.319 745.12 908.576 732.101 908.617 719.885L933.308 719.764Z"/><path fill="#FCFCFC" d="M341.172 151.985C353.77 151.835 366.368 151.807 378.966 151.9C378.94 163.855 378.588 177.453 379.008 189.277C369.028 188.672 351.31 189.216 341.079 189.268C341.223 176.841 341.254 164.412 341.172 151.985Z"/><path fill="#FCFCFC" d="M114.035 1060.6C126.385 1060.38 139.387 1060.55 151.785 1060.54L151.793 1098.03L114.089 1097.98C113.878 1085.52 113.86 1073.06 114.035 1060.6Z"/><path fill="#FCFCFC" d="M1106.58 454.649C1116.02 454.454 1125.91 454.687 1135.38 454.778L1135.36 492.146L1127.41 492.197L1097.87 492.132C1097.48 479.928 1097.75 466.941 1097.81 454.677L1106.58 454.649Z"/><path fill="#FCFCFC" d="M341.199 379.113C352.879 378.715 367.122 379.031 378.978 379.013C378.77 391.229 378.895 403.951 378.864 416.202C367.422 416.864 352.819 416.461 341.234 416.353C341.156 403.939 341.145 391.526 341.199 379.113Z"/><path fill="#FCFCFC" d="M113.925 1173.88C113.438 1185.92 113.781 1199.57 113.818 1211.74L76.3147 1211.78C75.9315 1199.44 76.1456 1186.52 76.2417 1174.16C88.2971 1173.68 101.715 1174 113.925 1173.88Z"/><path fill="#FCFCFC" d="M38.2635 76.1705L75.9543 76.076L75.9632 113.819L38.4689 113.736C38.4631 101.214 38.3946 88.6919 38.2635 76.1705Z"/><path fill="#FCFCFC" d="M1101.65 76.215C1112.89 76.0846 1124.14 76.0291 1135.38 76.0484C1135.34 81.5241 1136.34 110.904 1134.6 113.649L1132.3 113.74L1097.87 113.774C1097.66 104.331 1097.05 86.3347 1098.03 77.253C1099.18 75.9429 1099.25 76.3861 1101.65 76.215Z"/><path fill="#FCFCFC" d="M38.3549 757.561L75.9723 757.601C75.9632 769.309 75.5406 783.822 76.0816 795.305C63.5066 795.194 50.931 795.172 38.3556 795.238C38.4598 782.679 38.4595 770.12 38.3549 757.561Z"/><path fill="#FCFCFC" d="M946.404 833.336L983.944 833.395L983.925 870.997L946.394 870.997C946.303 858.444 946.307 845.89 946.404 833.336Z"/><path fill="#FCFCFC" d="M303.391 568.171L340.958 568.209C340.989 572.956 341.648 603.715 340.278 605.603C328.089 606.184 315.631 605.838 303.405 605.713L303.391 568.171Z"/><path fill="#FCFCFC" d="M832.547 946.637C843.96 947.099 858.732 946.73 870.385 946.735L870.385 984.453C857.872 984.61 845.358 984.616 832.846 984.471C832.868 971.987 833.064 959.076 832.547 946.637Z"/><path fill="#FCFCFC" d="M643.677 1060.53L681.459 1060.56L681.432 1097.98L643.671 1098.07C643.43 1085.72 643.639 1072.92 643.677 1060.53Z"/><path fill="#FCFCFC" d="M303.403 946.802C315.919 946.72 328.436 946.701 340.952 946.745L340.958 984.49L303.403 984.59L303.403 946.802Z"/><path fill="#FCFCFC" d="M1211.15 871.343L1248.92 871.331C1248.95 883.528 1249.21 896.522 1248.92 908.656C1237.05 908.791 1222.63 908.345 1211.16 908.755C1211.23 896.284 1211.23 883.813 1211.15 871.343Z"/><path fill="#FCFCFC" d="M1135.52 871.293L1173.21 871.318L1173.17 908.66C1160.65 908.85 1148.13 908.877 1135.61 908.741C1135.25 896.465 1135.47 883.614 1135.52 871.293Z"/><path fill="#FCFCFC" d="M341.194 1060.55L378.886 1060.55L378.973 1097.95L341.524 1098.04C340.666 1087.32 341.169 1071.62 341.194 1060.55Z"/><path fill="#FCFCFC" d="M76.1836 871.338C88.7337 871.256 101.284 871.255 113.834 871.333L113.794 908.69L76.0919 908.852C76.1929 896.348 76.2235 883.843 76.1836 871.338Z"/><path fill="#FCFCFC" d="M908.65 871.365L946.203 871.307C946.358 883.755 946.349 896.204 946.175 908.651C933.629 908.874 921.08 908.886 908.533 908.688L908.65 871.365Z"/><path fill="#FCFCFC" d="M832.789 227.275C832.701 239.6 832.531 252.826 832.845 265.149C821.609 264.733 806.751 265.152 795.275 265.172C795.38 252.64 795.346 240.108 795.174 227.577C803.594 227.699 824.997 227.999 832.789 227.275Z"/><path fill="#FCFCFC" d="M303.432 1098.37L340.979 1098.41L340.97 1135.84L303.403 1135.88L303.432 1098.37Z"/><path fill="#FCFCFC" d="M114.07 151.944L151.834 151.886C151.82 164.25 151.683 176.82 151.826 189.166C141.252 189.257 124.053 188.721 113.948 189.313C114.043 177.127 114.374 164.055 114.07 151.944Z"/><path fill="#FCFCFC" d="M946.375 530.323C958.898 530.252 971.421 530.251 983.944 530.322L983.93 567.755C971.46 567.891 958.99 567.942 946.52 567.906C946.331 555.38 946.283 542.851 946.375 530.323Z"/><path fill="#FCFCFC" d="M189.947 1060.52L227.679 1060.54L227.638 1098.02L190.01 1098C189.677 1085.74 189.91 1072.83 189.947 1060.52Z"/><path fill="#FCFCFC" d="M341.087 492.224C340.472 502.826 340.963 518.804 340.973 529.825C328.522 529.895 316.071 529.869 303.621 529.749C303.104 517.553 303.34 504.643 303.374 492.384C315.363 492.417 329.246 492.786 341.087 492.224Z"/><path fill="#FCFCFC" d="M265.634 151.952C278.153 151.766 290.912 151.88 303.451 151.869C302.996 163.76 303.231 176.988 303.192 188.978C297.11 189.867 272.522 189.238 265.669 189.169C265.371 177.082 265.621 164.106 265.634 151.952Z"/><path fill="#FCFCFC" d="M416.94 1060.58L454.482 1060.58C454.305 1072.89 454.438 1085.57 454.394 1097.92C441.872 1098.12 429.348 1098.13 416.827 1097.96C416.632 1085.5 416.67 1073.04 416.94 1060.58Z"/><path fill="#FCFCFC" d="M1059.89 719.898C1072.09 719.553 1085.15 719.776 1097.42 719.77C1097.51 732.273 1097.49 744.776 1097.37 757.279L1059.87 757.356C1059.59 745.351 1059.87 731.997 1059.89 719.898Z"/><path fill="#FCFCFC" d="M38.2298 1135.93C47.7403 1136.78 65.7913 1136.26 76.031 1136.36L75.9337 1173.82L38.4934 1173.79C38.4988 1161.17 38.4109 1148.55 38.2298 1135.93Z"/><path fill="#FCFCFC" d="M303.345 871.33C315.883 871.223 328.422 871.23 340.96 871.35L340.962 908.629C328.484 908.851 316.003 908.869 303.524 908.682C303.121 896.392 303.314 883.658 303.345 871.33Z"/><path fill="#FCFCFC" d="M227.798 1098.41L265.428 1098.41L265.472 1135.84C253.542 1135.54 239.879 1135.85 227.827 1135.87C227.722 1123.39 227.712 1110.9 227.798 1098.41Z"/><path fill="#FCFCFC" d="M1097.79 1060.57L1135.54 1060.51C1135 1071.79 1135.44 1086.36 1135.37 1097.96C1122.85 1098.17 1110.32 1098.13 1097.79 1097.86C1097.69 1085.43 1097.69 1073 1097.79 1060.57Z"/><path fill="#FCFCFC" d="M265.627 379.015L303.429 379.008C302.932 390.99 303.358 404.219 303.168 416.396C290.657 416.498 278.146 416.489 265.636 416.367C265.457 404.091 265.621 391.328 265.627 379.015Z"/><path fill="#FCFCFC" d="M984.178 1098.41L1022.13 1098.37C1022.24 1110.75 1022.03 1123.43 1021.97 1135.84L984.286 1135.89C984.106 1123.39 984.07 1110.9 984.178 1098.41Z"/><path fill="#FCFCFC" d="M379.06 871.344L416.791 871.307L416.719 908.683C404.15 908.835 391.58 908.852 379.011 908.733L379.06 871.344Z"/><path fill="#FCFCFC" d="M38.876 303.368L76.005 303.278C75.99 315.636 75.746 328.747 76.0312 341.043C63.5083 340.902 50.9843 340.879 38.461 340.972C38.4329 335.527 37.8006 306.046 38.876 303.368Z"/><path fill="#FCFCFC" d="M568.206 1060.62C580.739 1060.49 593.273 1060.46 605.806 1060.53C605.252 1070.87 605.565 1087.56 605.836 1098.04C593.332 1098.07 580.828 1098.02 568.325 1097.89C567.903 1086.01 568.204 1072.61 568.206 1060.62Z"/><path fill="#FCFCFC" d="M597.304 1136.12L605.794 1136.02C605.408 1148.17 605.654 1161.61 605.717 1173.85C596.382 1173.93 587.045 1173.94 577.709 1173.89L568.304 1173.81L568.17 1136.26C577.881 1136.27 587.593 1136.23 597.304 1136.12Z"/><path fill="#FCFCFC" d="M38.502 530.324L75.9297 530.279C75.9616 542.453 76.2453 555.637 75.8338 567.733C63.3826 568.003 50.9274 568.035 38.4749 567.829L38.502 530.324Z"/><path fill="#FCFCFC" d="M1173.35 379.103C1185.9 379.014 1198.46 379.006 1211.01 379.079L1210.98 416.366C1198.43 416.521 1185.88 416.504 1173.33 416.316L1173.35 379.103Z"/><path fill="#FCFCFC" d="M946.304 151.934C958.541 151.635 971.651 151.871 983.954 151.873C983.963 163.636 984.349 177.561 983.794 189.126C971.354 189.254 958.914 189.262 946.474 189.149C946.321 176.744 946.264 164.339 946.304 151.934Z"/><path fill="#FCFCFC" d="M1059.91 416.883C1072.45 416.679 1084.99 416.673 1097.53 416.865L1097.42 454.21C1084.91 454.37 1072.4 454.379 1059.89 454.235C1059.83 441.785 1059.83 429.334 1059.91 416.883Z"/><path fill="#FCFCFC" d="M568.254 1212C580.744 1211.85 593.235 1211.85 605.724 1212.01C605.5 1224.32 605.664 1237.29 605.648 1249.65L568.301 1249.68L568.254 1212Z"/><path fill="#FCFCFC" d="M946.372 1060.57L983.938 1060.54L983.93 1097.95C971.417 1098.09 958.903 1098.09 946.39 1097.92C946.309 1085.47 946.303 1073.02 946.372 1060.57Z"/><path fill="#FCFCFC" d="M1173.35 1060.56L1210.99 1060.56C1211 1072.75 1211.33 1086.01 1210.85 1098.07L1173.61 1097.99C1172.7 1089.91 1173.32 1069.43 1173.35 1060.56Z"/><path fill="#FCFCFC" d="M227.811 492.321L265.477 492.338C265.75 504.65 265.559 517.417 265.536 529.762L227.816 529.813C227.726 517.316 227.725 504.818 227.811 492.321Z"/><path fill="#FCFCFC" d="M38.3638 1060.59L75.9774 1060.52L75.9224 1097.9C63.4503 1098.1 50.9759 1098.09 38.5041 1097.89C38.3036 1085.46 38.2568 1073.02 38.3638 1060.59Z"/><path fill="#FCFCFC" d="M795.332 985.043C807.388 984.655 820.599 984.907 832.74 984.898L832.758 1022.57C820.399 1022.92 807.687 1022.73 795.298 1022.69L795.332 985.043Z"/><path fill="#FCFCFC" d="M76.0919 908.852C75.6858 920.954 75.9706 934.273 75.9887 946.464L38.4684 946.506L38.2916 909.001C50.8911 908.855 63.4916 908.806 76.0919 908.852Z"/><path fill="#FCFCFC" d="M76.2192 1098.35L113.823 1098.47L113.8 1135.79L76.423 1135.86C76.1456 1123.36 76.0776 1110.86 76.2192 1098.35Z"/><path fill="#FCFCFC" d="M416.81 151.933L454.463 151.897C454.277 164.177 454.408 176.826 454.385 189.142C441.901 189.294 429.416 189.3 416.932 189.159C416.644 176.752 416.603 164.341 416.81 151.933Z"/><path fill="#FCFCFC" d="M946.353 454.682C958.672 454.932 971.568 454.678 983.926 454.615L983.886 492.172C971.706 492.188 958.682 492.425 946.577 491.889C946.001 480.127 946.448 466.698 946.353 454.682Z"/><path fill="#FCFCFC" d="M454.84 1098.41C467.226 1098.52 479.901 1098.39 492.304 1098.38L492.287 1135.84L454.938 1135.84C454.184 1124.7 454.721 1109.79 454.84 1098.41Z"/><path fill="#FCFCFC" d="M1097.78 379.07L1135.38 379.065C1135.43 391.486 1135.41 403.908 1135.31 416.329C1122.83 416.437 1110.34 416.447 1097.86 416.359C1097.47 404.441 1097.77 391.093 1097.78 379.07Z"/><path fill="#FCFCFC" d="M568.265 227.464L605.679 227.608L605.668 265.052C593.174 265.156 580.679 265.189 568.184 265.151L568.265 227.464Z"/><path fill="#FCFCFC" d="M1211.7 1023.23C1224.08 1023.03 1236.34 1023.44 1248.78 1022.95C1248.83 1028.51 1249.8 1057.07 1248.37 1060.2C1236.11 1060.52 1223.49 1060.26 1211.2 1060.15C1211.2 1054.13 1210.58 1026.83 1211.7 1023.23Z"/><path fill="#FCFCFC" d="M946.323 379.057L983.935 379.034L983.919 416.365C971.407 416.479 958.894 416.477 946.381 416.359C946.213 404.061 946.337 391.382 946.323 379.057Z"/><path fill="#FCFCFC" d="M795.277 151.949C807.763 151.824 820.25 151.824 832.737 151.949C832.761 164.091 832.569 177.166 832.832 189.241C820.541 189.193 807.52 189.506 795.346 189.124C795.014 176.656 795.448 164.37 795.277 151.949Z"/><path fill="#FCFCFC" d="M946.31 1136.29C958.795 1136.43 971.303 1136.12 983.944 1136.29L983.923 1173.79C971.411 1173.93 958.898 1173.94 946.386 1173.81L946.31 1136.29Z"/><path fill="#FCFCFC" d="M1097.83 151.949C1110.35 151.855 1122.87 151.838 1135.38 151.9L1135.42 189.174C1122.89 189.347 1110.36 189.344 1097.83 189.167C1097.42 177.075 1097.7 164.097 1097.83 151.949Z"/><path fill="#FCFCFC" d="M38.3245 151.957L75.9842 151.872L75.9802 189.158C63.4298 189.311 50.8781 189.307 38.3278 189.145C38.4544 176.749 38.4533 164.353 38.3245 151.957Z"/><path fill="#FCFCFC" d="M1059.91 492.356C1071.91 492.718 1085.32 492.392 1097.42 492.363L1097.45 529.881C1084.92 529.794 1072.38 529.772 1059.85 529.813L1059.91 492.356Z"/><path fill="#FCFCFC" d="M719.555 1060.55L757.109 1060.52L757.074 1097.91C744.567 1098.09 732.057 1098.11 719.549 1097.99C719.467 1085.51 719.469 1073.03 719.555 1060.55Z"/><path fill="#FCFCFC" d="M795.297 1060.55L832.741 1060.54L832.763 1097.99C820.279 1098.08 807.795 1098.08 795.311 1097.98C795.237 1085.51 795.232 1073.03 795.297 1060.55Z"/><path fill="#FCFCFC" d="M606.101 1098.41L643.56 1098.39L643.543 1135.78L606.058 1135.82C605.957 1123.35 605.971 1110.88 606.101 1098.41Z"/><path fill="#FCFCFC" d="M908.618 1098.42L946.34 1098.38C946.176 1110.76 946.248 1123.4 946.22 1135.8L908.654 1135.82C908.385 1123.55 908.593 1110.73 908.618 1098.42Z"/><path fill="#FCFCFC" d="M908.674 341.188L946.154 341.212C946.261 353.698 946.289 366.185 946.24 378.671L908.661 378.704C908.536 366.199 908.54 353.693 908.674 341.188Z"/><path fill="#FCFCFC" d="M379.073 1098.4L416.667 1098.4L416.667 1135.77C405.154 1135.78 390.193 1135.4 379.032 1135.94L379.073 1098.4Z"/><path fill="#FCFCFC" d="M1059.93 871.334L1097.45 871.311L1097.36 908.722C1084.89 908.762 1072.42 908.737 1059.95 908.648C1059.82 896.21 1059.81 883.772 1059.93 871.334Z"/><path fill="#FCFCFC" d="M1059.97 1098.42L1097.35 1098.41C1097.54 1110.89 1097.54 1123.37 1097.35 1135.85L1059.89 1135.88C1059.8 1123.39 1059.83 1110.91 1059.97 1098.42Z"/><path fill="#FCFCFC" d="M568.223 151.904L605.648 151.888C605.654 164.155 605.506 176.88 605.681 189.114C594.464 189.222 579.065 188.761 568.199 189.263C568.364 176.811 568.372 164.356 568.223 151.904Z"/><path fill="#FCFCFC" d="M38.4395 379.085C50.8018 378.92 63.5967 379.064 75.989 379.062L75.9346 416.377C63.4453 416.501 50.9549 416.469 38.4664 416.281L38.4395 379.085Z"/><path fill="#FCFCFC" d="M530.269 951.892C540.382 952.907 553.73 952.252 564.093 952.407L564.53 952.765C566.544 952.979 566.051 952.726 567.776 953.533C568.51 962.154 568.133 975.538 568.136 984.527L530.361 984.633C530.215 974.017 530.102 962.476 530.269 951.892Z"/></svg>