<?xml version="1.0" encoding="utf-8" ?><svg xmlns="http://www.w3.org/2000/svg" xmlns:xlink="http://www.w3.org/1999/xlink" width="1254" height="1254" viewBox="0 0 1254 1254"><path fill="#FCFCFC" d="M0 0L1254 0L1254 1254L0 1254L0 0Z"/><path fill="#033F54" d="M613.909 394.339C729.564 387.863 828.515 476.494 834.765 592.162C841.016 707.83 752.192 806.607 636.512 812.633C521.15 818.641 422.703 730.116 416.47 614.766C410.237 499.416 498.571 400.796 613.909 394.339Z"/><path fill="#FCFCFC" d="M609.448 419.355C711.13 410.43 800.81 485.586 809.805 587.262C818.8 688.937 743.706 778.669 642.036 787.734C540.268 796.807 450.43 721.624 441.427 619.85C432.423 518.076 507.667 428.289 609.448 419.355Z"/><path fill="#033F54" d="M623.263 203.385C625.183 203.352 627.134 203.283 629.008 203.766C632.86 204.757 635.295 207.201 637.138 210.631C638.112 212.444 638.222 213.977 638.338 215.986C638.928 226.178 639.541 307.959 637.584 313.371C636.078 317.54 632.724 319.664 628.854 321.344C626.844 321.396 624.787 321.504 622.822 321.008C619.26 320.108 616.503 318.014 614.774 314.769C613.701 312.754 613.685 310.496 613.56 308.264C612.977 297.798 612.572 216.166 614.291 211.63C615.908 207.362 619.278 205.183 623.263 203.385Z"/><path fill="#033F54" d="M244.897 592.227C257.046 591.824 329.402 591.119 335.038 593.017C338.125 594.078 340.641 596.356 342.003 599.322C343.548 602.643 343.631 606.459 342.232 609.844C340.401 614.222 337.274 615.982 333.123 617.711C323.958 618.103 248.224 618.732 243.225 616.95C240.176 615.864 237.36 613.287 236.016 610.35C234.59 607.233 234.39 602.774 235.788 599.616C237.508 595.731 241.088 593.616 244.897 592.227Z"/><path fill="#033F54" d="M918.968 592.204C935.16 591.401 953.917 592.452 970.574 592.068C979.851 593.471 1000.18 590.011 1008.57 592.692C1021.01 596.668 1020.31 611.6 1008.12 617.437C999.641 618.437 922.789 618.688 917.45 616.973C914.592 616.054 912.028 613.607 910.692 610.96C909.032 607.659 908.818 603.817 910.103 600.352C911.715 595.904 914.871 594.027 918.968 592.204Z"/><path fill="#033F54" d="M622.683 879.981C625.421 879.823 628.02 879.638 630.656 880.574C633.688 881.652 636.267 884.142 637.501 887.119C639.418 891.745 639.391 974.485 637.541 978.761C635.889 982.578 632.759 984.435 629.109 986.04C620.915 986.938 613.882 982.94 613.667 973.951C613.186 953.758 613.534 933.457 613.476 913.258C613.452 904.952 612.966 896.155 614.344 888.063C614.97 884.385 619.918 881.377 622.683 879.981Z"/><path fill="#033F54" d="M431.628 272.526C443.233 271.306 445.103 277.104 450.427 286.076C462.317 306.112 474.68 325.901 486.164 346.167C491.105 354.887 488.189 361.53 479.408 365.54C468.122 367.117 465.579 360.637 460.592 352.229C448.992 332.669 437.447 313.063 425.802 293.531C420.334 284.361 421.789 277.468 431.628 272.526Z"/><path fill="#033F54" d="M813.849 272.599C820.172 271.976 825.763 273.094 828.914 279.275C832.974 287.242 823.403 299.513 819.225 306.547L804.05 332.219C798.433 341.752 792.323 352.488 786.278 361.808C785.25 363.394 781.965 364.686 780.197 365.44C774.825 366.713 769.28 365.126 766.217 360.334C761.353 352.724 767.341 344.573 771.265 338.108C783.768 317.508 795.84 296.651 808.449 276.133C809.099 275.074 812.714 273.204 813.849 272.599Z"/><path fill="#033F54" d="M474.107 841.438C483.752 841.13 491.608 848.659 487.435 858.452C485.031 864.096 480.681 870.6 477.502 875.946L460.413 904.637C455.448 912.959 450.17 922.123 444.909 930.285C443.478 932.504 439.627 933.834 437.173 934.749C424.514 935.015 419.31 924.767 425.696 914C437.451 894.016 449.523 874.213 461.111 854.126C465.129 847.162 466.194 843.74 474.107 841.438Z"/><path fill="#033F54" d="M773.939 841.409C778.474 841.193 783.759 842.013 786.352 846.278C800.593 869.696 814.984 893.387 828.214 917.376C832.372 924.917 827.107 931.616 819.733 934.436C817.263 934.535 815.376 934.66 812.979 933.951C811.112 933.418 809.441 932.353 808.169 930.886C804.756 926.91 795.203 909.944 791.933 904.453C783.58 890.23 774.977 876.147 766.886 861.774C761.637 852.449 764.41 845.663 773.939 841.409Z"/><path fill="#033F54" d="M366.872 737.939C383.418 737.012 387.004 754.049 378.701 759.729C362.334 770.926 342.184 780.462 325.117 791.025C320.016 794.182 312.665 798.38 307.301 800.936C305.179 801.044 302.771 801.169 300.699 800.664C290.487 798.173 287.755 783.552 296.901 777.988C306.546 771.688 316.846 766.274 326.796 760.449C331.174 757.886 335.775 755.124 340.22 752.72C348.958 747.996 357.849 741.931 366.872 737.939Z"/><path fill="#033F54" d="M300.714 408.512C308.43 407.968 309.829 409.256 316.344 413.051C336.057 424.534 356.009 435.738 375.497 447.591C386.731 454.423 385.169 466.408 373.294 471.732C371.961 471.937 368.162 472.221 367.063 471.633C343.656 459.097 320.573 445.082 297.712 431.522C287.178 425.273 290.297 413.664 300.714 408.512Z"/><path fill="#033F54" d="M879.367 737.908C887.295 737.348 889.361 739.47 896.032 743.381C915.638 754.877 935.622 765.838 954.947 777.789C956.855 778.97 958.485 780.631 959.461 782.666C963.43 791.079 959.196 797.207 951.466 800.838C943.368 801.427 942.062 799.703 935.156 795.661C915.543 784.183 895.72 772.994 876.256 761.281C874.338 760.127 872.492 758.366 871.491 756.33C867.48 747.799 871.662 741.763 879.367 737.908Z"/><path fill="#033F54" d="M944.942 408.476C948.21 408.282 949.481 408.348 952.601 409.354C961.073 411.9 962.899 426.027 955.619 430.645C937.058 442.42 917.66 453.138 898.832 464.529C894.481 467.16 889.868 470.052 885.208 472.006C869.665 472.524 864.84 456.004 875.865 448.762C892.829 437.619 911.321 427.771 928.731 417.26C933.342 414.476 940.029 410.364 944.942 408.476Z"/></svg>