<?xml version="1.0" encoding="utf-8" ?><svg xmlns="http://www.w3.org/2000/svg" xmlns:xlink="http://www.w3.org/1999/xlink" width="1254" height="1254" viewBox="0 0 1254 1254"><path fill="white" d="M0 0L27.9884 0L55.7667 0L83.5857 0L111.43 0L139.628 0L167.274 0L195.273 0L278.875 0L306.452 0L724.44 0L752.175 0L946.935 0L974.813 0L1087.14 0L1114.09 0L1198.58 0L1226.05 0L1254 0L1254 28.1329L1254 55.2914L1254 391.107L1254 418.674L1254 446.539L1254 558.247L1254 586.052L1254 614.117L1254 641.966L1254 669.769L1254 697.94L1254 1254L863.374 1254L835.664 1254L807.745 1254L780.173 1254L585.743 1254L557.132 1254L250.827 1254L222.922 1254L139.293 1254L111.888 1254L0 1254L0 1199.05L0 1171.2L0 586.121L0 558.245L0 251.215L0 223.433L0 195.468L0 111.943L0 83.9465L0 0Z"/><path fill="#F8F7F7" d="M0 0L27.9884 0L55.7667 0L83.5857 0L111.43 0L139.628 0L167.274 0L195.273 0C195.232 9.2847 195.265 18.5696 195.373 27.8537C203.056 27.8629 213.476 27.5851 220.93 28.0558C212.395 28.1388 203.86 28.1755 195.325 28.166C195.303 35.5123 194.883 48.7188 195.516 55.5903C196.725 56.6001 197.879 56.414 199.511 56.4771C198.35 56.5716 197.23 56.7405 196.089 56.975C195.12 59.6894 195.637 79.5454 195.637 83.5735L222.983 83.5735C222.907 92.997 222.946 102.421 223.103 111.844C226.142 111.85 248.422 111.677 249.503 112.168C243.727 113.178 229.982 112.722 223.491 112.664C223.491 119.07 223.691 126.735 223.138 133.021C222.956 126.029 222.857 119.036 222.843 112.043L195.271 112.127C195.292 121.123 195.12 130.871 195.366 139.801C187.693 139.809 176.989 139.512 169.557 140.032C177.941 140.229 186.327 140.291 194.713 140.218C194.597 173.813 189.657 168.115 222.267 168.384L222.267 194.713C218.401 194.716 198.601 194.29 196.245 195.032C203.882 196.286 215.519 194.513 222.114 195.754C213.551 196.067 204.543 195.939 195.938 195.938L195.938 222.879C203.589 222.873 213.126 222.643 220.59 223.27C212.639 223.699 203.308 223.523 195.242 223.543C195.193 232.689 195.054 241.983 195.384 251.117L202.303 251.171L201.828 251.514L203.562 251.423C201.855 251.756 197.848 251.651 195.937 251.657L195.937 279.211L222.879 279.211C222.892 285.004 222.539 298.338 223.035 303.529C223.218 295.528 223.27 287.525 223.191 279.523C228.255 279.486 245.763 279.055 250.075 279.79L250.627 281.644C252.248 279.891 249.41 279.316 253.517 279.247C271.227 278.952 288.994 279.384 306.698 279.135C306.225 285.047 306.137 301.48 307.015 307.065C298.232 307.041 287.343 306.727 278.795 307.512C278.802 316.313 278.551 326.558 278.875 335.238C269.555 335.128 260.233 335.117 250.911 335.202C250.813 327.952 251.173 316.007 250.575 309.313C250.452 317.852 250.404 326.391 250.433 334.931L195.19 335.243C195.178 342.726 195.54 355.751 194.898 362.784L167.471 362.784C167.459 356.188 167.696 346.868 167.273 340.507L167.159 363.097L111.42 363.123L111.399 334.984C114.583 334.989 135.052 335.208 136.147 334.604L137.197 334.601C130.648 335.118 119.187 334.298 112.052 334.318L112.052 307.989C114.241 307.986 117.382 308.201 119.331 307.594C116.229 307.306 114.523 307.321 111.398 307.429L111.514 279.239C105.641 279.606 88.9042 278.406 84.0621 279.773L83.4305 281.348L82.8204 281.578L82.5172 280.05C77.9462 279.033 61.2224 280.086 56.1587 280.704C55.8166 280.186 55.4744 279.668 55.1323 279.151C46.1474 279.107 37.0316 279.262 28.0365 279.339C28.1632 269.974 28.1267 260.608 27.9269 251.244L0 251.215L0 223.433L0 195.468L0 111.943L0 83.9465L0 0Z"/><path fill="#FEFEFE" d="M27.9884 0L55.7667 0C55.963 9.35573 55.4501 18.7332 55.9933 28.0898C62.7928 28.0758 75.6161 27.7279 81.8666 28.4584C75.9732 29.5425 58.3014 28.4085 51.6904 28.2162C43.8503 27.9882 36.1042 27.9927 28.2341 27.9957C27.9078 19.0322 28.0523 9.0443 27.9884 0Z"/><path fill="#FEFEFE" d="M83.5857 0L111.43 0C111.502 9.31738 111.493 18.6352 111.404 27.9524C102.212 27.9704 93.0193 27.9375 83.8274 27.8537C83.2285 20.0162 83.5783 8.13782 83.5857 0Z"/><path fill="#FEFEFE" d="M0 83.9465C8.55762 83.9667 19.6068 83.6825 27.961 84.1696L28.0621 111.739C18.9251 111.758 9.07575 111.606 0 111.943L0 83.9465Z"/><path fill="#FEFEFE" d="M0 195.468L28.0116 195.502L27.8537 223.071C18.6331 223.548 9.24483 223.44 0 223.433L0 195.468Z"/><path fill="#FEFEFE" d="M139.628 0L167.274 0L167.141 27.8537C157.979 27.925 148.816 27.925 139.654 27.8537C139.363 18.657 139.55 9.22087 139.628 0Z"/><path fill="#FEFEFE" d="M111.581 251.357L139.293 251.357L139.293 279.141C130.741 279.152 119.869 278.844 111.514 279.239L111.581 251.357Z"/><path fill="#FEFEFE" d="M121.392 84.192C126.002 83.8507 134.754 83.8391 139.293 84.2488L139.16 111.739C135.879 111.707 132.629 111.822 129.349 111.912C123.455 111.913 117.481 111.796 111.58 111.732L111.552 84.198L121.392 84.192Z"/><path fill="#FEFEFE" d="M56.1297 195.918C65.2826 195.685 74.4385 195.592 83.5942 195.637C83.6735 204.882 83.6068 214.127 83.3941 223.37C74.2729 223.451 65.151 223.383 56.032 223.167C56.0675 213.926 55.6428 205.213 56.1297 195.918Z"/><path fill="#FEFEFE" d="M139.35 223.588L167.255 223.559C167.489 232.878 167.308 241.762 167.115 251.089C158.029 251.216 148.731 251.115 139.626 251.115C139.427 241.954 139.602 232.815 139.35 223.588Z"/><path fill="#FEFEFE" d="M28.1878 223.54L55.7081 223.56L55.8337 251.003C46.6157 251.207 37.3946 251.243 28.1753 251.111C28.0001 241.921 28.0042 232.729 28.1878 223.54Z"/><path fill="#FEFEFE" d="M111.562 140.177C119.756 139.578 130.866 139.896 139.293 139.918L139.254 167.69C130.025 167.72 120.797 167.681 111.569 167.572L111.562 140.177Z"/><path fill="#FEFEFE" d="M28.1533 167.846L55.8778 167.831C55.7387 176.933 55.8139 186.229 55.7911 195.348L28.1675 195.334C28.006 186.172 28.0013 177.009 28.1533 167.846Z"/><path fill="#FEFEFE" d="M1198.58 0L1226.05 0L1254 0L1254 28.1329L1254 55.2914C1250.67 57.336 1252.11 78.3374 1252.16 83.2734L1199.19 82.9762L1198.58 0Z"/><path fill="#F8F7F7" d="M1226.05 0L1254 0L1254 28.1329C1244.62 28.1229 1235.25 28.17 1225.87 28.2741L1226.05 0Z"/><path fill="#F8F7F7" d="M1197.67 614.754C1190.45 614.778 1178.96 615.035 1172.06 614.432C1178.8 613.962 1192.89 614.484 1197.55 613.632C1198.4 612.467 1198.27 612.104 1198.62 610.537C1198.88 612.74 1198.41 612.054 1199.51 613.528L1201.94 613.612L1201.94 614.199C1200.9 614.337 1200.1 614.4 1199.06 614.479C1197.72 616.572 1198.36 637.993 1198.38 641.789L1225.71 641.881L1225.73 641.592C1226.45 633.121 1226.17 622.689 1226.15 614.027L1254 614.117L1254 641.966L1254 669.769L1254 697.94L1225.82 698.057C1225.93 688.685 1225.96 679.312 1225.9 669.939L1198.19 669.975C1198.11 665.159 1199.07 644.496 1197.29 642.138L1193.57 641.894L1193.25 641.175C1194.92 641.097 1195.79 641.16 1197.38 640.568C1198.2 636.031 1197.71 620.284 1197.67 614.754Z"/><path fill="#FEFEFE" d="M1254 641.966L1254 669.769L1226.18 669.781C1225.66 661.078 1225.95 651.095 1226.02 642.268C1235.16 641.881 1244.81 641.993 1254 641.966Z"/><path fill="#F8F7F7" d="M0 558.245L28.2063 558.217C28.1459 567.14 27.8679 577.209 28.214 586.036L55.9242 585.955C55.8469 595.351 55.726 604.613 56.0359 614.008C65.2208 614.067 74.4061 614.058 83.5908 613.98C83.5129 618.7 83.5358 623.86 83.1124 628.519C82.5767 623.347 82.5917 619.994 82.6611 614.754C72.305 614.716 65.9757 614.827 55.8543 615.494L55.3209 614.211C53.3391 613.925 31.4304 614.27 28.0867 614.263L28.0738 586.185L0 586.121L0 558.245Z"/><path fill="#F8F7F7" d="M1198.2 530.198C1207.47 530.312 1216.74 530.312 1226.01 530.199C1225.91 539.545 1225.93 548.892 1226.07 558.238L1254 558.247L1254 586.052C1250.89 586.068 1234.61 586.486 1232.71 585.927L1233.18 585.374C1239.25 585.377 1245.32 585.313 1251.4 585.181C1252.74 583.349 1252.15 562.855 1252.16 559.034C1243.1 558.975 1235.36 558.828 1226.29 559.88C1225.58 558.648 1226.02 559.235 1224.95 558.143C1216.18 558.425 1206.95 558.342 1198.14 558.391L1198.2 530.198Z"/><path fill="#F8F7F7" d="M529.479 1199.2C538.7 1199.16 548.194 1198.84 557.324 1198.87C557.228 1216.83 557.912 1234.35 557.81 1252.25C562 1251.8 581.43 1251.39 584.798 1252.71L585.743 1254L557.132 1254C557.208 1244.92 557.204 1235.83 557.122 1226.75L529.28 1226.76C529.646 1217.45 529.558 1208.53 529.479 1199.2Z"/><path fill="#F8F7F7" d="M278.875 0L306.452 0C306.434 7.64849 306.024 21.2023 306.972 28.2142C297.54 28.0786 288.107 28.1092 278.677 28.3062C278.568 19.5567 278.417 8.59391 278.875 0Z"/><path fill="#F8F7F7" d="M946.935 0L974.813 0C974.785 9.37159 974.809 18.7433 974.884 28.1146L946.935 28.1752L946.935 0Z"/><path fill="#F8F7F7" d="M724.44 0L752.175 0C752.127 9.4001 752.139 18.8004 752.21 28.2004C742.89 28.1028 733.569 28.1288 724.25 28.2783L724.44 0Z"/><path fill="#F8F7F7" d="M0 1171.2L28.2112 1171.21C27.9902 1180.51 28.003 1189.82 28.2496 1199.12C19.0627 1199.1 9.12069 1198.86 0 1199.05L0 1171.2Z"/><path fill="#FEFEFE" d="M1225.81 418.939L1254 418.674L1254 446.539C1249.69 446.951 1229.13 447.913 1227.04 444.874C1224.51 441.198 1226.44 425.985 1225.89 419.784L1225.81 418.939Z"/><path fill="#F8F7F7" d="M1225.79 390.963C1235.19 390.953 1244.6 391.001 1254 391.107L1254 418.674L1225.81 418.939C1226.06 408.891 1226.18 400.985 1225.79 390.963Z"/><path fill="#F8F7F7" d="M863.231 1226.76C863.256 1223.52 863.187 1202.34 863.714 1200.27C864.899 1213.77 863.275 1238.83 863.374 1254L835.664 1254C835.635 1244.91 835.657 1235.83 835.73 1226.74C844.897 1226.85 854.065 1226.85 863.231 1226.76Z"/><path fill="#F8F7F7" d="M250.972 1226.79C250.929 1223 250.732 1219.83 251.404 1216.09C251.895 1226.12 250.778 1242.79 250.827 1254L222.922 1254L222.874 1226.78C232.24 1226.87 241.606 1226.87 250.972 1226.79Z"/><path fill="#F8F7F7" d="M807.634 1226.89C807.633 1223.13 807.393 1203.13 808.058 1201.05C808.939 1217.42 807.592 1236.94 807.745 1254L780.173 1254L780.058 1226.89C788.367 1226.87 799.564 1226.49 807.634 1226.89Z"/><path fill="#F8F7F7" d="M111.49 1226.73C120.757 1226.92 130.026 1226.92 139.293 1226.73L139.293 1254L111.888 1254C111.285 1247.26 111.35 1233.82 111.49 1226.73Z"/><path fill="#FEFEFE" d="M1087.14 0L1114.09 0L1114.09 27.2537L1087.14 27.2539C1087.25 18.3899 1087.05 9.04129 1087.14 0Z"/><path fill="#003C56" d="M612.466 282.53C643.225 279.097 688.995 286.422 718.528 294.7C889.641 342.661 990.684 536.355 939.956 706.213C916.137 788.075 860.578 857.017 785.649 897.691C761.605 910.873 735.921 920.812 709.267 927.249C700.636 929.288 687.962 933.106 688.148 919.092C688.246 911.725 702.67 910.521 707.787 909.196C715.685 907.095 723.504 904.707 731.229 902.04C806.922 876.044 869.114 820.923 904.014 748.9C940.148 673.895 944.715 587.538 916.693 509.14C859.166 344.602 689.174 260.575 524.05 318.776C446.959 345.912 384.054 402.967 349.547 477.052C313.272 552.141 308.296 638.56 335.713 717.316C363.727 796.459 422.145 855.122 497.166 890.866C521.412 902.151 548.253 910.108 574.759 913.801C585.707 915.413 595.775 914.904 604.81 907.79C617.255 897.989 618.139 884.887 617.85 870.37C617.739 864.809 617.837 858.912 617.826 853.311L617.759 798.85L617.795 732.006C617.798 707.437 619.284 685.236 610.148 661.697C600.2 636.065 582.181 617.51 557.696 605.267C540.626 596.732 523.385 593.076 505.447 587.222C479.381 578.827 454.296 567.644 430.628 553.869C415.552 544.982 398.635 533.972 385.693 522.355C379.538 514.04 390.088 503.966 397.637 509.872C429.881 534.895 470.487 557.938 509.701 569.873C565.746 586.929 598.26 596.521 625.44 652.709C627.393 647.608 630.025 641.702 632.607 636.939C641.735 620.25 655.138 606.289 671.442 596.489C695.182 582.144 714.241 579.151 739.736 571.205C756.4 565.96 772.697 559.614 788.52 552.208C800.54 546.615 812.252 540.382 823.607 533.537C829.178 530.151 834.662 526.623 840.054 522.956C846.177 518.736 861.135 504.558 869.152 509.374C870.846 510.392 871.429 513.11 871.756 515.157C873.337 525.026 860.063 529.482 854.125 534.811C821.558 558.022 784.917 575.551 746.744 587.441C728.287 593.16 709.655 597.398 692.054 605.417C663.5 618.427 642.597 643.693 637.53 674.987C634.196 695.581 635.464 719.941 635.464 741.189L635.451 844.89C635.452 856.244 636.165 881.23 634.34 891.17C632.651 900.134 628.646 908.5 622.724 915.437C614.087 925.366 601.875 931.479 588.751 932.442C579.511 933.052 566.304 930.883 556.9 929.123C502.985 919.033 450.86 891.456 409.592 855.747C345.273 800.093 306.248 721.802 300.895 636.707C295.395 546.913 325.563 458.577 384.841 390.905C442.759 325.23 525.582 287.984 612.466 282.53Z"/><path fill="#003C56" d="M843.05 622.966C849.892 622.092 876.06 621.327 882.105 624.974C886.909 627.871 884.572 645.452 883.954 651.008C879.65 687.061 866.662 721.532 846.104 751.461C810.027 804.55 753.984 840.762 690.759 851.834L689.816 851.973C682.552 853.025 660.371 856.983 654.442 852.352C649.797 848.724 651.488 830.562 651.815 824.252C654.508 777.616 672.104 733.078 702.014 697.195C738.375 653.878 786.521 627.83 843.05 622.966Z"/><path fill="#F8F7F7" d="M667.965 837.404L667.963 835.263C668.592 782.093 690.188 731.323 728.054 693.993C757.134 664.872 794.998 646.143 835.791 640.701C847.71 639.208 856.431 639.275 868.312 639.343C865.369 670.685 857.326 698.978 841.489 726.338L836.994 733.746C802.326 792.038 735.578 832.964 667.965 837.404Z"/><path fill="#003C56" d="M391.199 622.385C394.427 622.238 398.674 622.32 401.978 622.414C455.233 624.3 505.555 647.274 541.864 686.279C582.063 728.129 603.757 784.378 602.07 842.382C601.584 857.238 592.482 854.802 580.931 853.986C470.931 841.345 375.132 748.835 368.2 636.214C367.199 619.96 378.973 622.615 391.199 622.385Z"/><path fill="#F8F7F7" d="M385.225 639.336L390.821 639.281C501.138 638.59 584.918 728.952 585.414 837.316C542.592 834.399 497.143 813.154 464.632 785.585C419.897 747.649 390.716 698.027 385.225 639.336Z"/><path fill="#003C56" d="M622.041 387.204C665.73 384.596 703.267 417.883 705.904 461.57C708.54 505.257 675.277 542.816 631.592 545.481C587.867 548.149 550.265 514.849 547.626 471.121C544.988 427.394 578.312 389.814 622.041 387.204Z"/><path fill="#F8F7F7" d="M623.513 404.961C657.325 403.203 686.194 429.116 688.085 462.922C689.975 496.727 664.175 525.698 630.377 527.72C596.392 529.755 567.225 503.78 565.324 469.787C563.423 435.793 589.512 406.728 623.513 404.961Z"/><path fill="#F8F7F7" d="M1058.62 669.772L1086.51 669.79C1086.36 677.663 1086.29 690.211 1086.99 697.751C1096.1 697.996 1105.28 697.694 1114.47 697.952C1114.78 706.527 1114.52 716.681 1114.63 725.477L1114.91 725.498C1123.24 726.222 1134.02 725.916 1142.56 725.893C1142.44 735.15 1142.46 744.407 1142.61 753.663C1149.73 753.686 1163.04 754.23 1169.42 753.372C1170.89 751.816 1169.51 751.657 1170.59 748.8C1170.66 750.19 1170.77 751.577 1170.91 752.962C1172.7 753.64 1176.15 752.763 1179.32 753.236L1178.99 753.629L1171.88 753.934C1173.89 754.9 1193.29 754.289 1197.04 754.356C1197.95 755.637 1197.67 756.1 1197.8 757.961C1198.06 756.297 1198.02 756.323 1198.75 754.826C1201.46 752.961 1205.12 751.784 1208.01 753.807L1208.04 754.616C1204.96 754.372 1201.98 754.387 1198.89 754.359C1198.88 757.711 1198.44 779.231 1199.35 781.233L1200.96 781.609C1200.29 781.724 1198.83 781.935 1198.72 782.429C1197.76 787.059 1198.29 805.741 1198.3 809.532L1170.3 809.545C1170.4 812.635 1170.45 813.903 1169.98 816.931C1169.22 815.123 1169.5 812.22 1169.5 810.079L1143.17 810.079C1143.17 817.993 1143.39 827.61 1142.86 835.347C1142.23 827.586 1142.49 817.502 1142.51 809.53L1114.37 809.542L1114.44 781.811C1109.87 781.752 1089.23 780.579 1086.77 782.957C1086.54 791.766 1086.57 800.581 1086.86 809.389C1095.31 809.366 1103.58 809.297 1112.03 809.669C1109.03 810.28 1091.65 810.075 1087.45 810.079C1087.52 813.11 1087.57 814.406 1087.17 817.37C1086.46 815.527 1086.72 811.685 1086.75 809.534L1058.6 809.561L1058.72 781.538C1067.55 781.928 1077.51 781.471 1086.54 781.537C1086.84 772.564 1086.63 762.827 1086.59 753.793L1058.6 753.767L1058.58 725.586C1067.91 725.706 1077.25 725.711 1086.58 725.603L1086.62 698.048C1077.26 697.915 1067.9 697.925 1058.54 698.079L1058.62 669.772Z"/><path fill="#F8F7F7" d="M390.003 83.8761C390.022 80.444 390.492 75.9266 390.421 72.8248C390.772 75.8986 390.643 80.1006 390.65 83.2734C397.904 83.2511 409.493 82.9734 416.512 83.647C413.154 84.2452 394.788 84.0449 390.188 84.0592L390.156 111.802L362.404 112.068C362.323 121.333 362.326 130.598 362.412 139.862C353.086 139.712 343.758 139.705 334.431 139.842C334.413 148.415 334.114 159.325 334.812 167.682C343.258 167.71 353.646 168.175 361.906 167.803L362.446 166.37C372.348 167.285 379.379 167.197 389.426 167.159C389.405 159.481 389.195 149.439 389.65 141.909C390.314 144.611 390.14 164.131 390.143 167.744L417.709 167.748L417.894 195.321C422.373 195.371 426.852 195.445 431.33 195.542C427.702 196.071 422.604 195.928 418.816 195.937C418.82 203.444 419.088 214.186 418.414 221.41C417.766 214.186 418.081 202.924 418.078 195.365C409.942 196.054 398.844 195.53 390.125 195.82C390.01 205.005 390.023 214.192 390.166 223.376C396.293 223.368 411.093 222.943 416.205 223.715C409.907 224.95 390.925 223.741 383.537 223.617C376.473 223.498 369.279 223.533 362.174 223.579C362.517 214.575 362.294 204.553 362.268 195.47C353.677 195.484 342.817 195.077 334.492 195.783C334.37 204.953 334.418 214.125 334.637 223.293C340.223 223.351 355.783 222.964 360.512 223.731C355.108 224.835 335.756 223.758 329.481 223.64C321.883 223.496 314.165 223.531 306.506 223.592C306.797 214.42 306.664 204.741 306.673 195.526C300.235 196.009 285.934 195.641 278.746 195.698C278.687 204.905 278.717 214.113 278.837 223.319C284.397 223.405 300.127 222.951 304.773 223.728C297.396 224.944 280.51 223.774 272.31 223.622C265.206 223.49 258.134 223.498 251.013 223.514C250.598 232.266 250.677 242.453 251.002 251.187L224.869 251.194C224.142 251.208 224.654 251.239 223.4 250.735C222.554 247.967 222.879 227.142 222.889 223.34C232.188 223.483 241.49 223.429 250.787 223.18L250.889 195.328C260.044 195.848 269.517 195.629 278.677 195.337L278.695 167.693L306.627 167.581C306.758 158.338 306.703 148.944 306.736 139.687C316.027 139.973 325.084 139.835 334.379 139.723C334.538 130.444 334.621 121.163 334.631 111.882L362.256 111.92L362.387 83.7794L390.003 83.8761Z"/><path fill="#FEFEFE" d="M362.34 167.828L390.143 167.744C389.825 176.438 390.051 186.593 390.025 195.403C380.812 195.487 371.599 195.474 362.387 195.363L362.34 167.828Z"/><path fill="#F8F7F7" d="M418.014 1143.45C427.317 1143.64 436.621 1143.68 445.925 1143.57C445.918 1152.46 445.7 1162.37 446.015 1171.17C455.149 1171.18 464.52 1171.3 473.632 1171.18C473.467 1180.47 473.464 1189.77 473.625 1199.06L464.586 1199.03L445.831 1199.04L445.735 1171.37L418.127 1171.37C417.938 1178.02 417.733 1184.26 417.917 1190.91C418.057 1195.96 419 1202.75 418.572 1207.54C417.788 1205.85 418.005 1201.27 417.977 1199.09C408.774 1199.07 399.178 1198.91 390.018 1199.23C389.976 1189.91 390.009 1180.59 390.116 1171.28C399.426 1171.17 408.737 1171.13 418.048 1171.16C418.065 1162.08 418.237 1152.48 418.014 1143.45Z"/><path fill="#F8F7F7" d="M501.438 56.032L529.288 56.029L529.298 83.8611C538.637 83.8796 547.975 83.8207 557.313 83.6845L557.293 111.84C565.498 111.846 574.868 111.659 582.943 112.266C580.149 112.84 561.968 112.657 557.81 112.664C557.844 121.189 557.905 129.382 557.515 137.899C556.973 134.489 557.157 116.243 557.127 111.739L529.344 111.739L529.344 84.048C520.034 83.8858 510.722 83.9008 501.412 84.0932L501.438 56.032Z"/><path fill="#F8F7F7" d="M1142.48 530.209L1170.38 530.207C1170.33 539.508 1170.32 548.809 1170.36 558.11C1161.15 558.03 1151.8 558.354 1142.53 558.358C1142.37 576.94 1143.23 594.898 1143.17 613.529C1151.44 613.423 1159.72 613.45 1167.99 613.611L1168.6 614.277L1142.44 614.328L1142.47 586.176C1133.1 586.138 1123.74 586.17 1114.37 586.273C1114.53 576.978 1114.43 567.427 1114.43 558.112C1123.77 558.283 1133.11 558.324 1142.46 558.236L1142.48 530.209Z"/><path fill="#F8F7F7" d="M1114.4 642.007C1114.41 639.639 1114 634.061 1115.01 632.511C1114.95 645.374 1114.21 656.609 1114.58 669.818L1142.25 669.82C1142.27 679.246 1142.4 688.671 1142.64 698.094C1134.49 697.966 1121.83 698.476 1114.47 697.952L1114.38 669.956C1105.12 669.848 1095.86 669.843 1086.6 669.94C1086.69 660.629 1086.72 651.318 1086.67 642.008L1114.4 642.007Z"/><path fill="#F8F7F7" d="M139.467 474.471L167.221 474.444C167.44 483.555 167.308 493.201 167.333 502.354L139.574 502.39L139.599 530.331L111.421 530.333C111.605 521.162 111.465 511.602 111.457 502.401L139.313 502.402C139.529 493.206 139.44 483.693 139.467 474.471Z"/><path fill="#F8F7F7" d="M111.333 697.715C111.366 696.329 111.3 691.449 111.773 690.55C112.244 692.801 112.119 694.789 112.1 697.078C113.779 697.613 114.666 697.527 116.399 697.554L116.077 698.004L112.478 698.171C110.589 700.258 111.573 721.161 111.473 725.667C103.022 725.711 91.7257 725.411 83.538 725.876C83.4355 735.191 83.2473 744.495 83.6535 753.802L56.032 753.782L56.032 725.893L68.5781 725.893L83.5857 725.893C83.6031 716.599 83.4915 706.993 83.6585 697.726C92.883 697.848 102.109 697.844 111.333 697.715Z"/><path fill="#F8F7F7" d="M918.952 1143.71L946.776 1143.53C946.776 1152.09 946.493 1162.82 946.965 1171.21L974.81 1171.21C974.78 1179.61 974.92 1188.88 974.51 1197.18C974.005 1188.81 974.155 1180.34 974.177 1171.95C955.781 1172.16 937.382 1171.93 918.998 1171.25C918.76 1162.07 918.745 1152.89 918.952 1143.71Z"/><path fill="#F8F7F7" d="M779.464 1145.29L779.566 1145.33C780.605 1146.87 780.325 1167.91 780.34 1171.21L807.718 1171.22C807.652 1180.5 807.686 1189.79 807.821 1199.07L780.72 1199.1C779.622 1197.15 780.07 1175.05 780.075 1171.38C771.289 1171.36 762.054 1171.48 753.313 1171.17C758.865 1170.3 773.15 1170.69 779.464 1170.73L779.464 1145.29Z"/><path fill="#F8F7F7" d="M835.709 893.214C843.983 892.786 854.927 893.142 863.4 893.179C863.335 902.339 863.349 911.499 863.441 920.658C871.827 920.76 880.79 920.723 889.121 921.088C886.225 921.713 868.241 921.514 863.962 921.519C863.995 930.04 864.055 938.232 863.664 946.746C863.068 942.112 863.354 926.496 863.326 921.053C854.588 920.617 844.462 920.866 835.61 920.895L835.709 893.214Z"/><path fill="#F8F7F7" d="M918.906 1044.3C920.068 1046.32 918.94 1081.84 919.072 1088.13C909.761 1088.09 900.449 1088.09 891.138 1088.15C891.532 1082.09 891.37 1075.07 891.372 1068.93L891.349 1060.2C888.201 1060.17 878.186 1060.21 875.55 1059.52C888.908 1058.96 904.656 1060.27 918.934 1060.21L918.906 1044.3Z"/><path fill="#F8F7F7" d="M1086.53 249.358L1087.58 250.994C1091.83 251.875 1109.44 251.412 1114.49 251.357C1114.42 260.675 1114.45 269.993 1114.59 279.31C1105.36 279.138 1096.13 279.149 1086.9 279.344C1086.38 276.464 1086.63 255.361 1086.64 251.216C1079.33 251.254 1067.35 251.462 1060.37 250.871C1065.7 250.342 1084.53 251.148 1086.53 249.358Z"/><path fill="#F8F7F7" d="M696.662 669.547C698.681 668.805 719.638 669.3 723.074 669.427L722.772 669.859C714.129 670.534 704.962 669.248 696.364 670.183L696.49 698.254C686.919 697.694 678.218 697.695 668.612 697.715C668.663 688.429 668.665 679.143 668.617 669.858C677.819 669.708 687.547 670.177 696.662 669.547Z"/><path fill="#F8F7F7" d="M306.719 1143.58L334.486 1143.63L334.516 1171.28C338.894 1171.2 358.486 1170.37 361.553 1171.95C343.129 1172.05 325.189 1171.29 306.725 1171.35L306.719 1143.58Z"/><path fill="#F8F7F7" d="M195.217 1143.56C204.463 1143.63 213.71 1143.6 222.956 1143.45C222.846 1152.69 222.891 1161.93 223.091 1171.17C230.431 1171.18 242.63 1170.82 249.583 1171.42L249.277 1171.82L246.912 1171.95C243.388 1171.93 225.858 1171.59 223.599 1172.39L223.465 1175.38L223.024 1175.71C222.939 1173.49 223.23 1173.38 222.152 1171.68C217.053 1170.77 201.081 1171.31 195.143 1171.37C195.237 1162.1 195.261 1152.83 195.217 1143.56Z"/><path fill="#F8F7F7" d="M111.473 725.667C120.686 725.732 129.899 725.695 139.11 725.556C140.027 731.194 139.453 746.872 139.552 753.751L111.374 753.818L111.473 725.667Z"/><path fill="#F8F7F7" d="M167.16 669.77L195.306 669.774C195.234 679.161 195.229 688.549 195.291 697.936C185.923 698.167 176.339 697.724 167.105 698.142C167.328 688.687 167.346 679.227 167.16 669.77Z"/><path fill="#F8F7F7" d="M1142.5 1032.26C1151.75 1032.32 1161 1032.32 1170.26 1032.27C1170.25 1041.55 1170.29 1050.84 1170.38 1060.12C1165.31 1060.07 1160.18 1060.13 1155.11 1060.14C1150.64 1060.12 1147.03 1060.13 1142.59 1060.46L1142.4 1067.36L1142.27 1067.08C1142.89 1068.26 1142.64 1067.66 1142.32 1069.44C1141.82 1067.22 1142.9 1063.8 1141.31 1060.73L1137.87 1060.54L1137.54 1060.11C1139.28 1060.05 1140.75 1060.23 1142.12 1059.28C1143 1053.51 1142.55 1038.66 1142.5 1032.26Z"/><path fill="#F8F7F7" d="M1030.55 83.8843L1058.63 83.9122C1058.52 92.7006 1059 103.507 1058.48 112.063C1052.45 111.18 1036.81 111.877 1030.46 112.118C1030.54 102.707 1030.57 93.2957 1030.55 83.8843Z"/><path fill="#F8F7F7" d="M195.225 920.749L222.956 920.736C222.919 925.272 222.436 945.42 223.571 948.223C225.017 948.386 225.312 948.277 226.616 948.8C224.567 949.007 225.218 948.696 223.576 949.652L223.795 951.412C223.75 953.106 223.916 953.431 223.177 954.901C222.954 954.678 222.904 949.568 222.881 948.785C213.67 948.618 204.457 948.599 195.245 948.729C195.08 939.516 195.213 929.987 195.225 920.749Z"/><path fill="#F8F7F7" d="M195.249 1087.99L222.947 1087.95C222.881 1097.13 222.899 1106.31 222.999 1115.49L236.661 1115.71L236.982 1116.23C231.673 1116.08 229.544 1116.04 224.332 1116.98L223.186 1117.19L222.572 1115.84C221.03 1115.25 198.237 1115.88 195.132 1115.91L195.249 1087.99Z"/><path fill="#F8F7F7" d="M1167.52 139.909C1167.93 139.835 1168.95 139.893 1169.41 139.903C1170.99 142.391 1170.4 163.103 1170.46 167.814L1144.86 167.737C1143.71 167.81 1143.79 167.761 1142.64 167.595C1142 161.645 1142.45 146.406 1142.47 139.918L1167.52 139.909Z"/><path fill="#F8F7F7" d="M250.919 418.813C260.189 418.857 269.459 418.821 278.728 418.705C278.679 428.014 278.729 437.324 278.88 446.633L250.785 446.662L250.919 418.813Z"/><path fill="#F8F7F7" d="M278.911 1115.57C288.057 1115.68 297.205 1115.69 306.352 1115.61C306.877 1124.24 305.782 1135.27 306.883 1143.56C302.817 1144.19 283.675 1143.83 278.911 1143.81L278.911 1115.57Z"/><path fill="#F8F7F7" d="M1030.82 865.157L1058.82 865.103C1058.54 874.413 1058.51 883.729 1058.74 893.04L1030.82 893.044L1030.82 865.157Z"/><path fill="#F8F7F7" d="M250.794 697.737L278.756 697.924L278.803 725.769L250.91 725.78C250.6 716.77 250.794 706.817 250.794 697.737Z"/><path fill="#F8F7F7" d="M139.459 1087.99L167.316 1087.94C167.252 1096.16 166.916 1106.66 167.465 1114.67C168.941 1116.05 169.066 1115.56 171.783 1115.64L172.067 1116.13C169.209 1116.1 169.664 1116.36 167.16 1117.26L166.902 1116.43C165.329 1114.93 143.317 1115.78 139.392 1115.8L139.459 1087.99Z"/><path fill="#F8F7F7" d="M250.866 865.166L278.753 865.155C278.646 874.45 278.677 883.746 278.847 893.04L250.927 893.04C250.515 884.473 250.828 873.881 250.866 865.166Z"/><path fill="#F8F7F7" d="M1142.46 251.357L1170.28 251.357C1170.18 260.694 1170.24 270.032 1170.46 279.367C1161.13 279.191 1151.79 279.182 1142.45 279.34L1142.46 251.357Z"/><path fill="#F8F7F7" d="M473.732 139.918L501.501 139.918L501.528 167.724L473.642 167.804C473.734 158.509 473.764 149.213 473.732 139.918Z"/><path fill="#F8F7F7" d="M835.595 1171.26C844.663 1171.03 854.311 1171.17 863.423 1171.16C863.28 1180.48 863.284 1189.81 863.434 1199.13C854.257 1198.98 844.799 1199.09 835.598 1199.07C835.683 1189.8 835.682 1180.53 835.595 1171.26Z"/><path fill="#F8F7F7" d="M195.291 697.936C204.512 697.799 213.735 697.756 222.957 697.806C222.923 706.998 222.759 716.561 223.033 725.718C213.95 725.734 204.231 725.571 195.203 725.794C195.19 716.691 195.015 706.988 195.291 697.936Z"/><path fill="#F8F7F7" d="M195.234 1032.24C204.477 1032.36 213.722 1032.36 222.966 1032.25C222.83 1041.57 222.876 1050.88 223.102 1060.2C213.789 1060.09 204.474 1060.09 195.161 1060.2L195.234 1032.24Z"/><path fill="#F8F7F7" d="M1030.82 1087.94L1058.69 1087.94C1058.54 1097.04 1058.35 1106.74 1058.73 1115.78L1030.82 1115.78L1030.82 1087.94Z"/><path fill="#F8F7F7" d="M501.528 167.724L529.149 167.727C529.329 176.356 528.885 187.625 529.377 195.691C521.575 195.121 509.538 195.565 501.41 195.634C501.421 187.404 501.064 175.662 501.528 167.724Z"/><path fill="#F8F7F7" d="M1058.61 893.196L1086.53 893.212C1086.48 898.992 1086.05 916.044 1087.12 920.94C1077.61 920.837 1068.1 920.83 1058.6 920.918L1058.61 893.196Z"/><path fill="#F8F7F7" d="M28.0061 307.251C37.2252 307.108 46.6624 307.182 55.9047 307.125C55.8189 316.448 55.5589 325.878 56.0663 335.181C46.7145 335.119 37.3624 335.114 28.0106 335.166L28.0061 307.251Z"/><path fill="#F8F7F7" d="M362.272 1143.43C371.737 1143.74 380.655 1143.61 390.134 1143.47C390.137 1152.11 390.453 1162.81 390.116 1171.28L362.258 1171.37C362.341 1162.05 362.346 1152.74 362.272 1143.43Z"/><path fill="#F8F7F7" d="M195.228 362.998L222.96 363.006C222.893 372.327 222.915 381.648 223.026 390.969C213.736 390.841 204.444 390.849 195.155 390.993L195.228 362.998Z"/><path fill="#F8F7F7" d="M418.063 1032.26C427.345 1032.38 436.629 1032.37 445.91 1032.22C445.832 1041.52 445.865 1050.82 446.011 1060.13C436.733 1060.06 427.341 1060.17 418.054 1060.2L418.063 1032.26Z"/><path fill="#F8F7F7" d="M473.718 1087.95L501.496 1087.93C501.368 1097.22 501.398 1106.5 501.588 1115.79L473.621 1115.8C473.889 1106.81 473.708 1096.99 473.718 1087.95Z"/><path fill="#F8F7F7" d="M891.309 1171.23C900.538 1171.17 909.768 1171.18 918.998 1171.25C918.857 1180.52 918.881 1189.79 919.068 1199.06C909.83 1199 900.591 1199.05 891.354 1199.19L891.309 1171.23Z"/><path fill="#FEFEFE" d="M974.789 335.543L1002.34 335.543L1002.34 363.097L974.789 363.097L974.789 335.543Z"/><path fill="#FEFEFE" d="M473.924 446.982L501.478 446.982L501.478 474.536L473.924 474.536L473.924 446.982Z"/><path fill="#FEFEFE" d="M390.341 474.53C396.246 475.307 413.119 474.253 416.369 475.37C419.261 479.306 417.279 495.908 417.41 501.715C408.862 502.208 399.405 501.865 390.729 501.788C389.918 494.889 390.302 481.915 390.341 474.53Z"/><path fill="#FEFEFE" d="M1058.97 474.836L1086.54 474.836C1086.75 483.028 1085.9 492.957 1085.93 501.79L1058.97 501.79L1058.97 474.836Z"/><path fill="#FEFEFE" d="M780.376 474.836L807.33 474.836L807.33 501.79L780.99 501.79C781.119 494.06 780.379 483.366 780.376 474.836Z"/><path fill="#FEFEFE" d="M1031.42 279.511L1058.37 279.511C1058.41 288.87 1057.82 297.355 1057.76 306.465L1031.42 306.465L1031.42 279.511Z"/><path fill="#FEFEFE" d="M947.535 474.836L974.489 474.836C974.54 483.821 974.519 492.806 974.427 501.79L947.535 501.79C947.624 492.665 947.37 484.161 947.535 474.836Z"/></svg>