<?xml version="1.0" encoding="utf-8" ?><svg xmlns="http://www.w3.org/2000/svg" xmlns:xlink="http://www.w3.org/1999/xlink" width="1254" height="1254" viewBox="0 0 1254 1254"><path fill="#FCFCFC" d="M0 0L1254 0L1254 1254L0 1254L0 0Z"/><path fill="#003F53" d="M624.124 360.12C637.724 359.428 641.245 371.311 648.13 381.568C653.404 389.269 658.774 396.903 664.241 404.468C704.442 460.409 757.597 521.258 762.409 592.965C766.324 651.3 730.687 703.241 676.072 722.673C659.674 728.507 646.4 730.107 629.146 730.871C605.717 730.913 584.928 727.09 563.704 716.731C532.782 701.971 509.05 675.454 497.797 643.091C467.249 553.066 542.827 470.336 590.657 402.924C599.681 390.205 608.313 377.013 617.247 364.241C618.806 362.011 621.618 360.98 624.124 360.12Z"/><path fill="#FCFCFC" d="M626.688 386.954C627.966 388.2 633.795 397.193 635.134 399.19C640.654 407.568 646.351 415.827 652.221 423.962C688.553 473.803 739.416 533.573 741.405 597.911C743.449 664.035 691.497 708.038 627.478 709.963C602.88 709.715 581.861 704.275 560.956 690.828C537.273 675.837 520.588 651.977 514.634 624.587C500.932 559.908 545.425 500.252 581.364 451.181C597.344 429.362 611.801 409.642 626.688 386.954Z"/><path fill="#003F53" d="M421.035 651.61C425.757 651.895 430.187 653.223 432.165 658.083C437.211 670.559 420.547 673.913 412.165 677.621C376.518 693.389 326.812 730.232 348.655 775.05C364.455 807.47 411.576 832.834 446.184 844.164C570.155 884.029 718.464 884.401 838.514 831.121C932.908 789.227 934.025 716.919 839.053 676.63C833.512 674.279 824.277 672.166 821.694 666.358C820.537 663.741 820.473 660.77 821.516 658.105C822.532 655.534 824.623 653.536 827.239 652.639C835.112 649.849 852.102 659.551 859.67 663.166C860.462 663.534 861.246 663.916 862.024 664.312C908.027 687.636 949.84 733.465 922.649 786.284C901.414 827.534 842.74 856.813 799.191 869.282C672.292 905.615 516.116 904.472 396.122 845.247C366.406 829.502 336.231 806.304 325.66 773.349C307.039 715.302 371.392 666.697 421.035 651.61Z"/><path fill="#003F53" d="M474.869 691.973C481.067 692.288 485.455 694.834 486.299 701.409C487.339 709.508 478.469 712.748 472.805 715.983C466.058 719.615 459.965 724.334 455.277 730.311C443.744 745.017 456.12 761.308 469.291 769.504C512.373 796.314 579.704 804.25 628.376 803.96C654.469 803.676 680.498 801.306 706.213 796.872C735.713 791.629 779.587 780.363 798.836 756.027C809.132 743.011 798.208 726.123 786.244 719.268C781.592 716.603 766.831 709.669 767.346 703.532C769.318 680.043 795.31 699.631 804.089 706.709C821.613 721.111 829.959 743.322 818.3 763.779C804.692 787.654 768.291 803.663 742.178 810.339C655.381 832.53 549.021 832.552 467.18 792.727C451.225 784.044 436.819 771.486 431.387 753.96C423.168 727.447 450.401 698.525 474.869 691.973Z"/><path fill="#003F53" d="M622.859 288.715C632.787 286.621 642.554 292.9 644.77 302.801C646.987 312.702 640.829 322.545 630.956 324.884C624.46 326.423 617.639 324.349 613.098 319.455C608.558 314.561 607 307.603 609.021 301.24C611.041 294.878 616.327 290.093 622.859 288.715Z"/></svg>