<?xml version="1.0" encoding="utf-8" ?><svg xmlns="http://www.w3.org/2000/svg" xmlns:xlink="http://www.w3.org/1999/xlink" width="1254" height="1254" viewBox="0 0 1254 1254"><path fill="#FBFBFB" d="M0 0L1254 0L1254 1254L0 1254L0 0Z"/><path fill="#003860" d="M594.287 416.092C600.324 403.942 606.793 394.921 617.47 386.082C648.917 360.047 702.383 362.523 728.655 394.843C742.39 411.74 742.905 434.592 740.43 455.444C782.475 459.071 812.958 484.362 821.612 526.154C823.689 527.079 825.742 528.057 827.769 529.087C848.882 539.925 864.714 558.84 871.664 581.53C879.526 607.076 874.824 635.823 862.525 659.198C864.84 662.66 867.032 666.202 869.096 669.819C895.407 716.869 880.871 782.065 832.223 808.702C832.63 818.765 832.522 826.341 829.924 836.106C824.5 856.14 811.322 873.191 793.302 883.49C770.873 896.409 747.941 897.249 723.463 890.657C718.396 917.279 700.725 931.34 674.13 934.411C635.158 935.394 610.853 918.297 594.229 883.263C584.022 905.7 566.073 925.402 541.716 931.728C506.583 940.854 468.785 929.788 458.334 892.399C450.464 894.084 442.425 894.844 434.379 894.662C412.421 894.03 391.623 884.662 376.597 868.638C360.042 850.916 355.564 832.425 356.315 809.002C327.913 794.891 309.82 769.66 303.457 738.766C296.827 707.081 303.261 674.061 321.303 647.183C318.634 640.709 316.378 634.687 314.957 627.806C306.547 587.082 325.774 542.207 361.781 521.323C356.116 489.415 362.704 460.818 385.198 436.607C402.366 417.968 426.322 407.035 451.651 406.277C453.432 403.267 455.441 400.397 457.659 397.692C471.298 380.728 491.48 371.161 512.884 368.839C522.322 367.413 537.741 369.194 546.803 372.291C570.303 380.321 583.421 394.661 594.287 416.092Z"/><path fill="#FBFBFB" d="M519.891 387.24C554.252 387.702 581.776 412.875 584.611 447.782C586.267 468.173 585.12 491.675 585.075 512.385L585.047 624.796L585.056 765.562C585.047 789.09 585.99 819.322 584.579 842.236C583.945 852.454 581.861 862.529 578.388 872.159C572.28 888.772 560.04 903.389 543.815 910.845C529.802 917.161 513.863 917.695 499.458 912.331C474.63 902.812 468.14 878.861 486.173 858.419C488.679 855.482 499.57 850.037 500.17 846.187C502.335 832.277 491.086 831.332 482.447 837.336C468.646 846.93 462.475 857.394 458.732 872.883C458.182 873.049 457.631 873.216 457.08 873.382C439.657 878.324 420.987 876.19 405.129 867.443C391.013 859.659 380.622 846.525 376.295 830.997C373.074 819.09 374.134 809.696 377.933 798.009C378.909 791.173 395.29 776.198 391.903 770.583C379.868 750.634 364.737 781.889 361.154 790.197C350.449 784.466 344.318 778.523 336.652 769.166C332.293 763.021 328.678 756.381 325.883 749.385C309.842 708.962 323.23 652.183 366.575 634.865C373.54 643.702 383.195 650.661 394.723 651.276C399.546 651.534 405.019 645.178 403.71 641.222C400.288 630.877 386.05 631.874 379.397 621.825C372.654 611.639 377.915 602.689 371.161 594.147C369.62 592.485 365.788 591.824 363.439 592.208C361.158 592.589 359.145 593.915 357.896 595.861C354.438 601.345 356.862 612.285 358.023 618.345C348.856 622.127 342.797 625.781 335.231 632.285C324.45 595.308 337.97 561.983 368.074 539.133C369.491 542.012 371.939 547.517 374.178 549.531C376.146 551.327 378.776 552.218 381.431 551.988C385.989 551.604 391.046 547.131 389.791 542.411C387.182 532.597 380.928 525.158 379.215 514.657C375.804 494.542 380.558 473.897 392.424 457.3C404.093 440.703 421.956 429.506 441.98 426.238C434.774 452.929 437.825 482.119 459.066 501.847C472.952 514.443 488.57 518.366 507.14 518.441C519.798 518.492 523.917 507.263 513.234 500.105C512.716 499.758 506.772 499.57 505.502 499.605C479.86 500.314 458.904 484.645 456.898 456.275C455.798 438.882 461.56 421.752 472.948 408.56C485.515 394.215 501.369 388.49 519.891 387.24Z"/><path fill="#003860" d="M470.337 605.624L470.964 605.578C481.736 604.888 482.007 613.901 488.347 620.708C491.722 624.332 493.432 625.466 497.551 627.962C512.194 636.907 529.23 628.816 529.449 651.646C529.814 689.573 499.533 716.049 465.645 726.746C452.733 730.821 442.661 731.599 429.073 731.648C422.97 731.431 418.756 729.321 418.651 722.343C418.723 709.873 435.539 713.413 443.607 712.259C475.838 707.647 510.443 687.882 511.072 651.908C509.633 651.705 508.199 651.467 506.771 651.194C491.346 648.18 476.299 637.548 467.59 624.55C462.36 616.746 461.763 610.775 470.337 605.624Z"/><path fill="#FBFBFB" d="M660.516 387.79C675.732 386.324 689.049 388.615 702.351 396.46C724.947 409.786 724.862 433.919 721.13 457.144C709.671 458.578 694.699 465.592 685.768 472.864C669.58 486.043 661.535 501.126 659.169 521.58C661.319 526.852 664.984 530.442 671.396 529.177C673.279 528.806 677.318 525.292 677.503 523.591C679.944 501.085 695.383 484.604 716.754 477.56C733.74 472.015 752.244 473.552 768.082 481.823C791.299 493.824 800.857 512.799 804.716 536.698C805.46 541.305 816.606 544.702 820.625 546.808C856.49 565.604 865.68 609.931 848.802 644.984C841.821 639.741 837.504 637.243 829.678 633.332C830.957 626.431 832.674 613.012 821.554 613.54C812.182 613.945 812.179 624.469 811.049 631.238C809.273 641.878 804.903 648.414 796.827 655.303C791.147 660.147 777.759 663.517 779.366 672.333C779.827 674.983 781.386 677.315 783.658 678.756C786.154 680.334 789.156 680.578 791.902 679.702C806.459 675.058 816.573 663.738 823.665 651.052C833.671 655.895 842.288 663.193 848.713 672.266C869.892 701.998 867.678 748.939 843.472 776.376C838.555 781.949 833.621 785.827 827.577 790.056C824.361 783.229 821.662 778.462 817.309 772.338C812.336 765.957 802.333 759.54 797.531 769.109C793.81 776.525 805.58 786.722 809.011 794.369C827.919 836.516 790.81 878.534 747.239 875.777C737.328 875.15 732.254 873.784 722.595 870.212C718.353 854.734 711.758 841.389 699.906 830.209C694.373 824.99 685.019 816.906 676.918 817.247C671.771 817.464 666.995 820.401 668.034 826.257C669.499 834.512 675.781 834.82 681.656 839.052C694.284 848.432 702.081 861.794 704.902 877.142C708.941 897.503 694.956 912.79 675.567 915.41C636.628 920.674 609.553 887.144 605.079 851.444C603.52 839.005 603.694 828.572 603.678 816.314L603.674 773.794L603.696 630.401L603.655 507.647L603.655 470.179C603.674 448.331 603.637 430.836 617.884 412.41C629.034 397.991 642.503 390.327 660.516 387.79Z"/><path fill="#003860" d="M712.404 630.899C719.386 630.539 723.947 637.168 721.713 643.527C719.172 650.301 712.134 649.288 706.6 650.855C684.008 657.251 669.979 679.59 682.056 701.927C689.639 715.951 704.118 723.954 719.092 728.196C726.88 730.402 742.244 728.572 738.945 742.444C738.106 745.641 735.408 747.362 732.479 748.696C714.475 748.052 697.695 742.418 683.431 731.24C640.418 697.534 657.446 637.311 712.404 630.899Z"/><path fill="#003860" d="M872.739 322.764C884.978 324.033 883.032 333.209 885.709 343.527C888.012 352.202 891.416 360.547 895.838 368.359C910.174 393.182 934.404 405.313 961.194 409.893C966.287 410.764 969.46 416.974 967.557 422.084C966.705 424.407 965.002 426.319 962.793 427.433C960.726 428.462 954.53 428.897 951.514 429.608C944.223 431.344 937.141 433.867 930.395 437.133C899.825 452.154 887.356 479.302 882.319 510.427C881.896 513.037 877.716 514.817 875.521 515.772C862.684 515.419 864.349 506.084 861.968 495.464C854.243 461.009 828.391 435.437 793.467 429.282C784.337 427.673 776.261 426.629 780.414 414.215C782.298 409.057 795.183 408.331 800.77 406.731C830.469 398.225 851.91 377.135 860.534 347.42C862.864 340.092 863.168 333.679 865.717 327.101C866.573 324.892 870.474 323.433 872.739 322.764Z"/><path fill="#FBFBFB" d="M873.501 365.421C876.186 369.153 878.384 375.744 881.179 380.075C893.973 399.897 906.028 408.334 926.306 418.809C899.376 430.381 885.845 446.245 873.841 472.088C872.726 470.827 867.554 459.386 865.899 456.755C854.026 437.888 840.693 427.952 821.097 418.772C848.56 405.868 860.966 392.411 873.501 365.421Z"/><path fill="#003860" d="M987.039 284.822C1006.63 283.318 997.395 301.692 988.548 308.916C982.37 313.961 977.656 322.774 969.918 326.723C949.061 327.876 962.445 306.806 970.651 300.346C976.416 295.807 979.38 288.704 987.039 284.822Z"/><path fill="#003860" d="M1011.46 409.743C1018.83 409.442 1026.13 409.659 1033.69 409.463C1041.03 409.273 1054.57 408.725 1053.8 419.748C1053.48 424.24 1050.58 426.276 1046.78 428.085C1039.56 428.497 1032.26 428.413 1024.96 428.52C1018.82 428.611 1006.98 429.481 1004.88 421.684C1003.27 415.684 1006.29 412.227 1011.46 409.743Z"/><path fill="#003860" d="M854.672 231.529C856.128 231.34 857.595 231.257 859.063 231.279C865.995 231.418 867.639 236.825 867.61 242.834C867.564 252.483 868.201 262.429 867.089 272.003C866.784 274.631 863.467 276.614 861.482 277.876C848.397 279.455 848.245 270.104 848.798 259.78C849.399 248.552 845.329 239.091 854.672 231.529Z"/></svg>