<?xml version="1.0" encoding="utf-8" ?><svg xmlns="http://www.w3.org/2000/svg" xmlns:xlink="http://www.w3.org/1999/xlink" width="1254" height="1254" viewBox="0 0 1254 1254"><path fill="#F5F5F5" d="M0 0L28.086 0L56.0324 0L83.853 0L111.79 0L139.649 0L167.33 0L195.323 0L222.921 0L250.858 0L278.785 0L306.81 0L334.716 0L362.543 0L390.535 0L418.164 0L446.132 0L473.865 0L501.794 0L529.621 0L557.667 0L585.28 0L613.229 0L640.694 0L668.644 0L696.486 0L724.372 0L752.336 0L780.129 0L807.692 0L835.696 0L946.923 0L974.489 0L1002.96 0L1030.59 0L1058.56 0L1086.64 0L1114.26 0L1142.25 0L1170.3 0L1198.25 0L1226.05 0L1254 0L1254 28.0673L1254 55.8635L1254 83.8178L1254 111.349L1254 139.431L1254 167.272L1254 195.333L1254 222.936L1254 251.021L1254 279.074L1254 306.746L1254 334.628L1254 362.43L1254 390.435L1254 418.264L1254 446.247L1254 474.019L1254 501.851L1254 529.657L1254 557.727L1254 585.462L1254 613.456L1254 641.37L1254 669.236L1254 697.267L1254 725.029L1254 808.741L1254 836.398L1254 864.149L1254 892.128L1254 920.019L1254 947.758L1254 975.714L1254 1003.5L1254 1031.41L1254 1059.21L1254 1086.91L1254 1114.78L1254 1142.55L1254 1170.16L1254 1197.99L1254 1225.93L1254 1254L1225.84 1254L1198.25 1254L1170.2 1254L1142.17 1254L1114.33 1254L1086.52 1254L1058.56 1254L1030.51 1254L1002.49 1254L974.83 1254L946.736 1254L919.076 1254L891.272 1254L863.393 1254L835.704 1254L807.762 1254L780.092 1254L752.227 1254L724.396 1254L696.48 1254L668.604 1254L640.785 1254L613.229 1254L585.33 1254L557.32 1254L529.588 1254L501.516 1254L473.904 1254L445.877 1254L418.164 1254L390.222 1254L362.419 1254L334.618 1254L306.799 1254L278.754 1254L250.936 1254L223.075 1254L195.34 1254L167.361 1254L139.603 1254L111.551 1254L83.643 1254L55.8937 1254L28.1266 1254L0 1254L0 1225.81L0 1198.29L0 1170.16L0 1142.56L0 1114.69L0 1086.91L0 1059.29L0 1031.18L0 1003.44L0 975.51L0 947.792L0 920.218L0 892.199L0 864.241L0 836.406L0 808.732L0 780.77L0 752.835L0 724.942L0 697.234L0 669.177L0 641.395L0 613.458L0 585.542L0 557.764L0 529.75L0 501.873L0 474.051L0 446.251L0 418.205L0 390.56L0 362.447L0 334.77L0 306.768L0 278.866L0 251.012L0 223.179L0 195.293L0 167.271L0 139.241L0 111.426L0 83.7701L0 55.8816L0 28.07L0 0Z"/><path fill="#FBFBFB" d="M0 0L28.086 0L56.0324 0L83.853 0L111.79 0L139.649 0L167.33 0L195.323 0L222.921 0L250.858 0L278.785 0L306.81 0L334.716 0L362.543 0L390.535 0L418.164 0L446.132 0L473.865 0L501.794 0L529.621 0L557.667 0L585.28 0L613.229 0L640.694 0L668.644 0L696.486 0L724.372 0L752.336 0L780.129 0L807.692 0L835.696 0L946.923 0L974.489 0L1002.96 0L1030.59 0L1058.56 0L1086.64 0L1114.26 0L1142.25 0L1170.3 0L1198.25 0L1226.05 0L1254 0L1254 28.0673L1254 55.8635L1254 83.8178L1254 111.349L1254 139.431L1254 167.272L1254 195.333L1254 222.936L1254 251.021L1254 279.074L1254 306.746L1254 334.628C1244.72 334.716 1235.43 334.711 1226.15 334.612C1226.16 343.901 1226.1 353.189 1225.95 362.477C1216.71 362.566 1207.48 362.583 1198.24 362.526L1198.25 390.542C1189.83 390.158 1178.85 390.476 1170.23 390.467L1170.22 362.551C1161.17 362.322 1151.36 362.487 1142.24 362.459L1142.24 334.581C1132.97 334.89 1123.54 335.024 1114.29 334.28L1114.34 306.735L1086.67 306.756L1086.61 334.855C1095.28 334.238 1105.51 334.444 1114.24 334.456C1114.38 343.709 1114.27 353.184 1114.26 362.456C1105.1 362.58 1095.95 362.608 1086.79 362.541C1086.17 353.904 1086.47 343.425 1086.51 334.626C1077.46 334.799 1067.66 334.948 1058.65 334.503C1058.21 325.312 1058.32 315.98 1058.44 306.784C1049.59 306.522 1039.46 306.762 1030.51 306.756L1030.5 334.614C1039.85 334.533 1049.2 334.506 1058.55 334.532C1058.53 341.271 1058.1 356.234 1058.7 362.391C1068.02 362.776 1077.41 362.54 1086.75 362.61C1086.71 371.175 1086.96 381.919 1086.48 390.307C1081.17 390.369 1062.9 390.13 1058.75 390.71C1058.32 399.557 1058.48 409.305 1058.46 418.227C1067.59 418.278 1077.65 418.528 1086.71 418.224C1086.75 427.545 1086.71 436.867 1086.57 446.187C1077.54 446.203 1067.57 446 1058.63 446.256L1058.43 473.997L1030.56 473.989L1030.48 446.304L1002.69 446.264C1002.78 455.769 1002.8 464.411 1002.39 473.894C994.849 473.932 981.971 473.544 974.899 474.07C974.723 483.229 974.66 492.389 974.712 501.549C968.362 501.822 962.006 501.908 955.651 501.807L946.935 501.787L946.935 529.683L974.829 529.64L974.812 557.497C977.781 557.51 984.916 557.368 987.516 557.73L974.789 557.81L974.789 585.363C981.352 585.378 990.314 585.172 996.715 585.573C989.499 585.649 982.04 585.828 974.844 585.698C974.895 594.929 975.056 604.414 974.789 613.617C965.505 613.506 956.219 613.472 946.934 613.513C946.95 622.588 946.813 632.099 946.99 641.135C944.973 641.217 942.028 641.087 940.349 641.982C943.299 642.992 944.533 641.624 946.037 642.943C945.961 646.961 945.113 660.458 947.239 663.172L947.709 663.428C945.441 663.995 938.659 664.461 936.066 664.758C904.993 668.319 875.005 677.904 844.188 683.218C783.14 693.745 724.928 683.431 668.213 660.241L639.968 648.954C565.614 623.716 516.904 626.499 442.594 648.622L445.485 646.14C446.078 644.141 446.176 645.059 445.329 643.282C439.818 640.448 426.436 643.375 422.027 642.007C423.758 641.646 438.572 641.606 441.685 641.457L418.516 641.383C418.531 643.675 418.254 651.439 418.393 653.156L418.423 651.571C418.095 650.961 418.206 642.477 418.204 641.083L402.236 641.038C391.377 652.007 377.479 632.11 372.272 623.591C361.835 606.517 361.336 588.339 366.357 569.352L365.794 568.107C366.524 564.844 369.947 560.442 369.362 558.476C367.193 558.309 366.186 558.167 363.984 558.43C362.145 561.125 364.051 561.789 362.782 564.133C362.206 560.339 362.435 548.427 362.43 544.092L362.581 501.783C353.311 501.849 344.042 501.85 334.772 501.789C334.104 493.73 334.473 482.349 334.546 473.984L306.809 473.904C306.568 464.92 306.755 455.378 306.792 446.349L334.937 446.352C333.956 439.293 334.454 425.441 334.82 418.164C325.49 418.404 316.156 418.418 306.826 418.208C306.588 409.222 306.751 399.689 306.766 390.661C316.093 390.551 325.421 390.522 334.749 390.573L334.791 418.344L362.532 418.297C362.325 400.703 362.822 381.194 363.087 363.392L364.963 362.793L364.124 362.074L364.948 362.792L363.479 362.347C361.727 364.898 362.429 385.592 362.433 390.362C353.332 390.586 343.844 390.469 334.712 390.479C334.233 381.36 334.444 371.618 334.494 362.433L306.763 362.492L306.784 334.596C297.571 334.747 288.357 334.756 279.144 334.622C278.762 325.353 278.635 316.076 278.764 306.8L251.014 306.768C250.751 315.604 250.962 325.512 250.953 334.434C241.825 334.756 232.201 335.134 223.128 334.257C222.721 325.979 223.009 315.218 222.988 306.749L195.216 306.672L195.233 334.409C185.844 334.722 176.89 334.913 167.511 334.327C167.058 325.964 167.371 315.27 167.398 306.735L139.646 306.796C139.551 315.993 139.518 325.192 139.548 334.39C130.132 334.723 120.944 334.959 111.521 334.403C111.563 343.316 111.876 353.77 111.564 362.558C120.9 362.616 130.236 362.608 139.572 362.534C139.566 371.66 139.723 381.344 139.491 390.425L111.567 390.487L111.586 418.215C120.921 418.381 130.257 418.403 139.593 418.283L139.527 446.174C130.32 446.206 120.779 446.105 111.602 446.288L111.462 473.986C103.209 473.603 92.2679 473.943 83.8076 473.952C83.5902 482.887 83.7691 492.6 83.7544 501.599C74.5474 501.887 65.3347 501.944 56.1248 501.771C55.6511 492.797 55.7774 482.987 55.9555 474.013C46.6906 473.956 37.4254 473.961 28.1606 474.03L28.1114 501.818C37.2566 501.852 46.7305 501.764 55.8464 502.001C55.9316 511.171 55.9389 520.342 55.8682 529.512C47.2187 529.559 36.6279 529.314 28.1496 529.692L28.1127 557.726C19.1588 557.49 9.04728 557.745 0 557.764L0 529.75L0 501.873L0 474.051L0 446.251L0 418.205L0 390.56L0 362.447L0 334.77L0 306.768L0 278.866L0 251.012L0 223.179L0 195.293L0 167.271L0 139.241L0 111.426L0 83.7701L0 55.8816L0 28.07L0 0Z"/><path fill="#014E64" d="M501.292 300.921C508.183 297.255 514.789 293.793 521.931 290.627C590.132 260.09 667.736 258.205 737.34 285.394C741.74 287.391 746.199 289.274 750.581 291.294C839.388 332.192 901.091 428.548 890.116 527.341C887.727 548.837 897.283 562.716 906.854 580.862L929.561 623.987C933.108 630.692 939.149 639.142 940.284 646.534C940.637 648.827 940.417 651.283 938.838 653.105C937.545 654.597 935.158 655.587 933.226 655.79C931.643 655.956 929.998 655.728 928.754 654.675C924.227 650.845 885.37 576.038 880.492 565.1C877.763 558.981 875.436 553.07 874.458 546.419C872.694 534.414 874.561 522.655 875.036 510.659C875.42 500.945 874.743 491.155 873.489 481.522C865.434 422.522 834.31 369.125 786.941 333.041C739.193 296.462 671.671 276.563 611.879 284.443C602.723 285.128 594.431 286.413 585.419 288.141C538.526 298.095 499.901 315.71 464.132 348.475C456.78 355.209 448.061 364.103 442.12 372.138C437.143 377.146 432.566 384.11 428.561 389.958C402.707 427.709 385.9 481.14 385.9 527.033C385.935 531.353 386.099 535.67 386.391 539.979C393.892 533.882 401.064 530.441 410.482 527.961C409.604 520.045 409.072 513.347 409.865 505.394C413.486 469.059 442.874 439.329 479.063 434.984C483.374 434.467 487.869 434.489 492.239 434.495C493.243 429.164 494.283 423.825 496.374 418.786C504.605 399.794 513.044 389.143 530.183 377.318C551.609 364.46 576.165 359.351 600.658 365.615C623.236 371.316 642.596 385.809 654.428 405.866C659.687 414.691 663.208 424.441 664.801 434.59C688.106 438.785 705.424 447.716 719.266 467.877C726.14 478.036 730.592 489.636 732.279 501.786C738.124 542.881 708.638 582.603 667.045 587.189C661.439 587.963 648.871 589.021 648.912 580.563C648.971 568.195 663.207 572.385 671.296 570.177C731.234 553.814 731.587 473.515 674.186 453.311C667.058 450.802 658.413 452.563 652.229 448.325C648.803 445.199 648.368 432.289 646.362 426.819C636.114 398.876 611.787 380.949 582.533 379.489C563.102 378.6 544.092 385.337 529.557 398.263C522.335 404.749 516.618 412.735 512.805 421.661C511.741 424.124 509.078 431.57 508.924 433.811C507.239 458.37 494.893 448.557 479.85 451.209C438.274 458.539 418.377 495.184 427.878 534.844C429.808 542.9 413.717 544.06 409.383 545.603C391.814 550.946 380.844 568.67 379.215 585.794C377.951 598.377 381.775 610.943 389.834 620.689C395.749 627.729 405.343 631.372 402.236 641.038C391.377 652.007 377.479 632.11 372.272 623.591C361.835 606.517 361.336 588.339 366.357 569.352C367.648 565.966 369.293 562.494 370.784 559.173C370.123 551.679 369.736 544.163 369.626 536.64C368.564 461.563 394.327 395.843 446.595 342.069L453.797 335.208C470.718 320.175 481.93 312.512 501.292 300.921Z"/><path fill="#014E64" d="M761.849 584.768C774.605 586.301 778.04 604.899 804.3 598.84C813.913 596.622 820.985 585.508 827.645 585.197C830.049 585.085 832.691 585.998 834.282 587.859C835.499 589.282 835.886 590.932 835.848 592.765C835.761 596.862 832.857 599.186 830.144 601.828C826.391 605.658 821.995 608.8 817.156 611.111C805.02 616.959 791.048 617.702 778.36 613.174C770.633 610.351 759.728 603.819 756.114 596.113C753.424 590.379 756.37 586.556 761.849 584.768Z"/><path fill="#FBFBFB" d="M919.102 1086.82L918.975 1115.02C928.24 1114.8 937.508 1114.75 946.775 1114.86C946.682 1124.09 946.713 1133.31 946.868 1142.53C937.877 1142.57 927.914 1142.82 919.001 1142.55C919.02 1151.47 918.821 1161.36 919.091 1170.2C928.349 1170.27 937.608 1170.31 946.866 1170.29C946.804 1161.21 946.633 1151.86 946.847 1142.8C956.157 1142.61 965.469 1142.56 974.78 1142.65L974.799 1170.22C982.967 1170.61 994.201 1170.26 1002.61 1170.27C1002.44 1161.08 1002.42 1151.88 1002.56 1142.69L1030.5 1142.58L1030.51 1114.83C1039.85 1114.81 1049.18 1114.83 1058.51 1114.91L1058.44 1142.79C1067.26 1142.71 1078.08 1142.96 1086.76 1142.6C1086.01 1135.81 1086.47 1122.09 1086.55 1114.73C1077.23 1114.87 1067.9 1114.85 1058.58 1114.66C1058.11 1106 1058.45 1095.74 1058.55 1086.96L1086.79 1086.84C1086.67 1096.14 1086.63 1105.43 1086.66 1114.73C1095.78 1115 1104.96 1114.67 1114.1 1114.78C1114.54 1123.39 1114.38 1134.08 1114.22 1142.8C1123.56 1142.68 1132.9 1142.64 1142.25 1142.68C1142.27 1150.22 1142.71 1163.01 1142.19 1170.13C1132.91 1170.22 1123.63 1170.24 1114.36 1170.21C1114.27 1179.3 1114.46 1189.07 1114.2 1198.04C1105.03 1198.19 1095.86 1198.26 1086.69 1198.24C1086.69 1207.05 1086.91 1217.11 1086.45 1225.81L1058.61 1225.96L1058.56 1254L1030.51 1254L1002.49 1254L974.83 1254L946.736 1254L919.076 1254L891.272 1254L863.393 1254L835.704 1254L807.762 1254L780.092 1254L752.227 1254L724.396 1254L696.48 1254L668.604 1254L640.785 1254L613.229 1254L585.33 1254L557.32 1254L529.588 1254L501.516 1254L473.904 1254L445.877 1254L418.164 1254L390.222 1254L362.419 1254L362.531 1226.31C371.931 1225.93 380.849 1225.96 390.263 1226.01C390.036 1216.94 390.238 1207.38 390.155 1198.22C399.478 1198.29 408.802 1198.3 418.126 1198.24C418.041 1188.89 418.056 1179.53 418.172 1170.17C426.069 1170.62 437.808 1170.25 446.005 1170.26C445.876 1161.1 445.869 1151.95 445.984 1142.79C455.207 1142.6 464.665 1142.66 473.923 1142.56C473.755 1151.74 473.752 1160.93 473.913 1170.11C464.544 1170.21 455.175 1170.21 445.806 1170.11C445.847 1179.35 446.044 1189.08 445.874 1198.28C454.795 1198.18 465.274 1198.52 473.905 1198.24C473.846 1188.94 473.88 1179.64 474.007 1170.33L501.739 1170.26C501.428 1161.22 501.585 1151.8 501.62 1142.72L529.665 1142.6C529.619 1151.49 529.344 1161.43 529.577 1170.24C538.218 1170.56 548.661 1170.28 557.445 1170.27L557.361 1142.81C566.358 1142.45 576.155 1142.63 585.273 1142.5C585.272 1151.48 585.062 1161.33 585.291 1170.24L613.236 1170.26C613.221 1179.51 613.32 1189.04 613.027 1198.27C622.274 1198.04 631.526 1198.07 640.771 1198.36L640.771 1226.02C648.933 1226.03 660.786 1226.39 668.673 1225.92C668.725 1216.68 668.709 1207.45 668.625 1198.22L696.671 1198.22C696.442 1188.9 696.438 1179.58 696.66 1170.26C703.848 1170.27 717.659 1170.73 724.311 1170.19C724.597 1161.48 724.333 1151.43 724.311 1142.62C733.624 1142.67 742.939 1142.68 752.252 1142.64C752.604 1133.63 752.4 1124.07 752.344 1115C760.086 1114.85 772.961 1115.21 779.989 1114.65C780.177 1124 780.215 1133.35 780.1 1142.69L807.722 1142.59C807.655 1133.44 807.845 1123.96 807.677 1114.89C817.009 1114.83 826.341 1114.82 835.674 1114.86C835.698 1123.6 835.995 1133.98 835.658 1142.59C844.854 1142.62 854.173 1142.73 863.358 1142.65L863.382 1170.18C872.173 1170.47 882.322 1170.23 891.223 1170.25L891.202 1142.57C881.951 1142.65 872.7 1142.63 863.45 1142.52C863.394 1133.61 863.2 1123.52 863.644 1114.7L891.333 1114.69C891.25 1120.04 891.152 1128.13 891.797 1133.29C892.231 1127.62 892.113 1121.35 892.128 1115.62C899.915 1115.72 907.703 1115.63 915.485 1115.35C912.738 1114.72 895.442 1114.73 891.392 1114.68C891.023 1105.39 891.11 1096.25 891.145 1086.95L919.102 1086.82Z"/><path fill="#FBFBFB" d="M1058.44 585.826C1067.75 585.724 1077.36 585.502 1086.64 585.659C1086.65 594.364 1086.93 605.05 1086.5 613.596C1095.49 613.56 1105.36 613.734 1114.27 613.458L1114.21 641.101C1105.09 641.264 1095.97 641.281 1086.85 641.152C1086.39 631.638 1086.63 622.932 1086.61 613.445L1058.51 613.441L1058.54 641.172C1067.5 641.917 1077.46 641.364 1086.67 641.625C1086.67 650.552 1086.86 660.323 1086.58 669.181C1077.62 668.936 1067.63 669.161 1058.59 669.163L1058.45 696.914C1049.13 696.984 1039.8 696.96 1030.48 696.844L1030.5 725L1002.58 724.91C1002.28 715.933 1002.46 706.162 1002.47 697.124L974.736 697.115L974.827 724.993C965.46 725.011 956.093 724.976 946.726 724.886C946.681 734.203 946.755 743.52 946.949 752.835C937.666 752.887 928.383 752.885 919.1 752.829C919.103 748.41 919.342 729.929 918.742 726.767C918.145 733.399 918.434 745.045 918.457 751.91C915.863 751.902 911.603 751.681 909.264 752.357C908.634 752.553 918.559 752.779 919.029 752.78L918.977 780.902C928.296 780.753 937.616 780.73 946.935 780.835L946.935 808.816L974.802 808.821L974.829 836.354L946.95 836.293C946.752 827.113 946.685 817.932 946.75 808.751L918.984 808.639L918.988 836.208C909.789 836.368 900.588 836.408 891.387 836.33L891.366 864.276C899.981 864.248 910.541 864.54 919.024 864.23C919.024 873.361 918.842 883.119 919.04 892.195L891.353 892.113C891.006 882.836 891.004 873.549 891.348 864.272L863.391 864.268C863.375 873.506 863.486 883.064 863.3 892.274C872.623 892.194 881.946 892.181 891.269 892.237C891.287 901.443 891.452 911.078 891.273 920.248C900.515 920.164 909.758 920.192 919 920.33C918.996 928.941 918.703 939.434 919.059 947.889C912.81 947.329 898.242 947.812 891.38 947.836C891.123 956.731 891.306 966.569 891.28 975.541C882.027 975.819 872.768 975.869 863.512 975.691C863.369 966.403 863.335 957.115 863.409 947.827C854.873 947.47 844.626 947.874 835.701 947.705C835.717 956.708 835.923 966.596 835.347 975.493C825.962 975.882 817.249 975.798 807.844 975.687L807.646 1003.46L780.183 1003.49C780.009 994.448 780.153 984.942 780.148 975.862C788.943 975.526 798.889 975.726 807.771 975.711C807.697 966.409 807.681 957.106 807.723 947.803L780.151 947.779L780.052 975.655C771.416 975.739 760.732 975.957 752.288 975.407C752.045 966.655 752.306 956.777 752.393 947.943L780.244 947.867C780.173 938.575 780.15 929.282 780.174 919.989C770.892 920.004 761.609 919.964 752.327 919.87C752.273 910.591 752.305 901.312 752.423 892.034C748.457 892.185 739.099 892.881 735.918 891.413L735.382 889.575C742.229 872.703 756.34 874.209 771.492 874.262L801.571 874.364C825.107 874.431 842.286 874.383 861.889 859.315C893.674 834.884 886.294 797.726 887.356 762.697C887.666 752.47 885.016 736.025 895.716 729.676C907.955 723.359 920.748 722.754 932.075 713.262C943.926 703.33 947.376 694.022 949.156 679.122C965.73 678.766 983.363 679.185 998.461 686.686C1003.07 688.977 1009.14 689.288 1011.51 683.807C1014.84 676.079 1008.55 672.995 1002.66 670.735C1002.45 660.924 1002.42 651.11 1002.57 641.298C1011.9 641.455 1021.23 641.479 1030.57 641.37L1030.51 613.517L1058.63 613.596C1058.39 604.197 1058.59 595.1 1058.44 585.826Z"/><path fill="#014E64" d="M442.594 648.622C516.904 626.499 565.614 623.716 639.968 648.954L668.213 660.241C724.928 683.431 783.14 693.745 844.188 683.218C875.005 677.904 904.993 668.319 936.066 664.758C938.659 664.461 945.441 663.995 947.709 663.428C966.492 662.471 984.946 663.934 1002.66 670.735C1008.55 672.995 1014.84 676.079 1011.51 683.807C1009.14 689.288 1003.07 688.977 998.461 686.686C983.363 679.185 965.73 678.766 949.156 679.122C947.376 694.022 943.926 703.33 932.075 713.262C920.748 722.754 907.955 723.359 895.716 729.676C885.016 736.025 887.666 752.47 887.356 762.697C886.294 797.726 893.674 834.884 861.889 859.315C842.286 874.383 825.107 874.431 801.571 874.364L771.492 874.262C756.34 874.209 742.229 872.703 735.382 889.575C730.449 917.231 745.87 955.603 709.459 966.954C658.98 982.691 607.522 983.596 556.315 970.851C515.003 960.568 509.64 953.896 509.614 912.234L509.654 873.255C509.677 857.736 510.532 841.308 506.387 826.255C494.395 782.707 455.482 754.449 428.809 720.158C425.994 716.538 419.435 709.022 418.399 704.796C416.01 695.053 426.653 691.179 432.847 698.612C464.357 741.753 514.581 775.417 524.294 831.236C526.815 845.723 526.12 860.333 526.082 874.974L525.975 925.332C526.098 945.724 533.54 947.454 550.883 952.377C576.616 959.955 603.327 963.689 630.152 963.459C646.122 963.195 704.484 956.947 713.887 945.959C726.004 931.799 708.111 888.341 729.321 869.444C745.183 855.313 758.36 857.625 778.479 857.706C788.522 857.746 798.566 857.735 808.609 857.673C828.539 858.043 854.596 852.991 863.775 832.578C871.791 821.159 870.928 800.832 871.024 787.378L871.231 748.473C871.376 738.995 872.222 735.541 876.039 726.888C893.48 701.219 925.407 715.427 933.174 680.772C917.755 682.302 893.72 688.67 878.383 692.332C841.722 701.087 807.13 705.688 769.356 702.539C740.772 700.155 712.928 693.961 685.78 684.625C668.073 678.535 651.159 670.672 633.593 664.119C602.215 652.46 568.913 646.848 535.447 647.58C486.173 648.733 447.822 665.466 401.914 679.04C360.156 691.388 309.574 693.276 268.433 678.751C262.086 676.51 249.683 671.987 246.615 665.864C244.927 662.537 248.32 656.749 251.805 655.761C256.039 654.5 265.416 659.843 269.7 661.572C318.471 681.248 374.374 672.545 422.618 655.549C428.777 653.36 436.145 651.326 442.024 648.865L442.594 648.622Z"/><path fill="#FBFBFB" d="M0 752.835L28.0434 752.835C28.1308 762.153 28.1465 771.472 28.0904 780.791L55.9908 780.81C55.9817 790.086 55.8648 799.588 56.0079 808.844C65.1445 808.825 74.6327 808.673 83.7394 808.844L83.7756 836.462C92.3762 836.454 103.174 836.751 111.593 836.353L111.488 864.122C104.658 864.322 98.4093 864.526 91.5675 864.308C83.6231 864.055 69.8053 862.261 62.2366 863.843C63.9569 864.232 81.2455 864.307 83.7687 864.188L83.7618 892.265C93.0491 892.17 102.337 892.157 111.625 892.225C111.54 882.951 111.511 873.675 111.536 864.4C120.803 864.216 130.521 864.471 139.578 864.212L139.541 892.257L167.468 892.259L167.241 920.233C176.568 920.02 185.899 919.994 195.228 920.154L195.221 948.034C204.477 947.941 213.733 947.911 222.989 947.945L223.211 975.84C231.357 975.604 243.711 976.167 251.004 975.583L250.903 1003.56C242.689 1003.14 231.587 1003.47 223.148 1003.46C222.704 995.008 223.005 984.336 223.024 975.718C213.763 975.811 204.501 975.806 195.24 975.703L195.297 1003.61C188.854 1003.02 174.515 1003.44 167.485 1003.43L167.471 1031.23C158.718 1031.65 148.47 1031.46 139.596 1031.48L139.552 1003.63C132.162 1003.08 119.678 1003.4 111.795 1003.31C111.299 994.538 111.542 984.582 111.582 975.701L139.618 975.545C139.348 966.579 139.598 956.793 139.667 947.763L111.709 947.735C111.268 938.947 111.536 928.916 111.591 920.027C103.705 919.98 91.4414 919.55 83.8995 920.125C83.419 928.272 83.687 939.486 83.6519 947.781L56.1496 947.701C55.5442 939.167 55.8283 928.642 55.9972 920.09L28.1832 919.991C27.8828 910.99 28.0995 901.254 28.1472 892.193C19.1765 891.953 9.06467 892.194 0 892.199L0 864.241L0 836.406L0 808.732L0 780.77L0 752.835Z"/><path fill="#FBFBFB" d="M139.599 1114.9L167.253 1114.85C167.331 1124.12 167.351 1133.39 167.315 1142.66C176.367 1142.62 186.345 1142.8 195.318 1142.51C195.311 1151.14 195.005 1161.7 195.343 1170.17C204.605 1170.3 213.869 1170.35 223.132 1170.33C222.969 1161.15 222.933 1151.96 223.024 1142.77C232.312 1142.65 241.6 1142.6 250.889 1142.63L250.997 1170.1C241.641 1170.15 232.284 1170.16 222.928 1170.12C223.044 1179.49 223.071 1188.86 223.009 1198.24C232.32 1198.14 241.631 1198.16 250.941 1198.31C250.911 1207.43 250.694 1216.74 250.733 1225.82L222.952 1225.91L223.075 1254L195.34 1254L167.361 1254L139.603 1254L111.551 1254L83.643 1254L55.8937 1254L28.1266 1254L0 1254L0 1225.81L0 1198.29L0 1170.16L0 1142.56C8.96254 1142.6 19.3463 1142.88 28.1967 1142.52C28.0716 1151.8 28.0281 1161.07 28.0663 1170.35C37.3879 1170.26 46.71 1170.24 56.032 1170.28L56.032 1142.87L83.5735 1142.87L83.5735 1170.13C74.5808 1170.21 64.9037 1170.47 55.9775 1170.15C55.6858 1179.42 55.9455 1188.97 55.908 1198.28L83.8142 1198.24C83.5209 1188.97 83.5241 1179.69 83.824 1170.43L111.595 1170.43C111.567 1179.63 111.641 1189.05 111.467 1198.23L139.568 1198.27L139.535 1170.2L111.905 1170.14C111.122 1162.8 111.488 1150.39 111.521 1142.58C120.887 1142.69 130.254 1142.69 139.62 1142.58L139.599 1114.9Z"/><path fill="#FBFBFB" d="M1198.24 1059.25L1225.92 1059.32C1225.98 1068.51 1225.99 1077.71 1225.94 1086.91L1254 1086.91L1254 1114.78L1254 1142.55L1254 1170.16L1254 1197.99L1254 1225.93L1254 1254L1225.84 1254L1198.25 1254L1170.2 1254L1142.17 1254C1142.28 1244.76 1142.31 1235.52 1142.26 1226.28C1151.59 1226.09 1160.92 1225.97 1170.25 1225.93L1170.21 1198.23C1161.36 1197.97 1151.29 1198.2 1142.34 1198.2C1142.1 1189.18 1142.28 1179.39 1142.26 1170.31L1170.28 1170.2L1170.22 1142.8L1198.26 1142.54C1198.11 1133.43 1198.26 1123.92 1198.26 1114.78C1188.92 1114.89 1179.57 1114.82 1170.22 1114.59L1170.25 1087.03C1179.41 1086.8 1189.1 1086.9 1198.3 1086.86C1198.23 1077.65 1198.21 1068.45 1198.24 1059.25Z"/><path fill="#FBFBFB" d="M1030.49 892.192L1058.6 892.173C1058.6 900.388 1058.92 912.023 1058.44 920.077C1067.84 920.242 1077.24 920.295 1086.64 920.238C1086.65 929.032 1086.88 939.211 1086.35 947.882C1094.85 947.887 1105.94 948.206 1114.31 947.807L1114.25 975.688C1105.08 975.88 1095.9 975.845 1086.73 975.583C1086.29 966.878 1086.49 956.528 1086.49 947.721L1058.64 947.882L1058.43 975.67C1049.14 975.875 1039.85 975.898 1030.56 975.737L1030.5 947.86C1023.93 947.699 1011.06 947.467 1004.73 948.142C1011.79 947.729 1022.37 948.483 1029.9 948.46L1029.9 974.789C1025.82 974.778 1021.16 974.588 1017.22 975.305C1022.09 975.739 1025.59 975.75 1030.51 975.705L1030.49 1003.54C1021.22 1003.46 1011.94 1003.44 1002.67 1003.49L1002.65 1031.25C992.804 1031.59 984.439 1031.21 974.815 1031.25L974.774 1003.41C965.474 1003.47 956.174 1003.44 946.874 1003.33C946.465 994.801 946.772 984.511 946.824 975.849L974.817 975.525C974.591 966.527 974.788 956.884 974.819 947.839L1002.91 947.84C1001.99 941.54 1002.45 927.04 1002.53 920.348C1011.83 919.791 1021.23 920.197 1030.59 919.992L1030.49 892.192Z"/><path fill="#FBFBFB" d="M974.827 724.993C984.036 724.96 993.246 724.979 1002.46 725.051C1002.51 734.14 1002.7 743.844 1002.45 752.916C1011.27 752.747 1021.74 752.552 1030.52 753.078C1030.51 762.166 1030.35 771.685 1030.5 780.734L1058.64 780.807C1058.57 789.83 1058.73 799.929 1058.4 808.858L1086.53 808.722L1086.53 836.291L1058.59 836.401L1058.5 864.098C1049.19 864.417 1039.88 864.482 1030.57 864.293L1030.49 892.192L1002.76 892.14C1002.2 883.606 1002.49 873.078 1002.54 864.373C1011.98 864.063 1021.09 864.19 1030.53 864.306L1030.5 836.378L1002.56 836.334C1002.28 827.469 1002.47 817.793 1002.39 808.822C993.924 808.412 983.687 808.697 974.861 808.483C974.651 799.372 974.777 789.897 974.782 780.757L1002.73 780.757C1002.05 773.302 1002.47 760.502 1002.52 752.613C993.462 752.896 983.776 753.148 974.765 752.541C974.565 743.487 974.757 734.076 974.827 724.993Z"/><path fill="#FBFBFB" d="M919.059 947.889L946.789 947.863L946.743 975.541C937.632 975.766 928.122 976.033 919.022 975.401C919.026 984.706 918.901 994.311 919.045 1003.59C911.533 1003.07 899.051 1003.42 891.198 1003.39C891.337 1012.67 891.302 1021.95 891.091 1031.23C881.893 1031.45 872.691 1031.49 863.49 1031.35C863.302 1022.31 863.429 1012.82 863.412 1003.74C872.731 1003.63 882.049 1003.58 891.368 1003.58C890.748 996.632 891.207 983.215 891.365 975.866C899.973 975.442 910.435 975.7 919.18 975.699C918.965 966.65 919.149 957.039 919.059 947.889Z"/><path fill="#FBFBFB" d="M835.51 808.852C844.832 808.752 854.154 808.731 863.476 808.791C863.381 813.575 864.031 829.896 863.775 832.578C854.596 852.991 828.539 858.043 808.609 857.673C806.753 854.084 807.66 841.135 807.766 836.426L835.639 836.329C835.148 828.544 835.509 816.924 835.51 808.852Z"/><path fill="#FBFBFB" d="M1114.29 1086.87L1142.23 1086.89L1142.25 1114.88C1151.55 1114.78 1160.86 1114.76 1170.16 1114.83C1170.2 1119.02 1170.91 1140.6 1169.43 1142.53L1169.18 1142.63C1160.21 1142.74 1151.23 1142.69 1142.26 1142.51L1142.26 1114.69C1132.98 1114.85 1123.69 1114.81 1114.41 1114.59L1114.29 1086.87Z"/><path fill="#FBFBFB" d="M1030.49 1003.54C1039.56 1003.54 1049.58 1003.77 1058.57 1003.53C1058.54 1012.7 1058.63 1022.15 1058.47 1031.3C1066.42 1031.58 1078.82 1031.76 1086.69 1031.33C1086.67 1040.25 1086.86 1050.25 1086.49 1059.08C1078.17 1059.11 1066.65 1058.79 1058.59 1059.25C1058.47 1049.9 1058.42 1040.55 1058.44 1031.2C1049.15 1031.37 1039.86 1031.4 1030.57 1031.28C1030.42 1022.14 1030.51 1012.71 1030.49 1003.54Z"/><path fill="#FBFBFB" d="M1198.25 669.21C1207.49 669.15 1216.74 669.169 1225.98 669.266L1225.94 697.281L1254 697.267L1254 725.029L1225.94 724.913L1225.99 697.12C1217.83 696.553 1207.37 697.379 1198.34 696.925L1198.25 669.21Z"/><path fill="#FBFBFB" d="M1058.65 864.391C1067.98 864.171 1077.31 864.132 1086.65 864.273C1086.69 873.499 1086.86 883.091 1086.52 892.276C1095.6 892.226 1105.23 892.02 1114.26 892.305C1114.24 901.48 1114.3 910.776 1114.17 919.939C1105.08 920.004 1095.99 919.983 1086.89 919.875C1086.57 910.807 1086.36 901.19 1086.7 892.116L1058.6 892.173C1058.13 883.234 1058.49 873.42 1058.65 864.391Z"/><path fill="#FBFBFB" d="M1142.16 1003.62L1170.16 1003.56C1170.19 1012.62 1170.39 1022.21 1170.16 1031.22C1160.9 1031.52 1151.64 1031.51 1142.39 1031.18L1142.19 1059.08C1134.1 1059.11 1122.27 1058.76 1114.41 1059.21C1114.46 1049.96 1114.42 1040.72 1114.31 1031.47C1123.5 1031.49 1133.21 1031.28 1142.33 1031.46C1142.29 1022.38 1142.42 1012.66 1142.16 1003.62Z"/><path fill="#FBFBFB" d="M306.152 1198.89C297.804 1198.92 289.327 1199.07 281.004 1198.58C284.264 1198.02 302.405 1198.2 306.797 1198.18C306.722 1207.47 306.719 1216.76 306.789 1226.05C316.116 1225.97 325.296 1225.78 334.618 1226.28L334.618 1254L306.799 1254C306.519 1244.79 306.707 1235.13 306.758 1225.89C298.704 1225.96 287.868 1226.19 280.002 1225.66C285.56 1224.79 299.835 1225.19 306.152 1225.22L306.152 1198.89Z"/><path fill="#FBFBFB" d="M1226.01 529.781C1235.34 529.816 1244.67 529.774 1254 529.657L1254 557.727C1244.67 557.797 1235.35 557.747 1226.02 557.577C1225.96 548.312 1225.96 539.046 1226.01 529.781Z"/><path fill="#FBFBFB" d="M1254 418.264L1254 446.247C1244.7 446.285 1235.39 446.243 1226.09 446.12C1225.77 436.929 1225.97 427.526 1226.07 418.314L1254 418.264Z"/><path fill="#FBFBFB" d="M1254 864.149L1254 892.128C1244.65 892.21 1235.31 892.232 1225.96 892.193C1225.89 882.883 1225.96 873.572 1226.17 864.264L1254 864.149Z"/><path fill="#FBFBFB" d="M0 975.51C6.44201 975.556 22.3427 976.094 28.0381 975.524C28.0934 984.888 28.1004 994.252 28.0591 1003.62C21.5526 1003.03 7.09812 1003.45 0 1003.44L0 975.51Z"/><path fill="#FBFBFB" d="M1225.94 362.693C1234.89 362.357 1244.96 362.502 1254 362.43L1254 390.435C1245.47 390.642 1234.45 390.658 1226.11 390.175C1225.7 381.694 1225.93 371.264 1225.94 362.693Z"/><path fill="#FBFBFB" d="M1058.53 975.743C1067.34 975.699 1078.01 975.941 1086.66 975.553C1086.68 984.512 1086.9 994.61 1086.48 1003.47C1077.44 1003.48 1067.53 1003.28 1058.57 1003.53C1058.37 994.268 1058.35 985.004 1058.53 975.743Z"/><path fill="#FBFBFB" d="M0 585.542C8.61815 585.639 19.6596 586.047 28.0643 585.462L28.0793 613.563C21.3045 613.015 7.31718 613.458 0 613.458L0 585.542Z"/><path fill="#FBFBFB" d="M0 697.234C9.48886 696.898 18.7985 697.441 28.1244 697.042L28.1228 724.916L0 724.942L0 697.234Z"/><path fill="#FBFBFB" d="M0 1086.91L28.1243 1086.91L28.1391 1114.69L0 1114.69L0 1086.91Z"/><path fill="#FBFBFB" d="M1058.43 473.997C1067.85 474.099 1077.27 474.095 1086.7 473.984C1086.77 483.195 1086.7 492.406 1086.49 501.615C1077.35 501.924 1067.6 501.711 1058.42 501.658C1058.22 492.706 1058.31 482.973 1058.43 473.997Z"/><path fill="#FBFBFB" d="M974.468 752.715C975.186 759.808 974.824 773.249 974.782 780.757C965.587 780.757 956.238 780.848 947.058 780.724C946.582 771.78 946.784 762.09 946.817 753.068C956.03 752.753 965.25 752.635 974.468 752.715Z"/><path fill="#FBFBFB" d="M0 1031.18C9.34369 1031.42 18.6916 1031.46 28.0369 1031.29C28.0555 1040.46 28.2083 1049.96 28.0722 1059.1C18.854 1059.15 9.1789 1059.05 0 1059.29L0 1031.18Z"/><path fill="#FBFBFB" d="M0 641.395C9.0169 641.353 19.1769 641.624 28.0308 641.337C28.1188 650.611 28.1182 659.886 28.0287 669.16L0 669.177L0 641.395Z"/><path fill="#FBFBFB" d="M1114.28 1225.94L1114.33 1254L1086.52 1254C1086.29 1244.58 1086.49 1235.47 1086.68 1226.05C1095.61 1225.78 1105.29 1225.95 1114.28 1225.94Z"/><path fill="#FBFBFB" d="M974.764 1086.82C974.604 1095.89 974.803 1105.57 974.83 1114.69C965.531 1114.87 956.229 1114.88 946.93 1114.71C946.477 1106.08 946.786 1095.74 946.85 1086.98L974.764 1086.82Z"/><path fill="#FBFBFB" d="M195.316 362.473L195.248 390.433L167.347 390.445L167.358 362.512C176.677 362.604 185.997 362.591 195.316 362.473Z"/><path fill="#FBFBFB" d="M1058.53 697.422C1067.92 697.295 1077.15 697.136 1086.55 697.37C1086.63 706.468 1086.85 715.861 1086.41 724.923L1058.57 724.997C1058.13 715.572 1058.56 706.774 1058.53 697.422Z"/><path fill="#FBFBFB" d="M1254 474.019L1254 501.851C1244.76 501.95 1235.52 501.877 1226.29 501.634C1225.69 493.045 1225.95 482.812 1226 474.061L1254 474.019Z"/><path fill="#FBFBFB" d="M306.825 1170.31L334.618 1170.25L334.602 1198.19L306.797 1198.18C306.793 1188.93 306.704 1179.54 306.825 1170.31Z"/><path fill="#FBFBFB" d="M1002.54 585.831C1011.63 585.578 1021.74 586.075 1030.47 585.623L1030.51 613.517C1021.2 613.447 1011.9 613.43 1002.59 613.465C1002.41 604.255 1002.39 595.042 1002.54 585.831Z"/><path fill="#FBFBFB" d="M0 920.218C9.4521 919.847 18.4854 920.274 27.8114 920.093C28.4851 927.775 28.0244 939.684 28.0853 947.845C20.5578 947.355 7.9165 947.783 0 947.792L0 920.218Z"/><path fill="#FBFBFB" d="M418.027 1114.89C426.588 1114.84 437.687 1115.12 446.03 1114.69C445.926 1123.98 445.9 1133.27 445.953 1142.57C436.68 1142.65 427.406 1142.67 418.133 1142.61C418.081 1133.99 417.715 1123.34 418.027 1114.89Z"/><path fill="#FBFBFB" d="M83.8123 1114.91C93.0676 1114.77 102.324 1114.75 111.58 1114.83C111.656 1124.08 111.637 1133.33 111.521 1142.58C102.303 1142.64 93.084 1142.64 83.8659 1142.56C83.3939 1134.1 83.4628 1123.44 83.8123 1114.91Z"/><path fill="#FBFBFB" d="M278.671 1086.88L306.761 1086.87C306.752 1096.05 306.867 1105.54 306.676 1114.69C297.869 1114.68 287.533 1114.93 278.852 1114.57C278.581 1105.32 278.958 1095.85 278.671 1086.88Z"/><path fill="#FBFBFB" d="M251.037 1226.15L278.715 1226.15L278.754 1254L250.936 1254C250.798 1244.72 250.832 1235.43 251.037 1226.15Z"/><path fill="#FBFBFB" d="M111.462 473.986L139.577 474.073L139.511 501.807C131.358 501.821 119.306 501.301 111.58 501.634C111.48 492.419 111.441 483.203 111.462 473.986Z"/><path fill="#FBFBFB" d="M1254 641.37L1254 669.236L1226.19 669.17C1225.82 659.735 1225.98 650.767 1226.13 641.323C1235.42 641.445 1244.71 641.461 1254 641.37Z"/><path fill="#FBFBFB" d="M1254 585.462L1254 613.456L1226.13 613.407C1225.65 605.177 1225.98 594.342 1226.01 585.917L1254 585.462Z"/><path fill="#FBFBFB" d="M1030.5 725L1058.57 724.997L1058.49 752.642C1049.2 752.873 1039.91 752.895 1030.62 752.71C1030.32 743.915 1030.53 733.891 1030.5 725Z"/><path fill="#FBFBFB" d="M306.763 362.492L306.707 390.407C297.353 390.504 288.445 390.567 279.101 390.278C278.497 381.598 278.82 371.466 278.911 362.639L306.763 362.492Z"/><path fill="#FBFBFB" d="M111.58 501.634L111.634 529.507C102.49 529.747 93.0386 529.598 83.8687 529.563C83.3882 520.29 83.5957 511.234 83.8564 501.963C92.0952 501.38 102.856 501.872 111.58 501.634Z"/><path fill="#FBFBFB" d="M362.476 1170.17C371.722 1170.3 380.968 1170.33 390.215 1170.28C390.193 1179.49 390.037 1189.03 390.155 1198.22L362.468 1198.25L362.476 1170.17Z"/><path fill="#FBFBFB" d="M585.315 1114.95C593.749 1114.81 605.152 1115.08 613.178 1114.52C613.204 1123.81 613.353 1133.43 613.138 1142.69L585.273 1142.5L585.315 1114.95Z"/><path fill="#FBFBFB" d="M974.868 501.955C984.134 501.68 993.406 501.645 1002.67 501.849C1002.57 511.092 1002.52 520.335 1002.54 529.578L974.829 529.64C974.811 520.552 974.649 511.005 974.868 501.955Z"/><path fill="#FBFBFB" d="M28.0908 1114.81C36.0555 1114.79 48.3038 1115.16 55.9161 1114.65C55.9141 1123.84 55.799 1133.29 55.9626 1142.46C46.7088 1142.68 37.4514 1142.7 28.1967 1142.52C28.0912 1133.29 28.0559 1124.05 28.0908 1114.81Z"/><path fill="#FBFBFB" d="M251.038 1031.27C250.863 1040.59 250.858 1049.91 251.025 1059.23C242.562 1058.82 231.838 1059.13 223.208 1059.15C222.988 1050.29 222.687 1040.1 223.155 1031.29C231.232 1031.55 243.149 1031.88 251.038 1031.27Z"/><path fill="#FBFBFB" d="M1225.92 808.785L1254 808.741L1254 836.398L1226.11 836.381C1225.65 828.196 1225.94 817.184 1225.92 808.785Z"/><path fill="#FBFBFB" d="M946.803 920.187L974.704 920.13L974.819 947.839C965.511 947.736 956.202 947.694 946.893 947.714C946.7 938.54 946.67 929.363 946.803 920.187Z"/><path fill="#FBFBFB" d="M696.503 1114.66C705.615 1114.97 715.179 1114.78 724.335 1114.73C724.379 1124.02 724.37 1133.32 724.311 1142.62L696.774 1142.58C696.456 1133.28 696.365 1123.97 696.503 1114.66Z"/><path fill="#FBFBFB" d="M1030.56 473.989C1030.28 482.78 1030.48 492.667 1030.47 501.545C1021.41 501.874 1011.79 501.717 1002.69 501.678C1002.29 492.888 1002.52 483.12 1002.56 474.243L1030.56 473.989Z"/><path fill="#FBFBFB" d="M250.903 1003.56C260.087 1003.57 269.589 1003.72 278.745 1003.59C278.733 1012.55 278.537 1022.22 278.767 1031.12C269.139 1031.4 260.61 1031.31 251.038 1031.27C250.808 1022.03 250.763 1012.79 250.903 1003.56Z"/><path fill="#FBFBFB" d="M1170.57 641.542C1177.44 641.49 1191.74 641.851 1198.14 641.32L1198.25 669.21L1170.4 669.185C1170.3 664.756 1169.72 645.3 1170.57 641.542Z"/><path fill="#FBFBFB" d="M1226.15 920.245C1235.4 920.077 1244.74 920.078 1254 920.019L1254 947.758C1245.03 948.014 1235.25 947.784 1226.22 947.736C1225.9 939.141 1226.15 928.965 1226.15 920.245Z"/><path fill="#FBFBFB" d="M1225.96 892.193C1225.97 901.387 1226.06 910.731 1225.93 919.912C1217.46 919.966 1206.55 919.711 1198.29 920.158L1198.27 892.219L1225.96 892.193Z"/><path fill="#FBFBFB" d="M28.0853 947.845L56.0215 947.854C55.9135 957.073 55.8786 966.292 55.9169 975.512C47.2879 975.797 36.7206 976.109 28.1004 975.46L28.0853 947.845Z"/><path fill="#FBFBFB" d="M974.815 1031.25C974.778 1040.24 974.512 1050.36 974.799 1059.25C966.393 1058.85 955.465 1059.12 946.854 1059.05L946.786 1031.62C955.363 1031.44 966.736 1031.96 974.815 1031.25Z"/><path fill="#FBFBFB" d="M1198.23 780.874C1207.46 780.753 1216.68 780.704 1225.91 780.727C1226.06 790.079 1226.07 799.433 1225.92 808.785C1217.05 808.626 1206.88 808.993 1198.28 808.558L1198.23 780.874Z"/><path fill="#FBFBFB" d="M1254 1031.41L1254 1059.21L1226.26 1059.09C1225.72 1050.22 1225.97 1040.53 1226.04 1031.57C1235.36 1031.39 1244.68 1031.34 1254 1031.41Z"/><path fill="#FBFBFB" d="M974.829 836.354L1002.55 836.418C1002.55 845.342 1002.77 855.297 1002.49 864.134C993.277 864.39 984.056 864.391 974.839 864.139C974.721 854.878 974.718 845.615 974.829 836.354Z"/><path fill="#FBFBFB" d="M473.865 1114.94C483.097 1114.75 492.332 1114.73 501.565 1114.86L501.515 1142.65L473.923 1142.56C473.835 1133.35 473.816 1124.15 473.865 1114.94Z"/><path fill="#FBFBFB" d="M195.301 334.729C204.639 334.358 213.631 334.521 222.96 334.521L223.031 362.452L195.316 362.473L195.301 334.729Z"/><path fill="#FBFBFB" d="M1170.33 920.322C1179.59 919.948 1188.98 920.289 1198.29 920.158C1198.07 929.119 1198.21 938.711 1198.17 947.725C1188.94 947.811 1179.7 947.795 1170.47 947.677C1170.14 938.79 1170.31 929.267 1170.33 920.322Z"/><path fill="#FBFBFB" d="M1114.34 585.83C1120.2 585.805 1137.23 586.096 1142.19 585.467C1142.28 594.776 1142.28 604.086 1142.19 613.396C1133.06 613.414 1123.35 613.254 1114.27 613.458L1114.34 585.83Z"/><path fill="#FBFBFB" d="M139.649 334.796L167.487 334.407C167.381 343.775 167.338 353.143 167.358 362.512L139.572 362.534L139.649 334.796Z"/><path fill="#FBFBFB" d="M1171.14 1031.56L1198.18 1031.38C1198.2 1040.39 1198 1050.33 1198.24 1059.25C1188.92 1059.05 1179.59 1059.02 1170.26 1059.15C1170.24 1054.59 1169.18 1034.06 1171.04 1031.63C1171.06 1031.6 1171.11 1031.59 1171.14 1031.56Z"/><path fill="#FBFBFB" d="M1114.34 1198.3C1119.07 1198.23 1138.87 1197.74 1142.19 1198.65C1142.25 1207.62 1142.43 1216.89 1142.06 1225.81C1133.12 1225.85 1123.11 1225.66 1114.28 1225.94L1114.34 1198.3Z"/><path fill="#FBFBFB" d="M640.918 1170.43L668.59 1170.43L668.625 1198.22L640.878 1198.19C640.856 1189.07 640.695 1179.52 640.918 1170.43Z"/><path fill="#FBFBFB" d="M28.0591 1003.62L55.8777 1003.63C55.934 1012.8 55.943 1021.98 55.9047 1031.16C46.8876 1031.34 37.1547 1031.5 28.1401 1031.21C28.0894 1022.28 27.8304 1012.47 28.0591 1003.62Z"/><path fill="#FBFBFB" d="M668.699 1142.7C678.027 1142.6 687.357 1142.6 696.686 1142.7L696.66 1170.26L668.718 1170.16C668.623 1161.01 668.616 1151.85 668.699 1142.7Z"/><path fill="#FBFBFB" d="M195.297 1003.61C204.465 1003.63 213.839 1003.52 222.978 1003.69C223.014 1012.75 223.181 1022.13 223.069 1031.16C213.382 1031.37 205.021 1031.52 195.386 1031.19L195.297 1003.61Z"/><path fill="#FBFBFB" d="M529.632 1114.81L557.335 1114.81C557.359 1124.09 557.325 1133.36 557.234 1142.64L529.665 1142.6C529.502 1133.34 529.491 1124.07 529.632 1114.81Z"/><path fill="#FBFBFB" d="M1058.59 1059.25C1058.25 1067.74 1058.55 1077.97 1058.43 1086.76L1030.62 1086.75C1030.33 1077.76 1030.53 1068.34 1030.59 1059.32C1039.92 1059.38 1049.26 1059.36 1058.59 1059.25Z"/><path fill="#FBFBFB" d="M251.025 1059.23L278.914 1059.35L278.671 1086.88C270.82 1086.43 259.235 1086.78 251.095 1086.77C250.819 1077.59 250.796 1068.41 251.025 1059.23Z"/><path fill="#FBFBFB" d="M111.463 808.863L139.57 808.803C139.486 817.994 139.488 827.185 139.576 836.376C130.693 836.113 120.576 836.354 111.593 836.353L111.463 808.863Z"/><path fill="#FBFBFB" d="M919.04 892.195L946.804 892.271C946.804 896.179 947.251 917.503 946.455 919.841C937.192 920.169 928.408 920.053 919.133 919.929C919.12 911.045 919.342 900.98 919.04 892.195Z"/><path fill="#FBFBFB" d="M974.789 613.617C984.079 613.583 993.465 613.478 1002.75 613.561C1002.38 622.602 1002.52 632.013 1002.54 641.093C993.309 641.309 984.075 641.297 974.846 641.056L974.789 613.617Z"/><path fill="#FBFBFB" d="M362.468 1142.58L362.476 1170.17L334.631 1170.13C334.581 1160.98 334.581 1151.83 334.631 1142.68L362.468 1142.58Z"/><path fill="#FBFBFB" d="M1226.15 975.769C1235.2 975.564 1244.89 975.726 1254 975.714L1254 1003.5L1226.15 1003.48L1226.15 975.769Z"/><path fill="#FBFBFB" d="M891.216 1031.51L919.002 1031.54C918.945 1040.77 918.962 1050 919.055 1059.23C911.18 1058.78 899.636 1059.16 891.462 1059.19C891.183 1049.96 891.101 1040.73 891.216 1031.51Z"/><path fill="#FBFBFB" d="M891.462 1059.19C891.514 1068.38 891.426 1077.57 891.199 1086.75L863.479 1086.77C863.244 1077.87 863.454 1068.29 863.498 1059.34C872.819 1059.42 882.141 1059.37 891.462 1059.19Z"/><path fill="#FBFBFB" d="M28.1127 557.726L55.92 557.713L55.8673 585.341C46.6004 585.452 37.3325 585.463 28.0654 585.374L28.1127 557.726Z"/><path fill="#FBFBFB" d="M1114.35 920.287C1123.68 920.107 1133.01 920.059 1142.34 920.142L1142.22 947.728C1132.92 947.66 1123.61 947.686 1114.31 947.807L1114.35 920.287Z"/><path fill="#FBFBFB" d="M28.0793 613.563C36.8457 613.567 47.1623 613.841 55.7987 613.522L55.8972 641.124L28.1993 641.153L28.0793 613.563Z"/><path fill="#FBFBFB" d="M974.799 1059.25C984.017 1059.36 993.234 1059.39 1002.45 1059.34C1002.55 1068.12 1002.87 1078.17 1002.33 1086.82C993.623 1086.81 983.334 1086.52 974.764 1086.82L974.799 1059.25Z"/><path fill="#FBFBFB" d="M1086.67 1059.3L1114.41 1059.21C1114.24 1068.43 1114.2 1077.65 1114.29 1086.87C1106.09 1086.48 1095.12 1086.81 1086.79 1086.84C1086.42 1077.54 1086.54 1068.61 1086.67 1059.3Z"/><path fill="#FBFBFB" d="M1086.58 669.181L1114.08 669.203C1114.08 677.178 1114.47 689.151 1114.01 696.792C1104.91 697.048 1095.81 697.097 1086.7 696.942C1086.44 687.691 1086.4 678.434 1086.58 669.181Z"/><path fill="#FBFBFB" d="M1198.25 390.542L1225.93 390.587L1225.95 418.168C1216.73 418.322 1207.51 418.318 1198.29 418.154C1198.28 409.197 1198.48 399.428 1198.25 390.542Z"/><path fill="#FBFBFB" d="M139.576 836.376C148.843 836.467 158.111 836.478 167.378 836.41L167.263 864.029C157.936 864.412 148.932 864.312 139.594 864.239L139.576 836.376Z"/><path fill="#FBFBFB" d="M919.055 1059.23C928.296 1059.38 937.537 1059.22 946.736 1059.38L946.777 1086.79L919.102 1086.82L919.055 1059.23Z"/><path fill="#FBFBFB" d="M418.133 1142.61L418.172 1170.17L390.358 1170.12L390.233 1142.8C399.532 1142.64 408.832 1142.58 418.133 1142.61Z"/><path fill="#FBFBFB" d="M195.378 1114.96L222.957 1114.81C223.055 1124.07 223.087 1133.32 223.052 1142.58C214.049 1142.59 204.257 1142.79 195.318 1142.51L195.378 1114.96Z"/><path fill="#FBFBFB" d="M334.631 1198.34C343.635 1198.04 353.404 1198.23 362.468 1198.25C362.309 1207.31 362.442 1216.75 362.438 1225.83C353.169 1225.88 343.9 1225.88 334.631 1225.83L334.631 1198.34Z"/><path fill="#FBFBFB" d="M1086.65 446.343L1114.08 446.278L1114.08 473.899L1086.7 473.984C1086.3 464.902 1086.54 455.464 1086.65 446.343Z"/><path fill="#FBFBFB" d="M362.537 1115.03C371.753 1114.9 380.971 1114.83 390.188 1114.81L390.133 1142.48C380.912 1142.63 371.689 1142.66 362.468 1142.58L362.537 1115.03Z"/><path fill="#FBFBFB" d="M1086.54 390.609L1114.22 390.507C1114.28 399.818 1114.26 409.13 1114.17 418.442C1109.52 417.781 1092.66 418.294 1086.71 418.224C1086.31 408.99 1086.46 399.847 1086.54 390.609Z"/><path fill="#FBFBFB" d="M919.045 1003.59C928.229 1003.57 937.56 1003.65 946.73 1003.53L946.799 1031.21C937.562 1031.61 928.313 1031.6 919.077 1031.19C919.085 1022.2 919.274 1012.53 919.045 1003.59Z"/><path fill="#FBFBFB" d="M613.138 1142.69L640.771 1142.69L640.771 1170.13C631.621 1170.29 622.47 1170.28 613.32 1170.12C613.11 1160.98 613.05 1151.84 613.138 1142.69Z"/><path fill="#FBFBFB" d="M863.803 725.28C867.131 725.289 874.078 724.365 876.039 726.888C872.222 735.541 871.376 738.995 871.231 748.473C870.898 749.757 870.663 750.579 870.217 751.826C868.472 753.136 865.759 752.686 863.431 752.628C863.432 744.605 863.14 733.012 863.803 725.28Z"/><path fill="#FBFBFB" d="M1142.27 446.255L1170.21 446.35L1170.2 474.126C1179.53 473.99 1188.86 473.943 1198.19 473.987L1198.18 501.78L1225.94 501.78L1225.98 529.607C1216.82 529.605 1207.33 529.727 1198.2 529.523L1198.2 557.753C1189.63 557.411 1178.97 557.701 1170.23 557.69L1170.24 529.571C1161.06 529.734 1151.59 529.591 1142.39 529.562C1142.25 520.276 1142.22 510.99 1142.29 501.703C1133.01 501.823 1123.73 501.797 1114.45 501.623L1114.34 474.236L1142.36 474.236C1142.32 479.328 1142.15 484.394 1142.82 489.441C1143.25 484.602 1143.16 479.422 1143.17 474.536C1145.64 474.577 1147.51 474.493 1149.97 474.331C1148.21 473.738 1144.47 473.912 1142.4 473.89C1141.98 465.62 1142.28 454.725 1142.27 446.255Z"/><path fill="#FBFBFB" d="M223.191 864.359L250.979 864.274C250.909 873.568 250.917 882.862 251.002 892.156C260.26 892.3 269.519 892.334 278.777 892.26C278.798 899.549 279.25 913.439 278.751 920.139L306.722 920.181C306.71 929.336 306.584 938.742 306.727 947.875C298.643 947.435 287.266 947.778 278.926 947.769C278.373 955.351 278.716 967.642 278.713 975.449C269.714 976.064 260.083 975.858 251.071 975.445C250.637 966.405 250.892 956.911 250.995 947.823C242.696 947.444 231.898 947.768 223.403 947.772C222.694 939.899 222.993 928.2 223.013 920.001L195.377 919.875C195.264 910.735 195.346 901.426 195.335 892.271C204.62 892.155 213.906 892.167 223.191 892.306L223.191 864.359Z"/><path fill="#FBFBFB" d="M306.727 947.875C315.535 947.874 326.2 948.174 334.844 947.847C334.646 957.234 334.927 966.584 334.747 975.843C343.98 975.69 353.214 975.647 362.448 975.714C362.44 984.857 362.6 994.569 362.377 1003.67L390.081 1003.55C390.394 1012.82 390.197 1022.15 390.055 1031.43L362.457 1031.43L362.471 1059.25C356.783 1058.74 340.878 1059.12 334.716 1059.18C334.417 1049.57 334.471 1040.71 334.621 1031.09C324.897 1031.47 316.504 1031.4 306.774 1031.18L306.689 1003.54L334.92 1003.62C334.01 997.16 334.536 982.791 334.64 975.571C325.724 976.003 315.709 975.749 306.781 975.563L306.727 947.875Z"/><path fill="#FBFBFB" d="M640.928 836.482L668.659 836.345C668.696 840.088 669.411 862.014 667.9 864.111C658.93 864.367 649.725 864.21 640.732 864.152L640.771 892.085C631.625 892.195 622.479 892.191 613.333 892.075C613.259 883.606 612.882 872.322 613.452 864.1C603.879 864.475 594.869 864.3 585.281 864.133L585.315 836.44C594.544 836.328 603.873 836.393 613.111 836.39L613.252 864.231L640.874 864.26C640.432 856.281 640.867 844.724 640.928 836.482Z"/><path fill="#FBFBFB" d="M306.729 836.349C315.988 836.365 325.485 836.275 334.723 836.464L334.707 864.102C325.394 864.402 316.074 864.439 306.759 864.213L306.732 892.188L279.057 892.145C278.361 884.014 278.664 872.496 278.824 864.265L306.815 864.259C306.683 855.016 306.752 845.608 306.729 836.349Z"/><path fill="#FBFBFB" d="M111.78 752.929L139.513 752.835L139.555 780.792C130.794 780.795 120.196 781.074 111.582 780.664L111.467 808.542L83.7889 808.542C83.4418 799.354 83.5805 789.988 83.6263 780.78L111.55 780.769C111.443 771.488 111.519 762.207 111.78 752.929Z"/><path fill="#FBFBFB" d="M529.592 1003.55C538.874 1003.64 548.156 1003.65 557.438 1003.58C557.299 1012.79 557.242 1022 557.269 1031.22C548.157 1031.3 538.709 1031.51 529.624 1031.39C529.613 1040.14 529.863 1050.54 529.474 1059.16C520.377 1059.16 510.75 1059.32 501.697 1059.09C501.474 1049.89 501.418 1040.68 501.529 1031.48C510.15 1031.36 521.355 1031.7 529.643 1031.26C529.498 1022.02 529.481 1012.79 529.592 1003.55Z"/><path fill="#FBFBFB" d="M1142.26 669.283L1170.31 669.156C1170.23 678.558 1170.23 687.961 1170.31 697.363C1179.6 697.237 1188.88 697.229 1198.16 697.34L1198.19 724.912L1170.23 724.937L1170.26 697.103C1160.95 697.113 1151.64 697.035 1142.34 696.868L1142.26 669.283Z"/><path fill="#FBFBFB" d="M1114.31 529.692C1123.66 529.806 1133.02 529.82 1142.38 529.732C1142.25 539.069 1142.21 548.408 1142.26 557.746C1133.06 557.721 1123.4 557.836 1114.24 557.544L1114.25 584.91C1112.11 586.066 1090.75 585.441 1086.83 585.37C1086.43 575.853 1086.83 567.042 1086.61 557.747C1094.77 557.71 1106.43 558.023 1114.31 557.514C1114.31 548.364 1114.47 538.806 1114.31 529.692Z"/><path fill="#FBFBFB" d="M362.465 836.376C371.604 836.397 381.083 836.257 390.175 836.426L390.203 864.274L417.892 864.274C417.916 868.514 418.49 890.032 417.194 892.133C408.347 892.143 399.16 892.28 390.342 892.108C390.25 882.791 390.218 873.473 390.247 864.155C380.996 864.328 371.743 864.341 362.492 864.192L362.465 836.376Z"/><path fill="#FBFBFB" d="M668.716 753.014C678.054 752.9 687.392 752.84 696.73 752.835C696.726 762.141 696.674 771.448 696.574 780.754L724.353 780.891C724.477 790.096 724.441 799.303 724.244 808.506L696.637 808.542C696.31 799.663 696.518 789.683 696.518 780.722L668.73 780.785C668.419 771.784 668.652 762.072 668.716 753.014Z"/><path fill="#FBFBFB" d="M167.471 474.236L195.242 474.236L195.248 501.664C185.936 501.812 176.794 501.987 167.483 501.786C166.865 509.786 167.445 521.033 167.396 529.501L139.668 529.685C139.564 520.442 139.551 511.198 139.629 501.955L167.471 501.79L167.471 474.236Z"/><path fill="#FBFBFB" d="M652.417 780.995C656.572 780.494 664.198 780.771 668.629 780.805L668.743 808.53C659.446 808.723 650.147 808.726 640.849 808.541C640.797 817.778 640.818 827.015 640.914 836.252L630.215 836.331L613.299 836.333C613.004 828.747 612.963 816.268 613.334 808.879C622.558 808.72 631.785 808.72 641.009 808.879C640.462 800.708 640.747 789.274 640.96 781.001L652.417 780.995Z"/><path fill="#FBFBFB" d="M1058.56 529.788L1086.63 529.789L1086.63 557.682C1077.3 557.735 1067.98 557.701 1058.65 557.58C1058.34 548.511 1058.52 538.902 1058.56 529.788Z"/><path fill="#FBFBFB" d="M529.622 1086.82L529.584 1114.72C520.316 1114.86 511.045 1114.83 501.778 1114.63C501.231 1106.14 501.507 1095.55 501.525 1086.89L529.622 1086.82Z"/><path fill="#FBFBFB" d="M111.546 1086.84C120.176 1086.87 131.22 1087.23 139.647 1086.86C139.285 1095.54 139.546 1105.9 139.547 1114.71C129.922 1114.84 121.229 1114.84 111.623 1114.45C111.395 1105.45 111.549 1095.89 111.546 1086.84Z"/><path fill="#FBFBFB" d="M251.004 362.489C250.779 371.479 250.98 381.332 250.977 390.392C241.678 390.483 232.378 390.496 223.079 390.432C222.73 381.842 223.006 371.349 223 362.612C232.335 362.666 241.67 362.625 251.004 362.489Z"/><path fill="#FBFBFB" d="M139.668 529.685C139.554 539.041 139.514 548.397 139.549 557.753L111.612 557.639C111.292 548.554 111.535 538.897 111.684 529.803C121.012 529.843 130.341 529.804 139.668 529.685Z"/><path fill="#FBFBFB" d="M111.536 585.752C120.595 585.447 130.475 585.632 139.58 585.788L139.588 613.506C130.272 613.427 120.957 613.397 111.641 613.416C111.441 604.196 111.406 594.974 111.536 585.752Z"/><path fill="#FBFBFB" d="M306.822 808.681C306.773 800.306 307.09 788.865 306.665 780.758L334.769 780.719C334.789 789.256 335.107 800.52 334.459 808.811C325.247 808.669 316.034 808.626 306.822 808.681Z"/><path fill="#FBFBFB" d="M111.601 641.638C120.925 641.347 130.253 641.2 139.582 641.195L139.459 669.065L111.629 669.246C111.337 660.341 111.559 650.608 111.601 641.638Z"/><path fill="#FBFBFB" d="M502.321 697.157C511.163 696.766 521.487 697.748 529.597 697.056C529.652 706.144 529.881 715.955 529.469 724.966L501.791 724.869C501.549 720.993 500.711 699.009 502.321 697.157Z"/><path fill="#FBFBFB" d="M1170.23 975.841C1179.55 975.665 1188.87 975.582 1198.2 975.59L1198.22 1003.62C1188.96 1003.44 1179.7 1003.39 1170.44 1003.47C1169.86 995.492 1170.23 984.142 1170.23 975.841Z"/><path fill="#FBFBFB" d="M334.682 864.367L362.472 864.231L362.492 892.19L334.764 892.158C334.295 886.326 334.134 870.312 334.682 864.367Z"/><path fill="#FBFBFB" d="M251.022 334.801C260.588 334.425 269.15 334.549 278.708 334.64C278.912 343.839 278.671 353.22 278.693 362.439C269.464 362.575 260.233 362.591 251.004 362.489C250.752 353.261 250.758 344.029 251.022 334.801Z"/><path fill="#FBFBFB" d="M83.7591 947.984C93.0179 947.87 102.278 947.841 111.537 947.897C111.66 954.441 112.119 969.322 111.258 975.441C102.625 975.965 92.5634 975.81 83.9268 975.575C83.1722 966.72 83.5816 956.927 83.7591 947.984Z"/><path fill="#FBFBFB" d="M167.448 641.469C176.647 641.341 186.074 641.105 195.249 641.295L195.331 669.197C186.074 669.1 176.817 669.086 167.56 669.155C167.242 661.558 166.985 648.97 167.448 641.469Z"/><path fill="#FBFBFB" d="M946.915 864.425C956.195 864.235 965.433 863.999 974.711 864.413L974.803 892.181L946.927 892.116C946.619 884.029 946.506 872.462 946.915 864.425Z"/><path fill="#FBFBFB" d="M473.916 1086.83C473.435 1094.7 473.803 1106.59 473.797 1114.77C464.707 1114.59 455.17 1115.19 446.243 1114.47C445.512 1111.9 445.883 1090.94 445.913 1086.95L473.916 1086.83Z"/><path fill="#FBFBFB" d="M223.187 418.386C232.397 418.25 241.768 418.312 250.994 418.284L250.917 446.142C241.708 446.295 232.321 446.239 223.096 446.276C222.933 436.98 222.963 427.681 223.187 418.386Z"/><path fill="#FBFBFB" d="M55.9546 529.787L83.7234 529.788C83.7837 539.026 83.9523 548.442 83.5875 557.657C74.4007 557.739 65.2134 557.749 56.0264 557.687C55.3961 550.396 55.8487 537.284 55.9546 529.787Z"/><path fill="#FBFBFB" d="M83.7358 1003.57C92.9518 1003.59 102.458 1003.74 111.648 1003.61C111.667 1012.87 111.628 1022.13 111.532 1031.39C102.292 1031.46 93.0507 1031.41 83.8116 1031.24C83.0882 1024.41 83.6831 1011.07 83.7358 1003.57Z"/><path fill="#FBFBFB" d="M585.281 1086.83C585.028 1095.79 585.235 1105.77 585.222 1114.81C575.957 1114.86 566.691 1114.82 557.426 1114.7C557.173 1105.86 557.39 1095.93 557.381 1087C566.55 1086.8 576.091 1086.87 585.281 1086.83Z"/><path fill="#FBFBFB" d="M1142.77 836.526C1151.77 836.341 1161.14 836.446 1170.17 836.42C1170.16 843.204 1170.98 858.235 1169.93 864.11C1160.7 864.308 1151.47 864.317 1142.24 864.137C1142.35 859.177 1141.71 840.056 1142.77 836.526Z"/><path fill="#FBFBFB" d="M1114.37 752.936C1123.68 752.784 1132.99 752.801 1142.29 752.986C1142.17 762.208 1142.14 771.432 1142.21 780.655C1132.96 780.783 1123.71 780.815 1114.46 780.751C1114.28 771.481 1114.25 762.208 1114.37 752.936Z"/><path fill="#FBFBFB" d="M668.757 864.274L696.49 864.274L696.49 892.129L668.672 892.141C668.602 882.852 668.63 873.563 668.757 864.274Z"/><path fill="#FBFBFB" d="M278.753 975.757C287.874 975.729 297.665 975.868 306.729 975.541C306.727 984.686 306.903 994.449 306.689 1003.54L279.048 1003.46C278.556 994.245 278.703 984.99 278.753 975.757Z"/><path fill="#FBFBFB" d="M529.618 780.781C538.747 780.634 548.264 780.773 557.424 780.773C557.459 790.014 557.364 799.255 557.138 808.493C547.97 808.762 538.796 808.771 529.627 808.521C529.472 799.275 529.469 790.027 529.618 780.781Z"/><path fill="#FBFBFB" d="M1041.77 501.784C1047.37 501.747 1052.97 501.8 1058.57 501.942L1058.44 529.531L1046.89 529.568L1030.6 529.582C1030.32 520.742 1030.55 510.856 1030.55 501.937L1041.77 501.784Z"/><path fill="#FBFBFB" d="M306.732 892.188L334.741 892.233C334.744 901.299 334.929 910.979 334.744 919.99C325.427 920.079 316.11 920.036 306.795 919.859L306.732 892.188Z"/><path fill="#FBFBFB" d="M724.298 1086.84C733.539 1086.87 743.229 1087.05 752.433 1086.84L752.097 1114.69C742.85 1114.91 733.6 1114.89 724.355 1114.61L724.298 1086.84Z"/><path fill="#FBFBFB" d="M250.963 836.471C260.209 836.337 269.455 836.341 278.701 836.481C278.619 845.699 278.666 854.917 278.842 864.134C269.808 864.453 260.08 864.276 251.041 864.107C250.725 854.584 250.788 846.01 250.963 836.471Z"/><path fill="#FBFBFB" d="M445.929 975.816C455.237 975.68 464.547 975.646 473.856 975.714L473.85 1003.56C464.552 1003.35 455.355 1003.55 446.092 1003.43C445.886 994.227 445.832 985.021 445.929 975.816Z"/><path fill="#FBFBFB" d="M83.8288 669.285C93.095 669.168 102.362 669.155 111.629 669.246L111.49 696.952C102.331 696.838 93.1276 697.47 83.9438 696.837C83.0263 689.234 83.6403 677.163 83.8288 669.285Z"/><path fill="#FBFBFB" d="M724.312 1059.27C724.397 1051.07 724.395 1042.75 724.033 1034.54C723.974 1033.19 724.632 1032.59 725.416 1031.67C727.912 1030.84 746.94 1031.55 751.519 1031.55C753.051 1033.84 752.287 1055.08 752.128 1059.09L724.312 1059.27Z"/><path fill="#FBFBFB" d="M195.324 529.622L195.238 557.583C188.638 557.72 173.651 558.225 167.427 557.341L167.329 529.699C176.55 529.753 186.145 529.938 195.324 529.622Z"/><path fill="#FBFBFB" d="M418.117 1003.56C427.409 1003.65 436.702 1003.64 445.994 1003.55C445.981 1012.51 445.75 1022.28 445.985 1031.15C436.558 1031.48 427.609 1031.4 418.17 1031.3C417.976 1022.06 417.959 1012.81 418.117 1003.56Z"/><path fill="#FBFBFB" d="M139.555 780.792L167.465 780.746L167.249 808.76C158.83 808.345 148.111 808.65 139.615 808.687C139.45 799.523 139.57 789.988 139.555 780.792Z"/><path fill="#FBFBFB" d="M111.534 697.369C120.828 697.354 130.215 697.27 139.5 697.372C139.513 705.76 139.186 716.823 139.577 724.978C130.938 724.648 120.368 724.941 111.576 724.943C111.487 715.752 111.473 706.56 111.534 697.369Z"/><path fill="#FBFBFB" d="M696.679 725.011C705.746 724.83 715.205 724.939 724.304 724.91C724.359 734.181 724.326 743.453 724.204 752.724C715.152 753.064 705.844 752.828 696.766 752.705C696.334 744.357 696.327 733.344 696.679 725.011Z"/><path fill="#FBFBFB" d="M839.302 752.816L863.425 752.717C863.464 756.599 864.164 779.078 862.773 780.729L860.441 780.827L835.775 780.695C835.586 775.102 834.364 759.345 836.38 753.655C836.612 752.999 838.356 752.963 839.302 752.816Z"/><path fill="#FBFBFB" d="M1030.53 557.824C1039.64 557.594 1049.39 557.732 1058.56 557.693L1058.45 585.454C1049.51 585.648 1039.61 585.393 1030.59 585.358C1030.38 576.385 1030.53 566.84 1030.53 557.824Z"/><path fill="#FBFBFB" d="M167.479 697.4C176.728 697.128 185.983 697.109 195.233 697.341C195.25 706.146 195.015 716.291 195.324 724.98C186.04 724.875 176.66 724.945 167.369 724.947C167.289 715.764 167.326 706.581 167.479 697.4Z"/><path fill="#FBFBFB" d="M56.2809 641.382L83.7211 641.351C83.8269 650.59 83.8047 659.83 83.6544 669.068C74.55 669.273 65.084 669.151 55.9506 669.153C55.8198 662.89 55.3147 647.188 56.2809 641.382Z"/><path fill="#FBFBFB" d="M1114.32 975.884C1118.42 975.791 1140.32 975.01 1142.41 975.972C1142.27 985.135 1142.21 994.298 1142.23 1003.46C1133.51 1003.46 1122.84 1003.16 1114.29 1003.51L1114.32 975.884Z"/><path fill="#FBFBFB" d="M1114.37 362.737C1123.39 362.433 1133.12 362.579 1142.2 362.559C1142.31 371.766 1142.31 380.974 1142.19 390.181C1132.77 390.574 1123.74 390.482 1114.31 390.408L1114.37 362.737Z"/><path fill="#FBFBFB" d="M250.97 725.02C260.057 725.014 269.723 724.845 278.763 725.087C278.653 734.301 278.67 743.515 278.814 752.728C269.582 752.799 260.222 752.971 251.01 752.559C250.724 743.382 250.711 734.198 250.97 725.02Z"/><path fill="#FBFBFB" d="M919.124 836.433C928.32 836.309 937.518 836.339 946.714 836.525C946.737 844.247 947.194 856.869 946.597 864.095C938.089 864.664 927.828 864.348 919.15 864.258C919.011 854.983 919.002 845.708 919.124 836.433Z"/><path fill="#FBFBFB" d="M1148.23 892.434C1155.05 891.919 1163.23 892.202 1170.16 892.266C1170.27 901.386 1170.16 910.688 1170.15 919.824L1164.47 919.983C1157.23 920.086 1149.68 919.938 1142.42 919.889C1141.99 911.52 1142.31 901.09 1142.22 892.44L1148.23 892.434Z"/><path fill="#FBFBFB" d="M418.117 947.865L446.042 947.965C446.039 956.931 445.862 966.531 446.09 975.445C437.554 975.796 426.736 975.924 418.176 975.58C418.016 966.343 417.997 957.103 418.117 947.865Z"/><path fill="#FBFBFB" d="M740.432 975.708C744.028 975.451 748.551 975.505 752.198 975.508C752.323 984.832 752.327 994.157 752.21 1003.48L737.368 1003.48L724.315 1003.4L724.38 975.896C729.206 975.582 735.498 975.731 740.432 975.708Z"/><path fill="#FBFBFB" d="M1017.44 1031.41L1030.54 1031.55L1030.47 1059.02L1016.12 1059.2L1002.57 1059.15C1002.27 1050.28 1002.48 1040.53 1002.5 1031.59L1017.44 1031.41Z"/><path fill="#FBFBFB" d="M473.892 836.337C483.101 836.434 492.309 836.454 501.518 836.397C501.606 845.648 501.625 854.9 501.578 864.151C492.323 864.322 483.065 864.307 473.811 864.104L473.892 836.337Z"/><path fill="#FBFBFB" d="M83.8313 1059.33L111.672 1059.18C111.703 1068.4 111.662 1077.62 111.546 1086.84C103.496 1086.41 92.2285 1086.82 83.9069 1086.88C83.1399 1078.31 83.5769 1067.98 83.8313 1059.33Z"/><path fill="#FBFBFB" d="M139.593 669.202L167.347 669.178C167.25 678.284 167.874 687.804 167.124 696.887C158.141 697.178 148.623 697.092 139.598 697.152C139.466 687.836 139.464 678.518 139.593 669.202Z"/><path fill="#FBFBFB" d="M195.278 752.689L195.224 780.745L167.559 780.827C166.961 773.1 167.321 761.108 167.33 753.066C175.435 752.421 186.91 752.707 195.278 752.689Z"/><path fill="#FBFBFB" d="M1142.26 947.971C1151.41 947.769 1161.03 947.917 1170.21 947.92L1170.13 975.451C1161.09 976.087 1151.31 975.815 1142.26 975.566L1142.26 947.971Z"/><path fill="#FBFBFB" d="M111.542 1031.58C120.471 1031.52 130.733 1031.71 139.547 1031.36L139.532 1059.14C131.066 1059.13 119.918 1058.77 111.672 1059.18C111.516 1049.98 111.473 1040.78 111.542 1031.58Z"/><path fill="#FBFBFB" d="M167.369 724.947C166.992 733.319 167.321 744.084 167.239 752.748C158.019 752.869 148.798 752.858 139.579 752.714C139.65 743.469 139.65 734.224 139.577 724.978C148.841 725.041 158.105 725.031 167.369 724.947Z"/><path fill="#FBFBFB" d="M334.631 697.399L362.446 697.214L362.469 725.001C353.189 725.032 343.91 724.994 334.631 724.887L334.631 697.399Z"/><path fill="#FBFBFB" d="M1086.53 1003.68L1114.29 1003.51C1114.18 1012.69 1114.31 1022.05 1114.34 1031.24C1110.4 1031.33 1089.18 1032.22 1086.64 1030.68C1086.45 1021.8 1086.55 1012.59 1086.53 1003.68Z"/><path fill="#FBFBFB" d="M390.167 920.229L418.144 920.171L418.117 947.865C408.966 947.593 399.489 947.764 390.307 947.818L390.167 920.229Z"/><path fill="#FBFBFB" d="M362.492 892.19C371.708 892.159 380.925 892.183 390.141 892.263C390.167 896.299 390.747 918.215 389.502 919.988C380.51 920.025 371.517 920.015 362.525 919.957C362.464 910.701 362.453 901.446 362.492 892.19Z"/><path fill="#FBFBFB" d="M473.926 1031.14C473.518 1039.47 473.823 1050.41 473.807 1058.95C464.593 1059.1 455.379 1059.21 446.165 1059.26C445.732 1050.16 445.905 1040.72 445.983 1031.6C453.787 1031.45 466.642 1031.92 473.926 1031.14Z"/><path fill="#FBFBFB" d="M585.398 892.293C594.603 892.186 603.809 892.182 613.014 892.279C613.139 901.489 613.127 910.7 612.978 919.91C603.76 920.021 594.541 920.007 585.323 919.869C585.026 911.112 585.321 901.14 585.398 892.293Z"/><path fill="#FBFBFB" d="M83.7486 557.845C93.048 557.732 102.348 557.702 111.648 557.757C111.624 564.765 111.968 578.945 111.227 585.379C102.096 585.436 92.9637 585.418 83.8323 585.325C83.5924 576.167 83.5644 567.004 83.7486 557.845Z"/><path fill="#FBFBFB" d="M572.841 697.098L585.183 697.371L585.262 724.947L572.046 724.902L557.352 724.939L557.496 697.376L572.841 697.098Z"/><path fill="#FBFBFB" d="M278.852 585.922C288.037 585.643 297.502 585.712 306.713 585.674L306.671 613.366C297.619 613.526 288.275 613.426 279.199 613.445C278.421 604.617 278.753 594.857 278.852 585.922Z"/><path fill="#FBFBFB" d="M69.5942 585.668L83.7347 585.583L83.6906 613.339L72.354 613.491L55.9688 613.414C55.6008 604.791 55.8513 594.64 55.86 585.906L69.5942 585.668Z"/><path fill="#FBFBFB" d="M640.884 1114.81C650.133 1114.69 659.384 1114.74 668.631 1114.95C668.735 1124.18 668.736 1133.42 668.632 1142.65L640.96 1142.58C640.641 1133.47 640.827 1123.96 640.884 1114.81Z"/><path fill="#FBFBFB" d="M250.887 1114.81L278.855 1114.87C278.476 1123.33 278.82 1133.96 278.869 1142.58C269.584 1142.71 260.297 1142.69 251.012 1142.51C250.764 1133.28 250.723 1124.05 250.887 1114.81Z"/><path fill="#FBFBFB" d="M585.607 780.874C593.718 780.697 605.266 780.379 613.217 781.051C613.315 790.216 613.215 799.382 612.919 808.542L585.331 808.542C585.37 803.371 584.695 784.727 585.607 780.874Z"/><path fill="#FBFBFB" d="M55.8445 975.952C65.2699 975.337 74.7422 976.037 83.7892 975.556L83.7358 1003.57L56.0056 1003.41C55.8645 994.26 55.8108 985.106 55.8445 975.952Z"/><path fill="#FBFBFB" d="M569.844 1031.42C574.821 1031.35 580.22 1031.5 585.233 1031.54L585.213 1059.08L574.782 1059.18L557.542 1059.18C557.186 1050.1 557.36 1040.6 557.403 1031.48C561.543 1031.58 565.702 1031.48 569.844 1031.42Z"/><path fill="#FBFBFB" d="M223.021 585.952C231.811 585.482 241.908 585.662 250.764 585.812C251.152 594.807 250.873 604.392 251.006 613.501L223.248 613.433C223.006 604.12 223.112 595.216 223.021 585.952Z"/><path fill="#FBFBFB" d="M184.043 1031.42L195.337 1031.54L195.212 1058.93L180.238 1059.21L167.569 1059.15C167.095 1050.12 167.323 1040.66 167.402 1031.59L184.043 1031.42Z"/><path fill="#FBFBFB" d="M83.8116 1031.24C83.5676 1040.21 83.765 1050.13 83.7511 1059.18C74.5346 1059.25 65.3177 1059.16 56.1043 1058.91C55.9497 1049.49 55.8627 1041.09 56.0664 1031.63C65.2966 1031.4 74.6319 1031.73 83.8116 1031.24Z"/><path fill="#FBFBFB" d="M167.249 808.76L195.38 808.842L195.233 836.281C185.982 836.367 176.731 836.383 167.48 836.328C167.221 827.135 167.564 817.726 167.249 808.76Z"/><path fill="#FBFBFB" d="M251.006 613.501C260.247 613.588 269.488 613.604 278.73 613.55C278.712 622.186 278.432 632.599 278.853 641.092C269.474 641.504 260.262 641.249 250.885 641.077C250.844 631.885 250.885 622.693 251.006 613.501Z"/><path fill="#FBFBFB" d="M167.362 585.879C176.348 585.455 186.182 585.675 195.243 585.715L195.255 613.511L167.399 613.427C167.294 604.245 167.282 595.062 167.362 585.879Z"/><path fill="#FBFBFB" d="M279.459 1031.31C286.079 1031.75 300.113 1031.62 306.728 1031.34C306.78 1039.2 307.16 1051.54 306.503 1059.08L279.09 1059.15C278.809 1055.59 278.232 1033.26 279.459 1031.31Z"/><path fill="#FBFBFB" d="M473.85 1003.56C483.092 1003.64 492.335 1003.66 501.577 1003.61C501.601 1012.79 501.57 1021.96 501.484 1031.14C492.302 1031.5 483.109 1031.5 473.926 1031.14C473.694 1022.21 473.863 1012.55 473.85 1003.56Z"/><path fill="#FBFBFB" d="M501.539 975.752L529.571 975.714C529.597 984.784 529.805 994.534 529.592 1003.55L501.639 1003.46C501.458 994.223 501.425 984.987 501.539 975.752Z"/><path fill="#FBFBFB" d="M139.549 557.753L167.44 557.676C167.488 565.018 167.905 578.396 167.272 585.432C158.247 585.467 148.573 585.321 139.606 585.557L139.549 557.753Z"/><path fill="#FBFBFB" d="M334.686 920.27C343.784 920.196 353.366 919.973 362.424 920.155L362.424 947.736C354.396 947.749 342.553 947.383 334.844 947.847C334.096 939.325 334.448 928.898 334.686 920.27Z"/><path fill="#FBFBFB" d="M643.441 1003.63L668.671 1003.64C668.719 1008.23 669.381 1028.14 667.93 1030.92L666.291 1031.27C658.576 1031.74 648.781 1031.41 641.057 1031.16C640.941 1026.1 640.045 1007.58 641.65 1004.15L643.441 1003.63Z"/><path fill="#FBFBFB" d="M195.34 446.379C204.563 446.224 213.787 446.213 223.011 446.348C223.174 455.571 223.165 464.797 222.986 474.021L195.374 473.972L195.34 446.379Z"/><path fill="#FBFBFB" d="M278.76 1142.8C287.231 1142.38 298.112 1142.66 306.767 1142.64L306.711 1170.1C297.522 1170.31 288.33 1170.32 279.141 1170.12C278.503 1161.11 278.703 1151.84 278.76 1142.8Z"/><path fill="#FBFBFB" d="M1142.22 557.854L1170.17 557.657C1170.2 562.523 1170.55 581.401 1169.82 584.958L1168.93 585.382C1160.08 585.607 1151.22 585.591 1142.37 585.335C1142.03 576.603 1142.23 566.635 1142.22 557.854Z"/><path fill="#FBFBFB" d="M195.331 669.197C204.549 669.249 213.767 669.252 222.984 669.209C223 678.402 223.08 687.675 222.984 696.861C214.048 696.934 204.255 697.198 195.387 696.939L195.331 669.197Z"/><path fill="#FBFBFB" d="M418.203 1086.83L418.114 1114.84L390.24 1114.68C390.035 1105.71 390.311 1096.08 390.226 1086.96L418.203 1086.83Z"/><path fill="#FBFBFB" d="M1142.26 390.58L1170.17 390.596L1170.2 418.187C1160.89 418.261 1151.58 418.257 1142.27 418.175L1142.26 390.58Z"/><path fill="#FBFBFB" d="M111.576 724.943L111.456 752.822L83.8835 752.72C83.3478 743.592 83.6632 734.241 83.8232 725.079C92.9365 724.872 102.431 724.973 111.576 724.943Z"/><path fill="#FBFBFB" d="M195.265 781.001L223.09 781.001L222.98 808.807L195.437 808.537L195.265 781.001Z"/><path fill="#FBFBFB" d="M1086.65 836.497C1095.79 836.343 1104.94 836.327 1114.08 836.45C1114.12 843.355 1114.54 857.855 1113.81 864.185C1104.82 864.307 1095.82 864.288 1086.82 864.128C1086.06 855.931 1086.51 844.838 1086.65 836.497Z"/><path fill="#FBFBFB" d="M390.35 808.856C399.461 808.652 408.995 808.8 418.138 808.812L418.153 836.349C408.886 836.407 399.618 836.386 390.35 836.286L390.35 808.856Z"/><path fill="#FBFBFB" d="M1086.64 501.987C1094.97 501.599 1105.83 501.597 1114.18 502.071C1114.21 511.249 1114.17 520.524 1114.31 529.692L1086.76 529.582C1086.34 520.304 1086.53 511.271 1086.64 501.987Z"/><path fill="#FBFBFB" d="M1198.24 836.416L1225.92 836.385L1225.96 864.108C1216.97 864.292 1207.28 864.422 1198.29 864.102L1198.24 836.416Z"/><path fill="#FBFBFB" d="M1170.25 585.784C1179.48 585.768 1188.98 585.641 1198.18 585.819C1198.2 594.648 1197.96 604.781 1198.25 613.496C1188.93 613.382 1179.61 613.353 1170.29 613.408L1170.25 585.784Z"/><path fill="#FBFBFB" d="M1170.23 724.937C1169.92 733.481 1170.2 743.993 1170.18 752.706C1160.91 752.882 1151.64 752.869 1142.37 752.668L1142.32 725.006C1151.62 725.047 1160.93 725.024 1170.23 724.937Z"/><path fill="#FBFBFB" d="M1114.35 697.369C1123.65 697.273 1132.95 697.236 1142.25 697.259L1142.25 724.918L1114.33 724.905L1114.35 697.369Z"/><path fill="#FBFBFB" d="M668.672 892.141L668.667 919.823C659.441 919.926 650.215 919.966 640.988 919.943C640.526 911.105 640.829 901.313 641.007 892.462C650.046 892.097 659.589 892.188 668.672 892.141Z"/><path fill="#FBFBFB" d="M752.324 1003.6L780.113 1003.62C780.203 1012.54 780.313 1022.38 779.961 1031.22C770.605 1031.36 761.795 1031.47 752.45 1031.18C752.352 1021.99 752.31 1012.8 752.324 1003.6Z"/><path fill="#FBFBFB" d="M1170.43 808.876L1198.18 808.769L1198.24 836.416C1189.12 836.361 1179.48 836.499 1170.43 836.266L1170.43 808.876Z"/><path fill="#FBFBFB" d="M668.772 1031.39C677.064 1031.83 688.006 1031.46 696.49 1031.4L696.49 1059.19L668.788 1059.03C668.693 1049.82 668.687 1040.61 668.772 1031.39Z"/><path fill="#FBFBFB" d="M1142.2 613.635L1170.12 613.6C1170.19 622.322 1170.48 632.492 1169.97 641.077C1160.79 641.16 1151.6 641.175 1142.41 641.122C1141.89 633.165 1142.31 622.007 1142.2 613.635Z"/><path fill="#FBFBFB" d="M724.312 1059.27L724.298 1086.84C715.304 1086.6 705.773 1086.74 696.738 1086.74C696.217 1078.15 696.388 1067.9 696.653 1059.32L724.312 1059.27Z"/><path fill="#FBFBFB" d="M195.346 501.969C204.543 501.636 213.75 501.656 222.946 502.027C222.993 511.152 222.937 520.477 223.109 529.582L195.324 529.622L195.346 501.969Z"/><path fill="#FBFBFB" d="M585.284 1003.67C594.563 1003.6 603.842 1003.58 613.121 1003.61C613.182 1012.8 613.155 1021.99 613.039 1031.18C603.799 1031.37 594.555 1031.38 585.314 1031.21L585.284 1003.67Z"/><path fill="#FBFBFB" d="M83.878 613.596L111.595 613.552C111.529 620.75 112.098 634.348 111.226 641.108C102.121 641.171 93.0145 641.175 83.9086 641.119C83.3084 633.224 83.7465 621.728 83.878 613.596Z"/><path fill="#FBFBFB" d="M1198.22 1003.62L1225.93 1003.56C1225.99 1012.76 1225.99 1021.97 1225.95 1031.17C1216.44 1031.4 1207.83 1031.59 1198.3 1031.09L1198.22 1003.62Z"/><path fill="#FBFBFB" d="M1142.25 1059.32L1170.23 1059.28C1170.24 1066.57 1170.64 1079.95 1169.95 1086.75L1142.31 1086.77L1142.25 1059.32Z"/><path fill="#FBFBFB" d="M1170.43 418.516L1198.15 418.516L1198.18 446.058L1170.43 446.058L1170.43 418.516Z"/><path fill="#FBFBFB" d="M807.942 1059.33C817.123 1059.26 826.303 1059.26 835.484 1059.33C835.704 1068.46 835.698 1077.58 835.465 1086.7C826.4 1086.85 817.135 1086.76 808.054 1086.77C807.461 1077.5 807.63 1068.61 807.942 1059.33Z"/><path fill="#FBFBFB" d="M362.469 725.001L390.115 725.051C390.222 734.245 390.221 743.441 390.111 752.636C381.31 752.844 371.342 753.04 362.543 752.535L362.469 725.001Z"/><path fill="#FBFBFB" d="M473.932 1059.33C483.136 1059.17 492.342 1059.14 501.546 1059.25C501.645 1068.46 501.639 1077.68 501.525 1086.89C494.341 1086.39 481.525 1086.82 473.916 1086.83C473.872 1077.66 473.877 1068.5 473.932 1059.33Z"/><path fill="#FBFBFB" d="M278.911 808.832C288.194 808.767 297.477 808.771 306.76 808.843L306.729 836.349C297.567 836.35 288.042 836.487 278.911 836.31L278.911 808.832Z"/><path fill="#FBFBFB" d="M390.35 975.834C399.632 975.666 408.915 975.626 418.197 975.714L418.117 1003.56C408.862 1003.47 399.606 1003.43 390.35 1003.45L390.35 975.834Z"/><path fill="#FBFBFB" d="M640.996 725.015C650.197 724.987 659.398 725.006 668.598 725.071L668.644 752.798L641.008 752.71C640.715 743.481 640.711 734.245 640.996 725.015Z"/><path fill="#FBFBFB" d="M841.775 975.709L863.384 975.597C863.434 983.761 863.791 994.781 863.194 1002.69C862.02 1003.84 861.484 1003.42 859.281 1003.5L835.818 1003.42C835.318 998.122 835.037 981.306 835.865 976.509C837.518 975.332 839.608 975.691 841.775 975.709Z"/><path fill="#FBFBFB" d="M752.3 781.001L780.136 781.001C780.153 790.25 780.115 799.499 780.022 808.748C771.259 808.407 761.514 808.665 752.449 808.414C752.24 799.431 752.34 790.019 752.3 781.001Z"/><path fill="#FBFBFB" d="M139.588 613.506L167.338 613.518C167.311 622.692 167.359 631.97 167.229 641.133C158.014 641.201 148.798 641.222 139.582 641.195L139.588 613.506Z"/><path fill="#FBFBFB" d="M167.471 1086.95C176.744 1086.9 186.016 1086.9 195.289 1086.95L195.212 1114.69L167.471 1114.67L167.471 1086.95Z"/><path fill="#FBFBFB" d="M1198.28 446.362C1207.39 446.32 1216.8 446.159 1225.88 446.338C1225.96 455.522 1225.99 464.707 1225.96 473.891L1198.19 473.987L1198.28 446.362Z"/><path fill="#FBFBFB" d="M195.3 390.641L222.969 390.603L222.992 418.186L195.433 418.3L195.3 390.641Z"/><path fill="#FBFBFB" d="M390.231 1031.69C399.53 1031.5 408.831 1031.44 418.132 1031.51C418.2 1040.7 418.155 1049.89 417.998 1059.08L390.37 1059.1C389.934 1050.86 390.232 1040.12 390.231 1031.69Z"/><path fill="#FBFBFB" d="M752.328 1059.31L780.141 1059.36L780.058 1086.86C770.85 1086.75 761.641 1086.74 752.433 1086.84C752.315 1077.66 752.28 1068.48 752.328 1059.31Z"/><path fill="#FBFBFB" d="M1198.25 613.496C1207.47 613.65 1216.69 613.664 1225.92 613.538C1226.02 622.728 1226.01 631.919 1225.88 641.109C1216.79 641.174 1207.39 641.36 1198.34 641.08C1198.39 631.885 1198.36 622.69 1198.25 613.496Z"/><path fill="#FBFBFB" d="M780.058 1086.86L807.826 1086.91C807.735 1096.17 807.692 1105.43 807.697 1114.69C798.769 1114.68 789.002 1114.87 780.144 1114.59C780.141 1105.57 780.319 1095.82 780.058 1086.86Z"/><path fill="#FBFBFB" d="M585.247 1059.33L613.203 1059.33C613.193 1068 612.849 1078.35 613.124 1086.85C603.984 1086.64 594.453 1086.8 585.281 1086.83L585.247 1059.33Z"/><path fill="#FBFBFB" d="M1198.2 557.753L1225.94 557.655C1226.02 566.895 1226 576.135 1225.89 585.374C1216.96 585.458 1207.17 585.731 1198.34 585.343L1198.2 557.753Z"/><path fill="#FBFBFB" d="M640.866 1059.33C650.13 1059.26 659.395 1059.26 668.659 1059.33L668.619 1086.78L640.802 1086.77C640.77 1077.62 640.791 1068.48 640.866 1059.33Z"/><path fill="#FBFBFB" d="M195.335 557.825L222.969 557.697C223.136 566.957 223.137 576.22 222.97 585.48C213.785 585.59 204.599 585.553 195.416 585.37L195.335 557.825Z"/><path fill="#FBFBFB" d="M362.486 780.801C371.312 780.53 381.305 780.761 390.222 780.762L390.074 808.542L362.473 808.542C362.374 799.332 362.464 790.02 362.486 780.801Z"/><path fill="#FBFBFB" d="M195.324 724.98C204.518 724.935 213.713 724.952 222.908 725.033L222.985 752.693C213.75 752.873 204.513 752.872 195.278 752.689C195.353 743.453 195.369 734.216 195.324 724.98Z"/><path fill="#FBFBFB" d="M974.803 892.181L1002.51 892.203C1002.66 901.465 1002.66 910.728 1002.51 919.989L974.853 919.872C974.788 910.642 974.771 901.411 974.803 892.181Z"/><path fill="#FBFBFB" d="M557.51 808.877C566.589 808.641 576.139 808.79 585.256 808.8L585.233 836.146C576.335 836.56 566.59 836.365 557.613 836.344C557.398 827.376 557.53 817.886 557.51 808.877Z"/><path fill="#FBFBFB" d="M613.124 1086.85L640.771 1086.84L640.771 1114.69L613.192 1114.65C613.156 1105.43 613.029 1096.06 613.124 1086.85Z"/><path fill="#FBFBFB" d="M557.51 920.295L585.051 920.082C585.049 929.378 585.445 938.423 584.987 947.724C575.679 947.885 566.914 948.013 557.616 947.741C557.469 938.593 557.434 929.444 557.51 920.295Z"/><path fill="#FBFBFB" d="M139.689 1059.34L167.484 1059.32C167.3 1068.45 167.588 1077.72 167.304 1086.75L139.647 1086.86C139.519 1077.68 139.533 1068.51 139.689 1059.34Z"/><path fill="#FBFBFB" d="M334.459 808.811L362.456 808.807L362.465 836.376L334.714 836.31C334.158 827.811 334.419 817.484 334.459 808.811Z"/><path fill="#FBFBFB" d="M362.471 1059.25L390.149 1059.28C390.181 1068.26 390.37 1077.82 390.099 1086.75C380.899 1086.8 371.699 1086.81 362.5 1086.76C362.394 1077.59 362.385 1068.42 362.471 1059.25Z"/><path fill="#FBFBFB" d="M529.598 1059.31L557.335 1059.32L557.281 1086.76C548.351 1086.78 538.467 1086.57 529.622 1086.82C529.595 1077.74 529.449 1068.37 529.598 1059.31Z"/><path fill="#FBFBFB" d="M418.135 1059.33L445.972 1059.27C446.279 1068.23 445.985 1077.75 445.845 1086.76L418.203 1086.83C418.13 1077.77 417.924 1068.34 418.135 1059.33Z"/><path fill="#FBFBFB" d="M195.255 613.511C204.422 613.567 213.752 613.717 222.905 613.646C223.069 622.807 223.096 631.97 222.987 641.131L195.3 641.136C195.316 632.326 195.574 622.215 195.255 613.511Z"/><path fill="#FBFBFB" d="M223.191 697.292C232.327 697.241 241.617 697.1 250.733 697.397L250.97 725.02L223.191 724.919L223.191 697.292Z"/><path fill="#FBFBFB" d="M613.352 920.255C622.49 920.042 631.633 920.07 640.771 920.337C640.816 925.125 641.24 943.734 640.323 947.536C632.786 948.12 621.14 947.778 613.3 947.738C613.215 938.577 613.232 929.416 613.352 920.255Z"/><path fill="#FBFBFB" d="M446.07 808.856C455.107 808.832 464.586 808.662 473.586 808.851C474.258 815.409 473.86 829.118 473.892 836.337C464.737 836.357 455.193 836.513 446.07 836.317L446.07 808.856Z"/><path fill="#FBFBFB" d="M1086.66 725.072C1095.71 724.921 1105.01 725.036 1114.08 725.043L1114.08 752.696C1105.61 753.027 1095.12 752.913 1086.67 752.571C1086.38 743.13 1086.48 734.529 1086.66 725.072Z"/><path fill="#FBFBFB" d="M1114.46 780.751C1113.72 788.648 1114.06 800.327 1114.08 808.542L1086.83 808.548C1086.46 799.229 1086.57 790.352 1086.67 781.019C1095.93 780.794 1105.2 780.705 1114.46 780.751Z"/><path fill="#FBFBFB" d="M473.987 892.276C483.168 892.156 492.35 892.132 501.532 892.205C501.706 901.311 501.522 910.843 501.473 919.982L473.931 919.953C473.75 910.728 473.769 901.5 473.987 892.276Z"/><path fill="#FBFBFB" d="M222.98 808.807L250.733 808.735L250.733 836.096C241.733 836.179 232.134 836.452 223.191 836.252C222.977 827.106 222.907 817.956 222.98 808.807Z"/><path fill="#FBFBFB" d="M640.771 697.308L640.771 724.882C631.594 724.958 622.416 724.958 613.239 724.882L613.229 697.356C622.409 697.258 631.59 697.242 640.771 697.308Z"/></svg>