<?xml version="1.0" encoding="utf-8" ?><svg xmlns="http://www.w3.org/2000/svg" xmlns:xlink="http://www.w3.org/1999/xlink" width="1254" height="1254" viewBox="0 0 1254 1254"><path fill="white" d="M0 0L25.4168 0L51.1213 0L76.5462 0L102.015 0L229.779 0L255.354 0L280.92 0L306.663 0L331.821 0L357.554 0L434.102 0L459.883 0L485.072 0L510.62 0L536.079 0L587.33 0L612.964 0L689.419 0L715.061 0L740.754 0L766.247 0L791.663 0L817.159 0L842.685 0L868.202 0L893.814 0L919.305 0L944.75 0L970.433 0L1047.07 0L1072.69 0L1254 0L1254 1254L1124.19 1254L1051.84 1254L971.004 1254L893.653 1254L867.826 1254L842.59 1254L817.031 1254L791.6 1254L765.941 1254L740.908 1254L715.071 1254L689.554 1254L663.664 1254L638.245 1254L612.753 1254L587.25 1254L562.67 1254L536.431 1254L510.253 1254L484.814 1254L459.158 1254L434.222 1254L407.958 1254L383.143 1254L357.153 1254L331.948 1254L306.036 1254L280.619 1254L255.924 1254L178.926 1254L0 1254L0 1227.02L0 1201.23L0 1175.68L0 1150.45L0 1124.82L0 1099.32L0 1073.76L0 1048.17L0 920.359L0 894.739L0 869.326L0 843.728L0 767.178L0 741.452L0 715.855L0 690.461L0 664.844L0 639.218L0 613.58L0 588.255L0 562.499L0 536.957L0 511.265L0 485.838L0 460.282L0 434.724L0 409.15L0 383.465L0 358.124L0 332.488L0 307.329L0 281.397L0 255.978L0 230.315L0 204.885L0 179.225L0 153.724L0 127.932L0 76.2174L0 51.85L0 25.4168L0 0Z"/><path fill="#F9F9F9" d="M0 0L25.4168 0L51.1213 0L76.5462 0L102.015 0L229.779 0L255.354 0L280.92 0L306.663 0L331.821 0L357.554 0L434.102 0L459.883 0L485.072 0L510.62 0L536.079 0L587.33 0L612.964 0L689.419 0L715.061 0L740.754 0L766.247 0L791.663 0L817.159 0L842.685 0L868.202 0L893.814 0L919.305 0L944.75 0L970.433 0L970.525 25.4645C974.663 25.511 990.838 25.4307 994.011 25.9474C986.71 26.5421 978.499 26.3352 971.115 26.3291L970.509 128.017C979.062 127.921 987.615 127.893 996.168 127.932C996.147 135.925 995.849 145.888 996.223 153.726C989.195 153.746 977.09 154.156 970.457 153.647C970.527 162.133 970.553 170.619 970.534 179.105L995.907 179.118C995.887 185.128 995.745 191.967 996.003 197.864C996.229 203.005 997.681 224.453 996.441 228.922C995.719 224.052 995.978 210.391 995.964 204.842C988.057 204.931 978.145 204.656 970.488 205.028C970.491 213.363 970.351 222.151 970.545 230.448C962.188 230.455 953.264 230.31 944.956 230.537C944.886 239.019 944.768 247.419 945.033 255.899C953.456 255.882 962.047 255.956 970.454 255.826C970.464 263.98 970.271 273.125 970.553 281.199C979.213 281.552 987.364 281.443 996.037 281.335L996.046 255.883C1003.63 255.853 1012.1 255.609 1019.6 256.22C1012.97 256.79 1003.67 256.556 996.832 256.556L996.832 281.048C998.653 281.046 1004.32 280.783 1005.55 281.425L1006.73 281.372C1002.8 281.685 1000.13 281.7 996.186 281.642C995.96 288.839 995.497 300.42 996.179 307.397C988.924 307.383 977.288 307.736 970.391 307.251C970.437 315.567 970.603 324.201 970.49 332.49C978.962 332.44 987.435 332.435 995.907 332.476L995.914 358.275C988.072 358.267 978.133 358.547 970.468 358.181L970.537 383.488C962.943 384.321 952.798 383.569 944.919 383.911C944.868 392.049 944.642 401.014 944.89 409.083L970.473 409.074C970.488 417.484 970.365 426.325 970.567 434.699L995.888 434.672C996.114 443.16 996.223 451.65 996.216 460.141L970.191 460.141L970.191 435.049L945.098 435.049C945.148 439.179 945.661 441.932 943.706 445.521C933.832 437.377 925.16 432.965 913.258 428.663C913.413 366.221 871.698 311.478 806.327 311.571C797.858 295.557 784.935 282.337 769.118 273.507C744.272 259.337 719.199 256.287 691.737 263.752L690.576 263.083C689.163 260.953 688.22 257.16 691.519 256.231C687.023 255.575 669.526 256.066 664.051 256.114L664.051 230.193C672.514 230.331 680.979 230.322 689.442 230.168L689.424 204.392C693.942 205.333 709.668 204.673 714.86 204.542L714.86 179.408L689.405 179.402L689.424 153.775L663.812 153.776L663.782 128.166C655.299 128.106 646.815 128.129 638.332 128.236C638.46 135.538 637.951 143.333 638.36 150.599C638.44 152.033 639.925 152.898 640.973 153.577L640.243 153.467C645.964 155.334 657.972 153.044 663.085 154.355C663.318 155.379 663.293 177.255 663.087 178.388C659.798 179.729 642.739 179.345 638.335 179.345C638.431 186.576 638.378 193.808 638.177 201.037C637.738 196.035 638.037 184.832 638.021 179.405L612.917 179.405L612.834 196.229C612.416 193.292 612.615 183.183 612.605 179.718C604.111 179.811 595.617 179.768 587.125 179.59C587.293 171.101 587.159 162.275 587.139 153.757L561.85 153.773C561.921 145.38 562.142 136.388 561.831 128.053C553.415 128.258 544.683 128.192 536.24 128.241C536.336 119.71 536.215 110.972 536.192 102.424L510.77 102.783L510.725 128.086C519.258 127.956 527.793 127.918 536.326 127.974L536.398 153.776C529.233 153.774 517.463 154.145 510.671 153.651C510.95 161.671 510.735 170.971 510.748 179.093L485.258 179.093L485.258 153.75L459.797 153.798C459.699 159.866 459.539 165.775 459.739 171.818C459.969 178.788 461.343 197.008 460.069 203.244C459.324 199.191 459.645 184.304 459.661 179.394C451.152 179.049 442.594 179.112 434.075 179.093L434.034 153.766L408.645 153.807C408.567 160.856 408.755 170.37 408.309 177.19C407.568 174.376 407.798 158.048 407.795 154.301C399.029 154.258 392.287 154.205 383.576 155.026C383.379 154.743 383.222 154.427 382.985 154.176C381.938 153.067 360.918 153.779 357.424 153.804C357.603 145.364 357.492 136.485 357.523 128.008C351.28 128.531 338.75 128.147 332.04 128.15L332.051 153.502L357.274 153.529L357.274 179.093L332.181 179.093C332.273 170.877 331.925 162.084 331.814 153.796L306.266 153.804C306.842 146.955 306.535 135.281 306.533 128.166L280.953 128.013C280.824 136.543 280.824 145.074 280.955 153.603L306.446 153.517C306.428 162.036 306.292 170.902 306.481 179.389C298.009 179.319 289.538 179.321 281.066 179.392C280.937 187.85 280.917 196.31 281.006 204.769L255.419 204.966C255.413 212.936 255.179 222.357 255.518 230.206C263.989 230.291 272.267 230.403 280.736 230.14L280.743 256.047C272.599 256.037 263.416 256.242 255.362 255.981C255.376 264.155 255.218 273.11 255.488 281.218C262.534 281.6 273.404 281.949 280.345 281.153C281.051 279.945 280.79 280.627 281.038 279.075L281.529 279.37C280.953 290.25 280.641 296.023 280.934 307.241L306.458 307.197L306.452 332.445C314.857 332.487 323.628 332.647 331.997 332.392C332.001 340.329 331.718 350.36 332.084 358.124C336.88 358.116 351.155 357.813 355.083 358.494C347.59 358.938 339.994 358.82 332.481 358.811L332.481 383.303C334.249 383.314 339.985 383.231 341.395 383.512C339.231 384.032 334.404 383.894 331.975 383.908C331.966 391.86 331.764 401.008 332.157 408.85C334.05 409.044 337.777 409.245 339.358 409.886C336.471 411.1 334.261 408.995 332.589 410.236L332.185 423.751C331.965 418.907 331.835 414.06 331.794 409.211C323.347 409.168 314.9 409.184 306.453 409.26C306.412 417.597 306.225 426.511 306.5 434.792L280.919 434.749C280.847 442.373 280.474 452.988 280.982 460.352C272.525 460.333 263.842 460.211 255.406 460.336C255.389 468.695 255.248 477.384 255.394 485.714C258.778 485.773 279.587 486.409 281.571 485.85L282.651 484.791C272.039 515.278 274.342 543.813 291.05 571.761C268.531 600.288 257.786 632.845 262.077 669.368C265.758 701.766 282.267 731.339 307.914 751.474C317.794 759.242 327.23 764.155 338.693 768.975C336.483 796.488 337.797 810.713 348.211 836.914C348.246 840.132 349.637 841.045 349.413 843.208C345.956 843.725 336.247 843.33 332.181 843.285L332.181 818.351L306.535 818.351C306.433 826.857 306.474 835.363 306.66 843.868L280.917 843.833C281.084 835.417 280.956 826.577 280.965 818.127C272.447 818.297 263.928 818.347 255.409 818.277L255.48 843.659C263.897 843.678 272.687 843.563 281.069 843.732C280.637 852.235 280.644 860.755 281.091 869.258C285.78 869.309 300.58 869.156 304.456 869.701C296.899 870.258 289.244 870.106 281.66 870.085C281.64 876.594 281.277 888.107 281.796 894.205C282.782 894.05 283.248 894.001 284.266 894.068C283.17 895.899 281.488 894.707 281.252 895.972C280.114 902.081 280.827 914.128 281.079 920.204C289.537 920.299 297.996 920.296 306.454 920.194C306.403 928.811 306.404 937.428 306.457 946.044C298.035 945.987 289.613 945.982 281.191 946.029C280.508 954.568 280.506 963.147 281.185 971.686C272.616 971.589 264.046 971.605 255.478 971.735C255.468 980.156 255.396 988.668 255.491 997.079C246.925 997 238.379 996.843 229.82 997.188C229.647 988.664 229.645 980.138 229.815 971.614L204.434 971.705C204.445 980.125 204.36 988.73 204.48 997.132L178.723 997.132L178.775 971.667L153.209 971.75L153.245 997.133C144.943 997.091 135.688 996.867 127.475 997.206C127.913 989.353 127.674 979.74 127.659 971.742C119.113 971.64 110.565 971.639 102.018 971.741C102.123 963.142 102.129 954.542 102.035 945.943C93.5436 945.873 85.0516 945.91 76.5612 946.054C76.5439 954.421 76.4169 963.073 76.5611 971.415C68.1079 971.428 59.2447 971.316 50.8357 971.721L50.9693 997.321C43.8906 996.808 32.7522 996.969 25.559 997.177L25.6455 971.468C34.0138 971.58 42.3834 971.563 50.7512 971.418C50.7729 963.058 50.6682 954.305 50.8799 945.981C42.4398 945.944 33.9996 945.967 25.5598 946.048C25.5937 937.682 25.4496 928.608 25.6992 920.302C18.8967 920.769 7.23556 920.374 0 920.359L0 894.739L0 869.326L0 843.728L0 767.178L0 741.452L0 715.855L0 690.461L0 664.844L0 639.218L0 613.58L0 588.255L0 562.499L0 536.957L0 511.265L0 485.838L0 460.282L0 434.724L0 409.15L0 383.465L0 358.124L0 332.488L0 307.329L0 281.397L0 255.978L0 230.315L0 204.885L0 179.225L0 153.724L0 127.932L0 76.2174L0 51.85L0 25.4168L0 0Z"/><path fill="#023F53" d="M691.737 263.752C719.199 256.287 744.272 259.337 769.118 273.507C784.935 282.337 797.858 295.557 806.327 311.571C871.698 311.478 913.413 366.221 913.258 428.663C925.16 432.965 933.832 437.377 943.706 445.521C981.815 479.216 987.938 528.143 962.98 571.758C970.299 580.616 976.524 589.966 981.282 600.447C995.565 631.418 996.848 666.819 984.845 698.742C971.314 734.307 949.1 753.888 915.316 769.012C916.797 784.073 917.265 795.258 914.318 810.515C908.613 840.85 891.042 867.655 865.501 884.988C838.903 902.77 810.389 906.876 779.434 900.642L778.984 901.635C760.951 941.208 714.441 957.561 675.384 939.225C656.699 930.472 642.286 914.616 635.35 895.183C628.413 875.633 630.172 856.173 630.171 835.743L630.184 772.014L630.275 580.17L630.299 419.123L630.198 369.509C630.182 361.413 629.883 350.203 630.436 342.285C631.197 330.517 634.219 319.005 639.336 308.381C650.415 285.425 668.162 271.979 691.737 263.752Z"/><path fill="#F9F9F9" d="M715.657 280.076C730.354 279.622 744.906 283.102 757.807 290.157C770.498 297.005 786.602 311.347 790.098 325.758C796.366 351.594 787.456 384.998 761.94 397.164C757.596 399.235 750.259 401.816 747.913 406.143C747.586 412.803 751.16 416.206 757.916 415.606C770.774 414.464 784.388 406.604 792.959 397.175C809.89 378.547 813.22 356.459 812.168 332.177C823.783 333.711 832.746 336.535 843.241 342.082C865.366 354.008 881.867 374.212 889.134 398.274C897.318 424.959 894.388 449.252 869.323 465.983C865.854 468.434 852.602 474.31 851.851 478.543C849.67 490.826 862.779 490.835 869.405 487.937C888.413 479.623 900.758 466.559 908.853 448.099C925.177 454.343 938.46 465.175 947.323 480.287C958.014 498.224 960.971 519.731 955.515 539.887C947.034 571.265 927.578 582.733 900.413 593.17C892.313 597.577 896.779 609.581 904.959 609.311C921.015 608.781 938.105 597.838 949.904 587.916C955.906 595.412 960.829 603.711 964.529 612.572C975.688 639.016 975.766 668.832 964.747 695.335C954.316 720.532 934.782 739.339 909.742 749.811C904.231 737.371 901.127 730.878 891.723 720.974C885.633 715.029 868.655 701.049 864.332 715.752C862.241 722.864 870.862 727.219 875.162 731.731C895.271 752.83 900.826 781.345 894.249 809.66C888.519 834.892 872.906 856.771 850.91 870.396C830.948 882.85 806.831 886.796 783.941 881.353C783.961 861.393 781.568 847.671 772.24 829.109C769.137 822.935 761.859 806.034 750.082 814.58C744.692 818.492 751.099 830.92 753.834 835.968C765.749 857.961 770.205 884.847 753.384 905.736C743.821 917.484 729.943 924.904 714.862 926.333C699.045 927.889 683.267 923.011 671.088 912.798C645.888 891.852 649.802 864.685 649.829 835.39L649.849 770.726L649.84 568.544L649.861 416.092L649.877 369.264C649.926 344.524 649.057 323.387 666.536 303.28C679.6 288.252 696.013 281.492 715.657 280.076Z"/><path fill="#023F53" d="M765.91 520.508C778.984 519.764 781.384 531.892 770.884 537.982C756.448 546.356 746.25 556.354 743.4 573.413C741.318 586.58 744.645 600.03 752.626 610.708C766.046 628.97 789.443 636.581 811.28 631.763C816.576 630.964 824.728 627.656 829.847 628.322C834.846 628.973 838.265 635.287 835.767 639.816C833.81 643.368 832.7 643.828 829.321 645.397C828.312 645.78 827.299 646.153 826.283 646.515C787.435 660.332 741.332 644.903 727.11 604.238C721.068 587.19 722.054 568.439 729.85 552.118C737.474 536.477 749.534 526.079 765.91 520.508Z"/><path fill="#023F53" d="M512.513 262.552C572.126 248.828 626.217 289.629 623.721 352.282C623.555 356.458 623.721 361.31 623.715 365.561L623.665 408.441L623.664 571.632L623.604 773.273L623.675 838.413C623.696 865.653 626.534 886.842 611.055 911.026C600.055 928.321 582.543 940.446 562.483 944.654C525.277 952.645 490.647 935.267 474.848 900.739C441.622 906.636 414.878 902.991 386.531 883.356C369.819 871.597 356.582 855.555 348.211 836.914C337.797 810.713 336.483 796.488 338.693 768.975C327.23 764.155 317.794 759.242 307.914 751.474C282.267 731.339 265.758 701.766 262.077 669.368C257.786 632.845 268.531 600.288 291.05 571.761C274.342 543.813 272.039 515.278 282.651 484.791C287.105 471.829 297.109 457.665 307.181 448.522C311.917 443.989 316.321 441.036 321.762 437.433C328.709 433.495 333.6 431.25 341.108 428.546C341.084 426.925 341.072 425.305 341.072 423.684C341.25 392.752 353.593 363.134 375.433 341.229C396.212 320.645 421.311 311.414 450.217 311.629C458.148 295.075 469.879 282.941 485.448 273.487C495.433 267.918 501.598 265.566 512.513 262.552Z"/><path fill="#F9F9F9" d="M442.854 332.254C442.188 340.227 441.751 346.327 442.492 354.338C445.225 383.901 465.099 410.34 495.069 415.903C499.085 416.649 505.972 413.446 506.203 408.679C506.385 400.681 494.41 398.841 489.087 395.667C473.644 386.458 464.533 369.506 462.94 351.888C461.381 335.356 466.59 318.898 477.379 306.275C502.367 276.583 551.388 270.228 581.206 296.84C608.231 320.959 604.062 348.653 604.059 381.285L604.033 453.47L604.037 667.481L604.041 807.297L604.058 846.502C604.127 869.623 605.801 888.038 589.375 906.673C579.037 918.454 564.411 925.604 548.764 926.526C533.355 927.521 518.187 922.321 506.63 912.081C496.54 903.059 490.499 890.361 489.864 876.841C489.216 863.177 493.686 848.68 499.672 837.163C502.733 831.273 510.41 818.478 503.688 813.989C491.922 806.133 483.784 825.728 481.24 831.07C472.804 848.779 469.818 862.547 470.277 881.356C445.545 886.902 423.187 882.807 401.737 869.338C393.893 864.381 386.82 858.299 380.743 851.287C379.07 849.307 376.993 846.407 375.37 844.287C360.804 823.039 354.006 797.179 358.55 771.577C361.342 757.129 367.988 742.716 378.676 732.433C381.667 729.122 386.589 725.894 388.841 722.058C392.154 716.414 389.721 709.732 382.588 709.975C364.335 710.595 350.426 735.355 344.396 749.679C291.227 729.66 267.358 664.661 288.925 613.909C293.341 603.519 297.236 596.619 304.341 587.8C316.191 598.224 332.5 608.164 348.614 609.326C356.548 609.899 361.751 598.915 354.975 594.266C349.35 590.407 341.879 588.698 335.855 585.479C315.718 575.891 301.944 557.004 297.437 535.153C293.345 514.764 297.577 493.585 309.192 476.334C318.152 462.816 330.306 453.839 345.309 448.101C347.855 453.59 350.098 457.271 353.78 463.316C359.829 473.248 394.27 502.93 402.522 482.82C405.518 475.517 390.216 469.438 385.844 466.561C364.432 453.086 358.041 433.349 362.526 409.084C367.033 383.738 381.618 361.3 402.953 346.893C414.304 339.236 429.122 333.329 442.854 332.254Z"/><path fill="#023F53" d="M483.19 520.493C497.886 518.89 515.68 536.819 522.439 548.603C531.106 564.044 533.318 582.285 528.591 599.35C523.395 617.54 511.188 632.921 494.654 642.112C474.306 653.466 452.361 653.743 430.415 647.43C424.577 645.394 417.949 643.679 417.816 636.191C417.611 624.701 433.073 628.9 439.786 630.921C471.817 640.566 508.618 619.274 511.317 584.742C512.541 569.089 505.257 552.241 491.79 543.501C483.433 538.336 467.442 529.963 483.19 520.493Z"/><path fill="#F9F9F9" d="M536.32 1048.18C536.31 1042 535.99 1030.4 536.556 1024.66C537.422 1031.03 537.045 1040.93 536.991 1047.65C553.967 1047.55 570.344 1048.31 587.361 1048.09C587.322 1056.62 587.349 1065.16 587.442 1073.69C595.887 1073.9 604.4 1073.66 612.918 1073.9L612.867 1048.09L638.21 1048.17C638.315 1056.68 638.352 1065.18 638.322 1073.69C645.817 1073.74 656.543 1073.46 663.843 1073.87C663.738 1065.26 664.134 1056.71 664.051 1048.09L689.547 1048.18C689.45 1056.67 689.454 1065.17 689.559 1073.66C696.855 1073.83 708.675 1073.35 715.059 1073.84C715.082 1081.89 714.903 1091.12 715.237 1099.08C723.631 1099.13 732.025 1099.14 740.418 1099.1C740.474 1091.48 740.239 1081.08 740.727 1073.68C748.933 1073.83 758.092 1073.59 766.065 1073.88C766.422 1082.39 766.406 1090.58 766.396 1099.11L791.627 1099.1L791.736 1124.81C800.277 1124.71 808.818 1124.68 817.359 1124.72L817.309 1150.36C825.563 1150.35 834.457 1150.5 842.655 1150.23C842.595 1158.61 842.427 1167.29 842.655 1175.64C851.171 1175.89 859.691 1176.01 868.211 1175.99L868.178 1150.25C876.628 1150.35 885.079 1150.37 893.529 1150.31C893.777 1141.86 893.843 1133.4 893.727 1124.95C885.675 1124.92 876.137 1125.14 868.213 1124.82L868.277 1150.49L842.576 1150.49C842.587 1142.3 842.374 1132.93 842.667 1124.84C840.555 1124.83 836.772 1124.95 834.861 1124.56C836.598 1123.93 839.944 1124.17 841.919 1124.19C841.962 1114.49 841.895 1108.78 841.139 1099.2L842.478 1098.67C843.1 1094.64 842.56 1079.01 842.634 1074C834.116 1073.79 825.593 1073.79 817.074 1074.01C817.218 1065.4 817.291 1056.78 817.293 1048.16L842.736 1048.12C842.526 1056.65 842.508 1065.19 842.683 1073.72C851.174 1073.82 859.667 1073.84 868.159 1073.79L868.227 1048.13L893.653 1048.17L893.653 1073.76C900.929 1073.75 912.049 1073.36 919.088 1073.76C919.2 1065.29 919.241 1056.81 919.211 1048.33C912.341 1048.32 901.576 1048.56 895.072 1047.92C911.197 1047.16 928.432 1048.26 944.904 1048.16C944.857 1056.69 944.858 1065.22 944.907 1073.74L970.3 1073.78C970.358 1065.6 970.161 1056.2 970.461 1048.14L995.907 1048.21L995.911 1073.67C987.429 1073.71 978.948 1073.83 970.469 1074.03C970.473 1082.35 970.394 1090.81 970.501 1099.11L995.907 1099.1C995.892 1107.29 995.661 1116.87 996.337 1124.91C988.968 1124.92 977.441 1125.32 970.415 1124.88L970.486 1150.5C979.053 1150.3 987.622 1150.26 996.191 1150.36C996.127 1156 995.985 1162.11 996.168 1167.72C996.387 1174.44 997.234 1181.06 996.516 1187.85C995.892 1183.2 995.964 1180.59 996.045 1175.86C987.527 1176.03 979.008 1176.11 970.489 1176.08L970.48 1201.34C978.785 1201.31 987.656 1201.46 995.907 1201.19L995.907 1226.96C1001.74 1226.99 1015.3 1226.72 1020.49 1227.35C1014.21 1228.04 1003.52 1227.71 996.832 1227.67C996.834 1234.22 997.02 1241.57 996.407 1248.02C996.141 1241.09 995.982 1234.16 995.929 1227.22L970.486 1227.15C970.445 1231.31 969.859 1251.46 971.004 1254L893.653 1254L867.826 1254L842.59 1254L817.031 1254L791.6 1254L765.941 1254L740.908 1254L715.071 1254L689.554 1254L663.664 1254L638.245 1254L612.753 1254L587.25 1254L562.67 1254L536.431 1254L510.253 1254L484.814 1254L459.158 1254L434.222 1254L407.958 1254L383.143 1254L357.153 1254L331.948 1254L306.036 1254L280.619 1254L255.924 1254L178.926 1254C178.601 1245.01 178.716 1236.05 178.766 1227.05C171.086 1227.44 161.072 1227.19 153.21 1227.23C153.175 1232.68 154.319 1248.12 151.995 1251.61C148.023 1254.4 134.017 1252.24 127.841 1252.14L127.784 1226.96L153.072 1227.01C153.394 1219 153.131 1209.39 153.104 1201.25L178.747 1201.42L178.706 1175.88C186.866 1175.63 196.051 1175.84 204.363 1175.74C204.354 1167.31 204.389 1158.89 204.467 1150.47C212.953 1150.31 221.44 1150.24 229.927 1150.27L229.927 1124.69L255.32 1124.78L255.347 1099.49C247.131 1099.17 238.204 1099.32 229.927 1099.32L229.927 1073.97C221.342 1073.79 212.755 1073.82 204.173 1074.07C204.473 1065.7 204.335 1056.51 204.37 1048.08L229.776 1048.24C229.737 1056.69 229.62 1065.16 229.977 1073.6C238.078 1073.96 247.217 1073.79 255.403 1073.8C255.369 1082.23 255.411 1090.65 255.528 1099.07C264.038 1099.17 272.548 1099.17 281.058 1099.07C280.666 1107.08 280.954 1116.65 281.078 1124.76C297.921 1124.75 314.442 1124.11 331.257 1124.19C331.26 1120.43 331.033 1104.14 331.757 1101.3C332.193 1108.53 331.978 1117.24 332.106 1124.66C340.598 1124.82 349.092 1124.84 357.584 1124.72C357.568 1133.02 357.374 1142.03 357.598 1150.27L382.99 1150.29C382.978 1158.59 382.827 1167.4 383.082 1175.65C391.298 1176.15 400.273 1175.96 408.568 1175.94C408.56 1183.66 408.281 1193.68 408.707 1201.22C417.022 1201.29 425.754 1201.49 434.027 1201.23C434.029 1192.97 434.181 1184.14 433.958 1175.94L459.529 1175.94L459.529 1201.51C451.432 1201.51 442.142 1201.29 434.141 1201.59C433.966 1210.08 433.957 1218.57 434.113 1227.05C441.347 1226.63 452.081 1226.97 459.582 1226.97C459.816 1218.63 459.693 1209.72 459.715 1201.33C468.148 1201.35 476.582 1201.32 485.015 1201.25C485.073 1192.95 485.057 1184.65 484.967 1176.34C477.143 1175.7 467.642 1175.92 459.656 1175.93C459.635 1167.44 459.68 1158.95 459.792 1150.46C452.569 1150.76 441.16 1150.63 434.072 1150.06L433.985 1124.8L459.565 1124.69C459.835 1116.43 459.658 1107.42 459.638 1099.1L485.103 1099.12C485.038 1107.64 485.056 1116.17 485.159 1124.7C493.685 1124.67 502.211 1124.73 510.735 1124.88L510.671 1099.15L536.067 1099.14L536.067 1073.95C527.45 1073.84 519.232 1073.75 510.622 1074L510.654 1048.2L536.32 1048.18Z"/><path fill="#F9F9F9" d="M0 1048.17L25.6707 1048.09C25.5968 1056.61 25.4046 1065.43 25.7169 1073.9L50.8343 1073.81L50.8802 1099.15L76.5813 1099.11C76.5626 1107.37 76.3465 1116.65 76.6346 1124.82L50.9598 1124.97C50.802 1133.49 50.7914 1142 50.928 1150.52C42.5517 1150.47 33.8883 1150.31 25.5418 1150.56C25.5904 1158.83 25.4807 1167.71 25.7486 1175.94L50.8405 1176C50.8811 1184.25 50.7805 1193.01 51.0313 1201.22C59.5489 1201.4 68.0691 1201.41 76.5871 1201.25L76.5594 1227.03C69.3601 1227.49 58.2868 1227.17 50.795 1227.19C50.7469 1218.62 50.7785 1210.05 50.8896 1201.48C42.4599 1201.58 34.0291 1201.54 25.6007 1201.36C25.6076 1209.82 25.5254 1218.71 25.7727 1227.15C17.1816 1227.21 8.59011 1227.17 -2.17534e-15 1227.02L0 1201.23L0 1175.68L0 1150.45L0 1124.82L0 1099.32L0 1073.76L0 1048.17Z"/><path fill="#F9F9F9" d="M1072.76 1150.44C1081.2 1150.29 1089.59 1150.38 1098 1150.26L1098.01 1175.63C1105.83 1176.22 1115.68 1175.96 1123.67 1175.94C1123.53 1184.4 1123.53 1192.86 1123.66 1201.32L1149.22 1201.28C1149.19 1209.77 1149.02 1218.8 1149.37 1227.24L1123.69 1227.2C1123.6 1232.74 1123.06 1248.51 1124.06 1253.34L1124.19 1254L1051.84 1254L1051.1 1253.26C1049.52 1253.16 1048.65 1253.34 1047.5 1252.33C1046.63 1249.26 1046.98 1231.09 1047 1226.96L1072.68 1226.97C1072.56 1218.43 1072.58 1209.89 1072.76 1201.36C1065.68 1201.85 1054.42 1201.48 1047.04 1201.46C1047.06 1192.95 1047.04 1184.44 1046.98 1175.94L1072.61 1175.94L1072.76 1150.44Z"/><path fill="#F9F9F9" d="M178.74 1124.75L204.427 1124.7C204.442 1133.23 204.56 1141.96 204.467 1150.47C196.313 1150.72 187.041 1150.5 178.799 1150.5C178.75 1158.97 178.755 1167.45 178.813 1175.93L153.08 1175.93C153.221 1167.49 153.09 1158.8 153.057 1150.34L178.698 1150.35L178.74 1124.75Z"/><path fill="#F9F9F9" d="M1047.07 0L1072.69 0C1072.55 8.59627 1072.6 17.1946 1072.84 25.7887C1064.23 25.7424 1055.62 25.7594 1047.01 25.8395L1047.07 0Z"/><path fill="#F9F9F9" d="M153.084 1099.12C161.463 1099.13 170.405 1099.3 178.74 1099.1L178.74 1124.75L153.082 1124.96L153.084 1099.12Z"/><path fill="#F9F9F9" d="M1047.04 1124.69L1072.78 1124.81C1072.71 1133.31 1072.54 1141.96 1072.76 1150.44C1064.18 1150.6 1055.61 1150.59 1047.03 1150.43L1047.04 1124.69Z"/><path fill="#F9F9F9" d="M766.03 1047.98C774.166 1048.4 783.344 1048.22 791.576 1048.22C791.59 1056.4 791.417 1065.57 791.743 1073.67C784.622 1073.7 772.79 1074.2 766.065 1073.88C765.803 1065.31 765.963 1056.57 766.03 1047.98Z"/><path fill="#F9F9F9" d="M76.5594 1227.03C85.0256 1226.92 93.4926 1226.88 101.959 1226.92L101.927 1253.02L76.5789 1253.08C76.5626 1244.66 76.3403 1235.36 76.5594 1227.03Z"/><path fill="#F9F9F9" d="M714.983 1048.17L740.479 1048.22L740.488 1073.63C733.668 1074.22 722.165 1073.95 715.059 1073.84L714.983 1048.17Z"/><path fill="#F9F9F9" d="M459.577 230.199C468.058 230.284 476.539 230.309 485.021 230.274C485.086 238.842 485.08 247.41 485 255.978L459.614 256.083C459.704 247.455 459.692 238.827 459.577 230.199Z"/><path fill="#F9F9F9" d="M485 255.978L510.721 255.861C511.145 258.189 511.286 260.738 512.513 262.552C501.598 265.566 495.433 267.918 485.448 273.487C484.898 266.801 484.9 262.678 485 255.978Z"/><path fill="#F9F9F9" d="M306.537 434.657C310.44 434.677 319.92 433.755 321.762 437.433C316.321 441.036 311.917 443.989 307.181 448.522C306.528 445.284 306.601 438.269 306.537 434.657Z"/><path fill="#F9F9F9" d="M1149.27 153.573L1174.63 153.566C1174.48 162.093 1174.46 170.623 1174.58 179.151C1183.12 179.19 1191.65 179.175 1200.19 179.105C1200.18 187.66 1200.07 196.458 1200.21 204.992C1194.24 204.352 1181.07 204.76 1174.57 204.787C1174.51 213.077 1174.29 222.006 1174.78 230.214C1183.25 230.267 1191.72 230.262 1200.19 230.197L1200.33 256.059L1174.59 256.032C1174.53 263.982 1174.22 273.734 1174.67 281.517C1183.09 281.483 1191.79 281.552 1200.19 281.338L1200.26 307.073C1202.76 307.101 1223.91 307.207 1224.32 307.534C1218.67 308.459 1206.97 308.052 1200.73 307.989L1200.73 331.869C1207.63 331.877 1216.84 331.659 1223.49 332.2C1217.05 332.719 1206.71 332.751 1200.15 332.496C1200.27 341.07 1200.25 349.645 1200.09 358.218C1205.13 358.122 1218.93 357.825 1223.46 358.445C1216.15 359.024 1208.11 358.824 1200.73 358.811C1200.71 365.625 1200.38 376.411 1200.87 382.915C1202.48 383.579 1203.58 383.373 1205.32 383.302L1205.64 383.735C1204.02 383.816 1202.39 383.934 1200.76 384.091C1199.99 385.329 1200.17 406.098 1200.16 409.236C1191.76 409.213 1182.97 409.063 1174.6 409.246C1174.54 417.235 1174.25 426.922 1174.79 434.719L1200 434.651C1200.03 426.287 1200.17 417.673 1200.03 409.332L1225.51 409.332C1225.49 417.717 1225.36 426.428 1225.55 434.783C1217.09 434.691 1208.64 434.716 1200.19 434.858L1200.19 460.418C1191.86 460.375 1182.9 460.172 1174.62 460.377C1174.53 468.46 1174.23 477.639 1174.75 485.611C1183.31 485.754 1191.49 485.912 1200.04 485.629L1200.02 460.231C1206.88 460.27 1216.95 460.086 1223.52 460.748C1216.36 461.26 1207.99 461.062 1200.73 461.065C1200.69 466.349 1200.22 480.868 1201.01 485.058C1202.61 485.644 1203.48 485.57 1205.15 485.633L1204.81 486.059C1202.22 486.227 1201.67 485.746 1200.4 487.147C1199.66 494.964 1200.43 503.235 1200.09 511.258C1208.49 511.275 1217.15 511.391 1225.52 511.195L1225.53 537.133L1200.09 537.081L1200.2 562.375C1203.38 562.415 1221.61 562.479 1223.61 562.933C1217.46 563.565 1207.15 563.349 1200.73 563.32C1200.73 570.478 1200.97 579.807 1200.36 586.708C1199.93 578.781 1200.04 570.624 1200.03 562.671C1191.62 562.666 1183.22 562.705 1174.82 562.789C1174.47 570.137 1174.2 580.962 1174.84 588.31L1200.21 588.198C1200.21 593.864 1199.88 607.986 1200.48 612.961C1201.61 613.496 1201.52 613.463 1202.76 613.844L1200.95 614.321C1200.06 617.898 1201.05 622.582 1200.42 624.421C1200.06 620.43 1199.98 617.758 1200 613.745C1191.63 613.799 1182.94 613.743 1174.6 613.983C1174.53 621.94 1174.22 631.566 1174.85 639.316L1149.07 639.353C1149.09 630.926 1149.24 622.088 1149.06 613.698C1141.15 613.768 1131.29 613.472 1123.64 613.797C1123.64 622.137 1123.5 631.021 1123.78 639.309L1097.98 639.291L1097.89 613.653C1089.48 613.728 1081.08 613.759 1072.67 613.745C1072.66 606.42 1072.3 595.365 1072.76 588.333C1064.76 588.49 1055.17 588.14 1047.02 588.113C1047.06 579.581 1047.05 571.049 1046.99 562.517L1072.61 562.405C1072.58 553.955 1072.63 545.505 1072.76 537.056C1080.04 536.639 1090.42 536.968 1097.93 536.978C1097.96 528.39 1097.93 519.802 1097.85 511.215C1106.43 511.329 1115.01 511.346 1123.59 511.264C1123.73 502.987 1123.55 494.189 1123.53 485.87L1149.05 485.87L1149.25 460.325C1140.85 460.547 1132.09 460.427 1123.66 460.422L1123.63 434.698C1132.15 434.59 1140.68 434.624 1149.21 434.799L1149.09 409.238L1123.69 409.222C1123.49 417.75 1123.52 426.282 1123.78 434.809L1097.85 434.775C1097.94 426.254 1097.93 417.731 1097.81 409.21C1089.29 409.139 1081.14 409.066 1072.62 409.378L1072.73 383.864L1047.03 383.841L1047.04 358.092C1055.6 358.083 1064.16 358.119 1072.72 358.199C1072.7 349.644 1072.73 341.089 1072.82 332.534L1047.03 332.666C1047.06 324.158 1047.04 315.65 1046.97 307.143L1072.76 307.294L1072.7 281.491C1081.13 281.588 1089.55 281.544 1097.97 281.358L1097.85 256.021L1072.68 255.968C1072.46 247.816 1072.7 238.6 1072.72 230.363L1097.94 230.264L1097.87 204.72L1123.5 204.628C1123.59 196.131 1123.6 187.633 1123.53 179.136C1132 179.256 1140.54 179.02 1149.06 179.123C1148.99 170.606 1149.06 162.088 1149.27 153.573Z"/><path fill="#F9F9F9" d="M1097.88 818.068L1123.7 818.054C1123.56 826.618 1123.54 835.183 1123.66 843.748C1132.1 843.587 1140.54 843.549 1148.98 843.635C1149 851.79 1148.82 861.305 1149.26 869.336C1141.8 869.804 1131.21 869.489 1123.65 869.37C1123.64 877.376 1123.42 886.936 1123.81 894.812C1115.41 894.877 1106.31 894.766 1097.97 895.046C1097.92 903.417 1097.94 911.789 1098.03 920.16C1106.61 920.253 1115.19 920.252 1123.77 920.158C1123.69 928.68 1123.5 937.273 1123.8 945.783C1132.29 945.926 1140.79 945.911 1149.28 945.737C1149.26 953.836 1149 963.5 1149.36 971.467C1157.77 971.599 1166.18 971.604 1174.59 971.483C1174.57 979.656 1174.35 989.078 1174.71 997.145C1166.07 997.096 1157.43 997.092 1148.79 997.134C1149.56 992.057 1149.08 977.548 1149.13 971.677C1141.16 971.682 1131.33 971.414 1123.5 971.767C1123.61 963.204 1123.66 954.64 1123.64 946.076L1097.86 946.001L1097.9 920.431C1091.25 920.449 1078.94 920.853 1072.72 920.33C1072.65 911.83 1072.65 903.33 1072.71 894.83C1064.55 895.061 1054.8 894.629 1046.96 895.095C1047.03 886.471 1047.04 877.847 1047 869.223C1055.54 869.437 1064.07 869.453 1072.6 869.272C1072.53 860.758 1072.61 852.243 1072.83 843.731C1080.34 843.648 1090.49 843.337 1097.89 843.744C1097.91 835.27 1098.03 826.516 1097.88 818.068Z"/><path fill="#F9F9F9" d="M1047.01 613.45C1055.6 613.583 1064.19 613.613 1072.78 613.541L1072.64 639.291C1072.27 647.048 1072.29 657.16 1072.6 664.948C1072.74 673.279 1072.5 681.899 1072.81 690.145C1080.34 690.294 1090.08 690.961 1097.27 689.885C1098.66 689.676 1098.78 689.859 1100.18 690.154C1099.29 690.568 1098.98 690.689 1098.08 691.013C1097.75 697.922 1097.88 708.714 1098.03 715.793L1123.53 715.791L1123.64 690.346C1131.7 690.413 1141.02 690.642 1149.01 690.082C1149.01 686.469 1148.82 670.667 1149.45 668.165C1150.71 680.223 1149.12 691.491 1149.14 703.553C1149.16 715.088 1150.68 728.306 1149.58 739.737C1148.93 734.392 1149.02 721.765 1148.91 715.934C1140.48 715.813 1132.04 715.817 1123.6 715.945L1123.64 741.471C1115.31 741.684 1106.31 741.53 1097.93 741.546C1098.14 749.89 1098.01 758.881 1098.04 767.279C1089.64 767.168 1081.1 767.244 1072.69 767.243C1072.65 758.647 1072.68 750.051 1072.77 741.456C1065.12 741.847 1054.99 741.583 1047.07 741.665L1047.03 716.126C1055.25 715.757 1064.33 715.847 1072.63 715.779L1072.72 690.615L1047.03 690.655C1047.05 687.105 1047.43 667.6 1046.62 665.345L1044.39 664.654C1045.03 664.438 1045.66 664.222 1046.29 664.005C1046.79 657.471 1046.45 646.7 1046.43 639.858C1039.13 639.916 1031.83 639.864 1024.54 639.701C1028.24 638.912 1042.24 639.276 1047.03 639.288L1047.01 613.45Z"/><path fill="#F9F9F9" d="M1097.84 102.205L1123.76 102.2C1123.53 110.812 1123.51 119.428 1123.69 128.041L1148.93 127.923C1149.14 119.355 1149.15 110.783 1148.96 102.215L1174.55 102.224C1174.55 110.455 1174.33 120.083 1174.7 128.193C1166.2 128.072 1157.7 128.101 1149.2 128.279C1149.16 136.711 1149.18 145.142 1149.27 153.573C1140.7 153.747 1132.13 153.786 1123.56 153.689C1123.85 161.646 1123.54 171.157 1123.63 179.37C1115.07 179.268 1106.51 179.268 1097.95 179.369L1097.87 153.72L1072.64 153.77L1072.76 179.309C1064.33 179.024 1055.52 179.116 1047.05 179.093C1047.1 170.566 1047.07 162.04 1046.98 153.513C1055.52 153.586 1064.07 153.586 1072.62 153.514L1072.77 128.058C1081.16 127.925 1089.54 127.89 1097.93 127.954C1097.91 119.43 1097.99 110.711 1097.84 102.205Z"/><path fill="#F9F9F9" d="M944.749 818.098L970.478 818.097C970.431 826.647 970.44 835.197 970.503 843.747C978.97 843.591 987.439 843.564 995.907 843.666L995.913 869.475C988.252 869.454 977.905 869.744 970.467 869.333C970.44 874.115 969.473 892.194 971.569 894.443L974.862 894.716L974.533 895.164L971.552 895.298C970.741 897.592 971.097 916.187 971.115 919.682L977.894 919.702L977.814 919.709L979.468 920.276L979.124 919.866L979.862 920.226L977.901 919.81L978.768 920.469C975.698 920.557 973.497 920.502 970.429 920.321L970.443 894.79C961.874 894.751 953.306 894.768 944.738 894.841L944.797 869.49C937.007 869.504 929.195 869.621 921.421 869.167C927.699 868.64 937.598 868.871 944.174 868.86L944.174 844.368C937.62 844.381 927.909 844.632 921.639 843.997C925.519 843.423 940.32 843.666 944.79 843.738L944.749 818.098Z"/><path fill="#F9F9F9" d="M1190.78 741.809C1193.49 741.466 1197.38 741.518 1200.2 741.47L1200.24 767.34C1191.78 767.203 1183.08 767.308 1174.6 767.314C1174.45 775.038 1174.23 785.078 1174.83 792.628C1183.3 792.695 1191.78 792.707 1200.26 792.663L1200.21 818.291L1174.63 818.257C1174.54 826.711 1174.34 835.211 1174.8 843.65L1200.17 843.639L1200.28 869.201C1208.02 869.441 1215.96 869.119 1223.6 869.517L1223.57 869.864C1218.29 870.532 1203.38 869.153 1200.83 870.692L1200.6 874.628C1200.41 874.123 1199.78 870.558 1199.61 869.789C1194.21 869.093 1180.5 869.418 1174.43 869.42C1174.64 860.965 1174.62 852.288 1174.7 843.811L1149.08 843.802L1149.12 818.504C1155.8 817.741 1167.35 818.039 1174.45 818.041C1174.78 810.023 1174.56 800.737 1174.54 792.622L1149.16 792.622L1149.06 767.029C1165.99 767.293 1182.52 766.565 1199.5 766.605L1199.5 742.113C1196.41 742.179 1193.84 742.005 1190.78 741.809Z"/><path fill="#F9F9F9" d="M791.62 920.189C800.207 920.261 808.796 920.269 817.384 920.213L817.398 945.682C824.916 945.765 835.293 945.548 842.6 945.997C842.601 954.089 842.373 963.484 842.69 971.472C849.169 971.476 862.298 971.092 868.244 971.637L868.31 997.156C859.712 997.021 851.112 997.02 842.514 997.154C842.639 988.706 842.548 980.053 842.554 971.587L817.269 971.699C817.331 963.145 817.33 954.592 817.266 946.038L791.594 945.953L791.62 920.189Z"/><path fill="#F9F9F9" d="M893.819 920.155C902.002 920.452 910.935 920.266 919.184 920.235L919.314 945.878C927.819 945.954 936.284 945.749 944.815 945.913C944.835 954.387 944.727 963.182 944.88 971.626L919.238 971.676C919.263 963.139 919.244 954.602 919.182 946.065C910.758 945.966 902.333 945.957 893.909 946.036C893.825 954.448 893.603 963.337 893.942 971.702C886.226 971.678 875.752 971.995 868.244 971.637L868.197 945.831C876.416 946.056 885.447 945.851 893.728 945.82L893.819 920.155Z"/><path fill="#F9F9F9" d="M1149.26 869.336C1157.52 869.354 1166.41 869.518 1174.61 869.205C1174.53 877.737 1174.38 886.261 1174.66 894.789C1166.31 894.804 1157.41 894.672 1149.11 894.912C1149.08 903.125 1148.85 912.399 1149.29 920.501L1123.64 920.308L1123.66 894.726C1132.17 894.765 1140.67 894.759 1149.17 894.706C1149.07 886.25 1149.09 877.792 1149.26 869.336Z"/><path fill="#F9F9F9" d="M638.39 945.693C640.111 945.097 648.128 945.499 650.513 945.572C647.488 946.082 641.74 946.023 638.475 946.079C638.381 954.549 638.186 963.022 638.547 971.483C646.993 971.588 655.44 971.582 663.886 971.464C663.856 980.022 663.89 988.58 663.99 997.137C658.511 997.138 650.586 997.297 645.384 996.588C648.126 996.1 650.84 996.225 653.635 996.22L663.126 996.22L663.126 972.34C646.09 972.429 629.787 971.501 612.901 971.722L612.883 945.816C621.385 945.98 629.89 945.938 638.39 945.693Z"/><path fill="#F9F9F9" d="M331.866 869.201C340.334 869.343 348.804 869.377 357.274 869.303C357.16 886.276 358.262 902.494 358.198 919.682C362.902 919.651 377.383 919.318 381.299 919.981C379.099 920.865 361.091 920.496 357.466 920.472C357.62 912.037 357.505 903.337 357.492 894.878C348.945 894.804 340.397 894.804 331.85 894.879C331.793 886.32 331.798 877.76 331.866 869.201Z"/><path fill="#F9F9F9" d="M459.708 945.88L485.116 945.835L485.112 971.425C488.517 971.427 507.908 971.106 509.925 972.012L508.978 972.34C504.493 972.337 489.333 972.031 485.752 972.599L485.546 974.535L485.079 974.841C484.768 972.353 485.341 972.981 484.046 971.704C477.051 971.287 466.816 971.676 459.584 971.752C459.821 963.382 459.678 954.306 459.708 945.88Z"/><path fill="#F9F9F9" d="M434.082 921.825C435.317 923.94 434.761 941.542 434.736 945.398C442.52 945.336 450.303 945.407 458.084 945.61C454.708 946.321 438.285 945.991 434.083 945.97L434.219 971.655C425.984 971.865 417.014 971.701 408.72 971.715L408.72 945.92L434.025 945.874L434.082 921.825Z"/><path fill="#F9F9F9" d="M1098.7 50.9618C1107.2 50.9395 1115.15 51.184 1123.78 51.0012C1123.7 55.326 1122.94 73.5567 1124.32 76.2927L1126.36 76.5693L1126.69 77.0393C1124.73 77.186 1125.3 76.7593 1124.22 77.7404L1124.12 82.8121L1124 83.7797L1123.64 83.2981C1123.62 80.958 1123.89 78.8887 1122.63 76.9978C1118.11 76.3795 1103.22 76.796 1097.9 76.8365C1097.87 72.9972 1097.24 52.542 1098.7 50.9618Z"/><path fill="#F9F9F9" d="M765.975 945.841C774.511 945.95 783.05 945.67 791.594 945.953C791.831 954.403 791.524 962.957 791.801 971.679L765.946 971.766L765.975 945.841Z"/><path fill="#F9F9F9" d="M1046.93 511.237C1055.51 511.302 1064.09 511.31 1072.67 511.26C1072.55 519.859 1072.58 528.459 1072.76 537.056C1064.16 537.149 1055.55 537.183 1046.95 537.159C1047.01 528.518 1047.01 519.877 1046.93 511.237Z"/><path fill="#F9F9F9" d="M1046.97 102.282L1072.75 102.202C1072.61 110.82 1072.61 119.44 1072.77 128.058L1046.95 128.28L1046.97 102.282Z"/><path fill="#F9F9F9" d="M944.756 920.183L970.429 920.321C970.458 928.813 970.385 937.51 970.522 945.981C962.771 945.906 952.115 946.301 944.815 945.913C944.502 937.972 944.762 928.263 944.756 920.183Z"/><path fill="#F9F9F9" d="M1174.71 639.233L1200.29 639.136L1200.21 664.968L1174.71 665.089L1174.71 639.233Z"/><path fill="#F9F9F9" d="M1047.02 255.923C1055.57 255.879 1064.13 255.894 1072.68 255.968C1072.91 264.268 1072.66 273.109 1072.84 281.614C1064.22 281.573 1055.6 281.582 1046.98 281.641C1047.06 273.069 1047.08 264.496 1047.02 255.923Z"/><path fill="#F9F9F9" d="M50.8003 1048.12C59.3299 1048.24 68.0248 1048.17 76.569 1048.18C76.5254 1056.67 76.5614 1065.17 76.6771 1073.67L50.8002 1073.67L50.8003 1048.12Z"/><path fill="#F9F9F9" d="M970.436 945.836C979.014 945.908 987.591 945.916 996.169 945.86C996.057 954.387 996.327 962.877 996.079 971.423C991.363 972.046 975.905 971.714 970.413 971.721L970.436 945.836Z"/><path fill="#F9F9F9" d="M1047.03 920.21C1055.56 920.231 1064.21 920.097 1072.72 920.33C1072.97 928.739 1072.52 937.198 1072.84 945.979L1047.01 946.028L1047.03 920.21Z"/><path fill="#F9F9F9" d="M1072.67 460.174L1072.99 460.33C1072.05 464.513 1072.66 481.048 1072.77 485.861C1064.45 485.765 1056.13 485.801 1047.82 485.97L1047.2 485.482C1046.62 481.783 1047.03 465.033 1047.07 460.333L1072.67 460.174Z"/><path fill="#F9F9F9" d="M842.541 920.173C851.099 920.294 859.659 920.314 868.217 920.232C868.241 928.656 868.116 937.563 868.324 945.946C859.749 946.011 851.174 946.028 842.6 945.997L842.541 920.173Z"/><path fill="#F9F9F9" d="M638.322 230.138L638.322 256.038L612.876 256.022C612.814 247.414 612.83 238.806 612.924 230.198C621.39 230.302 629.856 230.282 638.322 230.138Z"/><path fill="#F9F9F9" d="M1149.06 1124.71L1174.67 1124.71C1174.49 1132.16 1174.12 1143.51 1174.92 1150.72C1166.99 1150.87 1157.18 1150.47 1149.06 1150.39L1149.06 1124.71Z"/><path fill="#F9F9F9" d="M1046.94 409.064C1055.51 409.173 1064.18 409.101 1072.76 409.1C1072.56 417.673 1072.59 426.25 1072.84 434.821L1047.06 434.779C1047.13 426.207 1047.09 417.635 1046.94 409.064Z"/><path fill="#F9F9F9" d="M1097.87 971.456C1106.22 971.787 1115.33 971.562 1123.74 971.501C1123.59 979.808 1123.82 988.197 1123.5 996.481L1122.48 997.171C1118.37 997.064 1100.88 997.489 1098.92 996.929C1098.21 996.143 1097.48 995.543 1097.54 994.257C1097.91 986.706 1097.93 978.954 1097.87 971.456Z"/><path fill="#F9F9F9" d="M970.465 741.47L996.163 741.466C996.08 750.094 996.129 758.723 996.31 767.35C987.637 767.207 978.962 767.189 970.288 767.294C970.629 759.079 970.453 749.774 970.465 741.47Z"/><path fill="#F9F9F9" d="M331.783 920.153C340.279 920.341 348.777 920.353 357.274 920.189C357.194 928.7 357.465 937.494 357.627 946.027L331.9 946.047L331.783 920.153Z"/><path fill="#F9F9F9" d="M1123.64 741.471L1149.21 741.557C1149.2 749.431 1148.92 759.539 1149.33 767.228L1123.62 767.318C1123.6 759.083 1123.36 749.604 1123.64 741.471Z"/><path fill="#F9F9F9" d="M255.343 1048.18L281.117 1048.18C280.888 1056.87 280.97 1064.98 281.119 1073.67L255.237 1073.67C255.367 1065.21 255.321 1056.65 255.343 1048.18Z"/><path fill="#F9F9F9" d="M1047.04 818.351L1072.45 818.345C1072.44 825.539 1072.14 836.918 1072.83 843.731L1047.04 843.832C1047.05 835.48 1047.21 826.663 1047.04 818.351Z"/></svg>