<?xml version="1.0" encoding="utf-8" ?><svg xmlns="http://www.w3.org/2000/svg" xmlns:xlink="http://www.w3.org/1999/xlink" width="1254" height="1254" viewBox="0 0 1254 1254"><path fill="white" d="M0 0L83.8515 0L111.965 0L140.106 0L167.747 0L195.931 0L223.989 0L251.835 0L279.804 0L307.91 0L336.004 0L363.799 0L447.627 0L475.481 0L503.354 0L531.255 0L559.354 0L587.205 0L615.206 0L643.007 0L671.284 0L755.013 0L783.112 0L922.521 0L950.796 0L978.543 0L1090.51 0L1118.68 0L1202.87 0L1230.71 0L1254 0L1254 28.1024L1254 56.332L1254 83.8857L1254 112.084L1254 140.293L1254 168.084L1254 195.938L1254 224.042L1254 252.131L1254 279.823L1254 307.989L1254 336.155L1254 448.156L1254 476.324L1254 504.104L1254 532.216L1254 560.214L1254 588.028L1254 616.188L1254 643.625L1254 672.208L1254 699.991L1254 728.073L1254 755.639L1254 784.183L1254 811.95L1254 839.844L1254 867.64L1254 895.803L1254 923.742L1254 951.66L1254 979.73L1254 1007.77L1254 1035.7L1254 1063.55L1254 1091.64L1254 1119.74L1254 1147.49L1254 1175.3L1254 1203.2L1254 1231.34L1254 1254L1230.68 1254L1202.64 1254L1174.74 1254L1146.55 1254L1118.67 1254L1034.48 1254L1006.52 1254L978.446 1254L950.425 1254L922.442 1254L894.586 1254L866.485 1254L838.682 1254L810.763 1254L783.087 1254L754.977 1254L727.287 1254L699.201 1254L671.31 1254L642.954 1254L615.196 1254L587.196 1254L559.466 1254L531.168 1254L503.293 1254L475.494 1254L447.728 1254L363.797 1254L336.04 1254L307.841 1254L279.75 1254L251.849 1254L223.812 1254L195.857 1254L111.96 1254L83.8676 1254L56.0791 1254L28.1494 1254L0 1254L0 1231.23L0 1203.22L0 1175.31L0 1147.39L0 1119.59L0 1091.64L0 1063.5L0 755.922L0 728.074L0 700.015L0 672.262L0 644.078L0 616.291L0 588.314L0 560.205L0 532.15L0 503.993L0 476.307L0 448.173L0 420.084L0 392.198L0 364.277L0 336.205L0 308.167L0 168.072L0 140.192L0 112.081L0 83.996L0 55.9265L0 28.2411L0 0Z"/><path fill="#F7F7F7" d="M950.609 839.779L978.54 839.899L978.517 867.704L1006.69 867.661C1006.55 877.073 1006.55 886.486 1006.7 895.898C997.314 895.816 987.93 895.823 978.547 895.919C978.45 905.245 978.469 914.572 978.604 923.897C969.273 923.809 959.94 923.823 950.609 923.937L950.648 951.444L978.459 951.582L978.564 979.684L1006.73 979.651C1006.68 988.865 1006.46 998.64 1006.66 1007.81L1034.48 1007.73C1034.46 1016.4 1034.13 1027.64 1034.97 1036.03C1025.33 1035.67 1016.22 1035.81 1006.56 1035.96C1006.56 1045.06 1006.41 1054.61 1006.76 1063.66L978.49 1063.62C978.466 1071.19 978.826 1083.01 978.315 1090.21C977.363 1084.32 977.798 1070.75 977.851 1064.19L950.909 1064.19L950.837 1091.21C955.067 1092.17 973.371 1091.76 978.463 1091.74C978.493 1109.8 978.089 1129.48 978.551 1147.4L1006.64 1147.34C1006.55 1156.64 1006.57 1165.94 1006.7 1175.24L978.506 1175.32L978.493 1203.2L1006.77 1203.13C1006.6 1212.23 1006.98 1222.67 1006.66 1231.36L1034.59 1231.21C1034.65 1224.99 1034.56 1217.99 1034.99 1211.85C1035.58 1217.84 1035.41 1224.65 1035.41 1230.73C1039.73 1230.74 1057.61 1230.53 1060.57 1231.17C1052.37 1231.57 1042.79 1231.38 1034.48 1231.41L1034.48 1254L1006.52 1254L978.446 1254L950.425 1254L922.442 1254L894.586 1254L866.485 1254L838.682 1254L810.763 1254L783.087 1254L754.977 1254L727.287 1254L699.201 1254L671.31 1254L642.954 1254L615.196 1254L587.196 1254L559.466 1254C559.535 1246.47 559.432 1238.79 559.399 1231.25L587.193 1231.32L587.154 1203.14C596.514 1203.28 605.876 1203.29 615.237 1203.16C615.265 1194.05 615.416 1184.64 614.954 1175.57C606.696 1175.1 595.608 1175.5 587.139 1175.58C587.258 1166.23 587.267 1156.88 587.166 1147.53C579.956 1147.58 568.234 1147.9 561.294 1147.24C564.804 1146.63 581.889 1146.86 586.588 1146.85C586.574 1142.93 586.529 1139.11 586.731 1135.2L587.204 1135.52L587.378 1146.85C588.194 1145.59 587.811 1123.3 587.676 1120.42L587.198 1122.35L586.666 1122.32L585.535 1120.35C586.072 1119.55 586.315 1119.35 587.04 1118.75C587.586 1111.39 587.181 1099.42 587.15 1091.72L559.387 1091.78C559.515 1086.16 558.621 1069.05 560.455 1065.46C563.606 1062.67 581.995 1063.61 587.147 1063.47C587.168 1057.92 587.258 1052.37 587.417 1046.82C587.97 1051.97 587.818 1057.73 587.812 1062.96C590.095 1062.92 591.326 1062.98 593.6 1063.19C591.913 1063.88 589.175 1063.66 587.192 1063.68C587.296 1071.56 586.831 1083.99 587.628 1091.43L615.054 1091.43C615.048 1082.52 615.45 1073.06 614.904 1064.23C612.94 1062.99 611.689 1064.19 608.46 1063.29C609.685 1062.58 611.745 1063.59 614.587 1062.6C614.705 1060.79 614.79 1058.13 615.188 1056.45L615.35 1063.41L642.959 1063.56C642.944 1070.54 642.525 1085.2 643.365 1091.43C652.331 1091.42 662.301 1091.21 671.177 1091.63C671.495 1082.65 671.225 1072.67 671.152 1063.61C661.903 1063.51 652.494 1063.62 643.232 1063.65L643.232 1035.71C635.743 1035.69 621.967 1035.28 615.126 1036.14C615.352 1026.84 615.212 1017.04 615.223 1007.71L642.961 1007.85C643.198 998.456 643.228 989.06 643.051 979.667C652.446 979.785 661.843 979.776 671.238 979.642C671.231 988.712 671.008 998.782 671.304 1007.77L699.214 1007.77L699.175 979.62C706.362 979.732 713.3 979.857 720.489 979.7C729.229 979.51 743.683 978.309 752.141 979.387C750.87 979.927 730.034 979.833 726.941 979.854C726.881 988.638 726.617 998.955 727.007 1007.68L754.979 1007.82C754.948 1017.1 754.997 1026.38 755.127 1035.67C764.43 1035.81 773.735 1035.84 783.038 1035.75C783.102 1032.61 783.019 1028.03 783.602 1025.07C783.665 1038.17 783.065 1050.38 783.334 1063.75L754.976 1063.53C754.952 1071.53 754.617 1083.83 755.394 1091.43L783.105 1091.43C783.073 1082.12 783.101 1072.81 783.187 1063.5L838.857 1063.57C838.831 1072.05 838.736 1080.45 839.095 1088.92C839.773 1084.23 839.293 1069.73 839.17 1064.46C847.156 1063.57 857.433 1063.87 865.674 1063.89C866.166 1068.24 866.02 1077.02 866.149 1081.75C866.579 1076.67 866.394 1069.44 866.411 1064.19L893.965 1064.19C893.942 1071.43 893.686 1082.45 894.298 1089.45C894.961 1085.32 894.576 1068.67 894.535 1063.5L922.431 1063.48L922.431 1035.98C913.226 1035.76 903.796 1035.95 894.568 1036.03C894.717 1026.76 894.594 1017.16 894.601 1007.86C885.308 1007.73 876.014 1007.75 866.721 1007.9L866.723 979.574L894.453 979.657C894.734 970.617 894.548 960.895 894.526 951.802C891.565 951.843 890.464 951.944 887.612 951.381C889.582 950.643 891.757 950.897 893.965 950.909C893.913 948.063 893.931 946.367 894.205 943.541C894.852 945.127 894.756 949.47 894.804 951.407C903.908 951.813 913.296 951.578 922.431 951.473C922.448 942.273 922.539 933.073 922.704 923.874C913.975 923.915 905.247 923.829 896.521 923.616C904.275 922.993 913.489 923.664 921.451 923.192L922.333 921.14L922.787 922.436L923.085 922.228C923.653 906.144 922.582 884.617 922.639 867.667L950.609 867.66L950.609 839.779Z"/><path fill="#F7F7F7" d="M0 0L83.8515 0L111.965 0L140.106 0C139.929 8.20491 139.62 19.8147 140.136 27.8537C145.939 27.9264 162.588 27.0341 166.243 29.5865C167.802 31.8028 167.493 32.8152 167.972 35.4133L167.52 31.8766C168.585 35.5996 168.482 49.4284 167.644 53.1395L167.646 52.9141C167.05 53.9844 166.102 55.969 164.745 56.0325C156.827 56.4025 147.918 56.0186 139.958 56.3205C139.983 65.4452 139.899 74.8175 140.081 83.9196L167.809 83.8764L167.801 112.022L196.049 111.958C195.952 121.343 195.739 130.939 196.059 140.3C187 140.283 176.737 140.514 167.786 140.236C167.778 149.495 167.663 158.999 167.838 168.236L195.625 168.195C195.632 177.698 195.972 186.927 196.033 196.286L167.792 196.32C167.749 205.594 167.753 214.868 167.803 224.142C159.104 224.145 148.575 223.9 140.029 224.384C139.992 232.965 139.663 243.966 140.237 252.336L111.914 252.341L111.948 224.223L83.9369 224.197C83.8843 229.733 83.4536 247.925 84.2989 252.257C80.2285 252.268 58.9199 251.077 56.6732 252.847C55.5244 253.752 55.4701 255.879 55.4677 257.203C55.4538 264.853 56.0913 272.604 56.3166 280.267L83.9695 280.287C83.8972 286.951 83.4188 302.37 84.3718 308.106C93.5622 308.149 102.753 308.129 111.943 308.047C111.952 303.965 111.76 284.965 112.433 282.211C113.444 300.024 110.653 320.178 112.168 336.271L83.9738 336.25C83.7981 345.835 83.6867 354.75 83.9614 364.322L56.0198 364.274C56.005 355.191 56.1846 345.283 55.8943 336.269C46.6447 336.355 37.3945 336.332 28.1455 336.201C28.1222 345.583 28.1674 354.964 28.2809 364.344L0 364.277L0 336.205L0 308.167L0 168.072L0 140.192L0 112.081L0 83.996L0 55.9265L0 28.2411L0 0Z"/><path fill="#F7F7F7" d="M111.923 1007.66C121.233 1007.74 130.544 1007.75 139.855 1007.69C139.902 1015.72 139.614 1027.75 140.217 1035.45C149.597 1035.9 158.515 1035.7 167.82 1035.89C167.824 1040.55 168.75 1061.22 166.667 1063.43L163.996 1063.71L164.318 1064.14L166.721 1064.27C167.608 1066.76 166.978 1083.59 167.417 1088.26C167.913 1087.3 167.756 1066.23 167.761 1063.47L195.488 1063.48C196.264 1071.3 195.875 1083.53 196.042 1091.77L167.798 1091.71C167.76 1100.84 167.54 1110.74 167.829 1119.81C159.962 1119.74 147.415 1119.26 139.918 1119.81C139.926 1128.68 139.727 1138.66 140.114 1147.43L167.798 1147.42C167.732 1156.72 167.747 1166.01 167.841 1175.31C158.575 1175.35 149.309 1175.46 140.044 1175.62C139.91 1184.39 139.683 1194.43 140.073 1203.17C149.301 1203.28 158.53 1203.26 167.757 1203.13C167.74 1198.09 167.387 1181.19 168.076 1177.12C169.052 1184.28 167.884 1194.69 168.488 1202.21C169.983 1202.69 169.238 1202.53 170.718 1202.71L170.492 1203.35L168.387 1203.58C167.212 1205.8 167.783 1226.97 167.851 1231.27L195.883 1231.33L195.824 1203.14C205.087 1203.22 214.565 1203.4 223.804 1203.09C223.732 1212.46 223.731 1221.82 223.802 1231.18C233.147 1231.3 242.492 1231.32 251.837 1231.22L251.849 1254L223.812 1254L195.857 1254L111.96 1254L83.8676 1254L56.0791 1254L28.1494 1254L0 1254L0 1231.23L0 1203.22L0 1175.31L0 1147.39L0 1119.59L0 1091.64L0 1063.5L83.8677 1063.47L83.8446 1035.71C75.285 1035.69 64.346 1035.38 55.9887 1035.93C56.1301 1026.51 56.1931 1017.09 56.1776 1007.67C65.3457 1007.89 74.6472 1007.64 83.8845 1007.81C83.8456 1016.85 83.7052 1026.55 84.0237 1035.57C93.3073 1035.81 102.595 1035.9 111.881 1035.81C111.948 1026.43 111.962 1017.04 111.923 1007.66Z"/><path fill="#F7F7F7" d="M671.284 0L755.013 0L783.112 0L922.521 0C922.532 9.17193 922.377 19.006 922.697 28.1208C931.962 28.1363 941.227 28.0924 950.491 27.9892C950.467 36.9723 950.234 47.0697 950.62 55.9579C941.578 56.5819 931.888 55.8616 922.668 56.3236C922.463 65.5547 922.492 74.7894 922.754 84.0191L894.452 84.0994C894.539 74.7906 894.579 65.4814 894.571 56.1722C885.151 56.0595 876.133 55.9514 866.723 56.2564L866.723 84.0708C857.153 84.0259 848.132 84.0297 838.576 84.3957C838.682 93.2812 838.412 103.349 838.851 112.062C831.091 112.485 818.721 112.13 810.75 112.121L810.791 140.27L783.118 140.206C783.476 148.806 783.219 159.319 783.246 168.072L754.952 168.072L754.979 140.182C745.692 140.287 736.405 140.33 727.118 140.311L727.118 112.387C717.973 112.031 708.328 112.091 699.15 112.099C699.136 105.834 698.675 58.8423 699.619 56.4024C701.301 56.3997 702.446 56.4913 704.092 56.0612C702.083 56.1105 701.917 56.1895 699.9 55.6975C699.632 52.6883 699.26 30.4365 700.234 28.87L704.134 28.7013L704.061 28.4104C698.587 27.5761 677.681 28.1223 671.076 28.162C671.419 19.077 671.262 9.15004 671.284 0Z"/><path fill="#F7F7F7" d="M587.12 83.8782C596.431 83.9252 605.743 83.9218 615.054 83.868C615.063 92.7475 614.822 103.383 615.352 112.109C623.9 111.943 634.554 111.733 643.013 112.081C642.986 121.359 642.857 130.857 643.135 140.11L671.171 140.183C671.156 149.351 671.046 159.109 671.308 168.239L699.214 168.209L699.312 196.294L671.398 196.387L671.398 224.062C680.642 224.027 690.002 224.069 699.234 223.923C699.225 233.32 699.118 242.896 699.234 252.277L671.194 252.272L671.252 280.549C664.694 279.714 650.211 280.106 643.016 280.123C643.133 270.933 643.291 261.484 642.971 252.323L615.277 252.253L615.199 224.193C605.901 224.125 596.603 224.12 587.305 224.179C587.248 233.57 587.253 242.962 587.32 252.352C577.97 252.272 568.62 252.272 559.27 252.352C559.391 243.015 559.318 233.522 559.334 224.171C550.139 224.008 540.514 224.202 531.286 224.257L531.35 196.398C529.034 196.42 527.078 196.327 524.762 196.201C527.269 195.713 529.767 195.352 532.137 194.433L532.093 168.996C534.451 169.015 540.38 169.091 542.56 168.674C539.134 168.083 534.851 168.333 531.303 168.383C531.271 158.996 531.341 149.609 531.515 140.224C540.115 139.887 550.487 140.143 559.229 140.125C559.673 130.906 559.463 121.215 559.396 111.946C568.668 111.896 577.941 111.966 587.212 112.154L587.12 83.8782Z"/><path fill="#F7F7F7" d="M475.437 84.0638C468.37 84.0658 458.711 84.3041 451.927 83.6554C462.561 82.5091 490.641 83.9824 503.362 83.909L503.362 112.026C512.681 111.981 522.204 112.119 531.482 111.974C531.338 121.39 531.348 130.808 531.515 140.224C522.112 140.284 512.709 140.285 503.306 140.226L503.352 168.072C484.826 168.013 466.841 168.954 448.153 169.049L448.072 168.696C441.404 167.751 426.539 167.743 419.741 168.571L419.741 140.217C410.433 140.183 401.125 140.205 391.818 140.282C391.481 149.619 391.501 158.966 391.878 168.302C383.005 167.949 372.551 167.889 363.741 168.463C363.752 158.98 363.895 149.744 363.805 140.212C371.039 139.69 384.082 140.101 391.614 140.102C391.925 131.138 391.692 121.168 391.805 112.04C400.985 112.01 410.479 112.146 419.617 111.947C419.534 121.344 419.363 130.703 419.828 140.092C428.252 140.106 439.422 139.782 447.614 140.211L447.668 112.086C456.93 111.965 466.193 111.918 475.456 111.944C475.476 102.808 475.652 93.157 475.437 84.0638Z"/><path fill="#F7F7F7" d="M1230.71 503.957C1238.47 504.086 1246.24 504.135 1254 504.104L1254 532.216L1254 560.214L1254 588.028L1254 616.188L1254 643.625C1246.26 644.194 1238.5 644.367 1230.75 644.143L1230.8 672.194C1221.39 672.101 1211.99 672.158 1202.59 672.364L1202.69 644.149C1196.1 644.431 1183.36 644.307 1176.77 643.984C1179.69 643.335 1197.64 643.537 1201.95 643.532C1201.88 624.779 1202.75 606.903 1202.55 588.157L1230.68 588.124L1230.75 560.217C1221.37 560.345 1211.98 560.383 1202.6 560.333C1202.78 551.132 1202.61 541.388 1202.59 532.146L1230.68 532.072L1230.71 503.957Z"/><path fill="#F7F7F7" d="M1230.7 839.757C1238.38 839.904 1246.3 839.828 1254 839.844L1254 867.64L1254 895.803L1254 923.742L1254 951.66L1254 979.73L1254 1007.77L1254 1035.7C1246.26 1035.7 1238.37 1035.89 1230.62 1035.99L1230.73 1007.79C1221.7 1008.05 1211.79 1007.85 1202.7 1007.84L1202.65 979.626L1230.67 979.745C1230.62 970.388 1230.65 961.031 1230.76 951.674C1228.14 951.853 1208.06 951.83 1207.09 951.348L1207.12 951.351L1206.88 951.172C1213.81 950.705 1223.01 950.911 1230.12 950.909L1230.12 924.58C1225.78 924.591 1209.44 924.801 1206.1 924.209C1212.33 923.192 1223.88 923.689 1230.62 923.668C1230.62 914.379 1230.67 905.091 1230.76 895.803L1202.8 895.834C1202.41 886.964 1202.61 876.587 1202.56 867.6C1211.89 868.023 1221.29 867.779 1230.63 867.638C1230.81 858.484 1230.69 848.942 1230.7 839.757Z"/><path fill="#F7F7F7" d="M1230.7 672.121L1254 672.208L1254 699.991L1254 728.073L1254 755.639L1254 784.183L1254 811.95L1230.68 812.02L1230.67 784.332L1202.62 784.358C1202.64 779.984 1203.3 761.909 1201.84 756.365C1201.72 755.923 1200.51 756.761 1199.41 755.682C1200.82 755.656 1200.37 755.716 1201.82 755.224C1202.35 747.949 1201.97 736.24 1201.95 728.643C1193.36 728.644 1184.37 728.771 1175.82 728.463C1180.34 727.653 1197.2 727.934 1202.54 727.9C1202.81 718.958 1202.62 709.181 1202.61 700.177L1230.7 700.177L1230.7 672.121Z"/><path fill="#F7F7F7" d="M1230.71 1175.32C1238.47 1175.41 1246.24 1175.41 1254 1175.3L1254 1203.2L1254 1231.34L1254 1254L1230.68 1254L1202.64 1254L1174.74 1254C1174.86 1246.41 1174.84 1238.82 1174.69 1231.24L1202.79 1231.22C1202.49 1222.18 1202.65 1212.26 1202.61 1203.16L1230.71 1203.22C1230.57 1194.05 1230.71 1184.52 1230.71 1175.32Z"/><path fill="#F7F7F7" d="M1230.72 112.016C1231.03 83.1191 1223.49 83.5199 1254 83.8857L1254 112.084L1254 140.293L1254 168.084L1231.03 168.084C1231.06 159.272 1231.31 148.979 1230.84 140.298C1222.42 139.897 1211.2 140.226 1202.57 140.218L1202.57 112.052L1230.72 112.016Z"/><path fill="#F7F7F7" d="M1230.69 224.195C1230.78 218.826 1229.24 200.773 1231.86 197.394C1236.07 195.043 1248.61 195.901 1254 195.938L1254 224.042L1254 252.131L1254 279.823L1230.73 279.823L1230.69 252.159C1222.46 251.629 1211.31 251.952 1202.87 251.968L1202.87 224.406C1211.54 224.429 1222.2 224.716 1230.69 224.195Z"/><path fill="#F7F7F7" d="M307.8 1203.18C317.247 1203.3 326.695 1203.28 336.142 1203.14C335.852 1212.67 336.273 1222 336.057 1231.3C344.845 1231.27 355.117 1230.98 363.783 1231.29L363.797 1254L336.04 1254L307.841 1254L279.75 1254L279.845 1231.33C289.181 1231.35 298.517 1231.32 307.852 1231.25L307.8 1203.18Z"/><path fill="#F7F7F7" d="M223.989 0L251.835 0L279.804 0L307.91 0C307.571 9.11007 307.888 19.0651 308.07 28.1859C298.675 28.0984 289.28 28.1338 279.886 28.2922C279.881 31.0072 279.352 38.3911 279.589 40.4125C279.042 37.3695 279.209 32.0429 279.211 28.7783C260.47 28.8463 242.642 27.995 223.913 28.3113C223.647 19.4282 223.705 8.88145 223.989 0Z"/><path fill="#F7F7F7" d="M1202.87 0L1230.71 0L1254 0L1254 28.1024L1254 56.332C1248.87 56.3843 1235.9 57.2153 1231.89 55.1204C1231.09 54.1823 1230.31 53.0039 1230.37 51.7208C1230.75 43.8123 1230.76 35.9783 1230.71 28.0619C1222.35 27.5367 1211.42 27.8476 1202.87 27.866L1202.87 0Z"/><path fill="#F7F7F7" d="M642.919 83.9479L671.202 83.8741C671.126 93.2495 671.173 102.625 671.343 112C679.184 111.982 691.529 111.593 699.15 112.099C699.183 121.437 699.103 131.044 699.321 140.357C690.401 140.287 679.943 140.514 671.171 140.183C671.328 130.929 671.214 121.426 671.208 112.152C661.916 112.079 652.532 112.182 643.232 112.22C643.247 102.998 643.434 93.0874 642.919 83.9479Z"/><path fill="#F7F7F7" d="M28.1302 476.207C37.0335 476.184 47.2993 476.401 56.0906 476.023C55.6683 485.338 55.9133 494.876 56.0387 504.216C46.7465 504.13 37.4538 504.119 28.1615 504.184C28.1437 513.393 27.9744 523.132 28.261 532.293C18.8734 532.235 9.3778 532.1 0 532.15L0 503.993C9.37843 504.176 18.7595 504.183 28.1382 504.014C28.2715 494.745 28.2688 485.475 28.1302 476.207Z"/><path fill="#F7F7F7" d="M1090.49 1203.09C1099.93 1203.19 1109.37 1203.2 1118.8 1203.11C1118.79 1212.37 1118.64 1222 1118.79 1231.22C1128.04 1231.34 1137.29 1231.33 1146.53 1231.17L1146.55 1254L1118.67 1254L1118.69 1231.46C1109.31 1231.38 1099.93 1231.35 1090.55 1231.38C1090.65 1221.95 1090.63 1212.52 1090.49 1203.09Z"/><path fill="#F7F7F7" d="M391.71 58.9344L391.904 57.2212L392.315 57.1765C392.852 64.397 392.498 75.7527 392.487 83.2734C399.737 83.2655 407.94 83.0424 415.092 83.701C408.186 84.4368 398.785 83.8222 391.565 84.2247C391.587 92.7148 392.021 103.872 391.805 112.04L364.154 112.156C363.6 104.223 363.463 91.9045 363.829 83.9061L391.707 83.9017L391.71 58.9344Z"/><path fill="#F7F7F7" d="M167.747 0L195.931 0C195.826 9.39383 195.867 18.7887 196.055 28.1813L167.708 28.1952L167.747 0Z"/><path fill="#F7F7F7" d="M167.803 224.142C177.201 224.001 186.6 223.955 195.999 224.002C195.843 233.425 195.858 242.85 196.043 252.273L167.81 252.323C167.794 243.248 167.547 233.129 167.803 224.142Z"/><path fill="#F7F7F7" d="M251.706 1203.16C261.058 1203.16 270.618 1203.27 279.951 1203.14L279.845 1231.33L252.116 1231.44C251.403 1222.63 251.662 1212.15 251.706 1203.16Z"/><path fill="#F7F7F7" d="M0 560.205C9.35287 560.188 18.8889 560.072 28.225 560.185C28.163 569.274 27.8933 579.382 28.3059 588.377C18.4063 588.148 9.86568 588.061 0 588.314L0 560.205Z"/><path fill="#F7F7F7" d="M503.354 0L531.255 0C531.373 9.39645 531.444 18.7934 531.467 28.1906C522.059 28.0629 512.649 28.0897 503.241 28.271L503.354 0Z"/><path fill="#F7F7F7" d="M1202.62 420.137L1230.78 420.045C1230.78 428.94 1231.05 439.437 1230.73 448.193C1221.36 448.292 1211.98 448.328 1202.6 448.302L1202.62 420.137Z"/><path fill="#F7F7F7" d="M0 448.173L28.2888 448.076C28.1715 456.958 27.7792 467.599 28.1921 476.385C18.9971 476.241 9.12045 475.916 0 476.307L0 448.173Z"/><path fill="#F7F7F7" d="M838.851 112.062C848.093 111.972 857.336 111.945 866.579 111.981C866.57 120.968 866.321 131.344 866.703 140.22C857.377 140.232 847.904 140.157 838.592 140.297C838.66 132.557 838.244 119.159 838.851 112.062Z"/><path fill="#F7F7F7" d="M0 392.198C9.38175 392.262 18.7638 392.264 28.1456 392.202C28.158 400.872 27.8654 411.761 28.2854 420.25L0 420.084L0 392.198Z"/><path fill="#F7F7F7" d="M0 728.074L28.2386 727.965C28.0891 737.372 28.1047 746.782 28.2853 756.189C19.8593 756.133 8.14738 756.425 0 755.922L0 728.074Z"/><path fill="#F7F7F7" d="M587.139 252.169L615.277 252.253C615.19 261.487 615.311 270.876 615.346 280.123C606.52 280.094 595.728 279.776 587.114 280.557C587.216 271.094 587.225 261.631 587.139 252.169Z"/><path fill="#F7F7F7" d="M615.206 0L643.007 0C642.968 9.42751 643.01 18.8552 643.135 28.282C633.817 28.1794 624.499 28.1486 615.182 28.1897L615.206 0Z"/><path fill="#F7F7F7" d="M336.004 0L363.799 0L363.866 28.1655L336.005 28.1618C335.876 18.8786 336.001 9.30769 336.004 0Z"/><path fill="#F7F7F7" d="M950.796 0L978.543 0C978.256 8.87744 978.539 19.1658 978.568 28.1503L950.606 28.1672C950.607 18.7778 950.67 9.38853 950.796 0Z"/><path fill="#F7F7F7" d="M419.741 83.8629L447.624 83.8977C447.525 93.2936 447.539 102.69 447.668 112.086C438.355 112.23 429.051 112.093 419.741 112.217L419.741 83.8629Z"/><path fill="#F7F7F7" d="M83.8663 979.642L112.088 979.636C111.881 989.366 111.805 998.13 112.086 1007.85C103.222 1007.84 92.5941 1008.14 83.8845 1007.81L83.8663 979.642Z"/><path fill="#F7F7F7" d="M447.627 0L475.481 0C475.344 9.40815 475.337 18.8178 475.46 28.2261C466.138 28.1024 456.814 28.0894 447.492 28.1871C447.592 18.7918 447.637 9.39589 447.627 -5.43836e-16L447.627 0Z"/><path fill="#F7F7F7" d="M0 672.262L28.1679 672.203C28.1623 681.158 27.936 691.333 28.3294 700.187L0 700.015L0 672.262Z"/><path fill="#F7F7F7" d="M335.97 112.032C345.247 112.067 354.525 112.043 363.802 111.961L363.805 140.212L336.021 140.266L335.97 112.032Z"/><path fill="#F7F7F7" d="M0 616.291L28.1829 616.291C28.1687 625.291 27.9428 635.326 28.2615 644.245L0 644.078L0 616.291Z"/><path fill="#F7F7F7" d="M363.795 1203.19C372.97 1203.21 382.843 1203.39 391.962 1203.12C391.507 1211.36 391.138 1223.26 392.053 1231.38C383.108 1231.36 372.591 1231.62 363.783 1231.29L363.795 1203.19Z"/><path fill="#F7F7F7" d="M559.354 0L587.205 0C587.142 9.39611 587.192 18.7926 587.353 28.1876C578.012 28.0935 568.671 28.0903 559.33 28.1782C559.453 18.8699 559.709 9.27548 559.354 0Z"/><path fill="#F7F7F7" d="M1090.51 0L1118.68 0L1118.68 28.166C1112.86 28.1823 1095.57 29.3557 1091.92 26.78C1089.33 23.048 1090.49 5.78278 1090.51 0Z"/><path fill="#F7F7F7" d="M615.207 56.0816C624.473 56.113 633.739 56.0949 643.004 56.0274C642.986 64.7842 643.26 75.3499 642.919 83.9479C633.634 84.1047 624.348 84.1423 615.062 84.0604C615.235 74.7352 615.283 65.4081 615.207 56.0816Z"/><path fill="#F7F7F7" d="M1230.69 1063.45L1254 1063.55L1254 1091.64L1230.68 1091.73L1230.69 1063.45Z"/><path fill="#F7F7F7" d="M1230.73 448.193C1238.49 447.872 1246.25 448.237 1254 448.156L1254 476.324C1246.49 476.089 1238.23 476.313 1230.66 476.385L1230.73 448.193Z"/><path fill="#F7F7F7" d="M1230.7 1119.55C1237.9 1119.9 1246.68 1119.71 1254 1119.74L1254 1147.49L1230.65 1147.65L1230.7 1119.55Z"/><path fill="#F7F7F7" d="M1230.73 308.602C1237.88 308.803 1246.31 307.959 1254 307.989L1254 336.155L1230.73 336.155L1230.73 308.602Z"/><path fill="#F7F7F7" d="M503.268 1231.22C512.568 1231.3 521.868 1231.3 531.168 1231.22L531.168 1254L503.293 1254L503.268 1231.22Z"/><path fill="#F7F7F7" d="M447.598 1231.25L475.379 1231.23C475.372 1238.41 475.172 1246.93 475.494 1254L447.728 1254C447.591 1246.42 447.547 1238.83 447.598 1231.25Z"/><path fill="#002E5F" d="M402.916 463.807L402.83 404.415C402.809 394.689 402.549 384.534 403.087 374.85C403.586 365.874 418.706 364.843 418.973 375.368C419.717 404.746 418.549 434.429 419.279 463.789C424.973 464.512 430.496 466.235 435.593 468.877C450.556 476.753 457.814 488.732 462.594 504.331C467.313 504.007 470.76 503.855 475.475 503.942C475.392 513.387 475.383 522.831 475.448 532.276C470.867 532.315 465.769 532.241 461.236 532.41C453.534 552.767 440.822 564.126 419.284 568.132C418.914 628.724 418.862 689.318 419.131 749.91C419.127 762.755 420.055 822.375 417.505 829.717C413.813 832.916 409.313 834.554 405.802 830.509C400.924 824.889 402.839 807.319 402.845 799.912L402.85 746.248L402.869 567.977C395.282 566.394 389.837 564.615 383.241 560.281C371.39 552.466 363.208 540.185 360.561 526.239C357.791 511.793 360.997 496.841 369.447 484.801C377.673 472.907 388.864 466.38 402.916 463.807Z"/><path fill="#F7F7F7" d="M462.594 504.331C467.313 504.007 470.76 503.855 475.475 503.942C475.392 513.387 475.383 522.831 475.448 532.276C470.867 532.315 465.769 532.241 461.236 532.41C464.457 522.687 464.243 514.266 462.594 504.331Z"/><path fill="#F7F7F7" d="M406.074 479.335C426.245 476.274 445.082 490.134 448.161 510.302C451.24 530.47 437.396 549.319 417.23 552.415C397.04 555.514 378.164 541.65 375.082 521.458C371.999 501.265 385.879 482.401 406.074 479.335Z"/><path fill="#002E5F" d="M857.29 367.436C862.252 367.877 866.212 369.279 866.531 375.087C867.073 384.973 866.853 394.991 866.839 404.904L866.61 463.706C887.842 467.54 903.361 481.465 908.803 502.542C912.412 516.363 910.331 531.053 903.028 543.329C894.528 557.654 882.416 564.275 866.778 568.169L866.787 737.361L866.776 793.02C866.8 802.596 867.052 812.18 866.932 821.753C866.847 828.527 865.455 830.914 858.955 832.745C854.816 832.07 851.011 830.41 850.867 825.447C850.606 816.414 850.704 807.328 850.702 798.288L850.775 740.929L850.7 568.371C841.817 566.307 836.395 564.633 828.793 559.284C817.163 551.193 809.302 538.741 806.999 524.763C804.68 510.599 808.113 496.096 816.536 484.474C825.125 472.531 836.408 466.097 850.769 463.808C850.522 451.945 849.564 375.579 851.538 371.746C852.786 369.32 854.926 368.462 857.29 367.436Z"/><path fill="#F7F7F7" d="M853.218 479.355C873.315 476.456 891.983 490.326 895.007 510.405C898.032 530.483 884.278 549.237 864.219 552.387C843.982 555.565 825.025 541.663 821.974 521.406C818.923 501.15 832.943 482.28 853.218 479.355Z"/><path fill="#F7F7F7" d="M978.47 643.976L1006.63 644.131C1006.51 653.47 1006.54 662.811 1006.69 672.15C1015.94 672.275 1025.35 672.198 1034.61 672.214C1034.69 662.832 1034.71 653.449 1034.67 644.066C1042.88 644.077 1053.55 643.802 1061.56 644.307C1056.06 645.192 1041.68 644.793 1035.41 644.757C1035.3 653.532 1035.33 662.308 1035.48 671.083C1036.51 672.071 1037.48 671.69 1039.4 671.733L1039.75 672.152C1037.65 672.213 1037.28 672.097 1035.28 672.829C1033.48 676.531 1034.5 695.205 1034.93 700.136C1025.54 699.94 1016.15 699.961 1006.76 700.199C1006.44 709.247 1006.63 718.956 1006.67 728.058L1034.81 728.071C1034.17 734.203 1034.28 750.142 1034.92 756.258C1027.72 755.952 1013.51 755.399 1006.63 756.277C1006.56 765.541 1006.37 775.088 1006.8 784.317C999.584 784.39 988.03 783.789 980.822 784.44C979.521 784.557 978.901 786.554 978.447 787.653C978.458 787.305 978.468 786.958 978.479 786.61C977.129 793.214 979.079 803.861 977.352 811.192C973.941 811.552 952.879 812.211 950.964 810.91L950.593 805.883C950.202 806.279 950.089 810.01 950 810.973C947.884 812.671 926.885 811.945 922.743 811.916L922.431 756.509L894.474 756.509C894.777 747.307 894.534 737.276 894.473 728.008L922.431 728.07L922.433 699.965C931.667 699.768 941.03 700.1 950.459 699.887C950.738 690.921 950.574 681.215 950.614 672.175L978.427 672.116C978.524 662.736 978.539 653.356 978.47 643.976Z"/><path fill="#F7F7F7" d="M726.811 727.911C736.157 728.052 745.663 727.997 755.023 728.032C754.914 737.53 754.851 746.472 755.163 755.957C764.446 756.214 773.735 756.213 783.017 755.954C783.179 746.696 783.001 737.382 783.168 728.075L810.743 728.029L810.789 756.205C801.597 755.979 792.401 755.983 783.209 756.217C783.045 781.622 782.225 814.824 783.307 839.846C792.398 839.86 801.658 839.777 810.732 839.897L810.81 867.788C801.71 867.794 792.309 867.673 783.236 867.827L783.218 895.766C773.793 895.86 764.369 895.905 754.944 895.901L754.911 867.585C764.289 867.742 773.668 867.748 783.046 867.604C783.262 858.571 783.111 849.16 783.085 840.096L755.031 839.962L755.11 867.777C745.69 867.743 736.27 867.79 726.851 867.918C727.062 858.841 726.926 849.214 726.952 840.092C718.205 839.679 708.115 840.005 699.262 840.103C699.018 849.209 699.222 858.68 699.302 867.82C689.901 867.76 680.622 867.657 671.223 867.97C671.247 873.711 671.621 888.716 670.889 893.647C669.583 888.325 671.043 866.282 671.209 859.92C671.374 853.579 671.239 846.51 671.169 840.071C661.743 840.031 652.317 840.053 642.892 840.136C643.153 830.742 643.264 821.344 643.225 811.946C652.33 811.685 662.077 811.85 671.231 811.851L671.308 839.818L699.169 839.781L699.237 756.146C708.439 756.172 717.64 756.139 726.84 756.049C726.989 746.67 726.979 737.289 726.811 727.911Z"/><path fill="#F7F7F7" d="M894.531 111.938C903.734 112.203 913.419 112.077 922.661 112.092C922.58 121.455 922.6 130.818 922.721 140.18L950.595 140.152C950.88 131.118 950.69 121.068 950.714 111.955C959.993 112.07 969.272 112.085 978.551 112.001L1006.63 112.052C1006.64 121.146 1006.44 131.12 1006.68 140.136C1006.55 149.542 1006.57 158.949 1006.73 168.355C997.348 168.106 987.96 168.107 978.578 168.356C978.481 177.657 978.474 186.958 978.556 196.259L950.553 196.31C950.347 205.545 950.353 214.784 950.57 224.019C959.9 224.093 969.231 224.094 978.561 224.022C978.553 233.363 978.66 242.958 978.491 252.276L950.527 252.296C950.684 242.927 950.632 233.556 950.369 224.189C941.127 224.1 931.885 224.09 922.644 224.16C922.55 233.512 922.355 243.006 922.732 252.339L894.573 252.313C894.662 242.9 894.525 233.51 894.656 224.066C891.809 224.147 888.767 224.074 885.902 224.059C884.878 223.442 885.484 223.62 884.029 223.775L885.236 223.941C886.38 223.198 892.097 223.499 893.965 223.491C893.898 204.897 894.754 187.112 894.516 168.53C886.93 167.7 874.738 168.05 866.723 168.072L866.723 140.123L894.612 140.199L894.531 111.938Z"/><path fill="#002E5F" d="M618.324 701.954L618.271 644.755C618.238 635.334 617.882 625.598 618.492 616.227C619.089 607.042 633.704 607.193 634.236 616.06C634.783 625.173 634.517 634.678 634.51 643.83L634.447 701.229C636.641 701.52 638.821 701.906 640.981 702.387C656.603 705.952 666.273 715.576 674.566 728.585C677.688 727.212 695.056 728.033 699.283 728.054L699.237 756.146C695.117 756.23 684.486 756.137 681.017 754.883C679.571 781.864 661.481 802.4 634.428 805.617C634.41 814.337 636.835 842.18 631.628 847.765C630.252 849.24 628.394 850.018 626.383 850.009C624.426 850.001 622.613 849.313 621.241 847.878C619.568 846.128 618.733 843.754 618.38 841.396C617.08 832.715 618.273 815.073 618.345 805.477C612.006 803.623 607.94 802.412 602.221 799.067C590.205 792.024 581.494 780.48 578.018 766.993C574.455 753.585 576.394 739.31 583.406 727.34C591.54 713.512 603.063 705.888 618.324 701.954Z"/><path fill="#F7F7F7" d="M674.566 728.585C677.688 727.212 695.056 728.033 699.283 728.054L699.237 756.146C695.117 756.23 684.486 756.137 681.017 754.883C681.129 744.759 678.993 737.525 674.566 728.585Z"/><path fill="#F7F7F7" d="M628.082 716.807C648.308 716.52 664.985 732.593 665.444 752.816C665.903 773.04 649.974 789.853 629.755 790.484C609.29 791.124 592.228 774.958 591.764 754.489C591.299 734.02 607.609 717.097 628.082 716.807Z"/><path fill="#002E5F" d="M504.497 660.519C546.748 644.589 566.403 563.652 618.59 555.062C630.989 552.647 641.71 554.955 653.191 559.862C705.664 582.291 723.179 683.222 793.376 659.895C802.606 656.828 809.729 651.047 817.437 645.351C822.473 641.63 831.66 638.186 833.278 647.148C834.905 654.22 829.141 656.779 824.488 660.359C808.372 672.815 788.442 680.968 767.79 678.934C717.348 673.968 698.402 619.627 666.492 588.263C633.935 556.262 605.037 568.568 579.754 601.079C556.502 630.169 536.688 673.322 495.548 678.84C475.782 681.492 458.44 673.176 442.96 661.36C436.556 656.472 432.19 647.697 443.883 644.043C446.642 643.18 452.526 648.595 454.662 650.103C460.997 655.323 466.588 658.521 474.354 661.252C475.987 656.315 475.599 649.479 475.664 644.078L503.39 644.127C503.346 647.767 502.688 658.186 504.497 660.519Z"/><path fill="#F7F7F7" d="M475.664 644.078L503.39 644.127C503.346 647.767 502.688 658.186 504.497 660.519C494.114 664.404 485.028 664.276 474.354 661.252C475.987 656.315 475.599 649.479 475.664 644.078Z"/><path fill="#F7F7F7" d="M950.609 448.125C959.903 448.061 969.196 448.088 978.489 448.206C978.465 457.428 978.379 467.018 978.589 476.22L1006.65 476.188C1006.65 485.328 1006.48 495.118 1006.77 504.204C997.369 504.072 987.967 504.07 978.567 504.198C978.381 513.526 978.362 522.856 978.512 532.185C969.051 532.532 960.518 531.866 950.609 532.54C950.553 541.884 950.589 551.228 950.719 560.571L923.055 560.571L923.055 588.117C913.529 588.043 904.002 588.046 894.476 588.127C894.604 578.734 894.634 569.339 894.567 559.945C902.762 560.208 914.416 560.558 922.431 559.775L922.478 532.78C922.883 533.293 922.532 535.065 923.062 536.928C923.095 535.224 922.956 534.12 923.709 532.593C927.045 532.122 943.79 532.365 948.34 532.31C940.808 531.834 930.493 532.103 922.743 532.093C922.76 528.595 923.288 506.132 922.078 504.207C920.838 504.039 919.733 503.883 918.503 503.654C920.099 503.668 921.024 503.913 922.263 503.017C923.205 495.138 921.78 485.944 922.562 477.356L923.158 478.806L923.3 477.332L924.041 476.911C931.716 476.983 939.262 477.004 946.933 476.607C946.874 476.61 949.538 478.334 949.752 478.471L950.509 477.777C951.196 474.088 950.629 452.938 950.609 448.125Z"/><path fill="#F7F7F7" d="M391.734 168.236L419.495 168.232C419.52 177.235 419.344 187.33 419.778 196.238L391.563 196.238C391.564 203.347 391.177 217.529 391.886 224.068L419.606 224C419.542 233.21 419.287 243.229 419.824 252.343C410.48 252.324 400.884 252.19 391.563 252.327C391.551 260.964 391.24 271.836 391.693 280.293C381.878 280.421 373.628 279.911 363.702 280.547C363.804 271.114 363.833 261.681 363.789 252.248L335.986 252.3C336.032 242.835 336 233.371 335.892 223.907C345.194 223.895 354.495 223.979 363.795 224.158L363.73 196.25L391.715 196.247L391.734 168.236Z"/><path fill="#F7F7F7" d="M894.565 336.165L922.431 336.161L922.431 364.197L950.51 364.13C950.397 372.814 950.154 383.553 950.802 392.067C955.419 392.138 974.182 391.563 977.7 392.315C968.338 393.172 960.961 393.141 951.521 393.1C951.545 399.521 951.849 412.638 950.962 418.508C950.341 410.804 950.582 400.368 950.571 392.424L922.586 392.327C922.54 401.575 922.594 410.823 922.747 420.071L943.596 420.136L950.571 420.066C950.348 428.923 950.316 439.614 950.666 448.343C946.44 448.271 925.23 447.649 922.922 448.889L922.794 450.955L922.233 451.304L922.127 449.431C920.645 447.929 917.226 449.584 914.023 448.505C915.489 447.915 920.63 448.056 922.55 448.026C922.657 438.801 922.632 429.575 922.475 420.351C913.43 420.103 903.855 420.235 894.769 420.219C894.73 424.857 894.965 444.528 894.416 447.417C893.629 445.233 893.929 425.071 893.933 421.278C892.466 420.204 891.682 420.652 889.387 420.676L889.059 420.197C891.726 419.961 893.024 420.474 894.438 419.064C895.105 410.509 894.639 396.275 894.604 387.461L894.565 336.165Z"/><path fill="#F7F7F7" d="M1091.13 56.332L1118.68 56.332L1118.68 84.498L1146.23 84.498C1146.15 93.1603 1146.85 102.84 1146.85 112.052L1174.4 112.052L1174.4 140.218C1168.47 140.182 1151.12 141.495 1147.58 138.681C1144.85 134.035 1146.76 118.52 1146.85 112.052L1118.68 112.052L1118.68 83.8857L1090.51 83.8857L1090.51 112.052L1062.96 112.052L1062.96 84.498L1090.51 84.498C1090.45 74.381 1090.84 66.2174 1091.13 56.332Z"/><path fill="#002E5F" d="M625.325 367.418C626.293 367.493 627.288 367.568 628.236 367.791C630.51 368.325 632.548 369.683 633.611 371.798C634.186 372.941 634.345 374.085 634.389 375.349C634.908 390.202 635.133 520.998 633.825 524.547C632.774 527.396 630.183 528.561 627.58 529.677C626.377 529.593 625.103 529.511 623.938 529.186C621.721 528.567 619.965 527.12 618.9 525.088C618.078 523.519 618.334 520.459 618.311 518.72C618.142 506.286 617.212 376.39 618.972 372.143C620.131 369.347 622.67 368.376 625.325 367.418Z"/><path fill="#F7F7F7" d="M335.937 560.172C342.197 560.147 357.866 559.72 363.352 560.434C364.009 562.296 363.875 562.511 363.796 564.447C363.789 572.35 363.826 580.253 363.906 588.155L391.659 588.125C391.686 584.235 391.548 580.653 392.243 576.828C392.401 580.322 392.499 583.819 392.537 587.316C393.571 588.156 395.142 587.878 396.829 587.95L396.525 588.384L392.94 588.547C390.728 591.016 391.755 611.621 391.942 616.179C383.212 616.129 372.501 615.899 363.813 616.433C363.823 625.087 363.548 635.513 363.894 644.016C373.224 644.13 382.555 644.126 391.885 644.006C391.752 650.79 391.113 666.11 392.038 671.998C383.408 672.017 371.991 672.488 363.771 672.273L363.681 644.283C354.455 644.113 345.228 644.11 336.002 644.275L335.947 616.291C345.031 616.279 354.811 616.435 363.825 615.98C363.854 597.384 363.003 579.45 363.097 560.871L336.768 560.871C336.778 565.323 336.946 570.282 336.263 574.64C336.041 569.821 335.932 564.996 335.937 560.172Z"/><path fill="#F7F7F7" d="M1034.5 503.982C1034.54 499.994 1034.48 480.942 1035.16 478.153C1035.63 485.654 1035.43 495.671 1035.41 503.314C1043.28 503.315 1053.3 503.076 1060.96 503.674C1058.61 503.566 1035.35 504.385 1034.64 504.867C1034.61 513.425 1034.35 523.651 1034.81 532.068C1044 532.077 1053.48 532.207 1062.65 532.05L1062.65 560.351L1034.61 560.332L1034.51 532.275C1025.59 532.264 1015.49 532.492 1006.66 532.206L1006.59 503.956C1015.79 504.025 1025.33 504.218 1034.5 503.982Z"/><path fill="#F7F7F7" d="M726.8 503.93C736.214 504.058 745.63 504.054 755.045 503.915C754.975 513.369 754.989 522.824 755.087 532.277C745.724 532.222 736.36 532.229 726.997 532.3C726.895 541.585 726.913 550.871 727.051 560.155C736.368 560.145 745.685 560.187 755.001 560.281C755.307 566.236 755.066 580.047 754.76 586.111C754.13 578.384 754.355 568.773 754.359 560.871C735.822 560.966 717.744 560.251 699.168 560.353L699.185 532.128C703.365 532.136 725.278 532.878 726.889 531.049C726.952 522.009 726.922 512.969 726.8 503.93Z"/><path fill="#F7F7F7" d="M251.646 643.908C261.057 644.112 270.471 644.159 279.884 644.049C279.811 651.561 279.396 665.093 280.152 672.188L307.776 672.197L308.01 666.001C308.088 668.299 308.418 669.24 308.987 671.422C311.223 671.608 313.255 671.801 315.482 672.084L307.564 672.355C308.132 676.663 307.784 693.776 307.978 699.88C312.9 699.813 317.823 699.923 322.737 700.209L321.236 700.174C320.741 700.589 313.314 700.468 312.122 700.477L309.23 700.557C307.72 702.252 308.944 722.155 308.412 727.091C307.755 724.575 307.876 703.916 307.835 700.085C298.5 699.948 289.164 699.966 279.829 700.139L279.807 672.369C269.68 672.031 261.771 672.027 251.688 672.369L251.646 643.908Z"/><path fill="#F7F7F7" d="M251.749 420.077C260.997 420.44 270.619 420.335 279.904 420.353L280.002 448.172C289.336 448.135 298.67 448.154 308.004 448.23C307.28 451.929 307.631 472.116 307.924 476.35C298.659 475.958 289.168 476.211 279.879 476.345L279.848 448.32C270.54 448.254 261.232 448.244 251.924 448.29C251.834 452.674 251.703 457.057 251.53 461.438C250.869 457.526 251.041 452.858 251.045 448.819L239.411 448.819C235.23 448.853 228.947 449.098 225.018 448.493C226.874 447.786 248.213 448.132 251.825 448.132C251.458 439.407 251.736 428.933 251.749 420.077Z"/><path fill="#F7F7F7" d="M1032.8 280.266L1034.19 280.427C1034.86 283.687 1034.43 295.056 1034.6 299.445C1035 309.671 1035.9 320.46 1035.06 330.636C1034.46 323.829 1034.64 315.232 1034.69 308.275L1006.72 308.382C1006.6 317.652 1006.59 326.923 1006.7 336.193C997.471 336.513 987.719 336.284 978.447 336.297C978.572 326.965 978.576 317.633 978.458 308.302L1006.52 308.302C1006.64 298.924 1006.65 289.544 1006.53 280.166C1015.29 280.264 1024.05 280.297 1032.8 280.266Z"/><path fill="#F7F7F7" d="M1090.83 811.838L1118.72 811.934C1118.72 821.241 1118.78 830.547 1118.88 839.854C1125.43 839.357 1139.47 839.904 1146.58 839.958C1146.57 837.006 1146.56 835.579 1147.03 832.683C1147.7 834.265 1147.47 837.609 1147.46 839.47C1155.82 839.467 1165.35 839.266 1173.61 839.653C1169.48 840.399 1158.15 840.05 1153.43 840.024L1146.53 840.116C1146.51 847.007 1146.1 861.708 1147.02 867.847C1137.56 867.744 1128.09 867.741 1118.63 867.838L1118.67 840.042C1109.36 839.922 1099.82 840.036 1090.49 840.042C1091.02 831.085 1090.82 820.902 1090.83 811.838Z"/><path fill="#F7F7F7" d="M1034.48 809.629L1035.06 811.178C1037.41 812.59 1058.14 811.904 1062.61 811.88C1062.52 821.275 1062.35 830.725 1062.73 840.109L1034.78 840.044C1034.52 849.295 1034.54 858.551 1034.85 867.801L1024.2 867.695L1006.51 867.795C1006.64 858.491 1006.58 849.065 1006.59 839.75C1015.69 839.986 1025.33 839.809 1034.47 839.781C1034.92 831.279 1034.66 820.76 1034.66 812.109C1031.5 812.035 1028.29 812.035 1025.15 811.688C1028.1 811.538 1031.01 811.487 1033.91 810.955L1034.48 809.629Z"/><path fill="#F7F7F7" d="M335.963 392.233L363.841 392.183L363.807 420.253C354.635 420.211 345.2 420.057 336.058 420.342L336.036 448.219C327.354 448.553 316.777 448.262 308.004 448.23C307.786 438.847 307.737 429.461 307.857 420.077C317.072 420.104 326.815 420.285 335.986 420.051L335.963 392.233Z"/><path fill="#F7F7F7" d="M195.907 756.064C205.208 756.104 214.509 756.084 223.809 756.005C223.659 765.354 223.673 774.704 223.851 784.052C215.152 784.045 204.318 783.719 195.838 784.442C195.705 793.667 195.792 802.893 196.098 812.114C186.648 811.968 177.198 811.919 167.747 811.968L167.77 784.227L195.894 784.171C195.652 775.116 195.878 765.185 195.907 756.064Z"/><path fill="#F7F7F7" d="M531.325 420.05C540.672 420.126 550.019 420.114 559.365 420.013C559.092 429.062 559.316 439.083 559.335 448.205C568.624 448.226 577.914 448.191 587.203 448.101C587.115 457.521 587.148 466.942 587.302 476.362C577.762 476.086 568.934 476.048 559.359 476.067C559.462 466.82 559.479 457.571 559.408 448.324L531.297 448.276C531.452 439.008 531.318 429.35 531.325 420.05Z"/><path fill="#F7F7F7" d="M754.923 252.15L783.182 252.256C783.501 261.012 783.254 271.333 783.27 280.213C792.426 280.261 801.583 280.262 810.739 280.216C810.481 289.466 810.738 299.011 810.872 308.289C806.784 308.285 785.446 308.902 783.057 307.679L783.121 280.123L754.91 280.123C755.398 270.614 755.24 261.669 754.923 252.15Z"/><path fill="#F7F7F7" d="M530.868 521.448C531.827 523.885 531.473 529.298 531.443 532.131L559.297 532.131L559.281 560.16C568.323 560.143 577.366 560.236 586.406 560.438C581.556 561.233 565.682 560.883 559.679 560.964C557.169 559.658 535.633 560.285 531.25 560.325C531.456 551.433 531.573 541.051 531.213 532.205C522.813 532.285 513.315 532.485 505.016 531.869C508.381 531.267 526.365 531.488 530.868 531.48L530.868 521.448Z"/><path fill="#F7F7F7" d="M111.94 393.992L112.354 394.181C112.956 396.446 112.676 415.765 112.664 419.429C120.479 419.407 130.2 419.224 137.927 419.682C134.957 420.373 116.271 420.212 111.993 420.231C111.734 429.41 112.44 439.266 111.957 448.343C102.795 448.135 93.0843 448.294 83.8801 448.296L83.8798 420.138L111.977 420.037L111.94 393.992Z"/><path fill="#F7F7F7" d="M391.796 686.734C393.06 689.426 392.27 694.957 392.586 698.539C394.448 699.827 395.135 699.756 397.482 700.134L398.267 700.256C397.654 700.494 392.628 700.412 391.691 700.416C391.396 709.794 391.728 718.844 391.911 728.213L363.795 728.251C363.869 736.652 363.871 745.054 363.802 753.456L363.097 754.054L363.097 728.643C361.191 728.657 357.821 728.957 356.204 728.239L355.431 728.383C357.477 727.814 361.468 727.964 363.747 727.951L363.661 700.177L391.743 700.177C391.631 695.868 391.764 691.083 391.796 686.734Z"/><path fill="#F7F7F7" d="M1090.89 979.676C1100.18 979.698 1109.48 979.668 1118.77 979.587L1118.75 1007.69C1125.97 1007.74 1137.67 1007.5 1144.6 1008.13C1139.4 1008.94 1125.85 1008.27 1119.29 1008.62C1119.32 1013.22 1119.74 1031.77 1118.73 1034.9L1118.66 1007.84L1090.53 1007.83C1090.48 998.443 1090.59 989.057 1090.89 979.676Z"/><path fill="#F7F7F7" d="M195.999 364.29C204.876 364.159 213.754 364.17 222.631 364.324C217.161 365.429 202.952 364.926 196.55 364.934C196.524 372.433 196.171 385.035 197.438 392.192L195.886 393.13C195.323 396.974 195.869 415.251 195.931 420.166C187.329 420.486 176.672 420.168 167.785 420.27C167.604 411.075 167.739 401.444 167.73 392.215C177.087 392.234 186.443 392.16 195.798 391.993C195.721 382.758 195.788 373.523 195.999 364.29Z"/><path fill="#F7F7F7" d="M503.177 727.848C512.506 728.033 521.838 728.077 531.168 727.979C531.157 735.96 530.749 748.728 531.635 756.191C522.219 756.058 512.801 756.053 503.385 756.175C503.29 764.921 503.291 773.668 503.39 782.415L503.142 782.735L502.727 782.352C502.67 773.838 502.662 765.323 502.702 756.809C494.334 756.835 485.961 756.987 477.612 756.45C480.395 756.009 499.302 756.042 503.229 755.969C503.381 746.73 503.213 737.116 503.177 727.848Z"/><path fill="#F7F7F7" d="M111.906 785.877L112.416 786.12C112.952 788.93 112.676 807.294 112.664 811.304C120.037 811.312 131.796 810.977 138.823 811.565C134.553 812.395 116.875 812.001 111.739 812.015C111.737 821.349 111.435 830.829 112.29 840.106C102.823 839.815 93.3508 839.703 83.8792 839.77L83.8522 811.861L111.958 811.853L111.906 785.877Z"/><path fill="#F7F7F7" d="M251.689 140.104L279.822 140.191L279.912 168.43C270.6 168.035 261.277 168.018 251.964 168.378C251.751 176.073 251.736 183.941 251.56 191.679C250.822 185.404 251.097 176.26 250.915 169.618L250.139 168.996C242.884 169.026 232.792 169.27 225.807 168.56C232.775 167.89 244.535 168.157 251.865 168.117C251.53 159.234 251.725 149.085 251.689 140.104Z"/><path fill="#F7F7F7" d="M307.961 924.325C309.361 926.984 307.9 973.146 307.976 979.796C298.797 979.755 289.618 979.777 280.439 979.863C279.148 978.533 279.804 955.599 279.856 951.437C289.008 951.776 298.6 951.56 307.797 951.482L307.961 924.325Z"/><path fill="#F7F7F7" d="M251.691 83.9465L279.89 83.8911C279.881 92.8962 280.122 103.155 279.828 112.051C270.517 112.064 261.205 112.123 251.895 112.23C251.842 114.082 251.983 116.878 251.301 118.408C251.056 116.083 251.004 115 251.045 112.664C247.458 112.681 241.011 112.926 237.776 112.229C243.347 111.769 248.608 113.529 251.479 110.531C251.88 108.24 251.775 107.544 251.65 105.282L251.691 83.9465Z"/><path fill="#F7F7F7" d="M335.984 336.147L363.804 336.106L363.802 364.356C355.862 364.25 343.389 363.862 335.682 364.638C332.528 365.305 313.63 364.901 309.778 364.673C312.715 363.922 331.626 364.146 335.986 364.144L335.984 336.147Z"/><path fill="#F7F7F7" d="M503.358 224.041L531.443 223.94L531.444 252.343L503.233 252.256L503.358 224.041Z"/><path fill="#F7F7F7" d="M754.962 532.13L783.22 532.087C783.239 541.432 783.154 550.973 783.296 560.299C774.121 560.296 764.1 560.507 755.001 560.281C754.996 551.301 755.254 541.002 754.962 532.13Z"/><path fill="#F7F7F7" d="M503.208 336.122C512.566 336.213 522.066 336.119 531.437 336.11L531.442 364.38L503.205 364.301C503.373 355.061 503.219 345.395 503.208 336.122Z"/><path fill="#F7F7F7" d="M279.828 112.051C289.085 112.022 298.795 112.193 307.994 111.964C307.844 121.581 307.693 130.682 308.039 140.285L279.822 140.191C279.71 130.811 279.712 121.431 279.828 112.051Z"/><path fill="#F7F7F7" d="M1090.8 532.178C1099.85 531.953 1109.6 532.133 1118.73 532.084C1118.78 539.021 1119.26 554.02 1118.59 560.336L1090.6 560.328C1090.55 555.307 1090.12 536.169 1090.8 532.178Z"/><path fill="#F7F7F7" d="M978.512 532.185C987.08 532.069 998.276 531.81 1006.66 532.206C1006.64 541.246 1006.41 551.282 1006.72 560.243C997.315 560.315 987.91 560.319 978.505 560.256C978.168 551.69 978.496 540.924 978.512 532.185Z"/><path fill="#F7F7F7" d="M978.445 420.045C987.878 420.153 997.311 420.152 1006.74 420.04C1006.61 429.419 1006.6 438.799 1006.69 448.178C998.073 448.53 987.245 448.31 978.489 448.206C978.483 438.944 978.624 429.272 978.445 420.045Z"/><path fill="#F7F7F7" d="M83.7923 532.04C93.0226 532.236 102.795 532.079 112.068 532.084C111.782 541.454 111.794 550.831 112.106 560.2C103.401 560.559 92.7581 560.29 83.9004 560.308C83.694 551.045 83.8152 541.338 83.7923 532.04Z"/><path fill="#F7F7F7" d="M587.154 867.534C594.841 867.693 608.166 867.398 615.279 868.044C615.147 877.075 615.167 886.107 615.338 895.137C614.441 896.303 590.65 895.915 587.112 895.946L587.154 867.534Z"/><path fill="#F7F7F7" d="M978.443 364.207C987.669 364.039 997.379 364.22 1006.64 364.249C1006.55 373.626 1006.56 383.003 1006.68 392.38C997.267 392.284 987.851 392.306 978.437 392.446C978.542 383.033 978.544 373.619 978.443 364.207Z"/><path fill="#F7F7F7" d="M866.707 224.002C866.5 233.438 866.489 242.878 866.674 252.315C857.325 252.245 847.976 252.259 838.628 252.355L838.717 224.024C847.85 223.847 857.529 224.007 866.707 224.002Z"/><path fill="#F7F7F7" d="M167.705 727.969C177.145 728.058 186.585 728.07 196.026 728.007C195.722 736.682 195.732 747.595 196.076 756.18C186.64 756.035 177.202 756.045 167.767 756.21L167.705 727.969Z"/><path fill="#F7F7F7" d="M978.491 252.276C987.146 252.25 998.196 251.894 1006.65 252.27C1006.91 261.37 1006.54 271.048 1006.75 280.402C997.003 280.428 988.329 280.13 978.4 280.429C978.503 271.045 978.533 261.66 978.491 252.276Z"/><path fill="#F7F7F7" d="M754.944 699.856C764.331 700.138 773.723 700.245 783.114 700.177C783.175 709.399 783.348 718.876 783.168 728.075C773.738 728.292 764.384 728.158 754.962 728.216C755.069 718.762 755.063 709.308 754.944 699.856Z"/><path fill="#F7F7F7" d="M1006.59 223.968C1015.92 224.113 1025.26 224.127 1034.6 224.009C1034.59 233.349 1034.44 243.036 1034.89 252.33C1026.13 252.32 1015.22 252.629 1006.65 252.27L1006.59 223.968Z"/><path fill="#F7F7F7" d="M754.78 419.988L783.204 420.099L783.216 448.219L754.904 448.325C754.968 442.141 755.582 425.266 754.78 419.988Z"/><path fill="#F7F7F7" d="M223.883 895.712C233.192 895.775 242.501 895.777 251.81 895.717C251.73 905.041 251.782 914.364 251.968 923.686L262.985 923.829L263.59 924.58C251.263 924.824 237.284 923.756 223.798 923.939L223.883 895.712Z"/><path fill="#F7F7F7" d="M167.726 336.145L195.929 336.129C195.78 345.516 195.804 354.904 195.999 364.29L167.786 364.351L167.726 336.145Z"/><path fill="#F7F7F7" d="M251.662 531.997C261.079 532.145 270.498 532.168 279.916 532.064C279.838 541.483 279.838 550.902 279.915 560.321L251.988 560.291C251.637 551.008 251.713 541.317 251.662 531.997Z"/><path fill="#F7F7F7" d="M279.809 336.101C288.744 336.342 298.666 336.11 307.677 336.092C307.654 343.025 307.225 357.876 307.971 364.108C301.307 364.754 287.061 364.336 279.835 364.334L279.809 336.101Z"/><path fill="#F7F7F7" d="M83.8843 756.072C93.2964 756.151 102.709 756.139 112.121 756.036C111.857 763.916 111.25 776.309 111.991 784C105.665 785.063 91.5092 783.79 83.885 784.23C83.8243 774.844 83.8241 765.458 83.8843 756.072Z"/><path fill="#F7F7F7" d="M1006.7 336.193L1034.48 336.15L1034.49 364.34C1025.58 364.318 1015.44 364.543 1006.64 364.249C1006.55 354.897 1006.57 345.545 1006.7 336.193Z"/><path fill="#F7F7F7" d="M279.795 1063.47L307.622 1063.47C308.3 1072.15 306.93 1082.55 308.107 1091.57C302.012 1092.16 286.321 1091.76 279.704 1091.78L279.795 1063.47Z"/><path fill="#F7F7F7" d="M1034.73 420.111C1043.96 420.179 1053.36 420.05 1062.61 420.016C1062.47 429.451 1062.48 438.888 1062.65 448.323C1053.31 448.162 1043.97 448.172 1034.63 448.354L1034.73 420.111Z"/><path fill="#F7F7F7" d="M195.847 532.015C205.178 532.133 214.509 532.153 223.841 532.075C223.646 541.48 223.627 550.888 223.786 560.294L195.894 560.312C195.715 551.018 195.848 541.34 195.847 532.015Z"/><path fill="#F7F7F7" d="M1146.72 756.116L1174.69 756.079C1174.51 761.297 1174.98 780.715 1174.24 784.187C1165.37 784.527 1155.64 784.168 1146.58 784.312L1146.72 756.116Z"/><path fill="#F7F7F7" d="M810.624 419.987C819.755 420.042 829.459 420.261 838.545 420.065C838.524 429.15 838.288 439.248 838.587 448.252C830.125 448.207 818.913 448.596 810.78 448.212C810.679 438.804 810.627 429.396 810.624 419.987Z"/><path fill="#F7F7F7" d="M83.8666 380.602C84.657 382.499 83.9264 415.445 83.9877 420.204L56.4701 420.226C55.822 416.498 56.0611 397.446 55.9961 392.221C65.2892 392.324 74.5832 392.306 83.8759 392.169L83.8666 380.602Z"/><path fill="#F7F7F7" d="M922.682 644.039C931.942 643.987 941.202 644.015 950.462 644.124C950.375 653.535 950.429 662.948 950.625 672.357C940.965 672.173 932.238 672.029 922.589 672.384C922.703 662.936 922.734 653.488 922.682 644.039Z"/><path fill="#F7F7F7" d="M83.8537 867.646C93.149 867.724 102.445 867.691 111.739 867.548C111.738 875.417 111.288 888.553 112.153 895.807L83.8472 895.893L83.8537 867.646Z"/><path fill="#F7F7F7" d="M978.503 588.212L1006.66 588.115C1006.59 597.509 1006.62 606.904 1006.78 616.297C997.327 616.206 987.874 616.209 978.422 616.307C978.515 606.943 978.542 597.577 978.503 588.212Z"/><path fill="#F7F7F7" d="M1118.65 728.059L1146.53 728.01C1146.53 736.217 1146.11 748.503 1146.99 756.222C1137.49 755.935 1128.18 756.074 1118.68 756.18L1118.65 728.059Z"/><path fill="#F7F7F7" d="M783.107 336.1C792.346 336.186 801.586 336.163 810.824 336.032C810.579 345.574 810.721 354.787 810.866 364.336L783.05 364.349L783.107 336.1Z"/><path fill="#F7F7F7" d="M783.143 224.043C792.096 224.064 801.853 224.273 810.742 224C810.751 233.26 810.587 243.144 810.843 252.353C801.648 252.337 792.368 252.386 783.182 252.256C783.082 242.852 783.069 233.447 783.143 224.043Z"/><path fill="#F7F7F7" d="M167.751 280.299L195.876 280.192C195.53 289.251 195.886 299.152 196.052 308.289L167.74 308.289L167.751 280.299Z"/><path fill="#F7F7F7" d="M195.931 420.166L223.715 420.079C223.734 429.305 223.59 439.078 223.826 448.258L195.893 448.303C195.807 440.026 195.372 428.18 195.931 420.166Z"/><path fill="#F7F7F7" d="M83.7651 643.911C92.7769 644.295 103.062 644.028 112.173 643.981C111.341 651.553 111.732 664.357 111.873 672.24C102.554 672.377 93.5006 672.102 83.9053 672.333L83.7651 643.911Z"/><path fill="#F7F7F7" d="M447.53 727.922L475.458 728.023C475.352 737.436 475.351 746.85 475.453 756.263C468.242 755.903 454.627 755.497 447.628 756.218L447.53 727.922Z"/><path fill="#F7F7F7" d="M1062.75 727.999C1072.01 728.064 1081.28 728.075 1090.55 728.03C1090.46 737.422 1090.53 746.814 1090.75 756.203C1081.49 755.819 1072.05 755.897 1062.77 755.884C1062.58 746.775 1062.74 737.148 1062.75 727.999Z"/><path fill="#F7F7F7" d="M783.216 448.219C791.838 448.133 802.286 447.875 810.78 448.212C810.829 457.593 810.364 466.712 810.815 476.147C801.669 476.038 792.206 476.233 783.035 476.305C783.028 466.943 783.088 457.581 783.216 448.219Z"/><path fill="#F7F7F7" d="M1006.72 560.243L1034.48 560.178C1034.43 565.11 1033.96 584.078 1035.06 588.113L1006.54 588.118L1006.72 560.243Z"/><path fill="#F7F7F7" d="M1006.69 448.178L1034.48 448.127L1034.48 476.061L1006.56 476.061C1006.55 467.87 1006.21 456.21 1006.69 448.178Z"/><path fill="#F7F7F7" d="M922.648 83.905L950.595 83.8884C950.243 92.574 950.295 103.42 950.649 112.075L922.533 112.193C922.809 102.927 922.66 93.2089 922.648 83.905Z"/><path fill="#F7F7F7" d="M950.815 560.239C960.045 560.168 969.275 560.174 978.505 560.256C978.807 568.862 978.517 579.309 978.572 588.113L950.609 588.113C950.569 578.821 950.637 569.529 950.815 560.239Z"/><path fill="#F7F7F7" d="M336.036 448.219L363.814 448.09L363.75 476.425C354.958 476.169 344.662 475.663 335.973 476.506C335.962 467.908 335.61 456.594 336.036 448.219Z"/><path fill="#F7F7F7" d="M335.953 672.147L363.771 672.273L363.809 700.166C354.533 700.084 345.256 700.064 335.98 700.106L335.953 672.147Z"/><path fill="#F7F7F7" d="M783.218 895.766C792.4 895.819 801.583 895.8 810.766 895.709L810.811 923.655L783.104 923.655C783.03 914.359 783.068 905.061 783.218 895.766Z"/><path fill="#F7F7F7" d="M280.276 895.769C289.409 895.842 298.544 895.817 307.677 895.695C307.661 905.156 307.828 914.22 307.975 923.655L279.832 923.655C279.779 918.286 279.357 900.274 280.276 895.769Z"/><path fill="#F7F7F7" d="M1118.68 308.602L1146.23 308.602L1146.23 336.155L1118.68 336.155L1118.68 308.602Z"/><path fill="#F7F7F7" d="M1118.68 140.218L1146.23 140.218L1146.23 167.771L1118.68 167.771L1118.68 140.218Z"/><path fill="#F7F7F7" d="M1034.79 56.332L1062.35 56.332L1062.35 83.8857L1034.79 83.8857L1034.79 56.332Z"/><path fill="#F7F7F7" d="M1209.01 56.0107C1211.3 55.471 1226.77 56.3219 1230.73 56.332C1230.73 61.1536 1231.78 80.9643 1229.65 83.6462L1227.21 83.8857L1203.18 83.8857C1203.18 77.7814 1202.7 62.4057 1203.43 57.3521C1205.5 55.8748 1206.04 56.3128 1209.01 56.0107Z"/></svg>