<?xml version="1.0" encoding="utf-8" ?><svg xmlns="http://www.w3.org/2000/svg" xmlns:xlink="http://www.w3.org/1999/xlink" width="1254" height="1254" viewBox="0 0 1254 1254"><path fill="#F6F6F5" d="M0 0L26.2037 0L52.0351 0L77.9724 0L104.414 0L130.474 0L156.623 0L182.57 0L208.832 0L235.009 0L261.207 0L287.26 0L313.557 0L339.694 0L365.669 0L391.788 0L417.981 0L443.984 0L522.383 0L548.615 0L600.971 0L627.082 0L652.855 0L678.945 0L705.163 0L731.56 0L757.398 0L783.618 0L809.566 0L835.8 0L861.999 0L887.913 0L914.145 0L940.361 0L966.336 0L992.458 0L1070.86 0L1096.88 0L1122.89 0L1149.2 0L1175.06 0L1201.26 0L1227.15 0L1254 0L1254 26.2235L1254 52.5571L1254 78.9031L1254 104.933L1254 131.098L1254 157.335L1254 183.72L1254 314.73L1254 341.061L1254 367.134L1254 393.096L1254 419.353L1254 445.431L1254 471.456L1254 497.456L1254 523.511L1254 549.699L1254 576.021L1254 601.859L1254 627.668L1254 653.913L1254 679.97L1254 732.287L1254 758.21L1254 784.382L1254 810.333L1254 836.348L1254 862.634L1254 888.529L1254 914.706L1254 940.612L1254 966.849L1254 1097.24L1254 1123.45L1254 1149.5L1254 1175.58L1254 1201.6L1254 1227.98L1254 1254L1227.14 1254L1201.03 1254L1175.32 1254L1096.75 1254L1070.74 1254L1044.62 1254L1018.52 1254L992.517 1254L966.376 1254L940.227 1254L914.169 1254L887.821 1254L861.982 1254L835.741 1254L757.369 1254L731.188 1254L705.211 1254L678.921 1254L653.002 1254L626.853 1254L600.616 1254L574.429 1254L548.518 1254L522.334 1254L443.918 1254L417.735 1254L391.786 1254L365.563 1254L339.631 1254L260.916 1254L234.813 1254L208.795 1254L182.581 1254L156.642 1254L130.381 1254L104.196 1254L78.2321 1254L0 1254L0 1175.65L0 1097.21L0 1071.23L0 1045.27L0 1019L0 993.073L0 966.843L0 940.842L0 914.738L0 888.689L0 862.675L0 836.396L0 810.255L0 784.313L0 758.196L0 732.282L0 706.215L0 680.115L0 653.964L0 576.008L0 549.769L0 523.65L0 497.77L0 471.466L0 445.252L0 419.368L0 393.067L0 367.267L0 340.944L0 262.385L0 236.117L0 210.114L0 183.72L0 157.235L0 131.199L0 105.003L0 78.7861L0 52.5097L0 26.197L0 0Z"/><path fill="#FAFAFA" d="M0 0L26.2037 0L52.0351 0L77.9724 0L104.414 0L130.474 0L156.623 0L182.57 0L208.832 0L235.009 0L261.207 0L287.26 0L313.557 0L339.694 0L365.669 0L391.788 0L417.981 0L443.984 0L522.383 0L548.615 0L600.971 0L627.082 0L652.855 0L678.945 0L705.163 0L731.56 0L757.398 0L783.618 0L809.566 0L835.8 0L861.999 0L887.913 0L914.145 0L940.361 0L966.336 0L992.458 0L1070.86 0L1096.88 0L1122.89 0L1149.2 0L1175.06 0L1201.26 0L1227.15 0L1254 0L1254 26.2235L1254 52.5571L1254 78.9031L1254 104.933L1254 131.098L1254 157.335L1254 183.72L1254 314.73L1254 341.061L1254 367.134L1254 393.096L1254 419.353L1254 445.431L1254 471.456L1254 497.456L1254 523.511L1254 549.699L1254 576.021L1254 601.859L1254 627.668L1254 653.913L1254 679.97L1227.36 679.97L1227.36 653.641L1201.63 653.657C1201.67 644.944 1201.79 636.16 1201.42 627.462C1192.82 627.222 1184.29 627.364 1175.68 627.458C1175.98 618.122 1175.37 610.781 1175.31 601.595L1149.55 601.595C1149.65 593.281 1149.55 584.765 1149.54 576.434C1158.1 576.463 1166.7 576.575 1175.25 576.268L1175.31 550.049L1200.38 550.139C1200.52 555.399 1199.28 570.487 1201.79 574.21C1204.04 577.538 1224.1 577.14 1227.04 575.024C1227.87 571.048 1227.39 554.621 1227.36 549.55C1219 549.562 1209.85 549.381 1201.56 549.612L1201.64 523.242C1193.16 523.247 1183.71 523.047 1175.31 523.329L1175.31 497.504L1149 497.504C1148.96 501.436 1148.59 519.806 1149.33 522.885C1151.25 524.091 1152.6 523.924 1155.08 523.859C1153.48 524.312 1152.73 524.192 1151.1 524.07L1150.11 524.767C1149.66 527.595 1150.16 539.827 1149.6 540.32L1149.5 523.833L1122.67 523.833L1122.67 550.051L1147.67 550.205C1148.73 548.908 1148.74 548.343 1149.21 546.731L1150 546.373L1150.16 548.902C1152.12 549.57 1169.43 549.316 1172.97 549.379C1164.98 549.557 1156.99 549.62 1149 549.567C1148.88 558.435 1149.07 567.16 1149 575.879L1122.67 575.879C1122.67 583.67 1122.34 594.549 1122.79 602.089C1130.58 602.444 1140.44 602.179 1148.39 602.19L1148.43 627.37L1122.67 627.312L1122.67 653.655L1096.94 653.641L1096.94 627.309L1071.16 627.35C1071.36 619.204 1071.15 610.29 1071.12 602.085C1079.4 602.348 1088.59 602.173 1096.94 602.191L1096.94 575.879C1090.24 575.911 1080.52 575.885 1073.53 575.612C1073.54 575.612 1070.61 577.893 1070.61 577.893C1069.22 577.457 1067.14 576.546 1065.57 576.517C1065.28 576.511 1065 576.504 1064.71 576.497L1071.18 576.468C1071.09 567.494 1071.09 558.52 1071.18 549.546L1044.29 549.557C1044.33 554.781 1044.46 570.533 1043.55 574.955C1041.41 575.559 1023.41 575.228 1019.94 575.205C1017.52 572.489 1018.52 554.119 1018.56 549.55C1009.82 549.491 1001.07 549.524 992.325 549.647C991.969 557.592 992.254 567.76 992.246 575.879L966.512 575.879L966.517 549.59L939.731 549.55C939.629 556.79 939.571 564.031 939.557 571.273C939.116 564.796 939.289 557.041 939.275 550.462L914.783 550.462C914.821 558.136 914.77 565.809 914.629 573.482C914.165 567.684 914.487 556.367 914.471 550.156L940.8 550.068L940.654 523.821L966.517 523.821C966.266 493.7 972.032 496.554 940.752 496.977C940.883 488.333 940.201 479.902 940.188 471.175L914.471 471.175C914.576 462.487 914.528 453.799 914.325 445.113C910.546 444.884 906.607 445.08 902.926 444.824C896.923 444.406 893.533 444.873 887.837 445.755L887.18 444.87C888.876 440.352 888.173 424.973 888.142 419.129L862.413 419.129C862.49 413.502 861.224 398.29 863.595 394.72C867.036 392.337 882.232 393.367 887.589 393.395C887.543 402.145 887.553 410.896 887.62 419.646C896.388 419.711 905.582 419.911 914.304 419.573C914.825 412.423 914.45 400.87 914.394 393.4C919.999 393.419 936.066 394.632 939.409 391.892C941.848 387.599 940.76 373.385 940.651 367.547C949.173 367.642 957.962 367.862 966.45 367.508C966.426 358.781 966.582 350.055 966.916 341.334C973.749 340.913 985.401 341.291 992.698 341.237C993.258 334.499 992.852 321.609 992.68 314.573C984.839 314.133 974.539 314.421 966.517 314.425L966.517 288.708C949.274 288.61 932.11 289.09 914.783 289.008L914.701 301.779C914.337 299.199 914.482 291.088 914.471 288.079C905.415 288.139 896.878 288.723 887.542 288.708L887.542 314.425L862.391 314.472C862.545 305.857 862.397 296.784 862.397 288.132C855.519 288.096 842.137 287.68 835.798 288.395C835.089 294.675 835.479 307.824 835.493 314.702C842.603 315.398 853.755 315.024 861.222 315.025C861.368 323.912 861.891 331.569 861.825 340.754L835.496 340.775C835.518 346.313 836.712 362.46 834.075 365.842C830.134 368.236 815.022 367.038 809.167 367.083L809.167 392.8C800.312 392.824 792.413 393.554 783.45 393.412C783.561 398.596 784.169 409.302 782.56 413.849C681.391 331.905 534.207 341.587 444.643 436.076C408.194 474.53 384.941 523.595 378.256 576.156C377.168 584.713 376.524 593.321 376.328 601.946C375.741 627.752 379.165 653.492 386.477 678.248C383.818 680.752 370.519 680.053 365.679 680.1C364.839 655.241 365.677 627.031 365.676 601.885L339.866 601.775C339.368 593.265 339.609 584.521 339.822 576.005L365.776 576.178C365.551 567.354 365.541 558.526 365.744 549.702L339.835 549.739C339.11 541.998 339.388 531.334 339.556 523.52C330.739 523.667 322.363 523.787 313.554 523.552C313.301 515.177 313.472 506.224 313.503 497.799C322.194 497.671 330.887 497.667 339.579 497.788C339.662 506.42 339.664 515.053 339.586 523.686L365.751 523.634C365.495 515.131 365.653 506.367 365.71 497.84C374.206 497.863 382.99 497.543 391.563 497.491C391.513 488.789 391.586 480.087 391.781 471.387C383.068 471.452 374.354 471.471 365.64 471.445C365.501 462.7 365.494 453.953 365.616 445.207C357.046 445.468 348.472 445.298 339.899 445.198C339.098 437.17 339.38 427.36 339.649 419.248C331.107 419.49 322.084 419.341 313.5 419.323L313.448 445.142C304.792 445.594 295.988 445.362 287.328 445.173L287.253 419.363C279.209 419.036 269.329 419.318 261.013 419.206C260.778 410.603 260.913 401.749 260.95 393.122C253.787 392.7 242.492 393.091 235.012 393.107C235.001 401.663 234.823 410.863 235.064 419.368C226.817 419.094 217.252 419.318 208.899 419.305C208.621 410.823 208.787 401.63 208.795 393.087C201.659 392.655 190.297 393.022 182.902 393.016C182.359 384.831 182.576 375.63 182.611 367.35C191.362 367.135 200.117 367.093 208.87 367.224L208.808 341.08C200.936 340.707 190.904 340.97 182.863 340.949C182.295 332.474 182.544 323.25 182.629 314.725C174.024 314.736 165.259 314.999 156.59 315.037L156.517 340.923C147.834 340.863 139.15 340.919 130.469 341.092L130.453 314.754C121.77 314.863 113.087 314.861 104.404 314.747L104.404 288.696L130.52 288.696L130.482 262.379C121.949 262.387 112.627 262.565 104.176 262.103C104.558 254.457 104.207 243.941 104.182 236.079C95.6981 236.307 86.7493 236.151 78.2251 236.123L78.1407 262.113C69.4666 262.315 60.7888 262.29 52.1161 262.038C51.8818 253.595 52.0121 244.628 51.999 236.144C43.389 236.243 34.778 236.203 26.1693 236.027L26.2174 262.082C17.4814 262.368 8.7403 262.469 -1.08767e-15 262.385L0 236.117L0 210.114L0 183.72L0 157.235L0 131.199L0 105.003L0 78.7861L0 52.5097L0 26.197L0 0Z"/><path fill="#00394F" d="M367.66 367.277L343.849 343.125C335.498 334.736 320.639 323.817 332.674 311.294C336.856 306.943 346.007 305.753 350.703 309.644C360.028 317.369 368.254 327.119 376.985 335.545C388.413 347.074 399.69 358.294 410.909 369.974C414.4 373.608 416.365 376.798 416.198 382.072C416.094 385.861 414.439 389.441 411.621 391.975C405.689 397.304 398.007 396.519 391.967 391.83C383.967 383.544 375.865 375.359 367.66 367.277Z"/><path fill="#00394F" d="M622.229 198.502C633.863 197.422 640.296 202.682 640.413 214.473C640.653 238.616 640.525 262.764 640.512 286.908C640.506 297.13 640.35 302.493 630.149 307.25C627.652 307.497 625.162 307.605 622.698 307.025C619.07 306.17 615.836 304.224 613.919 300.95C612.434 298.415 612.076 294.952 611.847 292.058C611.051 281.97 610.701 213.648 612.625 207.75C614.19 202.952 617.902 200.574 622.229 198.502Z"/><path fill="#00394F" d="M444.643 436.076C534.207 341.587 681.391 331.905 782.56 413.849C865.897 481.35 896.739 594.577 859.148 695.018C821.556 795.458 723.952 860.612 616.775 856.81C509.597 853.007 416.856 781.1 386.477 678.248C379.165 653.492 375.741 627.752 376.328 601.946C376.524 593.321 377.168 584.713 378.256 576.156C384.941 523.595 408.194 474.53 444.643 436.076Z"/><path fill="#FAFAFA" d="M610.932 387.605C732.502 379.469 837.638 471.454 845.724 593.028C853.811 714.602 761.783 819.7 640.206 827.737C518.699 835.769 413.674 743.807 405.592 622.302C397.51 500.798 489.431 395.736 610.932 387.605Z"/><path fill="#00394F" d="M744.01 641.92C765.703 644.381 756.389 664.498 749.93 676.509C738.094 698.791 720.405 717.425 698.769 730.405C666.142 749.805 627.148 755.462 590.354 746.131C550.75 736.166 522.376 712.075 501.769 677.486C498.896 672.178 496.075 667.038 494.325 660.885C489.567 644.157 507.019 635.785 518.562 647.197C520.557 649.17 523.545 657.897 525.29 661.315C533.606 677.609 546.888 692.323 562.094 702.492C587.342 719.617 618.442 725.803 648.322 719.645C678.833 713.569 705.46 695.117 721.863 668.681C724.654 664.14 727.123 659.317 729.022 654.34C732.261 645.849 734.959 643.123 744.01 641.92Z"/><path fill="#00394F" d="M715.937 524.33C721.278 523.805 726.67 524.201 731.876 525.502C744.985 528.759 756.215 537.189 763 548.869C766.075 554.065 770.57 565.163 768.789 571.476C767.853 578.108 755.583 584.361 749.86 581.402C736.384 574.433 744.112 560.243 726.7 553.863L725.852 553.56C722.148 552.828 718.107 552.449 714.573 553.542C703.627 556.582 702.221 566.397 698.032 575.227C694.228 583.245 682.252 583.322 676.263 577.995C666.801 569.58 675.382 551.836 681.622 543.748C690.434 532.325 701.806 526.238 715.937 524.33Z"/><path fill="#00394F" d="M526.408 524.34C532.023 523.897 536.894 524.071 542.351 525.493C555.461 528.973 566.62 537.581 573.317 549.377C576.741 555.296 580.793 565.63 578.605 572.334C577.16 579.201 565.606 584.322 559.596 580.908C546.369 573.394 554.265 560.518 536.68 553.644L535.824 553.317C517.802 550.426 513.875 561.373 508.134 574.708C504.478 583.202 494.734 584.585 487.523 578.777C476.341 569.77 485.31 552.768 492.007 543.628C500.597 532.107 512.362 526.148 526.408 524.34Z"/><path fill="#FAFAFA" d="M0 706.215C8.61861 706.244 17.5281 706.165 26.1176 706.39C26.2034 715.05 26.2226 723.71 26.1752 732.371C34.4179 732.35 43.8491 732.558 51.9887 732.27L51.9513 758.357C55.307 758.325 76.5767 757.84 77.8681 758.671L78.3715 760.943L79.058 760.568C78.912 758.536 78.6331 758.562 78.5042 757.629C77.4945 750.314 77.948 739.569 78.1612 732.324L104.066 732.318C104.098 740.867 104.268 749.821 104.11 758.336L130.533 758.287C130.548 749.622 130.514 740.958 130.429 732.294C139.196 732.409 147.964 732.4 156.731 732.268C156.607 740.936 156.536 749.604 156.515 758.273L182.785 758.273C182.475 749.629 182.476 740.976 182.786 732.332C190.869 732.336 200.927 732.628 208.844 732.278C208.782 740.965 208.804 749.653 208.912 758.339L182.779 758.345L182.779 784.242C176.241 784.318 163.651 784.138 157.673 784.873C156.83 786.756 157.107 786.008 157.32 788.345L156.811 788.325C156.246 778.458 156.414 768.256 156.438 758.345L130.383 758.345L130.375 784.253C121.611 784.434 112.845 784.439 104.081 784.269C104.181 792.972 104.175 801.676 104.065 810.379L130.383 810.379L130.368 836.243C121.601 836.383 112.832 836.406 104.063 836.311L104.136 862.669L130.366 862.753L130.437 888.51C139.103 888.591 147.771 888.618 156.438 888.591L156.438 914.494C148.148 914.897 138.845 914.718 130.463 914.715L130.373 940.8L156.641 940.808C156.588 949.497 156.621 958.325 156.47 966.999C165.035 966.969 174.081 966.788 182.606 966.947L182.513 993.154L208.792 993.092L208.811 1019.01L182.586 1018.99C182.584 1027.69 182.523 1036.46 182.623 1045.15L208.908 1045.3C208.758 1036.58 208.743 1027.86 208.861 1019.14C217.75 1019.03 226.056 1018.9 234.94 1019.44L235.03 1045.28C243.579 1045.25 252.339 1045.12 260.866 1045.35C260.954 1053.96 260.957 1062.57 260.874 1071.19L287.263 1071.08C287.408 1080 287.523 1088.19 287.184 1097.1C278.386 1097.18 269.587 1097.18 260.789 1097.11C261.168 1106.22 260.919 1114.47 261 1123.49C252.594 1123.48 243.357 1123.26 235.025 1123.46L234.975 1149.37C226.601 1149.48 217.096 1149.8 208.829 1149.39L208.815 1175.65C201.202 1175.26 190.655 1175.55 182.753 1175.47C182.48 1166.98 182.672 1158.1 182.745 1149.58C173.973 1149.66 165.452 1149.79 156.687 1149.38C156.287 1140.91 156.546 1132.2 156.669 1123.7L182.817 1123.67C182.36 1115.15 182.549 1105.8 182.57 1097.2L156.704 1097.23C156.633 1105.96 156.512 1114.68 156.344 1123.41C148.215 1123.44 138.42 1123.21 130.438 1123.54L130.352 1149.59C121.704 1149.78 113.052 1149.77 104.404 1149.54C104.417 1156.73 104.794 1168.9 103.901 1175.61L78.11 1175.62L78.178 1201.9C85.6007 1201.91 96.9735 1202.22 104.042 1201.56C104.205 1210.16 104.114 1219.01 104.125 1227.63C95.3753 1227.82 87.0219 1228.02 78.2745 1227.75C77.9367 1219.07 77.8992 1210.38 78.1622 1201.71C69.4163 1201.71 60.9002 1201.94 52.1564 1201.44C51.2716 1177.4 51.9878 1147.88 52.0234 1123.57C44.3584 1123.18 34.127 1123.48 26.2625 1123.47C25.893 1115.51 26.1957 1105.36 26.2105 1097.23C17.8596 1096.98 8.43515 1097.2 0 1097.21L0 1071.23L0 1045.27L0 1019L0 993.073L0 966.843L0 940.842L0 914.738L0 888.689L0 862.675L0 836.396L0 810.255L0 784.313L0 758.196L0 732.282L0 706.215Z"/><path fill="#FAFAFA" d="M548.606 1097.31L574.495 1097.3C574.635 1106.04 574.637 1114.78 574.5 1123.51C582.263 1123.66 593.016 1124.04 600.714 1123.51L600.65 1149.84C609.417 1149.66 618.188 1149.66 626.956 1149.86C627.055 1158.48 627.067 1167.1 626.99 1175.71C635.119 1175.74 644.774 1176.02 652.777 1175.73L652.955 1201.88C661.61 1201.82 670.265 1201.81 678.921 1201.84C678.949 1208.53 678.694 1219.62 679.299 1225.95C679.856 1218.29 679.678 1210.27 679.658 1202.57C687.239 1202.57 695.667 1202.79 703.158 1202.13L703.152 1201.91L679.068 1201.63C679.032 1193.1 678.845 1184.04 679.043 1175.55C670.452 1175.62 661.661 1175.79 653.089 1175.57C652.897 1167.01 652.827 1158.46 652.88 1149.9C661.573 1149.78 670.267 1149.76 678.961 1149.81L678.928 1175.81L705.085 1175.74L705.126 1201.93C712.643 1201.79 723.981 1202.06 731.097 1201.59C731.118 1210.09 731.293 1219.14 731.082 1227.6C721.781 1228.03 714.519 1227.87 705.221 1227.72L705.211 1254L678.921 1254L653.002 1254L626.853 1254L600.616 1254L574.429 1254L548.518 1254L522.334 1254C522.273 1245.3 522.297 1236.59 522.406 1227.89C530.585 1227.58 540.316 1227.8 548.616 1227.78C548.501 1221.67 547.932 1208.27 548.809 1203C551.094 1200.92 550.962 1202.92 553.012 1201.49C550.971 1201.46 551.198 1201.65 549.364 1200.98C548.858 1194.47 549.219 1183.11 549.237 1176.24L573.729 1176.24C573.729 1182.25 573.524 1190.7 574.028 1196.52C574.6 1194.78 574.472 1178.35 574.478 1175.56L548.615 1175.7C548.505 1184.3 548.449 1192.89 548.445 1201.49C539.783 1201.72 531.117 1201.81 522.451 1201.76L522.275 1175.68C514.303 1175.35 504.658 1175.69 496.205 1175.46C495.783 1167.9 496.102 1157.63 496.131 1149.87L522.363 1149.5C522.433 1140.84 522.39 1132.19 522.234 1123.53C529.46 1123.76 541.542 1123.99 548.595 1123.55C548.52 1114.8 548.524 1106.06 548.606 1097.31Z"/><path fill="#FAFAFA" d="M1123.07 1097.31C1131.71 1097.26 1140.35 1097.27 1148.98 1097.32L1148.98 1123.67L1175.03 1123.58C1175.19 1132.42 1175.18 1141.26 1175.02 1150.1C1180.93 1149.24 1194.54 1149.57 1201.15 1149.6C1201.28 1158.32 1201.29 1167.06 1201.18 1175.78L1227.12 1175.79C1226.95 1184.29 1227.06 1193.14 1227.06 1201.68C1218.81 1201.36 1209.95 1201.74 1201.33 1201.45L1201.33 1175.62C1192.75 1175.74 1183.92 1175.61 1175.32 1175.58L1175.32 1201.64L1201.25 1201.64C1201.27 1210.37 1201.25 1219.1 1201.18 1227.82L1227.24 1227.77C1227.07 1219.35 1227.24 1210.4 1227.25 1201.93C1236.17 1201.91 1245.08 1201.8 1254 1201.6L1254 1227.98L1254 1254L1227.14 1254L1201.03 1254L1175.32 1254L1096.75 1254C1096.37 1246.24 1096.72 1235.9 1096.78 1227.94C1104.57 1227.52 1114.99 1227.8 1122.98 1227.79C1122.87 1219.16 1122.89 1210.53 1123.03 1201.9C1129.55 1201.88 1141.19 1202.15 1147.25 1201.5C1141.79 1200.99 1129.54 1201.34 1123.58 1201.34L1123.58 1176.24C1125.73 1176.27 1127.22 1176.18 1129.37 1176.03C1128.25 1175.46 1124.46 1175.54 1122.98 1175.5C1122.89 1166.95 1122.9 1158.4 1123.01 1149.86C1130.14 1149.81 1139.41 1149.97 1146.35 1149.49C1144.62 1149.22 1136.92 1149.3 1134.83 1149.28C1122.16 1149.2 1109.69 1149.93 1097 1149.36C1096.75 1141.91 1096.45 1131.06 1097.1 1123.74L1123.12 1123.57C1122.76 1115.52 1123.05 1105.51 1123.07 1097.31Z"/><path fill="#FAFAFA" d="M0 445.252C8.69689 445.351 17.3943 445.395 26.0918 445.383C26.2176 454.078 26.2718 462.773 26.2544 471.468C34.292 471.489 44.0963 471.769 51.9949 471.388L51.944 497.535C43.3555 497.503 34.7668 497.527 26.1786 497.605C26.1849 506.288 26.2668 515.092 26.1488 523.764L51.9294 523.653L51.9792 549.804L78.0163 549.904L77.9011 575.859C69.2727 575.865 60.6443 575.914 52.0163 576.007C51.7505 584.182 51.9587 593.549 51.9427 601.821L26.3498 601.803C26.0848 593.232 26.0479 584.657 26.2392 576.084C17.9238 575.806 8.40913 576.019 0 576.008L0 549.769L0 523.65L0 497.77L0 471.466L0 445.252Z"/><path fill="#FAFAFA" d="M0 1175.65L26.0609 1175.83C26.4644 1184.04 26.2202 1193.58 26.1536 1201.9C34.7473 1201.79 43.3419 1201.78 51.9359 1201.86L51.952 1227.84L78.0975 1227.84C78.2201 1236.56 78.265 1245.28 78.2321 1254L0 1254L0 1175.65Z"/><path fill="#FAFAFA" d="M261 1175.8L287.139 1175.76C287.164 1184.48 287.25 1193.29 287.161 1202C295.65 1201.45 304.914 1201.64 313.433 1201.93L313.414 1227.82L339.665 1227.83L339.631 1254L260.916 1254L260.973 1227.9C269.784 1227.76 278.597 1227.76 287.408 1227.87C287.321 1219.12 287.285 1210.36 287.301 1201.61C278.698 1201.8 270.092 1201.81 261.488 1201.65C260.74 1193.18 260.978 1184.34 261 1175.8Z"/><path fill="#FAFAFA" d="M156.781 654.098C165.269 654.421 174.116 654.28 182.64 654.254C182.755 662.925 182.781 671.598 182.719 680.27C191.407 680.163 200.097 680.189 208.785 680.349L208.752 706.015C200.042 706.126 191.332 706.168 182.622 706.141L182.867 732.203C174.539 732.237 164.935 732.002 156.731 732.268C156.573 723.629 156.57 714.988 156.721 706.349L182.932 706.291C182.383 698.188 182.623 688.435 182.641 680.18C173.982 680.176 165.322 680.099 156.664 679.948C156.55 674.44 156.002 658.92 156.781 654.098Z"/><path fill="#FAFAFA" d="M1254 784.382L1254 810.333C1244.85 810.42 1236.19 810.556 1227.06 810.054C1227.21 818.686 1227.08 827.715 1227.09 836.381L1201.35 836.318L1201.25 810.581C1209.92 810.18 1218.6 810.139 1227.27 810.459C1227.08 802.012 1227.23 793.053 1227.22 784.566C1236.15 784.558 1245.07 784.497 1254 784.382Z"/><path fill="#FAFAFA" d="M391.844 1201.9L417.752 1201.92L418.01 1227.77C426.599 1227.8 435.342 1228.04 443.892 1227.98C443.918 1236.57 444.058 1245.44 443.918 1254L417.735 1254C417.75 1245.27 417.683 1236.42 417.791 1227.71L391.911 1227.81C391.575 1218.86 391.671 1210.87 391.844 1201.9Z"/><path fill="#FAFAFA" d="M130.469 341.092C130.324 349.799 130.316 358.508 130.446 367.215C122.031 367.112 112.444 366.836 104.118 367.11L104.053 392.995L78.2937 393.117C77.9724 384.615 78.1229 375.833 78.1659 367.301L104.489 367.175C103.953 359.525 104.247 349.121 104.27 341.246C112.968 340.999 121.721 341.294 130.469 341.092Z"/><path fill="#FAFAFA" d="M156.576 341.093L182.705 341.076C182.677 349.761 182.603 358.446 182.482 367.13C173.861 367.284 165.238 367.238 156.62 366.99C156.608 375.628 156.694 384.445 156.58 393.066C148.269 393.068 138.633 392.822 130.439 393.096C130.606 384.598 130.465 375.742 130.446 367.215C139.201 367.118 147.956 367.07 156.712 367.071C156.465 358.414 156.42 349.752 156.576 341.093Z"/><path fill="#FAFAFA" d="M130.514 680.263C139.179 679.984 147.851 680.002 156.514 680.317C156.544 688.821 156.675 697.582 156.488 706.06L130.401 706.123C130.404 714.586 130.203 723.906 130.429 732.294L104.263 732.181C104.124 723.552 104.108 714.922 104.216 706.293C112.982 706.19 121.748 706.188 130.514 706.288L130.514 680.263Z"/><path fill="#FAFAFA" d="M130.488 653.98C130.171 662.088 130.402 671.794 130.381 680.03C121.61 680.177 112.838 680.13 104.07 679.889C104.016 688.598 104.036 697.307 104.131 706.016C96.0417 706.328 86.5402 706.1 78.3464 706.104C77.6002 698.621 78.0291 687.961 78.148 680.309C86.5422 680.262 96.013 680.4 104.309 679.974C104.037 671.636 104.204 662.467 104.199 654.064C112.962 654.082 121.725 654.054 130.488 653.98Z"/><path fill="#FAFAFA" d="M313.536 445.366C322.103 445.376 330.98 445.266 339.52 445.441C340.063 452.455 339.691 464.09 339.683 471.489C348.001 471.487 357.417 471.709 365.64 471.445C365.18 478.484 365.575 490.173 365.586 497.564C357.012 497.673 348.436 497.55 339.869 497.193C339.412 488.801 339.497 479.811 339.446 471.358L313.492 471.433L313.536 445.366Z"/><path fill="#FAFAFA" d="M757.489 1201.9L783.693 1201.76C783.423 1210.4 783.313 1219.03 783.365 1227.67C774.72 1227.89 766.071 1227.94 757.423 1227.82L757.369 1254L731.188 1254L731.229 1227.92C739.994 1227.74 748.763 1227.76 757.528 1227.98C757.461 1219.29 757.448 1210.59 757.489 1201.9Z"/><path fill="#FAFAFA" d="M1227.19 836.605C1236.13 836.435 1245.06 836.349 1254 836.348L1254 862.634C1245.12 862.642 1236.24 862.561 1227.36 862.39C1227 854.475 1227.24 844.697 1227.19 836.605Z"/><path fill="#FAFAFA" d="M1227.27 1097.3L1254 1097.24L1254 1123.45L1227.36 1123.5C1227.18 1114.77 1227.15 1106.03 1227.27 1097.3Z"/><path fill="#FAFAFA" d="M1254 888.529L1254 914.706L1227.34 914.687C1227.09 906.367 1227.29 897.082 1227.23 888.644C1235.98 888.441 1245.21 888.558 1254 888.529Z"/><path fill="#FAFAFA" d="M1254 1149.5L1254 1175.58C1245.13 1175.63 1236.27 1175.63 1227.4 1175.58C1226.96 1167.85 1227.2 1157.73 1227.2 1149.88C1236.13 1149.7 1245.07 1149.57 1254 1149.5Z"/><path fill="#FAFAFA" d="M1227.19 732.362L1254 732.287L1254 758.21C1245.16 758.296 1236.11 758.147 1227.25 758.099L1227.19 732.362Z"/><path fill="#FAFAFA" d="M1254 940.612L1254 966.849L1227.37 966.714C1226.96 958.934 1227.22 948.888 1227.21 940.934C1235.14 940.44 1245.85 940.673 1254 940.612Z"/><path fill="#FAFAFA" d="M0 393.067C8.59634 393.129 17.6361 393.048 26.1935 393.287L26.2471 419.369C17.7457 419.185 8.55808 419.366 0 419.368L0 393.067Z"/><path fill="#FAFAFA" d="M887.916 1227.82L914.075 1227.83L914.169 1254L887.821 1254L887.916 1227.82Z"/><path fill="#FAFAFA" d="M600.753 1097.32L626.951 1097.31L627.017 1123.54C619.743 1123.07 608.297 1123.42 600.714 1123.51C600.639 1114.78 600.652 1106.05 600.753 1097.32Z"/><path fill="#FAFAFA" d="M130.429 1227.68L130.381 1254L104.196 1254L104.194 1227.91L130.429 1227.68Z"/><path fill="#FAFAFA" d="M130.439 393.096C130.413 401.721 130.236 410.813 130.391 419.398C122.026 419.404 112.387 419.617 104.167 418.956C104.179 410.72 103.912 401.43 104.371 393.313C112.711 393.008 121.99 393.175 130.439 393.096Z"/><path fill="#FAFAFA" d="M940.289 1227.92C948.981 1227.8 957.674 1227.77 966.367 1227.84C966.275 1236.56 966.278 1245.28 966.376 1254L940.227 1254C940.112 1245.43 939.961 1236.49 940.289 1227.92Z"/><path fill="#FAFAFA" d="M156.567 1227.93C165.292 1227.78 174.019 1227.74 182.744 1227.79L182.581 1254L156.642 1254C156.508 1245.31 156.484 1236.62 156.567 1227.93Z"/><path fill="#FAFAFA" d="M0 340.944L26.1819 341.17L26.1679 367.067L0 367.267L0 340.944Z"/><path fill="#FAFAFA" d="M1044.68 1228.05C1051.88 1227.46 1063.21 1227.8 1070.74 1227.83L1070.74 1254L1044.62 1254L1044.68 1228.05Z"/><path fill="#FAFAFA" d="M992.551 1228.06C1000.95 1227.69 1010.08 1227.79 1018.54 1227.74L1018.52 1254L992.517 1254C992.372 1245.35 992.383 1236.71 992.551 1228.06Z"/><path fill="#FAFAFA" d="M365.665 1227.98L391.713 1227.98L391.786 1254L365.563 1254C365.546 1245.33 365.58 1236.66 365.665 1227.98Z"/><path fill="#FAFAFA" d="M835.849 1227.82L861.972 1227.83C862.001 1236.29 862.221 1245.6 861.982 1254L835.741 1254L835.849 1227.82Z"/><path fill="#FAFAFA" d="M313.492 471.433C313.267 479.766 313.459 488.995 313.453 497.401C304.876 497.642 296.001 497.553 287.396 497.568L287.268 471.485C296.009 471.54 304.751 471.522 313.492 471.433Z"/><path fill="#FAFAFA" d="M208.784 1227.98L234.813 1227.98L234.813 1254L208.795 1254C208.448 1245.15 208.784 1236.78 208.784 1227.98Z"/><path fill="#FAFAFA" d="M52.0921 706.301C59.5428 706.275 70.7967 706.607 77.9238 706.158C78.4054 714.265 78.1735 723.768 78.1495 732.001C70.9255 732.624 59.7051 732.16 51.9887 732.27C51.9331 723.613 51.9676 714.957 52.0921 706.301Z"/><path fill="#FAFAFA" d="M130.481 628.074C139.192 627.644 147.883 627.789 156.603 627.844C156.616 632.396 156.343 650.484 156.86 653.965L156.781 654.098C151.208 653.483 136.832 653.931 130.488 653.98L130.481 628.074Z"/><path fill="#FAFAFA" d="M496.085 1097.31L522.256 1097.28L522.234 1123.53L496.186 1123.36C496.102 1114.68 496.068 1106 496.085 1097.31Z"/><path fill="#FAFAFA" d="M261.191 445.446L287.258 445.406C287.409 454.246 287.571 462.653 287.268 471.485L260.98 471.329C260.942 466.556 260.552 449.627 261.191 445.446Z"/><path fill="#FAFAFA" d="M208.815 1175.65C215.137 1175.83 229.054 1176.16 235.037 1175.62C234.735 1183.62 234.985 1193.23 234.979 1201.37C226.725 1201.81 217.227 1201.63 208.862 1201.64C208.67 1193.09 208.796 1184.23 208.815 1175.65Z"/><path fill="#FAFAFA" d="M0 653.964L26.0168 654.027L26.0168 679.844C17.3198 680.334 8.70828 680.176 0 680.115L0 653.964Z"/><path fill="#FAFAFA" d="M52.0425 445.458L78.0627 445.458L78.0627 471.389L51.9949 471.388L52.0425 445.458Z"/><path fill="#FAFAFA" d="M104.176 262.103C103.844 270.151 104.13 280.236 104.129 288.444C95.4422 288.288 87.2629 288.713 78.3267 288.385C77.8255 280.81 78.0977 270.218 78.1152 262.479C86.0143 262.621 96.4048 262.688 104.176 262.103Z"/><path fill="#FAFAFA" d="M130.391 419.398C139.121 419.627 147.878 419.394 156.616 419.408L156.578 445.161C147.687 445.463 139.503 445.346 130.598 445.183C130.531 436.667 130.579 427.889 130.391 419.398Z"/><path fill="#FAFAFA" d="M208.915 706.427C217.579 706.298 226.244 706.245 234.909 706.267L234.981 732.139C226.694 732.175 217.007 731.963 208.844 732.278C208.84 723.784 208.707 714.884 208.915 706.427Z"/><path fill="#FAFAFA" d="M235.064 419.368C243.675 419.502 252.319 419.269 260.875 419.433C261.167 428.222 261.05 436.345 260.89 445.147C251.942 445.393 244.099 445.36 235.163 445.167L235.064 419.368Z"/><path fill="#FAFAFA" d="M235.089 1149.81C243.783 1149.7 252.145 1149.57 260.835 1149.9C260.95 1158.43 261.009 1166.97 261.013 1175.51L235.037 1175.62C235.041 1167.18 234.89 1158.21 235.089 1149.81Z"/><path fill="#FAFAFA" d="M130.416 1201.87L156.438 1201.81C156.544 1210.36 156.769 1219.2 156.475 1227.71C147.793 1227.87 139.11 1227.87 130.429 1227.68C130.437 1219.19 130.573 1210.34 130.416 1201.87Z"/><path fill="#FAFAFA" d="M26.2471 419.369C34.8072 419.44 43.3677 419.448 51.928 419.392L51.9706 445.179C43.4887 445.309 34.7488 445.59 26.3035 445.14C25.9882 436.565 26.1594 427.951 26.2471 419.369Z"/><path fill="#FAFAFA" d="M627.017 1123.54C635.598 1123.85 644.217 1123.71 652.806 1123.65L652.852 1149.59C644.296 1149.66 635.647 1149.86 627.109 1149.44C627.011 1140.81 626.981 1132.18 627.017 1123.54Z"/><path fill="#FAFAFA" d="M1044.71 1019.32C1052.7 1018.72 1062.56 1019.11 1070.72 1019.21C1070.82 1036.23 1071.04 1053.94 1070.92 1070.92C1064.88 1070.88 1050.41 1070.22 1045.69 1072.1C1043.79 1075.38 1044.7 1115.74 1044.57 1123.36L1018.54 1123.52C1018.37 1114.73 1018.36 1105.94 1018.52 1097.15C1009.84 1097.19 1001.16 1097.18 992.476 1097.11C992.405 1105.93 992.403 1114.76 992.471 1123.58C984.407 1123.23 974.607 1123.46 966.406 1123.42L966.3 1097.11L940.2 1097.16L940.2 1123.75L966.199 1123.66C966.413 1132.02 966.247 1140.95 966.228 1149.36C957.67 1149.81 948.788 1149.66 940.188 1149.64C940.108 1140.9 940.099 1132.16 940.16 1123.43L914.093 1123.45C913.965 1132.22 913.962 1140.98 914.083 1149.75C922.801 1149.67 931.52 1149.7 940.237 1149.83L940.029 1175.55C931.613 1175.57 922.441 1175.4 914.093 1175.62C913.999 1184.34 913.996 1193.07 914.083 1201.79C905.557 1201.57 896.583 1201.7 888.02 1201.71C887.819 1193.03 887.8 1184.35 887.963 1175.67C881.716 1175.18 868.768 1175.62 862.016 1175.63C861.667 1183.54 861.962 1193.6 861.97 1201.67L835.95 1201.73C835.636 1193.25 835.798 1184.17 835.815 1175.63C828.878 1175.16 816.944 1175.59 809.635 1175.62C809.319 1167.46 809.563 1157.84 809.581 1149.58C800.955 1149.71 792.327 1149.71 783.701 1149.58C783.4 1141.08 783.505 1131.95 783.465 1123.4C774.788 1123.38 766.112 1123.44 757.436 1123.58L757.519 1097.32L783.438 1097.31C783.424 1105.79 783.624 1115.27 783.357 1123.67C791.751 1123.69 801.32 1123.93 809.618 1123.65L809.576 1149.64C813.995 1149.81 831.653 1150.11 835.854 1149.66L835.791 1123.53C828.007 1123.15 817.776 1123.45 809.802 1123.44C809.353 1115.09 809.55 1105.73 809.565 1097.29L835.852 1097.29C835.745 1088.61 835.74 1079.92 835.838 1071.23L861.987 1071.23L862.024 1097.19C870.662 1097.34 879.301 1097.36 887.94 1097.23C887.899 1088.56 887.908 1079.9 887.967 1071.24C896.474 1070.94 905.687 1071.09 914.254 1071.1C913.945 1062.66 914.133 1053.7 914.187 1045.22C922.908 1045.3 931.631 1045.3 940.352 1045.21C940.23 1036.54 940.261 1027.87 940.448 1019.21C948.907 1019.1 957.816 1018.92 966.259 1019.32C966.238 1027.94 966.297 1036.68 966.187 1045.29L992.473 1045.2L992.443 1071.13C1001.14 1071.06 1009.84 1071.06 1018.54 1071.12C1018.5 1067.61 1018.13 1039.26 1018.5 1038.65L1018.58 1044.89C1027.26 1044.91 1036.2 1045.23 1044.76 1045.22C1044.67 1036.58 1044.66 1027.95 1044.71 1019.32Z"/><path fill="#FAFAFA" d="M365.67 758.281C374.317 758.182 382.965 758.188 391.612 758.297C391.918 766.781 391.747 775.922 391.702 784.46L417.879 784.476L418.126 810.231L444.052 810.38C444.03 806.503 443.698 788.89 444.174 786.144C445.268 795.025 444.216 807.046 444.058 816.198C443.941 822.978 443.95 829.565 443.997 836.349C435.545 836.369 426.427 836.565 418.029 836.364C417.896 845.158 417.854 853.952 417.904 862.747L443.919 862.735L444.018 888.443L417.938 888.388L417.904 914.697L391.735 914.672L391.805 940.636C383.104 940.858 374.399 940.844 365.699 940.591C365.605 931.98 365.574 923.368 365.605 914.757C356.982 914.668 348.36 914.646 339.737 914.689L339.518 940.588C330.541 940.795 322.518 940.893 313.555 940.618C313.43 932.019 313.512 923.267 313.515 914.654L287.383 914.703L287.219 888.498L313.528 888.63L313.502 862.678C322.151 862.739 330.801 862.72 339.45 862.621L339.518 836.316L313.489 836.401L313.541 810.352C322.187 810.259 330.983 810.008 339.596 810.575C339.758 819.095 339.64 827.972 339.649 836.521L365.667 836.372C365.469 827.844 365.652 818.728 365.679 810.156C356.909 810.322 348.624 810.523 339.861 810.148C339.062 801.404 339.403 793.037 339.757 784.307C331.189 784.537 322.122 784.392 313.511 784.38L313.523 758.268L339.663 758.285L339.671 784.452C348.319 784.494 356.967 784.475 365.614 784.394C365.508 775.69 365.526 766.984 365.67 758.281Z"/><path fill="#00394F" d="M391.58 817.507C403.191 816.895 412.289 824.452 408.447 836.437C407.346 838.693 406.002 840.387 404.348 842.243C398.02 849.343 354.203 893.917 348.359 896.904C344.972 898.636 341.005 899.375 337.347 898.066C333.943 896.847 330.724 893.683 329.302 890.371C327.668 886.564 327.984 882.015 329.555 878.241C331.527 873.5 378.915 826.214 385.755 820.672C387.559 819.21 389.426 818.339 391.58 817.507Z"/><path fill="#FAFAFA" d="M808.854 835.796C808.788 827.656 808.847 819.515 809.03 811.376C810.117 816.81 809.574 830.367 809.51 836.435L783.63 836.391C783.693 845.178 783.64 853.966 783.472 862.751L809.642 862.727L809.496 888.528C818.142 888.573 827.261 888.753 835.86 888.498L835.724 914.818L862.259 914.803C861.972 906.022 862.035 897.477 862.088 888.691C870.691 888.538 879.296 888.5 887.901 888.576C887.911 897.264 888 906.081 887.889 914.756C879.326 914.715 870.452 914.79 861.916 914.569C862.062 923.331 862.079 932.096 861.966 940.858C870.6 940.699 879.235 940.68 887.869 940.8L887.865 966.896L861.964 966.735L861.942 992.926C853.34 992.955 844.416 992.861 835.843 993.05L835.807 966.721L809.69 966.795C809.218 974.16 809.499 985.328 809.446 992.92L783.615 993.021C783.703 1001.66 783.662 1010.3 783.493 1018.94L757.526 1018.99L757.442 993.005C749.402 992.7 739.563 992.936 731.346 992.845C731.237 984.247 731.232 975.648 731.33 967.05C739.668 966.734 749.066 966.907 757.483 966.88C757.429 962.512 758.112 944.468 757.265 941.771C756.496 941.049 755.958 940.371 754.758 940.423C746.827 940.768 739.353 940.856 731.404 940.502L731.161 914.761C739.171 915.133 749.376 914.843 757.553 914.841L757.48 888.444L731.335 888.329C731.005 880.439 731.244 870.816 731.225 862.791C739.989 862.648 748.754 862.641 757.518 862.772C757.43 854.018 757.4 845.264 757.43 836.51L783.639 836.4C783.541 833.222 783.535 830.042 783.62 826.863C784.395 825.772 784.134 826.411 783.908 824.703L783.816 826.202L784.281 826.549C784.479 829.242 784.362 833.013 784.362 835.796L808.854 835.796Z"/><path fill="#FAFAFA" d="M1044.67 732.275L1044.64 758.279C1053.39 758.205 1062.14 758.199 1070.89 758.26C1070.75 749.632 1070.73 741.001 1070.84 732.372C1078.61 732.353 1089.21 732.66 1096.74 732.251C1096.68 740.78 1096.67 749.309 1096.71 757.838C1091.16 758.732 1077.02 758.364 1070.74 758.345L1070.69 784.464L1096.85 784.464C1096.67 775.487 1097.01 767.129 1096.95 758.345L1123.2 758.345C1123.83 764.28 1123.76 778.33 1123.41 784.519L1148.81 784.506C1149.18 793.094 1149.25 801.692 1149.04 810.286L1175.15 810.303L1175 836.26C1166.4 836.397 1157.79 836.42 1149.19 836.329C1149.09 827.737 1148.88 818.959 1149.16 810.391L1122.89 810.389C1122.93 818.78 1122.77 828.092 1123.05 836.403C1114.41 836.344 1105.76 836.341 1097.11 836.393C1096.41 843.984 1096.66 854.617 1096.7 862.489L1070.97 862.622C1070.25 858.63 1070.58 841.499 1070.61 836.39C1064.27 836.395 1043.72 836.836 1038.28 836.207L1044.28 836.096C1044.28 829.776 1044.35 823.456 1044.47 817.137L1043.84 817.441C1043.85 816.252 1043.9 815.976 1044.49 814.945L1044 815.045L1044.49 814.33L1044.06 814.341L1044.48 813.726L1044.44 812.898L1044.7 813.323C1044.26 814.346 1044.35 813.843 1044.34 814.815L1044.86 814.735L1044.34 816.128L1044.95 815.904C1043.67 817.731 1044.49 831.55 1045.05 834.283C1045.41 830.018 1043.85 812.752 1045.64 810.551L1048.81 810.369C1046.54 809.914 1022.51 810.23 1018.61 810.183L1018.57 784.675C1027.22 784.706 1036.05 784.518 1044.72 784.466C1044.54 775.654 1044.58 766.838 1044.82 758.028C1036.28 758.238 1027.25 758.124 1018.68 758.155C1018.24 750.207 1018.33 740.259 1018.68 732.314C1027.34 732.377 1036 732.364 1044.67 732.275Z"/><path fill="#FAFAFA" d="M235.025 758.201C234.952 766.942 234.948 775.683 235.013 784.424C243.643 784.509 252.275 784.512 260.906 784.434C261.264 792.999 261.03 801.632 260.901 810.206C252.588 810.312 243.13 810.625 234.924 810.288C234.958 818.786 234.804 828.014 235.038 836.445L260.92 836.469C261.089 845.211 261.111 853.955 260.987 862.698C254.923 862.194 241.657 862.624 235.053 862.633C235.004 871.262 235.001 879.892 235.044 888.521C226.476 888.277 217.426 888.428 208.816 888.449L208.774 862.662L182.779 862.416L182.524 836.525L208.871 836.395L208.824 810.157C199.745 810.501 191.874 810.306 182.779 810.069L182.627 784.45C191.357 784.493 200.087 784.468 208.817 784.373L208.831 758.248L235.025 758.201Z"/><path fill="#FAFAFA" d="M1096.78 862.766L1123 862.657C1122.93 871.275 1122.92 879.893 1122.96 888.511C1131.6 888.569 1140.24 888.583 1148.88 888.554C1149.05 897.318 1149.11 906.085 1149.05 914.851L1175.11 914.827C1175.14 923.413 1175.11 931.999 1175.04 940.585C1166.12 940.763 1158.22 940.832 1149.33 940.533C1149 931.919 1148.91 923.297 1149.04 914.678C1140.35 914.62 1131.66 914.64 1122.97 914.737C1122.84 923.357 1122.81 931.979 1122.87 940.599C1114.24 940.828 1105.61 940.822 1096.98 940.582C1096.6 932.36 1096.74 923.1 1096.68 914.784C1089.2 914.368 1078.69 914.671 1070.97 914.654C1070.46 905.797 1070.63 897.464 1070.82 888.618L1096.75 888.451C1096.61 880.004 1096.76 871.238 1096.78 862.766Z"/><path fill="#00394F" d="M904.317 307.486C907.113 307.273 909.989 306.974 912.678 307.938C916.535 309.321 919.977 312.002 921.649 315.815C923.372 319.745 922.818 323.761 921.137 327.597C919.153 332.12 866.395 385.068 858.908 391.622C857.012 393.281 855.045 394.212 852.723 395.15C849.492 395.585 847.003 395.736 843.871 394.68C840.452 393.498 837.667 390.966 836.165 387.674C834.39 383.749 834.663 379.081 836.274 375.145C838.173 370.505 891.19 317.348 898.454 311.101C900.291 309.522 902.101 308.452 904.317 307.486Z"/><path fill="#00394F" d="M212.491 586.746C223.436 585.99 297.071 585.59 303.182 587.97C306.497 589.248 309.122 591.86 310.417 595.169C314.253 604.97 309.815 611.654 300.591 615.167C290.602 615.878 216.052 616.412 210.645 614.436C207.272 613.203 204.017 610.534 202.473 607.264C200.763 603.644 200.775 598.92 202.337 595.249C204.26 590.727 208.097 588.421 212.491 586.746Z"/><path fill="#00394F" d="M951.119 586.65C963.441 586.439 1034.23 585.164 1040.65 587.697C1044.51 589.217 1047.57 592.46 1049.05 596.304C1050.25 599.424 1050.41 602.952 1049.01 606.034C1046.72 611.105 1043.39 613.199 1038.41 615.168C1028.55 616.056 1009.56 615.424 999.64 615.428C991.102 615.431 953.115 616.531 947.226 613.833C944.067 612.41 941.634 609.747 940.501 606.473C937.068 596.707 941.923 589.823 951.119 586.65Z"/><path fill="#00394F" d="M623.547 905.681C636.643 905.371 640.519 911.81 640.468 923.98C640.362 949.183 640.873 974.445 640.311 999.637C640.145 1007.07 635.325 1011.17 628.653 1013.19C625.804 1013.4 623.1 1013.14 620.436 1012.04C617.114 1010.66 614.012 1007.81 612.834 1004.35C610.754 998.236 611.112 928.17 611.879 919.052C612.075 916.729 612.446 914.861 613.577 912.81C615.783 908.813 619.323 906.956 623.547 905.681Z"/><path fill="#00394F" d="M852.373 817.557C856.889 817.333 861.641 817.217 865.234 820.595C877.97 832.569 890.167 845.21 902.512 857.595C907.728 863.983 917.879 871.087 921.619 878.34C926.156 887.139 919.705 895.107 912.277 898.216C909.491 898.473 906.66 898.565 903.936 897.797C902.174 897.301 900.74 896.277 899.351 895.122C892.059 889.056 845.891 842.571 843.05 837.164C841.547 834.303 841.689 829.656 842.74 826.683C844.406 821.973 847.998 819.501 852.373 817.557Z"/><path fill="#FAFAFA" d="M705.161 1097.28L731.057 1097.28C731.156 1106.08 731.176 1114.88 731.117 1123.68C739.89 1123.75 748.664 1123.71 757.436 1123.58L757.38 1149.61L731.404 1149.66L731.331 1165.5C730.91 1161.98 731.105 1153.77 731.092 1149.91L705.375 1149.91L705.375 1140.72C705.535 1126.2 704.985 1111.9 705.161 1097.28Z"/><path fill="#FAFAFA" d="M287.235 993.055C295.718 993.189 305.218 992.799 313.425 993.137L313.44 1019.13C322.154 1018.99 330.869 1019.03 339.581 1019.22L339.677 1045.22C333.109 1044.72 320.603 1045.12 313.586 1045.11C313.405 1036.54 313.525 1027.58 313.519 1018.98C304.945 1019.28 295.826 1019.09 287.201 1019.03C287.3 1027.62 287.178 1036.42 287.151 1045.02C278.55 1045.11 269.948 1045.11 261.347 1045.03C260.678 1036.72 260.886 1027.69 260.938 1019.31C270.177 1019.13 278.056 1018.99 287.325 1019.26L287.235 993.055Z"/><path fill="#FAFAFA" d="M1175.25 1045.27C1183.64 1045.03 1192.79 1045.22 1201.24 1045.24C1201.27 1053.85 1201.44 1062.48 1200.91 1071.07C1192.3 1071.23 1183.69 1071.21 1175.09 1071.01L1175.08 1097.3L1201.19 1097.31L1201.19 1123.27C1196.66 1123.9 1180.23 1123.46 1175.22 1123.42L1175.25 1097.05C1166.57 1097.14 1157.89 1097.18 1149.21 1097.17C1148.85 1088.71 1149.01 1079.75 1149.04 1071.23L1175.28 1071.23C1175.02 1062.81 1175.21 1053.75 1175.25 1045.27Z"/><path fill="#FAFAFA" d="M679.076 862.583C687.581 862.62 696.6 862.808 705.063 862.625L705.063 888.612C713.73 888.534 722.398 888.521 731.065 888.575C731.084 897.274 731.034 906.071 731.161 914.761C722.573 914.632 713.984 914.598 705.395 914.658C705.133 905.768 705.266 897.261 705.155 888.43L678.904 888.354L678.972 914.69C670.511 914.709 661.532 914.878 653.113 914.679C653.033 906.042 653.005 897.404 653.029 888.766C661.701 888.715 670.373 888.62 679.044 888.48C678.816 879.849 678.827 871.214 679.076 862.583Z"/><path fill="#FAFAFA" d="M287.238 732.23C295.328 732.386 305.48 732.567 313.494 732.278L313.467 758.078C304.7 758.253 295.93 758.269 287.163 758.127L287.223 784.334C278.513 784.432 269.802 784.406 261.092 784.256C260.856 775.598 260.83 766.936 261.013 758.277L287.451 758.286C287.165 749.926 287.333 740.709 287.238 732.23Z"/><path fill="#FAFAFA" d="M522.239 914.726C530.328 914.862 540.537 915.086 548.539 914.715C548.446 922.966 548.831 932.484 548.33 940.517C539.112 940.822 531.552 940.926 522.278 940.753C522.357 949.4 522.351 958.048 522.261 966.695C513.831 966.959 504.819 966.803 496.339 966.788C495.81 958.637 496.079 949.178 496.143 940.903C504.781 940.668 513.71 940.755 522.374 940.739C522.395 932.068 522.35 923.397 522.239 914.726Z"/><path fill="#FAFAFA" d="M469.91 966.892L496.012 967.031C496.094 975.417 496.389 984.851 496.141 993.156C504.751 993.102 513.667 992.936 522.245 993.183C522.322 997.154 522.826 1016.25 521.836 1019.01L496.279 1018.94L496.279 992.913C487.63 992.956 478.604 993.125 469.995 992.857C470.393 987.601 469.856 973.102 469.91 966.892Z"/><path fill="#FAFAFA" d="M130.488 471.539C139.114 471.43 147.883 471.52 156.522 471.53C156.643 480.141 156.6 488.754 156.391 497.364C147.811 497.619 138.985 497.521 130.381 497.517L130.34 523.604C121.686 523.819 113.028 523.788 104.376 523.51C103.983 515.658 104.247 505.809 104.256 497.803L130.505 497.725L130.488 471.539Z"/><path fill="#FAFAFA" d="M456.479 888.76C459.348 888.373 466.702 888.555 469.938 888.561L469.939 914.834L496.093 914.809C495.877 923.04 496.136 932.271 496.189 940.575C491.886 940.546 487.278 940.719 482.949 940.805C478.881 940.886 474.319 940.71 470.21 940.64C469.492 932.463 469.788 922.985 469.894 914.725L444.111 914.686L443.965 888.766L456.479 888.76Z"/><path fill="#FAFAFA" d="M809.63 993.07L835.843 993.05C835.58 1001.13 835.837 1010.61 835.77 1018.88L809.506 1019.14L809.452 1045.04L783.613 1045.15C783.51 1036.43 783.428 1028.09 783.68 1019.38C791.992 1018.87 801.227 1019.09 809.61 1019.2C809.477 1010.49 809.483 1001.78 809.63 993.07Z"/><path fill="#FAFAFA" d="M235.551 680.288C243.973 680.139 252.397 680.117 260.819 680.221L261.061 706.35C269.751 706.184 278.444 706.161 287.135 706.28C287.24 714.93 287.274 723.58 287.238 732.23L261.217 732.184C260.875 723.429 260.948 714.847 260.981 706.087L235.129 706.069C235.058 702.139 234.37 682.886 235.551 680.288Z"/><path fill="#FAFAFA" d="M1175.32 940.928C1183.87 940.749 1192.72 940.863 1201.28 940.864L1201.15 966.723C1192.46 966.873 1183.78 966.864 1175.1 966.696C1175.2 975.419 1175.14 984.143 1174.92 992.863C1167.02 993.09 1157.08 993.321 1149.28 992.739C1148.81 984.859 1149.11 975.055 1149.18 967.005L1175.35 966.946L1175.32 940.928Z"/><path fill="#FAFAFA" d="M26.1455 628.158C33.8549 627.818 44.1741 627.675 51.9065 628.043L51.9363 654.044L78.0201 654.041C78.2582 662.717 78.2939 671.398 78.1272 680.076C70.6116 680.057 59.2064 679.68 51.9954 680.167C51.9968 671.601 51.8366 662.477 52.0379 653.958L26.3264 653.904C26.1109 645.324 26.0506 636.741 26.1455 628.158Z"/><path fill="#FAFAFA" d="M757.491 1149.78L783.506 1149.91C783.538 1158.39 783.711 1167.37 783.326 1175.79C790.537 1175.78 802.834 1176.15 809.635 1175.62L809.481 1201.64C800.832 1201.73 792.181 1201.73 783.531 1201.63C783.298 1193.91 784.076 1182.77 783.376 1175.46C775.074 1175.78 765.844 1175.6 757.458 1175.64L757.491 1149.78Z"/><path fill="#FAFAFA" d="M731.404 1019.19L757.359 1019.19C757.464 1027.75 757.351 1036.52 757.337 1045.1C748.626 1045.19 739.796 1045.1 731.074 1045.08L731.121 1070.93C722.372 1071.1 714.064 1071.25 705.322 1071.02C705.018 1062.35 705.121 1053.99 705.208 1045.31C713.939 1045.16 722.673 1045.17 731.404 1045.36L731.404 1019.19Z"/><path fill="#FAFAFA" d="M417.788 1175.65C426.473 1175.82 435.161 1175.85 443.847 1175.72L443.945 1201.92C448.055 1201.86 465.326 1201.45 468.497 1202.31C460.665 1202.58 452.828 1202.66 444.992 1202.57C443.905 1205.62 444.649 1220.71 444.269 1225.43C443.727 1218.71 443.93 1208.64 443.967 1201.72L418.138 1201.71C417.591 1193.15 417.7 1184.24 417.788 1175.65Z"/><path fill="#FAFAFA" d="M365.655 1123.6C374.372 1123.67 383.089 1123.67 391.805 1123.61L391.705 1149.4C386.718 1149.5 370.199 1149.35 366.382 1149.97C365.188 1151.55 365.519 1152.91 365.58 1154.96C365.611 1159.89 365.976 1170.48 365.132 1174.9C364.718 1167.4 364.933 1158.16 364.934 1150.52C363.214 1150.52 360.605 1150.74 359.237 1150.06C361.897 1149.72 363.016 1149.7 365.712 1149.72C365.609 1141.02 365.59 1132.31 365.655 1123.6Z"/><path fill="#FAFAFA" d="M914.057 758.188C914.043 766.913 914.081 775.638 914.17 784.363C905.453 784.453 896.735 784.405 888.019 784.219C887.876 775.564 887.848 766.907 887.935 758.251C896.642 758.301 905.35 758.28 914.057 758.188Z"/><path fill="#FAFAFA" d="M887.948 1019.17C896.969 1019.03 905.109 1018.97 914.111 1019.32C914.128 1027.76 913.973 1036.82 914.187 1045.22C906.601 1044.84 895.625 1045.05 887.897 1045.22C888.025 1036.62 887.699 1027.62 887.948 1019.17Z"/><path fill="#FAFAFA" d="M365.622 1097.23C365.613 1105.6 365.356 1115.35 365.655 1123.6C358.182 1123.15 347.583 1123.46 339.88 1123.44C339.182 1115.39 339.537 1105.47 339.654 1097.31L365.622 1097.23Z"/><path fill="#FAFAFA" d="M208.83 445.454L234.983 445.488L235.025 471.39L208.86 471.387C208.711 462.744 208.701 454.098 208.83 445.454Z"/><path fill="#FAFAFA" d="M235.114 653.991C234.578 660.548 234.964 672.919 234.965 679.908C226.34 680.127 217.712 680.157 209.087 679.998C208.619 671.352 208.78 662.718 208.831 654.059C217.592 654.091 226.353 654.069 235.114 653.991Z"/><path fill="#FAFAFA" d="M888.332 914.846C896.797 914.699 905.57 914.839 914.06 914.871C914.181 923.439 914.159 932.009 913.996 940.577C905.646 940.801 896.327 941.097 888.049 940.623C887.887 934.485 887.384 920.535 888.332 914.846Z"/><path fill="#FAFAFA" d="M369.753 706.206C377.214 706.198 384.285 706.175 391.746 705.85C391.448 710.757 392.722 729.553 390.912 732.046L388.966 732.184C381.226 732.282 373.484 732.292 365.743 732.215C365.582 725.269 365.068 713.812 365.788 707.28C366.907 705.995 367.422 706.414 369.753 706.206Z"/><path fill="#FAFAFA" d="M313.494 1097.24L313.426 1123.41L287.483 1123.44L287.483 1097.3L313.494 1097.24Z"/><path fill="#FAFAFA" d="M287.29 940.838C296.013 940.674 304.739 940.683 313.462 940.862L313.488 966.882C306.048 966.444 294.985 966.778 287.277 966.827L287.29 940.838Z"/><path fill="#FAFAFA" d="M339.747 966.789C339.388 974.783 339.613 984.735 339.576 992.84C330.723 992.933 322.437 993.134 313.578 992.712L313.488 966.882C321.394 966.918 331.939 967.222 339.747 966.789Z"/><path fill="#FAFAFA" d="M1020.43 940.747C1028.5 940.715 1036.57 940.797 1044.64 940.995C1044.67 945.797 1045.04 962.454 1044.21 966.376L1042.91 966.772C1034.78 966.874 1026.66 966.85 1018.54 966.7C1018.42 961.695 1017.85 945.667 1018.93 941.509L1020.43 940.747Z"/><path fill="#FAFAFA" d="M287.277 966.827C287.154 975.569 287.14 984.313 287.235 993.055C281.347 992.548 267.701 992.943 261.13 992.884C260.789 984.726 261.041 975.364 261.154 967.141L287.277 966.827Z"/><path fill="#FAFAFA" d="M992.471 1123.58C1001.2 1123.69 1009.92 1123.69 1018.65 1123.6C1018.69 1131.01 1019.07 1142.45 1018.25 1149.42C1009.46 1149.81 1001.4 1149.72 992.586 1149.58C992.469 1141.11 992.705 1131.87 992.471 1123.58Z"/><path fill="#FAFAFA" d="M548.47 888.517C557.177 888.598 565.885 888.6 574.592 888.525C574.655 897.261 574.605 905.998 574.442 914.733L548.539 914.715L548.47 888.517Z"/><path fill="#FAFAFA" d="M287.211 523.72L313.433 523.755L313.477 549.814C306.145 549.329 294.861 549.656 287.359 549.673L287.211 523.72Z"/><path fill="#FAFAFA" d="M653.156 1097.31L678.928 1097.3C679.019 1105.97 678.933 1114.75 678.912 1123.43C670.27 1123.48 661.629 1123.46 652.988 1123.38C652.811 1115.4 652.616 1105.13 653.156 1097.31Z"/><path fill="#FAFAFA" d="M1096.81 706.296C1105.42 706.219 1114.04 706.24 1122.66 706.36C1123.29 712.918 1122.93 725.147 1122.93 732.193C1114.51 732.209 1105.07 732.003 1096.74 732.251C1096.61 723.6 1096.64 714.947 1096.81 706.296Z"/><path fill="#FAFAFA" d="M313.489 836.401C313.269 844.709 313.459 853.89 313.453 862.269C304.666 862.718 296.099 862.543 287.307 862.419L287.352 836.596L313.489 836.401Z"/><path fill="#FAFAFA" d="M966.271 888.613L992.432 888.524C992.41 896.553 992.082 906.939 992.475 914.777C983.788 914.662 975.1 914.622 966.412 914.658L966.271 888.613Z"/><path fill="#FAFAFA" d="M527.978 1019.18C534.933 1018.96 541.547 1019.12 548.496 1019.26C548.566 1026.19 548.988 1038.02 548.353 1044.51C546.695 1045.45 545.696 1045.14 543.576 1045.15L522.494 1045.09C522.356 1037.95 522.051 1026.62 522.566 1019.82C523.943 1019.01 526.143 1019.24 527.978 1019.18Z"/><path fill="#FAFAFA" d="M1044.71 888.462C1044.44 896.791 1044.63 906.286 1044.61 914.71L1018.66 914.668C1018.33 906.572 1018.58 896.789 1018.57 888.561C1027.29 888.606 1036 888.572 1044.71 888.462Z"/><path fill="#FAFAFA" d="M391.817 1175.66C391.422 1183.42 391.709 1193.79 391.69 1201.74C383.082 1201.79 374.473 1201.78 365.865 1201.71C365.272 1194.5 365.614 1183.32 365.66 1175.78C374.379 1175.79 383.098 1175.75 391.817 1175.66Z"/><path fill="#FAFAFA" d="M104.211 550.027L130.382 549.877L130.348 575.888C121.351 575.997 113.244 576.043 104.268 575.658C104.094 567.116 104.075 558.57 104.211 550.027Z"/><path fill="#FAFAFA" d="M272.62 810.412C277.093 810.223 282.665 810.52 287.22 810.641C287.307 819.213 287.297 827.785 287.19 836.356L274.159 836.391L261.089 836.32C260.717 828.375 261.006 818.579 261.049 810.488C264.785 810.591 268.858 810.463 272.62 810.412Z"/><path fill="#FAFAFA" d="M971.054 940.746C978.182 940.674 985.311 940.737 992.436 940.933C992.473 944.769 992.992 963.983 991.962 966.571L989.025 966.717C981.771 966.975 973.719 966.762 966.396 966.703C966.337 959.657 965.956 948.502 966.549 941.816C967.987 940.693 968.892 940.985 971.054 940.746Z"/><path fill="#FAFAFA" d="M365.638 966.866C374.359 967.011 383.082 967 391.803 966.831L391.648 992.923C383.09 992.945 374.223 993.083 365.693 992.931C365.553 984.243 365.535 975.554 365.638 966.866Z"/><path fill="#FAFAFA" d="M130.473 1175.7C130.371 1184.36 130.33 1193.02 130.348 1201.68C121.869 1201.45 113.368 1201.86 104.555 1201.56C103.866 1198.98 104.218 1179.98 104.248 1175.97C112.903 1175.75 121.796 1175.77 130.473 1175.7Z"/><path fill="#FAFAFA" d="M260.917 914.81C269.69 914.876 278.463 914.896 287.236 914.868C287.268 923.426 287.251 931.985 287.186 940.543C278.455 940.712 269.982 940.956 261.254 940.555C261.015 931.976 260.902 923.393 260.917 914.81Z"/><path fill="#FAFAFA" d="M261.006 1123.68L287.156 1123.66C287.216 1129.88 287.669 1143.74 286.999 1149.34C278.397 1149.77 269.78 1149.82 261.174 1149.48C260.689 1141.14 260.89 1132.04 261.006 1123.68Z"/><path fill="#FAFAFA" d="M182.567 523.615C191.146 523.627 200.22 523.799 208.755 523.645L208.851 549.591L182.893 549.688C182.536 540.921 182.562 532.388 182.567 523.615Z"/><path fill="#FAFAFA" d="M260.987 862.698C269.746 862.809 278.506 862.793 287.264 862.652C287.308 871.069 287.508 880.143 287.219 888.498C279.084 888.189 269.397 888.413 261.136 888.386C260.676 880.265 260.929 870.929 260.987 862.698Z"/><path fill="#FAFAFA" d="M1123.05 836.403L1149.05 836.516L1149.12 862.44C1141.53 862.485 1130.38 862.197 1123 862.657C1122.97 853.905 1122.98 845.154 1123.05 836.403Z"/><path fill="#FAFAFA" d="M313.477 549.814L339.517 549.868L339.517 575.866L313.576 575.866L313.477 549.814Z"/><path fill="#FAFAFA" d="M757.458 1175.64C757.206 1183.93 757.397 1193.21 757.383 1201.58C748.462 1201.72 740.199 1201.82 731.293 1201.51C731.031 1193.65 731.108 1183.68 731.344 1175.8C739.969 1175.8 748.86 1175.91 757.458 1175.64Z"/><path fill="#FAFAFA" d="M235.089 1201.84C243.785 1201.78 252.481 1201.79 261.177 1201.86L260.954 1227.5C256.5 1228.4 240.117 1227.79 235.161 1227.66C234.709 1219.75 235.02 1209.91 235.089 1201.84Z"/><path fill="#FAFAFA" d="M809.523 836.572C818.182 836.504 827.016 836.343 835.659 836.412C835.816 845.165 835.851 853.92 835.764 862.674L809.692 862.468C809.468 853.838 809.411 845.204 809.523 836.572Z"/><path fill="#FAFAFA" d="M966.32 836.415C974.914 836.444 983.864 836.604 992.428 836.461L992.43 862.484C983.894 862.533 974.992 862.702 966.49 862.46C966.317 853.779 966.261 845.097 966.32 836.415Z"/><path fill="#FAFAFA" d="M914.137 836.413C922.745 836.412 931.448 836.377 940.05 836.498C940.231 845.107 940.255 853.72 940.122 862.33C931.994 862.488 922.429 862.9 914.464 862.238C913.889 854.237 914.122 844.563 914.137 836.413Z"/><path fill="#FAFAFA" d="M26.3513 262.255C34.1583 262.707 44.0487 262.418 51.9115 262.341L51.9607 288.712C43.5142 288.305 35.2214 288.855 26.3566 288.308C25.9712 279.628 25.9694 270.935 26.3513 262.255Z"/><path fill="#FAFAFA" d="M391.804 993.102C400.468 993.065 409.131 993.111 417.794 993.242C417.955 1001.79 417.972 1010.35 417.842 1018.9L391.782 1018.97C391.536 1010.35 391.543 1001.72 391.804 993.102Z"/><path fill="#FAFAFA" d="M809.56 1201.9L835.818 1201.92L835.852 1227.69C826.912 1227.86 818.822 1227.96 809.898 1227.66C809.32 1219.64 809.545 1210.07 809.56 1201.9Z"/><path fill="#FAFAFA" d="M887.876 810.337C896.681 810.535 905.37 810.317 914.108 810.464L914.137 836.413L888.168 836.381C888.014 827.701 887.917 819.019 887.876 810.337Z"/><path fill="#FAFAFA" d="M313.511 784.38L313.455 810.167C304.621 810.543 296.188 810.335 287.348 810.172L287.223 784.334C295.349 784.632 305.353 784.67 313.511 784.38Z"/><path fill="#FAFAFA" d="M1018.44 1149.79C1027.17 1149.71 1035.9 1149.74 1044.64 1149.87C1044.69 1158.41 1044.66 1166.96 1044.54 1175.51C1035.89 1175.63 1027.23 1175.61 1018.57 1175.46C1018.3 1167.16 1018.45 1158.15 1018.44 1149.79Z"/><path fill="#FAFAFA" d="M339.576 940.931C348.186 940.705 357.235 941.086 365.59 940.765C365.604 949.318 365.46 958.358 365.638 966.866C359.24 966.367 346.655 966.747 339.747 966.789C339.544 958.172 339.487 949.551 339.576 940.931Z"/><path fill="#FAFAFA" d="M391.735 1097.28L417.892 1097.33L417.866 1123.24L391.841 1123.27C391.533 1114.99 391.733 1105.64 391.735 1097.28Z"/><path fill="#FAFAFA" d="M966.34 1201.91L992.467 1201.74L992.381 1227.72C983.788 1227.86 975.194 1227.86 966.601 1227.72C966.088 1219.89 966.333 1209.92 966.34 1201.91Z"/><path fill="#FAFAFA" d="M104.122 601.921L130.391 601.911L130.322 627.689C121.732 627.852 113.139 627.87 104.548 627.742C103.835 620.74 104.126 609.298 104.122 601.921Z"/><path fill="#FAFAFA" d="M835.764 862.674C844.54 862.81 853.318 862.709 862.088 862.37L861.976 888.377C853.437 888.391 844.354 888.252 835.86 888.498L835.764 862.674Z"/><path fill="#FAFAFA" d="M1123 940.971C1131.71 940.821 1140.42 940.787 1149.13 940.869C1149.03 949.492 1148.98 958.115 1148.98 966.738L1123.06 966.803C1122.8 958.308 1122.95 949.496 1123 940.971Z"/><path fill="#FAFAFA" d="M78.1637 471.601C86.6922 471.445 95.5141 471.551 104.066 471.543C104.102 479.3 104.466 489.799 103.956 497.292C95.3676 497.679 86.7662 497.69 78.1766 497.325C77.9666 488.868 78.1202 480.086 78.1637 471.601Z"/><path fill="#FAFAFA" d="M418.056 1123.74C426.662 1123.67 435.269 1123.66 443.875 1123.68C443.956 1132.26 443.939 1140.84 443.823 1149.41C435.875 1149.8 426.075 1149.7 418.14 1149.49C417.591 1140.91 417.563 1132.31 418.056 1123.74Z"/><path fill="#FAFAFA" d="M914.194 732.308C917.891 732.35 938.574 732.795 941.008 731.88C939.501 734.468 940.321 753.681 940.189 758.083L914.057 758.188C914.046 749.561 914.091 740.934 914.194 732.308Z"/><path fill="#FAFAFA" d="M496.279 888.991C502.115 888.132 515.77 888.513 522.244 888.563L522.239 914.726L496.249 914.672C496.046 905.914 496.317 897.662 496.279 888.991Z"/><path fill="#FAFAFA" d="M287.483 628.07C295.328 627.662 305.404 627.931 313.413 627.925L313.471 653.897L287.483 653.915L287.483 628.07Z"/><path fill="#FAFAFA" d="M130.867 523.775L156.626 523.698C156.649 532.217 156.81 541.23 156.426 549.695L130.519 549.696C130.41 544.921 129.869 527.837 130.867 523.775Z"/><path fill="#FAFAFA" d="M914.083 1201.79C922.806 1201.88 931.53 1201.89 940.254 1201.83L940.14 1227.27C935.79 1228.52 919.329 1227.88 914.203 1227.74C914.184 1219.87 914.479 1209.45 914.083 1201.79Z"/><path fill="#FAFAFA" d="M1175.27 732.355C1183.82 732.22 1192.59 732.317 1201.16 732.321C1201.3 740.915 1201.3 749.511 1201.16 758.106C1192.54 758.287 1183.91 758.268 1175.28 758.047C1175.11 749.484 1175.11 740.918 1175.27 732.355Z"/><path fill="#FAFAFA" d="M235.044 888.521C243.661 888.682 252.28 888.681 260.897 888.517L260.917 914.81C253.851 914.342 242.531 914.685 235.142 914.671C235.044 905.955 235.012 897.238 235.044 888.521Z"/><path fill="#FAFAFA" d="M887.865 966.896C896.578 966.984 905.292 967.02 914.006 967.004L914.063 992.921L887.977 992.991C887.835 984.433 888.117 975.235 887.865 966.896Z"/><path fill="#FAFAFA" d="M391.782 1018.97C391.693 1027.66 391.672 1036.36 391.72 1045.05C383.558 1045.09 373.657 1044.87 365.644 1045.24L365.708 1019.15C374.141 1018.87 383.294 1019 391.782 1018.97Z"/><path fill="#FAFAFA" d="M705.158 940.987C713.652 940.733 722.62 940.838 731.155 940.812C731.22 949.449 731.2 958.085 731.094 966.721C722.531 966.808 713.967 966.834 705.404 966.798C705.202 958.196 705.12 949.592 705.158 940.987Z"/><path fill="#FAFAFA" d="M287.274 680.329C296.236 680.114 304.463 679.953 313.412 680.21L313.461 706.1C304.842 706.226 295.989 706.122 287.35 706.122L287.274 680.329Z"/><path fill="#FAFAFA" d="M992.568 784.305L992.764 784.33C992.128 787.542 992.384 805.497 992.383 810.119C983.922 810.374 975.456 810.38 966.996 810.137C965.635 808.305 966.307 788.29 966.354 784.544C974.462 784.557 984.648 784.82 992.568 784.305Z"/><path fill="#FAFAFA" d="M391.822 1149.81C399.097 1149.8 411.062 1150.13 417.964 1149.51L417.788 1175.65C410.265 1175.26 399.58 1175.63 391.817 1175.66C391.702 1167.05 391.703 1158.43 391.822 1149.81Z"/><path fill="#FAFAFA" d="M1098.19 1019.18C1106.41 1018.9 1114.67 1019.05 1122.9 1019.12C1122.92 1022.89 1123.48 1043.55 1122.18 1045.03L1096.95 1045.14C1096.94 1038.86 1096.53 1025.53 1097.2 1019.86L1098.19 1019.18Z"/><path fill="#FAFAFA" d="M522.454 967.078C531.115 966.94 539.776 966.895 548.438 966.944L548.439 992.916C539.778 993.053 531.116 993.045 522.455 992.894C522.319 984.289 522.318 975.683 522.454 967.078Z"/><path fill="#FAFAFA" d="M470.083 862.741C478.534 862.545 487.548 862.692 496.044 862.682C496.118 871.243 496.111 879.806 496.024 888.367C487.373 888.505 478.72 888.516 470.069 888.401C469.787 880.164 469.883 870.974 470.083 862.741Z"/><path fill="#FAFAFA" d="M235.025 471.39C243.638 471.584 252.253 471.615 260.867 471.485C260.933 480.05 260.946 488.615 260.907 497.18C253.007 497.511 242.914 498.001 235.129 497.216C235.017 488.608 234.982 479.999 235.025 471.39Z"/><path fill="#FAFAFA" d="M208.816 888.449L208.829 914.694L182.779 914.664L182.779 888.57C191.458 888.67 200.138 888.629 208.816 888.449Z"/><path fill="#FAFAFA" d="M940.455 758.283L966.326 758.245C966.219 765.848 966.631 777.179 966.038 784.276C957.473 784.497 948.903 784.484 940.339 784.236C940.311 775.362 940.085 767.183 940.455 758.283Z"/><path fill="#FAFAFA" d="M235.082 992.996C243.689 993.086 252.297 993.131 260.904 993.13C261.157 1002.01 261.024 1010.17 260.827 1019.06C252.26 1018.9 243.69 1018.9 235.122 1019.07C234.977 1010.38 234.964 1001.69 235.082 992.996Z"/><path fill="#FAFAFA" d="M1044.7 706.287C1052 706.305 1063.82 706.718 1070.75 706.258L1070.7 732.181C1062.46 732.203 1052.78 731.972 1044.67 732.275C1044.63 723.612 1044.64 714.95 1044.7 706.287Z"/><path fill="#FAFAFA" d="M1201.34 758.315L1227.09 758.261L1227.06 784.303L1201.29 784.382L1201.34 758.315Z"/><path fill="#FAFAFA" d="M992.475 914.777L1018.54 914.848C1018.49 923.27 1018.58 932.175 1018.31 940.552C1009.74 940.916 1001.17 940.927 992.604 940.585C992.242 931.899 992.857 922.859 992.475 914.777Z"/><path fill="#FAFAFA" d="M861.825 732.362L887.804 732.352C887.872 740.924 887.893 749.497 887.864 758.07C879.285 758.288 870.702 758.307 862.123 758.125C861.557 750.465 861.818 740.241 861.825 732.362Z"/><path fill="#FAFAFA" d="M1044.73 967.084C1053.11 966.83 1062.17 966.944 1070.61 966.89L1070.61 992.846L1045.03 992.846C1044.32 984.835 1044.64 975.217 1044.73 967.084Z"/><path fill="#FAFAFA" d="M652.938 1045.28C661.606 1045.11 670.278 1045.14 678.945 1045.38L678.937 1070.99C670.185 1071.26 661.943 1071.2 653.185 1071.08C652.892 1062.48 652.809 1053.88 652.938 1045.28Z"/><path fill="#FAFAFA" d="M156.7 497.803L182.632 497.793C182.729 506.4 182.707 515.008 182.567 523.615C173.969 523.756 165.239 523.937 156.657 523.544C156.504 514.964 156.518 506.382 156.7 497.803Z"/><path fill="#FAFAFA" d="M444.252 836.51L469.938 836.482C469.986 840.436 470.607 859.873 468.958 862.425C460.645 862.574 452.331 862.626 444.017 862.581C443.954 856.603 443.519 841.887 444.252 836.51Z"/><path fill="#FAFAFA" d="M156.64 914.858L182.704 914.844C182.704 923.434 182.589 932.025 182.358 940.612C173.753 940.78 165.308 941.055 156.706 940.597C156.291 932.185 156.539 923.322 156.64 914.858Z"/><path fill="#FAFAFA" d="M130.506 1149.88C139.103 1149.82 148.05 1149.64 156.615 1149.87C156.598 1157.92 156.847 1167.67 156.516 1175.58C148.234 1175.61 138.636 1175.4 130.473 1175.7L130.506 1149.88Z"/><path fill="#FAFAFA" d="M914.166 993.071L940.137 993.101C940.259 1001.64 940.274 1010.18 940.18 1018.72C934.778 1019.47 920.445 1018.99 914.252 1018.9C913.897 1010.92 914.158 1001.18 914.166 993.071Z"/><path fill="#FAFAFA" d="M1201.35 1123.79C1209.39 1123.46 1218.95 1123.66 1227.11 1123.62C1227.25 1132.19 1227.47 1140.77 1227.15 1149.34C1218.33 1149.81 1210.13 1149.67 1201.33 1149.41C1201.22 1140.95 1201.33 1132.27 1201.35 1123.79Z"/><path fill="#FAFAFA" d="M914.17 784.363C922.766 784.458 931.362 784.484 939.958 784.439C940.237 792.996 940.289 801.559 940.116 810.119C931.473 810.354 922.825 810.358 914.181 810.13C914.125 801.541 914.121 792.952 914.17 784.363Z"/><path fill="#FAFAFA" d="M940.354 810.345L966.15 810.304C966.224 818.707 966.517 828.092 966.32 836.415L940.313 836.318C940.082 828.426 939.903 818.208 940.354 810.345Z"/><path fill="#FAFAFA" d="M940.2 914.866C948.838 914.728 957.713 914.822 966.371 914.81L966.177 940.585C957.444 940.919 949.073 940.747 940.335 940.608L940.2 914.866Z"/><path fill="#FAFAFA" d="M365.65 1071.23L391.563 1071.23L391.563 1096.9C382.919 1097.17 374.27 1097.28 365.622 1097.23C365.47 1088.57 365.48 1079.9 365.65 1071.23Z"/><path fill="#FAFAFA" d="M887.897 1045.22C887.674 1053.49 887.854 1062.62 887.837 1070.96C879.304 1071.22 870.766 1071.26 862.231 1071.09C861.876 1062.1 861.882 1054.31 862.047 1045.31L887.897 1045.22Z"/><path fill="#FAFAFA" d="M313.514 1071.23C322.248 1071.29 330.982 1071.26 339.716 1071.16L339.665 1097.19C331.117 1097.2 321.99 1097.04 313.494 1097.24L313.514 1071.23Z"/><path fill="#FAFAFA" d="M1070.97 862.622C1070.48 871.344 1070.93 879.777 1070.7 888.36L1044.71 888.462C1044.61 879.899 1044.58 871.336 1044.63 862.773C1053.41 862.876 1062.19 862.825 1070.97 862.622Z"/><path fill="#FAFAFA" d="M835.872 1019.19C844.458 1019.16 853.259 1019.03 861.813 1019.42L861.813 1044.89L835.888 1045.14C835.714 1036.59 835.843 1027.76 835.872 1019.19Z"/><path fill="#FAFAFA" d="M443.964 940.812L470.138 940.812C470.025 948.98 469.633 958.854 469.91 966.892C461.306 966.772 452.701 966.725 444.096 966.753L443.964 940.812Z"/><path fill="#FAFAFA" d="M966.529 732.3L992.45 732.376C992.458 740.924 992.42 749.472 992.335 758.02C983.912 758.276 974.941 758.116 966.47 758.094C966.196 749.489 966.403 740.908 966.529 732.3Z"/><path fill="#FAFAFA" d="M339.677 1045.22C347.759 1045.27 357.737 1045.55 365.644 1045.24L365.578 1071.07C357.13 1071.18 347.972 1070.92 339.716 1071.16C339.349 1062.52 339.566 1053.87 339.677 1045.22Z"/><path fill="#FAFAFA" d="M78.1799 576.189C86.714 576.065 95.5294 575.824 104.041 575.866L104.122 601.921C95.5226 601.794 86.9219 601.746 78.3213 601.776C77.9837 594.367 77.8329 583.623 78.1799 576.189Z"/><path fill="#FAFAFA" d="M1201.28 914.916C1209.73 914.734 1218.63 914.863 1227.12 914.853C1227.19 921.889 1227.53 933.926 1226.84 940.633C1218.12 940.819 1210.08 940.976 1201.37 940.683C1201.2 932.204 1201.3 923.419 1201.28 914.916Z"/><path fill="#FAFAFA" d="M522.351 862.748C531 862.601 539.651 862.635 548.298 862.851C548.908 869.186 548.502 881.688 548.47 888.517L522.433 888.387L522.351 862.748Z"/><path fill="#FAFAFA" d="M260.996 497.862L287.156 497.825C287.237 506.109 287.522 515.535 287.211 523.72L261.254 523.484C260.695 515.339 260.94 506.11 260.996 497.862Z"/><path fill="#FAFAFA" d="M966.529 993.141C975.163 993.011 983.798 993.009 992.432 993.137C992.49 1001.39 992.722 1010.78 992.299 1018.94L966.486 1018.94C966.154 1011.03 966.477 1001.16 966.529 993.141Z"/><path fill="#FAFAFA" d="M835.822 758.345L861.813 758.345L861.813 784.249C853.271 784.434 844.476 784.355 835.912 784.375C835.644 775.952 835.811 766.827 835.822 758.345Z"/><path fill="#FAFAFA" d="M417.904 914.844L443.967 914.856L443.949 940.625C435.354 940.774 426.758 940.777 418.163 940.635C417.632 933.051 417.901 922.654 417.904 914.844Z"/><path fill="#FAFAFA" d="M574.654 862.704C583.319 862.659 591.985 862.677 600.65 862.758L600.595 888.42C592.121 888.629 583.17 888.44 574.654 888.383L574.654 862.704Z"/><path fill="#FAFAFA" d="M940.197 1175.79L966.141 1175.77C966.271 1184.32 966.269 1192.88 966.133 1201.43C957.563 1201.94 948.969 1201.93 940.4 1201.4L940.197 1175.79Z"/><path fill="#FAFAFA" d="M966.37 1149.88C975.057 1149.76 983.747 1149.76 992.434 1149.88L992.308 1175.61C983.66 1175.66 975.011 1175.61 966.363 1175.46C966.124 1167.32 966.352 1158.11 966.37 1149.88Z"/><path fill="#FAFAFA" d="M653.029 993.133L678.949 992.982C678.987 1001.14 679.259 1010.99 678.809 1019C670.216 1019.17 661.62 1019.12 653.029 1018.86C652.847 1010.38 652.988 1001.63 653.029 993.133Z"/><path fill="#FAFAFA" d="M862.061 1201.91C870.578 1201.78 879.299 1201.87 887.833 1201.86L887.854 1227.77C879.284 1227.93 870.712 1227.94 862.141 1227.79C861.856 1219.11 861.976 1210.6 862.061 1201.91Z"/><path fill="#FAFAFA" d="M235.104 732.33C243.687 732.26 252.272 732.272 260.855 732.368C260.984 740.942 260.989 749.518 260.87 758.092L235.025 758.201C235.037 749.869 234.842 740.581 235.104 732.33Z"/><path fill="#FAFAFA" d="M1070.78 1201.89L1096.81 1201.86C1096.48 1209.95 1096.71 1219.51 1096.71 1227.7C1088.1 1227.84 1079.48 1227.88 1070.86 1227.81C1070.52 1219.57 1070.74 1210.23 1070.78 1201.89Z"/><path fill="#FAFAFA" d="M339.742 732.378C348.32 732.274 357.037 732.359 365.627 732.366L365.565 758.051C357.162 758.3 348.166 758.133 339.713 758.111C339.365 749.726 339.517 740.761 339.742 732.378Z"/><path fill="#FAFAFA" d="M313.483 706.3L339.517 706.3L339.517 732.197C331.297 732.215 321.582 731.974 313.494 732.278L313.483 706.3Z"/><path fill="#FAFAFA" d="M208.817 966.871L234.813 966.993C234.82 974.852 234.553 985.374 235.082 992.996L208.938 992.921C208.816 984.238 208.776 975.555 208.817 966.871Z"/><path fill="#FAFAFA" d="M339.689 993.079L365.567 993.168L365.567 1018.88C357.022 1019.19 348.442 1018.99 339.89 1018.88C339.306 1011.2 339.63 1000.99 339.689 993.079Z"/><path fill="#FAFAFA" d="M1070.86 993.082L1096.72 993.062L1096.67 1018.89C1088.29 1019.16 1079.31 1018.98 1070.89 1018.96C1070.82 1010.33 1070.81 1001.71 1070.86 993.082Z"/><path fill="#FAFAFA" d="M26.2436 680.294C34.8208 680.248 43.4244 680.361 51.9954 680.167L51.9597 706.124C43.4312 706.188 34.9022 706.189 26.3736 706.127C26.0341 697.926 26.2329 688.585 26.2436 680.294Z"/><path fill="#FAFAFA" d="M627.083 862.771L652.84 862.668C653.022 871.22 653.063 879.774 652.962 888.327C644.336 888.495 635.707 888.503 627.08 888.351C626.821 879.586 626.911 871.549 627.083 862.771Z"/><path fill="#FAFAFA" d="M208.86 471.387L208.76 497.234C199.679 497.679 191.814 497.559 182.781 497.227L182.779 471.534C191.473 471.578 200.167 471.529 208.86 471.387Z"/><path fill="#FAFAFA" d="M235.137 628.06L260.858 627.925L260.915 653.845C252.989 653.869 242.854 653.6 235.114 653.991C234.995 645.348 235.002 636.703 235.137 628.06Z"/><path fill="#FAFAFA" d="M940.33 862.813C948.848 862.641 957.687 862.752 966.231 862.748L966.185 888.472C957.588 888.496 948.991 888.464 940.395 888.378C940.001 880.213 940.255 871.066 940.33 862.813Z"/><path fill="#FAFAFA" d="M943.901 966.934C951.34 966.912 958.778 966.933 966.216 966.999C966.28 971.795 967.143 989.919 965.228 992.674L963.921 992.846L940.36 992.846C940.403 985.698 939.774 974.824 940.454 968.08C941.464 966.823 941.71 967.216 943.901 966.934Z"/><path fill="#FAFAFA" d="M469.999 1123.89L495.966 1123.89L496.167 1149.45C487.609 1149.66 478.717 1149.57 470.13 1149.6C469.935 1141.03 469.892 1132.46 469.999 1123.89Z"/><path fill="#FAFAFA" d="M705.282 993.138L731.063 993.16C731.198 1001.78 731.22 1010.4 731.13 1019.01L705.362 1018.96C704.902 1010.46 705.167 1001.67 705.282 993.138Z"/><path fill="#FAFAFA" d="M992.548 653.905C991.847 660.175 992.232 673.109 992.246 679.97C986.574 679.949 970.873 679.606 966.169 680.283C966.876 675.941 966.541 659.547 966.517 654.175C973.53 654.249 985.933 654.635 992.548 653.905Z"/><path fill="#FAFAFA" d="M26.1876 367.339C34.7679 367.285 43.3485 367.279 51.929 367.323L51.9604 393.07C43.4015 393.036 34.8425 393.057 26.2839 393.132C25.8897 384.689 26.108 375.83 26.1876 367.339Z"/><path fill="#FAFAFA" d="M1201.29 784.382L1201.19 810.312C1192.59 810.444 1183.99 810.362 1175.39 810.067C1175.05 802.385 1175.33 792.528 1175.32 784.675C1183.98 784.628 1192.64 784.53 1201.29 784.382Z"/><path fill="#FAFAFA" d="M1201.29 862.744L1227.09 862.674L1227.19 888.387C1218.58 888.523 1209.97 888.503 1201.37 888.326L1201.29 862.744Z"/><path fill="#FAFAFA" d="M809.767 393.4C815.336 393.455 830.412 392.242 834.086 394.569C836.729 398.037 835.532 413.433 835.513 419.129L809.767 419.129L809.767 393.4Z"/><path fill="#FAFAFA" d="M888.142 680.563C896.558 680.404 905.419 680.548 913.871 680.55L913.871 705.704C908.301 706.207 894.335 705.746 888.142 705.724L888.142 680.563Z"/><path fill="#FAFAFA" d="M992.74 627.912C1001.19 628.023 1009.22 627.912 1017.59 627.912C1018.6 630.525 1017.91 649.2 1018.12 653.764C1011.96 653.688 998.3 653.191 992.548 653.905C993.258 647.679 992.817 634.627 992.74 627.912Z"/><path fill="#FAFAFA" d="M966.169 680.283C965.538 685.624 965.897 699.688 965.917 705.712L940.665 705.796C940.865 697.336 940.821 688.871 940.533 680.412C947.157 680.433 960.171 680.918 966.169 680.283Z"/><path fill="#FAFAFA" d="M992.743 680.481C1001.19 680.528 1009.64 680.512 1018.09 680.433C1017.81 688.531 1017.98 697.58 1017.96 705.751L992.828 705.739C992.912 697.382 992.785 688.853 992.743 680.481Z"/></svg>