<?xml version="1.0" encoding="utf-8" ?><svg xmlns="http://www.w3.org/2000/svg" xmlns:xlink="http://www.w3.org/1999/xlink" width="1254" height="1254" viewBox="0 0 1254 1254"><path fill="#FCFCFC" d="M0 0L1254 0L1254 1254L0 1254L0 0Z"/><path fill="#003259" d="M623.093 487.058C649.61 486.499 675.992 490.981 700.837 500.267C754.915 519.974 798.835 560.537 822.768 612.882C846.17 663.43 848.808 721.141 830.118 773.614C865.598 782.158 900.321 793.587 933.94 807.786C937.749 809.353 950.829 813.928 952.346 816.059C962.03 829.66 950.57 837.602 936.558 831.467C837.953 788.292 729.146 770.064 621.954 770.051C539.129 770.615 456.807 782.978 377.47 806.765C360.863 811.835 344.411 817.401 328.138 823.457C319.232 826.774 310.091 831.367 300.902 833.682C298.681 834.242 296.525 834.134 294.397 833.25C291.949 832.233 289.678 830.18 288.799 827.632C287.864 824.923 287.785 821.26 289.251 818.721C293.927 810.622 369.259 787.56 382.297 783.836C396.072 779.947 409.938 776.39 423.884 773.168C416.814 752.935 412.731 731.78 411.764 710.369C409.66 653.032 430.524 597.227 469.726 555.333C509.746 511.795 564.595 489.448 623.093 487.058Z"/><path fill="#FCFCFC" d="M616.801 508.519C637.394 506.582 666.56 511.013 686.011 517.335C735.579 533.048 776.8 567.938 800.487 614.228C826.715 665.717 827.684 714.66 810.11 768.813C752.968 756.593 694.765 750.003 636.338 749.139C578.505 747.088 500.599 756.121 444.125 768.47C437.952 751.63 434.093 734.03 432.654 716.152C428.933 664.729 445.907 613.95 479.804 575.102C515.273 534.014 563.264 512.516 616.801 508.519Z"/><path fill="#003259" d="M623.895 302.485C633.817 301.315 637.043 305.963 637.141 315.277C637.458 346.079 637.258 376.915 637.313 407.723C637.329 416.577 638.307 420.9 630.015 425.478C620.897 426.329 616.766 422.632 616.8 413.22C616.925 378.708 615.91 343.79 617.281 309.342C617.396 306.472 621.662 303.775 623.895 302.485Z"/><path fill="#003259" d="M352.751 420.134C357.647 419.707 359.886 419.998 363.494 423.498C384.579 443.949 405.23 464.83 426.107 485.497C430.532 489.877 435.781 494.247 433.656 501.254C432.488 504.959 430.074 506.375 426.783 508.142C422.252 508.418 419.591 508.41 416.095 504.896C392.866 481.514 368.653 458.753 346.086 434.806C341.741 430.196 347.972 422.562 352.751 420.134Z"/><path fill="#003259" d="M895.737 420.074C897.584 419.98 899.458 419.851 901.254 420.392C904.032 421.228 906.965 423.397 908.187 426.08C909.29 428.504 909.155 431.383 908.198 433.835C906.706 437.659 844.685 499.26 836.959 505.695C835.685 506.755 834.259 507.52 832.764 508.214C830.794 508.311 828.588 508.353 826.725 507.642C824.196 506.676 821.817 504.69 820.741 502.17C819.597 499.491 819.903 496.439 821.022 493.798C822.902 489.36 884.514 428.569 891.788 422.418C892.984 421.407 894.31 420.698 895.737 420.074Z"/><path fill="#003259" d="M917.632 678.671L974.787 678.654C983.908 678.656 993.516 678.45 1002.62 678.912C1006.89 679.128 1011.36 683.576 1011.66 687.998C1012.18 695.568 1008.01 699.015 1000.79 699.613C972.85 699.291 944.797 699.998 916.888 699.35C906.737 699.114 902.661 681.912 917.632 678.671Z"/><path fill="#003259" d="M252.453 678.711L304.787 678.78C314.675 678.744 324.511 678.575 334.399 678.737C348.783 678.972 351.445 697.692 336.035 699.633C318.201 699.507 300.366 699.474 282.531 699.533C272.729 699.581 262.434 699.883 252.678 699.536C239.494 699.068 237.558 681.039 252.453 678.711Z"/></svg>