<?xml version="1.0" encoding="utf-8" ?><svg xmlns="http://www.w3.org/2000/svg" xmlns:xlink="http://www.w3.org/1999/xlink" width="1254" height="1254" viewBox="0 0 1254 1254"><path fill="#FBFBFB" d="M0 0L1254 0L1254 1254L0 1254L0 0Z"/><path fill="#01435B" d="M449.176 520.718C454.055 520.151 461.513 520.921 466.099 521.489C502.881 526.044 533.394 549.741 550.461 582.123C554.384 588.221 558.429 597.195 565.384 600.219C576.043 604.852 587.366 608.303 598.28 612.065C615.137 617.896 631.891 624.018 648.536 630.431C707.701 653.179 766.267 678.021 826.401 698.16C835.222 701.114 857.469 698.34 867.747 697.562C892.097 695.616 916.463 693.869 940.842 692.322C949.171 691.824 957.959 690.218 966.27 690.574C968.926 690.688 971.742 691.261 974.017 692.702C976.603 694.34 978.351 697.152 978.833 700.156C980.947 713.33 958.009 771.479 949.55 782.121C946.389 786.098 942.491 788.468 937.832 790.312C921.26 796.871 901.692 798.328 884.062 800.135C856.926 802.918 829.613 804.16 802.518 807.121C791.146 815.699 779.09 826.45 767.596 835.434C734.221 861.524 704.062 877.566 663.958 890.232C657.041 900.987 653.139 910.903 648.905 922.767C655.572 922.831 680.033 920.824 683.323 926.043C698.295 949.791 666.835 946.807 656.226 946.63L614.084 946.747C607.512 946.764 571.286 951.131 585.278 926.71C588.712 920.715 616.254 922.678 624.754 922.706C627.454 912.923 630.099 906.006 634.524 896.84C596.294 903.477 563.462 902.903 525.726 892.911C516.348 904.325 514.062 909.321 508.123 922.541C516.047 922.798 523.512 925.054 523.643 934.574C523.706 937.848 522.403 941 520.047 943.274C516.048 947.117 510.909 946.633 505.557 946.672L460.991 946.707C453.326 946.705 444.454 947.12 436.984 946.049C431.809 945.307 428.514 938.62 428.827 933.734C429.685 920.342 445.604 922.722 454.77 922.733L483.501 922.679C488.613 907.549 493.123 897.975 502.339 885.032C483.465 876.498 470.66 870.113 453.677 858.049C408.947 826.272 379.751 780.172 370.953 725.923C368.323 709.705 368.565 696.228 366.649 680.177C365.662 671.902 361.509 664.063 357.58 656.9C344.621 633.275 325.291 626.857 301.882 616.823C294.775 613.659 286.764 611.764 280.255 607.442C274.496 603.618 273.497 595.705 277.842 590.449C279.576 588.335 281.974 586.869 284.647 586.291C288.374 585.484 297.415 585.654 301.654 585.353C318.759 584.138 336.625 584.319 353.641 582.945C374.987 544.559 404.937 523.652 449.176 520.718Z"/><path fill="#FBFBFB" d="M446.165 545.197C454.715 543.818 468.538 545.925 476.583 548.357C502.735 555.52 521.115 576.515 533.336 599.913C545.516 623.232 558.85 624.019 581.852 631.839C596.569 636.88 611.196 642.179 625.727 647.732C685.183 670.235 741.657 693.723 801.974 715.238C733.821 778.34 588.033 839.807 531.219 725.88C528.758 720.944 525.954 705.861 524.6 703.7C522.945 701.034 520.304 699.129 517.252 698.398C513.983 697.62 510.538 698.214 507.72 700.043C505.275 701.632 503.584 704.148 503.036 707.012C500.254 720.997 512.976 744.31 520.638 755.688C540.192 784.702 570.652 804.572 605.086 810.777C665.905 822.24 730.635 796.209 780.075 762.42C796.352 751.574 814.015 736.676 829.013 724.036C870.037 721.84 911.177 717.867 951.987 715.664C946.174 734.277 941.25 749.748 931.766 766.878C905.9 777.348 854.316 777.781 825.269 781.302C819.123 782.047 798.144 782.558 794.163 784.69C779.989 792.941 766.758 805.681 753.739 816.002C679.089 875.183 577.233 899.945 489.874 852.539C437.274 823.996 401.839 777.111 393.504 716.99C390.959 698.636 392.487 680.14 386.992 662.388C377.143 631.516 364.051 621.421 337.262 607.046C343.573 606.589 364.672 607.27 368.281 603.214C375.078 595.576 379.006 584.909 386.155 576.394C402.679 556.71 420.861 547.947 446.165 545.197Z"/><path fill="#01435B" d="M437.403 585.636C446.479 584.997 454.407 591.718 455.263 600.776C456.12 609.835 449.591 617.922 440.556 618.996C434.515 619.714 428.559 617.101 424.996 612.171C421.432 607.24 420.82 600.766 423.397 595.255C425.974 589.744 431.334 586.062 437.403 585.636Z"/><path fill="#01435B" d="M632.37 393.967C636.704 393.541 641.06 393.496 645.363 393.438C747.848 392.084 830.608 472.565 829.109 576.153C828.891 591.259 827.316 622.533 818.284 635.314C815.236 639.627 804.776 638.993 801.371 633.993C795.532 625.415 802.872 611.128 803.139 601.263C808.645 559.545 799.659 514.842 773.466 481.101C763.472 467.627 751.293 455.92 737.434 446.467C679.308 406.145 599.802 409.642 544.259 452.944C535.379 459.827 527.306 467.692 520.195 476.39C516.158 481.295 512.655 486.326 508.205 490.893C501.43 498.023 488.795 493.165 488.567 483.404C488.374 475.164 498.582 464.389 503.771 458.319C536.835 419.638 582.034 398.066 632.37 393.967Z"/><path fill="#01435B" d="M641.871 224.169C643.777 224.124 645.666 224.269 647.495 224.858C650.502 225.827 653.154 228.156 654.361 231.093C655.969 235.006 655.974 312.757 655.223 322.827C655.094 324.542 654.841 326.079 654.066 327.632C652.203 331.363 649.529 333.176 645.683 334.531C640.982 334.527 632.973 332.725 632.351 326.918C630.526 309.873 631.795 292.211 631.504 275.019C631.277 261.632 631.299 247.962 631.702 234.579C632.006 228.748 636.8 225.5 641.871 224.169Z"/><path fill="#01435B" d="M825.631 276.835C830.723 276.786 835.22 278.274 837.964 282.848C842.37 290.209 835.659 297.966 831.502 303.821C816.3 325.233 801.334 346.891 785.905 368.128C785.101 369.235 781.343 370.793 779.998 371.365C769.682 371.849 762.411 364.064 767.586 354.117C770.377 348.754 774.711 343.179 778.215 338.128L796.818 311.423C803.855 301.357 811.363 290.389 818.817 280.554C820.281 278.624 823.374 277.554 825.631 276.835Z"/><path fill="#01435B" d="M336.16 387.672C344.747 387.23 347.073 389.874 354.085 394.416C374.661 407.742 395.53 420.76 415.663 434.735C418.372 436.615 420.231 439.162 420.797 442.477C421.75 449.401 418.017 453.511 412.113 456.171C410.265 456.339 406.421 456.65 404.772 455.643C380.527 440.837 356.457 425.207 332.829 409.419C323.58 403.239 326.203 392.004 336.16 387.672Z"/><path fill="#01435B" d="M936.724 388.96C952.33 387.908 956.414 403.213 946.702 410.068C928.511 422.906 908.92 434.527 890.494 447.105C885.563 450.47 878.467 455.291 873.073 457.709C858.587 458.519 853.778 443.628 863.153 436.74C881.549 423.546 900.867 411.46 919.856 399.121C924.83 395.889 931.42 391.339 936.724 388.96Z"/><path fill="#01435B" d="M464.685 281.179C474.043 280.641 475.832 283.745 480.31 291.102C493.246 312.526 506.65 333.732 519.446 355.231C523.864 362.653 518.227 369.544 511.126 372.226C506.83 372.401 502.039 371.502 499.517 367.645C487.646 349.492 476.713 330.654 465.215 312.248C462.484 307.877 458.566 301.893 456.555 297.277C455.3 294.373 455.278 291.085 456.493 288.165C458.112 284.25 461.019 282.698 464.685 281.179Z"/></svg>