<?xml version="1.0" encoding="utf-8" ?><svg xmlns="http://www.w3.org/2000/svg" xmlns:xlink="http://www.w3.org/1999/xlink" width="1254" height="1254" viewBox="0 0 1254 1254"><path fill="#FBFBFB" d="M0 0L1254 0L1254 1254L0 1254L0 0Z"/><path fill="#013A54" d="M630.78 233.436C647.159 231.647 659.918 240.43 674.128 247.412L715.351 267.289C754.68 286.275 794.902 303.354 835.876 318.468C847.642 322.79 859.515 326.812 871.486 330.529C921.78 346.265 920.982 339.019 920.973 394.381L920.937 467.502L920.97 556.858C920.976 574.46 921.546 597.195 920.297 614.259C916.243 669.664 890.678 726.516 859.276 771.661C813.534 837.421 750.146 889.759 678.905 925.923C668.273 931.32 644.907 943.378 633.677 945.386C616.55 945.312 551.142 905.877 533.563 894.421C447.023 838.025 370.704 750.21 348.477 647.332C345.537 633.951 343.796 620.334 343.277 606.644C342.496 589.43 343.052 569.713 343.03 552.272L343.089 453.518L343.016 393.702C343.023 384.165 342.693 374.477 343.247 364.967C344.486 343.721 358.211 340.824 374.979 336.594C432.078 322.189 486.272 299.301 539.663 274.864C555.691 267.474 571.644 259.922 587.52 252.21C598.081 247.136 620.849 235.154 630.78 233.436Z"/><path fill="#FBFBFB" d="M634.493 259.569C638.507 258.733 665.544 272.976 671.529 275.893C692.544 286.192 713.692 296.216 734.97 305.961C789.851 330.607 837.559 348.882 895.215 365.306L895.13 530.617L895.157 576.64C895.165 595.016 895.498 611.181 892.35 629.431C886.791 661.654 874.789 693.775 859.091 722.384C818.332 796.668 750.676 857.651 676.448 897.401C667.674 902.1 641.245 915.833 632.116 918.52C510.67 865.365 387.83 756.917 370.239 618.733C368.662 606.338 369.214 591.401 369.225 578.745L369.229 528.306L369.277 365.296C391.287 360.695 418.361 352.29 439.431 344.952C463.734 336.648 487.681 327.339 511.21 317.047C553.133 298.768 593.116 278.463 634.493 259.569Z"/><path fill="#013A54" d="M620.647 384.244C666.841 380.455 707.341 414.876 711.048 461.076C714.755 507.277 680.262 547.715 634.055 551.34C587.964 554.955 547.651 520.567 543.953 474.484C540.255 428.4 574.57 388.025 620.647 384.244Z"/><path fill="#FBFBFB" d="M623.17 410.346C654.88 407.962 682.544 431.675 685.037 463.377C687.53 495.078 663.913 522.824 632.22 525.426C600.373 528.041 572.462 504.283 569.957 472.427C567.452 440.571 591.306 412.742 623.17 410.346Z"/><path fill="#013A54" d="M561.522 570.36L649.519 570.408C664.644 570.417 679.826 570.298 694.92 570.411C727.109 570.526 754.552 596.684 754.486 629.221C754.437 653.295 754.577 677.54 754.447 701.632C754.342 720.984 754.995 740.821 754.288 760.122C748.575 769.61 737.017 772.535 730.318 761.404C728.09 757.701 729.147 740.426 729.15 734.966L729.163 663.819C729.194 635.061 734.86 600.322 695.731 596.474L600.953 596.467C591.82 596.465 563.689 595.778 555.647 596.963C543.006 598.771 532.412 607.445 528.147 619.482C525.463 627.136 526.197 647.156 526.221 655.979L526.343 726.165C526.34 734.758 528.248 757.625 523.401 763.807C521.342 766.384 518.332 768.024 515.05 768.358C511.288 768.725 507.543 767.514 504.707 765.014C501.936 762.585 500.856 759.479 500.795 755.892C500.642 746.938 500.677 737.887 500.67 728.936L500.678 677.405L500.666 644.787C500.648 636.597 500.254 625.697 501.827 617.932C503.868 607.593 508.723 598.018 515.858 590.262C528.579 576.393 543.158 571.104 561.522 570.36Z"/><path fill="#013A54" d="M702.995 679.698C704.848 679.546 706.668 679.476 708.515 679.752C711.831 680.248 714.486 681.901 716.479 684.577C716.641 684.794 716.793 685.019 716.952 685.238C717.27 685.678 717.482 685.923 717.736 686.406C718.698 688.234 718.722 690.618 718.816 692.646C719.455 706.458 720.192 816.252 718.074 821.688C716.435 825.897 713.258 827.702 709.262 829.333C707.031 829.428 704.865 829.482 702.676 828.956C699.259 828.134 696.617 826.036 694.898 822.983C693.447 820.407 693.597 816.208 693.494 813.308C693.036 800.367 692.563 692.623 694.218 687.593C695.611 683.361 699.225 681.466 702.995 679.698Z"/><path fill="#013A54" d="M545.572 679.747C556.445 678.561 561.571 683.164 561.525 694.271C561.349 736.486 562.446 779.302 561.003 821.454C560.894 824.642 555.065 828.168 552.404 829.418C539.218 830.067 536.445 824.14 536.414 812.231C536.3 775.136 536.39 738.021 536.353 700.925C536.342 690.557 535.085 684.705 545.572 679.747Z"/></svg>