<?xml version="1.0" encoding="utf-8" ?><svg xmlns="http://www.w3.org/2000/svg" xmlns:xlink="http://www.w3.org/1999/xlink" width="1254" height="1254" viewBox="0 0 1254 1254"><path fill="#FDFDFC" d="M0 0L1254 0L1254 1254L0 1254L0 0Z"/><path fill="#003B52" d="M604.842 318.041C611.663 317.371 621.136 317.767 624.265 325.324C628.92 336.568 614.719 344.493 608.191 351.342C595.382 364.781 585.582 380.788 579.162 398.235C565.919 433.345 567.289 472.296 582.967 506.388C600.116 543.086 631.37 571.295 669.627 584.607C702.484 596.301 738.395 596.146 771.15 584.169C780.188 580.858 786.538 577.282 795.112 573.146C810.057 565.938 819.415 578.53 812.853 593.445C791.5 641.98 754.537 675.009 706.044 694.969C690.991 701.063 670.834 705.852 654.867 707.325C599.514 712.794 544.316 695.535 501.938 659.508C461.897 626.036 435.014 577.266 430.48 525.07C425.739 473.454 441.798 422.081 475.091 382.354C508.981 342.34 553.288 322.332 604.842 318.041Z"/><path fill="#FDFDFC" d="M585.589 341.209C586.937 341.015 586.788 341.088 588.177 341.209C587.652 344.361 581.307 350.935 579.05 354.282C549.246 398.491 540.042 450.008 558.319 500.975C573.872 543.614 605.683 578.356 646.791 597.595C681.754 613.788 721.097 617.941 758.67 609.406C768.49 607.161 777.144 603.897 786.603 600.52C766.799 636.536 732.307 663.574 693.893 677.414C685.201 680.306 677.67 682.585 668.563 684.361C620.72 693.358 571.259 683.094 530.945 655.804C490.188 628.557 462.081 586.083 452.934 537.917C444.375 493.623 455.234 446.051 480.532 408.926C505.141 373.269 542.952 348.897 585.589 341.209Z"/><path fill="#003B52" d="M440.395 769.362C495.287 768.713 552.162 769.295 607.176 769.487C629.7 769.443 652.223 769.718 674.739 770.312C681.08 770.443 705.933 770.254 709.766 772.202C712.118 773.384 713.861 775.505 714.566 778.042C715.249 780.488 714.861 783.11 713.497 785.253C709.485 791.492 695.421 789.698 688.505 789.697L650.66 789.667L471.398 789.671L427.866 789.57C420.683 789.548 406.718 789.102 400.165 790.539C392.609 792.19 386.071 796.889 382.097 803.523C378.015 810.164 376.877 818.203 378.953 825.716C386.086 851.107 410.38 847.407 430.687 847.393L504.567 847.34C520.548 847.328 542.71 844.904 556.604 852.735C566.906 858.608 574.462 868.323 577.62 879.753C581.241 893.033 578.95 904.269 572.291 915.962C652.065 917.001 733.731 916.031 813.669 916.039L898.844 916.036C913.753 916.059 928.575 916.131 943.485 915.892C958.069 915.659 964.087 898.945 954.575 889.335C952.484 887.231 949.821 885.79 946.916 885.19C942.189 884.242 931.336 884.612 925.968 884.642L896.12 884.701L865.107 884.842C857.318 884.867 846.991 886.095 840.435 881.564C835.219 877.96 836.587 872.015 840.205 867.827C842.523 865.144 846.885 864.439 850.224 864.289C877.085 864.75 903.965 864.34 930.828 864.404C937.454 864.419 944.764 864.068 951.228 865.388C957.291 866.622 962.887 869.528 967.385 873.777C982.176 887.549 982.447 911.858 968.37 926.047C961.032 933.443 951.64 936.414 941.473 936.378C904.02 936.247 866.574 936.331 829.124 936.314L611.215 936.309L486.867 936.313L448.798 936.35C439.837 936.389 409.039 940.154 415.628 922.985C419.371 913.234 438.251 915.901 447.443 915.95L509.092 916.107C520.973 916.122 543.107 918.476 551.951 909.718C557.007 904.769 559.782 897.942 559.614 890.869C559.347 881.601 553.012 872.269 544.637 869.036C538.159 866.535 522.89 867.497 515.227 867.501L442.978 867.518C436.99 867.519 430.84 867.468 424.869 867.523C404.969 867.707 388.607 868.516 373.283 853.728C363.828 844.635 358.39 832.147 358.175 819.031C358.028 805.891 363.548 793.187 372.583 783.639C389.841 765.4 416.474 769.321 440.395 769.362Z"/><path fill="#003B52" d="M727.913 735.562L730.548 735.5C757.305 734.973 785.636 735.793 812.52 735.474C824.146 735.337 857.67 734.676 867.206 736.737C876.195 738.631 884.458 743.044 891.032 749.46C900.344 758.565 905.434 771.763 905.463 784.706C905.524 797.881 900.309 810.532 890.983 819.838C884.8 825.938 877.006 830.149 868.515 831.979C858.815 834.078 830.762 833.324 818.976 833.303L737.153 833.209C729.647 832.041 724.8 826.077 728.456 818.793C729.805 816.115 732.269 814.171 735.188 813.484C742.09 811.882 751.242 813.087 758.377 813.057C775.476 812.985 857.358 814.934 867.765 811.219C874.495 808.816 880.075 803.425 883.063 796.983C886.412 789.933 886.776 781.83 884.073 774.507C875.472 751.639 851.722 755.664 832.167 755.658L752.996 755.645C743.964 755.557 711.923 760.532 720.289 740.648C721.446 737.896 725.091 736.251 727.913 735.562Z"/><path fill="#003B52" d="M284.58 813.253C294.734 812.583 312.645 812.499 322.796 813.448C332.145 814.322 336.183 826.947 324.724 833.027C314.917 833.855 296.83 833.826 286.967 833.037C276.617 832.208 273.018 820.05 284.58 813.253Z"/></svg>