<?xml version="1.0" encoding="utf-8" ?><svg xmlns="http://www.w3.org/2000/svg" xmlns:xlink="http://www.w3.org/1999/xlink" width="1254" height="1254" viewBox="0 0 1254 1254"><path fill="#FAFAFA" d="M0 0L27.9978 0L111.413 0L139.155 0L167.14 0L195.025 0L222.798 0L250.631 0L278.54 0L306.684 0L334.413 0L362.301 0L390.023 0L417.812 0L445.797 0L473.477 0L501.351 0L529.252 0L557.253 0L585.063 0L612.887 0L640.514 0L668.581 0L696.256 0L724.241 0L751.954 0L779.989 0L807.472 0L835.509 0L863.205 0L890.603 0L1002.35 0L1030.16 0L1113.85 0L1141.92 0L1169.99 0L1197.8 0L1225.72 0L1254 0L1254 28.095L1254 56.0635L1254 83.7551L1254 111.403L1254 139.203L1254 167.187L1254 195.312L1254 223.179L1254 251.008L1254 279.202L1254 306.92L1254 335.079L1254 362.768L1254 390.35L1254 446.326L1254 474.224L1254 502.359L1254 530.304L1254 558.277L1254 586L1254 614.036L1254 641.692L1254 669.547L1254 697.459L1254 725.454L1254 753.253L1254 781.22L1254 808.905L1254 837.038L1254 864.601L1254 892.589L1254 920.317L1254 948.436L1254 976.222L1254 1004.19L1254 1032.68L1254 1059.79L1254 1143.18L1254 1171.16L1254 1198.84L1254 1226.14L1254 1254L1225.72 1254L1141.9 1254L1113.86 1254L1085.98 1254L1058.1 1254L1030.13 1254L1002.37 1254L974.489 1254L946.672 1254L918.553 1254L890.872 1254L863.107 1254L835.475 1254L807.506 1254L780.037 1254L751.975 1254L668.549 1254L640.463 1254L557.11 1254L529.235 1254L501.454 1254L473.416 1254L445.743 1254L417.72 1254L389.995 1254L362.184 1254L167.175 1254L139.306 1254L111.419 1254L83.3866 1254L55.7065 1254L27.9163 1254L0 1254L0 1225.84L0 1198.82L0 1171.04L0 1143.19L0 1115.5L0 1087.53L0 1004.15L0 976.157L0 948.453L0 920.384L0 892.69L0 864.631L0 836.91L0 808.982L0 781.249L0 753.232L0 613.977L0 585.97L0 558.229L0 530.261L0 502.446L0 474.231L0 446.392L0 418.28L0 390.762L0 362.769L0 307.793L0 279.211L0 251.045L0 223.157L0 195.307L0 167.307L0 139.214L0 111.448L0 83.7565L0 55.8657L0 28.0765L0 0Z"/><path fill="#F6F5F5" d="M0 0L27.9978 0L111.413 0L139.155 0L167.14 0L195.025 0L222.798 0L250.631 0L278.54 0L306.684 0L334.413 0L362.301 0L390.023 0L417.812 0L445.797 0L473.477 0L501.351 0L529.252 0L557.253 0L585.063 0L612.887 0L640.514 0L668.581 0L696.256 0L724.241 0L751.954 0L779.989 0L807.472 0L835.509 0L863.205 0C863.247 9.22796 863.15 18.838 863.367 28.0323C854.028 28.2002 844.735 28.0609 835.41 28.1372C835.356 36.9198 835.065 47.1608 835.599 55.8089C844.73 55.8004 854.176 55.6613 863.278 55.8C863.193 65.0967 863.228 74.3942 863.383 83.69L890.979 83.6959C891.074 92.9255 891.11 102.156 891.087 111.386C898.097 111.416 912.039 111.805 918.79 111.139C918.722 120.171 918.434 130.375 918.812 139.305L946.718 139.305C946.652 148.265 946.363 158.434 946.718 167.294L918.646 167.327C918.655 175.7 918.323 187.11 918.797 195.236L946.626 195.267C946.601 204.121 946.332 214.464 946.726 223.198L974.489 222.976C974.504 214.012 974.315 204.124 974.617 195.235L1002.32 195.214L1002.5 222.92C1011.84 223.058 1020.92 223.222 1030.26 222.937L1030.21 195.216L1058.13 195.302C1058.09 204.589 1058.1 213.877 1058.16 223.164L1030.21 223.346C1030.23 232.004 1029.95 242.545 1030.33 251.048C1039.51 251.124 1048.93 251.306 1058.08 251.101C1058.04 260.478 1058.05 269.855 1058.11 279.233L1030.27 279.298C1029.85 287.085 1030.32 299.011 1030.39 307.108C1020.74 306.887 1011.89 307.067 1002.23 307.333L1002.26 279.261L974.505 279.301C974.249 287.757 974.167 298.757 974.669 307.13C965.444 307.021 955.704 306.734 946.546 307.392C946.79 298.195 946.66 288.46 946.684 279.221C937.324 279.314 927.963 279.338 918.603 279.294C918.588 288.458 918.444 297.989 918.712 307.12L890.988 307.239L891.095 335.054C885.695 335.058 877.439 334.811 872.266 335.239C878.269 335.546 884.281 335.648 890.291 335.543C890.058 367.028 886.18 363.25 918.457 363.097L918.457 390.65L925.996 390.753C923.374 391.065 921.375 390.994 918.769 390.963C918.778 399.38 918.474 410.102 918.864 418.327C928.121 418.566 937.384 418.574 946.642 418.351L946.644 390.74C956.107 390.854 965.031 390.923 974.482 390.619C974.377 399.871 974.378 409.124 974.484 418.376C965.293 418.368 955.789 418.242 946.632 418.548C946.634 427.638 946.465 437.346 946.702 446.385L974.387 446.259C974.724 436.924 974.365 427.655 974.662 418.51C983.865 418.62 993.069 418.586 1002.27 418.408C1002.24 413.205 1001.57 394.216 1003.32 390.751C1005.33 390.586 1005.38 390.496 1007.31 390.922C1004.48 391.817 1004.32 390.593 1003.04 391.877C1002.91 410.165 1002.29 428.165 1002.47 446.448C993.165 446.37 983.854 446.397 974.545 446.528C974.392 455.903 974.126 464.941 974.701 474.303C983.936 474.461 993.173 474.432 1002.41 474.216C1002.42 483.476 1002.3 493.092 1002.47 502.32L974.561 502.346C974.548 493.125 974.403 483.541 974.596 474.352L946.701 474.411C946.629 483.54 946.431 493.027 946.674 502.119C955.659 502.385 965.562 502.613 974.554 502.214C974.439 511.125 974.092 521.405 974.705 530.16C983.931 530.228 993.157 530.245 1002.38 530.21L1002.49 558.058L974.637 558.11C974.455 567.275 974.141 576.96 974.537 586.109L946.671 586.005L946.671 558.231C955.974 558.254 965.048 558.296 974.343 557.954L974.555 530.325L946.715 530.33C946.552 539.649 946.544 548.97 946.691 558.289C937.566 558.543 927.626 558.374 918.436 558.399C918.585 549.039 918.66 539.677 918.659 530.315L890.975 530.25L890.921 502.418L863.23 502.391L863.265 530.261L835.513 530.336C835.506 538.918 835.194 549.707 835.597 558.11L807.468 558.11L807.53 530.292L779.971 530.321C779.772 539.057 779.895 549.269 780.129 558.09C784.827 558.089 798.603 557.822 802.541 558.366L780.076 558.422L779.975 573.148C779.773 568.346 779.703 563.54 779.764 558.734C776.73 558.715 770.228 558.521 767.516 558.886L767.175 559.555L769.107 562.783L768.706 563.407L768.187 563.457C776.25 582.703 789.642 598.554 806.167 611.117C824.337 625.205 841.433 631.828 863.262 637.606C891.624 644.321 908.648 642.321 936.257 637.62C959.399 633.68 988.142 641.13 1007.97 652.745C1022.95 661.145 1038.18 673.062 1055.52 675.135L1056.29 675.174C1064.72 675.537 1073.66 672.92 1080.52 679.463C1084.92 683.659 1082.53 691.106 1079.8 695.487C1078.84 696.468 1077.75 697.328 1076.58 698.048C1072.3 700.666 1066.85 700.406 1062.1 700.655C1029.94 702.341 1010.25 680.054 982.462 668.811C934.97 649.595 898.152 679.28 854.438 691.565C824.832 699.759 793.598 700.068 763.836 692.461C719.163 680.701 686.364 652.619 663.531 613.192C659.329 614.214 645.923 613.859 640.533 614.087C640.543 622.692 640.276 633.272 640.718 641.718L668.398 641.492C668.459 639.703 668.539 633.776 668.859 632.366C669.578 634.184 669.266 638.828 669.249 641.083C670.947 641.09 674.165 640.884 675.563 641.46C672.83 641.819 671.382 641.877 668.618 641.881C668.402 651.726 668.454 659.872 668.632 669.62L696.281 669.586L696.266 697.476L668.509 697.457L668.524 669.879C659.285 669.494 649.789 669.164 640.549 669.712C640.533 678.638 640.309 688.621 640.667 697.461C635.945 697.496 612.218 697.168 609.783 697.797L612.348 698.185C613.262 700.656 613.75 712.144 609.832 712.616C581.718 695.279 559.447 684.001 525.883 680.025C518.555 679.157 511.806 679.077 504.515 678.585L504.292 678.051C502.978 677.828 502.868 677.808 501.544 677.416C501.699 675.362 501.719 671.519 502.554 669.917C505.216 671.187 523.064 670.441 527.179 670.296C525.678 669.335 509.087 670.36 506.49 669.563L529.124 669.549C529.249 660.303 529.264 651.055 529.167 641.809L501.311 641.802L501.372 614.028C492.123 613.931 482.873 613.949 473.624 614.084L473.598 641.784C464.326 641.817 455.054 641.769 445.783 641.639C445.773 650.86 445.631 660.453 445.909 669.639C450.351 669.605 454.608 669.478 459.031 669.934C454.374 670.666 451.106 670.526 446.37 670.474C446.368 672.749 446.477 676.071 446.133 678.227C445.547 675.997 445.766 672 445.789 669.549L417.922 669.549C417.741 679.217 417.561 687.747 417.968 697.38L390.014 697.63L390.002 669.561C380.729 669.561 371.456 669.621 362.183 669.741L362.335 697.525L334.431 697.52C334.322 705.376 333.738 717.139 334.86 724.557C336.082 725.559 336.843 725.175 338.873 725.212C335.505 726.164 336.822 725.062 334.716 727.221C333.04 732.045 335.019 736.92 334.102 742.484L334.006 725.893C325.582 725.84 315.166 726.055 307.077 725.893C307.068 728.021 307.161 734.611 306.856 736.341L306.722 726.781L306.447 726.516L306.168 728.075L305.566 727.748L305.358 726.435C301.092 725.816 284.567 726.185 279.211 726.193C279.237 732.289 279.625 746.991 278.779 752.338C278.576 743.363 278.523 734.384 278.621 725.407C269.456 725.358 259.787 725.634 250.74 725.442L250.687 697.521C242.905 697.539 230.164 697.97 222.781 697.438C222.663 688.418 223.03 678.798 223.233 669.732C214.019 669.601 204.805 669.54 195.591 669.549C195.708 664.512 195.118 646.618 196.497 643.705C199.574 640.755 217.416 641.982 222.781 642.008L222.723 614.158C213.536 613.936 204.345 613.918 195.157 614.105C195.059 623.29 195.112 632.475 195.317 641.658C186.518 642.021 175.989 641.779 167.056 641.806C167.149 632.544 167.169 623.281 167.114 614.019C157.755 613.97 148.395 614.004 139.036 614.121C139.153 604.771 139.176 595.421 139.106 586.071L111.374 586.003C111.061 577.47 111.379 567.018 111.406 558.337C102.039 558.267 92.6716 558.27 83.3046 558.345L83.32 530.372L55.8736 530.302C55.7379 539.601 55.7064 548.902 55.7791 558.202C46.5261 558.331 37.2721 558.362 28.0184 558.294L28.082 586.021C20.6012 586.487 7.87761 586.009 0 585.97L0 558.229L0 530.261L0 502.446L0 474.231L0 446.392L0 418.28L0 390.762L0 362.769L0 307.793L0 279.211L0 251.045L0 223.157L0 195.307L0 167.307L0 139.214L0 111.448L0 83.7565L0 55.8657L0 28.0765L0 0Z"/><path fill="#003F56" d="M226.843 671.698C227.835 667.45 229.705 661.725 234.447 660.325C243.641 657.611 253.292 657.437 262.717 655.168C293.392 647.784 321.302 632.774 344.764 611.747C378.878 581.787 405.447 540.318 427.661 501.051C471.196 424.098 514.799 352.084 595.559 309.174C652.215 279.07 717.551 269.845 779.419 289.494C826.645 304.492 869.939 337.682 893.614 381.917C901.349 396.37 911.231 423.758 906.787 440.789C906.081 443.494 903.356 447.188 900.516 448.387C888.912 453.289 879.732 439.142 870.442 433.31C864.693 429.107 859.222 426.222 852.427 424.016C811.311 410.575 774.666 443.381 763.025 481.006C755.104 506.608 755.395 539.334 768.187 563.457C776.25 582.703 789.642 598.554 806.167 611.117C824.337 625.205 841.433 631.828 863.262 637.606C891.624 644.321 908.648 642.321 936.257 637.62C959.399 633.68 988.142 641.13 1007.97 652.745C1022.95 661.145 1038.18 673.062 1055.52 675.135L1056.29 675.174C1064.72 675.537 1073.66 672.92 1080.52 679.463C1084.92 683.659 1082.53 691.106 1079.8 695.487C1078.84 696.468 1077.75 697.328 1076.58 698.048C1072.3 700.666 1066.85 700.406 1062.1 700.655C1029.94 702.341 1010.25 680.054 982.462 668.811C934.97 649.595 898.152 679.28 854.438 691.565C824.832 699.759 793.598 700.068 763.836 692.461C719.163 680.701 686.364 652.619 663.531 613.192C656.148 599.835 650.503 583.617 647.26 568.796C638.137 526.788 645.966 482.878 669.043 446.611C716.369 373.497 804.248 358.609 876.238 405.299C862.157 371.839 833.286 343.949 801.467 327.277C761.721 306.453 717.86 300.976 674.062 309.214C640.739 315.654 609.149 329.054 581.359 348.539C515.131 394.69 481.493 459.198 442.371 527.182C405.441 591.357 355.002 655.2 281.173 676.817C269.475 680.242 245.419 687.204 233.383 682.676C229.346 680.608 227.897 675.812 226.843 671.698Z"/><path fill="#FAFAFA" d="M778.824 404.964C783.904 404.448 789.899 404.576 795.073 404.553C763.485 421.286 744.52 448.136 736.049 482.73C727.418 519.334 733.591 557.866 753.226 589.942C778.365 631.245 815.796 651.676 861.426 662.594C848.034 668.956 827.919 671.69 813.16 672.733C780.97 673.686 750.605 665.008 724.774 645.483C694.763 623.253 675.201 589.671 670.668 552.599C661.285 481.51 705.827 414.384 778.824 404.964Z"/><path fill="#FAFAFA" d="M195.025 0L222.798 0L250.631 0L278.54 0L306.684 0L334.413 0L362.301 0L390.023 0L417.812 0L445.797 0C445.689 9.33502 445.7 18.6711 445.832 28.0058C455.02 28.1165 464.21 28.1626 473.399 28.144C473.584 37.3536 473.596 46.5659 473.436 55.776L445.741 55.8255C445.744 65.0062 445.586 74.6614 445.762 83.7999C454.973 83.9026 464.185 83.9361 473.397 83.9006C473.481 93.1185 473.485 102.337 473.409 111.555C481.556 111.542 493.535 111.906 501.367 111.418L501.371 139.343C510.663 139.454 519.957 139.426 529.248 139.259C529.257 130.154 529.406 120.679 529.257 111.607C537.698 111.579 549.008 111.885 557.211 111.428C557.119 120.671 557.098 129.915 557.147 139.159C547.812 139.301 538.475 139.299 529.14 139.154C529.174 148.206 529.423 158.167 529.199 167.144L501.347 167.178L501.335 195.309C492.779 194.966 482.147 195.276 473.429 195.286C473.519 204.512 473.498 213.739 473.367 222.964C464.411 223.214 455.19 223.068 446.208 223.026C445.5 214.679 445.787 203.854 445.793 195.276C436.729 195.083 427.026 195.272 417.911 195.287C417.755 185.912 417.69 176.537 417.715 167.161L390.018 167.208C390.067 176.546 390.068 185.885 390.02 195.223L362.198 195.233L362.229 222.912C352.982 223.113 343.732 223.158 334.483 223.047L334.385 195.317L306.615 195.214C306.616 204.242 306.817 214.242 306.477 223.191C298.615 223.211 285.935 223.569 278.563 222.721L278.532 251.26C287.798 251.186 297.205 251.023 306.453 251.316C307.065 259.004 306.597 271.229 306.365 279.118L278.614 279.176C278.613 288.342 278.765 298.044 278.488 307.164L250.62 307.155L250.699 334.92L222.856 334.97C222.72 325.68 222.726 316.388 222.873 307.098L250.759 307.132C250.552 297.796 250.51 288.456 250.632 279.118L222.856 279.186C222.682 269.825 222.651 260.462 222.765 251.1C213.592 251.225 204.417 251.223 195.244 251.094L195.163 223.329L222.905 223.294C222.647 214.049 222.815 204.49 222.866 195.216C213.726 195.354 204.402 195.269 195.246 195.277C194.988 204.14 195.189 214.034 195.172 222.982C185.888 223.082 176.602 223.061 167.319 222.92L167.182 195.339C158.663 195.001 148.138 195.281 139.458 195.268C139.186 186.133 139.311 176.476 139.292 167.299C148.589 167.363 157.885 167.339 167.181 167.228C167.248 157.947 167.238 148.665 167.153 139.383L195.086 139.287C195.238 148.624 195.281 157.962 195.216 167.3L222.88 167.291C222.7 158.213 222.852 148.633 222.849 139.515L250.745 139.256L250.745 167.3L278.781 167.312C278.061 150.037 279.287 130.078 279.211 112.052C285.434 112.073 300.605 112.509 305.958 111.535C296.873 111.387 287.786 111.359 278.7 111.453L278.601 83.8403C287.55 83.8448 297.85 84.1115 306.681 83.8323C306.472 74.5527 306.429 65.2702 306.549 55.9891C315.449 55.6333 325.451 55.871 334.437 55.9065C334.386 46.6282 334.383 37.3497 334.426 28.0713C325.199 27.9816 315.971 27.9964 306.744 28.116C306.367 36.7515 306.632 46.8476 306.449 55.7652L278.781 55.7841C278.589 46.523 278.551 37.2594 278.668 27.997L250.621 28.1214L250.54 55.8199L222.874 55.8177C222.658 46.7352 222.836 37.1979 222.877 28.0787C213.894 27.8944 204.364 28.044 195.336 28.0304C195.377 18.7897 195.141 9.26255 195.025 0Z"/><path fill="#FAFAFA" d="M0 0L27.9978 0L111.413 0L111.245 28.3168C120.527 28.0415 129.813 27.9934 139.097 28.1725C139.137 37.3038 139.128 46.4353 139.069 55.5665C132.697 56.4601 118.508 56.0472 111.392 56.032C111.264 65.2367 111.244 74.4426 111.334 83.6477C102.049 83.7868 92.7626 83.778 83.4781 83.6213L83.398 55.6643C74.189 55.874 64.9772 55.9335 55.7663 55.843L55.7858 83.801L83.3326 83.8758L83.3178 111.402C74.483 111.416 64.5722 111.197 55.8345 111.456C55.664 120.644 55.6214 129.835 55.7064 139.024C46.4837 139.329 37.2545 139.388 28.0286 139.203L28.0428 167.216L55.6896 167.283C55.71 176.554 55.6122 186.083 55.7732 195.329C65.0176 195.537 74.2406 195.356 83.4863 195.376C83.3853 204.722 83.3332 214.068 83.33 223.415C92.0486 223.371 102.921 223.639 111.449 223.254L111.407 195.373L139.227 195.393C139.099 204.599 139.076 213.807 139.159 223.015C130.015 223.153 120.458 223.44 111.364 223.003C111.293 232.371 111.288 241.739 111.349 251.107C120.66 251.206 129.972 251.241 139.284 251.212L139.253 223.377C148.405 223.355 158.039 223.186 167.151 223.411C167.203 232.668 167.2 241.926 167.14 251.183L195.013 251.177L195.013 279.106L167.13 279.151C167.14 288.29 167.34 298.152 167.108 307.231C159.155 307.17 151.593 307.06 143.646 307.496C149.864 308.214 160.08 308.016 166.547 307.989L166.547 334.318C158.835 334.346 146.684 334.695 139.288 333.432L138.603 334.938C134.156 335.374 115.975 335.011 111.405 334.739C102.276 334.488 92.7369 334.653 83.5735 334.687L83.5735 307.642C92.9092 307.523 102.159 307.721 111.538 307.515C111.996 298.448 111.742 288.088 111.708 278.915L83.5735 278.983C83.6435 269.633 83.61 260.283 83.4728 250.933C74.9812 250.563 64.2488 250.536 55.7637 250.928C46.4085 251.237 37.54 251.165 28.1725 251.06L0 251.045L0 223.157L0 195.307L0 167.307L0 139.214L0 111.448L0 83.7565L0 55.8657L0 28.0765L0 0Z"/><path fill="#FAFAFA" d="M780.017 28.2292C789.057 27.9896 798.576 28.1143 807.653 28.0973C807.496 37.3533 807.446 46.6108 807.503 55.868C816.7 55.8677 826.338 55.7278 835.496 55.9864L835.496 83.9269C844.701 83.9064 854.029 83.8066 863.223 83.9106L863.241 111.481C853.978 111.293 844.751 111.426 835.496 111.335C835.516 118.047 835.643 125.455 835.41 132.103C835.219 137.544 833.667 159.255 835 163.847C835.718 158.87 835.367 144.963 835.345 139.293L863.191 139.293C863.309 148.612 863.329 157.932 863.251 167.251C872.49 167.356 881.73 167.345 890.969 167.219C890.92 176.586 890.929 185.953 890.998 195.319C883.206 194.871 871.374 195.273 863.274 195.288C863.002 204.038 863.228 214.061 863.212 222.916C853.958 223.222 844.698 223.275 835.441 223.075C835.232 213.952 835.334 204.392 835.291 195.233C826.077 195.302 816.863 195.318 807.649 195.281C807.076 200.961 807.478 216.397 807.418 222.996C798.31 223.167 789.199 223.166 780.091 222.993C779.955 213.765 779.937 204.535 780.038 195.306C771.597 194.936 760.623 195.246 751.998 195.325L752.009 167.195C743.186 166.92 733.082 167.146 724.153 167.128L724.19 139.293L751.988 139.293C751.858 130.043 752.135 120.774 751.967 111.451C760.691 111.671 771.373 111.813 780.049 111.467C779.956 102.214 779.959 92.9608 780.058 83.7083C771.124 83.7382 760.867 83.9918 752.081 83.3664L751.978 56.0546C760.987 55.7219 770.968 55.8469 780.054 55.7689C779.838 46.5904 779.825 37.4083 780.017 28.2292Z"/><path fill="#FAFAFA" d="M696.256 0L724.241 0L751.954 0L779.989 0L779.921 27.9865C770.801 28.0168 761.065 27.8696 752 28.1024C751.709 36.8539 751.943 46.9768 751.927 55.8395L724.223 55.8088C723.718 46.615 724.01 37.2267 724.23 28.0258L696.247 28.099C696.456 18.9871 696.264 9.16768 696.256 0Z"/><path fill="#FAFAFA" d="M668.586 111.476L668.57 139.067C659.246 139.315 649.917 139.345 640.591 139.156L640.534 167.207C632.098 166.854 621.65 167.128 613.054 167.112C612.816 157.914 612.956 148.308 612.967 139.076C609.876 139.216 608.553 139.32 605.522 138.858C607.093 138.121 610.421 138.373 612.305 138.381C612.275 129.946 612.198 121.672 612.563 113.242C613.123 120.697 612.84 131.586 612.848 139.318L640.702 139.319C640.317 130.55 640.576 120.365 640.605 111.488C649.38 111.598 659.863 111.858 668.586 111.476Z"/><path fill="#FAFAFA" d="M612.916 28.1191L640.527 28.0966C640.535 37.2521 640.667 46.6884 640.535 55.8186C631.3 55.8633 622.066 55.8446 612.831 55.7627L612.887 83.7845C604.984 83.309 593.419 83.6667 585.061 83.5536C584.764 74.2792 584.908 65.1432 585.004 55.8669C576.908 55.8423 566.762 56.2349 558.952 55.4634L560.107 55.5389C560.781 54.886 581.456 55.1089 584.139 55.1074C584.097 52.7496 584.149 51.7079 584.407 49.3628C585.106 51.0204 585.026 54.1017 585.123 56.06C594.682 56.0046 603.385 55.8154 613.041 55.9877C612.935 46.6986 612.894 37.4088 612.916 28.1191Z"/><path fill="#FAFAFA" d="M418.109 614.108C427.23 613.751 436.594 613.995 445.74 614.117L445.783 641.639L418.023 641.62L417.987 669.347C408.713 669.585 399.435 669.624 390.159 669.463L390.077 641.81L418.234 641.78C417.766 633.505 417.686 622.438 418.109 614.108Z"/><path fill="#FAFAFA" d="M640.514 0L668.581 0L668.482 27.9335L640.527 28.0966L640.514 0Z"/><path fill="#FAFAFA" d="M668.618 167.242L668.543 195.316C660.229 194.928 649.226 195.25 640.699 195.242C640.292 186.541 640.545 176.042 640.534 167.207C649.383 167.3 659.834 167.574 668.618 167.242Z"/><path fill="#FAFAFA" d="M0 418.28C9.24461 418.346 18.7434 418.305 27.9631 418.573C27.974 427.25 27.7094 437.739 28.104 446.268C18.7365 446.38 9.36819 446.421 -1.08767e-15 446.392L0 418.28Z"/><path fill="#FAFAFA" d="M807.472 0L835.509 0C835.536 9.31241 835.463 18.6248 835.292 27.9357L807.653 28.0973C807.414 18.8762 807.509 9.25362 807.472 0Z"/><path fill="#FAFAFA" d="M0 362.769C9.34833 362.953 18.6985 363.029 28.0486 362.996C28.0587 372.218 28.022 381.44 27.9385 390.661C18.5655 390.842 9.37496 391.089 0 390.762L0 362.769Z"/><path fill="#FAFAFA" d="M473.477 0L501.351 0C501.653 8.97274 501.421 18.9554 501.388 28.0029L473.576 27.9962C473.183 19.3832 473.47 8.76374 473.477 0Z"/><path fill="#FAFAFA" d="M0 530.261L28.0033 530.31L28.0076 558.17C18.784 558.229 9.19117 558.419 0 558.229L0 530.261Z"/><path fill="#FAFAFA" d="M250.659 56.0095C259.972 55.7945 269.288 55.7986 278.601 56.0218L278.601 83.8403C269.358 83.7327 260.115 83.6917 250.871 83.7173C250.332 75.177 250.465 64.6667 250.659 56.0095Z"/><path fill="#FAFAFA" d="M529.252 0L557.253 0L557.065 27.9835C547.819 28.0579 538.572 28.0587 529.326 27.986C529.089 18.9393 529.267 9.1087 529.252 0Z"/><path fill="#FAFAFA" d="M139.155 0L167.14 0L167.086 28.0219C157.839 28.0824 148.592 28.0605 139.346 27.956C139.193 18.6161 139.44 9.40059 139.155 0Z"/><path fill="#FAFAFA" d="M501.409 55.9044L501.385 83.8266C495.114 83.264 480.491 83.7017 473.596 83.6987C473.3 74.6361 473.438 65.0902 473.553 56.0211C482.482 55.6968 492.423 55.8675 501.409 55.9044Z"/><path fill="#FAFAFA" d="M668.56 55.9036C668.273 64.4918 668.541 74.5837 668.464 83.3665C659.8 83.9305 649.47 83.6985 640.668 83.6994C640.351 74.8112 640.569 65.0275 640.604 56.069C649.983 55.5389 659.195 56.1633 668.56 55.9036Z"/><path fill="#FAFAFA" d="M585.063 0L612.887 0L612.85 27.7384C603.883 28.3559 594.091 27.9975 585.063 27.8428L585.063 0Z"/><path fill="#FAFAFA" d="M946.691 251.162L974.461 251.234C974.555 260.283 974.837 270.143 974.508 279.123C965.68 279.128 955.425 278.902 946.684 279.221C946.492 269.966 946.647 260.44 946.691 251.162Z"/><path fill="#FAFAFA" d="M3.26301e-15 474.231C9.28524 474.221 18.5703 474.308 27.8537 474.493L27.8537 502.076C18.577 502.547 9.28594 502.671 -1.08767e-15 502.446L0 474.231L3.26301e-15 474.231Z"/><path fill="#FAFAFA" d="M0 279.211L27.5492 279.211C27.7123 288.894 28.2344 297.486 28.166 307.377C19.6308 307.378 7.49712 305.6 0 307.793L0 279.211Z"/><path fill="#FAFAFA" d="M918.801 446.443L946.702 446.385C946.505 455.425 946.65 465.033 946.628 474.12C937.748 474.417 927.747 474.21 918.781 474.224L918.801 446.443Z"/><path fill="#FAFAFA" d="M278.7 111.453C278.261 119.718 278.533 130.645 278.523 139.134C269.963 139.524 259.587 139.215 250.893 139.167C250.264 130.423 250.589 120.38 250.694 111.557C260.03 111.646 269.366 111.611 278.7 111.453Z"/><path fill="#FAFAFA" d="M918.783 223.397C928.04 223.219 937.299 223.218 946.556 223.392L946.691 251.162L918.87 251.131C918.492 241.96 918.691 232.59 918.783 223.397Z"/><path fill="#FAFAFA" d="M751.998 195.325C751.672 203.998 751.93 214.216 751.932 223.007C742.713 223.199 733.491 223.212 724.271 223.047C723.815 214.052 724.114 204.406 724.242 195.358C733.494 195.393 742.746 195.382 751.998 195.325Z"/><path fill="#FAFAFA" d="M501.335 195.309C510.6 195.419 519.865 195.456 529.13 195.422C529.18 199.031 529.752 220.756 528.673 222.958C520.466 223.234 509.616 223.517 501.442 222.957L501.335 195.309Z"/><path fill="#FAFAFA" d="M891.101 139.411L918.615 139.32C918.721 148.605 918.7 157.89 918.555 167.175C909.77 167.178 899.638 166.925 890.969 167.219C891.01 158.276 890.728 148.196 891.101 139.411Z"/><path fill="#FAFAFA" d="M529.237 56.031C538.514 55.8538 547.793 55.8152 557.07 55.9154C557.073 64.9028 556.876 74.8659 557.216 83.7743C547.908 83.6474 538.599 83.611 529.291 83.6649L529.237 56.031Z"/><path fill="#FAFAFA" d="M501.381 28.1172L529.094 28.1599C529.172 37.374 529.181 46.5886 529.12 55.8029C519.914 55.8217 510.604 55.7682 501.409 55.9044C501.323 46.6422 501.313 37.3795 501.381 28.1172Z"/><path fill="#FAFAFA" d="M724.077 83.9166C733.348 83.8171 742.619 83.8073 751.89 83.8873C751.898 92.6373 751.647 102.823 751.967 111.451C742.695 111.369 733.423 111.338 724.151 111.359C724.06 102.212 724.036 93.064 724.077 83.9166Z"/><path fill="#FAFAFA" d="M890.998 195.319C900.159 195.407 909.32 195.425 918.481 195.373C918.568 204.557 918.588 213.741 918.543 222.925C909.063 223.264 900.543 223.141 891.065 222.998C891.024 214.295 891.315 203.836 890.998 195.319Z"/><path fill="#FAFAFA" d="M668.543 195.316C677.749 195.435 686.956 195.454 696.162 195.376C696.191 204.486 696.336 213.882 696.158 222.967C687.07 223.005 677.707 223.155 668.642 222.946C668.569 214.485 668.939 203.406 668.543 195.316Z"/><path fill="#FAFAFA" d="M668.622 139.257C677.872 139.501 686.984 139.276 696.219 139.32L696.196 167.153C687.446 167.164 677.245 166.916 668.618 167.242L668.622 139.257Z"/><path fill="#FAFAFA" d="M501.385 83.8266L529.086 83.8684L529.126 111.34L501.367 111.418C501.607 102.355 501.434 92.9202 501.385 83.8266Z"/><path fill="#FAFAFA" d="M557.216 83.7743C566.414 83.8668 575.613 83.8809 584.812 83.8166C584.844 93.011 584.944 102.205 585.111 111.398C576.242 111.404 565.953 111.142 557.211 111.428C557.365 102.211 557.366 92.9916 557.216 83.7743Z"/><path fill="#FAFAFA" d="M668.666 83.8788C677.791 83.846 687.059 83.7286 696.17 83.831L696.224 111.502C687.787 111.089 677.105 111.376 668.586 111.476C668.602 102.311 668.541 93.032 668.666 83.8788Z"/><path fill="#FAFAFA" d="M863.241 111.481C872.457 111.643 881.675 111.663 890.892 111.541L890.97 139.101C881.752 139.292 872.53 139.303 863.312 139.134C863.155 129.917 863.131 120.699 863.241 111.481Z"/><path fill="#FAFAFA" d="M612.887 83.7845C622.109 83.7911 631.331 83.8544 640.553 83.9744C640.555 92.8277 640.332 102.724 640.605 111.488C632.889 111.026 621.054 111.394 613.02 111.383L612.887 83.7845Z"/><path fill="#FAFAFA" d="M222.856 334.97C222.69 343.39 223.259 354.911 222.433 362.784L195.34 362.784C195.176 353.542 195.076 344.299 195.039 335.056L222.856 334.97Z"/><path fill="#FAFAFA" d="M668.626 28.1499C677.712 27.9882 687.133 28.1066 696.247 28.099L696.158 55.7761C688.195 55.7782 676.339 55.4259 668.56 55.9036L668.626 28.1499Z"/><path fill="#FAFAFA" d="M696.224 111.502C705.497 111.577 714.771 111.577 724.044 111.5L724.044 139.113C714.72 139.376 705.647 139.26 696.317 139.155L696.224 111.502Z"/><path fill="#FAFAFA" d="M139.293 390.875C148.156 390.548 158.212 390.781 167.163 390.794L167.109 418.516C176.411 418.485 185.712 418.527 195.013 418.642L195.013 446.466C204.229 446.356 213.596 446.449 222.826 446.456C222.864 450.669 223.418 471.578 222.158 474.22L195.263 474.224L195.141 446.353C185.843 446.394 176.546 446.378 167.248 446.303L167.114 418.418C157.757 418.359 148.812 418.862 139.433 418.27L139.293 390.875Z"/><path fill="#FAFAFA" d="M222.779 363.053C232.06 362.894 241.343 362.919 250.623 363.127L250.886 390.828C259.832 390.573 269.584 390.738 278.593 390.713C278.521 394.9 279.456 416.129 277.853 418.305C268.858 418.6 259.856 418.609 250.86 418.332C250.132 410.531 250.625 398.623 250.776 390.685C241.485 390.797 232.194 390.789 222.904 390.661C222.692 381.607 222.803 372.139 222.779 363.053Z"/><path fill="#FAFAFA" d="M473.472 223.39C482.746 223.313 492.021 223.31 501.295 223.38L501.399 251.16C492.178 251.177 482.603 251.321 473.416 251.033C473.702 260.632 473.534 269.528 473.32 279.143L445.854 279.159C445.803 269.978 445.674 260.682 445.738 251.51C448.242 250.712 469.325 251.087 473.429 251.101C473.432 242.03 473.27 232.416 473.472 223.39Z"/><path fill="#FAFAFA" d="M556.849 223.349C557.488 231.202 557.198 242.978 557.216 251.15C548.384 250.85 538.16 251.089 529.217 251.077C529.036 260.318 529.223 269.869 529.291 279.135C520.007 279.169 510.722 279.15 501.438 279.078C501.132 270.081 501.357 260.224 501.399 251.16C510.681 251.103 519.964 251.114 529.247 251.193L529.329 223.322L556.849 223.349Z"/><path fill="#FAFAFA" d="M278.717 530.303L306.617 530.326C306.609 539.218 306.841 549.393 306.508 558.18C297.202 558.3 287.895 558.291 278.589 558.154L278.59 585.992L250.894 585.902C250.405 576.725 250.355 567.53 250.746 558.348C259.981 558.262 269.508 558.057 278.719 558.199C278.552 548.901 278.551 539.601 278.717 530.303Z"/><path fill="#FAFAFA" d="M222.898 530.233L250.641 530.326L250.627 558.016C241.217 558.32 232.205 558.244 222.785 558.152C222.811 567.316 222.695 576.864 222.882 585.994C213.712 585.919 204.541 585.891 195.371 585.909C195.042 576.989 195.21 567.377 195.217 558.398L222.899 558.203C222.648 549.044 222.843 539.429 222.898 530.233Z"/><path fill="#FAFAFA" d="M222.846 474.348C231.985 474.189 241.444 474.34 250.608 474.372C250.695 483.713 250.704 493.056 250.633 502.398L278.542 502.402C278.556 510.405 279.031 522.659 278.417 530.181L250.94 530.171C250.403 520.811 250.37 511.43 250.841 502.067C242.023 502.613 231.673 502.475 222.857 502.088L222.846 474.348Z"/><path fill="#FAFAFA" d="M167.185 83.8074C176.518 83.8702 185.851 83.8808 195.184 83.8394L195.038 111.698C203.698 111.653 214.343 111.868 222.898 111.443C222.413 119.57 222.785 130.816 222.826 139.169C213.796 139.352 204.302 139.181 195.236 139.152L195.17 111.387L167.196 111.449C167.281 102.235 167.278 93.0211 167.185 83.8074Z"/><path fill="#FAFAFA" d="M362.216 446.491C371.483 446.408 380.75 446.396 390.016 446.453C390.109 455.773 390.102 465.094 389.996 474.413C392.251 474.401 397.826 474.266 399.832 474.703C397.5 475.351 393.229 475.15 390.65 475.148L390.65 491.987C390.678 494.783 390.567 497.55 390.481 500.343C389.811 497.391 390.088 478.528 390.101 474.187C380.848 474.396 371.592 474.404 362.338 474.213C362.229 464.973 362.189 455.732 362.216 446.491Z"/><path fill="#FAFAFA" d="M557.165 279.199C556.823 287.145 557.119 297.408 557.093 305.538C558.49 307.352 558.226 306.824 560.751 307.765L558.744 307.993C557.705 309.484 557.646 311.861 557.41 313.747L557.296 307.131L538.981 307.152L529.227 307.251L529.268 279.293C538.567 279.341 547.866 279.31 557.165 279.199Z"/><path fill="#FAFAFA" d="M195.238 530.24C194.913 539.078 195.245 548.988 195.067 558.094C185.811 558.36 176.548 558.308 167.295 557.939C167.153 548.81 167.235 539.463 167.214 530.315L195.238 530.24Z"/><path fill="#FAFAFA" d="M585.011 223.393C594.309 223.296 603.609 223.281 612.907 223.349C612.906 232.242 612.665 242.347 612.961 251.14C603.658 251.2 594.355 251.185 585.053 251.095C584.813 241.863 584.799 232.626 585.011 223.393Z"/><path fill="#FAFAFA" d="M334.358 251.136L362.272 251.162L362.159 279.151L334.464 279.168L334.358 251.136Z"/><path fill="#FAFAFA" d="M835.375 251.178C844.505 251.143 853.966 250.977 863.067 251.103C863.532 259.895 863.322 270.257 863.265 279.156L835.585 279.09C835.144 269.866 835.316 260.428 835.375 251.178Z"/><path fill="#FAFAFA" d="M306.642 585.974C306.68 595.268 306.624 604.563 306.473 613.857L278.795 613.995C278.397 605.072 278.594 595.005 278.59 585.992C287.94 586.046 297.291 586.04 306.642 585.974Z"/><path fill="#FAFAFA" d="M250.857 335.064L278.624 335.049C278.639 342.866 278.987 355.411 278.332 362.864C269.165 362.92 259.997 362.93 250.83 362.894C250.252 354.044 250.469 343.927 250.857 335.064Z"/><path fill="#FAFAFA" d="M306.558 223.433C315.821 223.331 325.085 223.301 334.348 223.344C334.385 232.328 334.626 242.224 334.358 251.136C325.114 251.178 315.871 251.152 306.627 251.059C306.197 241.563 306.425 232.931 306.558 223.433Z"/><path fill="#FAFAFA" d="M640.65 223.341C649.943 223.255 659.237 223.26 668.53 223.356C668.593 232.664 668.667 241.714 668.361 251.014C659.223 251.218 650.08 251.197 640.943 250.952C640.078 244.567 640.568 230.453 640.65 223.341Z"/><path fill="#FAFAFA" d="M974.632 223.439C983.847 223.216 993.066 223.159 1002.28 223.268C1002.45 232.518 1002.43 241.77 1002.22 251.018C993.016 251.245 983.806 251.264 974.599 251.075C974.125 242.215 974.423 232.301 974.632 223.439Z"/><path fill="#FAFAFA" d="M807.592 223.418C816.747 223.35 826.315 223.145 835.433 223.352C835.447 232.311 835.677 242.302 835.375 251.178L807.555 251.185C807.55 241.962 807.472 232.63 807.592 223.418Z"/><path fill="#FAFAFA" d="M752.01 223.378C761.254 223.154 770.737 223.336 780.005 223.415L779.991 251.053C770.786 251.204 761.58 251.228 752.375 251.128C751.704 242.337 751.973 232.297 752.01 223.378Z"/><path fill="#FAFAFA" d="M557.216 251.15C566.444 251.12 575.671 251.142 584.899 251.216C585.019 260.532 585.032 269.848 584.937 279.164L557.165 279.199C557.368 269.851 557.385 260.499 557.216 251.15Z"/><path fill="#FAFAFA" d="M362.278 279.303L390.039 279.203L390.011 307.158C380.779 307.243 371.547 307.227 362.315 307.109C362.227 298.127 361.935 288.203 362.278 279.303Z"/><path fill="#FAFAFA" d="M139.303 56.1762C148.465 55.6995 157.929 55.8497 167.127 55.881L167.185 83.8074C157.89 83.6765 148.594 83.6363 139.299 83.6869L139.303 56.1762Z"/><path fill="#FAFAFA" d="M612.961 251.14L640.552 251.15C640.558 260.389 640.679 269.907 640.44 279.12C631.294 279.242 622.148 279.23 613.002 279.083C612.843 269.77 612.829 260.454 612.961 251.14Z"/><path fill="#FAFAFA" d="M306.564 558.245L334.34 558.344C334.369 567.532 334.457 576.792 334.371 585.973L306.642 585.974C306.178 576.971 306.325 567.284 306.564 558.245Z"/><path fill="#FAFAFA" d="M317.942 390.957C322.522 390.498 329.627 390.721 334.408 390.732L334.359 418.504L322.378 418.504C317.08 418.543 311.782 418.485 306.485 418.328C306.422 409.206 306.463 400.084 306.608 390.963L317.942 390.957Z"/><path fill="#FAFAFA" d="M780.078 474.452C789.244 474.307 798.411 474.272 807.578 474.348C807.609 480.663 807.897 496.316 807.001 502.134C797.954 502.604 789.272 502.078 780.393 502.438L781.509 502.545L780.373 502.215L780.566 502.632L780.074 502.552C779.856 493.187 779.858 483.817 780.078 474.452Z"/><path fill="#FAFAFA" d="M222.882 585.994L250.662 586.072L250.613 613.92L222.928 613.917C222.776 604.611 222.761 595.302 222.882 585.994Z"/><path fill="#FAFAFA" d="M250.671 614.135C259.975 613.949 269.281 613.947 278.585 614.129L278.517 641.645C269.282 641.734 260.046 641.713 250.811 641.582C250.329 632.728 250.589 623.07 250.671 614.135Z"/><path fill="#FAFAFA" d="M139.292 558.337C148.566 558.256 157.841 558.263 167.115 558.357C167.161 562.52 167.829 584.116 166.438 585.916C157.46 586.035 148.285 585.932 139.291 585.928C139.416 576.731 139.417 567.534 139.292 558.337Z"/><path fill="#FAFAFA" d="M279.116 474.491C288.227 474.273 297.341 474.263 306.452 474.462L306.452 502.045C297.568 502.591 287.737 502.388 278.754 502.371C278.492 494.91 278.254 481.649 279.116 474.491Z"/><path fill="#FAFAFA" d="M139.387 335.049L167.131 335.031C167.238 344.225 167.135 353.577 167.12 362.784L139.295 362.784L139.387 335.049Z"/><path fill="#FAFAFA" d="M890.979 251.173L918.695 251.207L918.608 279.098C909.591 279.307 900.103 279.176 891.049 279.19C890.934 269.851 890.911 260.512 890.979 251.173Z"/><path fill="#FAFAFA" d="M390.079 251.357L417.892 251.357L417.892 279.172C408.608 279.098 399.323 279.109 390.039 279.203L390.079 251.357Z"/><path fill="#FAFAFA" d="M585.063 167.471L612.89 167.471C612.873 176.498 612.662 186.345 612.932 195.306L585.063 195.203L585.063 167.471Z"/><path fill="#FAFAFA" d="M878.501 223.181L890.887 223.422C891.013 232.654 891.024 241.887 890.919 251.119L877.126 251.155L863.231 251.117C862.813 243.035 863.194 231.639 863.237 223.366C868.326 223.335 873.414 223.273 878.501 223.181Z"/><path fill="#FAFAFA" d="M111.462 530.244L139.277 530.325C139.167 539.409 139.338 549.227 139.074 558.189C129.992 558.221 120.58 558.384 111.543 557.849C111.454 549.061 111.754 538.794 111.462 530.244Z"/><path fill="#FAFAFA" d="M111.407 474.396C120.658 474.219 129.911 474.218 139.162 474.392L139.221 502.114C130.84 502.652 119.744 502.466 111.334 502.176L111.407 474.396Z"/><path fill="#FAFAFA" d="M807.555 251.185C807.546 260.25 807.718 270.142 807.283 279.13L780.111 279.156C779.741 269.995 779.904 260.554 780.021 251.386C788.838 250.964 798.655 251.17 807.555 251.185Z"/><path fill="#FAFAFA" d="M612.847 641.682C622.108 641.793 631.37 641.83 640.631 641.793C640.591 650.923 640.676 660.351 640.49 669.454C631.446 669.543 622.402 669.575 613.357 669.549C612.807 660.275 612.873 650.974 612.847 641.682Z"/><path fill="#FAFAFA" d="M612.932 195.306C621.888 195.465 631.752 195.551 640.69 195.33C640.633 204.491 640.506 213.745 640.559 222.898C631.37 223.205 622.175 223.26 612.983 223.064L612.932 195.306Z"/><path fill="#FAFAFA" d="M375.043 335.237C378.231 334.816 386.457 335.022 390.019 335.021L390.022 362.784L377.486 362.784L362.244 362.784C362.2 353.604 362.224 344.423 362.316 335.243L375.043 335.237Z"/><path fill="#FAFAFA" d="M167.253 474.408C176.506 474.35 185.76 474.369 195.013 474.465L195.013 502.082C186.497 502.574 175.708 502.535 167.194 502.154L167.253 474.408Z"/><path fill="#FAFAFA" d="M362.327 223.377C371.411 223.229 380.497 223.203 389.582 223.297C390.395 230.894 390.05 242.995 390.026 251.047C380.927 251.336 371.453 251.141 362.317 251.072L362.327 223.377Z"/><path fill="#FAFAFA" d="M111.384 139.551C120.934 139.426 129.461 139.217 139.019 139.613C139.181 148.78 139.196 157.95 139.065 167.117L111.402 167.212L111.384 139.551Z"/><path fill="#FAFAFA" d="M835.496 474.432C844.676 474.298 853.857 474.277 863.037 474.372C862.958 483.33 863.603 493.398 863.084 502.119C854.042 502.629 844.57 502.341 835.496 502.192L835.496 474.432Z"/><path fill="#FAFAFA" d="M83.4264 502.402L111.32 502.402C111.359 511.306 111.152 521.451 111.462 530.244L83.5041 530.176C83.3701 520.919 83.3442 511.66 83.4264 502.402Z"/><path fill="#FAFAFA" d="M529.344 614.111C538.587 614.026 547.832 614.035 557.076 614.14C557.189 623.303 557.194 632.467 557.091 641.63L529.403 641.621C529.204 632.666 529.358 623.115 529.344 614.111Z"/><path fill="#FAFAFA" d="M167.196 111.449L167.117 139.14C157.999 139.319 148.514 139.176 139.367 139.16L139.318 111.601C148.611 111.644 157.904 111.593 167.196 111.449Z"/><path fill="#FAFAFA" d="M584.88 614.05L612.638 613.973C612.962 623.143 612.477 632.733 612.847 641.682L585.023 641.519C584.897 632.363 584.85 623.207 584.88 614.05Z"/><path fill="#FAFAFA" d="M557.313 195.432C566.485 195.355 575.657 195.333 584.829 195.363C585.015 204.43 584.873 213.948 584.876 223.05L557.284 222.983L557.313 195.432Z"/><path fill="#FAFAFA" d="M222.855 83.9002C232.126 83.8436 241.398 83.8475 250.67 83.9117C250.599 93.0556 250.586 102.2 250.633 111.344C241.425 111.36 232.094 111.298 222.898 111.443L222.855 83.9002Z"/><path fill="#FAFAFA" d="M362.396 502.454L390.009 502.402C390.137 511.68 390.107 520.959 389.92 530.235L362.397 530.211L362.396 502.454Z"/><path fill="#FAFAFA" d="M55.7197 334.931L83.2734 334.931L83.2734 362.484L55.7197 362.484L55.7197 334.931Z"/><path fill="#FAFAFA" d="M111.395 83.8937L139.095 83.8893L138.975 111.359L111.457 111.366L111.395 83.8937Z"/><path fill="#FAFAFA" d="M195.151 502.402L222.784 502.402C222.772 511.457 222.585 521.24 222.898 530.233C213.858 530.073 204.319 530.236 195.238 530.24L195.151 502.402Z"/><path fill="#FAFAFA" d="M83.5857 167.471L111.127 167.471L111.127 195.013C102.028 194.938 92.9028 195.325 83.5857 195.222L83.5857 167.471Z"/><path fill="#003F56" d="M504.515 678.585C511.806 679.077 518.555 679.157 525.883 680.025C559.447 684.001 581.718 695.279 609.832 712.616C615.218 716.751 622.143 720.732 627.839 724.513C652.385 740.81 678.358 754.787 708.537 755.552C720.618 756.451 740.073 747.489 743.14 765.358C746.159 783.17 717.345 780.641 706.438 780.692C638.991 781.011 599.172 721.792 536.625 707.895C520.324 704.273 503.511 703.564 486.963 705.802C444.925 711.396 419.309 732.893 385.466 755.195C359.037 771.97 330.136 782.787 298.818 785.394C289.798 786.145 276.886 787.531 275.36 775.115C273.284 758.23 292.612 760.117 303.779 758.867C316.219 757.404 328.418 754.338 340.071 749.744C358.315 742.521 374.024 732.53 389.735 721.318C419.355 700.18 448.478 684.815 485.119 679.984C491.842 679.098 497.952 679.312 504.515 678.585Z"/><path fill="#003F56" d="M501.147 789.288C510.795 789.432 519.812 790.01 529.344 791.63C567.355 799.114 587.592 814.229 619.74 832.861C652.97 852.007 690.781 858.684 728.516 851.484C736.879 849.888 746.565 852.949 748.397 862.464C748.915 865.151 747.654 868.206 745.961 870.532C739.978 878.751 726.439 877.341 717.354 878.995C669.079 884.107 629.017 870.479 589.009 844.551C571.467 833.184 550.846 822.745 530.216 818.11C498.594 811.005 466.255 816.621 438.295 832.932C426.033 840.085 414.452 848.17 401.97 854.961C384.43 864.502 364.249 872.154 344.496 875.039C336.071 875.595 323.802 879.314 316.467 874.065C310.938 870.108 310.31 860.399 314.866 855.795C322.01 848.574 337.844 851.496 347.311 848.645C353.036 846.92 359.293 845.738 364.965 843.613C381.378 837.874 396.427 829.146 410.909 819.698C439.845 800.822 466.069 790.121 501.147 789.288Z"/><path fill="#003F56" d="M943.705 754.391C965.706 754.5 981.408 757.496 1001.82 765.925C1015.75 772.244 1029.05 779.822 1043.3 785.296C1047.2 787.21 1060.97 786.4 1063.7 789.16C1077.69 803.3 1065.74 814.358 1049.62 812.229C1026.12 809.127 1011.14 797.342 990.883 789.211C981.035 785.268 970.754 782.507 960.256 780.987C901.494 773.062 870.741 814.331 816.029 820.466C806.932 820.736 791.069 823.864 783.523 817.942C778.117 813.698 778.389 803.901 783.136 799.423C788.778 794.1 801.73 796.225 809.496 795.487C815.069 794.94 820.594 793.984 826.026 792.626C842.654 788.613 855.748 782.104 870.899 774.63C895.578 762.456 915.902 755.54 943.705 754.391Z"/></svg>