<?xml version="1.0" encoding="utf-8" ?><svg xmlns="http://www.w3.org/2000/svg" xmlns:xlink="http://www.w3.org/1999/xlink" width="1254" height="1254" viewBox="0 0 1254 1254"><path fill="#F4F4F4" d="M0 0L30.0534 0L60.7863 0L91.6351 0L122.193 0L152.845 0L183.52 0L213.946 0L244.41 0L274.975 0L305.713 0L336.146 0L366.781 0L397.499 0L428.049 0L458.733 0L489.298 0L519.93 0L550.448 0L581.019 0L611.502 0L641.931 0L672.747 0L703.374 0L733.788 0L764.569 0L795.3 0L825.888 0L856.159 0L886.733 0L917.368 0L947.859 0L1040.04 0L1070.61 0L1101.45 0L1131.68 0L1162.26 0L1192.93 0L1223.48 0L1254 0L1254 30.7653L1254 61.2989L1254 92.3188L1254 122.802L1254 153.219L1254 184.159L1254 214.538L1254 245.162L1254 275.784L1254 428.549L1254 459.038L1254 489.727L1254 520.38L1254 550.898L1254 581.358L1254 612.204L1254 642.45L1254 673.176L1254 703.684L1254 734.305L1254 764.849L1254 795.388L1254 826.081L1254 856.544L1254 887.239L1254 917.735L1254 948.332L1254 1040.27L1254 1070.56L1254 1100.98L1254 1131.85L1254 1162.16L1254 1192.87L1254 1223.32L1254 1254L1223.4 1254L1193.06 1254L1162.29 1254L1131.69 1254L1101.22 1254L1070.61 1254L1039.95 1254L947.89 1254L917.413 1254L886.705 1254L856.24 1254L825.916 1254L795.21 1254L764.392 1254L733.585 1254L703.266 1254L672.792 1254L641.853 1254L611.531 1254L580.975 1254L550.408 1254L519.954 1254L489.243 1254L458.71 1254L428.138 1254L397.543 1254L366.75 1254L336.206 1254L305.566 1254L274.971 1254L244.338 1254L214.02 1254L183.181 1254L152.78 1254L122.21 1254L91.5046 1254L60.6337 1254L30.0766 1254L0 1254L0 1223.25L0 1192.96L0 1162.2L0 1131.71L0 1100.98L0 1070.62L0 1040.02L0 948.345L0 917.75L0 887.201L0 856.548L0 826.141L0 795.424L0 764.997L0 734.401L0 703.704L0 673.171L0 642.509L0 612.34L0 489.544L0 459.137L0 428.494L0 397.993L0 367.323L0 336.901L0 306.184L0 275.604L0 245.222L0 214.445L0 184.082L0 153.255L0 122.877L0 92.0163L0 61.266L0 30.7783L0 0Z"/><path fill="#FCFBFB" d="M947.859 0L1040.04 0L1070.61 0L1101.45 0L1131.68 0L1162.26 0L1192.93 0L1223.48 0L1254 0L1254 30.7653L1254 61.2989L1254 92.3188L1254 122.802L1254 153.219L1254 184.159L1254 214.538L1254 245.162L1254 275.784L1254 428.549L1254 459.038L1254 489.727L1254 520.38L1254 550.898L1254 581.358L1254 612.204L1254 642.45L1254 673.176L1254 703.684L1254 734.305L1254 764.849L1254 795.388L1254 826.081L1254 856.544L1254 887.239L1254 917.735L1254 948.332L1254 1040.27L1254 1070.56L1254 1100.98L1254 1131.85L1254 1162.16L1254 1192.87L1254 1223.32L1254 1254L1223.4 1254L1193.06 1254L1162.29 1254L1131.69 1254L1101.22 1254L1070.61 1254L1039.95 1254L947.89 1254L917.413 1254L886.705 1254L856.24 1254L825.916 1254L795.21 1254L764.392 1254L733.585 1254L703.266 1254L672.792 1254L641.853 1254L611.531 1254L580.975 1254L550.408 1254L519.954 1254L489.243 1254L458.71 1254L428.138 1254L397.543 1254L366.75 1254L336.206 1254L305.566 1254L274.971 1254L244.338 1254L214.02 1254L183.181 1254L152.78 1254L122.21 1254L91.5046 1254L60.6337 1254L30.0766 1254L0 1254L0 1223.25L0 1192.96L0 1162.2L0 1131.71L0 1100.98L0 1070.62L0 1040.02L0 948.345L0 917.75L0 887.201L0 856.548L0 826.141C9.38642 826.087 20.9849 826.465 30.066 826.101L30.1009 856.54C40.2813 856.675 50.4629 856.716 60.6441 856.663L60.7816 887.096C51.3813 887.108 39.2476 886.761 30.0758 887.209C30.1056 896.76 30.482 908.374 30.0742 917.752C40.0196 918.015 50.7527 917.802 60.7565 917.783C60.4046 927.068 60.8874 938.919 60.9304 948.438L91.5586 948.393C91.2793 938.515 91.4956 927.624 91.486 917.668L61.0398 917.697C60.3676 908.653 60.7488 896.38 60.9245 887.28L91.5698 887.27C91.2931 877.149 91.4641 866.541 91.484 856.381C81.3723 856.667 70.9197 856.504 60.7766 856.468C60.6046 846.525 60.7894 836.23 60.8444 826.259L91.6046 826.153L91.5407 856.649L122.149 856.649L122.149 826.147L152.765 826.163L152.764 795.367C142.579 795.467 132.393 795.467 122.207 795.368C122.36 785.373 122.174 775.056 122.113 765.036C132.346 765.078 142.58 765.048 152.813 764.946C152.895 775.118 152.892 785.29 152.806 795.462L183.422 795.486C183.433 805.635 183.373 815.785 183.242 825.933C173.092 826.019 162.941 826.027 152.79 825.957L152.894 856.7L183.242 856.625L183.201 887.154L152.774 887.109L152.841 917.843C162.855 917.776 173.424 917.873 183.391 917.551L183.391 948.521L213.812 948.429C213.752 958.692 214.067 968.938 214.007 979.071L244.487 979.049C244.396 968.851 244.41 958.653 244.528 948.456C253.318 948.464 266.529 948.885 274.962 948.314L274.907 917.763C266.087 917.284 253.615 917.659 244.501 917.675C244.294 907.689 244.421 897.243 244.394 887.221C254.59 887.309 264.786 887.301 274.981 887.196C274.892 877.019 274.897 866.841 274.998 856.663L305.649 856.653L305.59 887.223C315.498 887.476 326.289 887.274 336.269 887.286L336.22 856.594C345.083 856.636 358.117 857.056 366.779 856.528C366.794 866.731 366.904 877.085 366.774 887.273L397.523 887.259C397.721 897.593 397.394 907.522 397.428 917.768L428.207 917.824C428.054 928.01 427.998 938.197 428.039 948.383L458.7 948.439C458.664 958.564 458.762 968.998 458.578 979.094C468.569 979.033 479.347 978.778 489.271 979.079C489.252 982.608 488.899 1005.99 489.727 1007.37C489.821 998.143 489.859 988.915 489.844 979.687L519.234 979.687C519.24 984.634 518.929 1003.08 519.507 1006.96C520.432 1000.21 520 986.133 519.96 978.779C509.795 978.962 499.627 978.964 489.462 978.787C489.282 968.688 489.235 958.588 489.321 948.489C499.481 948.497 509.641 948.454 519.801 948.359L519.826 979.043L550.57 979.011L550.379 948.364L580.983 948.474L580.934 979.072C591.181 978.991 601.428 979.007 611.674 979.122C611.375 968.91 611.323 958.692 611.519 948.477L642.002 948.408C642.023 938.658 641.928 928.908 641.72 919.16C651.825 918.589 661.905 917.634 671.939 916.299C673.335 923.028 672.786 941.194 672.695 948.443L703.238 948.386C703.271 958.272 703.551 969.303 703.259 979.096L734.126 979.019C733.864 969.373 733.477 958.101 733.994 948.454L764.464 948.452L764.457 917.391C770.523 918.298 788.098 917.755 795.072 917.657L795.072 948.148C784.87 948.131 774.669 948.178 764.469 948.287C764.527 958.56 764.523 968.833 764.457 979.105C774.639 978.99 785.181 978.719 795.345 978.763L795.291 948.465C805.541 948.391 815.792 948.387 826.042 948.453L825.976 917.838C835.552 917.803 846.821 918.046 856.302 917.674L856.302 887.268L886.687 887.273C886.692 897.243 886.517 907.785 886.731 917.706C896.649 918.088 907.55 917.862 917.545 917.842L917.545 948.431L947.848 948.463C947.93 958.669 947.932 968.875 947.854 979.081L978.668 979.036C978.468 968.751 978.451 958.464 978.618 948.178C968.438 948.358 958.255 948.351 948.075 948.156C947.888 938.018 947.858 927.878 947.984 917.74C957.387 918.081 968.92 917.572 978.577 917.532C978.331 907.694 978.535 897.021 978.533 887.117L948.112 887.134C947.752 877.183 947.974 866.51 948.017 856.498L917.435 856.476C917.142 846.672 917.326 835.93 917.292 826.043C926.808 826.397 938.209 826.119 947.879 826.118C947.877 835.992 947.668 846.853 948.136 856.636L978.626 856.615C978.268 846.882 978.53 835.774 978.542 825.939L948.062 825.981C947.94 815.764 947.914 805.547 947.984 795.329C937.868 795.442 927.752 795.431 917.637 795.296C917.151 785.733 917.386 774.829 917.393 765.157C927.223 765.363 938.119 765.009 948.026 764.89L947.961 734.17C938.368 734.657 927.257 734.405 917.545 734.399L917.545 703.85L947.984 703.85C947.826 713.923 947.932 724.26 947.919 734.354L978.604 734.397C978.468 724.214 978.453 714.03 978.56 703.847C968.457 703.931 958.353 703.929 948.25 703.84C948.124 697.76 948.697 678.537 947.102 673.545C945.695 673.165 945.134 673.156 943.675 673.057C945.304 672.999 946.451 673.188 947.661 672.182C948.585 665.028 947.346 652.307 948.104 644.023L948.16 673.121C958.345 673.01 968.531 673.05 978.715 673.241C978.449 663.211 978.642 653.469 978.765 643.46C978.78 642.223 978.953 642.746 977.998 641.799C973.227 643.493 954.32 642.574 948.16 642.405L948.16 612.114C958.317 611.883 968.478 611.844 978.636 611.996C978.358 602.024 978.534 591.411 978.539 581.389L948.16 581.389C948.212 574.076 947.498 557.356 948.276 551.076L1009.08 551.074C1009.04 553.425 1009.1 554.953 1009.3 557.297L1009.4 551.386C1015.09 551.339 1035.46 552.412 1038.58 550.468C1041.51 546.724 1040.03 526.068 1040.06 520.397L1070.64 520.433C1070.38 510.366 1070.56 499.843 1070.58 489.739C1059.42 489.776 1047.01 489.169 1036.03 489.721L1039.08 489.949C1030.14 490.774 1018.85 490.474 1009.69 490.456C1009.74 493.078 1009.69 494.598 1009.44 497.209C1008.77 495.62 1009 491.615 1009 489.688L978.643 489.731C978.466 479.529 978.456 469.325 978.613 459.122C968.573 459.273 958.225 459.142 948.16 459.139L948.16 428.926C956.587 428.934 970.856 429.395 978.647 428.532C978.349 418.502 978.546 408.008 978.598 397.937L948.16 397.935L948.16 367.695C957.412 367.695 969.625 368.091 978.606 367.322C978.423 357.256 978.573 346.795 978.582 336.699C968.424 336.888 958.264 336.886 948.106 336.692C947.805 326.638 947.983 316.371 948.054 306.296L978.656 306.294C978.575 301.954 979.061 278.96 978.371 276.814C977.572 276.088 977.031 275.423 975.809 275.483C966.574 275.94 957.66 275.885 948.418 275.59C947.55 267.231 947.876 253.801 947.881 245.193L978.612 245.19C978.507 234.917 978.505 224.644 978.605 214.372L947.984 214.392C947.901 204.262 947.907 194.131 948.002 184L917.537 184.002C917.208 173.884 917.386 163.53 917.452 153.388L948.101 153.388L947.918 183.991L978.55 183.992C978.427 173.769 978.542 163.319 978.542 153.077C968.416 153.287 958.286 153.289 948.16 153.084L948.16 122.762L978.673 122.761C978.348 112.786 978.54 102.174 978.563 92.1471L948.139 92.158C948.006 81.8788 947.944 71.5988 947.954 61.3188C957.301 61.7984 969.143 61.4041 978.678 61.3338C978.394 51.3491 978.574 40.9486 978.617 30.9275L948.23 30.9243C947.602 21.5933 947.911 9.57433 947.859 0Z"/><path fill="#003660" d="M489.773 357.263C499.117 352.808 524.967 339.116 534.553 342.386C538.057 343.62 540.903 346.235 542.429 349.623C543.933 352.912 543.977 356.684 542.55 360.007C538.936 368.414 528.018 369.546 520.316 372.954C497.076 383.429 475.575 395.617 456.097 412.239C450.319 417.049 444.754 421.671 439.623 427.213C434.623 431.948 430.465 436.281 426.102 441.635C421.642 446.554 417.178 451.791 413.432 457.282C407.825 463.444 401.28 474.18 396.895 481.549C369.313 527.896 356.141 580.957 357.878 634.657C359.678 690.311 382.487 753.631 418.958 796.134C421.425 799.1 423.932 802.255 426.604 805.017C452.327 834.059 483.975 857.252 519.416 873.033C548.724 886.063 580.181 893.585 612.214 895.225C654.132 896.723 695.832 890.831 734.152 872.947C756.175 863.107 784.623 845.937 802.276 829.291C821.196 814.978 843.249 785.568 855.921 765.5C857.493 763.034 858.186 761.934 859.329 759.263C861.233 756.544 862.948 753.205 864.542 750.25C895.735 692.413 904.633 613.018 885.234 549.956C882.764 539.718 878.775 529.447 875.122 519.554C860.634 485.435 840.693 452.849 813.581 427.273C808.335 421.825 802.715 416.749 796.762 412.082C781.294 397.463 758.656 385.371 739.767 375.803C732.991 372.371 725.204 370.389 718.738 366.406C712.378 362.404 711.271 351.675 716.762 346.403C725.658 337.862 738.083 345.325 747.34 349.421C785.969 366.77 820.265 392.477 847.755 424.687C900.77 486.582 926.622 567.219 919.476 648.4C915.507 697.909 899.076 745.608 871.711 787.057C867.109 794.032 859.894 804.392 854.447 810.701L842.558 824.65C833.355 833.545 825.187 842.268 815.306 850.607C774.413 885.186 724.83 907.905 671.939 916.299C661.905 917.634 651.825 918.589 641.72 919.16C577.713 922.691 514.343 904.89 461.537 868.546C392.835 821.335 351.653 753.767 336.548 672.426C334.941 662.316 334.027 652.809 333.11 642.625C331.42 606.334 334.377 569.42 345.434 534.657C346.895 530.063 348.357 525.471 349.834 520.882C359.373 496.187 365.747 482.964 379.371 460.002C410.22 413.478 440.847 384.177 489.773 357.263Z"/><path fill="#FCFBFB" d="M0 336.901L30.0589 336.977C30.211 347.113 30.2366 357.252 30.1357 367.389C40.3097 367.52 50.4848 367.532 60.659 367.425C60.6916 377.499 60.5754 387.992 60.8145 398.03C50.981 397.769 40.0706 398.004 30.1496 398.001C30.1195 408.157 30.2514 418.449 30.1408 428.578C40.3452 428.757 50.5516 428.788 60.7569 428.671C60.7333 438.29 60.4658 449.54 60.8226 459.071C70.8459 459.418 81.5183 459.238 91.5951 459.228C91.5344 469.116 91.6822 479.857 91.3529 489.672L122.161 489.674C122.148 479.816 122.351 468.907 121.95 459.138L152.793 459.112C152.709 448.945 152.703 438.777 152.776 428.61L183.379 428.489L183.308 459.191C193.536 458.963 203.767 458.965 213.994 459.196C213.991 469.305 213.873 479.641 214.014 489.729L244.642 489.735L244.513 520.213L274.977 520.233L275.036 550.996C285.304 550.909 295.572 550.901 305.84 550.971L305.84 581.377C275.829 581.361 243.944 581.639 214.119 581.281C213.407 572.819 213.738 559.868 213.792 551.058L183.265 550.981C183.38 561 183.606 571.225 183.379 581.225C173.179 581.405 162.977 581.431 152.776 581.303C152.724 574.109 152.219 557.364 153.142 551.002C149.89 551.017 124.247 551.313 122.114 550.825C122.183 560.522 122.582 571.634 122.397 581.232C112.11 581.41 101.821 581.433 91.5334 581.3C91.6871 591.524 91.6871 601.75 91.5334 611.975C81.2956 612.285 71.0516 612.341 60.8109 612.141L60.8855 642.567C50.7568 642.702 40.0776 643.022 30.0136 642.455L30.0071 612.105C20.0053 612.244 10.0027 612.322 0 612.34L0 489.544L0 459.137L0 428.494L0 397.993L0 367.323L0 336.901Z"/><path fill="#FCFBFB" d="M489.338 214.897C499.498 214.583 509.663 214.538 519.825 214.761L519.86 245.177L550.524 245.179L550.345 214.616C560.299 214.642 570.86 214.848 580.765 214.636L580.765 244.976C570.847 245.056 560.324 245.31 550.458 245.033L550.298 275.849C560.567 275.696 570.837 275.702 581.106 275.867C580.902 265.672 580.864 255.475 580.994 245.28L611.38 245.234L611.38 275.391C604.229 276.326 588.881 275.868 580.965 275.849L580.98 306.183C590.946 306.656 601.366 306.488 611.38 306.465C611.383 311.202 611.729 314.07 612.05 318.648C612.384 323.415 611.31 325.071 612.1 330.428C612.598 327.752 612.148 323.555 612.575 322.241C613.445 343.008 612.5 365.12 612.528 385.977L612.665 510.214C611.557 511.516 611.998 518.076 612.02 520.147L581.034 520.147C580.95 515.502 580.234 493.391 581.245 490.472L583.147 489.569L581.959 489.09C580.93 484.045 581.923 464.915 582.549 459.515C581.266 458.952 581.871 459.331 580.754 458.342C580.782 448.4 580.866 438.459 581.006 428.518C570.832 428.434 560.658 428.474 550.485 428.637C550.36 438.818 550.337 449 550.415 459.181C540.34 459.169 529.944 459.021 519.897 459.176L519.878 489.703C509.823 489.892 499.406 489.738 489.323 489.717L489.252 459.195C479.436 458.968 468.599 459.219 458.698 459.235C458.688 468.976 458.399 480.165 458.719 489.784C449.013 489.482 437.907 489.772 428.035 489.733L428.037 459.216C423.835 459.125 416.068 459.909 413.432 457.282C417.178 451.791 421.642 446.554 426.102 441.635C430.465 436.281 434.623 431.948 439.623 427.213C444.754 421.671 450.319 417.049 456.097 412.239C475.575 395.617 497.076 383.429 520.316 372.954C528.018 369.546 538.936 368.414 542.55 360.007C543.977 356.684 543.933 352.912 542.429 349.623C540.903 346.235 538.057 343.62 534.553 342.386C524.967 339.116 499.117 352.808 489.773 357.263C488.663 354.681 489.235 341.046 489.304 337.073L519.671 336.689L519.894 306.167L489.301 306.188L489.206 336.722C479.25 337.029 468.971 336.81 458.985 336.722C458.477 326.972 458.708 316.001 458.72 306.146L428.068 306.218C428.407 296.837 428.093 285.563 428.08 276.035C438.06 275.53 448.629 275.815 458.721 275.623C458.65 265.523 458.677 255.422 458.803 245.323C469.137 245.1 478.967 244.904 489.298 245.252L489.338 214.897Z"/><path fill="#FCFBFB" d="M519.962 673.247C530.03 673.136 540.429 672.879 550.457 673.335L550.384 703.76L581.049 703.707C580.962 693.568 580.966 683.43 581.062 673.291C591.205 673.012 601.355 673.03 611.497 673.344C611.526 683.14 611.744 693.662 611.479 703.4C603.938 704.334 589.048 703.894 580.963 703.85C580.963 713.888 580.79 724.46 581.002 734.453C591.116 734.432 601.422 734.52 611.517 734.378L611.408 765.069L642.224 765.065C642.162 774.791 642.407 785.847 642.112 795.46C652.353 795.493 662.595 795.466 672.837 795.379C672.794 804.759 673.055 816.782 672.502 825.939L642.081 826.029C642.209 836.178 642.22 846.328 642.112 856.477C632.048 856.468 621.551 856.615 611.522 856.418C611.509 861.886 611.046 891.734 612.214 895.225C580.181 893.585 548.724 886.063 519.416 873.033C483.975 857.252 452.327 834.059 426.604 805.017C423.932 802.255 421.425 799.1 418.958 796.134C421.231 794.71 425.104 795.312 427.969 795.434L427.998 765.081C438.229 765.188 448.461 765.149 458.691 764.962L458.729 734.624L489.288 734.195L489.273 703.939C499.032 703.373 509.862 703.861 519.888 703.57L519.962 673.247Z"/><path fill="#FCFBFB" d="M336.155 275.619C336.069 285.318 335.817 296.595 336.158 306.204C345.892 306.26 357.193 306.539 366.795 306.214C366.704 316.4 366.7 326.587 366.781 336.773L336.224 336.793C336.046 347.002 336.027 357.214 336.168 367.424C345.424 367.482 357.769 367.868 366.787 367.318L366.79 398.036C377.042 398.082 387.293 398.073 397.545 398.01C397.541 407.768 397.285 419.047 397.834 428.67C387.502 428.538 377.168 428.512 366.835 428.592C366.74 438.813 366.732 449.036 366.809 459.258C369.976 459.211 376.728 458.77 379.371 460.002C365.747 482.964 359.373 496.187 349.834 520.882C345.825 520.205 340.449 520.348 336.267 520.32L336.223 489.625C326.246 489.833 315.806 489.692 305.793 489.703C305.348 480.104 305.608 468.943 305.618 459.223L274.968 459.21C275.03 449.014 275.016 438.818 274.929 428.622C265.987 428.11 253.574 428.451 244.492 428.46L244.358 397.983C254.568 398.05 264.777 398.053 274.987 397.99L274.953 367.391C265.479 367.027 254.146 367.299 244.523 367.274C244.381 357.195 244.377 347.114 244.513 337.035C254.591 336.785 264.806 337.142 274.983 336.901L274.958 306.208C284.652 306.274 296.049 306.572 305.668 306.222C305.577 296.144 305.593 286.066 305.715 275.989C315.178 275.509 326.513 275.776 336.155 275.619Z"/><path fill="#FCFBFB" d="M519.869 92.0436L519.816 122.664C509.653 122.932 499.487 123.013 489.321 122.907C489.307 132.892 489.471 143.449 489.245 153.385C499.448 153.263 509.652 153.261 519.854 153.378L519.842 183.99C529.882 183.97 540.559 183.771 550.548 184.027C550.441 173.762 550.394 163.497 550.408 153.231C559.684 153.671 571.672 153.327 581.155 153.329C580.96 143.214 580.912 133.097 581.01 122.981C591.182 122.88 601.355 122.848 611.527 122.886L611.436 153.158C602.507 153.193 589.665 152.789 581.081 153.431L580.969 184.004L550.453 183.992L550.39 214.435C540.237 214.484 530.084 214.453 519.932 214.342L519.856 184.086L489.544 183.992L489.195 214.203C479.827 214.938 468.266 214.638 458.699 214.619C458.585 224.678 458.679 234.907 458.676 244.981C448.453 245.24 438.226 245.266 428.001 245.058L428.061 275.644C417.975 275.9 407.884 275.913 397.798 275.683C397.114 266.806 397.506 254.538 397.596 245.39C407.757 245.114 417.922 245.023 428.086 245.115L428.03 214.619L397.766 214.619C397.248 204.828 397.486 193.893 397.51 184C387.267 184.069 377.024 184.061 366.781 183.978L366.79 214.349L336.29 214.364L336.246 184.187C346.492 183.839 356.576 183.97 366.819 184.056C366.63 173.891 366.795 163.293 366.811 153.096C356.638 153.308 346.463 153.339 336.289 153.19L336.187 123.054C346.402 122.885 356.619 122.776 366.836 122.728C366.709 112.671 366.811 102.441 366.818 92.37C376.249 92.3597 388.339 92.672 397.552 92.1045C397.384 102.248 397.715 112.796 397.426 122.761L428.043 122.761L428.027 153.287C438.241 153.336 448.566 153.257 458.762 153.397C458.75 143.425 458.574 132.942 458.796 123.011C468.75 122.882 479.39 122.565 489.287 122.799L489.347 92.3769C496.795 92.3213 513.148 92.6955 519.869 92.0436Z"/><path fill="#003660" d="M612.575 322.241C612.951 316.905 613.304 313.195 617.804 309.459C620.776 307.029 624.627 305.949 628.43 306.478C635.967 307.507 640.183 312.976 640.24 320.353C640.367 336.849 640.312 353.349 640.335 369.848L640.209 484.334L640.312 553.392C640.356 562.873 641.634 580.09 639.863 588.862C639.121 592.535 636.902 595.552 633.694 597.497C630.48 599.446 626.315 599.688 622.75 598.692C619.358 597.744 616.12 595.578 614.491 592.379C610.947 585.418 612.889 522.878 612.665 510.214L612.528 385.977C612.5 365.12 613.445 343.008 612.575 322.241Z"/><path fill="#FCFBFB" d="M764.542 795.502L795.269 795.521C795.257 799.129 794.82 824.121 796.047 825.929L798.157 825.903L798.481 826.485L796.171 826.773C795.808 828.964 796.017 830.203 796.193 832.386C797.38 832.281 800.574 829.471 801.967 828.464L802.276 829.291C784.623 845.937 756.175 863.107 734.152 872.947C734.203 868.523 734.61 861.652 733.185 857.602C730.372 855.919 708.37 856.587 703.538 856.614L703.29 795.514L733.787 795.483C733.698 803.405 734.286 819.504 733.58 826.251C743.896 826.071 754.214 826.053 764.531 826.196C764.482 833.614 764.197 846.061 765.043 853.154C765.409 848.732 765.102 828.734 765.802 826.686L767.398 826.312L765.02 825.63C763.793 822.789 764.485 799.656 764.542 795.502Z"/><path fill="#FCFBFB" d="M397.506 489.815L428.035 489.733C428.037 499.775 428.212 510.388 427.971 520.383L458.667 520.369L458.598 550.632C448.377 550.974 438.148 551.044 427.923 550.842C428.069 560.954 428.103 571.067 428.024 581.179C417.952 581.293 407.88 581.291 397.809 581.173C397.037 572.47 397.517 559.845 397.713 551.069C407.858 550.939 418.004 550.951 428.149 551.104C427.917 541.004 428.058 530.338 428.026 520.193C419.04 520.302 406.188 520.725 397.521 520.137C397.375 510.124 397.499 499.849 397.506 489.815Z"/><path fill="#FCFBFB" d="M825.95 734.375L856.389 734.276C856.261 742.118 856.449 749.961 856.951 757.788C857.488 752.493 857.217 741.15 857.227 735.378L870.15 735.378C867.842 741.469 859.712 755.208 859.329 759.263C858.186 761.934 857.493 763.034 855.921 765.5C848.035 764.753 834.606 765.24 826.076 765.114C825.945 775.234 825.971 785.355 826.155 795.473L795.295 795.443L795.139 764.962C805.404 764.797 815.671 764.778 825.937 764.903C825.722 754.974 825.93 744.356 825.95 734.375Z"/><path fill="#FCFBFB" d="M60.7958 703.802C65.4084 703.743 88.8833 703.176 91.5561 704.175C91.4466 714.176 91.3948 724.178 91.4007 734.179C81.2294 734.497 71.0509 734.508 60.879 734.211C60.4644 744.05 60.6697 754.915 60.6681 764.835C50.3566 765.017 40.2271 764.792 30.1367 764.934L30.0965 734.529L60.8002 734.244C60.6904 724.097 60.689 713.949 60.7958 703.802Z"/><path fill="#FCFBFB" d="M60.8145 398.03C70.6061 398.036 82.0468 398.338 91.6995 397.994C91.2507 407.541 91.5753 418.76 91.3457 428.658L121.998 428.681C122.103 438.827 122.094 448.974 121.972 459.12C111.869 459.18 101.766 459.187 91.6624 459.138C90.9972 450.689 91.4643 437.422 91.4184 428.487L60.9003 428.5C60.4035 419.022 60.7187 407.552 60.8145 398.03Z"/><path fill="#FCFBFB" d="M366.843 826.17L397.42 826.089C397.505 836.126 397.749 846.666 397.468 856.658L427.921 856.551C428.087 866.775 428.329 877.013 428.063 887.234C418.111 887.029 407.722 887.142 397.734 887.103C397.247 877.434 397.511 866.298 397.533 856.513L366.779 856.528C366.784 846.499 366.662 836.174 366.843 826.17Z"/><path fill="#FCFBFB" d="M274.98 275.857C274.913 285.974 274.906 296.091 274.958 306.208C265.442 305.878 254.05 306.184 244.382 306.186L244.328 336.816C234.279 336.874 224.229 336.847 214.179 336.736C213.522 328.371 213.957 315.029 214.024 306.271L244.508 306.287C244.29 296.347 244.437 285.871 244.419 275.889C254.605 275.665 264.794 275.654 274.98 275.857Z"/><path fill="#FCFBFB" d="M183.312 826.258C193.527 826.139 203.742 826.127 213.957 826.225C213.856 836.195 213.605 846.733 214.174 856.638L244.355 856.617L244.394 887.221C234.309 887.063 224.221 887.021 214.135 887.093C213.961 876.892 213.901 866.689 213.956 856.486L183.465 856.449C183.302 846.387 183.251 836.322 183.312 826.258Z"/><path fill="#FCFBFB" d="M183.315 337.458C185.886 336.468 209.777 336.906 213.811 336.939C213.711 347.143 213.71 357.348 213.807 367.552L244.443 367.407C244.404 377.345 244.147 388.115 244.358 397.983L214.151 397.986C213.949 387.764 213.892 377.539 213.98 367.315C203.859 367.336 193.419 367.487 183.327 367.253C183.339 357.424 183.487 347.257 183.315 337.458Z"/><path fill="#FCFBFB" d="M641.931 0L672.747 0C672.822 10.2145 672.779 20.4295 672.618 30.643C662.39 30.7719 652.475 30.9133 642.24 30.5983C641.662 21.462 641.959 9.36041 641.931 0Z"/><path fill="#FCFBFB" d="M795.267 61.236C794.925 70.7864 795.237 82.25 795.241 91.9528C785.012 92.3843 774.869 92.1596 764.642 91.8856C764.108 82.4373 764.451 71.0986 764.538 61.4896C774.68 61.4722 785.161 61.5843 795.267 61.236Z"/><path fill="#FCFBFB" d="M886.733 0L917.368 0C917.506 10.2177 917.508 20.4368 917.373 30.6545C907.252 30.8377 897.129 30.8535 887.008 30.702C886.545 20.7608 886.73 10.0148 886.733 0Z"/><path fill="#FCFBFB" d="M305.713 61.241C305.349 70.8302 305.637 82.3044 305.625 92.0415C295.437 92.2886 285.244 92.2638 275.057 91.967C274.898 81.7902 274.964 71.4735 274.945 61.2844C282.81 61.5964 297.764 61.6835 305.713 61.241Z"/><path fill="#FCFBFB" d="M764.569 0L795.3 0L795.21 30.6495C785.01 30.7432 774.81 30.7834 764.61 30.7703C764.347 20.5154 764.333 10.2556 764.569 0Z"/><path fill="#FCFBFB" d="M305.678 245.11C305.667 255.057 305.847 265.736 305.55 275.623C295.361 275.809 285.171 275.887 274.98 275.857C274.868 265.618 274.879 255.378 275.012 245.139C282.916 245.695 297.292 245.157 305.678 245.11Z"/><path fill="#FCFBFB" d="M30.0534 0L60.7863 0C60.4275 9.65876 60.6427 20.9658 60.8259 30.678C50.6587 30.8283 40.4896 30.8085 30.323 30.6186C29.8645 20.8075 30.0635 9.90017 30.0534 0Z"/><path fill="#FCFBFB" d="M397.499 0L428.049 0C428.161 10.1368 428.016 20.5523 427.997 30.7128C417.88 30.8113 407.762 30.7991 397.645 30.676C397.205 21.1934 397.501 9.63709 397.499 0Z"/><path fill="#FCFBFB" d="M458.733 0L489.298 0C489.534 9.85852 489.261 20.6675 489.205 30.5961C479.082 30.7989 468.957 30.8059 458.835 30.6169C458.476 20.9336 458.733 9.79335 458.733 0Z"/><path fill="#FCFBFB" d="M91.6351 0L122.193 0C121.832 9.73368 122.182 20.6637 122.05 30.6272C111.976 30.6872 101.902 30.6881 91.8281 30.6298C91.034 22.005 91.4918 8.73368 91.6351 0Z"/><path fill="#FCFBFB" d="M581.019 0L611.502 0C611.592 10.2189 611.582 20.4385 611.471 30.6573C601.348 30.749 591.225 30.7449 581.103 30.6449C580.965 20.4306 580.937 10.215 581.019 0Z"/><path fill="#FCFBFB" d="M30.0489 61.2757C40.252 61.4012 50.4562 61.4184 60.6597 61.3272C60.6884 71.4441 60.5913 81.8382 60.7771 91.9301C50.6108 92.1382 40.4412 92.1365 30.2749 91.925C30.0158 81.6076 30.2045 71.5156 30.0489 61.2757Z"/><path fill="#FCFBFB" d="M428.024 581.179C437.912 581.206 448.782 581.08 458.638 581.586C458.633 591.577 458.762 601.87 458.607 611.834C448.607 611.976 438.149 612.273 428.195 611.936L428.024 581.179Z"/><path fill="#FCFBFB" d="M274.975 0L305.713 0L305.6 30.5791C295.579 30.7933 284.632 30.4045 275.02 30.7222L274.975 0Z"/><path fill="#FCFBFB" d="M152.845 0L183.52 0C182.921 9.05647 183.236 21.3637 183.215 30.6661C173.148 30.8209 163.08 30.803 153.015 30.6123C152.632 20.5846 152.812 10.0745 152.845 0Z"/><path fill="#FCFBFB" d="M550.496 61.2344C550.397 71.3635 550.527 81.8417 550.294 91.9039C539.767 92.3172 530.316 92.01 519.869 92.0436C520.132 82.1792 519.97 71.4988 520.015 61.566C529.716 61.1453 540.61 61.4558 550.496 61.2344Z"/><path fill="#FCFBFB" d="M366.838 214.868C376.978 214.688 387.118 214.601 397.259 214.606C398.064 222.103 397.605 237.163 397.502 244.987C388.231 245.105 375.531 244.668 366.765 245.098C366.733 235.021 366.758 224.945 366.838 214.868Z"/><path fill="#FCFBFB" d="M428.043 61.3184L428.003 91.9728C417.853 92.1614 407.702 92.2053 397.552 92.1045C397.446 81.8638 397.479 71.6222 397.651 61.3824L428.043 61.3184Z"/><path fill="#FCFBFB" d="M519.93 0L550.448 0C550.413 9.60475 550.034 21.3967 550.383 30.8162C542.751 30.2706 528.441 30.728 520.065 30.6011C519.659 21.1515 519.948 9.61057 519.93 0Z"/><path fill="#FCFBFB" d="M336.146 0L366.781 0L366.743 30.5824C356.595 30.8771 346.441 30.8961 336.292 30.6393L336.146 0Z"/><path fill="#FCFBFB" d="M581.009 61.2812C588.313 61.4677 604.445 61.7698 611.576 61.2483L611.436 91.9558C600.926 92.1781 591.633 92.1027 581.059 91.8872C580.931 81.6857 580.914 71.4831 581.009 61.2812Z"/><path fill="#FCFBFB" d="M703.374 0L733.788 0C733.682 10.2253 733.681 20.4514 733.785 30.6767C723.652 30.932 713.514 30.9129 703.381 30.6194L703.374 0Z"/><path fill="#FCFBFB" d="M428.064 367.342C428.048 377.324 427.795 388.336 428.075 398.232C417.9 397.988 407.722 397.914 397.545 398.01C397.455 387.836 397.459 377.661 397.556 367.486C407.557 367.505 418.116 367.688 428.064 367.342Z"/><path fill="#FCFBFB" d="M305.694 673.08L305.587 703.597C295.488 703.876 285.075 704.113 274.974 703.741L275.037 673.121C285.256 673.204 295.476 673.19 305.694 673.08Z"/><path fill="#FCFBFB" d="M489.265 520.333L519.876 520.4L519.878 550.985C510.488 550.622 498.955 550.943 489.396 550.943L489.265 520.333Z"/><path fill="#FCFBFB" d="M30.0665 306.19C40.2646 306.316 50.4637 306.348 60.6624 306.286C60.6925 316.196 60.5097 327.009 60.8399 336.845C50.6914 336.831 40.4135 336.905 30.2775 336.778C29.9789 327.177 30.5666 315.161 30.0665 306.19Z"/><path fill="#FCFBFB" d="M274.974 703.741C274.636 713.368 274.913 724.405 274.934 734.137C264.566 734.563 254.868 734.357 244.505 734.219C244.203 724.422 244.411 713.74 244.418 703.877C254.512 703.566 264.855 703.708 274.974 703.741Z"/><path fill="#FCFBFB" d="M947.984 214.392C947.843 224.641 947.904 234.891 948.167 245.138C937.946 245.182 927.724 245.151 917.502 245.044C917.166 235.314 917.338 224.548 917.318 214.753C927.163 214.356 937.894 214.691 947.984 214.392Z"/><path fill="#FCFBFB" d="M825.888 0L856.159 0C856.715 9.06643 856.231 21.3189 856.109 30.634C846.507 31.0331 834.316 30.1843 826.008 30.7568C826.099 20.597 825.933 10.1809 825.888 0Z"/><path fill="#FCFBFB" d="M458.719 489.784L489.385 489.803L489.265 520.333C479.861 519.984 468.381 520.298 458.809 520.294C458.528 510.433 458.725 499.711 458.719 489.784Z"/><path fill="#FCFBFB" d="M336.184 795.382C346.409 795.479 356.633 795.516 366.858 795.491L366.757 825.961C357.06 825.987 345.76 825.72 336.206 826.065L336.184 795.382Z"/><path fill="#FCFBFB" d="M91.5096 367.452L121.969 367.49C122.224 377.636 122.229 387.786 121.985 397.933L91.6995 397.994C91.3863 387.816 91.323 377.632 91.5096 367.452Z"/><path fill="#FCFBFB" d="M886.716 795.514L917.472 795.495L917.292 826.043L886.984 825.944C886.582 815.86 886.698 805.618 886.716 795.514Z"/><path fill="#FCFBFB" d="M305.674 214.756L335.979 214.6C336.427 223.985 336.209 235.485 336.17 244.999C326.006 245.13 315.842 245.167 305.678 245.11C305.493 234.993 305.491 224.874 305.674 214.756Z"/><path fill="#FCFBFB" d="M366.814 275.906C375.981 275.751 388.644 275.261 397.662 276.108C397.505 286.122 397.448 296.136 397.492 306.151C387.359 306.147 376.9 306.012 366.795 306.214L366.814 275.906Z"/><path fill="#FCFBFB" d="M366.765 245.098L366.812 275.75C356.593 275.832 346.373 275.788 336.155 275.619L336.236 245.323C346.336 244.924 356.968 245.6 366.765 245.098Z"/><path fill="#FCFBFB" d="M213.946 0L244.41 0L244.329 30.6604C234.283 30.8982 224.232 30.8733 214.186 30.5856C213.832 20.559 213.96 10.0687 213.946 0Z"/><path fill="#FCFBFB" d="M30.0654 795.577L60.7823 795.485L60.7733 825.959C50.5373 825.928 40.3013 825.976 30.066 826.101L30.0654 795.577Z"/><path fill="#FCFBFB" d="M826.008 30.7568C825.932 40.8384 825.735 51.1896 825.992 61.2437C815.75 61.1833 805.508 61.1807 795.267 61.236C795.548 51.5665 795.3 40.8499 795.275 31.1019C805.126 30.6451 816.017 30.8798 826.008 30.7568Z"/><path fill="#FCFBFB" d="M152.939 734.518L183.133 734.299C183.485 744.846 183.357 754.255 183.113 764.825C173.014 764.976 162.913 765.016 152.813 764.946C152.73 754.803 152.772 744.66 152.939 734.518Z"/><path fill="#FCFBFB" d="M519.973 122.982C530.127 122.846 540.282 122.795 550.437 122.826L550.408 153.231C540.366 153.317 530.031 153.518 520.006 153.113C519.977 143.113 519.86 132.969 519.973 122.982Z"/><path fill="#FCFBFB" d="M701.847 765.02L702.928 765.262C703.701 768.263 703.291 790.467 703.257 795.324L672.837 795.379C672.179 786.318 672.508 774.505 672.589 765.231L701.847 765.02Z"/><path fill="#FCFBFB" d="M611.621 31.1025C621.766 30.8336 631.915 30.7574 642.063 30.8738C642.19 40.9732 642.169 51.074 642 61.1728L611.576 61.2483C611.488 51.1999 611.503 41.1507 611.621 31.1025Z"/><path fill="#FCFBFB" d="M244.376 459.22C254.5 459.227 264.866 459.353 274.968 459.21L274.905 489.556C265.223 489.917 254.369 489.701 244.6 489.711C244.061 480.714 244.381 468.374 244.376 459.22Z"/><path fill="#FCFBFB" d="M550.383 30.8162C560.26 30.8523 571.149 31.1319 580.937 30.9067L581.009 61.2812C571.221 60.9734 560.364 61.2155 550.496 61.2344L550.383 30.8162Z"/><path fill="#FCFBFB" d="M30.1982 153.202L30.1578 183.869C20.1063 184.055 10.0531 184.126 0 184.082L0 153.255C9.90645 153.103 20.4614 153.475 30.1982 153.202Z"/><path fill="#FCFBFB" d="M336.206 826.065C336.06 836.241 336.065 846.418 336.22 856.594C326.376 856.271 315.68 856.475 305.77 856.488C305.429 846.606 305.618 836.081 305.64 826.147C315.829 826.198 326.018 826.171 336.206 826.065Z"/><path fill="#FCFBFB" d="M428.068 306.218L427.998 336.825L397.668 336.78C397.467 326.61 397.436 316.438 397.576 306.267L428.068 306.218Z"/><path fill="#FCFBFB" d="M275.02 30.7222C274.661 40.691 274.885 51.2614 274.945 61.2844C265.736 60.8945 253.852 61.2247 244.477 61.1907C244.276 51.327 244.465 40.8955 244.485 30.9889C254.382 30.5702 264.901 31.0095 275.02 30.7222Z"/><path fill="#FCFBFB" d="M428.08 337.13C438.268 336.959 448.458 336.901 458.647 336.955C458.659 346.825 458.88 357.505 458.627 367.307L428.064 367.342L428.08 337.13Z"/><path fill="#FCFBFB" d="M917.509 887.304L947.852 887.269L947.984 917.74C937.76 917.451 927.593 917.908 917.502 917.668C917.314 907.548 917.316 897.425 917.509 887.304Z"/><path fill="#FCFBFB" d="M366.818 337.062C377.056 336.877 387.296 336.84 397.536 336.949L397.452 367.248C387.583 367.308 376.49 367.029 366.787 367.318L366.818 337.062Z"/><path fill="#FCFBFB" d="M0 92.0163C10.0408 92.1706 20.0828 92.2351 30.1248 92.2099C30.2657 102.373 30.2437 112.539 30.0588 122.702C20.0399 122.845 10.0199 122.903 0 122.877L0 92.0163Z"/><path fill="#FCFBFB" d="M305.647 30.9354C313.531 30.8195 328.497 30.3475 336.06 31.1229L336.074 61.2081L305.713 61.241C305.583 51.1396 305.561 41.0372 305.647 30.9354Z"/><path fill="#FCFBFB" d="M213.972 428.723L244.38 428.681C244.369 438.771 244.227 449.155 244.376 459.22C234.328 459.214 224.137 459.297 214.102 459.149C213.959 449.007 213.916 438.865 213.972 428.723Z"/><path fill="#FCFBFB" d="M428.045 31.1356C438.159 30.9388 448.44 30.6174 458.534 30.9936C458.811 40.9476 458.667 51.1615 458.634 61.1407C449.568 61.1717 436.903 60.8198 428.043 61.3184L428.045 31.1356Z"/><path fill="#FCFBFB" d="M0 642.509C9.94267 642.533 20.1513 642.676 30.0708 642.517C30.1754 652.664 30.1659 662.812 30.0423 672.959C20.0299 673.186 10.0146 673.257 1.08767e-15 673.171L0 642.509Z"/><path fill="#FCFBFB" d="M30.0894 122.99C39.8751 122.915 51.1145 122.579 60.7793 122.979C60.6738 133.035 60.6659 143.093 60.7555 153.15C50.5699 153.229 40.3839 153.246 30.1982 153.202L30.0894 122.99Z"/><path fill="#FCFBFB" d="M917.416 31.0445C927.473 30.9128 937.845 30.693 947.893 30.806C947.895 40.0867 947.523 52.2861 947.954 61.3188L917.572 61.1898C917.329 51.1433 917.277 41.093 917.416 31.0445Z"/><path fill="#FCFBFB" d="M825.992 61.2437C835.89 61.5757 846.278 61.3621 856.221 61.2978L856.215 91.9574C846.162 92.1641 836.108 92.2194 826.054 92.1235L825.992 61.2437Z"/><path fill="#FCFBFB" d="M428.063 887.234L458.748 887.255L458.554 917.529C448.478 917.701 438.401 917.771 428.324 917.739C428.096 907.573 428.01 897.403 428.063 887.234Z"/><path fill="#FCFBFB" d="M0 214.445C10.0092 214.592 20.0197 214.632 30.0298 214.564C30.0663 224.643 30.2163 234.945 30.0973 245.005L0 245.222L0 214.445Z"/><path fill="#FCFBFB" d="M0 703.704L30.1093 703.788C30.1963 713.803 30.4321 724.252 30.0594 734.221C20.041 734.43 10.0201 734.49 0 734.401L0 703.704Z"/><path fill="#FCFBFB" d="M0 275.604L30.0926 275.702L30.0665 306.19C20.7368 305.856 9.48239 306.173 0 306.184L0 275.604Z"/><path fill="#FCFBFB" d="M519.878 550.985C530.069 551.099 540.262 551.123 550.454 551.057L550.411 581.146C540.252 581.268 530.091 581.277 519.931 581.17C519.932 571.379 520.149 560.702 519.878 550.985Z"/><path fill="#FCFBFB" d="M0 30.7783L30.0424 30.8196L30.0489 61.2757C21.0115 60.897 9.18883 61.2623 0 61.266L0 30.7783Z"/><path fill="#FCFBFB" d="M30.1367 764.934L30.0614 795.308L0 795.424L0 764.997L30.1367 764.934Z"/><path fill="#FCFBFB" d="M305.867 765.168L336.198 765.081C336.197 775.12 336.306 785.362 336.184 795.382C326.044 795.427 315.902 795.4 305.762 795.301C305.492 784.906 305.817 775.468 305.867 765.168Z"/><path fill="#FCFBFB" d="M305.653 642.62L333.11 642.625C334.027 652.809 334.941 662.316 336.548 672.426C331.417 673.938 311.704 672.872 305.694 673.08L305.653 642.62Z"/><path fill="#FCFBFB" d="M856.304 520.448C862.59 520.629 868.881 520.33 875.122 519.554C878.775 529.447 882.764 539.718 885.234 549.956C882.976 551.487 861.016 550.97 856.528 550.96C856.168 541.179 856.346 530.312 856.304 520.448Z"/><path fill="#FCFBFB" d="M796.762 412.082C802.715 416.749 808.335 421.825 813.581 427.273C811.788 429.661 798.687 428.551 795.409 428.338C795.353 423.882 794.572 415.282 796.762 412.082Z"/><path fill="#FCFBFB" d="M854.447 810.701C857.063 814.155 856.16 821.305 856.091 825.96C851.923 826.096 845.23 827.078 842.558 824.65L854.447 810.701Z"/><path fill="#FCFBFB" d="M692.661 92.1663L703.331 92.1592L703.27 122.693C693.096 122.871 682.919 122.913 672.744 122.819C672.828 132.963 672.831 143.107 672.754 153.251C682.913 153.196 693.072 153.33 703.226 153.654L703.226 183.804C696.723 184.054 690.008 183.951 683.485 183.94L672.788 183.94C672.246 174.809 672.589 162.323 672.755 153.067C662.551 153.369 652.341 153.393 642.137 153.139C641.886 143.093 641.886 133.041 642.138 122.995C652.394 122.801 662.652 122.791 672.909 122.965C672.165 113.259 672.509 102.097 672.823 92.3708L692.661 92.1663Z"/><path fill="#FCFBFB" d="M106.15 122.755C110.794 122.531 117.223 122.781 121.999 122.82C122.191 132.88 121.92 142.941 122.159 153.077C111.977 153.447 101.786 153.48 91.6028 153.175L91.5742 184.076L77.6172 184.033C72.1069 184.093 66.4073 183.964 60.8816 183.913C60.5802 173.915 60.7664 163.469 60.8098 153.432C70.9918 153.245 81.2238 153.448 91.4498 153.262C91.3055 143.125 91.3126 132.987 91.471 122.851L106.15 122.755Z"/><path fill="#FCFBFB" d="M152.945 153.199L152.848 183.936C142.671 184.103 132.492 184.101 122.315 183.928C121.93 193.476 122.177 204.574 122.061 214.314C116.808 214.439 94.8652 215.346 91.6806 213.891C91.3559 203.988 91.2996 194.078 91.512 184.173C101.781 183.889 112.055 183.846 122.326 184.043L122.105 153.327C131.97 153.481 143.147 153.483 152.945 153.199Z"/><path fill="#FCFBFB" d="M672.623 581.384C682.779 581.317 692.936 581.401 703.09 581.635C703.249 591.713 703.303 601.792 703.252 611.871C693.226 612.305 682.783 612.133 672.751 612.006C672.859 622.134 672.83 632.263 672.663 642.391C662.413 642.508 652.473 642.637 642.216 642.312C642.021 632.272 641.999 622.23 642.148 612.189C652.108 611.808 662.867 612.03 672.894 612.067C672.236 603.186 672.607 590.555 672.623 581.384Z"/><path fill="#FCFBFB" d="M274.999 489.867L305.68 489.843L305.656 520.384C315.737 520.528 326.147 520.386 336.255 520.377C336.468 527.936 335.39 544.972 336.787 551.066C333.87 550.579 310.404 550.757 305.676 550.68C305.434 540.647 305.598 530.323 305.693 520.284C295.477 520.363 285.262 520.321 275.048 520.158L274.999 489.867Z"/><path fill="#FCFBFB" d="M489.339 581.327C499.139 581.269 510.169 580.979 519.85 581.511C519.797 591.742 519.798 601.973 519.853 612.203C529.591 611.795 540.574 612.013 550.407 612.005L550.301 642.303C540.184 642.528 530.063 642.556 519.945 642.386L519.957 612.044C510.225 612.391 499.065 612.2 489.342 611.847C489.287 601.674 489.286 591.5 489.339 581.327Z"/><path fill="#FCFBFB" d="M826.372 673.216C836.293 672.931 846.22 672.906 856.142 673.142C856.246 683.302 856.281 693.462 856.246 703.623C846.178 703.879 836.104 703.886 826.035 703.643C825.885 712.288 826.433 725.337 825.683 733.525L824.788 734.18C814.992 734.607 805.182 734.608 795.385 734.183C795.282 724.079 795.268 713.974 795.343 703.87C805.452 703.561 815.911 703.711 826.053 703.734C825.966 698.34 825.412 677.875 826.372 673.216Z"/><path fill="#FCFBFB" d="M672.584 703.82C682.842 703.673 693.1 703.652 703.358 703.758C703.312 713.56 703.031 724.51 703.36 734.221C713.082 734.659 722.679 734.161 732.161 734.583L733.248 734.936C734.253 738.404 733.569 759.451 733.853 764.841C723.772 764.889 713.414 765.059 703.357 764.913C703.336 755.064 703.054 743.993 703.33 734.25C693.167 734.428 683.001 734.418 672.838 734.218C672.464 724.09 672.38 713.953 672.584 703.82Z"/><path fill="#FCFBFB" d="M60.9952 214.86C71.2032 214.644 81.4145 214.638 91.6227 214.841C91.1654 223.516 91.6859 235.94 91.6058 245.135L122.101 245.093C122.018 255.335 122.263 265.33 122.057 275.643L91.6214 275.617C91.2676 265.671 91.4733 254.946 91.5544 244.987C81.3123 245.199 71.0671 245.211 60.8245 245.023C60.6507 234.969 60.7076 224.912 60.9952 214.86Z"/><path fill="#FCFBFB" d="M835.409 122.769L856.212 122.826L856.216 153.09C846.152 153.282 836.085 153.327 826.019 153.225L825.928 183.903L818.804 183.991C810.982 184.019 803.16 183.971 795.339 183.849L795.275 153.446C805.524 153.214 815.777 153.19 826.027 153.376L825.957 122.958L835.409 122.769Z"/><path fill="#FCFBFB" d="M769.816 734.415C778.026 734.579 786.999 734.359 795.271 734.326C795.295 741.408 795.833 757.795 795.028 764.007C793.621 765.164 792.987 764.775 790.713 764.909C781.719 765.197 773.632 765.065 764.621 764.851C764.244 759.433 763.989 740.161 764.912 735.29C766.62 734.197 767.465 734.549 769.816 734.415Z"/><path fill="#FCFBFB" d="M795.296 306.174C794.981 315.78 795.249 327.016 795.206 336.759C785.024 336.906 774.841 336.922 764.659 336.808C764.218 327.041 764.481 316.13 764.526 306.269L795.296 306.174Z"/><path fill="#FCFBFB" d="M765.593 611.928C775.476 611.879 785.36 611.938 795.242 612.103C795.278 617.599 795.747 637.208 794.943 641.843L793.699 642.403C784.089 642.574 774.211 642.895 764.639 642.343C764.499 637.379 763.188 614.516 765.593 611.928Z"/><path fill="#FCFBFB" d="M886.827 245.199C896.99 245.115 907.22 244.94 917.372 245.327C917.407 255.382 917.562 265.707 917.344 275.737C908.101 275.364 896.515 275.86 886.783 275.718C886.752 265.662 886.579 255.22 886.827 245.199Z"/><path fill="#FCFBFB" d="M642.077 856.718L672.611 856.601C672.608 861.737 673.146 883.184 672.18 887.221L641.909 887.294C642.283 877.509 641.704 866.963 642.077 856.718Z"/><path fill="#FCFBFB" d="M128.782 581.372C136.445 581.092 145.125 581.284 152.864 581.298C152.904 585.452 153.546 609.928 152.324 611.874L149.298 612.022C141.124 612.357 130.449 612.111 122.279 611.727C122.247 605.758 121.79 587.411 122.62 582.232C124.143 581.27 126.837 581.438 128.782 581.372Z"/><path fill="#FCFBFB" d="M772.67 673.229C780.192 673.028 787.72 673.065 795.24 673.34C795.339 683.377 795.243 693.548 795.233 703.597L785.434 703.7C778.498 703.823 771.561 703.78 764.627 703.57C764.147 693.811 764.446 683.161 764.59 673.333L772.67 673.229Z"/><path fill="#FCFBFB" d="M826.018 581.188C825.724 591.369 825.91 601.832 825.978 612.041C815.877 611.706 805.864 612.363 795.376 611.782L795.297 581.234C803.059 581.643 818.034 581.507 826.018 581.188Z"/><path fill="#FCFBFB" d="M644.288 673.256C653.692 672.883 663.093 673.065 672.503 673.167C672.763 677.665 673.332 699.621 672.13 703.128L671.153 703.558C662.282 704.077 651.091 703.712 642.159 703.473C641.829 698.967 641.282 676.384 642.784 673.528L644.288 673.256Z"/><path fill="#FCFBFB" d="M91.5252 61.3116C101.359 61.5943 112.081 61.3881 121.982 61.387C122.009 68.1725 122.55 86.2161 121.83 91.9044C111.743 92.3163 101.644 92.3217 91.5574 91.9208C91.2426 81.8014 91.44 71.4536 91.5252 61.3116Z"/><path fill="#FCFBFB" d="M458.818 61.4258L489.241 61.3551C489.292 65.964 490.018 89.8952 488.529 91.9658C478.668 92.4077 468.65 92.2356 458.78 92.1352C458.678 81.8989 458.691 71.6618 458.818 61.4258Z"/><path fill="#FCFBFB" d="M764.543 428.674C774.791 428.713 785.038 428.668 795.285 428.539L795.263 459.198L764.581 459.171C764.096 449.266 764.403 438.645 764.543 428.674Z"/><path fill="#FCFBFB" d="M122.329 275.849C132.328 275.6 142.872 275.734 152.913 275.705C152.876 285.566 153.182 296.366 152.802 306.086C142.691 306.288 132.279 306.156 122.143 306.143C122.006 296.559 121.783 285.328 122.329 275.849Z"/><path fill="#FCFBFB" d="M192.476 153.398C199.514 153.128 206.792 153.3 213.851 153.365C213.663 163.328 213.87 173.963 213.95 183.978L204.663 184.056C197.588 184.106 190.513 184.041 183.44 183.861C182.911 174.89 183.27 162.711 183.255 153.474L192.476 153.398Z"/><path fill="#FCFBFB" d="M152.342 92.2561C153.336 93.3645 152.891 119.022 152.867 122.786C143.19 122.941 133.512 122.932 123.835 122.757L123.095 122.572C121.68 120.282 122.286 96.7799 122.304 92.2809L152.342 92.2561Z"/><path fill="#FCFBFB" d="M122.413 703.846C132.254 703.51 143.022 703.736 152.935 703.763C152.631 713.645 152.973 724.131 152.803 734.137C142.61 734.485 132.408 734.479 122.216 734.118C121.771 725.049 122.186 713.07 122.413 703.846Z"/><path fill="#FCFBFB" d="M366.825 61.2708C366.47 70.7959 366.787 82.2774 366.798 91.9536C356.611 92.1973 346.42 92.2279 336.232 92.0454C336.133 81.9367 336.252 71.6446 336.269 61.5202C346.415 61.2248 356.611 61.663 366.825 61.2708Z"/><path fill="#FCFBFB" d="M305.655 703.858C315.76 703.696 325.866 703.657 335.971 703.739C336.248 714.158 336.515 723.739 336.154 734.172C325.992 734.599 315.835 734.343 305.666 734.186C305.585 724.077 305.581 713.967 305.655 703.858Z"/><path fill="#FCFBFB" d="M60.728 673.155C60.6383 683.292 60.6545 693.43 60.7764 703.568C50.8771 703.766 39.9829 704.155 30.1555 703.463C30.0304 693.422 30.121 683.23 30.122 673.176L60.728 673.155Z"/><path fill="#FCFBFB" d="M775.76 122.767L795.258 122.748L795.219 153.169L782.985 153.231C776.904 153.381 770.74 153.236 764.652 153.158C764.081 144.148 764.481 132.285 764.42 122.943L775.76 122.767Z"/><path fill="#FCFBFB" d="M733.766 459.195C743.983 459.127 754.2 459.149 764.417 459.261C764.454 469.02 764.726 480.052 764.283 489.707C754.448 489.729 743.767 489.959 734.001 489.681C733.6 479.59 733.735 469.309 733.766 459.195Z"/><path fill="#FCFBFB" d="M214.049 61.6875C221.07 60.7236 236.807 61.3947 244.357 61.3015L244.363 92.1712C234.451 92.1854 224.013 92.3127 214.146 92.031C213.874 83.7787 213.566 69.897 214.049 61.6875Z"/><path fill="#FCFBFB" d="M625.361 92.1489C630.267 91.9432 636.937 92.3038 641.966 92.4292C642.247 102.539 642.264 112.655 642.019 122.767L628.684 122.864C623.077 122.959 617.298 122.719 611.679 122.562C611.257 112.577 611.447 102.379 611.593 92.3889L625.361 92.1489Z"/><path fill="#FCFBFB" d="M733.975 581.328C743.809 581.09 754.573 581.314 764.459 581.339C763.989 589.857 765.315 604.546 764.15 611.88C754.11 612.164 744.064 612.113 734.028 611.727C733.62 602.733 733.723 590.39 733.975 581.328Z"/><path fill="#FCFBFB" d="M864.886 581.383C871.708 581.076 879.931 581.245 886.853 581.229C886.352 590.176 886.908 602.508 886.91 611.867L879.423 612.056C871.733 612.066 864.043 611.989 856.355 611.826C856.043 602.095 856.272 591.399 856.313 581.608L864.886 581.383Z"/><path fill="#FCFBFB" d="M129.563 642.6C137.224 642.422 145.17 642.499 152.855 642.482C152.947 649.052 153.327 666.52 152.609 672.284C151.132 673.44 149.677 673.162 147.719 673.172C139.233 673.196 130.786 673.278 122.304 672.986C122.307 662.946 122.226 652.906 122.06 642.867L129.563 642.6Z"/><path fill="#FCFBFB" d="M886.874 856.708C897.044 856.583 907.216 856.571 917.386 856.672C917.543 866.838 917.54 877.006 917.377 887.173C907.489 886.925 896.801 887.116 886.849 887.104C886.637 876.973 886.645 866.839 886.874 856.708Z"/><path fill="#FCFBFB" d="M244.441 245.125C244.072 254.584 244.353 266.014 244.329 275.632C235.31 276.182 223.131 276.069 214.111 275.534C213.482 266.356 213.888 254.678 213.98 245.292C224.132 245.063 234.287 245.008 244.441 245.125Z"/><path fill="#FCFBFB" d="M795.327 92.3672C805.554 92.186 815.784 92.1705 826.012 92.3207C825.995 100.377 826.418 115.207 825.707 122.741C815.805 122.863 805.149 123.146 795.332 122.531C795.006 112.966 795.292 102.034 795.327 92.3672Z"/><path fill="#FCFBFB" d="M188.249 581.396C196.593 581.094 205.505 581.245 213.903 581.26C213.687 591.479 213.689 601.701 213.907 611.92L207.724 611.942C199.5 612.05 191.585 612.251 183.369 611.749C183.106 606.232 182.88 587.115 183.749 582.203C185.523 581.059 185.737 581.467 188.249 581.396Z"/><path fill="#FCFBFB" d="M795.263 459.198C805.524 459.123 815.786 459.139 826.047 459.244C825.869 469.427 825.846 479.612 825.977 489.795L795.356 489.731L795.263 459.198Z"/><path fill="#FCFBFB" d="M672.838 734.218C672.515 744.429 672.939 754.381 672.467 764.863C664.56 764.949 656.618 765.05 648.716 765.045C645.906 765.043 643.918 765.409 642.248 763.72C641.874 754.278 641.951 743.9 642.136 734.433C652.371 734.535 662.606 734.463 672.838 734.218Z"/><path fill="#FCFBFB" d="M734.357 92.0809C742.158 92.6627 756.184 92.2559 764.459 92.2857C764.217 97.5271 765.407 120.172 763.529 122.624C754.54 123.111 742.921 123.041 733.941 122.593C733.84 116.932 733.164 97.0208 734.357 92.0809Z"/><path fill="#FCFBFB" d="M579.995 92.1299L580.443 92.1369C581.386 93.1843 580.966 119.135 580.963 122.87C571.863 122.618 561.672 122.848 552.452 122.783L551.032 122.439C549.813 119.724 550.436 96.993 550.479 92.3355C560.164 92.0749 570.199 92.2974 579.995 92.1299Z"/><path fill="#FCFBFB" d="M795.29 520.434L825.982 520.308C825.975 530.474 825.877 540.778 825.982 550.93C815.777 551.04 805.57 550.979 795.367 550.746L795.29 520.434Z"/><path fill="#FCFBFB" d="M611.686 153.35C621.808 153.229 631.932 153.261 642.053 153.446L642.158 183.918C631.994 184.073 621.828 184.027 611.666 183.78C611.476 173.99 611.133 163.081 611.686 153.35Z"/><path fill="#FCFBFB" d="M61.049 337.032C71.2014 336.894 81.3552 336.892 91.5076 337.025C91.6943 347.119 91.6452 357.216 91.3604 367.308C81.2801 367.45 70.874 367.281 60.7684 367.242C60.7114 359.975 60.2465 343.855 61.049 337.032Z"/><path fill="#FCFBFB" d="M612.669 703.854C621.88 703.468 632.652 703.725 641.979 703.727C642.154 712.05 642.195 720.375 642.103 728.699C642.069 731.271 642.516 732.832 641.083 734.22C631.251 734.374 621.417 734.352 611.585 734.154C611.382 729.663 610.596 705.986 612.669 703.854Z"/><path fill="#FCFBFB" d="M184.458 703.783C194.056 703.551 204.247 703.741 213.889 703.768C213.601 712.926 214.116 722.644 213.739 731.836C213.66 733.738 213.63 733.409 212.5 734.292C202.748 734.407 192.995 734.361 183.244 734.155C183.181 727.804 182.823 709.825 183.507 704.337L184.458 703.783Z"/><path fill="#FCFBFB" d="M305.7 183.936C305.744 194.091 305.69 204.247 305.539 214.401C295.612 214.466 284.89 214.736 275.048 214.188C274.958 204.132 274.933 194.076 274.972 184.02C285.215 184.108 295.458 184.079 305.7 183.936Z"/><path fill="#FCFBFB" d="M34.5047 245.254C42.6032 244.828 52.3705 245.2 60.6584 245.198C60.6824 250.93 61.136 270.081 60.3478 274.956C58.8799 275.863 56.6134 275.644 54.7645 275.687C46.2617 275.83 38.7469 275.908 30.266 275.537C29.9408 268.626 29.8009 252.504 30.2864 245.881C31.7397 245.004 32.5322 245.316 34.5047 245.254Z"/><path fill="#FCFBFB" d="M917.345 306.2C917.412 316.376 917.394 326.553 917.289 336.729L886.774 336.908C886.711 326.701 886.744 316.493 886.873 306.286C897.031 306.337 907.188 306.308 917.345 306.2Z"/><path fill="#FCFBFB" d="M796.276 642.586C806.157 642.508 816.038 642.502 825.919 642.567C825.891 646.332 826.564 671.192 825.231 672.976C815.505 673.402 805.189 673.127 795.465 672.905C795.369 668.643 794.577 644.545 796.276 642.586Z"/><path fill="#FCFBFB" d="M733.853 520.456C744.037 520.371 754.221 520.341 764.405 520.366C764.405 530.735 764.734 540.205 764.346 550.692C754.277 550.934 744.204 550.996 734.133 550.879C733.77 540.825 733.867 530.535 733.853 520.456Z"/><path fill="#FCFBFB" d="M91.5982 306.272L121.924 306.286C122.122 316.439 122.183 326.594 122.106 336.748C111.946 336.863 101.784 336.875 91.6231 336.786C91.1809 326.923 91.4878 316.214 91.5982 306.272Z"/><path fill="#FCFBFB" d="M93.596 734.473L122.099 734.355C122.059 743.882 122.599 755.384 121.769 764.831C111.718 764.96 101.667 764.98 91.6163 764.893C91.3071 760.273 90.6585 738.623 92.0238 734.978L93.596 734.473Z"/><path fill="#FCFBFB" d="M458.773 703.681C458.618 713.848 458.568 724.017 458.623 734.186C448.303 734.532 438.395 734.301 428.09 734.26L428.078 703.842C437.758 703.476 448.973 703.712 458.773 703.681Z"/><path fill="#FCFBFB" d="M893.582 183.98C901.518 183.913 909.454 183.949 917.389 184.088C917.428 189.92 917.912 209.369 916.923 213.698C914.911 214.722 912.653 214.455 910.344 214.441C902.511 214.53 894.676 214.481 886.845 214.292C886.779 208.747 886.19 189.42 887.046 184.782C889 183.776 891.323 184.001 893.582 183.98Z"/><path fill="#FCFBFB" d="M274.949 153.235L274.91 183.844C264.458 183.963 255.025 184.069 244.538 183.784C244.348 173.64 244.346 163.494 244.532 153.35L274.949 153.235Z"/><path fill="#FCFBFB" d="M764.54 489.857L795.356 489.731C794.995 499.25 795.269 510.608 795.248 520.274L764.61 520.295C764.184 510.286 764.434 499.905 764.54 489.857Z"/><path fill="#FCFBFB" d="M95.0506 673.239C104.013 673.049 112.978 673.037 121.941 673.202C122.064 678.087 122.982 700.388 120.864 703.415L118.94 703.592C109.768 703.919 100.782 703.735 91.6074 703.608C91.375 697.655 90.4559 680.296 92.4243 673.994C92.6463 673.283 93.9765 673.381 95.0506 673.239Z"/><path fill="#FCFBFB" d="M489.307 673.095L489.206 703.645C479.062 703.765 468.917 703.777 458.773 703.681C458.663 693.529 458.67 683.377 458.792 673.226C468.963 673.068 479.135 673.025 489.307 673.095Z"/><path fill="#FCFBFB" d="M153.031 336.774C152.572 346.107 152.885 357.787 152.885 367.296C142.704 367.386 132.522 367.359 122.341 367.217L122.188 337.031L153.031 336.774Z"/><path fill="#FCFBFB" d="M826.02 336.82C825.862 347.015 825.849 357.211 825.98 367.407C818.027 367.383 802.393 367.814 795.155 366.956C795.429 357.142 795.314 346.872 795.342 337.021L826.02 336.82Z"/><path fill="#FCFBFB" d="M674.421 642.558L703.031 642.56C703.151 647.67 703.82 668.342 702.919 672.519L701.826 672.966C692.195 673.158 682.561 673.141 672.931 672.912C672.624 667.369 671.833 647.918 672.967 643.332L674.421 642.558Z"/><path fill="#FCFBFB" d="M810.379 214.621C815.457 214.497 820.855 214.596 825.988 214.549C825.868 224.709 825.871 234.871 825.999 245.031L810.998 245.169L795.355 245.075L795.302 214.903L810.379 214.621Z"/><path fill="#FCFBFB" d="M61.1327 30.9003C71.2986 30.7542 81.466 30.7479 91.6321 30.8816C91.2871 40.7484 91.707 51.1293 91.4413 61.1806L60.8608 61.2016C60.7771 54.9922 60.2614 36.485 61.1327 30.9003Z"/><path fill="#FCFBFB" d="M458.729 917.825C468.894 917.738 479.059 917.715 489.224 917.757C489.333 927.898 489.299 938.04 489.12 948.179C479.05 948.3 468.98 948.334 458.909 948.282C458.7 938.131 458.64 927.978 458.729 917.825Z"/><path fill="#FCFBFB" d="M642.316 61.4929L672.524 61.4033C672.632 66.3507 674.025 89.2557 671.702 91.914C661.855 92.1729 652.004 92.2119 642.155 92.031C641.748 84.8713 641.874 68.5897 642.316 61.4929Z"/><path fill="#FCFBFB" d="M624.395 642.604L642.015 642.518C642.209 652.688 642.235 662.861 642.092 673.032L630.368 673.171C624.117 673.192 617.867 673.12 611.619 672.956C611.379 662.869 611.382 652.779 611.628 642.693C615.884 642.695 620.139 642.665 624.395 642.604Z"/><path fill="#FCFBFB" d="M61.0151 92.338L91.6086 92.2805L91.3504 122.63C81.1922 122.899 71.0293 122.945 60.8692 122.766C60.4431 113.178 60.6565 101.918 61.0151 92.338Z"/><path fill="#FCFBFB" d="M825.972 275.641C825.824 285.828 825.837 296.016 826.012 306.202C816.072 305.955 805.3 306.167 795.296 306.174C795.496 296.251 795.312 285.794 795.29 275.831C805.517 275.704 815.744 275.641 825.972 275.641Z"/><path fill="#FCFBFB" d="M886.967 367.492L917.488 367.446L917.322 397.988L886.926 397.966C886.637 387.81 886.651 377.648 886.967 367.492Z"/><path fill="#FCFBFB" d="M97.0247 612.005C105.146 611.817 113.783 611.944 121.946 611.924C121.998 616.874 122.546 638.59 121.564 641.688C120.145 642.76 118.391 642.446 116.491 642.435C108.203 642.525 99.9147 642.514 91.6272 642.4C91.1793 632.538 91.4516 622.097 91.5505 612.179L97.0247 612.005Z"/><path fill="#FCFBFB" d="M35.1928 183.996C43.6923 183.891 52.193 183.934 60.691 184.127C60.7026 190.484 61.1707 208.237 60.3678 213.554C58.9921 214.701 57.4616 214.426 55.5656 214.452C47.0853 214.522 38.6043 214.483 30.125 214.333C30.0952 205.318 29.7327 193.438 30.3032 184.66C31.8261 183.782 33.2296 184.048 35.1928 183.996Z"/><path fill="#FCFBFB" d="M441.144 642.62L458.646 642.525L458.642 673.012L446.523 673.17C440.435 673.254 434.305 673.022 428.216 672.852C427.856 663.286 428.085 652.486 428.083 642.827L441.144 642.62Z"/><path fill="#FCFBFB" d="M158.139 245.208C166.085 244.86 175.13 245.073 183.175 245.108C183.228 251.797 183.768 269.375 182.933 275.015C181.201 275.989 179.439 275.77 177.316 275.854C170.189 276.122 160.25 275.679 152.915 275.572C152.7 270.159 152.391 250.419 153.356 246.097C154.733 245.042 156.312 245.265 158.139 245.208Z"/><path fill="#FCFBFB" d="M274.918 795.393C285.143 795.548 295.37 795.576 305.596 795.478L305.642 825.933C295.487 825.996 285.332 825.993 275.177 825.922C274.92 815.84 275.254 805.121 274.918 795.393Z"/><path fill="#FCFBFB" d="M461.961 611.986C470.993 611.83 480.255 611.706 489.265 612.166C489.112 619.302 490.205 634.636 488.598 641.807C488.453 642.455 487.312 642.298 486.323 642.38C477.178 642.502 468.031 642.48 458.887 642.314C458.727 633.944 458.184 620.969 458.914 612.982C459.998 611.693 459.446 612.272 461.961 611.986Z"/><path fill="#FCFBFB" d="M183.336 92.381C193.521 92.2011 203.709 92.2042 213.893 92.3904C213.717 97.2375 214.61 120.433 212.98 122.604C203.605 123.165 192.688 122.875 183.306 122.662C183.23 112.568 183.24 102.474 183.336 92.381Z"/><path fill="#FCFBFB" d="M764.521 184.017L795.241 184.019C795.374 194.154 795.329 204.289 795.108 214.422C784.955 214.813 774.648 214.546 764.478 214.393L764.521 184.017Z"/><path fill="#FCFBFB" d="M733.996 398.018C744.178 397.975 754.36 398.005 764.541 398.107C764.291 408.04 764.427 418.504 764.403 428.478C754.277 428.545 744.151 428.553 734.025 428.501C733.675 418.674 733.936 407.917 733.996 398.018Z"/><path fill="#FCFBFB" d="M158.19 673.236C166.53 673.042 174.873 673.004 183.214 673.121C183.252 678.941 183.698 698.519 182.722 702.904C180.697 704.016 177.976 703.754 175.578 703.786C168.057 703.912 160.533 703.841 153.015 703.573C152.688 693.493 152.845 683.457 152.938 673.375L158.19 673.236Z"/><path fill="#FCFBFB" d="M366.759 642.834C376.907 642.517 387.393 642.648 397.573 642.654L397.429 673.021C387.734 673.432 376.431 673.187 366.615 673.208L366.759 642.834Z"/><path fill="#FCFBFB" d="M336.133 92.3779C336.203 98.8714 336.705 116.846 335.875 122.763L305.734 122.848C305.558 112.689 305.552 102.528 305.716 92.3682C315.769 92.2783 326.111 92.0639 336.133 92.3779Z"/><path fill="#FCFBFB" d="M703.359 917.859C713.502 917.622 723.648 917.569 733.793 917.7C733.506 927.427 733.783 938.351 733.819 948.168C723.637 948.374 713.451 948.382 703.269 948.195C703.422 938.084 703.452 927.971 703.359 917.859Z"/><path fill="#FCFBFB" d="M366.86 31.119C377.083 30.8537 387.309 30.7191 397.535 30.7151L397.456 61.159C387.633 61.2387 376.438 60.9508 366.825 61.2708C366.82 51.2751 366.715 41.0982 366.86 31.119Z"/><path fill="#FCFBFB" d="M62.1092 275.839C71.9105 275.569 81.7181 275.627 91.5155 276.013C91.4438 281.248 92.4384 303.915 90.5745 306.153L60.8538 306.146C60.7565 299.162 60.2249 282.835 61.0241 276.549L62.1092 275.839Z"/><path fill="#FCFBFB" d="M125.178 30.8968C134.289 30.6786 143.784 30.833 152.927 30.8614C152.87 35.3904 153.48 57.7872 152.325 60.9258L150.78 61.1937C141.288 61.2367 131.795 61.2262 122.303 61.1623C122.263 54.4994 121.604 38.5759 122.863 31.6959C122.984 31.0342 124.196 31.072 125.178 30.8968Z"/><path fill="#FCFBFB" d="M274.998 122.986C284.891 122.866 295.901 122.513 305.682 123.019L305.645 153.091C296.31 153.242 283.722 152.797 274.949 153.235C274.873 143.152 274.889 133.069 274.998 122.986Z"/><path fill="#FCFBFB" d="M305.666 734.186L305.697 764.846C295.49 765.039 285.281 765.032 275.074 764.825C275.004 754.706 275 744.586 275.062 734.467C285.264 734.525 295.467 734.432 305.666 734.186Z"/><path fill="#FCFBFB" d="M672.623 398.06L703.226 398.054L703.226 428.503L672.686 428.542C672.388 418.822 672.63 407.877 672.623 398.06Z"/><path fill="#FCFBFB" d="M152.997 306.284C162.821 306.268 173.335 306.066 183.104 306.326C183.233 316.473 183.279 326.621 183.241 336.769C173.172 336.909 163.101 336.911 153.031 336.774C152.75 326.613 152.738 316.446 152.997 306.284Z"/><path fill="#FCFBFB" d="M213.972 917.879C223.814 917.584 234.489 917.791 244.393 917.804C244.464 927.949 244.411 938.094 244.236 948.237C234.168 948.331 224.099 948.343 214.03 948.273C213.654 938.636 213.935 927.62 213.972 917.879Z"/><path fill="#FCFBFB" d="M161.296 183.994C168.653 183.873 176.011 183.923 183.365 184.143C183.277 194.202 183.258 204.261 183.307 214.321L176.206 214.464C168.455 214.549 160.704 214.498 152.954 214.311C152.775 204.222 152.745 194.131 152.864 184.042L161.296 183.994Z"/><path fill="#FCFBFB" d="M219.8 673.179C227.932 673.06 236.2 673.121 244.345 673.107C244.393 679.373 244.886 698.119 243.928 703.054C242.199 703.954 240.067 703.723 238.033 703.746C230.089 703.89 222.142 703.82 214.202 703.537C214.071 697.234 213.353 679.134 214.409 674.077C215.988 672.926 217.745 673.207 219.8 673.179Z"/><path fill="#FCFBFB" d="M558.083 581.402C564.945 581.071 573.954 581.383 580.963 581.459L580.98 611.994L572.811 611.992L550.557 611.992C550.261 602.127 550.445 591.448 550.436 581.522L558.083 581.402Z"/><path fill="#FCFBFB" d="M734.022 703.709L764.612 703.733C763.924 711.916 765.182 726.163 764 733.521L762.971 734.116C753.307 734.554 743.627 734.567 733.962 734.155C733.742 724.007 733.763 713.856 734.022 703.709Z"/><path fill="#FCFBFB" d="M224.542 122.767C231.257 122.612 237.83 122.815 244.54 122.977C244.33 132.883 244.403 143.144 244.338 153.08L232.37 153.324C226.289 153.431 220.206 153.374 214.128 153.153C213.918 143.094 213.867 133.032 213.975 122.971L224.542 122.767Z"/><path fill="#FCFBFB" d="M746.631 642.62L764.543 642.533L764.402 673.043L754.053 673.171L734.026 673.01C733.716 663.183 733.967 652.541 734.06 642.7L746.631 642.62Z"/><path fill="#FCFBFB" d="M706.815 673.238C715.476 672.849 725.007 673.112 733.703 673.214C733.591 680.548 734.406 696.492 733.414 702.824C732.15 703.898 732.099 703.532 730.019 703.638C720.787 703.814 712.626 703.867 703.403 703.552C703.358 698.95 702.613 675.944 704.118 673.449L706.815 673.238Z"/><path fill="#FCFBFB" d="M203.324 214.599L213.93 214.456C213.848 224.64 213.87 234.825 213.995 245.008L193.335 245.17L183.372 244.95C183.265 234.918 183.239 224.886 183.294 214.853C189.493 214.57 197.041 214.666 203.324 214.599Z"/><path fill="#FCFBFB" d="M137.996 214.604C142.957 214.647 147.92 214.624 152.881 214.536L152.9 244.989C148.449 245.235 143.207 245.144 138.687 245.171C133.294 245.197 127.757 245.052 122.353 244.976C121.884 235.583 122.283 224.507 122.175 214.844L137.996 214.604Z"/><path fill="#FCFBFB" d="M184.514 275.797C194.279 275.704 204.045 275.697 213.811 275.777C213.631 281.531 214.383 301.854 213.624 305.734L212.591 306.161C202.91 306.265 193.059 306.143 183.364 306.115C183.057 299.823 183.029 282.613 183.49 276.529L184.514 275.797Z"/><path fill="#FCFBFB" d="M228.032 734.456C233.494 734.464 238.955 734.429 244.416 734.35L244.34 765.016L230.073 765.016L214.061 764.955L213.947 734.595L228.032 734.456Z"/><path fill="#FCFBFB" d="M183.338 398.092C193.458 397.951 203.786 398.067 213.924 398.078C213.628 407.912 213.827 418.59 213.831 428.487L183.357 428.519C183.205 418.377 183.199 408.234 183.338 398.092Z"/><path fill="#FCFBFB" d="M428.088 92.3383C438.272 92.2491 448.458 92.2626 458.642 92.3789L458.654 122.718C448.928 122.955 437.811 123.122 428.155 122.561C427.907 112.766 428.096 102.194 428.088 92.3383Z"/><path fill="#FCFBFB" d="M305.67 153.324C315.544 153.297 326.371 153.063 336.159 153.497L336.171 183.917C326.015 184.07 315.857 184.076 305.7 183.936L305.67 153.324Z"/><path fill="#FCFBFB" d="M214.679 184.002C224.367 183.925 234.753 183.657 244.368 184.163C244.398 188.532 245.045 212.44 243.538 214.327C233.751 214.56 223.96 214.567 214.172 214.347C213.891 210.255 213.287 186.259 214.679 184.002Z"/><path fill="#FCFBFB" d="M642.034 245.26L672.611 245.234C672.607 250.466 673.147 271.396 672.201 275.584C662.2 275.729 651.98 276.006 642.008 275.556L642.034 245.26Z"/><path fill="#FCFBFB" d="M672.623 214.833L703.226 214.67L703.226 245.012L672.664 245.078L672.623 214.833Z"/><path fill="#FCFBFB" d="M744.181 765.092L764.403 765.054C764.573 775.13 764.539 785.209 764.302 795.284L757.574 795.368C749.727 795.452 741.879 795.451 734.032 795.366C733.789 785.286 733.73 775.202 733.855 765.12L744.181 765.092Z"/><path fill="#FCFBFB" d="M152.829 122.899C161.967 122.78 174.218 122.327 183.1 122.932C183.883 127.173 183.124 147.419 183.142 153.099C173.275 153.192 162.757 153.466 152.945 153.199C152.774 143.1 152.735 132.999 152.829 122.899Z"/><path fill="#FCFBFB" d="M91.5491 795.51L121.989 795.43C122.182 805.605 122.197 815.783 122.034 825.96L91.6789 826C91.1278 816.772 91.3595 804.815 91.5491 795.51Z"/><path fill="#FCFBFB" d="M856.176 642.62L886.722 642.62C887.042 652.892 886.792 662.883 886.588 673.145C876.522 673.254 866.455 673.188 856.392 672.948L856.176 642.62Z"/><path fill="#FCFBFB" d="M274.968 642.443C274.56 651.852 274.884 663.339 274.905 672.904C264.788 673.16 254.667 673.186 244.55 672.981C244.246 663.19 244.435 652.567 244.431 642.714C254.484 642.45 264.8 642.682 274.968 642.443Z"/><path fill="#FCFBFB" d="M833.305 611.999C841.194 611.893 848.352 611.624 856.255 612.028C856.088 621.996 856.221 632.349 856.211 642.349C853.735 642.391 851.183 642.543 848.702 642.655C841.881 642.938 833.007 642.54 826.044 642.361L825.988 612.028L833.305 611.999Z"/><path fill="#FCFBFB" d="M856.266 153.525C866.414 153.382 876.562 153.346 886.71 153.416C886.721 163.257 886.966 174.177 886.569 183.93C876.566 184.085 866.561 184.071 856.558 183.887C856.4 173.767 856.303 163.646 856.266 153.525Z"/><path fill="#FCFBFB" d="M764.573 245.353C774.804 245.258 785.036 245.237 795.268 245.29L795.22 275.644C784.974 275.9 774.723 275.879 764.478 275.583C764.457 265.507 764.488 255.43 764.573 245.353Z"/><path fill="#FCFBFB" d="M856.3 398.107C866.43 398.039 876.56 398.037 886.69 398.101C886.742 408.233 886.741 418.365 886.688 428.496C876.626 428.471 866.564 428.579 856.505 428.821C856.826 419.573 856.373 407.615 856.3 398.107Z"/><path fill="#FCFBFB" d="M187.856 765.109C195.889 764.691 205.75 764.975 213.929 765.02C214.008 773.16 214.401 786.893 213.586 794.636C212.296 795.63 211.725 795.288 209.72 795.386L183.485 795.356C183.146 790.207 182.939 770.686 183.603 766.052C185.157 764.851 185.471 765.254 187.856 765.109Z"/><path fill="#FCFBFB" d="M550.414 520.364L580.765 520.449C580.761 530.605 580.83 540.761 580.972 550.916C570.817 550.966 560.662 550.955 550.507 550.884C550.269 540.956 550.435 530.347 550.414 520.364Z"/><path fill="#FCFBFB" d="M184.073 642.577L213.809 642.545C213.73 649.218 214.345 666.641 213.556 672.295L212.521 673.016C202.888 673.328 193.101 673.071 183.452 672.917C183.39 669.012 182.569 644.521 184.073 642.577Z"/><path fill="#FCFBFB" d="M152.99 61.4082L183.136 61.3452C183.205 70.6875 183.607 82.7794 182.992 91.911C172.94 92.4034 163.029 92.1512 152.974 91.9474C152.72 81.7692 152.725 71.5862 152.99 61.4082Z"/><path fill="#FCFBFB" d="M489.319 642.686C499.489 642.602 509.658 642.597 519.828 642.671L519.861 673.168C509.676 673.284 499.491 673.259 489.307 673.095L489.319 642.686Z"/><path fill="#FCFBFB" d="M917.465 337.047L947.852 336.907C947.991 347.037 947.988 357.168 947.843 367.298C937.728 367.366 927.611 367.374 917.496 367.324C917.047 357.992 917.344 346.45 917.465 337.047Z"/><path fill="#FCFBFB" d="M275.016 612.05C285.521 611.859 295.083 611.797 305.572 612.111L305.746 642.383C296.467 642.432 283.97 642.032 274.968 642.443L275.016 612.05Z"/><path fill="#FCFBFB" d="M551.974 642.573L580.967 642.554C580.947 646.29 581.608 671.096 580.296 672.976C570.202 673.117 560.632 673.211 550.549 672.933C550.474 666.883 549.959 648.605 550.789 643.314L551.974 642.573Z"/><path fill="#FCFBFB" d="M672.631 520.355L703.226 520.458C703.226 525.568 703.752 546.69 702.783 550.762C693.718 550.697 681.601 551.44 672.915 550.593C672.301 541.414 672.617 529.731 672.631 520.355Z"/><path fill="#FCFBFB" d="M60.9046 642.775C70.9092 642.412 80.9236 642.414 90.9281 642.78C92.0927 645.391 91.4903 668.985 91.4449 673.041C81.4511 673.116 70.5539 672.799 60.728 673.155L60.9046 642.775Z"/><path fill="#FCFBFB" d="M675.036 30.8904L703.296 30.7453C703.065 37.8324 703.855 55.0648 703.013 60.7834L701.845 61.1882C692.298 61.3066 682.535 61.1922 672.97 61.1835C672.452 56.9318 671.613 34.1074 673.35 31.2846L675.036 30.8904Z"/><path fill="#FCFBFB" d="M244.502 214.843C254.756 214.594 264.634 214.779 274.767 214.628C275.226 224.169 274.941 235.284 274.913 244.936L244.441 245.125C244.429 235.152 244.276 224.782 244.502 214.843Z"/><path fill="#FCFBFB" d="M122.305 398.103L152.79 398.082C152.896 408.203 152.912 418.325 152.837 428.446L122.311 428.489C122.184 418.417 122.289 408.188 122.305 398.103Z"/><path fill="#FCFBFB" d="M886.774 336.908C886.712 347.018 886.723 357.128 886.809 367.238C876.706 367.35 866.601 367.351 856.498 367.243C856.296 357.171 856.21 347.096 856.239 337.022C866.325 336.852 876.667 336.938 886.774 336.908Z"/><path fill="#FCFBFB" d="M764.684 551.095C774.677 551.052 785.286 550.822 795.228 551.004L795.297 581.234L764.581 581.12C764.296 571.113 764.33 561.1 764.684 551.095Z"/><path fill="#FCFBFB" d="M917.344 275.737L947.869 275.804L947.891 306.131C938.162 306.15 926.94 305.882 917.345 306.2C917.633 296.598 917.348 285.466 917.344 275.737Z"/><path fill="#FCFBFB" d="M223.335 611.984C230.327 611.926 237.32 611.973 244.311 612.125L244.321 642.391L236.917 642.728L214.053 642.313C213.901 632.286 213.895 622.258 214.033 612.231L223.335 611.984Z"/><path fill="#FCFBFB" d="M489.344 30.8533C499.551 30.7907 509.646 30.6691 519.851 31.0616L519.847 61.1999C509.697 61.3192 499.545 61.3059 489.394 61.1599C489.257 51.1381 489.356 40.8944 489.344 30.8533Z"/><path fill="#FCFBFB" d="M703.299 61.4027L733.692 61.3483C733.569 71.5261 733.646 81.7054 733.923 91.8802C723.421 92.0492 713.953 92.2662 703.439 91.9081L703.299 61.4027Z"/><path fill="#FCFBFB" d="M244.782 765.23C254.819 764.975 264.86 764.917 274.899 765.056C274.873 774.451 274.51 786.189 274.918 795.393C264.779 795.474 254.64 795.442 244.502 795.297C244.44 790.633 243.926 768.117 244.782 765.23Z"/><path fill="#FCFBFB" d="M244.595 581.389L274.887 581.389C274.796 585.636 275.677 609.664 274.238 611.847C265.291 612.403 253.605 612.012 244.444 611.941C244.406 601.836 244.25 591.465 244.595 581.389Z"/><path fill="#FCFBFB" d="M180.047 612.007L182.5 612.232C183.895 614.655 183.317 637.864 183.301 642.359C173.993 642.542 164.682 642.555 155.373 642.399C154.504 642.41 154.293 642.237 153.417 641.971C152.072 638.76 152.875 617.259 152.958 612.253L180.047 612.007Z"/><path fill="#FCFBFB" d="M519.936 917.829L550.501 917.502C550.453 926.802 550.72 939.107 550.024 948.146C539.982 948.328 529.937 948.362 519.894 948.247L519.936 917.829Z"/><path fill="#FCFBFB" d="M917.446 398.07L947.911 398.025C948.393 407.102 948.058 419.09 947.846 428.301C937.741 428.264 927.637 428.34 917.534 428.53C917.369 418.378 917.34 408.223 917.446 398.07Z"/><path fill="#FCFBFB" d="M672.623 459.216L703.229 459.228L703.22 489.531L672.721 489.531C672.405 479.853 672.632 468.985 672.623 459.216Z"/><path fill="#FCFBFB" d="M186.773 30.8582L213.892 30.8158C213.687 36.2584 214.702 58.0167 212.952 60.9192L210.786 61.2305C201.632 61.2863 192.478 61.2668 183.325 61.1721C183.2 56.9708 182.548 32.9476 183.997 31.1431L186.773 30.8582Z"/><path fill="#FCFBFB" d="M713.599 611.994C720.282 612.096 726.966 612.073 733.649 611.927C733.647 622.055 733.742 632.182 733.934 642.308L726.959 642.387C719.063 642.487 711.167 642.459 703.273 642.304L703.46 612.187L713.599 611.994Z"/><path fill="#FCFBFB" d="M183.315 887.271L213.796 887.292C213.897 897.388 213.855 907.484 213.668 917.578C203.573 917.733 193.476 917.751 183.38 917.633C183.182 907.691 183.329 897.253 183.315 887.271Z"/><path fill="#FCFBFB" d="M244.494 826.146L274.888 826.22C274.985 836.27 274.962 846.321 274.821 856.37C264.726 856.493 254.631 856.532 244.535 856.487C244.247 846.468 244.427 836.189 244.494 826.146Z"/><path fill="#FCFBFB" d="M244.363 92.1712L274.919 92.3796L274.875 122.727C264.798 122.895 254.719 122.884 244.642 122.695C244.378 112.522 244.285 102.347 244.363 92.1712Z"/><path fill="#FCFBFB" d="M825.977 489.795L856.238 489.85C856.413 499.68 856.594 510.474 856.248 520.287L825.982 520.308L825.977 489.795Z"/><path fill="#FCFBFB" d="M915.864 428.922L916.716 428.971C918.063 430.891 917.34 455.002 917.299 459.145L888.445 459.205L887.803 458.996C886.252 456.996 886.911 433.24 886.929 428.926L915.864 428.922Z"/><path fill="#FCFBFB" d="M825.98 367.407L856.305 367.505C856.263 377.472 856.409 388.058 856.163 397.969C846.145 397.984 836.127 398.085 826.11 398.275C826.058 388.024 825.918 377.647 825.98 367.407Z"/><path fill="#FCFBFB" d="M458.795 551.057C468.733 550.856 479.286 551.054 489.271 551.075C489.304 561.087 489.281 571.098 489.201 581.11C479.064 581.265 468.926 581.262 458.789 581.1C458.649 571.086 458.651 561.071 458.795 551.057Z"/><path fill="#FCFBFB" d="M672.649 337.106L703.226 337.08C703.253 341.371 702.452 365.222 703.916 367.621C700.831 367.049 677.481 367.293 672.779 367.295C672.329 357.933 672.629 346.616 672.649 337.106Z"/><path fill="#FCFBFB" d="M886.783 275.718C886.298 284.365 886.755 297.178 886.794 306.137C881.905 306.198 860.335 306.72 856.403 305.746L856.304 276.153C865.584 275.453 877.376 275.697 886.783 275.718Z"/><path fill="#FCFBFB" d="M825.972 245.157C836.101 245.004 846.232 245.019 856.361 245.203L856.16 275.695C846.098 275.813 836.034 275.795 825.972 275.641L825.972 245.157Z"/><path fill="#FCFBFB" d="M60.8272 765.201C71.0659 765.086 81.3056 765.118 91.5434 765.298L91.3605 795.319C81.4321 795.536 70.9141 795.377 60.9388 795.392C60.5513 785.481 60.7625 775.152 60.8272 765.201Z"/><path fill="#FCFBFB" d="M826.012 306.202L856.384 306.286L856.16 336.84C846.781 336.82 835.212 336.462 826.02 336.82L826.012 306.202Z"/><path fill="#FCFBFB" d="M733.853 153.388L764.406 153.388C764.469 163.573 764.457 173.757 764.37 183.941L734.014 183.991C733.67 174.122 733.862 163.329 733.853 153.388Z"/><path fill="#FCFBFB" d="M152.99 367.539L183.25 367.409C183.079 377.417 183.28 387.902 183.326 397.946L152.988 397.967C152.712 387.826 152.712 377.68 152.99 367.539Z"/><path fill="#FCFBFB" d="M741.138 30.8877C748.947 30.8375 756.755 30.8848 764.562 31.0296C764.148 40.1723 764.933 51.7137 764.05 60.3218C762.873 61.4941 762.851 61.0897 760.636 61.1908L733.906 61.1956C733.429 52.5333 733.856 40.131 733.899 31.219L741.138 30.8877Z"/><path fill="#FCFBFB" d="M733.971 214.815C744.132 214.665 754.294 214.608 764.456 214.643L764.456 245.032C754.281 245.092 744.106 245.073 733.931 244.975C733.838 234.922 733.852 224.868 733.971 214.815Z"/><path fill="#FCFBFB" d="M917.545 459.267C927.668 459.067 937.795 459.05 947.919 459.215L947.991 489.769L917.545 489.531L917.545 459.267Z"/><path fill="#FCFBFB" d="M856.559 826.252C866.596 826.128 876.635 826.113 886.672 826.207C886.831 834.275 887.375 848.596 886.402 856.467L856.349 856.41C856.209 846.626 856.116 835.996 856.559 826.252Z"/><path fill="#FCFBFB" d="M856.309 31.1409C865.422 30.5921 877.456 30.9241 886.789 30.9275C886.679 41.008 886.683 51.0894 886.801 61.1698C876.633 61.2223 866.464 61.2218 856.296 61.1685C856.499 51.3157 856.333 41.0276 856.309 31.1409Z"/><path fill="#FCFBFB" d="M856.372 92.3827L886.773 92.3131L886.682 122.739C876.56 122.819 866.436 122.787 856.314 122.642L856.372 92.3827Z"/><path fill="#FCFBFB" d="M886.929 61.2963C896.343 61.5686 908.527 60.8761 917.389 61.5851L917.381 91.8527C906.93 92.0449 897.43 92.1544 886.929 92.0234L886.929 61.2963Z"/><path fill="#FCFBFB" d="M948.16 489.858L978.655 489.839C978.375 499.65 978.646 510.157 978.49 520.147L948.16 520.147L948.16 489.858Z"/><path fill="#FCFBFB" d="M672.649 275.876L703.246 275.849C703.194 280.333 702.508 304.072 703.918 306.404C700.627 305.795 677.338 306.151 672.924 306.174C672.262 297.15 672.618 285.137 672.649 275.876Z"/><path fill="#FCFBFB" d="M213.945 795.481L244.352 795.484C244.442 805.638 244.437 815.792 244.338 825.946L214.173 826.022C213.913 815.844 213.838 805.662 213.945 795.481Z"/><path fill="#FCFBFB" d="M703.462 245.272L733.693 245.234L733.829 275.538C724.114 276.093 713.081 275.876 703.372 275.576C703.292 265.519 703.417 255.34 703.462 245.272Z"/><path fill="#FCFBFB" d="M826.007 184.057C836.126 183.981 846.245 183.995 856.364 184.097C856.397 194.205 856.342 204.313 856.198 214.42L826.022 214.456L826.007 184.057Z"/><path fill="#FCFBFB" d="M703.291 122.993C713.315 122.668 723.654 122.862 733.708 122.933L733.74 153.088C724.154 153.26 712.843 153.723 703.414 153.214C703.24 143.219 703.318 133.006 703.291 122.993Z"/><path fill="#FCFBFB" d="M703.341 428.671C713.135 428.687 724.061 428.949 733.761 428.663C733.666 438.84 733.667 449.018 733.766 459.195L703.394 459.163L703.341 428.671Z"/><path fill="#FCFBFB" d="M877.7 214.608C880.688 214.608 883.675 214.586 886.662 214.542L886.757 244.972C879.721 245.083 872.683 245.148 865.646 245.169L856.52 245.026C856.168 235.219 856.448 224.852 856.21 214.869C863.283 214.679 870.605 214.688 877.7 214.608Z"/><path fill="#FCFBFB" d="M703.341 184.024L733.658 184.06L733.866 214.372C723.684 214.465 713.501 214.467 703.319 214.378L703.341 184.024Z"/><path fill="#FCFBFB" d="M672.694 826.311L703.226 826.311C703.257 834.288 703.711 848.8 702.983 856.302C692.922 856.504 682.857 856.504 672.796 856.302C672.409 846.592 672.643 836.089 672.694 826.311Z"/><path fill="#FCFBFB" d="M397.698 673.318C407.664 673.138 417.956 673.251 427.948 673.235C428.043 683.143 428.229 693.735 427.902 703.589C417.352 703.784 408.322 703.895 397.737 703.573L397.698 673.318Z"/><path fill="#FCFBFB" d="M826.04 856.624L856.199 856.609C856.293 866.773 856.286 876.937 856.18 887.101L826.039 887.077C825.836 877.057 826.003 866.673 826.04 856.624Z"/><path fill="#FCFBFB" d="M886.929 123.048C897.124 122.875 907.319 122.803 917.515 122.832C917.341 132.863 917.435 143.035 917.32 153.105C907.195 153.325 897.066 153.326 886.94 153.106L886.929 123.048Z"/><path fill="#FCFBFB" d="M703.338 551.099C713.444 551.019 723.551 551.029 733.657 551.129C733.635 561.12 733.717 571.11 733.901 581.099C723.717 581.258 713.531 581.257 703.348 581.098C703.287 571.099 703.284 561.099 703.338 551.099Z"/><path fill="#FCFBFB" d="M520.159 489.852L550.412 489.792C550.512 499.91 550.495 510.029 550.362 520.147L520.159 520.147L520.159 489.852Z"/><path fill="#FCFBFB" d="M703.29 489.862C713.279 489.668 723.675 489.834 733.696 489.86C733.36 499.072 733.783 510.575 733.686 520.147L703.409 520.147C703.16 510.175 703.288 499.862 703.29 489.862Z"/><path fill="#FCFBFB" d="M397.698 612.275C407.793 612.087 417.891 612.052 427.988 612.168C428.062 622.243 428.072 632.318 428.017 642.392C417.911 642.532 407.804 642.533 397.698 642.397L397.698 612.275Z"/><path fill="#FCFBFB" d="M825.982 550.93L856.403 551.125C856.22 561.115 856.149 571.106 856.19 581.097C846.133 581.248 836.075 581.278 826.018 581.188L825.982 550.93Z"/><path fill="#FCFBFB" d="M611.378 214.767C620.898 214.372 632.278 214.642 641.94 214.622L641.995 244.961C631.841 245.216 621.682 245.225 611.527 244.989L611.378 214.767Z"/><path fill="#FCFBFB" d="M795.328 887.238L825.84 887.259C825.333 896.257 825.682 908.306 825.687 917.532L795.342 917.513C795.26 907.422 795.255 897.33 795.328 887.238Z"/><path fill="#FCFBFB" d="M428.09 734.26L428 762.932C418.595 762.941 407.865 762.713 398.569 763.122C398.16 762.428 397.752 761.733 397.343 761.039C397.215 753.237 397.387 741.941 397.672 734.482C407.166 734.673 418.616 734.52 428.09 734.26Z"/></svg>