<?xml version="1.0" encoding="utf-8" ?><svg xmlns="http://www.w3.org/2000/svg" xmlns:xlink="http://www.w3.org/1999/xlink" width="1254" height="1254" viewBox="0 0 1254 1254"><path fill="#FBFBFB" d="M0 0L1254 0L1254 1254L0 1254L0 0Z"/><path fill="#00365E" d="M654.312 212.753L655.029 212.736C737.532 211.329 817.286 242.388 877.108 299.22C932.607 352.946 964.603 426.443 966.114 503.672C966.997 568.904 947.984 632.856 911.609 687.011C878.293 737.144 842.144 768.571 836.975 834C835.922 847.325 836.309 859.953 836.309 873.291L836.3 933.566C836.312 944.625 837.034 956.957 835.807 967.795C833.76 985.887 811.132 982.429 798.372 982.44L754.305 982.444L603.273 982.395L540.063 982.458C529.821 982.468 519.196 982.882 509.043 982.047C502.054 981.12 496.151 975.632 494.761 968.714C492.893 962.169 494.811 954.971 494.012 948.509C491.821 930.795 501.493 897.387 482.262 887.376C477.021 884.648 467.242 885.062 461.622 885.092L432.393 885.273C409.032 885.419 390.759 884.84 372.667 867.32C364.314 859.374 358.348 849.252 355.443 838.096C352.19 825.711 353.333 809.759 353.244 796.683C353.081 772.697 353.571 748.546 353.341 724.559C353.325 722.89 352.96 721.113 351.37 720.587C340.962 717.141 327.623 720.028 316.38 717.754C309.424 716.367 302.992 713.067 297.808 708.225C276.741 688.276 291.061 663.256 300.817 642.446L334.382 570.967C336.799 565.807 348.247 543.417 348.71 538.941C350.205 524.491 348.332 502.135 349.269 487.242C352.85 420.579 379.895 357.332 425.619 308.689C487.076 244.568 566.432 214.702 654.312 212.753Z"/><path fill="#FBFBFB" d="M651.93 236.019C654.131 235.983 656.332 235.979 658.533 236.006C882.441 237.709 1014.61 464.666 902.171 658.07C876.234 702.682 839.732 735.84 823.691 785.938C812.241 821.699 813.526 849.699 813.571 886.462C813.683 910.812 813.669 935.162 813.531 959.512L600.711 959.524L517.164 959.543C516.418 934.369 522.844 897.361 506.185 877.35C479.705 845.544 420.492 876.677 391.128 852.926C384.594 847.691 379.895 840.511 377.713 832.426C375.401 823.969 376.103 810.576 376.127 801.519L376.24 748.633C376.279 714.415 379.194 693.714 333.895 696.201C325.651 697.951 308.128 693.742 309.598 682.255C311.009 671.234 323.276 648.844 328.216 638.378L363.669 563.027C365.197 559.746 369.953 549.683 370.489 546.689C373.285 531.07 371.155 511.595 371.68 495.352C373.769 432.773 398.29 373.031 440.769 327.031C495.883 267.845 572.03 238.77 651.93 236.019Z"/><path fill="#00365E" d="M651.715 481.452C661.707 480.3 671.81 482.257 680.65 487.056C693.936 494.379 700.902 505.085 704.997 519.296L789.082 519.305C802.675 519.295 816.66 518.925 830.258 519.472C832.084 519.545 834.306 520.193 835.705 521.443C841.909 526.989 839.834 537.387 831.145 538.534C817.339 539.201 803.245 538.882 789.387 538.862L705.086 538.823C699.88 561.56 684.677 574.392 662.043 577.975C635.072 579.592 615.58 564.876 609.099 538.86L522.032 538.817C509.328 538.827 495.92 539.166 483.224 538.713C481.044 538.635 478.961 537.826 477.275 536.389C475.376 534.757 474.196 532.443 473.991 529.947C473.779 527.168 474.773 524.433 476.719 522.438C480.266 518.768 485.603 519.278 490.339 519.259C500.752 519.219 511.215 519.253 521.624 519.263L609.225 519.27C610.693 512.711 613.501 506.527 617.472 501.104C626.188 489.225 637.469 483.663 651.715 481.452Z"/><path fill="#FBFBFB" d="M654.122 499.722C670.572 498.132 685.225 510.107 686.943 526.543C688.662 542.98 676.802 557.726 660.38 559.573C643.774 561.44 628.828 549.42 627.091 532.801C625.353 516.181 637.49 501.33 654.122 499.722Z"/><path fill="#00365E" d="M582.729 610.092C609.721 608.598 626.77 623.38 634.587 648.307C674.039 647.769 714.15 648.17 753.631 648.166L794.608 648.171C801.636 648.175 809.211 647.902 816.194 648.421C827.339 649.25 826.905 667.173 815.494 667.396C802.648 667.646 789.732 667.419 776.876 667.42L693.435 667.44L634.654 667.429C633.173 673.688 631.728 678.235 628.334 683.741C621.54 694.757 610.658 702.632 598.07 705.643C569.91 712.312 544.788 695.274 538.397 667.43C530.458 667.402 497.284 669.227 492.512 665.354C490.203 663.479 488.687 660.12 488.591 657.166C488.526 655.17 489.33 653.419 490.72 652.027C492.58 650.166 495.14 649.152 497.678 648.632C506.403 646.844 528.394 648.192 538.482 648.271C544.84 626.131 559.431 612.452 582.729 610.092Z"/><path fill="#FBFBFB" d="M583.194 628.43C599.597 626.589 614.426 638.293 616.446 654.675C618.466 671.057 606.925 686.013 590.566 688.212C579.823 689.656 569.134 685.217 562.574 676.587C556.015 667.958 554.599 656.47 558.865 646.506C563.131 636.542 572.423 629.638 583.194 628.43Z"/><path fill="#00365E" d="M735.832 352.344C760.775 351.586 778.422 367.582 785.07 390.733C800.844 390.609 816.619 390.629 832.392 390.792C833.562 391.49 834.683 392.268 835.746 393.12C838.056 395.008 839.272 397.493 839.396 400.415C839.813 410.216 827.874 410.413 821.25 410.329C809.148 410.177 797.238 410.128 785.242 410.214C783.7 416.159 782.564 419.954 779.451 425.335C772.951 436.455 762.281 444.52 749.809 447.74C736.737 451.151 722.84 449.103 711.308 442.065C698.646 434.384 692.704 424.001 689.231 410.102L656.021 410.163L565.511 410.138C551.796 410.124 537.442 410.408 523.735 410.119C519.292 409.923 512.152 406.462 512.159 401.3C512.176 387.712 531.376 390.613 539.79 390.634L572.463 390.698L689.156 390.684C696.331 367.1 710.979 354.258 735.832 352.344Z"/><path fill="#FBFBFB" d="M731.895 371.211C748.305 368.283 763.979 379.219 766.895 395.631C769.811 412.043 758.862 427.709 742.448 430.612C726.052 433.511 710.407 422.578 707.495 406.184C704.582 389.79 715.504 374.137 731.895 371.211Z"/></svg>