<?xml version="1.0" encoding="utf-8" ?><svg xmlns="http://www.w3.org/2000/svg" xmlns:xlink="http://www.w3.org/1999/xlink" width="1254" height="1254" viewBox="0 0 1254 1254"><path fill="#FCFCFC" d="M0 0L1254 0L1254 1254L0 1254L0 0Z"/><path fill="#003E50" d="M611.588 292.949C645.925 290.904 680.356 294.891 713.317 304.73C719.043 306.416 740.084 315.314 742.985 315.221C766.816 314.168 787.275 297.068 810.595 294.665C819.08 293.79 827.761 300.068 826.558 309.417C824.197 327.76 814.828 341.404 801.721 353.886C821.916 374.724 836.738 400.162 844.908 428.007C858.009 472.078 851.985 517.278 830.309 557.368C833.438 562.176 837.442 569.476 840.03 574.65C865.839 625.817 869.762 685.273 850.899 739.388C835.731 783.922 801.618 830.984 765.614 861.665C756.774 869.199 736.232 880.744 725.731 885.881C725.81 897.464 727.299 910.329 719.474 919.56C714.887 924.91 708.286 928.118 701.245 928.42C693.845 928.781 688.256 926.429 682.814 921.628C677.386 925.818 672.573 928.428 665.395 928.466C658.799 928.522 652.462 925.9 647.833 921.201C640.501 913.781 639.822 906.014 639.923 896.432L639.338 895.834C636.12 895.203 618.732 895.429 614.121 895.378C614.155 900.66 614.375 905.145 612.727 910.274C606.915 928.367 585.778 934.819 571.421 921.602C560.424 930.492 545.797 931.06 535.367 920.679C526.332 911.687 528.012 897.937 528.215 886.176C520.138 881.937 512.087 877.555 504.406 872.626C453.781 840.136 408.843 773.684 396.112 714.776C384.31 660.712 394.246 604.174 423.774 557.373C386.554 487.706 398.665 411.103 452.023 353.967C449.049 351.269 446.243 348.39 443.623 345.347C436.832 337.378 426.148 318.145 427.295 307.975C429.421 289.126 450.758 294.63 461.721 299.315C479.13 306.756 493.613 312.927 511.858 315.639C546.801 300.762 573.888 294.902 611.588 292.949Z"/><path fill="#FCFCFC" d="M635.179 481.392C634.95 462.79 637.245 454.302 645.666 437.307C662.936 402.451 699.474 373.315 738.454 368.156C758.61 365.489 765.342 369.32 786.989 362.442C809.007 383.774 824.449 410.97 831.485 440.809C850.713 520.953 800.136 595.065 729.545 628.343C716.302 634.586 709.823 640.634 702.286 652.961C670.3 710.179 694.2 792.958 734.682 840.079C738.927 845.02 743.364 849.64 747.92 854.282C739.083 860.332 730.692 865.02 721.333 870.149C714.952 859.725 707.734 853.009 695.749 849.372C684.143 845.791 671.587 847.002 660.88 852.735C649.553 858.865 644.27 867.221 640.781 879.267L613.398 879.296C610.444 868.427 605.146 860.294 595.431 854.194C584.999 847.78 572.443 845.786 560.537 848.652C547.032 851.908 539.747 858.884 532.759 870.322C522.558 864.761 515.738 860.712 506.184 854.094C543.094 817.133 566.157 768.395 566.337 715.678C566.342 701.663 564.403 687.715 560.576 674.234C550.884 639.328 538.11 636.209 509.445 620.29C413.099 566.786 384.496 443.711 466.887 362.464C483.403 369.679 502.613 365.334 519.82 368.686C550.38 374.821 578.036 393.127 596.414 418.207C612.058 439.557 619.045 455.185 618.767 481.287C614.187 482.421 611.211 483.238 606.979 485.409C596.52 490.66 588.63 499.917 585.101 511.075C580.847 524.649 583.71 537.495 590.296 549.752C596.353 561.024 611.932 586.675 620.495 595.115C621.817 596.417 623.201 597.203 624.994 597.67C627.052 598.207 629.021 598.035 630.867 596.948C640.147 591.48 667 545.321 669.743 533.776C672.335 522.87 670.097 510.717 664.16 501.258C657.351 490.409 647.465 484.272 635.179 481.392Z"/><path fill="#003E50" d="M514.788 426.657C541.901 425.129 565.108 445.894 566.592 473.01C568.075 500.126 547.272 523.299 520.154 524.738C493.099 526.175 469.99 505.43 468.51 478.377C467.03 451.323 487.737 428.181 514.788 426.657Z"/><path fill="#FCFCFC" d="M514.455 442.979C532.463 441.295 548.439 454.496 550.181 472.499C551.922 490.501 538.773 506.52 520.776 508.32C502.697 510.128 486.589 496.905 484.839 478.82C483.09 460.735 496.365 444.67 514.455 442.979Z"/><path fill="#003E50" d="M513.796 459.523C522.606 457.528 531.379 463.004 533.456 471.795C535.534 480.586 530.141 489.409 521.37 491.57C512.481 493.759 503.513 488.278 501.408 479.369C499.302 470.46 504.868 461.544 513.796 459.523Z"/><path fill="#003E50" d="M733.78 426.605C760.869 425.227 783.944 446.074 785.315 473.163C786.687 500.252 765.835 523.322 738.746 524.687C711.666 526.051 688.605 505.208 687.234 478.128C685.863 451.049 706.7 427.983 733.78 426.605Z"/><path fill="#FCFCFC" d="M732.658 443.038C750.576 441.004 766.783 453.799 768.963 471.701C771.143 489.602 758.48 505.912 740.597 508.237C722.507 510.59 705.967 497.748 703.762 479.64C701.557 461.531 714.532 445.096 732.658 443.038Z"/><path fill="#003E50" d="M732.392 459.574C741.256 457.494 750.129 462.986 752.221 471.847C754.313 480.708 748.833 489.589 739.975 491.693C731.1 493.801 722.198 488.308 720.102 479.43C718.006 470.552 723.511 461.658 732.392 459.574Z"/><path fill="#FCFCFC" d="M433.171 573.381C435.012 574.736 444.218 587.053 446.54 589.654C453.82 597.814 461.044 605.522 469.572 612.463C480.223 621.132 490.356 628.337 502.222 635.17C509.649 639.447 522.421 644.812 528.553 649.768C541.598 660.314 547.478 684.6 549.088 700.442C553.796 746.78 536.973 792.344 508.055 828.029C503.975 833.23 497.613 839.46 492.907 844.101C444.342 797.172 406.162 737.589 407.474 667.649C408.067 636.018 416.678 600.588 433.171 573.381Z"/><path fill="#FCFCFC" d="M820.218 573.226C822.769 575.782 827.451 585.885 829.054 589.534C840.613 615.437 846.511 643.508 846.353 671.873C845.743 741.462 809.18 796.875 761.115 843.998C755.524 839.157 750.481 833.424 745.601 827.875C725.397 804.355 709.797 767.95 705.45 737.175C701.851 711.693 704.374 670.708 723.863 651.063C728.522 646.366 745.205 638.83 752.312 634.753C781.329 618.109 800.375 599.75 820.218 573.226Z"/><path fill="#FCFCFC" d="M607.358 309.469C634.458 306.955 672.229 310.447 698.735 317.462C709.147 320.217 737.196 332.108 744.293 331.661C768.163 330.158 787.658 315.903 810.383 310.803C804.325 328.324 796.177 342.548 777.405 348.098C766.227 351.402 756.338 350.523 744.95 351.166C736.299 351.647 727.729 353.09 719.398 355.471C681.736 366.056 652.534 392.041 633.718 425.817C631.53 429.777 629.092 435.246 627.088 439.413C607.168 393.138 566.324 358.059 515.545 351.443C500.188 349.769 486.113 353.154 471.508 346.491C454.902 338.915 449.366 326.748 443.211 310.658C458.291 314.173 503.318 336.29 515.88 331.11C547.524 318.063 573.397 312.145 607.358 309.469Z"/><path fill="#FCFCFC" d="M623.633 497.339C638.301 496.114 651.776 504.967 654.166 519.477C656.913 536.155 637.621 561.197 628.748 574.404C628.414 574.917 627.806 575.374 627.316 575.815C623.424 573.801 612.764 555.026 609.825 550.618C601.395 537.978 593.79 523.515 603.806 509.142C609.161 501.457 614.884 498.981 623.633 497.339Z"/><path fill="#FCFCFC" d="M566.54 864.058L567.349 863.976C583.373 862.46 597.429 870.737 598.287 887.777C598.642 894.817 599.588 903.648 594.757 909.3C590.476 914.308 581.509 912.529 579.899 906.217C578.668 901.391 579.586 900.096 575.831 896.3C560.126 890.836 565.599 910.332 557.205 911.948C544.842 914.329 543.567 902.953 543.904 893.649C544.502 877.17 549.817 867.72 566.54 864.058Z"/><path fill="#FCFCFC" d="M677.187 864.082C686.905 863.287 695.109 864.564 702.84 871.685C710.791 879.008 713.346 901.826 705.516 910.065C701.582 914.265 693.639 912.254 691.666 907.227C689.711 902.247 691.442 900.983 687.528 896.649C673.092 890.633 676.928 907.462 668.613 912.338C665.211 914.333 656.701 909.268 656.38 905.574C654.661 885.779 654.122 869.649 677.187 864.082Z"/></svg>