<?xml version="1.0" encoding="utf-8" ?><svg xmlns="http://www.w3.org/2000/svg" xmlns:xlink="http://www.w3.org/1999/xlink" width="1254" height="1254" viewBox="0 0 1254 1254"><path fill="#FEFEFE" d="M0 0L1254 0L1254 1254L0 1254L0 0Z"/><path fill="#003858" d="M333.321 339.466C344.428 338.298 361.609 339.275 373.057 339.286L446.981 339.28L681.117 339.265L847.026 339.276L895.048 339.239C926.01 339.226 946.078 338.46 971.442 359.816C989.267 374.742 1000.31 396.233 1002.07 419.416C1002.71 427.133 1002.44 437.838 1002.44 445.831L1002.41 490.198L1002.43 629.624L1002.4 729.577C1002.41 741.94 1003.12 771.656 1001.52 782.12C999.166 798.602 992.12 814.059 981.226 826.651C965.875 844.516 945.2 854.529 921.825 856.216C909.875 857.393 892.917 856.538 880.6 856.535L806.124 856.518L575.443 856.521L408.536 856.508L360.038 856.526C329.084 856.53 308.36 857.438 283.02 836.188C265.365 821.341 254.407 800.029 252.606 777.031C251.927 769.351 252.217 758.135 252.225 750.207L252.245 707.125L252.246 568.472L252.231 467.181C252.221 454.333 251.444 424.918 253.129 413.667C255.556 397.609 262.377 382.535 272.839 370.114C288.465 351.677 309.374 341.416 333.321 339.466Z"/><path fill="#FEFEFE" d="M275.414 528.365L979.61 528.34L979.506 701.114C979.495 723.738 979.72 746.499 979.505 769.115C979.311 789.511 971.373 804.155 956.843 817.986C936.888 833.689 922.291 833.48 897.703 833.061C888.522 832.905 878.453 833.056 869.229 833.078L751.01 833.113L346.808 833.109C324.887 833.065 309.702 830.604 293.307 813.921C284.424 804.88 278.5 793.353 276.32 780.867C274.814 772.369 275.294 759.05 275.328 750.136L275.413 705.705L275.414 528.365Z"/><path fill="#003858" d="M762.642 695.233C779.098 695.292 901.709 694.042 906.725 696.205C909.759 697.513 912.281 700.284 913.265 703.433C914.18 706.363 913.914 709.821 912.338 712.484C910.383 715.786 907.396 717.504 903.77 718.414L809.863 718.457C793.802 718.464 778.015 718.638 761.721 718.307C751.119 718.092 747.091 708.325 752.509 699.607C754.34 696.659 759.315 695.515 762.642 695.233Z"/><path fill="#FEFEFE" d="M331.171 363.298C335.518 362.864 341.105 362.927 345.537 362.903L747.464 362.935L866.316 362.91L901.456 362.893C926.206 362.898 941.85 362.928 960.659 381.786C982.753 403.938 979.6 427.552 979.576 456.239L979.508 504.357C961.071 504.673 942.036 504.445 923.553 504.45L275.183 504.464C275.806 481.951 275.157 459.331 275.292 436.806C275.34 428.783 275.085 421.038 276.761 413.134C278.666 404.232 282.463 395.844 287.895 388.539C298.775 373.923 313.373 366.015 331.171 363.298Z"/></svg>