<?xml version="1.0" encoding="utf-8" ?><svg xmlns="http://www.w3.org/2000/svg" xmlns:xlink="http://www.w3.org/1999/xlink" width="1254" height="1254" viewBox="0 0 1254 1254"><path fill="#F4F3F3" d="M0 0L39.0504 0L77.0121 0L114.733 0L152.922 0L190.491 0L228.369 0L266.12 0L303.938 0L341.764 0L379.641 0L417.497 0L455.198 0L493.274 0L530.85 0L568.843 0L606.725 0L644.303 0L682.248 0L720.176 0L757.975 0L795.587 0L833.583 0L871.37 0L908.932 0L946.734 0L984.84 0L1098.33 0L1136.35 0L1174.02 0L1211.88 0L1249.81 0L1254 0L1254 38.3123L1254 76.3226L1254 114.217L1254 152.727L1254 190.444L1254 228.541L1254 266.484L1254 304.766L1254 342.629L1254 380.612L1254 418.454L1254 456.569L1254 494.337L1254 532.471L1254 570.577L1254 608.449L1254 646.472L1254 683.817L1254 722.312L1254 760.056L1254 797.823L1254 835.883L1254 874.287L1254 912.114L1254 949.896L1254 987.935L1254 1025.84L1254 1063.81L1254 1101.55L1254 1139.55L1254 1177.87L1254 1215.78L1254 1254L1249.76 1254L1211.82 1254L1174.1 1254L1136.31 1254L1098.41 1254L984.7 1254L946.703 1254L909.028 1254L871.338 1254L833.647 1254L795.696 1254L757.866 1254L720.209 1254L682.227 1254L644.373 1254L606.715 1254L568.825 1254L530.786 1254L493.276 1254L455.461 1254L417.333 1254L379.637 1254L341.776 1254L303.928 1254L266.215 1254L228.27 1254L190.515 1254L152.795 1254L114.8 1254L77.0293 1254L38.9908 1254L0 1254L0 1215.95L0 1178.07L0 1139.93L0 1102.01L0 1063.59L0 1026.2L0 988.025L0 949.792L0 911.932L0 873.953L0 835.84L0 797.898L0 759.299L0 722.388L0 683.382L0 646.238L0 608.515L0 570.401L0 532.349L0 494.318L0 456.208L0 418.649L0 380.307L0 342.709L0 304.34L0 266.497L0 228.278L0 190.439L0 152.417L0 114.522L0 76.1156L0 38.548L0 0Z"/><path fill="#013F51" d="M611.182 285.483C620.43 285.269 629.68 285.274 638.927 285.497C667.698 287.468 693.666 291.478 721.172 300.306C730.666 303.353 740.172 307.792 749.339 310.748C790.839 330.374 818.03 348.086 851 381.065C912.698 444.401 946.082 530.045 943.521 618.427C943.347 627.132 942.423 637.334 941.444 646.059C939.932 658.79 937.664 671.421 934.65 683.883C919.383 748.251 884.62 806.337 835.11 850.212C824.28 859.831 812.73 868.357 800.726 876.403C799.71 877.084 794.608 880.45 794.006 881.168C781.618 888.356 770.926 894.537 757.888 900.561C707.174 923.317 661.39 932.528 605.534 929.481C593.235 928.6 580.994 927.036 568.869 924.796C560.893 923.301 552.976 921.502 545.137 919.403C472.403 900.123 408.249 852.294 362.739 792.793C354.862 782.494 348.062 771.046 341.543 759.851C334.263 745.332 330.33 737.007 324.235 721.705C317.236 702.974 311.953 683.647 308.452 663.961C292.695 577.259 314.607 491.299 364.525 419.441C369.956 412.174 374.812 405.751 380.658 398.836C420.834 351.006 474.264 316.132 534.22 298.606C545.178 295.322 555.591 292.983 566.76 290.656C581.461 288.115 596.291 286.389 611.182 285.483Z"/><path fill="#FDFDFD" d="M916.62 649.776C897.641 781.127 793.433 883.721 661.802 900.648C530.171 917.575 403.397 844.685 351.802 722.409C300.207 600.134 336.445 458.46 440.414 375.975C544.382 293.489 690.585 290.421 797.922 368.472C802.975 372.147 807.911 375.98 812.721 379.967C880.457 436.116 919.657 519.524 919.658 607.506C919.658 621.651 918.643 635.777 916.62 649.776Z"/><path fill="#F4F3F3" d="M919.658 607.506C919.658 621.651 918.643 635.777 916.62 649.776C916.316 648.025 916.413 647.978 915.526 646.478C913.699 645.663 911.434 646.297 909.354 646.617C909.479 634.011 909.292 620.98 909.254 608.345C912.971 607.926 915.915 607.671 919.658 607.506Z"/><path fill="#F4F3F3" d="M797.922 368.472C802.975 372.147 807.911 375.98 812.721 379.967C807.984 381.094 801.009 380.527 795.943 380.356C795.929 376.119 795.258 371.492 797.922 368.472Z"/><path fill="#013F51" d="M785.092 512.613L731.597 512.63C723.293 512.635 714.54 512.922 706.299 512.275C700.126 511.791 696.139 505.335 696.273 499.523C696.376 496.15 697.831 492.96 700.311 490.671C705.179 486.121 716.751 487.339 723.275 487.339L753.35 487.372L793.089 487.374C827.047 487.388 825.489 485.144 825.502 518.791L825.526 559.283L825.562 592.033C825.562 596.166 825.784 604.876 825.317 608.773C824.943 611.924 823.315 614.79 820.801 616.725C813.355 622.513 801.214 617.387 801.038 608.532C800.535 583.217 801.295 557.783 800.915 532.457L692.535 643.637L656.462 680.303C649.787 687.07 643.044 694.269 635.933 700.55C630.919 704.979 624.046 704.678 619.076 700.241C609.945 692.091 601.415 683.155 592.745 674.471L541.445 623.461C538.002 626.931 531.923 632.71 528.83 636.195C526.032 638.999 522.582 642.272 519.935 645.127C491.405 672.767 458.898 707.476 429.768 735.273C422.755 741.965 409.578 736.943 409.846 723.605C410.442 721.665 411.213 719.414 412.568 717.887C426.515 702.173 443.001 688.179 456.951 672.503C483.378 647.613 507.703 619.664 534.78 595.453C539.481 591.249 547.043 594.042 551.128 597.775C560.511 606.35 569.393 615.471 578.388 624.456L627.926 673.501L644.935 656.165L644.69 646.357C648.089 646.48 650.425 646.678 653.786 647.062C663.845 637.166 674.116 626.334 684.032 616.209C682.374 613.866 681.725 610.957 684.081 608.933C686.622 608.145 688.448 608.634 691.103 608.973L721.099 578.229C720.735 575.37 720.01 573.042 721.596 570.918C723.633 570.402 725.231 571.196 727.307 571.839L785.092 512.613Z"/><path fill="#F4F3F3" d="M644.69 646.357C648.089 646.48 650.425 646.678 653.786 647.062L644.935 656.165L644.69 646.357Z"/><path fill="#F4F3F3" d="M684.032 616.209C682.374 613.866 681.725 610.957 684.081 608.933C686.622 608.145 688.448 608.634 691.103 608.973L684.032 616.209Z"/><path fill="#F4F3F3" d="M721.099 578.229C720.735 575.37 720.01 573.042 721.596 570.918C723.633 570.402 725.231 571.196 727.307 571.839L721.099 578.229Z"/><path fill="#F4F3F3" d="M341.924 570.66C354.472 570.767 367.022 570.701 379.568 570.464C379.388 583.171 379.405 595.879 379.619 608.585C392.103 608.749 404.957 608.611 417.47 608.61C417.822 596.397 417.621 582.93 417.664 570.623C430.145 570.687 442.627 570.664 455.108 570.553C455.733 581.98 455.146 596.49 455.384 608.394L417.292 608.437L417.313 646.116C425.758 647.114 445.906 646.498 455.096 646.427C455.089 651.95 454.299 669.092 456.951 672.503C443.001 688.179 426.515 702.173 412.568 717.887C411.213 719.414 410.442 721.665 409.846 723.605C409.583 722.88 409.435 722.819 408.96 722.177C399.614 721.885 389.258 722.303 379.712 722.247C379.908 709.855 379.737 696.862 379.736 684.432C392.202 684.631 404.671 684.622 417.137 684.404C417.079 690.719 416.825 700.969 417.74 706.972C418.395 704.312 418.197 688.718 418.208 685.173C425.764 685.191 433.068 685.228 440.622 684.913C436.874 683.896 422.146 684.014 417.571 683.999L417.639 646.025C406.96 646.744 390.658 646.365 379.731 646.121L379.819 608.357C367.353 608.586 354.314 608.379 341.749 608.507C341.89 595.892 341.948 583.276 341.924 570.66Z"/><path fill="#F4F3F3" d="M682.327 684.442C694.921 684.63 707.517 684.592 720.109 684.326C720.018 696.966 720.015 709.606 720.1 722.246C708.199 722.613 694.36 722.277 682.292 722.26L682.327 684.442Z"/><path fill="#F4F3F3" d="M568.791 456.218L569.153 456.292C569.329 460.283 569.24 455.646 569.051 457.976C568.184 468.653 568.677 483.468 568.69 494.12C556.481 494.479 544.265 494.515 532.054 494.226L531.649 494.114C530.385 492.229 531.148 461.098 531.188 456.397C541.063 457.043 559.007 456.86 568.791 456.218Z"/><path fill="#F4F3F3" d="M758.136 684.488C770.578 684.667 783.024 684.619 795.465 684.342C795.319 695.859 794.85 710.85 795.586 722.09C783.659 722.481 770.072 722.259 758.103 722.222L758.136 684.488Z"/><path fill="#F4F3F3" d="M795.956 722.42L833.373 722.446C833.263 734.958 833.241 747.471 833.307 759.984C820.861 759.989 808.415 760.064 795.969 760.209L795.956 722.42Z"/><path fill="#F4F3F3" d="M758.03 760.254C769.872 760.724 783.523 760.39 795.496 760.378C795.245 772.881 795.242 785.388 795.488 797.891L758.061 797.801C758.177 785.382 758.045 772.692 758.03 760.254Z"/><path fill="#FDFDFD" d="M757.926 266.779C770.599 266.39 783.097 266.784 795.718 266.484C795.727 278.769 795.984 292.082 795.512 304.284C786.65 304.415 773.618 304.214 765.098 304.942C773.206 306.62 786.148 304.749 794.771 304.928C794.788 310.271 794.564 318.414 795 323.533C795.606 319.704 795.702 308.854 795.687 304.615C808.135 304.623 821.375 304.41 833.759 304.833C833.04 316.265 833.743 331.075 833.653 342.852L871.336 342.766L871.309 304.864L909.035 304.737L909.056 342.429C896.459 342.694 883.859 342.789 871.259 342.714L871.223 380.29C867.621 380.327 853.661 380.117 851 381.065C818.03 348.086 790.839 330.374 749.339 310.748C751.935 310.268 753.614 311.481 755.927 312.581C758.519 311.058 757.666 308.381 756.03 306.409C753.5 305.003 752.708 305.377 749.885 305.226C752.451 305.111 755.53 304.887 758.051 304.884L757.926 266.779Z"/><path fill="#FDFDFD" d="M152.776 1177.98C164.752 1177.71 178.411 1177.59 190.426 1177.98C190.585 1190.63 190.608 1203.28 190.496 1215.94C203.089 1215.83 215.682 1215.82 228.275 1215.91L228.27 1254L190.515 1254L152.795 1254L114.8 1254C114.875 1241.34 114.883 1228.69 114.825 1216.03C127.242 1215.95 140.415 1216.11 152.776 1215.8L152.776 1177.98Z"/><path fill="#F4F3F3" d="M152.863 1215.69C165.429 1215.97 178 1215.98 190.567 1215.71L190.515 1254L152.795 1254C152.975 1241.71 152.418 1227.61 152.863 1215.69Z"/><path fill="#F4F3F3" d="M0 152.417C12.1206 152.425 27.2136 152.007 39.0656 152.476C38.9796 165.109 38.9926 177.743 39.1046 190.375L39.1066 228.426C38.9874 240.305 38.4998 254.687 39.1176 266.39C26.6347 266.849 12.6559 266.425 0 266.497L0 228.278L0 190.439L0 152.417Z"/><path fill="#F4F3F3" d="M0 152.417C12.1206 152.425 27.2136 152.007 39.0656 152.476C38.9796 165.109 38.9926 177.743 39.1046 190.375C26.7708 190.854 12.4758 190.474 0 190.439L0 152.417Z"/><path fill="#FDFDFD" d="M0 190.439C12.4758 190.474 26.7708 190.854 39.1046 190.375L39.1066 228.426C27.6757 227.836 12.0516 228.485 0 228.278L0 190.439Z"/><path fill="#FDFDFD" d="M39.1053 912.025C50.4355 911.977 66.2659 912.461 77.0169 911.94L77.04 949.803C64.3541 950.065 51.6645 950.101 38.9772 949.911C39.0985 962.551 39.1184 975.192 39.0368 987.832C27.1529 988.005 11.357 987.44 0 988.025L0 949.792C12.3744 949.979 26.7527 950.356 39.1 950.063C38.5515 938.392 38.8181 923.819 39.1053 912.025Z"/><path fill="#FDFDFD" d="M77.0813 1177.98C88.8281 1177.7 102.926 1177.59 114.741 1178.07C114.633 1190.62 114.622 1203.17 114.708 1215.72L77.0184 1215.72C77.035 1228.19 77.2736 1241.6 77.0293 1254L38.9908 1254C38.8688 1241.29 38.879 1228.57 39.0212 1215.86L77.1527 1215.75L77.0813 1177.98Z"/><path fill="#FDFDFD" d="M1136.37 1177.97C1148.9 1177.81 1161.43 1177.77 1173.96 1177.86L1173.95 1215.72L1136.33 1215.72L1136.31 1254L1098.41 1254L1098.37 1216.01C1111.07 1215.8 1123.76 1215.78 1136.46 1215.95L1136.37 1177.97Z"/><path fill="#FDFDFD" d="M606.79 228.451C606.68 240.963 606.928 253.893 606.694 266.321L568.896 266.506C568.92 272.145 569.969 287.325 566.76 290.656C555.591 292.983 545.178 295.322 534.22 298.606L532.174 298.35C529.835 295.368 530.925 272.273 531.002 266.491L568.863 266.568L568.812 228.469C580.395 228.518 595.443 229.003 606.79 228.451Z"/><path fill="#FDFDFD" d="M0 114.522C12.4745 114.383 26.8867 114.865 39.101 114.313L39.0656 152.476C27.2136 152.007 12.1206 152.425 0 152.417L0 114.522Z"/><path fill="#FDFDFD" d="M4.35069e-15 1178.07C13.0278 1177.7 26.0629 1177.67 39.0923 1177.98C39.1009 1190.37 38.9061 1203.55 39.1496 1215.88C26.4736 1215.6 12.7223 1215.87 0 1215.95L0 1178.07L4.35069e-15 1178.07Z"/><path fill="#FDFDFD" d="M0 797.898C12.9786 797.939 26.1026 798.085 39.0689 797.968L39.0705 835.883C27.437 835.986 11.3119 836.594 0 835.84L0 797.898Z"/><path fill="#FDFDFD" d="M39.0734 1025.79L39.0696 1064.01C26.028 1063.72 13.0311 1064.23 0 1063.59L0 1026.2C12.0439 1025.53 26.8053 1025.88 39.0734 1025.79Z"/><path fill="#FDFDFD" d="M0 1102.01C12.5801 1101.53 26.419 1101.83 39.0911 1101.85L39.0915 1139.65C26.148 1139.77 12.8873 1139.68 0 1139.93L0 1102.01Z"/><path fill="#FDFDFD" d="M-4.35069e-15 570.401C13.0129 570.588 26.0271 570.672 39.0414 570.653L39.03 608.375L0 608.515L0 570.401L-4.35069e-15 570.401Z"/><path fill="#FDFDFD" d="M0 266.497C12.6559 266.425 26.6347 266.849 39.1176 266.39L39.0416 304.41C26.0277 304.459 13.0136 304.436 0 304.34L0 266.497Z"/><path fill="#FDFDFD" d="M0 494.318C13.0238 494.552 26.0504 494.588 39.0752 494.426L39.0747 532.271C26.2124 532.454 12.839 532.714 0 532.349L0 494.318Z"/><path fill="#FDFDFD" d="M5.43836e-16 418.649C13.0287 418.668 26.0574 418.609 39.0853 418.472L39.0762 456.345C27.3632 456.389 11.3646 456.858 0 456.208L0 418.649L5.43836e-16 418.649Z"/><path fill="#FDFDFD" d="M0 873.953C11.9086 874.007 27.4422 873.678 39.0936 874.23L39.0261 911.813C26.0186 912.034 13.0086 912.074 2.17534e-15 911.932L0 873.953Z"/><path fill="#FDFDFD" d="M0 38.548L39.0755 38.577L39.0395 76.1442C28.2835 76.3792 10.6648 76.8715 0 76.1156L0 38.548Z"/><path fill="#FDFDFD" d="M0 342.709L39.0698 342.801L39.0776 380.32C26.0519 380.432 13.0256 380.428 0 380.307L0 342.709Z"/><path fill="#FDFDFD" d="M0 646.238C12.0944 646.808 26.6502 646.638 38.8752 646.367L38.8752 684.13C33.8215 684.184 3.22675 685.097 0 683.382L0 646.238Z"/><path fill="#FDFDFD" d="M0 722.388L38.8752 722.399L38.8752 760.159C32.5575 760.171 4.34183 760.79 0 759.299L0 722.388Z"/><path fill="#FDFDFD" d="M795.587 0L833.583 0C833.784 12.4782 833.528 25.649 833.474 38.1821C821.51 38.744 807.794 38.4728 795.792 38.2989C795.045 26.8835 795.534 11.6783 795.587 0Z"/><path fill="#FDFDFD" d="M39.0504 0L77.0121 0L77.0465 38.1832C65.2625 38.7171 50.9375 38.5024 39.1406 38.3341C38.7304 25.816 38.9271 12.5292 39.0504 0Z"/><path fill="#FDFDFD" d="M114.733 0L152.922 0L152.856 38.3898L114.961 38.4028C114.452 25.8725 114.696 12.5941 114.733 0Z"/><path fill="#FDFDFD" d="M946.734 0L984.84 0C984.723 12.7057 984.671 25.412 984.686 38.1183C973.169 38.6237 958.312 38.4749 946.784 38.3108C946.401 26.4119 946.732 12.0544 946.734 0Z"/><path fill="#FDFDFD" d="M1098.33 0L1136.35 0C1136.17 12.6383 1136.33 25.5647 1136.24 38.2524C1123.64 38.4559 1111.03 38.4772 1098.43 38.3163L1098.33 0Z"/><path fill="#FDFDFD" d="M417.497 0L455.198 0C455.547 12.2737 455.356 25.9279 455.364 38.2579C442.726 38.4573 430.086 38.4778 417.448 38.3195C417.391 25.5464 417.407 12.773 417.497 4.35069e-15L417.497 0Z"/><path fill="#FDFDFD" d="M644.303 0L682.248 0L682.2 38.5415C669.708 38.1363 657.223 38.7863 644.613 38.1465C643.875 27.0142 644.313 11.5572 644.303 0Z"/><path fill="#FDFDFD" d="M341.764 0L379.641 0C379.453 12.5535 379.593 25.569 379.577 38.1545C367.472 38.6898 354.042 38.4276 341.874 38.3095C341.447 26.1195 341.763 12.3102 341.764 0Z"/><path fill="#F4F3F3" d="M39.101 114.313C51.0917 114.372 65.3738 114.036 77.0926 114.454L77.0833 152.468C68.0936 153.161 48.844 152.566 39.0656 152.476L39.101 114.313Z"/><path fill="#FDFDFD" d="M568.843 0L606.725 0L606.674 38.2765C594.523 38.6056 581.035 38.4917 568.897 38.3362L568.843 0Z"/><path fill="#FDFDFD" d="M190.491 0L228.369 0C228.171 12.5574 228.284 25.5142 228.256 38.1016C215.831 38.5854 203.141 38.406 190.687 38.367C190.095 26.6648 190.497 11.9253 190.491 0Z"/><path fill="#FDFDFD" d="M946.717 1215.95L984.738 1215.82L984.7 1254L946.703 1254L946.717 1215.95Z"/><path fill="#F4F3F3" d="M568.842 190.382C580.165 190.359 595.814 189.915 606.749 190.435L606.79 228.451C595.443 229.003 580.395 228.518 568.812 228.469L568.842 190.382Z"/><path fill="#FDFDFD" d="M39.0963 76.5169C51.7362 76.3486 64.3772 76.2898 77.0181 76.3407C77.0352 88.7424 76.821 102.125 77.0926 114.454C65.3738 114.036 51.0917 114.372 39.101 114.313C38.8754 101.716 38.8739 89.1148 39.0963 76.5169Z"/><path fill="#FDFDFD" d="M1174.02 0L1211.88 0L1211.77 38.1879C1199.57 38.7396 1186.35 38.4106 1174.08 38.1974C1173.6 26.3182 1174 12.0552 1174.02 0Z"/><path fill="#FDFDFD" d="M720.176 0L757.975 0C757.761 12.4598 757.935 25.5874 757.927 38.0929C746.526 38.6781 731.72 38.5329 720.269 38.1648C719.909 26.0904 720.192 12.1948 720.176 0Z"/><path fill="#F4F3F3" d="M530.921 152.447C541.267 152.448 559.026 151.945 568.895 152.533L568.842 190.382C558.089 191.005 542.026 190.507 530.921 190.503C530.779 177.818 530.779 165.132 530.921 152.447Z"/><path fill="#FDFDFD" d="M871.37 0L908.932 0C909.099 12.7421 909.119 25.4858 908.993 38.2284C897.547 38.4217 882.506 38.8788 871.333 38.0425L871.37 0Z"/><path fill="#FDFDFD" d="M568.834 1215.81C581.474 1215.9 594.115 1215.94 606.756 1215.9L606.715 1254L568.825 1254L568.834 1215.81Z"/><path fill="#FDFDFD" d="M266.12 0L303.938 0C303.673 11.9966 303.693 26.184 304.06 38.1958C291.458 38.4133 278.855 38.4836 266.251 38.4067C266.319 25.6043 266.275 12.8016 266.12 0Z"/><path fill="#FDFDFD" d="M341.744 1215.93C354.353 1215.78 366.963 1215.81 379.571 1216.02C379.587 1228.49 379.421 1241.58 379.637 1254L341.776 1254L341.744 1215.93Z"/><path fill="#FDFDFD" d="M39.1066 228.426C51.7398 228.592 64.3741 228.651 77.0083 228.601L77.0452 266.365L39.1176 266.39C38.4998 254.687 38.9874 240.305 39.1066 228.426Z"/><path fill="#FDFDFD" d="M417.468 1215.96C430.142 1215.8 442.818 1215.77 455.492 1215.87C455.195 1228.58 455.185 1241.29 455.461 1254L417.333 1254L417.468 1215.96Z"/><path fill="#FDFDFD" d="M568.842 190.382L568.812 228.469C557.472 227.999 542.492 228.372 530.945 228.319C530.735 215.934 530.937 202.927 530.921 190.503C542.026 190.507 558.089 191.005 568.842 190.382Z"/><path fill="#FDFDFD" d="M493.274 0L530.85 0L530.85 38.1343C519.986 38.6198 503.929 38.6842 493.113 38.1277C493.305 25.4194 493.359 12.7094 493.274 4.35069e-15L493.274 0Z"/><path fill="#FDFDFD" d="M682.164 114.336C694.335 114.809 707.836 114.512 720.104 114.491C720.081 126.918 719.826 140.163 720.156 152.526C710.496 151.934 692.405 152.466 682.18 152.476C682.25 139.763 682.245 127.049 682.164 114.336Z"/><path fill="#FDFDFD" d="M530.88 114.444C540.943 114.576 559.094 115.023 568.839 114.365C568.77 127.087 568.789 139.811 568.895 152.533C559.026 151.945 541.267 152.448 530.921 152.447C530.991 139.779 530.978 127.111 530.88 114.444Z"/><path fill="#FDFDFD" d="M644.379 76.4639C656.975 76.4659 669.571 76.4 682.166 76.2663L682.164 114.336C670.423 113.951 656.64 114.492 644.503 114.314C644.037 102.087 644.324 88.7639 644.379 76.4639Z"/><path fill="#FDFDFD" d="M493.132 1215.99C505.692 1215.74 518.255 1215.69 530.817 1215.84C530.879 1228.56 530.869 1241.28 530.786 1254L493.276 1254C493.248 1241.47 493.397 1228.48 493.132 1215.99Z"/><path fill="#FDFDFD" d="M871.316 1216.04C883.89 1215.84 896.467 1215.81 909.042 1215.96C909.047 1228.57 909.17 1241.41 909.028 1254L871.338 1254C871.341 1241.53 871.522 1228.47 871.316 1216.04Z"/><path fill="#FDFDFD" d="M530.992 1178.08C543.595 1177.82 556.202 1177.76 568.808 1177.9L568.834 1215.81C556.213 1215.89 543.592 1215.88 530.971 1215.78L530.992 1178.08Z"/><path fill="#FDFDFD" d="M39.0656 152.476C48.844 152.566 68.0936 153.161 77.0833 152.468C76.9653 165.125 76.9624 177.783 77.0746 190.44C67.2949 189.846 49.4325 190.367 39.1046 190.375C38.9926 177.743 38.9796 165.109 39.0656 152.476Z"/><path fill="#FDFDFD" d="M568.911 76.4552L606.724 76.3072L606.701 114.283C595.041 114.458 579.923 113.839 568.839 114.365C568.851 101.831 568.726 88.9603 568.911 76.4552Z"/><path fill="#FDFDFD" d="M1249.81 114.353L1249.7 152.435L1211.99 152.416C1211.48 140.613 1211.86 126.435 1211.87 114.458C1220.02 114.548 1242.57 115.078 1249.81 114.353Z"/><path fill="#FDFDFD" d="M1249.8 797.942C1249.77 810.339 1249.51 823.573 1249.84 835.904C1238.27 836.038 1222.83 835.555 1211.85 836.024L1211.91 798.066C1224.44 797.802 1237.21 798.094 1249.8 797.942Z"/><path fill="#FDFDFD" d="M1174.03 76.4086C1186.63 76.3421 1199.22 76.3394 1211.82 76.4005C1211.83 88.898 1211.65 102.01 1211.87 114.458L1174.04 114.364C1173.91 101.712 1173.91 89.06 1174.03 76.4086Z"/><path fill="#FDFDFD" d="M757.97 190.47C770.394 190.516 783.362 190.685 795.767 190.502L795.738 228.332L758.003 228.404C757.895 215.76 757.884 203.115 757.97 190.47Z"/><path fill="#FDFDFD" d="M644.341 1216.01C656.89 1215.97 669.602 1215.82 682.137 1215.92L682.227 1254L644.373 1254L644.341 1216.01Z"/><path fill="#FDFDFD" d="M795.696 1215.97C807.939 1215.92 821.514 1215.58 833.65 1215.92C833.516 1228.61 833.515 1241.31 833.647 1254L795.696 1254L795.696 1215.97Z"/><path fill="#FDFDFD" d="M304.141 1178.01C316.309 1177.89 329.612 1177.57 341.677 1177.85L341.744 1215.93C329.169 1215.73 316.549 1216.02 304.026 1215.82C303.896 1203.22 303.935 1190.61 304.141 1178.01Z"/><path fill="#FDFDFD" d="M1249.81 1101.75C1249.43 1113.86 1249.77 1127.49 1249.79 1139.7C1243.76 1139.54 1215.44 1140.48 1212.06 1139.05C1212.13 1126.66 1211.84 1114.3 1211.93 1101.88C1224.4 1101.54 1237.28 1101.85 1249.81 1101.75Z"/><path fill="#FDFDFD" d="M757.933 114.431C770.542 114.542 783.151 114.553 795.759 114.463C795.478 126.921 795.699 139.888 795.744 152.383L757.991 152.46L757.933 114.431Z"/><path fill="#FDFDFD" d="M606.734 152.505C606.723 164.73 606.448 178.314 606.749 190.435C595.814 189.915 580.165 190.359 568.842 190.382L568.895 152.533C580.026 152.628 595.751 153.042 606.734 152.505Z"/><path fill="#FDFDFD" d="M682.18 152.476L682.185 190.384C670.975 189.939 656.145 190.368 644.557 190.347C643.96 178.878 644.355 164.208 644.242 152.462C655.357 152.605 671.135 153.006 682.18 152.476Z"/><path fill="#FDFDFD" d="M266.195 1215.96L303.906 1215.79C303.762 1228.52 303.77 1241.26 303.928 1254L266.215 1254L266.195 1215.96Z"/><path fill="#FDFDFD" d="M1211.85 836.024C1211.33 847.228 1211.8 862.438 1211.84 873.936C1200.18 874.006 1185.53 874.396 1174.05 873.709C1173.82 861.412 1174.01 848.656 1174.03 836.325C1185.34 835.826 1201.81 836.989 1211.85 836.024Z"/><path fill="#FDFDFD" d="M39.1156 988.138C44.0481 988.069 74.5013 987.176 76.9497 988.995L77.0398 989.325L77.0201 1025.77C64.376 1026.05 51.3625 1025.47 39.0734 1025.79C38.9816 1013.24 38.9957 1000.69 39.1156 988.138Z"/><path fill="#FDFDFD" d="M682.185 190.384C694.652 190.723 707.547 190.535 720.049 190.504L720.141 228.323C707.508 228.432 694.876 228.443 682.243 228.355C682.23 216.103 682.483 202.54 682.185 190.384Z"/><path fill="#FDFDFD" d="M1211.84 1178L1249.72 1177.86C1249.8 1190.51 1249.81 1203.16 1249.75 1215.81C1237.28 1215.8 1224.39 1216.08 1211.97 1215.75C1211.82 1203.17 1211.77 1190.58 1211.84 1178Z"/><path fill="#FDFDFD" d="M758.003 228.404C757.728 240.829 757.933 253.904 757.933 266.378C745.365 266.48 732.797 266.465 720.23 266.333C719.908 254.455 720.197 240.786 720.199 228.787C732.521 228.242 745.535 228.679 758.003 228.404Z"/><path fill="#FDFDFD" d="M493.127 76.3912C505.532 76.3781 518.455 76.5925 530.808 76.3837C530.817 88.4389 530.511 102.537 530.88 114.444C518.501 114.368 505.538 114.607 493.228 114.188C493.213 101.723 493.374 88.8205 493.127 76.3912Z"/><path fill="#FDFDFD" d="M757.991 152.46C757.876 164.663 757.666 178.288 757.97 190.47C747.662 189.886 731.146 190.343 720.244 190.299L720.156 152.526C730.657 152.554 747.967 153.164 757.991 152.46Z"/><path fill="#FDFDFD" d="M228.423 38.5885C240.578 38.6536 254.188 38.8515 266.251 38.4067C265.993 50.5932 266.226 63.8942 266.226 76.1558C253.66 76.4791 241.088 76.4756 228.523 76.1452C228.24 63.7932 228.416 50.9749 228.423 38.5885Z"/><path fill="#FDFDFD" d="M720.221 1216.02C732.483 1215.96 745.787 1215.62 757.966 1215.91L757.866 1254L720.209 1254L720.221 1216.02Z"/><path fill="#FDFDFD" d="M720.271 76.4176C732.852 76.6139 745.386 76.2369 757.938 76.3493L757.933 114.431L720.297 114.298C720.155 101.672 720.146 89.0441 720.271 76.4176Z"/><path fill="#FDFDFD" d="M1174.1 1216.05C1186.12 1215.88 1199.79 1215.61 1211.82 1215.93L1211.82 1254L1174.1 1254L1174.1 1216.05Z"/><path fill="#FDFDFD" d="M77.0746 190.44C89.6424 190.598 102.309 190.347 114.812 190.552C114.669 203.145 114.632 215.739 114.701 228.333C102.186 228.462 89.6706 228.451 77.1561 228.3C77.1254 216.214 77.4281 202.339 77.0746 190.44Z"/><path fill="#FDFDFD" d="M606.803 114.519L644.428 114.463L644.242 152.462C633.202 151.988 617.967 152.367 606.734 152.505L606.803 114.519Z"/><path fill="#FDFDFD" d="M909.172 1177.99C921.437 1177.87 934.473 1177.53 946.67 1177.96C946.75 1190.62 946.765 1203.28 946.717 1215.95C934.229 1215.68 921.621 1216.08 909.182 1215.72L909.172 1177.99Z"/><path fill="#FDFDFD" d="M530.921 152.447C530.779 165.132 530.779 177.818 530.921 190.503C519.551 190.013 504.765 190.38 493.069 190.345C493.289 177.767 493.299 165.186 493.099 152.608C505.601 152.613 518.449 152.768 530.921 152.447Z"/><path fill="#FDFDFD" d="M606.792 1177.91C619.363 1177.79 631.935 1177.78 644.506 1177.9C644.087 1190.4 644.496 1203.07 644.253 1215.64C631.755 1215.86 619.255 1215.95 606.756 1215.9L606.792 1177.91Z"/><path fill="#FDFDFD" d="M455.299 1177.97C466.191 1177.52 482.096 1177.61 492.995 1178.14L492.983 1215.67C480.925 1215.82 467.338 1215.53 455.492 1215.87C455.314 1203.46 455.634 1190.2 455.299 1177.97Z"/><path fill="#FDFDFD" d="M77.0926 114.454L114.771 114.528L114.694 152.422C102.241 152.428 89.5124 152.309 77.0833 152.468L77.0926 114.454Z"/><path fill="#FDFDFD" d="M682.2 38.5415L720.151 38.552C720.077 51.0916 720.067 63.6316 720.122 76.1714C707.471 76.3227 694.818 76.3543 682.166 76.2663C682.257 63.6915 682.268 51.1164 682.2 38.5415Z"/><path fill="#FDFDFD" d="M606.749 190.435C619.265 190.549 631.782 190.586 644.298 190.548L644.359 228.314C632.559 228.44 618.326 228.022 606.79 228.451L606.749 190.435Z"/><path fill="#FDFDFD" d="M341.851 380.712C354.189 380.473 367.553 381.046 379.665 380.466C379.633 385.592 379.311 394.228 380.658 398.836C374.812 405.751 369.956 412.174 364.525 419.441C359.888 418.243 347.167 418.538 341.878 418.524C341.325 407.284 341.759 392.255 341.851 380.712Z"/><path fill="#FDFDFD" d="M304.085 722.441C310.289 722.519 318.248 722.737 324.235 721.705C330.33 737.007 334.263 745.332 341.543 759.851C339.846 760.626 307.906 760.064 304.023 760.044L304.085 722.441Z"/><path fill="#FDFDFD" d="M568.869 924.796C580.994 927.036 593.235 928.6 605.534 929.481C607.67 932.02 606.799 945.671 606.773 949.976C594.137 950.052 581.501 950.007 568.866 949.841C568.722 941.626 568.859 933.04 568.869 924.796Z"/><path fill="#FDFDFD" d="M757.888 900.561C770.926 894.537 781.618 888.356 794.006 881.168C796.855 884.283 795.635 906.656 795.551 911.839C783.051 912.021 770.548 912.046 758.047 911.913C758.024 908.608 758.126 903.756 757.888 900.561Z"/><path fill="#FDFDFD" d="M606.826 266.665L644.445 266.665C644.468 271.569 645.657 280.769 643.258 284.645C641.502 285.464 640.83 285.382 638.927 285.497C629.68 285.274 620.43 285.269 611.182 285.483L606.991 284.794C606.345 280.818 606.779 271.091 606.826 266.665Z"/><path fill="#FDFDFD" d="M941.444 646.059C944.091 646.32 944.429 645.913 946.244 647.24C947.557 655.511 946.423 674.585 946.914 684.139C942.942 684.103 938.579 684.15 934.65 683.883C937.664 671.421 939.932 658.79 941.444 646.059Z"/><path fill="#FDFDFD" d="M1249.75 1215.81L1254 1215.78L1254 1254L1249.76 1254L1249.75 1215.81Z"/><path fill="#FDFDFD" d="M1249.81 0L1254 0L1254 38.3123C1252.8 38.1886 1251.57 38.098 1250.36 37.9942C1249.17 35.9866 1249.78 4.66928 1249.81 0Z"/><path fill="#FDFDFD" d="M1254 835.883L1254 874.287C1251.92 873.931 1251.51 874.162 1250.04 872.952C1249.31 864.884 1249.56 845.141 1249.96 836.849C1251.25 835.723 1251.87 836.071 1254 835.883Z"/><path fill="#FDFDFD" d="M1254 570.577C1251.82 570.445 1251.5 570.796 1249.98 569.739C1249.28 562.051 1249.6 541.313 1249.94 533.389C1251.06 532.374 1252.1 532.653 1254 532.471L1254 570.577Z"/><path fill="#FDFDFD" d="M1254 1063.81L1254 1101.55L1249.81 1101.75C1249.75 1090.25 1249.29 1076.13 1249.91 1064.82C1251.08 1063.64 1251.83 1064.01 1254 1063.81Z"/><path fill="#FDFDFD" d="M1249.81 114.353C1249.78 105.459 1249.14 85.3796 1250.06 77.295C1251.45 76.1598 1251.82 76.5166 1254 76.3226L1254 114.217L1249.81 114.353Z"/><path fill="#FDFDFD" d="M1254 228.541L1254 266.484C1252.43 266.415 1251.89 266.28 1250.34 265.956C1249.29 263.191 1249.54 232.617 1250.12 228.727L1254 228.541Z"/><path fill="#FDFDFD" d="M1254 152.727L1254 190.444C1252.19 190.361 1251.84 190.278 1250.07 189.876C1249.63 186.236 1249.33 154.641 1250.34 152.865L1254 152.727Z"/><path fill="#FDFDFD" d="M1254 342.629L1250.04 342.091C1249.45 338.952 1249.6 306.926 1250.27 305.109L1254 304.766L1254 342.629Z"/><path fill="#FDFDFD" d="M1254 722.312C1252.09 722.197 1251.74 722.304 1249.97 721.527C1249.4 715.709 1249.6 691.358 1250.08 685.302C1251.46 683.978 1251.8 684.295 1254 683.817L1254 722.312Z"/><path fill="#FDFDFD" d="M1254 949.896C1252.41 949.775 1251.33 949.89 1250.08 948.941C1249.33 941.226 1249.58 920.778 1249.96 912.807C1251.5 911.735 1251.72 912.133 1254 912.114L1254 949.896Z"/><path fill="#FDFDFD" d="M1254 646.472C1252.51 646.256 1251.52 646.017 1250.07 645.674C1249.33 640.098 1249.73 615.566 1249.97 609.275C1251.04 608.397 1252.3 608.608 1254 608.449L1254 646.472Z"/><path fill="#FDFDFD" d="M1254 418.454C1251.98 418.356 1251.95 418.393 1250.04 417.781C1249.3 409.742 1249.68 390.074 1249.95 381.7C1251.02 380.444 1251.74 380.835 1254 380.612L1254 418.454Z"/><path fill="#FDFDFD" d="M1254 494.337C1252.64 494.249 1251.41 494.081 1250.06 493.917C1249.39 490.124 1249.81 462.591 1249.95 457.619C1251.01 456.394 1251.79 456.777 1254 456.569L1254 494.337Z"/><path fill="#FDFDFD" d="M1254 1177.87C1251.99 1177.67 1251.88 1177.67 1249.98 1177.03C1249.28 1169.47 1249.71 1149 1250.12 1141.42C1251.39 1139.7 1251.29 1140.22 1254 1139.55L1254 1177.87Z"/><path fill="#FDFDFD" d="M1249.8 797.942C1249.78 788.26 1249.22 770.241 1250.07 761.201C1251.47 760.017 1251.83 760.35 1254 760.056L1254 797.823L1249.8 797.942Z"/><path fill="#FDFDFD" d="M1254 1025.84C1252.14 1025.79 1251.73 1025.93 1250.05 1025.11C1249.28 1017.04 1249.71 997.414 1250.1 989.187C1250.99 987.996 1251.99 988.266 1254 987.935L1254 1025.84Z"/><path fill="#F4F3F3" d="M190.555 76.3142L228.344 76.4176C228.314 88.6847 227.993 102.244 228.385 114.41C238.345 114.694 256.482 114.917 266.21 114.334C266.212 126.689 265.947 140.261 266.235 152.53C278.788 152.636 291.341 152.647 303.894 152.563C303.766 165.153 303.755 177.744 303.86 190.334L266.252 190.4C256.845 191.058 238.199 190.552 228.369 190.438C216.033 190.142 203.017 190.344 190.63 190.341C190.172 178.871 190.505 164.183 190.501 152.519C179.313 152.018 164.356 152.42 152.801 152.404C152.283 140.33 152.577 126.655 152.834 114.558L190.571 114.374L190.555 76.3142Z"/><path fill="#F4F3F3" d="M190.555 76.3142L228.344 76.4176C228.314 88.6847 227.993 102.244 228.385 114.41L228.388 152.46C219.982 153.16 199.519 152.636 190.501 152.519C179.313 152.018 164.356 152.42 152.801 152.404C152.283 140.33 152.577 126.655 152.834 114.558L190.571 114.374L190.555 76.3142Z"/><path fill="#FDFDFD" d="M152.834 114.558L190.571 114.374L190.501 152.519C179.313 152.018 164.356 152.42 152.801 152.404C152.283 140.33 152.577 126.655 152.834 114.558Z"/><path fill="#FDFDFD" d="M190.555 76.3142L228.344 76.4176C228.314 88.6847 227.993 102.244 228.385 114.41C217.78 113.89 201.727 114.394 190.571 114.374L190.555 76.3142Z"/><path fill="#FDFDFD" d="M228.385 114.41C238.345 114.694 256.482 114.917 266.21 114.334C266.212 126.689 265.947 140.261 266.235 152.53C256.799 151.906 238.441 152.447 228.388 152.46L228.385 114.41Z"/><path fill="#FDFDFD" d="M228.388 152.46C228.259 164.379 227.992 178.523 228.369 190.438C216.033 190.142 203.017 190.344 190.63 190.341C190.172 178.871 190.505 164.183 190.501 152.519C199.519 152.636 219.982 153.16 228.388 152.46Z"/><path fill="#FDFDFD" d="M266.235 152.53C278.788 152.636 291.341 152.647 303.894 152.563C303.766 165.153 303.755 177.744 303.86 190.334L266.252 190.4C266.32 177.777 266.315 165.153 266.235 152.53Z"/><path fill="#F4F3F3" d="M1060.58 152.476L1098.37 152.459C1109.52 152.669 1125.32 152.958 1136.34 152.451C1136.33 164.458 1135.99 178.589 1136.37 190.43C1148.87 190.533 1161.38 190.563 1173.89 190.52C1173.92 202.837 1174.21 216.142 1173.89 228.381C1161.82 228.399 1148.39 228.147 1136.41 228.445C1136.25 241.104 1136.24 253.765 1136.37 266.424C1124.33 266.087 1110.69 266.434 1098.48 266.345C1098.54 253.72 1098.49 241.095 1098.33 228.47C1086.99 228.023 1072.13 228.4 1060.55 228.392L1060.51 190.424L1060.58 152.476Z"/><path fill="#FDFDFD" d="M1060.51 190.424C1073.11 190.568 1085.7 190.596 1098.3 190.508L1098.33 228.47C1086.99 228.023 1072.13 228.4 1060.55 228.392L1060.51 190.424Z"/><path fill="#FDFDFD" d="M1136.41 228.445C1136.25 241.104 1136.24 253.765 1136.37 266.424C1124.33 266.087 1110.69 266.434 1098.48 266.345C1098.54 253.72 1098.49 241.095 1098.33 228.47C1111.03 228.588 1123.72 228.579 1136.41 228.445Z"/><path fill="#FDFDFD" d="M1098.37 152.459C1109.52 152.669 1125.32 152.958 1136.34 152.451C1136.33 164.458 1135.99 178.589 1136.37 190.43C1125.4 189.91 1109.84 190.418 1098.47 190.295C1098.56 177.683 1098.52 165.07 1098.37 152.459Z"/><path fill="#FDFDFD" d="M1136.37 190.43C1148.87 190.533 1161.38 190.563 1173.89 190.52C1173.92 202.837 1174.21 216.142 1173.89 228.381C1161.82 228.399 1148.39 228.147 1136.41 228.445C1136.26 215.816 1136.49 203.095 1136.37 190.43Z"/><path fill="#F4F3F3" d="M341.904 76.4467L379.597 76.4185C379.594 88.492 379.281 102.534 379.637 114.46C392.223 114.542 404.809 114.554 417.395 114.496C417.425 126.906 417.672 140.065 417.291 152.415C408.04 152.434 388.154 151.942 379.655 152.592C379.507 164.579 379.293 178.5 379.619 190.437C369.186 189.879 352.717 190.36 341.985 190.305C341.467 178.606 341.784 164.372 341.714 152.507C333.92 151.853 312.668 152.427 304.165 152.362C303.923 139.753 303.894 127.14 304.078 114.531L341.811 114.434C341.725 101.771 341.757 89.1085 341.904 76.4467Z"/><path fill="#FDFDFD" d="M379.637 114.46C392.223 114.542 404.809 114.554 417.395 114.496C417.425 126.906 417.672 140.065 417.291 152.415C408.04 152.434 388.154 151.942 379.655 152.592L379.637 114.46Z"/><path fill="#FDFDFD" d="M341.904 76.4467L379.597 76.4185C379.594 88.492 379.281 102.534 379.637 114.46L341.811 114.434C341.725 101.771 341.757 89.1085 341.904 76.4467Z"/><path fill="#FDFDFD" d="M341.811 114.434C341.683 127.124 341.65 139.816 341.714 152.507C333.92 151.853 312.668 152.427 304.165 152.362C303.923 139.753 303.894 127.14 304.078 114.531L341.811 114.434Z"/><path fill="#FDFDFD" d="M341.714 152.507C353.893 152.726 367.48 152.846 379.655 152.592C379.507 164.579 379.293 178.5 379.619 190.437C369.186 189.879 352.717 190.36 341.985 190.305C341.467 178.606 341.784 164.372 341.714 152.507Z"/><path fill="#F4F3F3" d="M1098.42 76.4986L1136.27 76.3782L1136.35 114.486L1173.83 114.527L1174 152.4L1136.34 152.451C1125.32 152.958 1109.52 152.669 1098.37 152.459L1060.58 152.476C1060.48 139.832 1060.47 127.188 1060.57 114.544C1073.17 114.579 1085.78 114.537 1098.38 114.418L1098.42 76.4986Z"/><path fill="#FDFDFD" d="M1098.42 76.4986L1136.27 76.3782L1136.35 114.486C1125.51 113.949 1109.44 114.4 1098.38 114.418L1098.42 76.4986Z"/><path fill="#FDFDFD" d="M1060.57 114.544C1073.17 114.579 1085.78 114.537 1098.38 114.418C1098.28 127.098 1098.28 139.779 1098.37 152.459L1060.58 152.476C1060.48 139.832 1060.47 127.188 1060.57 114.544Z"/><path fill="#FDFDFD" d="M1136.35 114.486L1173.83 114.527L1174 152.4L1136.34 152.451C1136.43 139.796 1136.43 127.141 1136.35 114.486Z"/><path fill="#FDFDFD" d="M1174.25 988.234C1186.1 987.791 1200.07 987.869 1211.85 988.192C1211.62 1000.49 1211.81 1013.54 1211.8 1025.89L1174.01 1026C1173.79 1038.44 1174.32 1051.43 1173.75 1063.81C1161.32 1063.95 1148.89 1063.93 1136.46 1063.76C1136.21 1051.55 1136.4 1038.44 1136.38 1026.17C1148.15 1025.57 1162.17 1025.92 1174.11 1025.92C1174.06 1013.36 1174.11 1000.8 1174.25 988.234Z"/><path fill="#FDFDFD" d="M795.69 76.4243C807.354 76.7944 821.609 76.3855 833.59 76.4158C833.467 88.9222 833.631 101.756 833.604 114.311C820.966 114.443 808.328 114.442 795.691 114.307C795.02 104.045 795.466 86.7334 795.69 76.4243Z"/><path fill="#FDFDFD" d="M75.9181 304.653L76.6194 304.827C77.4166 306.749 77.0719 338.419 77.0675 342.681L40.0131 342.588L39.823 342.496C38.2315 339.857 39.0062 309.696 39.0293 304.876C51.3248 304.706 63.6214 304.632 75.9181 304.653Z"/><path fill="#FDFDFD" d="M114.892 76.4402C127.361 76.5829 140.244 76.4181 152.742 76.3983C152.881 89.0393 152.904 101.681 152.809 114.323C140.191 114.427 127.572 114.423 114.954 114.309C114.681 101.688 114.66 89.0623 114.892 76.4402Z"/><path fill="#FDFDFD" d="M984.898 646.499C997.689 646.388 1010.48 646.374 1023.27 646.455C1023.33 653.125 1023.89 679.168 1022.88 684.07C1010.22 684.539 997.557 684.54 984.904 684.071L984.898 646.499Z"/><path fill="#FDFDFD" d="M50.4852 1139.81C58.9778 1139.56 68.4756 1139.78 77.0471 1139.79L77.0161 1177.56L66.1905 1177.76C57.1823 1177.67 48.1733 1177.68 39.1654 1177.79C38.7097 1166.19 38.7355 1151.62 39.0483 1140.02L50.4852 1139.81Z"/><path fill="#FDFDFD" d="M1223.59 1025.92C1232.28 1025.79 1241.08 1025.99 1249.75 1025.76L1249.82 1063.72L1240.97 1063.99C1231.32 1064.06 1221.68 1063.95 1212.04 1063.63C1211.58 1051.52 1211.84 1038.23 1211.85 1026.04L1223.59 1025.92Z"/><path fill="#FDFDFD" d="M946.795 76.3394C958.888 76.8145 972.523 76.4644 984.726 76.4147C984.864 89.0517 984.851 101.69 984.686 114.327L946.776 114.363C946.532 102.064 946.777 88.7053 946.795 76.3394Z"/><path fill="#FDFDFD" d="M60.6787 380.551C66.0973 380.607 71.6228 380.529 77.0509 380.509L77.0438 418.378C70.8702 418.544 64.4823 418.547 58.2906 418.622C51.896 418.65 45.5015 418.547 39.1112 418.311C38.8719 405.789 38.8624 393.263 39.0828 380.74L60.6787 380.551Z"/><path fill="#FDFDFD" d="M682.199 1178.07C694.815 1177.81 707.434 1177.75 720.052 1177.9C720.221 1190.51 720.203 1203.12 720 1215.73C707.402 1215.9 694.801 1215.91 682.202 1215.77L682.199 1178.07Z"/><path fill="#FDFDFD" d="M947.124 228.639C959.649 228.725 972.322 228.567 984.858 228.509C984.375 239.06 985.732 256.672 984.418 266.363C971.898 266.446 959.378 266.441 946.858 266.347C946.676 260.055 946.259 233.33 947.124 228.639Z"/><path fill="#FDFDFD" d="M115.003 1140.04C124.641 1139.21 142.575 1139.8 152.753 1139.82C152.781 1145.32 153.612 1174.64 151.788 1177.64C139.536 1177.81 127.281 1177.8 115.029 1177.61C114.568 1169.2 114.245 1148.37 115.003 1140.04Z"/><path fill="#FDFDFD" d="M530.98 1026.04C543.58 1025.92 556.181 1025.89 568.782 1025.94C568.878 1033.94 569.356 1055.98 568.517 1063.21L567.656 1063.8C555.437 1063.95 543.206 1063.77 530.969 1063.98C530.891 1051.33 530.895 1038.69 530.98 1026.04Z"/><path fill="#FDFDFD" d="M417.509 76.4202L455.278 76.4093L455.294 114.319C442.675 114.491 430.054 114.468 417.436 114.25C417.105 102.408 417.467 88.4151 417.509 76.4202Z"/><path fill="#FDFDFD" d="M946.935 304.817C959.271 304.507 972.386 304.771 984.844 304.632C984.368 316.258 984.854 330.665 984.785 342.578C972.33 342.599 959.452 342.785 947.037 342.379C946.216 331.75 946.851 315.875 946.935 304.817Z"/><path fill="#FDFDFD" d="M228.369 190.438C238.199 190.552 256.845 191.058 266.252 190.4L266.207 228.446C254.881 228.024 240.011 228.423 228.45 228.429L228.369 190.438Z"/><path fill="#FDFDFD" d="M39.118 532.61L77.0234 532.627C77.1083 545.198 77.0836 557.77 76.9492 570.34C64.34 570.552 51.7283 570.582 39.1182 570.43C38.7932 558.442 38.7159 544.518 39.118 532.61Z"/><path fill="#FDFDFD" d="M114.899 152.654L152.874 152.518L152.799 190.27C140.422 190.575 127.433 190.363 115.013 190.345C114.455 178.217 114.728 164.812 114.899 152.654Z"/><path fill="#FDFDFD" d="M114.812 532.644L152.764 532.399L152.737 570.329L114.813 570.356L114.812 532.644Z"/><path fill="#FDFDFD" d="M1210.98 304.631C1212.43 306.375 1211.93 338.064 1211.95 342.447C1200.51 342.697 1185.85 343.189 1174.56 342.401C1173.29 339.809 1174.08 310.205 1174.09 304.856L1210.98 304.631Z"/><path fill="#FDFDFD" d="M310.033 1025.88C319.298 1025.45 332.239 1025.88 341.755 1025.85C341.649 1033.2 342.488 1058.36 341.296 1063.74L338.665 1063.86C327.244 1063.85 315.448 1064.23 304.083 1063.63C303.897 1057.4 303.595 1031.69 304.422 1026.87C306.032 1025.63 307.886 1025.92 310.033 1025.88Z"/><path fill="#FDFDFD" d="M304.126 798.024C316.29 798.347 329.476 797.974 341.758 797.978C341.722 810.632 341.753 823.286 341.851 835.94C329.284 836.106 316.716 836.103 304.149 835.931C303.834 823.957 303.681 809.955 304.126 798.024Z"/><path fill="#FDFDFD" d="M795.913 228.65L833.697 228.492C833.23 238.048 834.572 258.233 833.255 266.36C820.765 266.452 808.275 266.444 795.785 266.337C795.064 258.448 795.454 236.799 795.913 228.65Z"/><path fill="#FDFDFD" d="M417.735 228.702C430.117 228.376 442.899 228.555 455.313 228.577C455.417 241.163 455.368 253.749 455.165 266.333C442.622 266.455 430.078 266.456 417.534 266.337C417.449 259.139 416.826 234.134 417.735 228.702Z"/><path fill="#FDFDFD" d="M228.426 1178.03C240.625 1177.66 253.935 1177.87 266.196 1177.93C266.248 1188.48 266.826 1205.81 266.036 1215.69C254.115 1215.98 240.311 1216.07 228.475 1215.65C228.16 1203.61 228.424 1190.16 228.426 1178.03Z"/><path fill="#FDFDFD" d="M39.0804 836.139C51.735 836.009 64.3908 836.053 77.0442 836.272L77.0523 873.866C64.4075 873.975 51.7621 873.988 39.1172 873.903C38.8824 861.316 38.8701 848.726 39.0804 836.139Z"/><path fill="#FDFDFD" d="M114.797 988.213C127.642 987.895 140.232 988.181 152.926 987.913C152.263 992.264 152.735 1019.79 152.764 1025.91C146.825 1025.93 119.388 1026.46 115.427 1025.11L114.873 1023.62L114.797 988.213Z"/><path fill="#FDFDFD" d="M1212.01 190.527L1249.74 190.47C1249.91 202.957 1249.8 215.827 1249.82 228.34C1237.21 228.413 1224.6 228.418 1212 228.353C1211.59 216.419 1211.81 202.422 1212.01 190.527Z"/><path fill="#FDFDFD" d="M380.064 1101.8C392.521 1101.72 404.978 1101.72 417.434 1101.8C417.469 1114.39 417.417 1126.97 417.278 1139.56C404.755 1139.74 392.23 1139.77 379.707 1139.64C379.579 1133.99 379.131 1105.41 380.064 1101.8Z"/><path fill="#FDFDFD" d="M1216.37 266.578L1249.79 266.468C1249.75 276.686 1250.36 294.506 1249.51 304.004C1248.45 304.837 1247.95 304.48 1246.19 304.436C1234.79 304.497 1223.38 304.465 1211.97 304.339C1211.92 296.979 1211.24 274.043 1212.13 267.646C1213.88 266.405 1213.87 266.801 1216.37 266.578Z"/><path fill="#FDFDFD" d="M39.0676 608.619C51.2565 608.606 65.0329 608.891 77.0896 608.266C76.6107 619.94 76.9824 634.223 77.0101 646.093C65.4139 646.547 51.1463 646.383 39.5843 646.104C38.2494 643.145 39.0352 613.518 39.0676 608.619Z"/><path fill="#FDFDFD" d="M379.619 190.437C388.136 190.574 409.681 191.097 417.531 190.385C417.316 203.025 417.62 215.731 417.302 228.328L379.649 228.451L379.619 190.437Z"/><path fill="#FDFDFD" d="M984.898 114.575L1022.85 114.481C1022.85 126.179 1023.21 140.803 1022.77 152.276C1011.02 152.802 996.784 152.479 984.898 152.393L984.898 114.575Z"/><path fill="#FDFDFD" d="M833.616 114.517L871.252 114.537L871.28 152.504C858.763 152.394 846.246 152.36 833.728 152.404C833.128 141.152 833.382 125.918 833.616 114.517Z"/><path fill="#FDFDFD" d="M352.887 912.025C360.728 911.67 371.536 912.054 379.608 912.089L379.617 950.082C376.556 949.898 372.234 950.034 369.067 950.048C360.016 950.077 351.003 950.182 341.96 949.787C341.5 937.733 341.806 924.388 341.934 912.249L352.887 912.025Z"/><path fill="#FDFDFD" d="M39.0909 456.759C51.6287 456.601 64.482 456.713 77.0422 456.697C76.897 469.151 77.3153 481.72 76.9044 494.17C65.8581 494.468 49.9949 494.853 39.1414 494.139C38.7404 482.014 39.0303 468.954 39.0909 456.759Z"/><path fill="#FDFDFD" d="M1227.52 494.465C1234.27 494.211 1242.89 494.501 1249.78 494.552L1249.79 532.171C1244.91 532.42 1240.06 532.435 1235.17 532.481C1227.34 532.496 1219.79 532.529 1211.96 532.193C1211.88 519.66 1211.87 507.126 1211.92 494.593C1217.12 494.587 1222.32 494.545 1227.52 494.465Z"/><path fill="#FDFDFD" d="M379.633 266.437C392.25 266.618 404.868 266.616 417.484 266.431L417.414 304.381L379.753 304.485L379.633 266.437Z"/><path fill="#FDFDFD" d="M152.701 190.544L190.519 190.49L190.535 228.467L152.806 228.383C152.316 216.169 152.632 202.844 152.701 190.544Z"/><path fill="#FDFDFD" d="M871.352 76.4713C883.967 76.517 896.581 76.4575 909.194 76.2929C909 88.9554 908.972 101.62 909.108 114.283C896.55 114.406 883.992 114.44 871.433 114.386C871.199 101.954 871.363 88.9471 871.352 76.4713Z"/><path fill="#FDFDFD" d="M1135.27 380.65L1136.21 381.184C1136.8 392.101 1136.32 407.125 1136.2 418.292C1124.58 418.795 1111.38 418.502 1099.65 418.504C1099.57 418.447 1099.47 418.406 1099.4 418.332C1097.25 415.998 1098.39 386.166 1098.38 380.776C1110.68 380.658 1122.97 380.616 1135.27 380.65Z"/><path fill="#FDFDFD" d="M236.54 266.662C246.028 266.287 256.66 266.479 266.235 266.454L266.167 304.331L256.622 304.399C247.253 304.492 237.884 304.481 228.515 304.365C228.172 292.403 228.431 278.912 228.42 266.838L236.54 266.662Z"/><path fill="#FDFDFD" d="M417.331 152.639C422.108 152.596 453.493 151.991 455.392 153.047C455.23 165.47 455.2 177.894 455.302 190.318L417.531 190.385C417.484 178.055 417.663 164.895 417.331 152.639Z"/><path fill="#FDFDFD" d="M227.136 380.545L227.907 380.685C228.735 382.849 228.283 413.909 228.267 418.327C217.086 418.76 203.665 418.684 192.475 418.524L191.175 418.059C189.897 415.494 190.517 385.411 190.54 380.451C202.16 381.026 215.387 380.642 227.136 380.545Z"/><path fill="#FDFDFD" d="M530.974 950.306C543.573 950.092 556.174 949.991 568.774 950.003L568.869 987.962L530.98 987.936L530.974 950.306Z"/><path fill="#FDFDFD" d="M228.45 228.429C227.887 240.032 228.278 254.531 228.269 266.349C215.731 266.446 203.192 266.453 190.654 266.369C190.131 254.67 190.527 240.359 190.535 228.467C201.985 228.679 217.058 228.882 228.45 228.429Z"/><path fill="#FDFDFD" d="M341.89 304.877C354.449 304.592 367.013 304.61 379.572 304.929C379.601 317.282 379.8 330.088 379.471 342.402C369.056 342.974 352.265 342.902 341.836 342.293C341.74 329.821 341.758 317.348 341.89 304.877Z"/><path fill="#FDFDFD" d="M417.395 1140.03C429.946 1139.93 442.83 1139.67 455.348 1140.07C455.148 1152.38 455.413 1165.13 455.277 1177.57C444.671 1178.13 428.273 1177.68 417.543 1177.55C417.066 1166.03 417.435 1151.72 417.395 1140.03Z"/><path fill="#FDFDFD" d="M1098.38 912.15C1110.72 911.831 1123.87 912.053 1136.27 912.05C1136.39 924.647 1136.35 937.246 1136.16 949.842C1123.59 950.209 1111.02 950.203 1098.46 949.823L1098.38 912.15Z"/><path fill="#FDFDFD" d="M310.327 1101.82C320.773 1101.7 331.22 1101.69 341.667 1101.79C341.718 1108.48 342.288 1133.7 341.337 1138.89C339.499 1140.06 339.511 1139.65 336.921 1139.69C325.97 1139.75 315.019 1139.73 304.069 1139.64C303.805 1133.56 303.652 1107.79 304.374 1102.68C305.732 1101.79 308.537 1101.9 310.327 1101.82Z"/><path fill="#FDFDFD" d="M267.312 380.496C279.514 380.604 291.718 380.6 303.92 380.483C303.809 386.018 304.465 415.854 303.06 418.328C292.124 418.841 277.178 418.742 266.245 418.451C266.141 406.794 266.136 394.748 266.29 383.072C266.316 381.057 266.293 381.347 267.312 380.496Z"/><path fill="#FDFDFD" d="M379.7 1177.91L417.401 1177.78C417.466 1190.43 417.446 1203.08 417.341 1215.73C404.813 1215.98 392.281 1215.95 379.754 1215.64C379.57 1203.06 379.552 1190.49 379.7 1177.91Z"/><path fill="#FDFDFD" d="M1098.4 532.66C1111.04 532.564 1123.67 532.549 1136.31 532.614L1136.27 570.461C1123.66 570.533 1111.06 570.542 1098.46 570.487L1098.4 532.66Z"/><path fill="#FDFDFD" d="M1211.92 418.853C1224.53 418.658 1237.14 418.612 1249.76 418.715C1249.81 431.247 1249.8 443.78 1249.73 456.312C1237.45 456.432 1224.18 456.669 1211.98 456.229C1211.53 444.45 1211.86 430.766 1211.92 418.853Z"/><path fill="#FDFDFD" d="M795.842 988.156C808.459 987.909 821.08 987.913 833.697 988.167C833.216 999.95 833.504 1013.71 833.458 1025.64C821.191 1026.13 807.97 1025.94 795.704 1025.67C795.615 1013.17 795.662 1000.66 795.842 988.156Z"/><path fill="#FDFDFD" d="M795.706 152.562L833.654 152.516L833.608 190.356C820.991 190.451 808.373 190.418 795.756 190.257C795.083 179.071 795.541 163.921 795.706 152.562Z"/><path fill="#FDFDFD" d="M1189.37 912.029C1196.72 911.927 1204.43 912.09 1211.81 912.15L1211.85 949.89L1196.14 949.985C1188.79 950.005 1181.45 949.952 1174.1 949.827L1174.1 912.301L1189.37 912.029Z"/><path fill="#FDFDFD" d="M757.968 1026.04C770.089 1025.72 783.46 1025.94 795.674 1025.92C795.482 1038.55 795.875 1051.13 795.534 1063.85C783.029 1063.93 770.524 1063.87 758.021 1063.65C757.606 1051.68 757.94 1038.13 757.968 1026.04Z"/><path fill="#FDFDFD" d="M379.679 1026.08C392.071 1025.79 404.857 1025.94 417.28 1025.92C417.194 1038.58 417.615 1050.87 417.344 1063.6C405.201 1064.15 391.918 1063.88 379.77 1063.62C379.573 1051.11 379.542 1038.6 379.679 1026.08Z"/><path fill="#FDFDFD" d="M341.833 988.245C354.427 987.96 367.026 987.899 379.622 988.061C379.451 1000.51 379.6 1013.42 379.597 1025.9C367.381 1025.54 354.522 1025.97 341.983 1025.65C341.541 1013.41 341.783 1000.53 341.833 988.245Z"/><path fill="#FDFDFD" d="M946.902 684.253C959.518 684.124 972.135 684.152 984.751 684.338C984.68 696.957 984.71 709.575 984.839 722.193L946.935 722.207C946.93 709.515 946.549 696.937 946.902 684.253Z"/><path fill="#FDFDFD" d="M285.364 1139.8C289.644 1139.51 299.336 1139.81 303.958 1139.82C303.786 1152.42 303.843 1165.02 304.128 1177.62L285.181 1177.85C279.012 1177.89 272.551 1177.66 266.36 1177.55C265.978 1165.46 266.23 1152.16 266.212 1139.98C272.491 1140.02 279.063 1139.87 285.364 1139.8Z"/><path fill="#FDFDFD" d="M946.829 152.625L984.73 152.54C984.511 164.893 984.699 177.938 984.702 190.341C972.167 190.428 959.633 190.409 947.098 190.285C946.24 179.56 946.739 163.708 946.829 152.625Z"/><path fill="#FDFDFD" d="M1200.58 380.548L1211.87 380.427C1211.79 393.08 1211.79 405.733 1211.87 418.386C1202.72 418.654 1193.21 418.585 1184.04 418.58L1174.16 418.363C1173.98 405.787 1173.93 393.21 1174.03 380.633C1182.88 380.755 1191.73 380.727 1200.58 380.548Z"/><path fill="#FDFDFD" d="M152.789 950.278C163.383 950.053 180.244 949.48 190.563 950.161L190.58 987.935L152.926 987.913C152.461 975.839 152.762 962.448 152.789 950.278Z"/><path fill="#FDFDFD" d="M946.79 380.689L984.74 380.574C984.473 389.85 985.583 409.967 984.391 418.317C971.86 418.607 959.326 418.677 946.794 418.527C946.564 406.067 946.759 393.181 946.79 380.689Z"/><path fill="#FDFDFD" d="M1174.29 684.365C1186.81 684.251 1199.34 684.253 1211.86 684.371C1211.78 696.955 1211.8 709.539 1211.9 722.123C1199.95 722.477 1186.19 722.199 1174.1 722.207C1173.99 709.593 1174.05 696.978 1174.29 684.365Z"/><path fill="#FDFDFD" d="M1211.9 646.548C1224.37 646.689 1237.25 646.516 1249.75 646.498C1249.58 658.888 1249.76 671.681 1249.79 684.101C1238.16 684.645 1223.71 684.237 1211.88 684.228C1211.75 671.781 1211.89 659.017 1211.9 646.548Z"/><path fill="#FDFDFD" d="M1060.54 494.67C1073.15 494.455 1085.76 494.446 1098.36 494.642L1098.16 532.304C1085.86 532.572 1072.9 532.373 1060.54 532.378C1060.36 519.99 1060.53 507.095 1060.54 494.67Z"/><path fill="#FDFDFD" d="M83.4922 1025.9C93.7964 1025.7 104.437 1025.86 114.768 1025.89C114.607 1031.54 115.469 1060.68 113.981 1063.74L110.98 1063.86C99.7271 1063.95 88.4734 1063.88 77.2222 1063.65C76.9897 1057.85 76.677 1031.04 77.5209 1026.74C79.1824 1025.69 81.4383 1025.93 83.4922 1025.9Z"/><path fill="#FDFDFD" d="M871.294 228.419C883.873 228.582 896.453 228.631 909.033 228.567L909.111 266.345L871.289 266.413C871.579 254.259 871.487 240.562 871.294 228.419Z"/><path fill="#FDFDFD" d="M644.556 228.622L682.105 228.55C682.183 238.249 682.828 257.459 681.95 266.296C669.454 266.435 656.957 266.452 644.46 266.349C644.014 257.443 643.958 237.49 644.556 228.622Z"/><path fill="#FDFDFD" d="M909.185 114.534C921.716 114.604 934.247 114.547 946.776 114.363C946.401 126.38 946.752 140.259 946.777 152.417C934.254 152.489 921.731 152.47 909.208 152.361C909.104 139.752 909.096 127.142 909.185 114.534Z"/><path fill="#FDFDFD" d="M568.832 1140.04C581.465 1139.86 594.1 1139.78 606.734 1139.81C606.686 1152.1 607.041 1165.41 606.577 1177.54C594.779 1177.81 580.565 1178.09 568.89 1177.67L568.832 1140.04Z"/><path fill="#FDFDFD" d="M379.649 228.451C379.549 241.113 379.543 253.775 379.633 266.437L341.966 266.344C341.536 254.005 341.781 241.025 341.832 228.633C354.436 228.461 367.029 228.653 379.649 228.451Z"/><path fill="#FDFDFD" d="M871.289 266.413L871.22 304.463C865.172 304.321 837.143 305.271 833.654 303.857C833.428 291.438 833.39 279.017 833.539 266.597C846.103 266.37 858.607 266.88 871.289 266.413Z"/><path fill="#FDFDFD" d="M1136.36 494.51C1148.89 494.556 1161.42 494.536 1173.95 494.45C1173.9 507.086 1173.94 519.722 1174.07 532.357C1162.18 532.659 1148.17 532.713 1136.36 532.305C1136.45 519.707 1136.45 507.108 1136.36 494.51Z"/><path fill="#FDFDFD" d="M1174.03 608.708C1186.41 608.407 1199.37 608.579 1211.79 608.56C1211.7 620.482 1212.27 634.335 1211.64 646.118C1200.22 646.464 1185.34 646.658 1174.04 646.068C1173.78 633.798 1173.99 621.015 1174.03 608.708Z"/><path fill="#FDFDFD" d="M1088.53 266.659C1090.19 266.41 1096.36 266.527 1098.36 266.529C1098.14 278.894 1098.35 292.084 1098.35 304.506L1072.3 304.441L1060.6 304.332C1060.48 291.815 1060.48 279.298 1060.6 266.781L1088.53 266.659Z"/><path fill="#FDFDFD" d="M749.031 1139.8L757.967 1139.78L757.939 1177.57L731.802 1177.85L720.252 1177.57L720.184 1140.05C729.678 1139.76 739.507 1139.84 749.031 1139.8Z"/><path fill="#FDFDFD" d="M1211.95 570.63L1249.82 570.627C1249.5 582.925 1249.8 595.958 1249.66 608.378C1237.99 608.542 1223.47 608.796 1211.99 608.171C1211.61 596.229 1211.87 582.652 1211.95 570.63Z"/><path fill="#FDFDFD" d="M379.639 38.5554L417.431 38.5199C417.476 51.0767 417.441 63.6336 417.327 76.1899C404.925 76.5675 392.159 76.358 379.73 76.2439C379.352 64.0098 379.613 50.8558 379.639 38.5554Z"/><path fill="#FDFDFD" d="M682.242 950.161C694.874 950.059 707.507 950.1 720.138 950.284C719.847 962.463 720.079 975.474 720.082 987.716C708.916 988.29 693.441 988.039 682.219 987.813L682.242 950.161Z"/><path fill="#FDFDFD" d="M758.017 950.248C770.577 950.257 783.136 950.154 795.694 949.938C795.764 962.59 795.704 975.243 795.513 987.894C783.22 987.937 770.32 988.176 758.084 987.702C757.621 975.357 757.857 962.621 758.017 950.248Z"/><path fill="#FDFDFD" d="M871.331 190.445C871.225 203.103 871.213 215.761 871.294 228.419L833.654 228.349C832.988 217.125 833.508 201.968 833.613 190.492C846.186 190.543 858.758 190.527 871.331 190.445Z"/><path fill="#FDFDFD" d="M1098.43 304.896C1111.05 304.701 1123.67 304.652 1136.29 304.748C1136.03 317.222 1136.45 329.862 1136.18 342.415C1123.59 342.806 1111 342.794 1098.42 342.381L1098.43 304.896Z"/><path fill="#FDFDFD" d="M417.473 1064.1L455.396 1064.01C455.452 1076.56 455.335 1089.11 455.046 1101.66C442.604 1101.8 429.93 1102.14 417.518 1101.66C417.361 1089.14 417.346 1076.62 417.473 1064.1Z"/><path fill="#FDFDFD" d="M984.925 1101.87L1022.85 1101.85L1022.84 1139.57C1010.97 1140.05 996.769 1139.79 984.898 1139.66L984.925 1101.87Z"/><path fill="#FDFDFD" d="M152.729 38.5674L190.657 38.586C190.285 50.9175 190.774 63.5668 190.387 76.0501C179.406 76.8489 164.063 76.3551 152.847 76.176C152.186 65.0067 152.614 50.0183 152.729 38.5674Z"/><path fill="#FDFDFD" d="M311.08 266.649C320.606 266.289 332.003 266.561 341.73 266.495C341.689 273.666 342.32 298.169 341.39 303.712C339.953 304.787 337.862 304.42 335.91 304.387C325.327 304.481 314.743 304.458 304.16 304.318C304.038 298.659 303.438 270.914 304.685 267.343C306.647 266.405 308.857 266.643 311.08 266.649Z"/><path fill="#FDFDFD" d="M984.898 266.672L1022.85 266.665L1022.85 304.399L984.989 304.366C984.528 292.922 984.899 278.345 984.898 266.672Z"/><path fill="#FDFDFD" d="M341.841 1064.16C353.609 1063.74 367.689 1064.06 379.59 1064.13L379.596 1101.7C367.368 1101.84 354.047 1102.02 341.892 1101.59C341.447 1089.88 341.773 1076.04 341.841 1064.16Z"/><path fill="#FDFDFD" d="M464.953 1025.88C474.035 1025.8 483.971 1025.54 492.956 1026.03L492.997 1063.64L483.568 1063.8C474.22 1063.89 464.872 1063.84 455.525 1063.65L455.327 1026.12L464.953 1025.88Z"/><path fill="#FDFDFD" d="M304.134 950.28C316.646 950.052 329.16 950.017 341.674 950.173C341.72 955.356 342.428 985.461 340.989 987.937C328.937 987.991 316.177 988.251 304.192 987.75C303.714 976.345 303.907 961.698 304.134 950.28Z"/><path fill="#FDFDFD" d="M79.2011 266.615C91.058 266.506 102.916 266.493 114.773 266.576C114.601 272.416 115.273 300.963 114.121 304.011L112.817 304.378C101.182 304.701 88.8231 304.414 77.1341 304.327C77.0989 298.827 76.5221 270.453 77.7129 267.067L79.2011 266.615Z"/><path fill="#FDFDFD" d="M1180.18 228.697C1190.44 228.385 1201.54 228.546 1211.87 228.504L1211.81 266.36L1203.03 266.394L1174.15 266.356C1173.61 255.225 1174.01 240.282 1174.01 228.801L1180.18 228.697Z"/><path fill="#FDFDFD" d="M795.723 912.06L833.535 912.05C833.666 924.669 833.671 937.288 833.552 949.906L795.696 949.976L795.723 912.06Z"/><path fill="#FDFDFD" d="M266.312 836.232C277.729 835.987 292.565 835.814 303.823 836.344C303.762 848.883 303.828 861.421 304.019 873.958C291.389 874.065 278.757 874.07 266.126 873.974C266.415 861.537 266.284 848.7 266.312 836.232Z"/><path fill="#FDFDFD" d="M795.696 1139.88L833.555 1139.82C833.461 1152.44 833.826 1164.93 833.488 1177.59C820.892 1177.84 808.292 1177.83 795.696 1177.58L795.696 1139.88Z"/><path fill="#FDFDFD" d="M39.0997 684.27L76.8381 684.272L76.8381 722.207L39.1827 722.197C38.9091 709.556 38.8814 696.911 39.0997 684.27Z"/><path fill="#FDFDFD" d="M379.678 874.317C392.262 874.179 404.847 874.16 417.432 874.258C417.456 886.553 417.676 899.473 417.173 911.709C406.373 912.378 390.715 911.985 379.771 911.808C379.407 899.515 379.634 886.654 379.678 874.317Z"/><path fill="#FDFDFD" d="M1137.39 1101.85C1149.45 1101.67 1161.77 1101.77 1173.85 1101.75C1173.9 1107.08 1174.75 1136.73 1173.04 1139.54C1161.35 1140.06 1148.22 1139.71 1136.42 1139.57C1136.33 1131.35 1135.81 1109.71 1136.6 1102.46L1137.39 1101.85Z"/><path fill="#FDFDFD" d="M304.083 190.554L341.758 190.512L341.645 228.328C329.106 228.443 316.566 228.452 304.027 228.355C303.574 217.155 303.846 201.828 304.083 190.554Z"/><path fill="#FDFDFD" d="M568.899 1064.17C581.512 1064.05 594.126 1064.02 606.74 1064.08L606.611 1101.38C601.067 1102.42 575.584 1101.74 568.911 1101.6C568.832 1089.12 568.829 1076.64 568.899 1064.17Z"/><path fill="#FDFDFD" d="M644.457 988.178C657.02 988 669.584 988.028 682.146 988.261C682.196 1000.74 682.176 1013.22 682.086 1025.7C669.545 1025.97 657 1026.02 644.457 1025.88L644.457 988.178Z"/><path fill="#FDFDFD" d="M682.212 1026.13C694.422 1025.67 707.769 1025.93 720.063 1025.94L720.117 1063.68C707.491 1063.95 694.861 1063.93 682.236 1063.61L682.212 1026.13Z"/><path fill="#FDFDFD" d="M114.983 684.404C127.291 684.057 140.402 684.275 152.769 684.275C152.826 696.914 152.756 709.553 152.558 722.19L115.004 722.197C114.767 709.6 114.76 697.001 114.983 684.404Z"/><path fill="#FDFDFD" d="M1211.82 874.262C1224.45 874.154 1237.07 874.175 1249.7 874.324L1249.72 911.808C1237.01 911.809 1224.85 912.018 1212.1 911.714C1211.6 899.632 1211.83 886.43 1211.82 874.262Z"/><path fill="#FDFDFD" d="M530.915 1102C543.066 1101.57 556.554 1101.85 568.803 1101.85C568.841 1114.43 568.814 1127.02 568.722 1139.6C556.208 1139.77 543.693 1139.75 531.18 1139.54C531.292 1127.03 531.203 1114.52 530.915 1102Z"/><path fill="#FDFDFD" d="M531.007 38.5826L568.861 38.5531C568.76 50.9554 569.071 63.702 568.686 76.0631C557.906 76.8117 542.086 76.3306 530.982 76.188L531.007 38.5826Z"/><path fill="#FDFDFD" d="M77.1346 494.531C89.7259 494.577 102.317 494.536 114.908 494.407C114.477 506.701 114.632 519.899 114.589 532.259C102.57 532.748 89.1617 532.479 77.1142 532.348L77.1346 494.531Z"/><path fill="#FDFDFD" d="M1211.94 342.889C1224.53 342.753 1237.13 342.726 1249.72 342.81C1249.8 355.303 1249.78 367.796 1249.68 380.289C1237.13 380.489 1224.58 380.467 1212.04 380.223C1211.82 367.78 1211.78 355.333 1211.94 342.889Z"/><path fill="#FDFDFD" d="M1211.87 38.618C1224.49 38.5408 1237.11 38.5291 1249.73 38.5828L1249.75 76.137C1237.18 76.4752 1224.6 76.4806 1212.03 76.153C1211.71 63.8488 1211.88 50.9645 1211.87 38.618Z"/><path fill="#FDFDFD" d="M1174.01 760.355C1186.57 760.221 1199.36 760.337 1211.94 760.342C1211.79 772.845 1211.78 785.35 1211.88 797.853C1199.31 797.929 1186.73 797.936 1174.16 797.874C1173.81 785.505 1173.99 772.755 1174.01 760.355Z"/><path fill="#FDFDFD" d="M1098.36 608.682L1136.24 608.503C1136.33 621.029 1136.34 633.555 1136.27 646.082C1124.16 646.566 1110.61 646.328 1098.47 646.116L1098.36 608.682Z"/><path fill="#FDFDFD" d="M417.509 912.21C429.72 911.81 442.956 912.044 455.242 912.034L455.242 949.808C443.458 950.332 429.405 949.98 417.454 949.985C416.976 938.407 417.449 923.996 417.509 912.21Z"/><path fill="#FDFDFD" d="M114.786 1064.12L152.764 1063.96C152.786 1069.78 154.027 1098.29 151.774 1101.59C139.925 1102.04 126.933 1101.91 115.06 1101.73C114.5 1089.61 114.795 1076.35 114.786 1064.12Z"/><path fill="#FDFDFD" d="M77.1516 950.157C89.3453 950.348 102.312 950.068 114.704 950.187C114.729 955.158 115.39 985.635 113.826 987.791C102.727 988.15 88.1843 988.191 77.1794 987.756C76.9251 975.393 77.1249 962.555 77.1516 950.157Z"/><path fill="#FDFDFD" d="M1174.12 532.695C1186.69 532.587 1199.26 532.551 1211.82 532.587C1211.8 544.944 1212.05 557.959 1211.66 570.236C1199.67 570.794 1186.33 570.473 1174.23 570.419L1174.12 532.695Z"/><path fill="#FDFDFD" d="M115.006 836.301L152.754 836.09L152.752 874.018C140.166 874.063 127.58 874.011 114.996 873.862C114.439 863.573 114.64 846.636 115.006 836.301Z"/><path fill="#FDFDFD" d="M1098.38 1064.16C1111.03 1064.05 1123.67 1064.03 1136.32 1064.09C1136.33 1076.48 1136.5 1089.25 1136.16 1101.6C1123.59 1101.98 1111.01 1101.97 1098.44 1101.59L1098.38 1064.16Z"/><path fill="#FDFDFD" d="M833.685 1101.87L871.254 1101.85L871.225 1139.66L833.659 1139.69L833.685 1101.87Z"/><path fill="#FDFDFD" d="M1098.45 760.341L1136.2 760.345L1136.33 797.946L1098.48 797.883L1098.45 760.341Z"/><path fill="#FDFDFD" d="M568.938 988.184C581.678 988.076 593.962 987.843 606.717 988.195L606.686 1025.87L568.873 1025.9C568.815 1013.33 568.836 1000.75 568.938 988.184Z"/><path fill="#FDFDFD" d="M946.935 912.28C959.073 911.779 972.489 912.044 984.722 912.043L984.836 949.98C972.367 950.001 959.365 950.205 946.942 949.791L946.935 912.28Z"/><path fill="#FDFDFD" d="M871.349 1140.1C883.894 1139.87 896.441 1139.78 908.987 1139.83C908.799 1152.19 908.96 1165.07 908.96 1177.47C896.445 1177.96 883.916 1178.01 871.397 1177.61L871.349 1140.1Z"/><path fill="#FDFDFD" d="M152.776 798.145L190.548 798.145L190.483 835.88C177.915 836.027 165.345 836.025 152.776 835.876L152.776 798.145Z"/><path fill="#FDFDFD" d="M114.93 608.629L152.769 608.556L152.756 646.132C141.814 646.702 125.897 646.269 114.814 646.139C114.376 634.079 114.724 620.756 114.93 608.629Z"/><path fill="#FDFDFD" d="M266.329 304.921C278.856 304.608 291.388 304.581 303.916 304.839C303.903 315.733 304.431 332.06 303.725 342.511C291.222 342.839 278.712 342.813 266.21 342.432L266.329 304.921Z"/><path fill="#FDFDFD" d="M1098.42 836.221C1110.99 836.042 1123.73 836.133 1136.31 836.118L1136.23 873.884C1123.64 873.982 1111.06 873.988 1098.47 873.904L1098.42 836.221Z"/><path fill="#FDFDFD" d="M871.28 152.504C883.868 152.672 896.458 152.677 909.047 152.521L909.031 190.301C897.754 190.337 882.1 189.89 871.331 190.445C871.815 179.445 871.327 163.834 871.28 152.504Z"/><path fill="#FDFDFD" d="M77.1498 646.495C89.3475 646.804 102.188 646.306 114.704 646.56C114.659 659.072 114.701 671.584 114.829 684.096C103.63 684.623 88.3785 684.299 77.1346 684.136C77.0427 671.589 77.0478 659.042 77.1498 646.495Z"/><path fill="#FDFDFD" d="M115.038 304.903L152.786 304.648C152.558 317.134 152.835 329.881 152.65 342.477C140.105 342.638 127.559 342.628 115.014 342.445C114.391 331.041 114.86 316.534 115.038 304.903Z"/><path fill="#FDFDFD" d="M304.12 38.5518L341.724 38.5963C341.828 50.8416 342.013 63.9167 341.57 76.1357C329.87 76.7426 315.876 76.3928 304.115 76.1774C303.983 63.6359 303.984 51.0933 304.12 38.5518Z"/><path fill="#FDFDFD" d="M606.817 950.293C619.338 950.055 631.863 949.974 644.386 950.051C644.428 962.643 644.352 975.235 644.161 987.825C631.877 988.079 619.129 987.921 606.81 987.932C606.684 975.433 606.797 962.802 606.817 950.293Z"/><path fill="#FDFDFD" d="M114.818 456.794L152.764 456.659C152.786 462.346 153.977 491.026 151.766 494.144C141.599 494.612 125.108 494.776 115.085 494.128C114.543 482.135 114.808 468.887 114.818 456.794Z"/><path fill="#FDFDFD" d="M833.623 38.571L871.255 38.5594C871.311 51.086 871.287 63.6127 871.181 76.139C859.233 76.6661 845.615 76.412 833.632 76.2188C833.433 63.6703 833.43 51.1195 833.623 38.571Z"/><path fill="#FDFDFD" d="M624.828 1025.93C631.374 1025.8 637.922 1025.82 644.466 1025.99C644.24 1038.4 644.412 1051.16 644.234 1063.68C638.184 1063.8 632.133 1063.86 626.082 1063.87C619.656 1063.92 613.23 1063.84 606.808 1063.64L606.803 1026.11C612.713 1025.92 618.894 1025.97 624.828 1025.93Z"/><path fill="#FDFDFD" d="M909.208 190.554C921.734 190.48 934.26 190.485 946.786 190.571C946.638 203.038 946.77 215.847 946.769 228.338L909.202 228.375C909.05 215.768 909.052 203.16 909.208 190.554Z"/><path fill="#FDFDFD" d="M1174.03 152.633L1211.82 152.623L1211.77 190.27C1199.23 190.482 1186.68 190.465 1174.13 190.218C1173.75 178.071 1174.01 164.849 1174.03 152.633Z"/><path fill="#FDFDFD" d="M947.061 760.367C959.629 760.295 972.196 760.297 984.764 760.371C984.685 772.855 984.684 785.34 984.761 797.824C972.153 797.949 959.544 797.98 946.935 797.917C946.835 785.4 946.877 772.883 947.061 760.367Z"/><path fill="#FDFDFD" d="M266.311 684.365C278.874 684.176 291.44 684.199 304.003 684.435L303.977 722.181L266.308 722.198C266.229 709.587 266.23 696.976 266.311 684.365Z"/><path fill="#FDFDFD" d="M795.847 1064.24C808.444 1064.03 821.044 1063.97 833.643 1064.08L833.524 1101.61C820.919 1101.9 808.31 1101.91 795.704 1101.66C795.596 1089.18 795.644 1076.71 795.847 1064.24Z"/><path fill="#FDFDFD" d="M455.323 190.555L492.989 190.465L493.054 228.329C480.536 228.475 468.016 228.465 455.497 228.301C455.509 215.719 455.451 203.137 455.323 190.555Z"/><path fill="#FDFDFD" d="M1212.06 722.433C1224.63 722.37 1237.19 722.386 1249.76 722.484L1249.86 760.16C1237.26 760.223 1224.67 760.17 1212.07 760.003C1211.59 748.122 1212 734.434 1212.06 722.433Z"/><path fill="#FDFDFD" d="M984.898 874.281C997.548 874.191 1010.2 874.167 1022.85 874.21C1022.91 886.715 1022.88 899.221 1022.76 911.726C1010.14 911.946 997.519 912.007 984.898 911.91L984.898 874.281Z"/><path fill="#FDFDFD" d="M77.1252 798.145L114.712 798.145C114.649 810.74 114.662 823.334 114.749 835.929C102.644 836.342 89.2774 836.076 77.1347 835.924C76.8909 823.642 77.1127 810.492 77.1252 798.145Z"/><path fill="#FDFDFD" d="M455.308 114.566L492.96 114.515L493.049 152.386L455.569 152.408C455.219 139.941 455.584 127.161 455.308 114.566Z"/><path fill="#FDFDFD" d="M1174.1 1140L1211.8 1139.82L1211.84 1177.65C1199.55 1177.72 1186.31 1178.04 1174.11 1177.48L1174.1 1140Z"/><path fill="#FDFDFD" d="M644.457 1140.06C657.023 1139.86 669.59 1139.78 682.157 1139.82L682.126 1177.65C669.821 1177.89 656.874 1177.67 644.53 1177.6C644.135 1165.98 644.461 1151.86 644.457 1140.06Z"/><path fill="#FDFDFD" d="M946.935 456.828L984.783 456.669L984.659 494.201C973.579 494.581 957.928 494.733 946.935 494.129C946.758 481.696 946.758 469.261 946.935 456.828Z"/><path fill="#FDFDFD" d="M417.455 988.163C430.05 987.903 442.649 987.935 455.242 988.261L455.242 1025.7C442.657 1026 430.065 1026 417.48 1025.68C417.294 1013.29 417.445 1000.58 417.455 988.163Z"/><path fill="#FDFDFD" d="M1136.38 646.388C1148.88 646.552 1161.37 646.554 1173.86 646.395C1173.99 658.971 1174.04 671.548 1174 684.125C1162.17 684.575 1148.35 684.229 1136.37 684.226C1136.44 671.614 1136.45 659 1136.38 646.388Z"/><path fill="#FDFDFD" d="M228.45 418.802C241.024 418.674 253.598 418.628 266.173 418.665L266.241 456.262C253.632 456.402 241.022 456.455 228.412 456.42L228.45 418.802Z"/><path fill="#FDFDFD" d="M341.978 836.229L379.541 836.121L379.558 873.873C367.033 874.123 354.504 874.128 341.978 873.889L341.978 836.229Z"/><path fill="#FDFDFD" d="M228.416 342.879C241.004 342.751 253.592 342.715 266.181 342.772L266.177 380.204C253.625 380.447 241.071 380.493 228.519 380.34C228.201 368.185 228.429 355.106 228.416 342.879Z"/><path fill="#FDFDFD" d="M1174 1064.18C1186.42 1063.86 1199.33 1064.05 1211.8 1064.07L1211.76 1101.61C1198.99 1101.7 1186.85 1102.05 1174.05 1101.61L1174 1064.18Z"/><path fill="#FDFDFD" d="M946.935 988.237C959.546 987.899 972.164 987.875 984.776 988.163C984.671 1000.7 984.678 1013.25 984.798 1025.79C972.178 1025.98 959.555 1025.94 946.935 1025.69L946.935 988.237Z"/><path fill="#FDFDFD" d="M455.573 266.632C467.701 266.537 480.98 267.055 492.955 266.494L493.026 304.125C488.961 304.926 461.104 304.374 455.455 304.322C455.407 292.202 455.108 278.693 455.573 266.632Z"/><path fill="#FDFDFD" d="M910.766 266.607L946.741 266.491C946.742 272.564 947.104 299.022 946.376 303.69L945.413 304.358C933.36 304.538 921.305 304.515 909.253 304.288C909.207 298.437 908.683 270.645 909.596 267.14L910.766 266.607Z"/><path fill="#FDFDFD" d="M1136.39 950.231C1148.89 950.01 1161.39 949.958 1173.89 950.074C1174.28 962.463 1173.99 975.491 1173.9 987.931L1136.39 987.932L1136.39 950.231Z"/><path fill="#FDFDFD" d="M266.28 912.14C278.822 912.046 291.364 912.05 303.906 912.152C303.554 924.193 303.948 937.77 303.984 949.951C291.423 950.011 278.862 949.996 266.302 949.907L266.28 912.14Z"/><path fill="#FDFDFD" d="M152.803 1101.87L190.705 1101.85C190.203 1113.44 190.518 1127.93 190.465 1139.67C177.902 1139.8 165.339 1139.79 152.776 1139.65L152.803 1101.87Z"/><path fill="#FDFDFD" d="M39.0635 1064.16C51.6544 1063.98 64.2472 1063.98 76.8381 1064.16L76.8381 1101.54C65.3998 1102 50.5498 1102.06 39.1305 1101.64C38.8659 1089.15 38.8435 1076.65 39.0635 1064.16Z"/><path fill="#FDFDFD" d="M152.776 570.609L190.678 570.629C190.146 582.208 190.54 596.536 190.539 608.319L152.792 608.319L152.776 570.609Z"/><path fill="#FDFDFD" d="M984.898 38.5853L1022.85 38.5487L1022.85 76.0621C1011.26 76.6251 996.771 76.2192 984.97 76.2139C984.574 64.6093 984.905 50.3562 984.898 38.5853Z"/><path fill="#FDFDFD" d="M266.298 76.4113L303.947 76.3412C303.791 88.9819 303.827 101.624 304.056 114.264C291.442 114.461 278.825 114.485 266.21 114.334L266.298 76.4113Z"/><path fill="#FDFDFD" d="M1060.54 342.851L1098.33 342.674L1098.28 380.304C1085.88 380.682 1072.98 380.391 1060.54 380.276C1060.3 368.022 1060.52 355.152 1060.54 342.851Z"/><path fill="#FDFDFD" d="M1136.33 797.946C1148.88 798.043 1161.43 798.059 1173.97 797.994L1173.89 835.853C1161.39 836.038 1148.89 836.043 1136.4 835.869C1136.42 823.414 1136.65 810.354 1136.33 797.946Z"/><path fill="#FDFDFD" d="M757.976 1177.95C770.547 1177.81 783.118 1177.79 795.689 1177.88C795.416 1190.11 795.657 1203.37 795.63 1215.72L758.069 1215.72C757.867 1203.13 757.836 1190.54 757.976 1177.95Z"/><path fill="#FDFDFD" d="M1060.55 1025.97C1072.8 1025.74 1085.85 1025.94 1098.16 1025.93L1098.16 1063.87C1085.74 1063.89 1072.95 1064.07 1060.57 1063.63C1060.33 1051.24 1060.53 1038.38 1060.55 1025.97Z"/><path fill="#FDFDFD" d="M152.776 646.483L190.517 646.552C190.295 658.752 190.52 671.837 190.537 684.1C178.946 684.642 164.572 684.238 152.776 684.23L152.776 646.483Z"/><path fill="#FDFDFD" d="M190.593 456.749L228.291 456.726L228.311 494.175C218.098 494.784 201.021 494.611 190.75 494.237C190.511 481.743 190.459 469.245 190.593 456.749Z"/><path fill="#FDFDFD" d="M946.935 1139.88C959.543 1139.92 972.15 1139.89 984.757 1139.79C984.835 1152.36 984.788 1164.93 984.617 1177.5C972.058 1177.73 959.496 1177.78 946.935 1177.63L946.935 1139.88Z"/><path fill="#FDFDFD" d="M984.898 418.754C997.548 418.629 1010.2 418.6 1022.85 418.668L1022.85 456.216C1010.74 456.72 997.119 456.387 984.898 456.347L984.898 418.754Z"/><path fill="#FDFDFD" d="M266.207 228.446C278.268 228.639 291.829 228.754 303.898 228.476L303.825 266.304C291.44 266.418 278.64 266.7 266.293 266.348L266.207 228.446Z"/><path fill="#FDFDFD" d="M909.19 1026.09C921.698 1025.94 934.207 1025.88 946.716 1025.92L946.641 1063.66C934.19 1064.06 921.73 1064.07 909.278 1063.68C909.14 1051.15 909.11 1038.62 909.19 1026.09Z"/><path fill="#FDFDFD" d="M833.659 874.159L871.264 874.188L871.231 911.792C858.489 911.853 846.452 912.015 833.659 911.841L833.659 874.159Z"/><path fill="#FDFDFD" d="M908.997 798.176L946.74 798.145L946.749 835.903C934.246 836.047 921.742 836.051 909.239 835.915L908.997 798.176Z"/><path fill="#FDFDFD" d="M984.898 342.877C997.548 342.717 1010.2 342.665 1022.85 342.722L1022.84 380.229C1010.21 380.448 997.589 380.463 984.965 380.277C984.568 368.79 984.904 354.536 984.898 342.877Z"/><path fill="#FDFDFD" d="M1060.53 1178C1073.07 1177.82 1085.62 1177.75 1098.16 1177.78L1098.14 1215.69L1060.53 1215.71C1060.36 1203.23 1060.51 1190.5 1060.53 1178Z"/><path fill="#FDFDFD" d="M757.957 1101.85L795.69 1101.85C795.773 1114.42 795.726 1127 795.549 1139.57C783.054 1139.76 770.557 1139.75 758.063 1139.55C757.883 1126.99 757.848 1114.42 757.957 1101.85Z"/><path fill="#FDFDFD" d="M304.005 342.9L341.719 342.655C341.58 352.345 342.534 371.644 341.479 380.291C329.01 380.507 316.538 380.478 304.07 380.203C303.72 367.997 303.958 355.156 304.005 342.9Z"/><path fill="#FDFDFD" d="M493.228 1064.12L530.911 1064.03C530.675 1076.42 530.858 1089.32 530.858 1101.74C518.325 1101.9 505.789 1101.88 493.257 1101.67L493.228 1064.12Z"/><path fill="#FDFDFD" d="M341.85 1140.06C354.427 1139.91 367.004 1139.87 379.582 1139.95L379.586 1177.58L341.909 1177.62C341.342 1166.38 341.773 1151.62 341.85 1140.06Z"/><path fill="#FDFDFD" d="M946.935 1064.17C959.28 1063.85 972.32 1064.02 984.717 1063.98L984.633 1101.67C971.893 1101.75 959.694 1101.87 946.935 1101.62L946.935 1064.17Z"/><path fill="#FDFDFD" d="M304.021 874.238L341.713 874.258C341.75 884.487 342.337 902.053 341.645 911.844C329.706 912.362 316.129 911.989 304.149 911.784C303.768 899.742 304.001 886.392 304.021 874.238Z"/><path fill="#FDFDFD" d="M644.457 1064.11L682.125 1064.06C682.292 1076.46 682.155 1089.25 682.159 1101.67C669.815 1101.76 656.736 1102.07 644.457 1101.62L644.457 1064.11Z"/><path fill="#FDFDFD" d="M1060.54 798.145L1098.16 798.145L1098.16 835.874C1085.63 836.16 1073.1 836.167 1060.57 835.895C1060.38 823.488 1060.54 810.588 1060.54 798.145Z"/><path fill="#FDFDFD" d="M114.88 912.225C127.504 912.009 140.13 911.973 152.754 912.117L152.744 949.952C140.1 950.016 127.456 949.984 114.813 949.856L114.88 912.225Z"/><path fill="#FDFDFD" d="M1136.37 266.424C1148.15 266.566 1162.24 266.863 1173.98 266.502L1173.86 304.304C1161.55 304.424 1148.68 304.694 1136.41 304.38C1136.42 293.467 1136.92 276.914 1136.37 266.424Z"/><path fill="#FDFDFD" d="M757.99 38.5602L795.757 38.5817L795.664 76.0608C783.677 76.6654 770.08 76.3544 758.045 76.2209C757.905 63.6678 757.887 51.1137 757.99 38.5602Z"/><path fill="#FDFDFD" d="M909.176 38.618L946.696 38.5798L946.795 76.3394C935.905 75.8612 920.383 76.3442 909.194 76.2929L909.176 38.618Z"/><path fill="#FDFDFD" d="M1174.16 456.772L1211.83 456.636C1211.71 468.037 1212.36 483.128 1211.64 494.178C1199.68 494.421 1185.9 494.695 1174.03 494.217C1173.91 481.735 1173.95 469.252 1174.16 456.772Z"/><path fill="#FDFDFD" d="M493.311 988.155C505.84 987.939 518.371 987.906 530.901 988.057C530.656 1000.32 530.865 1013.46 530.868 1025.78C518.315 1025.92 505.762 1025.95 493.209 1025.86L493.311 988.155Z"/><path fill="#FDFDFD" d="M190.739 684.325C203.197 684.17 215.853 684.28 228.327 684.274L228.305 722.207L190.739 722.197L190.739 684.325Z"/><path fill="#FDFDFD" d="M909.2 950.165C921.211 950.4 934.517 950.072 946.7 950.084L946.771 987.947L909.153 987.931L909.2 950.165Z"/><path fill="#FDFDFD" d="M228.437 1026C240.252 1025.64 254.081 1025.93 266.04 1025.92L266.04 1063.68C253.53 1063.94 241.015 1063.94 228.504 1063.66C228.387 1051.11 228.365 1038.55 228.437 1026Z"/><path fill="#FDFDFD" d="M190.697 304.911C203.249 304.695 215.804 304.693 228.356 304.906L228.244 342.48C215.68 342.677 203.114 342.702 190.55 342.555C190.429 330.007 190.478 317.458 190.697 304.911Z"/><path fill="#FDFDFD" d="M152.854 418.834C165.398 418.588 177.946 418.544 190.492 418.701C190.613 431.225 190.599 443.749 190.45 456.272C178.117 456.598 165.164 456.436 152.784 456.467L152.854 418.834Z"/><path fill="#FDFDFD" d="M682.42 1101.86L720.176 1101.85C719.814 1114.14 720.108 1127.33 720.17 1139.69C707.587 1139.75 695.003 1139.7 682.42 1139.54L682.42 1101.86Z"/><path fill="#FDFDFD" d="M77.1479 38.5686L114.732 38.6054C114.668 51.118 114.701 63.6308 114.83 76.1429C102.635 76.6641 89.3878 76.3582 77.1271 76.1865L77.1479 38.5686Z"/><path fill="#FDFDFD" d="M1098.42 456.753L1136.31 456.622L1136.25 494.12C1125.35 494.736 1109.23 494.854 1098.52 494.056L1098.42 456.753Z"/><path fill="#FDFDFD" d="M1060.53 570.62C1073.13 570.526 1085.73 570.543 1098.33 570.671L1098.26 608.586C1087.6 607.814 1071.64 608.311 1060.59 608.319L1060.53 570.62Z"/><path fill="#FDFDFD" d="M39.0595 760.363C51.6524 760.307 64.2455 760.324 76.8381 760.412L76.8381 797.748C64.274 798.005 51.7066 798.063 39.1407 797.921C38.6214 785.887 38.9011 772.444 39.0595 760.363Z"/><path fill="#FDFDFD" d="M455.301 1101.93C466.823 1101.5 481.248 1101.86 492.979 1101.86L493.035 1139.6C480.535 1139.73 468.033 1139.73 455.532 1139.6C455.251 1127.07 455.5 1114.5 455.301 1101.93Z"/><path fill="#FDFDFD" d="M455.36 950.233C467.885 950.011 480.414 950.009 492.939 950.226L492.966 987.798C480.81 988.162 467.753 987.931 455.531 987.93C455.082 975.707 455.333 962.522 455.36 950.233Z"/><path fill="#FDFDFD" d="M1212.06 950.265C1224.62 950.096 1237.17 950.067 1249.73 950.178L1249.76 987.947L1212.06 987.937L1212.06 950.265Z"/><path fill="#FDFDFD" d="M266.3 988.155C278.835 987.953 291.373 987.968 303.908 988.199C303.552 1000.23 303.828 1013.53 303.825 1025.66C291.28 1026.03 278.727 1026.03 266.182 1025.65L266.3 988.155Z"/><path fill="#FDFDFD" d="M190.739 532.439C202.952 532.775 216.088 532.54 228.369 532.543C227.858 544.715 228.079 557.836 228.077 570.084C220.468 570.971 199.214 570.377 190.739 570.356L190.739 532.439Z"/><path fill="#FDFDFD" d="M379.702 950.22C391.383 950.504 405.309 950.033 417.28 950.006L417.278 987.875L379.685 987.932C379.615 975.361 379.621 962.79 379.702 950.22Z"/><path fill="#FDFDFD" d="M266.231 456.705C278.853 456.766 291.232 456.39 303.905 456.704C303.43 467.854 303.836 482.722 303.843 494.14C293.298 494.64 276.809 494.718 266.313 494.137L266.231 456.705Z"/><path fill="#FDFDFD" d="M1022.77 152.276C1027.6 152.899 1054.24 152.749 1060.58 152.476L1060.51 190.424C1053.36 190.12 1028.93 191.395 1024.61 189.419C1021.12 185.871 1024.67 159.772 1022.77 152.276Z"/><path fill="#FDFDFD" d="M114.816 760.363L152.722 760.365L152.759 797.883C140.173 798.007 127.586 797.985 115.001 797.818C114.512 785.908 114.813 772.39 114.816 760.363Z"/><path fill="#FDFDFD" d="M114.933 380.689C127.578 380.523 140.034 380.841 152.754 380.493L152.764 418.377C140.587 418.768 127.088 418.487 114.813 418.491L114.933 380.689Z"/><path fill="#FDFDFD" d="M455.361 38.541L492.948 38.5667C492.856 51.0717 492.948 63.5773 493.224 76.0796C480.952 76.5747 467.736 76.4063 455.476 76.071L455.361 38.541Z"/><path fill="#FDFDFD" d="M1060.53 1101.85L1098.16 1101.9L1098.16 1139.68C1085.63 1139.71 1073.09 1139.69 1060.55 1139.6C1060.37 1127.18 1060.53 1114.3 1060.53 1101.85Z"/><path fill="#FDFDFD" d="M228.422 1101.99C239.722 1101.41 254.484 1101.85 266.04 1101.85L266.04 1139.6C253.512 1139.71 240.983 1139.72 228.454 1139.65C228.195 1127.49 228.424 1114.22 228.422 1101.99Z"/><path fill="#FDFDFD" d="M1136.33 570.694C1148.85 570.54 1161.38 570.53 1173.9 570.664L1173.92 608.361C1161.4 608.601 1148.87 608.573 1136.35 608.275C1136.49 595.748 1136.48 583.22 1136.33 570.694Z"/><path fill="#FDFDFD" d="M190.739 608.593L228.289 608.609L228.29 646.147C216.607 646.647 202.593 646.273 190.739 646.263L190.739 608.593Z"/><path fill="#FDFDFD" d="M1136.39 874.289C1148.89 874.153 1161.38 874.154 1173.88 874.293C1174 886.804 1173.99 899.317 1173.85 911.828C1161.36 912.07 1148.86 912.062 1136.36 911.806L1136.39 874.289Z"/><path fill="#FDFDFD" d="M909.128 418.75L946.728 418.711C946.57 427.901 947.546 448.382 946.44 456.401C934.05 456.289 921.482 456.435 909.077 456.47L909.128 418.75Z"/><path fill="#FDFDFD" d="M228.456 798.145L266.04 798.145L266.04 835.887C253.51 836.026 240.979 836.034 228.449 835.912L228.456 798.145Z"/><path fill="#FDFDFD" d="M190.739 1064.11C203.322 1064.05 215.906 1064.05 228.489 1064.12C227.501 1071.42 228.061 1093.3 228.077 1101.59C215.787 1101.99 203.035 1101.85 190.739 1101.75C190.624 1089.2 190.624 1076.66 190.739 1064.11Z"/><path fill="#FDFDFD" d="M228.431 494.601L266.04 494.551L266.04 532.274C254.169 532.537 240.281 532.589 228.476 532.216C228.175 520.049 228.424 506.847 228.431 494.601Z"/><path fill="#FDFDFD" d="M1098.43 684.402C1110.67 684.052 1123.82 684.277 1136.13 684.266L1136.13 722.192C1123.78 722.216 1110.75 722.449 1098.46 722.017L1098.43 684.402Z"/><path fill="#FDFDFD" d="M1060.55 950.252L1098.16 950.097L1098.16 987.938L1060.57 987.88C1060.4 975.49 1060.55 962.674 1060.55 950.252Z"/><path fill="#FDFDFD" d="M152.776 1026.05C164.839 1025.65 178.303 1025.93 190.471 1025.92L190.507 1063.76C177.93 1063.91 165.353 1063.9 152.776 1063.76L152.776 1026.05Z"/><path fill="#FDFDFD" d="M77.1196 342.844C89.6457 342.722 102.173 342.724 114.699 342.849C114.504 355.123 114.66 367.975 114.647 380.288C102.339 380.406 89.3656 380.732 77.1198 380.27L77.1196 342.844Z"/><path fill="#FDFDFD" d="M1060.54 646.495L1098.16 646.447L1098.16 684.193C1085.63 684.325 1073.09 684.296 1060.56 684.105C1060.36 671.706 1060.53 658.922 1060.54 646.495Z"/><path fill="#FDFDFD" d="M1136.34 342.85C1148.86 342.765 1161.38 342.745 1173.89 342.79C1174.02 355.281 1174.02 367.774 1173.9 380.266C1161.37 380.419 1148.85 380.411 1136.33 380.241C1136.45 367.778 1136.45 355.313 1136.34 342.85Z"/><path fill="#FDFDFD" d="M228.447 646.494L266.04 646.38L266.04 684.102C254.39 684.584 240.656 684.235 228.853 684.23C227.828 674.787 228.414 656.523 228.447 646.494Z"/><path fill="#FDFDFD" d="M1060.57 874.072C1073.03 874.396 1085.61 874.003 1098.16 874.24L1098.16 911.847C1085.64 912.015 1073.11 912.013 1060.59 911.839C1060.48 899.25 1060.48 886.661 1060.57 874.072Z"/><path fill="#FDFDFD" d="M77.0792 1101.85L114.758 1101.85C114.379 1113.66 114.693 1127.65 114.695 1139.61C102.201 1139.78 89.7043 1139.76 77.2101 1139.56C76.8831 1127.31 77.0993 1114.17 77.0792 1101.85Z"/><path fill="#FDFDFD" d="M1023.47 304.896C1035.81 304.678 1048.16 304.625 1060.5 304.738C1060.55 315.149 1061.14 332.727 1060.28 342.395C1054.55 342.653 1028.35 343.158 1024.22 341.81C1022.26 337.565 1023.23 311.071 1023.47 304.896Z"/><path fill="#FDFDFD" d="M152.817 494.576C165.402 494.615 177.987 494.555 190.571 494.397L190.483 532.153C178.717 532.753 164.705 532.398 152.776 532.393L152.817 494.576Z"/><path fill="#FDFDFD" d="M1060.57 418.709L1098.36 418.639C1098.16 431.026 1098.29 443.87 1098.22 456.295C1085.67 456.433 1073.11 456.442 1060.56 456.32C1060.47 443.783 1060.47 431.246 1060.57 418.709Z"/><path fill="#FDFDFD" d="M946.935 836.344C959.19 835.885 972.394 836.116 984.721 836.119L984.699 873.875C972.337 874.169 959.343 873.937 946.935 873.901L946.935 836.344Z"/><path fill="#FDFDFD" d="M228.432 874.295C240.967 874.038 253.505 874.009 266.04 874.209L266.04 911.725C253.515 911.942 240.988 911.982 228.462 911.844C228.323 899.43 228.438 886.73 228.432 874.295Z"/><path fill="#FDFDFD" d="M1136.44 38.6146L1173.89 38.5576L1173.95 76.0314C1162.17 76.7261 1148.18 76.456 1136.32 76.1614L1136.44 38.6146Z"/><path fill="#FDFDFD" d="M833.659 1026.04C845.824 1025.7 859.011 1025.94 871.253 1025.92L871.257 1063.78C858.822 1063.97 846.122 1063.85 833.667 1063.86L833.659 1026.04Z"/><path fill="#FDFDFD" d="M77.1355 570.684L114.751 570.6C114.635 583.189 114.652 595.779 114.801 608.368C102.912 608.459 88.7858 608.835 77.0896 608.266L77.1355 570.684Z"/><path fill="#FDFDFD" d="M228.462 950.331C240.689 949.929 253.743 950.125 266.04 950.124L266.04 987.862C253.52 987.958 240.999 987.966 228.479 987.885C228.196 975.754 228.448 962.543 228.462 950.331Z"/><path fill="#FDFDFD" d="M1098.38 1139.97C1110.96 1139.86 1123.54 1139.85 1136.13 1139.93L1136.13 1177.58C1125.25 1178.11 1109.33 1177.92 1098.4 1177.6L1098.38 1139.97Z"/><path fill="#FDFDFD" d="M833.659 1177.9C845.644 1177.58 859.289 1177.71 871.276 1177.9L871.229 1215.65C858.897 1215.86 846.038 1215.71 833.667 1215.72L833.659 1177.9Z"/><path fill="#FDFDFD" d="M1136.4 722.438L1173.96 722.4C1174.12 734.706 1173.91 747.632 1173.87 759.981C1161.37 760.21 1148.87 760.245 1136.37 760.084L1136.4 722.438Z"/><path fill="#FDFDFD" d="M871.37 836.19C883.821 836.021 896.491 836.132 908.96 836.121L908.96 873.846C896.432 874.124 883.899 874.131 871.37 873.866L871.37 836.19Z"/><path fill="#FDFDFD" d="M871.352 988.228C883.472 987.744 896.817 987.868 908.96 988.111L908.96 1025.69C896.596 1026.11 883.737 1025.89 871.336 1025.78L871.352 988.228Z"/><path fill="#FDFDFD" d="M152.782 342.892C165.285 342.708 178.035 342.778 190.558 342.736C190.445 355.209 190.575 367.843 190.599 380.329C177.992 380.478 165.383 380.446 152.776 380.236L152.782 342.892Z"/><path fill="#FDFDFD" d="M606.802 38.5829L644.315 38.5765L644.313 76.1036C632.354 76.6477 618.791 76.4749 606.806 76.1546L606.802 38.5829Z"/><path fill="#FDFDFD" d="M190.739 1140.06C203.279 1139.83 215.821 1139.8 228.362 1139.97C228.159 1152.33 228.286 1165.19 228.26 1177.58C215.754 1177.8 203.245 1177.81 190.739 1177.62L190.739 1140.06Z"/><path fill="#FDFDFD" d="M266.321 760.356L303.822 760.381C303.792 772.901 303.855 785.42 304.011 797.939C291.458 798.075 278.903 798.058 266.351 797.886C265.859 786.101 266.26 772.287 266.321 760.356Z"/><path fill="#FDFDFD" d="M77.1127 418.833C89.664 418.587 102.218 418.518 114.772 418.627L114.632 456.236C102.131 456.54 89.6241 456.557 77.1221 456.287L77.1127 418.833Z"/><path fill="#FDFDFD" d="M1060.56 38.5707L1098.16 38.5595L1098.16 76.2258L1060.55 76.2258C1060.47 63.6742 1060.47 51.1222 1060.56 38.5707Z"/><path fill="#FDFDFD" d="M1098.44 988.195C1110.86 987.82 1123.67 988.035 1136.13 988.094L1136.13 1025.65C1124.17 1026.25 1110.52 1025.88 1098.45 1025.78L1098.44 988.195Z"/><path fill="#FDFDFD" d="M228.411 570.681C240.954 570.591 253.497 570.577 266.04 570.64L266.04 608.319L228.492 608.307C228.316 595.903 228.433 583.111 228.411 570.681Z"/><path fill="#FDFDFD" d="M871.353 912.221C883.675 911.869 896.594 912.05 908.96 912.044L908.96 949.802C896.442 950.041 883.92 950.046 871.402 949.816L871.353 912.221Z"/><path fill="#FDFDFD" d="M493.281 1140.06C505.791 1139.8 518.304 1139.76 530.816 1139.94L530.809 1177.64C518.355 1177.84 505.688 1177.74 493.218 1177.75L493.281 1140.06Z"/><path fill="#FDFDFD" d="M909.209 874.299C921.717 874.136 934.227 874.137 946.735 874.302L946.658 911.918C934.746 911.598 921.333 911.861 909.241 911.77C909.124 899.28 909.113 886.789 909.209 874.299Z"/><path fill="#FDFDFD" d="M152.776 722.49C165.376 722.377 177.977 722.336 190.577 722.367L190.436 759.991C178.995 760.561 164.358 760.156 152.784 760.003L152.776 722.49Z"/><path fill="#FDFDFD" d="M77.1692 722.486L114.756 722.382C114.484 734.497 114.69 747.824 114.799 759.953C102.09 759.874 90.1102 760.287 77.1449 760.036L77.1692 722.486Z"/><path fill="#FDFDFD" d="M871.328 1064.15C883.872 1064.04 896.416 1064.03 908.96 1064.1L908.96 1101.63C896.418 1101.8 883.875 1101.87 871.332 1101.82L871.328 1064.15Z"/><path fill="#FDFDFD" d="M152.791 874.222C165.107 873.94 178.149 874.162 190.518 874.168L190.45 911.906C178.213 911.688 165.075 911.912 152.776 911.926L152.791 874.222Z"/><path fill="#FDFDFD" d="M1136.38 418.811C1148.58 418.419 1161.67 418.663 1173.94 418.681L1173.94 456.274C1161.45 456.478 1148.95 456.477 1136.46 456.272L1136.38 418.811Z"/><path fill="#FDFDFD" d="M190.739 912.117C202.839 911.796 216.19 912.047 228.384 912.044C227.805 924.144 228.077 937.653 228.077 949.863C215.632 950.028 203.185 950.03 190.739 949.87L190.739 912.117Z"/><path fill="#FDFDFD" d="M606.776 1101.85C619.296 1101.81 631.816 1101.84 644.335 1101.94L644.335 1139.61C631.817 1139.75 619.297 1139.74 606.778 1139.59L606.776 1101.85Z"/><path fill="#FDFDFD" d="M228.436 722.51C240.97 722.37 253.506 722.35 266.04 722.448L266.04 759.926C253.937 760.381 240.685 760.075 228.488 760.049C228.154 748.055 228.432 734.612 228.436 722.51Z"/><path fill="#FDFDFD" d="M190.739 836.269C202.693 835.907 216.38 836.01 228.317 836.222L228.295 873.871C215.777 874.082 203.256 874.066 190.739 873.823L190.739 836.269Z"/><path fill="#FDFDFD" d="M833.659 950.306C846.185 950.039 858.716 950.005 871.244 950.204L871.236 987.811C858.948 988.116 845.996 987.928 833.659 987.939L833.659 950.306Z"/><path fill="#FDFDFD" d="M1060.58 722.474L1098.16 722.38L1098.16 759.945C1085.62 760.041 1073.07 760.043 1060.52 759.949C1060.33 747.704 1060.55 734.769 1060.58 722.474Z"/><path fill="#FDFDFD" d="M190.739 760.384C203.198 760.226 215.877 760.345 228.354 760.342C228.265 770.162 228.971 788.218 228.09 797.278L227.189 797.797C219.688 797.976 212.186 798.069 204.683 798.076C201.187 798.053 193.888 797.678 190.739 798.083L190.739 760.384Z"/><path fill="#FDFDFD" d="M909.072 1101.87C921.621 1101.81 934.171 1101.83 946.719 1101.94L946.634 1139.63C934.161 1139.77 921.686 1139.72 909.215 1139.49L909.072 1101.87Z"/><path fill="#FDFDFD" d="M266.289 1064.13C278.593 1063.91 291.528 1064.08 303.877 1064.07L303.878 1101.59C292.148 1101.91 277.925 1102.08 266.248 1101.64L266.289 1064.13Z"/><path fill="#FDFDFD" d="M720.383 988.144C732.829 987.938 745.278 987.914 757.726 988.072L757.721 1025.74C745.276 1025.94 732.828 1025.97 720.383 1025.81L720.383 988.144Z"/><path fill="#FDFDFD" d="M190.739 988.048C203.26 987.903 215.967 988.042 228.502 988.069C227.503 995.269 228.061 1017.49 228.077 1025.71C216 1026.17 202.887 1025.9 190.739 1025.77L190.739 988.048Z"/><path fill="#FDFDFD" d="M77.0892 874.254C89.5472 874.424 102.26 874.28 114.738 874.265L114.659 911.852C102.151 912.042 89.6401 911.994 77.1334 911.708L77.0892 874.254Z"/><path fill="#FDFDFD" d="M909.146 342.88C921.654 342.717 934.162 342.684 946.67 342.781L946.724 380.254C935.179 380.703 920.687 380.421 909.141 380.231L909.146 342.88Z"/><path fill="#FDFDFD" d="M720.383 1064.13C732.83 1064.03 745.278 1063.99 757.726 1064.03L757.721 1101.69C745.802 1101.9 732.209 1102.07 720.383 1101.63L720.383 1064.13Z"/></svg>