<?xml version="1.0" encoding="utf-8" ?><svg xmlns="http://www.w3.org/2000/svg" xmlns:xlink="http://www.w3.org/1999/xlink" width="1254" height="1254" viewBox="0 0 1254 1254"><path fill="#FCFCFC" d="M0 0L1254 0L1254 1254L0 1254L0 0Z"/><path fill="#002F55" d="M627.271 257.861C630.347 258.161 632.916 258.451 635.107 260.838C640.882 267.127 638.37 297.529 638.272 306.721C705.481 307.936 775.28 336.664 824.04 382.92C879.01 434.449 910.919 505.939 912.57 581.266L940.992 581.172C948.94 581.149 969.49 578.794 966.643 592.731C965.898 596.378 963.428 598.026 960.472 600.031C947.294 600.844 926.312 600.216 912.421 600.289C911.019 666.247 881.663 731.438 836.964 779.428C785.312 834.517 713.82 866.728 638.336 868.921C637.951 879.077 639.335 890.049 638.111 900.147C637.545 904.813 635.173 906.881 631.213 909.085C630.14 909.166 629.063 909.2 627.988 909.184C613.422 908.848 617.851 879.659 617.983 868.893C549.391 866.646 483.889 839.833 433.41 793.339C379.147 743.446 346.963 674.014 343.96 600.362C333.009 599.876 321.797 600.47 310.818 600.297C306.057 600.178 301.216 600.652 296.509 599.724C290.443 598.527 286.765 589.643 291.506 585.121C297.06 579.823 307.799 581.13 314.979 581.158L343.751 581.281C344.297 569.635 344.727 559.583 346.416 547.937C354.674 492.019 379.535 439.87 417.777 398.246C470.217 340.966 540.838 310.156 617.965 306.699C618.106 297.086 615.715 269.034 620.165 262.034C621.893 259.318 624.282 258.568 627.271 257.861Z"/><path fill="#FCFCFC" d="M638.321 328.137C702.618 329.493 766.384 357.271 812.639 401.695C861.457 448.939 889.809 513.439 891.608 581.35L861.956 581.201C856.138 581.166 842.365 580.158 838.04 583.534C836.068 585.074 834.793 587.337 834.494 589.821C832.894 603.456 853.582 600.311 862.178 600.259C871.999 600.198 881.821 600.199 891.642 600.263C890.299 654.021 866.235 712.353 831.733 753.315C785.761 807.951 719.771 841.833 648.581 847.352L638.302 848.029C638.22 833.963 638.99 818.672 638.066 804.602C637.783 800.3 633.993 795.218 629.181 795.035C615.597 794.52 617.833 811.099 617.881 819.986L617.968 847.847C556.971 845.309 498.659 822.065 452.642 781.947C398.699 733.967 369.211 672.097 364.948 600.315C381.127 599.796 398.83 601.015 415.004 599.786C421.074 599.325 425.104 589.626 419.732 584.942C413.749 579.725 403.226 581.099 395.599 581.144C385.376 581.264 375.153 581.271 364.93 581.164C366.616 522.288 388.33 465.747 426.487 420.877C474.072 364.908 537.967 334.29 610.689 328.448C612.444 328.245 616.14 328.247 618.05 328.187C617.942 343.868 617.185 361.471 618.626 377.085C618.932 380.399 624.184 384.039 627.625 384.032C640.997 384.006 638.535 366.42 638.485 357.526L638.321 328.137Z"/><path fill="#002F55" d="M621.433 420.548C715.088 416.836 794.049 489.684 797.881 583.333C801.713 676.982 728.967 756.037 635.323 759.99C541.508 763.95 462.277 691.043 458.438 597.223C454.599 503.403 527.609 424.266 621.433 420.548Z"/><path fill="#FCFCFC" d="M619.622 441.332C701.889 436.65 772.414 499.458 777.256 581.715C782.097 663.973 719.427 734.62 637.179 739.622C554.705 744.636 483.821 681.756 478.966 599.272C474.111 516.789 537.129 446.027 619.622 441.332Z"/><path fill="#002F55" d="M622.067 540.727C649.597 537.338 674.68 556.859 678.157 584.378C681.634 611.897 662.193 637.043 634.685 640.607C607.053 644.187 581.769 624.639 578.277 596.996C574.785 569.353 594.412 544.131 622.067 540.727Z"/><path fill="#FCFCFC" d="M623.125 560.715C639.793 557.912 655.566 569.187 658.308 585.865C661.051 602.543 649.72 618.274 633.032 620.957C616.429 623.626 600.795 612.364 598.066 595.771C595.338 579.178 606.542 563.504 623.125 560.715Z"/></svg>