<?xml version="1.0" encoding="utf-8" ?><svg xmlns="http://www.w3.org/2000/svg" xmlns:xlink="http://www.w3.org/1999/xlink" width="1254" height="1254" viewBox="0 0 1254 1254"><path fill="#F9F9F8" d="M0 0L30.1802 0L60.9077 0L91.8111 0L122.271 0L152.679 0L183.53 0L213.775 0L244.447 0L274.879 0L305.604 0L336.114 0L366.808 0L397.527 0L428.001 0L458.703 0L489.394 0L519.936 0L550.425 0L581.075 0L611.707 0L642.282 0L672.919 0L703.579 0L734.018 0L764.812 0L795.375 0L826.029 0L856.515 0L887.25 0L917.746 0L948.295 0L1040.25 0L1070.81 0L1101.41 0L1131.79 0L1162.15 0L1192.95 0L1223.7 0L1254 0L1254 30.8173L1254 61.157L1254 92.3447L1254 122.55L1254 153.276L1254 183.955L1254 214.51L1254 244.985L1254 275.606L1254 306.059L1254 336.986L1254 367.147L1254 397.985L1254 428.181L1254 459.159L1254 489.567L1254 581.352L1254 611.532L1254 642.456L1254 672.754L1254 703.628L1254 733.985L1254 764.701L1254 795.189L1254 826.069L1254 856.41L1254 887.156L1254 917.612L1254 948.119L1254 1101L1254 1131.79L1254 1162.18L1254 1192.85L1254 1223.33L1254 1254L1223.64 1254L1193.02 1254L1162.14 1254L1131.77 1254L1101.43 1254L1070.79 1254L1040.2 1254L948.284 1254L917.759 1254L887.231 1254L856.462 1254L825.994 1254L795.355 1254L764.827 1254L734.008 1254L703.559 1254L672.928 1254L642.262 1254L611.645 1254L581.134 1254L550.38 1254L519.892 1254L489.299 1254L458.661 1254L427.964 1254L397.48 1254L366.867 1254L336.196 1254L305.488 1254L274.982 1254L244.316 1254L213.746 1254L183.349 1254L152.819 1254L122.161 1254L91.8089 1254L60.8718 1254L30.3152 1254L0 1254L0 1223.36L0 1193.08L0 1162.25L0 1070.4L0 1040.01L0 948.006L0 917.74L0 886.946L0 856.481L0 826.001L0 795.29L0 764.742L0 734.029L0 703.464L0 672.811L0 642.345L0 611.509L0 581.213L0 550.631L0 520.29L0 489.711L0 397.966L0 367.271L0 336.779L0 306.14L0 275.636L0 184.133L0 153.189L0 122.704L0 92.0307L0 61.2324L0 30.7282L0 0Z"/><path fill="white" d="M948.295 0L1040.25 0L1070.81 0L1101.41 0L1131.79 0L1162.15 0L1192.95 0L1223.7 0L1254 0L1254 30.8173L1254 61.157L1254 92.3447L1254 122.55L1254 153.276L1254 183.955L1254 214.51L1254 244.985L1254 275.606L1254 306.059L1254 336.986L1254 367.147L1254 397.985L1254 428.181L1254 459.159L1254 489.567L1254 581.352L1254 611.532L1254 642.456L1254 672.754L1254 703.628L1254 733.985L1254 764.701L1254 795.189L1254 826.069L1254 856.41L1254 887.156L1254 917.612L1254 948.119L1254 1101L1254 1131.79L1254 1162.18L1254 1192.85L1254 1223.33L1254 1254L1223.64 1254L1193.02 1254L1162.14 1254L1131.77 1254L1101.43 1254L1070.79 1254L1040.2 1254L948.284 1254L917.759 1254L887.231 1254L856.462 1254L825.994 1254L795.355 1254L764.827 1254L734.008 1254L703.559 1254L672.928 1254L642.262 1254L611.645 1254L581.134 1254L550.38 1254L519.892 1254L489.299 1254L458.661 1254L427.964 1254L397.48 1254L366.867 1254L336.196 1254L305.488 1254L274.982 1254L244.316 1254L213.746 1254L183.349 1254L152.819 1254L122.161 1254L91.8089 1254L60.8718 1254L30.3152 1254L0 1254L0 1223.36L0 1193.08L0 1162.25L0 1070.4L0 1040.01L0 948.006L0 917.74L0 886.946C10.1048 886.991 20.2099 886.955 30.3141 886.836C30.5155 897.168 30.5001 907.503 30.2679 917.834C40.8356 917.45 50.352 917.509 60.9304 917.711L60.9462 948.15C71.35 948.078 81.7542 948.078 92.158 948.148L92.158 918.157L102.422 918.074L93.3274 917.758C97.8621 917.12 115.996 917.522 121.536 917.534L121.605 933.273C121.897 927.857 121.87 924.429 121.585 919.006L121.958 918.645C122.679 922.692 122.191 942.168 122.282 948.156C131.063 948.012 144.195 947.626 152.767 948.108C152.723 937.923 152.756 927.738 152.863 917.553C143.388 917.725 131.582 918.057 122.291 917.158C122.524 907.525 122.232 896.874 122.164 887.166C132.395 886.922 142.629 886.933 152.859 887.201C152.898 897.332 153.055 907.724 152.715 917.826C160.804 917.746 169.05 917.548 177.119 917.843C185.74 918.158 198.331 919.196 206.756 918.141C204.826 917.59 186.651 917.565 183.3 917.499L183.308 886.954C173.393 886.966 162.845 887.15 152.997 886.687C152.399 876.909 152.735 866.456 152.93 856.652C163.002 856.496 173.075 856.484 183.148 856.616C183.334 866.701 183.691 877.174 183.161 887.212L213.836 886.991C213.644 876.946 213.784 866.528 213.787 856.454C203.661 856.517 193.535 856.401 183.413 856.105L183.391 826.044C193.482 825.91 203.848 826.042 213.96 826.053C213.607 815.934 213.756 805.526 213.788 795.378L244.428 795.387C244.503 805.604 244.457 815.822 244.292 826.039L274.856 826.027L274.981 878.898C284.174 878.262 296.234 878.579 305.64 878.583L357.572 878.603L520.083 878.57C519.541 876.294 519.934 859.55 519.986 856.227C510.594 856.777 498.969 856.506 489.403 856.521L489.206 826.019L519.798 825.921C519.822 835.636 519.661 846.136 520.037 855.783C520.931 849.399 520.49 833.741 520.459 826.611C527.163 826.609 543.747 827.052 549.64 826.188C542.306 825.484 527.813 825.873 519.944 825.854C520.044 815.735 519.918 805.431 519.892 795.296C528.996 795.524 541.298 795.623 550.47 795.275L550.314 826.035L581.092 826.002L581.018 856.612C591.225 856.489 601.647 856.265 611.844 856.302C611.56 848.262 611.375 834.014 611.837 825.977C621.683 825.991 632.491 826.228 642.259 825.939L642.21 856.637C652.253 856.568 662.766 856.343 672.77 856.533C672.804 860.514 672.684 866.159 673.245 869.935C673.559 865.36 673.589 861.824 673.535 857.227C679.702 857.259 696.971 857.7 701.967 856.655L672.817 856.312L672.93 826L703.645 826.046C703.435 815.954 703.551 805.485 703.53 795.363C711.049 795.456 726.912 795.831 734.103 795.288C733.93 805.537 733.917 815.789 734.061 826.04L764.897 826.051C764.753 815.807 764.725 805.562 764.811 795.318C774.586 795.381 785.746 795.648 795.426 795.349L795.217 826.059C805.537 825.974 815.858 825.977 826.178 826.069L826.016 795.304C835.412 795.325 847.397 795.709 856.575 795.314C856.414 805.497 856.468 815.867 856.419 826.067C871.277 825.907 886.138 825.95 900.996 826.195C897.033 826.767 891.79 826.611 887.685 826.611C887.629 835.89 887.446 846.224 887.717 855.385C888.375 855.711 889.033 856.036 889.692 856.362L887.97 856.903C892.409 856.977 915.618 856.223 917.391 857.677L917.564 859.661C917.829 858.146 917.723 858.078 918.567 856.831C925.35 856.111 941.022 856.591 948.46 856.614L948.542 870.61C948.906 868.033 948.761 859.931 948.772 856.927L979.057 856.924C978.321 848.531 978.746 834.698 978.763 825.89L948.389 825.981L948.247 795.383L979.111 795.408C978.743 785.173 978.705 774.929 978.999 764.691L948.413 764.745L948.384 734.08L917.876 734C917.601 724.101 917.761 713.588 917.756 703.641C927.946 703.656 938.136 703.591 948.324 703.448C948.556 693.589 948.314 682.779 948.296 672.844L979.121 672.956C978.617 662.908 978.765 652.349 978.763 642.247C968.635 642.425 958.505 642.453 948.377 642.33C948.206 632.364 948.405 621.802 948.422 611.787C958.535 611.458 968.657 611.454 978.77 611.773L978.763 581.104L948.27 581.145C947.794 571.87 948.137 559.961 948.148 550.49C938.131 550.522 927.821 550.3 917.841 550.603C917.711 560.786 917.699 570.971 917.803 581.154L887.154 581.094C887.152 591.057 886.929 601.847 887.157 611.736C878.083 611.254 865.818 611.649 856.53 611.723L856.612 581.077C847.088 581.553 835.612 581.167 825.937 581.072C826.017 591.294 826.036 601.516 825.994 611.738L795.232 611.467C795.274 621.281 795.031 632.635 795.398 642.313C785.455 642.303 774.634 642.564 764.798 642.207L764.749 672.936C754.793 672.566 744.073 672.775 734.054 672.802C734.01 681.237 733.544 695.504 734.175 703.48C723.947 703.276 713.735 703.542 703.56 703.355L703.557 734.203C695.081 733.781 681.416 733.913 672.961 734.171C673.206 724.321 672.857 713.431 672.929 703.374L642.274 703.466C642.409 693.286 642.394 683.104 642.228 672.924C645.376 673.112 646.12 672.921 649.239 672.278C652.115 675.162 655.005 678.237 657.948 680.995C666.79 689.281 674.981 701.546 686.906 690.081C697.277 680.109 707.225 669.838 717.378 659.662L780.364 596.393L979.123 396.595C986.263 399.56 995.8 394.982 997.252 400.82C998.676 440.68 996.072 481.867 997.31 521.833C997.372 523.859 998.725 526.854 1000.03 528.389C1002.11 530.86 1005.09 532.392 1008.31 532.641C1011.88 532.908 1015.4 531.629 1017.96 529.129C1020.75 526.369 1021.44 523.724 1021.44 519.936C1021.48 481.213 1021.43 442.452 1021.45 403.732L1021.46 363.998C1021.45 341.513 1024.59 333.46 997.025 334.796C990.456 335.114 981.964 334.861 975.212 334.857C976.948 334.538 977.278 334.474 978.92 333.856C979.569 326.642 979.049 314.858 978.915 307.469C978.772 296.816 978.721 286.162 978.763 275.509C968.649 275.561 958.534 275.561 948.42 275.51C948.271 265.416 948.314 255.199 948.278 245.094L917.82 245.003L917.735 214.351C925.511 214.516 940.851 214.815 948.436 214.305C948.334 204.202 948.295 194.099 948.318 183.996C958.633 183.803 968.952 183.814 979.268 184.03C978.311 176.79 978.745 160.982 978.763 153.048L948.361 153.154L948.363 122.785L978.95 122.912C978.832 127.582 978.668 137.869 979.278 142.116C980.74 133.361 978.56 120.594 978.845 111.772C979.392 94.8606 979.746 78.7671 979.687 61.8428C987.565 61.835 1000.73 62.2171 1008.18 61.5851C1001.23 60.6757 986.558 61.1471 978.979 61.1985C979.042 51.0007 978.967 40.8024 978.752 30.6066C968.68 30.6864 958.608 30.6886 948.537 30.6133C948.112 21.0132 948.338 9.72869 948.295 0Z"/><path fill="#F9F9F8" d="M642.186 1040.01C642.233 1035.69 641.861 1011.98 642.59 1009.54C643.934 1013.48 642.295 1061.96 642.302 1070.46C651.862 1070.85 663.232 1070.49 672.952 1070.49C672.73 1060.82 674.283 1047.56 671.416 1038.67C672.124 1036.74 671.489 1037.34 672.954 1036.43C673.214 1038.03 673.213 1038.25 673.805 1039.74C678.739 1040.54 697.758 1040.04 703.573 1040.01L703.577 1070.5C713.679 1070.61 724.111 1070.4 734.238 1070.31C734.38 1080.55 734.369 1090.8 734.207 1101.04C744.421 1100.92 754.635 1100.9 764.85 1100.97C764.735 1111.16 764.719 1121.36 764.802 1131.55C774.816 1131.87 785.191 1131.64 795.239 1131.55C795.344 1121.36 795.388 1111.17 795.37 1100.97C803.741 1100.95 818.141 1100.47 826.028 1101.08L825.997 1070.38C835.626 1070.9 846.734 1070.71 856.438 1070.36L856.53 1040.01L887.11 1040.01C887.072 1032.75 886.599 1016.43 887.58 1009.98C888.255 1016.81 887.837 1031.65 887.842 1039.08C894.382 1039.04 909.828 1038.57 915.273 1039.71C906.509 1040.15 896.1 1039.96 887.212 1040.01L887.249 1070.31C897.395 1070.47 907.543 1070.49 917.69 1070.38L917.749 1040.01L948.161 1040C948.212 1036.25 947.99 1011.89 948.791 1009.81C949.457 1014.14 949.08 1033.62 949.072 1039.08C951.496 1039.09 955.23 1038.97 957.534 1039.19L957.737 1039.63L958.708 1039.47C958.697 1039.47 949.583 1040 948.294 1040L948.393 1070.57L917.831 1070.61C917.8 1080.71 917.687 1090.93 917.788 1101.02L948.424 1100.82L948.39 1131.63C938.279 1131.89 927.667 1131.39 917.815 1131.8C917.764 1141.95 917.767 1152.09 917.823 1162.23C928.002 1162.27 938.181 1162.23 948.359 1162.11C948.356 1172.23 948.218 1182.7 948.423 1192.79C958.536 1192.86 968.65 1192.87 978.763 1192.81C978.741 1202.88 978.483 1213.47 979.209 1223.46C969.851 1223.42 957.466 1223.78 948.325 1223.34C948.329 1233.4 948.503 1243.99 948.284 1254L917.759 1254L887.231 1254L856.462 1254L825.994 1254L795.355 1254L764.827 1254L734.008 1254L703.559 1254L672.928 1254L642.262 1254L611.645 1254L581.134 1254L550.38 1254L519.892 1254L489.299 1254L458.661 1254L427.964 1254L397.48 1254L366.867 1254L336.196 1254L305.488 1254L274.982 1254L244.316 1254L213.746 1254L183.349 1254L152.819 1254L122.161 1254L91.8089 1254L60.8718 1254L30.3152 1254L0 1254L0 1223.36L0 1193.08L0 1162.25C10.1036 1162.27 20.2072 1162.23 30.3103 1162.13C30.4637 1151.94 30.47 1141.75 30.3291 1131.57L61.0142 1131.59L60.9966 1100.96L91.5889 1100.87C91.6212 1098.13 91.7277 1072.51 92.0897 1072.08C92.9508 1079.39 92.5124 1092.51 92.458 1100.31C94.6733 1100.32 98.821 1100.21 100.844 1100.58L99.6629 1100.79L100.819 1100.7C101.028 1100.75 92.5393 1101.17 91.8312 1101.18C91.7479 1111.11 91.4811 1121.73 91.8263 1131.59L122.166 1131.6C122.317 1141.78 122.364 1151.96 122.307 1162.13C131.577 1162.17 143.941 1161.81 152.906 1162.24C152.686 1171.39 152.332 1183.81 152.843 1192.78C163.016 1192.86 173.189 1192.85 183.362 1192.75C183.329 1202.66 183.077 1213.49 183.343 1223.32L213.755 1223.33C213.533 1213.36 213.696 1202.75 213.675 1192.73C223.795 1192.94 234.202 1192.84 244.346 1192.85L244.384 1162.22L274.99 1162.17C274.896 1151.99 274.898 1141.81 274.998 1131.63L305.564 1131.53L305.564 1162.23L336.225 1162.19L336.178 1131.74L305.527 1131.75L305.559 1100.97L336.29 1100.93C336.185 1111.15 336.181 1121.37 336.279 1131.59L366.735 1131.59L366.774 1100.91L397.531 1100.92C397.42 1111.15 397.44 1121.37 397.589 1131.59C407.732 1131.64 417.875 1131.64 428.018 1131.58L427.973 1101.01L458.761 1100.93C458.67 1111.17 458.651 1121.41 458.705 1131.66L489.217 1131.57L489.368 1100.97L519.809 1100.95L519.854 1070.62L550.343 1070.62C550.541 1060.56 550.411 1050.1 550.425 1040.01L580.991 1040.01C581.019 1030.29 580.923 1020.25 581.263 1010.57C582.372 1019.15 581.568 1034.37 581.301 1043.37C581.082 1052.41 581.063 1061.46 581.246 1070.5L611.693 1070.39L611.664 1040.01L642.186 1040.01Z"/><path fill="#F9F9F8" d="M1223.67 367.156L1254 367.147L1254 397.985L1254 428.181L1254 459.159L1254 489.567L1254 581.352L1254 611.532L1254 642.456L1254 672.754L1254 703.628L1254 733.985L1254 764.701L1254 795.189L1254 826.069L1254 856.41L1254 887.156L1254 917.612L1254 948.119L1223.7 948.148L1223.64 919.839C1222.85 926.289 1224.16 940.281 1222.35 945.659C1221.66 946.393 1220.7 947.569 1219.6 947.519C1215.15 947.314 1197.64 948.454 1194.74 946.651C1192.24 942.085 1193.32 924.513 1193.38 918.457C1198.52 918.492 1203.66 918.413 1208.79 918.219C1203.58 917.684 1198.02 917.882 1192.75 917.936L1192.74 887.273C1184.01 886.594 1171.17 887.081 1162.19 887.2C1162.1 877.028 1162.1 866.856 1162.19 856.684L1132.05 856.662C1131.9 866.95 1131.77 876.422 1132.24 886.72C1142.35 886.85 1152.55 887.076 1162.64 886.768C1162.5 897.256 1162.42 907.06 1162.75 917.541C1168.31 917.535 1183.98 917.2 1188.69 917.959C1185.21 918.951 1168.76 918.656 1163.03 919.339C1162.45 918.519 1162.36 918.442 1161.68 917.716C1152.44 917.395 1141.23 917.8 1131.85 917.897L1131.85 887.21C1121.26 886.769 1112.09 886.971 1101.51 887.313L1101.51 917.54C1108.9 917.558 1119.49 917.346 1126.7 917.874C1123.76 918.702 1106.46 918.455 1102.15 918.457C1102.18 924.317 1102.64 942.517 1101.51 947.056C1101.06 937.803 1101.29 927.079 1101.28 917.713L1070.96 917.904C1070.7 928.544 1070.73 937.061 1071.01 947.791L1101.54 947.786C1101.47 958.112 1101.49 968.438 1101.62 978.763L1070.65 978.763L1070.66 948.074L1040.15 948.148L1040.13 917.526C1050.29 917.584 1060.45 917.59 1070.6 917.545C1070.77 907.557 1070.64 897.21 1070.64 887.193L1040.42 887.232C1040.44 893.375 1040.87 910.551 1040.07 915.775C1038.98 910.046 1039.98 888.389 1040.03 881.719C1040.09 873.699 1040.14 864.468 1040.19 856.363C1049.2 856.411 1062.08 856.756 1070.73 855.888C1070.59 845.921 1070.61 835.952 1070.78 825.985C1061.14 826.286 1049.97 826.008 1040.21 826.009L1040.26 795.203C1050.2 795.501 1060.72 795.26 1070.72 795.182C1070.82 785.018 1070.65 774.966 1070.85 764.756L1040.21 764.831L1040.21 734.095L1070.67 734.024C1070.67 724.14 1070.46 713.298 1070.88 703.498C1079.37 703.411 1093.15 702.951 1101.4 703.537C1100.84 695.379 1101.34 681.6 1101.37 673.025C1091.14 672.962 1080.91 672.963 1070.68 673.028L1070.64 642.115C1080.84 642.274 1091.04 642.274 1101.25 642.114C1101.35 631.97 1101.04 621.77 1101.49 611.63C1095.32 612.251 1077.81 611.799 1070.6 611.874C1070.76 601.811 1070.62 591.444 1070.62 581.356L1040.15 581.371L1040.13 550.349L1070.62 550.339L1070.66 520.159C1080.49 520.136 1091.75 519.861 1101.46 520.341C1100.89 511.538 1101.28 498.641 1101.29 489.531L1070.6 489.531C1070.72 479.406 1070.65 469.127 1070.67 458.988L1101.22 458.998C1101.2 466.704 1100.75 482.13 1101.76 489.134C1112.36 489.484 1121.07 489.472 1131.67 489.315C1131.42 479.616 1131.62 469.079 1131.62 459.315C1121.49 459.135 1111.36 459.13 1101.23 459.3C1101.29 448.971 1101.29 438.642 1101.23 428.313C1106.12 428.276 1128.74 429.115 1131.54 427.57L1131.92 425.74L1132.6 425.402C1132.65 426.818 1132.58 426.361 1133.09 427.816L1142.69 428.363L1131.8 428.707C1132.38 436.87 1131.88 450.408 1131.84 458.943C1141.83 459.083 1152.07 458.949 1162.08 458.926L1162.47 428.313C1168.35 428.274 1187.78 429.356 1191.43 427.385C1194.17 423.931 1193.1 403.942 1193.08 397.86L1223.53 397.753C1223.48 387.554 1223.53 377.355 1223.67 367.156Z"/><path fill="#F9F9F8" d="M1040.25 0L1070.81 0L1101.41 0L1131.79 0L1162.15 0L1192.95 0L1223.7 0L1254 0L1254 30.8173L1254 61.157L1254 92.3447L1254 122.55L1254 153.276L1254 183.955L1254 214.51L1254 244.985L1254 275.606L1254 306.059L1254 336.986L1223.94 337.033C1223.79 347.035 1223.46 357.487 1224 367.436L1193.08 367.45L1193.08 336.852C1182.88 336.827 1172.67 336.892 1162.47 337.049L1162.47 305.921C1172.58 306.189 1182.72 305.885 1192.88 306.186C1192.33 298 1192.78 284.127 1192.79 275.66L1162.44 275.838L1162.45 306.323C1152.25 306.188 1142.05 306.196 1131.85 306.347L1131.85 275.367C1141.42 275.447 1150.77 275.553 1160.33 275.238C1151.01 274.644 1142.2 275.35 1133.04 274.741C1132.81 274.163 1132.58 273.585 1132.34 273.007L1131.68 274.855C1129.44 276.691 1105.89 275.679 1101.37 275.608C1101.11 265.714 1101.32 254.86 1101.3 244.887C1111.48 245.031 1121.67 245.017 1131.85 244.845L1131.85 214.534C1121.69 214.486 1111.53 214.511 1101.37 214.608L1101.39 183.928C1091.14 183.808 1080.88 183.844 1070.63 184.035L1070.68 153.388C1080.33 153.402 1091.9 153.749 1101.3 152.867L1101.25 122.92L1070.89 122.947C1070.83 133.068 1070.84 143.19 1070.91 153.312C1060.64 153.267 1050.36 153.293 1040.09 153.39L1040.16 122.773L1070.62 122.773L1070.68 92.166C1060.58 91.9836 1050.47 92.1074 1040.38 92.5372C1040.4 100.179 1040.9 114.755 1039.88 121.586C1039.59 116.376 1040.33 94.889 1039.13 92.6636L1036.2 92.491L1035.85 92.0145C1037.17 91.8361 1038.48 91.6762 1039.8 91.535C1040.63 84.4526 1040.17 68.8677 1040.19 61.0665C1050.38 61.1969 1060.74 61.0975 1070.94 61.0909C1070.84 71.2213 1070.59 81.7877 1070.98 91.8719C1081.07 92.051 1091.17 92.0276 1101.27 91.8019C1101.25 81.5937 1101.29 71.3855 1101.41 61.1779C1093.52 61.7471 1079.12 61.2894 1070.73 61.2973C1070.69 51.091 1070.73 40.8846 1070.86 30.679C1061.71 31.1224 1049.66 30.7861 1040.21 30.8518L1040.25 0Z"/><path fill="#F9F9F8" d="M1162.47 1040.01C1172.32 1039.97 1181.91 1040.32 1191.8 1039.93C1193.23 1038.91 1192.66 1037.86 1193.13 1035.24C1193.35 1035.91 1193 1067.08 1193.06 1070.62C1201.19 1070.6 1213.97 1071.17 1222.26 1070.4C1223.04 1069.79 1223.7 1069.27 1224.24 1068.84L1224.72 1069.33C1222.7 1078.01 1223.76 1091.63 1223.94 1100.92L1254 1101L1254 1131.79L1254 1162.18L1254 1192.85L1254 1223.33L1254 1254L1223.64 1254L1193.02 1254L1162.14 1254L1131.77 1254L1101.43 1254L1070.79 1254L1040.2 1254L1040.22 1223.19C1050.08 1223.53 1060.83 1223.33 1070.81 1223.4L1070.69 1193.07C1060.52 1192.88 1050.34 1192.88 1040.18 1193.09L1040.25 1162.21C1033.55 1162.43 1021.48 1162.43 1014.87 1162.02C1019.7 1161.12 1034.06 1161.51 1039.69 1161.54L1039.69 1132.15L1032.36 1132.11L1032.29 1131.77L1030.94 1131.93C1032.81 1131.45 1037.97 1131.53 1040.14 1131.5C1040.4 1121.56 1040.21 1110.92 1040.21 1100.93L1070.61 1100.88L1070.61 1131.54C1080.76 1131.71 1091.19 1131.6 1101.36 1131.6C1101.46 1121.39 1101.44 1111.17 1101.3 1100.96L1131.84 1100.9L1131.84 1131.52C1141.96 1131.63 1152.08 1131.63 1162.2 1131.52L1162.41 1101.04C1152.24 1100.92 1142.06 1100.97 1131.89 1101.21L1131.92 1070.7L1162.18 1070.62C1162.4 1060.42 1162.49 1050.21 1162.47 1040.01Z"/><path fill="#013560" d="M520.083 878.57L842.375 878.551L936.046 878.546L963.098 878.55C967.563 878.553 972.604 878.334 977.025 878.705C983.859 879.278 988.677 886.662 987.208 893.211C986.448 896.678 984.277 899.672 981.218 901.473C976.84 904.093 942.762 903.06 936.056 903.048L862.499 903.034L414.71 903.036L317.51 902.953C306.615 902.958 295.748 903.114 284.822 903.178C278.467 903.215 270.891 903.159 267.637 896.489C266.095 893.328 266.024 890.073 267.153 886.763C268.621 882.456 271.138 880.872 274.981 878.898C284.174 878.262 296.234 878.579 305.64 878.583L357.572 878.603L520.083 878.57Z"/><path fill="#F9F9F8" d="M213.655 1040.01C213.67 1031.31 213.33 1019.01 213.927 1010.6C215.774 1026.98 212.891 1052.18 213.971 1070.37C224.554 1070.74 233.724 1070.5 244.26 1070.37C244.302 1068.31 244.223 1063.58 244.784 1061.83C244.819 1074.84 244.047 1087.86 244.511 1100.91C253.775 1100.91 265.924 1100.53 274.944 1100.97L274.998 1131.63C267.674 1132.23 252.593 1131.68 244.245 1131.91C244.472 1121.75 244.339 1111.25 244.335 1101.06L213.831 1100.98C213.795 1111.16 213.627 1121.67 213.847 1131.82C203.696 1131.64 193.543 1131.64 183.391 1131.81L183.391 1101.05C173.528 1101.05 162.739 1100.84 152.951 1101.17L152.945 1070.58C163.093 1070.68 173.243 1070.7 183.391 1070.62C183.41 1060.52 183.241 1049.81 183.473 1039.77C192.012 1040.41 204.793 1040.02 213.655 1040.01Z"/><path fill="#F9F9F8" d="M1040.24 244.944C1050.28 245.184 1060.79 244.995 1070.87 244.955C1070.52 255.049 1070.73 265.44 1070.81 275.563C1078.39 275.541 1094.47 275.008 1101.37 275.608L1101.48 306.156C1091.28 306.261 1081.08 306.296 1070.89 306.261C1070.5 316.948 1070.67 326.191 1070.8 336.842C1062.53 337.383 1049.03 336.986 1040.21 337.095L1040.3 306.216C1034.87 306.326 1030.1 306.17 1024.7 305.958C1029.31 305.379 1034.96 305.539 1039.69 305.54L1039.69 276.149C1037.2 276.16 1020.44 276.328 1019.37 275.754L1018.14 275.828C1024.63 275.218 1033.54 275.454 1040.21 275.444L1040.24 244.944Z"/><path fill="#F9F9F8" d="M948.351 458.981C958.488 459.142 968.627 459.131 978.763 458.948C978.727 463.989 977.934 486.858 979.733 489.999C979.734 496.69 980.15 514.064 979.118 519.612C978.626 511.973 978.743 497.255 978.956 489.379C968.759 489.724 958.598 489.306 948.357 489.677C948.291 509.334 949.805 530.939 948.855 549.849C948.012 546.881 948.327 524.678 948.334 520.127C938.666 520.664 927.591 520.418 917.804 520.405C917.715 530.471 917.728 540.537 917.841 550.603C907.776 550.892 897.268 550.755 887.166 550.762L887.172 519.947C894.362 520.598 909.785 520.171 917.539 520.159C918.103 510.692 917.772 499.208 917.765 489.535C927.971 489.669 938.178 489.671 948.384 489.541C948.431 479.354 948.42 469.167 948.351 458.981Z"/><path fill="#F9F9F8" d="M336.094 1040.01C336.087 1036.33 335.678 1012.65 336.619 1010.49C337.485 1029.86 336.037 1050.62 336.291 1070.61L305.515 1070.62C305.524 1080.24 305.245 1091.57 305.635 1101.05C295.554 1101.08 284.981 1101.26 274.944 1100.97C274.742 1090.67 275.028 1080.4 274.85 1070.16C282.842 1071.09 296.888 1070.64 305.489 1070.62L305.568 1040.01L336.094 1040.01Z"/><path fill="#F9F9F8" d="M1070.8 336.842C1081.03 336.718 1091.26 336.678 1101.49 336.723C1101.44 346.583 1101.16 357.517 1101.52 367.287L1070.86 367.415C1070.68 377.725 1070.47 387.646 1070.84 397.969C1060.73 398.123 1050.36 398.015 1040.23 398.023L1040.26 367.295L1070.74 367.174C1070.69 357.063 1070.71 346.952 1070.8 336.842Z"/><path fill="#F9F9F8" d="M795.434 1040.01L826.049 1040.01C826.04 1050.03 825.865 1060.59 826.084 1070.57C816.245 1070.53 805.148 1070.29 795.425 1070.87C795.418 1080.57 795.654 1091.37 795.37 1100.97C785.281 1101 774.827 1100.89 764.771 1101.17L764.759 1070.62L795.261 1070.62L795.434 1040.01Z"/><path fill="#F9F9F8" d="M122.22 1100.94C132.357 1100.93 142.659 1101.03 152.78 1100.91C152.744 1110.56 152.403 1122.12 152.804 1131.62L183.281 1131.59C183.337 1141.82 183.337 1152.05 183.28 1162.28C173.156 1162.39 163.03 1162.37 152.906 1162.24L152.875 1131.75C142.643 1131.69 132.411 1131.7 122.179 1131.77L122.22 1100.94Z"/><path fill="#F9F9F8" d="M1070.84 397.969C1080.72 397.855 1090.6 397.901 1100.47 398.106C1097.29 398.997 1076.22 398.629 1071.53 398.61C1071.59 419.098 1070.63 438.703 1070.61 458.916L1040.15 458.923C1040.25 448.72 1040.27 438.516 1040.23 428.313L1070.76 428.311C1070.75 419.53 1070.3 406.397 1070.84 397.969Z"/><path fill="#F9F9F8" d="M978.854 1131.56C978.889 1124.11 978.684 1114.28 979.198 1107.02C979.947 1113.26 979.711 1124.38 979.687 1130.93C983.442 1130.93 1005.69 1130.57 1007.64 1131.33C1005.86 1131.9 1005.92 1131.82 1004.03 1131.72C995.681 1131.62 987.334 1131.67 978.99 1131.86C978.933 1141.73 978.669 1152.52 979.08 1162.31L948.256 1162.32C948.432 1152.09 948.476 1141.86 948.39 1131.63L978.854 1131.56Z"/><path fill="#F9F9F8" d="M0 1040.01C5.92328 1040.02 26.0522 1040.78 30.013 1039.05L31.2673 1039.57C31.202 1042.02 30.4174 1039.91 30.3372 1041.39C29.7176 1052.82 30.7865 1066.05 31.1615 1077.05C31.3537 1084.03 31.3012 1091.01 31.0041 1097.99L30.7628 1098.13C29.9013 1090.91 30.4176 1078.36 30.4076 1070.54C20.2716 1070.65 10.1346 1070.6 0 1070.4L0 1040.01Z"/><path fill="#F9F9F8" d="M213.676 1131.85C223.818 1131.84 234.268 1131.94 244.376 1131.6L244.384 1162.22C236.122 1162.35 221.773 1161.81 214.449 1162.54C212.815 1165.13 214.818 1166.16 213.207 1167.11C213.189 1164.99 213.401 1164.75 212.681 1162.81L211.248 1162.48L213.416 1161.47C214.104 1157.05 213.679 1144.37 213.671 1138.89L213.676 1131.85Z"/><path fill="#F9F9F8" d="M1101.48 306.156C1111.56 306.135 1121.81 306.21 1131.88 306.042C1131.75 316.304 1131.73 326.568 1131.84 336.831C1121.9 336.875 1111.21 336.719 1101.33 337.002C1101.37 327.299 1101.09 315.693 1101.48 306.156Z"/><path fill="#F9F9F8" d="M948.436 214.305C953.794 214.36 974.449 213.045 977.938 215.479C979.761 218.642 978.73 239.703 978.763 245.075L948.407 245.108L948.436 214.305Z"/><path fill="#F9F9F8" d="M1040.24 672.76L1070.61 672.82C1070.55 683.17 1070.41 693.145 1070.88 703.498C1060.65 703.605 1050.43 703.628 1040.2 703.569L1040.24 672.76Z"/><path fill="#F9F9F8" d="M948.324 703.448L978.763 703.415C978.721 708.741 978.231 729.783 979.297 734.206L948.241 734.308C948.374 724.022 948.402 713.734 948.324 703.448Z"/><path fill="#F9F9F8" d="M0 917.74C9.67753 917.707 20.6464 917.914 30.2183 917.502L30.3044 948.113C20.2034 948 10.1016 947.965 -2.17534e-15 948.006L0 917.74Z"/><path fill="#F9F9F8" d="M764.78 917.552L764.951 909.444L765.1 909.384L765.501 916.833C766.741 917.224 766.793 917.243 767.993 917.472L765.137 918.359C764.226 920.952 764.773 943.166 764.791 947.984C754.778 948.382 744.67 947.847 734.176 948.344L734.284 978.765L703.53 978.764L703.531 948.157C693.324 947.947 683.114 947.983 672.909 948.265C672.821 958.426 672.843 968.587 672.974 978.747L642.212 978.765C642.326 968.683 642.252 958.504 642.25 948.413C632.074 948.081 621.894 947.937 611.713 947.98L611.687 917.539C621.777 917.623 631.868 917.623 641.958 917.538C642.246 927.662 642.375 937.789 642.345 947.916L672.895 948.015C672.834 937.847 672.853 927.678 672.952 917.511C683.11 917.696 693.272 917.706 703.431 917.543C703.493 915.572 703.468 911.987 703.962 910.225C704.106 922.639 703.382 935.098 703.604 947.984L734.03 947.906L734.04 917.492C744.285 917.735 754.534 917.755 764.78 917.552Z"/><path fill="#F9F9F8" d="M213.72 886.929L244.414 886.933C244.416 897.017 244.267 907.533 244.478 917.58C254.627 917.707 264.777 917.727 274.926 917.64C274.944 927.277 275.248 938.387 274.959 947.894C265.397 948.245 254.084 948.243 244.432 948.086C244.405 958.068 244.183 968.845 244.491 978.763L213.699 978.763L213.652 947.86C223.848 947.971 234.045 947.963 244.241 947.837C244.392 937.847 244.409 927.855 244.292 917.864C240.852 917.078 218.26 917.498 213.735 917.532C213.716 907.436 213.558 896.997 213.72 886.929Z"/><path fill="#F9F9F8" d="M825.994 917.543C825.982 913.684 825.815 910.078 826.44 906.273C826.483 908.459 826.215 916.212 827.275 917.254L828.658 917.559L826.46 918.273C825.584 920.898 825.972 929.563 826.001 932.693C826.063 937.751 826.058 942.955 826.193 947.996C816.212 947.995 805.324 947.792 795.441 948.369L795.472 978.763L764.811 978.763C764.796 968.765 764.558 957.908 764.791 947.984L795.265 947.873C795.378 937.763 795.407 927.652 795.351 917.541C805.565 917.632 815.78 917.633 825.994 917.543Z"/><path fill="#F9F9F8" d="M366.771 917.542C376.652 917.639 386.534 917.675 396.417 917.651C398.038 915.846 396.957 915.45 397.717 912.386C398.042 915.201 397.561 915.242 399.085 916.925L401.864 917.684C400.483 917.907 399.499 918.002 398.102 918.113C396.736 920.838 397.419 933.787 397.503 937.592L397.573 948.05C387.15 947.967 377.29 947.899 366.861 948.224C366.769 958.404 366.757 968.583 366.826 978.763L336.069 978.763C336.126 969.737 335.741 956.633 336.259 947.972C346.437 947.743 356.575 947.941 366.743 947.874C366.751 937.813 366.657 927.587 366.771 917.542Z"/><path fill="#F9F9F8" d="M305.559 917.498C315.781 917.733 326.007 917.772 336.231 917.615L336.259 947.972C326.561 948.442 315.881 947.917 305.603 948.382C305.509 958.509 305.519 968.636 305.632 978.763L274.879 978.763C274.847 968.473 274.873 958.183 274.959 947.894C284.09 947.955 296.614 948.506 305.466 948.125C305.565 937.917 305.596 927.707 305.559 917.498Z"/><path fill="#F9F9F8" d="M458.621 1010.06C459.885 1012.57 458.581 1062.32 458.744 1070.54L428.014 1070.61L428.046 1053.07C428.269 1043.76 426.67 1033.93 427.59 1024.65C428.24 1026.74 428.149 1037.19 428.185 1040.01L458.547 1040.01C458.684 1030.09 458.602 1019.99 458.621 1010.06Z"/><path fill="#F9F9F8" d="M519.826 947.906C530.044 948.039 540.262 948.024 550.479 947.86C550.439 958.161 550.477 968.463 550.593 978.763L520.073 978.763C519.637 986.085 520.674 1000.57 519.6 1007.02C518.398 999.942 519.599 981.323 519.733 973.466C519.879 964.938 519.872 956.466 519.826 947.906Z"/><path fill="#F9F9F8" d="M519.909 906.592C521.331 909.871 519.507 914.131 520.89 917.1C522.838 917.125 524.237 917.043 526.145 917.52C524.91 918.173 522.662 917.288 520.369 918.237C519.497 920.878 519.931 943.425 519.966 947.987C512.221 947.904 504.475 947.958 496.732 948.148L489.186 948.148L489.189 917.544C499.406 917.611 509.623 917.611 519.84 917.544L519.909 906.592Z"/><path fill="#F9F9F8" d="M734.09 1040.01L764.787 1040.01L764.801 1070.57L734.001 1070.61L734.09 1040.01Z"/><path fill="#F9F9F8" d="M948.416 947.974C958.678 947.756 968.777 948.256 979.014 948.16C978.927 958.176 978.68 968.694 979.063 978.658C968.792 978.814 958.519 978.851 948.247 978.77L948.416 947.974Z"/><path fill="#F9F9F8" d="M581 947.879C591.237 948.018 601.475 948.051 611.713 947.98C611.482 958.24 611.519 968.505 611.825 978.763L580.985 978.763C581.134 968.469 581.139 958.173 581 947.879Z"/><path fill="#F9F9F8" d="M887.093 948.16L917.796 948.148C917.843 958.376 917.472 968.701 917.927 978.912C913.962 978.329 892.334 978.742 887.115 978.763L887.093 948.16Z"/><path fill="#F9F9F8" d="M917.784 917.545C927.861 917.62 937.938 917.618 948.014 917.539C948.858 925.784 948.251 939.199 948.416 947.974C938.167 947.98 927.917 948.048 917.668 948.179L917.784 917.545Z"/><path fill="#013560" d="M975.212 334.857C981.964 334.861 990.456 335.114 997.025 334.796C1024.59 333.46 1021.45 341.513 1021.46 363.998L1021.45 403.732C1021.43 442.452 1021.48 481.213 1021.44 519.936C1021.44 523.724 1020.75 526.369 1017.96 529.129C1015.4 531.629 1011.88 532.908 1008.31 532.641C1005.09 532.392 1002.11 530.86 1000.03 528.389C998.725 526.854 997.372 523.859 997.31 521.833C996.072 481.867 998.676 440.68 997.252 400.82C995.8 394.982 986.263 399.56 979.123 396.595L780.364 596.393L717.378 659.662C707.225 669.838 697.277 680.109 686.906 690.081C674.981 701.546 666.79 689.281 657.948 680.995C655.005 678.237 652.115 675.162 649.239 672.278L643.363 666.477C606.175 628.534 566.783 590.263 529.048 552.619L519.562 562.144C513.706 568.005 507.667 574.248 501.728 579.976L488.646 593.219C483.129 598.714 476.411 605.115 471.399 610.905C467.93 613.524 457.396 624.528 453.56 628.561C444.698 637.876 434.562 647.322 425.915 656.631L411.549 670.918L333.267 749.981L302.849 780.562C297.923 785.477 290.084 795.545 283.401 796.433C279.764 796.904 276.099 795.804 273.322 793.408C265.511 786.775 269.715 778.838 275.672 772.869C293.063 755.439 310.31 737.868 327.653 720.389L429.332 617.92L491.797 554.831C501.514 545.061 511.169 535.193 521.103 525.648C524.505 522.38 531.812 521.984 535.48 524.831C541.07 529.17 546.218 534.8 551.27 539.816L580.277 568.498C605.094 593.772 630.912 618.964 655.999 644.073L677.27 665.191C703.992 637.878 730.872 610.719 757.908 583.717L904.862 435.92C929.869 410.776 956.061 385.185 980.577 359.662C935.584 359.133 890.525 360.06 845.55 359.313C830.966 359.071 830.67 335.745 845.455 335.071C858.473 334.478 871.952 334.91 884.991 334.924L975.212 334.857Z"/><path fill="#F9F9F8" d="M979.123 396.595C984.95 390.597 990.892 384.711 996.945 378.94C997.251 386.229 997.353 393.525 997.252 400.82C995.8 394.982 986.263 399.56 979.123 396.595Z"/></svg>