<?xml version="1.0" encoding="utf-8" ?><svg xmlns="http://www.w3.org/2000/svg" xmlns:xlink="http://www.w3.org/1999/xlink" width="1254" height="1254" viewBox="0 0 1254 1254"><path fill="#FBFBFB" d="M0 0L1254 0L1254 1254L0 1254L0 0Z"/><path fill="#014A62" d="M613.761 203.537C618.757 203.024 629.587 203.175 634.738 203.328C678.394 204.639 720.765 218.41 756.85 243.017C805.65 275.802 839.313 326.742 850.34 384.489C892.506 384.935 930.546 402.28 960.419 431.759C991.708 462.665 1009.46 504.719 1009.79 548.697C1009.89 593.645 992.097 636.786 960.343 668.598C938.794 689.932 911.958 705.149 882.587 712.69C859.594 718.423 841.611 717.595 818.469 717.573L773.387 717.55L639.866 717.569L481.981 717.552L434.809 717.576C412.321 717.586 395.986 718.312 373.71 713.161C346.498 706.782 321.287 693.767 300.327 675.276C267.132 645.9 246.97 604.538 244.276 560.294C241.486 516.322 256.268 473.041 285.374 439.962C316.823 404.569 354.453 387.174 401.365 384.431C406.861 350.038 426.104 310.681 448.86 284.507C493.914 232.69 546.566 209.067 613.761 203.537Z"/><path fill="#FBFBFB" d="M624.35 232.349C704.257 229.685 785.384 282.752 812.926 357.543C815.067 363.356 820.587 379.684 821.288 385.102C826.018 421.652 834.444 410.635 863.307 414.251C870.383 415.141 877.377 416.59 884.223 418.585C905.253 424.937 924.403 436.35 939.995 451.824C965.424 477.096 980.926 513.512 980.925 549.401C980.938 586.329 966.272 621.747 940.158 647.856C921.952 665.941 899.182 678.75 874.272 684.917C855.443 689.464 838.61 688.775 819.499 688.769L773.011 688.733L631.439 688.754L477.199 688.759L433.476 688.762C415.31 688.762 399.226 689.483 381.24 685.327C358.431 680.058 336.043 668.817 318.774 652.976C290.775 627.561 274.213 591.925 272.837 554.136C271.739 517.506 285.172 481.929 310.203 455.164C331.746 432.245 360.719 417.708 391.971 414.14C395.082 413.768 400.848 413.224 403.957 413.416C430.695 415.062 426.881 400.311 431.871 379.261C439.501 347.908 455.197 319.095 477.401 295.682C515.993 254.381 568.592 234.283 624.35 232.349Z"/><path fill="#014A62" d="M626.306 794.895C630.891 795.176 633.75 795.606 637.182 799.025C642.583 804.405 648.498 812.603 652.88 818.992C672.357 847.39 698.825 887.511 701.864 922.338C703.596 942.171 694.909 964.401 681.529 978.442C666.311 994.41 650.407 1000.75 628.764 1001.73C612.952 1001.96 598.078 997.943 584.946 989.062C568.371 977.779 556.989 960.343 553.328 940.629C552.176 934.567 551.46 923.086 552.776 916.872C559.455 885.324 579.495 853.063 596.93 826.264C602.345 817.94 612.404 802.95 620.124 796.863C621.426 795.836 624.654 795.214 626.306 794.895Z"/><path fill="#FBFBFB" d="M627.024 830.044C629.125 831.056 636.565 842.607 638.044 845.032C650.975 866.235 672.542 897.258 675.383 922.105C676.72 934.394 673.061 946.705 665.228 956.269C655.278 968.58 644.086 973.2 628.81 974.789C617.539 974.362 608.673 972.239 599.294 965.606C588.736 958.25 581.55 946.986 579.329 934.312C574.824 907.132 611.172 851.846 627.024 830.044Z"/><path fill="#014A62" d="M846.828 780.763C851.831 780.368 856.907 780.571 860.708 784.199C866.16 789.403 871.452 797.727 875.666 804.113C891.241 827.717 911.105 859.048 913.951 887.534C915.668 904.727 909.34 923.309 897.876 936.026C885.884 949.329 871.946 956.001 854.149 957.108C843.426 957.223 836.864 956.815 826.695 952.77C810.748 946.556 797.962 934.201 791.206 918.476C773.638 877.285 807.356 835.337 828.092 801.637C832.324 794.76 839.499 783.826 846.828 780.763Z"/><path fill="#FBFBFB" d="M850.862 815.331C853.023 817.156 858.893 826.496 860.518 829.204C870.739 846.234 884.09 867.435 887.518 887.123C889.176 896.65 886.207 908.891 880.039 916.203C871.5 926.326 862.789 929.33 850.235 930.768C826.025 928.857 806.622 907.788 813.728 884.1C820.24 862.391 838.085 833.546 850.862 815.331Z"/><path fill="#014A62" d="M403.32 780.778C407.572 780.466 411.87 780.921 415.048 783.981C420.164 788.906 425.533 796.886 429.442 802.909C445.429 827.543 466.766 859.681 468.976 889.357C470.232 906.211 464.07 923.848 452.716 936.075C439.77 950.016 425.726 956.335 406.978 957.222C395.173 957.211 385.994 955.516 375.382 949.973C360.218 942.025 348.895 928.306 343.967 911.911C336.309 886.765 346.099 865.176 358.031 842.654C367.628 824.54 383.384 798.816 397.373 783.431C398.437 782.261 401.768 781.254 403.32 780.778Z"/><path fill="#FBFBFB" d="M405.692 815.315C407.216 816.593 412.898 825.265 414.099 827.387C424.244 845.298 441.464 870.479 442.874 891.268C444.357 913.129 426.268 929.825 404.834 930.743C400.846 930.323 396.019 929.713 392.481 928.113C361.096 913.914 363.962 887.747 378.215 861.568C387.641 844.253 395.549 831.018 405.692 815.315Z"/></svg>