<?xml version="1.0" encoding="utf-8" ?><svg xmlns="http://www.w3.org/2000/svg" xmlns:xlink="http://www.w3.org/1999/xlink" width="1254" height="1254" viewBox="0 0 1254 1254"><path fill="#F9F9F9" d="M0 0L1254 0L1254 1254L0 1254L0 0Z"/><path fill="#003F53" d="M464.137 295.215C468.635 294.817 471.876 295.363 475.92 297.481C529.156 325.356 576.609 380.441 582.516 441.15C586.042 475.616 575.771 510.075 553.95 536.987C559.318 556.723 563.235 577.846 566.64 598.051C576.505 655.296 580.651 713.38 579.017 771.446C578.637 784.616 578.264 802.026 576.672 814.854C585.601 819.906 597.63 825.32 607.107 829.016C613.728 794.218 620.005 777.906 635.047 745.077C622.746 730.087 614.839 719.487 606.949 701.332C588.847 659.684 591.049 616.6 607.559 574.728C608.796 571.567 611.389 567.103 614.903 566.003C628.137 561.978 629.317 582.696 632.422 591.074C635.413 599.143 645.259 633.33 657.958 628.495C660.627 625.404 660.447 621.263 659.998 617.385C659.178 610.295 656.39 603.254 654.011 596.563C648.645 581.473 635.342 550.317 636.091 535.405C637.112 515.111 666.634 488.385 681.535 475.436C693.494 465.045 742.343 428.972 755.826 430.576C760.945 431.185 763.538 436.319 764.42 440.843C765.246 445.085 764.837 449.785 764.801 454.088C764.687 467.616 762.959 489.254 771.811 500.481C773.093 502.107 774.107 502.465 776.113 502.704C791.109 496.899 784.286 424.801 794.025 414.291C806.236 401.113 878.649 384.418 895.232 393.575C903.132 397.937 910.197 436.293 911.919 447.751C913.212 456.823 913.945 465.966 914.115 475.129C914.279 481.465 914.31 489.953 910.295 495.864C902.96 506.666 847.707 518.683 850.529 533.139C859.264 544.311 896.111 516.907 909.685 523.467C911.816 524.497 912.861 526.115 913.64 528.293C918.529 541.957 908.161 598.001 901.438 611.439C899.374 615.564 897.003 618 892.699 619.749C885.847 622.532 877.326 622.688 870.033 623.538C851.64 625.682 829.86 626.856 812.333 632.628C808.987 633.73 803.93 635.76 802.448 639.261C802.162 639.936 802.31 640.596 802.724 641.205C812.066 654.941 859.431 641.483 874.583 643.271C877.68 643.636 880.745 645.32 882.532 647.903C884.439 650.66 884.669 654.119 883.885 657.308C879.542 674.98 847.523 721.105 832.051 730.355C829.298 732.001 826.19 733.269 822.944 733.283C805.595 733.357 774.926 716.104 756.261 711.831C752.234 710.909 748.175 710.391 744.542 712.672C740.374 719.527 756.122 728.8 761.218 731.479C778.06 739.387 823.468 747.327 789.554 768.815C740.184 800.096 689.944 794.527 646.039 756.25C634.13 778.807 625.333 809.129 621.152 834.211C664.08 848.299 710.395 848.243 753.289 834.053C758.728 832.242 785.63 819.609 788.273 820.866C801.904 827.344 787.07 835.747 779.852 839.188C718.418 868.472 645.832 865.045 585.107 835.711C562.911 825.207 540.236 810.733 517.513 801.902C470.179 783.074 420.541 793.156 378.645 819.782C370.55 824.927 365.107 814.721 368.843 810.789C380.009 799.038 407.185 788.158 421.714 783.85C475.05 768.035 516.697 782.096 562.606 807.451C563.579 799.447 563.764 788.382 564.059 780.137C564.818 758.958 564.819 737.758 564.059 716.579C563.398 701.256 563.321 693.121 555.8 679.304C548.544 665.977 541.327 657.213 530.168 646.98C522.088 649.51 514.192 652.985 505.827 655.395C480.493 662.694 455.462 661.925 431.256 651.156C400.036 637.266 376.067 608.528 358.405 580.003C354.659 573.542 350.164 567.123 347.47 560.138C343.803 550.37 348.594 545.375 357.883 543.088C441.669 522.461 513.295 544.616 537.925 633.658C547.278 641.638 552.291 648.203 559.93 657.58C556.089 618.144 549.342 579.046 539.744 540.605C517.091 535.402 495.895 522.476 479.394 506.337C426.682 454.782 429.899 373.049 453.872 308.773C456.216 302.487 457.977 298.332 464.137 295.215Z"/><path fill="#F9F9F9" d="M881.559 405.012C883.705 404.821 883.558 404.827 885.607 405.522C887.6 407.324 888.449 409.487 889.231 412.027C893.067 424.484 904.859 478.252 897.86 487.315C895.978 489.752 890.986 491.18 888.167 492.369C872.772 498.859 845.876 507.835 837.869 523.226C835.653 527.487 835.072 532.328 836.634 536.905C838.17 541.407 841.448 545.263 845.782 547.286C862.381 555.035 884.776 543.342 900.381 537.282C900.088 549.785 895.105 596.07 888.063 604.517C880.873 613.143 811.046 607.457 792.758 628.361C789.575 632 787.3 636.53 787.804 641.479C788.303 646.37 791.284 650.617 795 653.679C811.577 667.338 847.811 660.254 867.832 658.223C860.83 674.493 837.705 709.623 822.867 718.777C801.793 715.691 760.276 691.069 741.956 697.618C737.108 699.35 733.138 702.854 731.096 707.617C728.76 713.069 729.867 719.218 732.186 724.483C739.787 741.738 765.856 749.404 782.126 755.721C737.772 785.622 690.992 778.214 652.851 742.45C681.507 691.838 704.435 657.377 743.568 612.954C752.909 602.475 762.568 592.282 772.532 582.392C777.176 577.801 782.338 573.475 786.978 568.898C794.323 562.339 790.029 550.852 780.252 555.797C773.987 558.966 764.525 569.375 759.485 574.398C713.272 620.809 673.876 673.541 642.477 731.019C608.91 690.323 600.015 640.014 617.117 590.222C622.053 606.853 637.563 654.58 663.824 641.566C684.094 631.522 670.301 599.238 664.589 583.326C661.3 574.263 658.139 565.154 655.107 556.002C647.156 532.171 649.821 529.321 666.67 510.539C690.783 483.66 718.316 463.864 750.243 447.244C750.222 454.096 750.257 460.948 750.348 467.799C750.691 483.581 753.496 518.98 777.103 517.269C797.835 515.767 799.634 481.205 800.977 465.515L803.267 437.54C803.594 433.889 803.799 424.657 806.155 423.233C823.301 412.865 863.283 406.189 881.559 405.012Z"/><path fill="#F9F9F9" d="M469.25 310.251C475.33 313.574 481.271 317.144 487.058 320.954C527.714 348.217 564.233 394.672 568.239 444.841C570.285 470.467 563.647 497.609 549.291 519.032C544.76 505.235 540.845 490.818 536.308 476.827C529.527 456.205 522.06 435.815 513.921 415.691C511.824 410.456 507.467 397.96 503.737 394.469C500.216 393.629 495.744 393.875 493.8 397.232C490.657 402.657 498.187 416.136 500.474 421.614C504.272 430.751 507.915 439.952 511.402 449.213C520.645 473.804 528 498.903 535.19 524.147C468.229 503.756 442.154 427.216 454.41 364.049C457.866 346.24 461.278 326.682 469.25 310.251Z"/><path fill="#F9F9F9" d="M361.782 557.113C380.361 553.198 396.264 550.121 415.454 550.606C463.504 551.821 499.096 572.936 517.593 618.255C496.131 605.212 476.043 594.131 451.779 586.784C445.078 584.755 430.916 577.872 431.387 591.761C431.585 597.601 454.526 603.006 459.831 605.163C478.901 612.915 500.66 623.048 516.726 636.041C480.257 650.155 443.836 649.484 413.157 622.463C409.666 619.687 406.652 616.78 403.407 613.731C386.375 597.258 373.07 577.837 361.782 557.113Z"/><path fill="#003F53" d="M451.265 832.979C460.788 831.744 473.35 832.722 482.833 833.704C519.06 836.561 553.755 860.11 584.077 876.565C640.095 906.965 706.547 911.03 764.506 883.969C766.207 883.175 770.381 882.631 772.003 884.012C784.668 894.792 760.688 901.362 753.555 904.309C740.009 909.465 725.803 912.547 711.645 914.813C667.558 920.73 621.286 912.684 581.978 892.211C536.547 868.549 508.156 843.458 452.459 847.666C437.652 848.785 423.121 852.273 409.42 857.997C404.797 859.889 400.886 862.569 396.127 864.029C389.716 865.995 384.224 858.129 388.78 852.987C390.789 850.719 393.037 849.401 395.764 848.107C413.781 839.56 431.509 835.078 451.265 832.979Z"/></svg>