<?xml version="1.0" encoding="utf-8" ?><svg xmlns="http://www.w3.org/2000/svg" xmlns:xlink="http://www.w3.org/1999/xlink" width="1254" height="1254" viewBox="0 0 1254 1254"><path fill="#FDFDFC" d="M0 0L1254 0L1254 1254L0 1254L0 0Z"/><path fill="#002853" d="M619.987 300.741C651.069 297.938 662.907 315.483 673.103 341.484C676.775 350.85 681.938 361.536 686.037 370.856L733.006 478.09C774.365 482.258 815.693 486.727 856.986 491.495C868.042 492.709 904.51 495.993 913.241 498.78C920.983 501.336 927.826 506.065 932.952 512.403C940.177 521.409 943.504 532.928 942.192 544.398C939.984 564.461 927.234 572.667 913.107 584.925L882.558 611.459C857.924 632.89 829.579 659.192 804.588 679.333L826.746 790.351C829.644 804.769 836.986 837.228 837.259 850.146C837.414 857.761 835.54 865.279 831.829 871.93C826.058 882.114 816.476 889.587 805.193 892.702C798.492 894.538 786.715 895.087 780.522 892.414C763.239 884.953 743.784 872.714 727.338 863.193L631.654 808.163L626.627 805.566C614.084 811.864 597.977 821.661 585.448 828.891L514.229 869.936C505.613 874.876 483.436 888.588 475.316 891.517C467.662 894.284 459.414 894.976 451.406 893.525C439.779 891.275 429.538 884.459 422.974 874.602C411.755 857.712 416.056 842.704 419.722 824.229C421.73 814.111 423.811 803.941 425.834 793.826L448.618 679.557L361.597 603.703L336.581 581.993C323.72 570.807 313.073 563.165 311.112 544.829C309.76 533.118 313.184 521.355 320.612 512.2C333.246 496.676 348.533 496.484 367.015 494.596C377.935 493.48 388.982 492.316 399.896 491.142C440.043 486.504 480.221 482.143 520.429 478.06C535.637 441.499 552.509 404.386 568.532 368.115L580.823 339.931C589.747 319.358 595.733 305.71 619.987 300.741Z"/><path fill="#FDFDFC" d="M625.283 325.342C640.889 325.821 643.151 335.466 648.455 347.727C650.386 352.192 652.39 356.795 654.352 361.257L695.386 454.537C700.879 467.102 706.712 482.863 713.496 494.521C714.866 496.874 720.872 501.191 723.608 501.707C739.039 504.619 756.69 505.857 772.351 507.581L895.651 520.719C902.555 521.509 909.343 522.459 913.8 528.646C926.591 546.401 903.99 559.404 891.701 570.037L828.879 624.608C818.247 633.849 788.457 657.846 782.368 667.608C779.815 671.703 779.31 676.686 779.589 681.42C780.254 692.724 784.621 709.139 786.881 720.737L806.007 815.206C807.354 821.714 808.751 828.235 810.071 834.747C812.386 846.169 815.664 857.81 804.159 865.638C799.528 868.841 793.72 869.836 788.287 868.356C784.52 867.327 781.07 865.296 777.73 863.33C738.127 840.061 698.144 817.393 658.471 794.234C649.21 788.828 640.165 782.417 629.51 780.701C624.188 780.634 619.038 781.202 614.25 783.614C601.284 790.145 587.839 798.335 575.245 805.613L496.932 850.823C487.233 856.45 475.347 864.342 465.069 868.094C454.684 872.216 440.726 863.338 440.811 852.273C440.888 842.137 444.508 828.101 446.573 817.904C453.782 783.272 460.738 748.587 467.439 713.853C476.347 666.261 480.751 673.791 443.326 641.369C421.496 622.154 399.556 603.065 377.506 584.102C365.298 573.612 352.052 562.691 340.37 551.602C338.463 549.791 337.093 546.928 336.438 544.364C335.148 539.283 336.034 533.894 338.883 529.493C340.946 526.324 344.823 523.186 348.438 522.426C360.587 519.873 375.317 519.028 387.775 517.703L479.918 507.701C495.864 505.996 512.353 504.683 528.109 502.036C539.547 500.115 542.924 489.236 546.955 480.045C549.617 473.972 552.322 467.684 555.001 461.504L593.653 373.539C599.198 360.813 605.023 345.974 611.378 333.605C613.893 328.707 619.97 326.328 625.283 325.342Z"/></svg>