<?xml version="1.0" encoding="utf-8" ?><svg xmlns="http://www.w3.org/2000/svg" xmlns:xlink="http://www.w3.org/1999/xlink" width="1254" height="1254" viewBox="0 0 1254 1254"><path fill="#FCFCFB" d="M0 0L1254 0L1254 1254L0 1254L0 0Z"/><path fill="#023A51" d="M434.731 463.618C448.147 461.876 482.696 476.617 495.929 483.249C562.964 516.845 606.033 575.326 629.554 645.15C630.897 642.079 632.038 638.579 633.205 635.402C644.359 605.04 660.401 575.441 680.949 550.329C709.402 515.157 746.776 488.268 789.168 472.471C798.707 468.885 814.051 464.12 824.145 463.11C826 464.004 827.98 464.866 829.4 466.406C838.969 476.785 838.129 534.24 836.972 549.736C831.688 628.017 795.174 700.891 735.635 751.987C759.721 751.923 775.065 752.724 798.597 759.044C803.053 760.458 807.443 762.071 811.754 763.878C858.483 783.408 852.946 813.484 807.687 828.696C747.349 848.976 683.663 824.697 629.27 798.378C575.817 827.91 475.675 859.592 421.769 812.883C409.552 802.297 412.742 788.239 424.416 778.475C451.41 755.899 489.864 751.173 523.957 752.511C499.87 731.301 482.892 712.717 466.056 684.895C435.912 635.508 420.564 578.512 421.833 520.667C422.117 505.668 423.739 489.65 426.928 474.934C428.208 469.029 429.834 466.559 434.731 463.618Z"/><path fill="#FCFCFB" d="M442.558 481.676C470.25 489.133 496.398 501.448 519.785 518.048C573.532 555.981 612.122 621.931 621.524 686.717C621.945 689.618 622.636 691.367 625.222 693.025C627.155 694.254 629.522 694.595 631.723 693.96C640.13 691.561 639.493 674.47 641.459 666.362C662.414 579.935 729.192 503.454 817.026 482.012C823.238 508.876 821.886 542.877 817.834 569.991C808.636 641.726 762.817 718.963 700.089 756.094C697.461 757.649 690.039 759.419 686.659 760.225C666.561 765.019 648.063 773.051 629.574 782.075C615.773 774.715 598.089 767.73 583.115 763.226C566.723 758.296 560.975 758.874 546.71 748.419C524.135 731.876 505.878 713.084 489.676 690.324C447.154 629.672 430.226 554.715 442.558 481.676Z"/><path fill="#FCFCFB" d="M508.872 769.334C539.076 768.198 579.806 777.809 607.143 790.283C581.83 802.831 554.872 811.739 527.066 816.743C511.748 819.668 496.089 820.382 480.568 818.864C463.601 817.097 441.914 810.816 430.744 797.002C446.588 775.7 484.165 770.39 508.872 769.334Z"/><path fill="#FCFCFB" d="M740.882 769.326C765.447 767.858 812.712 774.304 827.943 796.197C811.004 818.955 765.762 820.686 740.336 817.852C708.987 813.531 680.04 803.43 651.469 790.126C683.477 777.155 706.333 771.103 740.882 769.326Z"/><path fill="#023A51" d="M629.275 352.596C672.671 351.784 708.505 386.313 709.304 429.71C710.102 473.106 675.562 508.93 632.165 509.714C588.788 510.499 552.984 475.977 552.186 432.6C551.388 389.223 585.898 353.408 629.275 352.596Z"/><path fill="#FCFCFB" d="M624 370.136C657.78 366.449 688.127 390.91 691.696 424.703C695.266 458.496 670.7 488.757 636.895 492.21C603.255 495.646 573.174 471.226 569.621 437.598C566.069 403.971 590.385 373.805 624 370.136Z"/></svg>