<?xml version="1.0" encoding="utf-8" ?><svg xmlns="http://www.w3.org/2000/svg" xmlns:xlink="http://www.w3.org/1999/xlink" width="1254" height="1254" viewBox="0 0 1254 1254"><path fill="#FBFBFB" d="M0 0L1254 0L1254 1254L0 1254L0 0Z"/><path fill="#01485C" d="M606.49 338.247C606.577 338.237 606.665 338.227 606.752 338.217C658.848 334.776 710.178 352.166 749.455 386.563C793.044 424.399 819.488 478.247 822.779 535.872C826.417 593.038 807.212 649.309 769.384 692.323C734.444 732.437 684.849 756.828 631.747 760.013L630.595 760.102C580.643 763.842 527.081 744.573 489.344 711.867C446.503 674.243 420.246 621.228 416.283 564.349C411.902 506.946 430.792 450.194 468.701 406.867C503.726 366.643 553.283 341.963 606.49 338.247Z"/><path fill="#FBFBFB" d="M613.57 352.951C658.691 350.546 705.659 368.825 739.668 398.055C780.133 433.067 804.803 482.894 808.115 536.301C811.504 589.093 794.051 641.108 759.506 681.171C723.658 722.226 679.369 741.838 625.73 745.609C577.766 746.92 531.144 729.685 495.565 697.491C456.479 661.588 433.13 611.718 430.586 558.706C427.897 506.143 446.132 454.654 481.302 415.498C516.48 376.827 561.339 355.483 613.57 352.951Z"/><path fill="#01485C" d="M616.025 446.463C616.442 446.428 616.86 446.4 617.279 446.38C623.932 446.068 631.056 448.137 635.924 452.842C645.562 462.158 643.488 477.091 643.48 489.46L643.467 525.846C656.33 526.09 669.514 525.683 682.399 525.828C688.597 525.897 697.626 525.31 703.499 526.548C708.206 527.493 712.558 529.728 716.067 533.004C729.631 545.864 722.31 570.106 703.504 573.016C695.532 574.249 687.455 573.805 679.396 573.774C667.432 573.698 655.469 573.683 643.505 573.728L643.466 609.927C643.555 629.561 646.635 647.901 622.251 653.238C621.811 653.274 621.37 653.301 620.929 653.32C614.216 653.598 607.039 651.619 602.139 646.817C592.464 637.336 594.568 621.99 594.58 609.422L594.603 573.728L557.13 573.764C551.38 573.773 539.642 574.091 534.606 573.04C530.284 572.173 526.255 570.214 522.904 567.349C508.434 554.874 515.149 529.851 534.296 526.625C542.217 525.291 550.404 525.801 558.439 525.825C570.48 525.939 582.523 525.919 594.564 525.764L594.564 488.469C594.536 468.995 592.101 451.913 616.025 446.463Z"/><path fill="#FBFBFB" d="M535.934 559.033C531.185 556.029 527.506 550.86 530.764 545.361C535.028 538.165 547.771 540.187 555.005 540.231L589.115 540.34C609.178 540.408 609.427 540.716 609.358 520.875L609.215 485.265C609.207 482.249 608.995 471.862 609.356 469.372C609.578 467.832 610.15 466.363 611.028 465.078C612.533 462.844 614.919 461.356 617.588 460.987C620.151 460.618 623.392 461.295 625.367 463.04C627.34 464.782 628.23 467.324 628.608 469.863C629.334 474.738 628.799 480.134 628.788 485.082C628.754 499.986 627.551 516.775 628.77 531.436C629.04 534.682 629.679 537.163 632.71 538.83C640.675 543.211 686.361 538.18 699.049 540.348C701.386 540.747 703.882 541.666 705.625 543.326C707.601 545.208 708.487 547.871 708.403 550.564C708.278 554.577 705.578 557.097 701.968 558.381C688.069 563.328 638.104 554.41 630.723 562.563C627.235 566.416 628.711 583.849 628.674 589.835C628.802 603.009 629.377 617.885 628.341 631.076C628.017 635.2 624.216 637.482 620.638 638.947C620.049 638.912 619.458 638.884 618.872 638.818C615.229 638.405 612.125 636.983 610.394 633.605C605.758 624.562 613.218 569.054 606.842 562.091C605.208 560.307 603.173 559.915 600.872 559.625C594.597 558.836 587.749 559.344 581.415 559.361C566.307 559.402 551.018 559.883 535.934 559.033Z"/><path fill="#01485C" d="M252.895 483.943C276.472 482.063 298.35 499.561 299.578 523.617C300.381 539.36 299.889 555.737 299.854 571.551C300.015 603.26 299.956 634.968 299.678 666.676C317.22 647.038 346.05 644.285 366.92 661.504C374.954 668.133 383.18 677.599 390.763 685.012C412.932 706.684 434.254 729.309 456.319 751.086C481.301 775.979 513.525 799.231 536.122 825.823C551.156 843.241 563.324 862.939 572.172 884.178C583.58 911.678 588.47 941.115 588.333 970.786C588.308 976.213 590.09 990.498 583.383 992.356C578.72 993.944 573.545 990.748 573.564 985.606C573.63 966.819 573.692 948.829 570.165 930.184C564.924 902.288 553.811 875.826 537.563 852.553C514.142 819.425 477.859 793.991 449.087 765.417L383.621 699.317C377.605 693.268 359.16 674.083 353.39 670.306C346.032 665.585 337.107 663.965 328.56 665.798C320.26 667.643 313.069 672.79 308.647 680.052C302.865 689.682 303.271 703.294 308.626 712.714C312.287 719.154 325.627 730.821 331.572 736.738C351.079 756.084 370.476 775.541 389.762 795.108C396.659 802.136 403.839 808.533 410.546 815.935C414.796 819.658 412.019 829.095 406.303 828.767C398.659 828.329 387.309 814.032 382.259 808.987L345.623 772.545L317.535 744.573C310.204 737.298 300.301 728.269 294.909 719.63C282.078 699.072 284.881 669.396 284.949 645.891L284.997 570.28C284.993 560.519 285.897 526.436 283.711 519.169C281.517 511.708 276.353 505.476 269.429 501.934C262.043 498.253 253.465 497.781 245.719 500.63C227.093 507.427 227.3 527.233 227.848 543.427C228.039 549.067 227.9 554.922 227.921 560.577L227.875 620.499L227.812 662.915C227.787 676.395 227.44 687.417 229.01 700.74C235.111 752.489 259.145 797.694 297.23 833.053C308.653 843.658 320.801 853.033 332.902 862.869L392.307 911.002C412.012 926.891 430.576 939.781 439.087 965.368C442.431 973.468 450.147 999.309 431.52 991.119C429.816 990.37 424.972 970.101 423.116 965.917C419.427 957.487 414.118 949.864 407.489 943.482C398.551 934.826 378.832 919.752 368.571 911.553C294.633 852.47 228.446 809.625 214.682 707.707C212.084 688.467 212.959 671.209 212.978 651.909L213.046 582.561L213.143 546.632C213.127 541.182 213.185 535.596 213.13 530.167C212.875 505.024 227.422 486.871 252.895 483.943Z"/><path fill="#01485C" d="M981.296 483.946C990.743 483.418 999.334 484.825 1007.48 489.785C1017.3 495.786 1024.29 505.478 1026.89 516.685C1028.92 525.548 1028.19 549.238 1028.18 559.65L1028.16 629.034C1028.16 651.955 1029.08 681.575 1027.09 703.393C1022.1 757.937 993.12 809.585 952.687 845.921C934.822 861.975 914.752 877.525 895.731 892.687L860.103 921.251C850.089 929.214 837.937 937.944 829.619 947.322C822.214 955.662 816.824 965.59 813.863 976.343C813.018 979.346 811.763 988.646 810.487 989.945C804.346 996.199 795.945 991.561 797.274 982.649C799.67 966.57 806.926 950.505 817.435 938.294C828.798 925.091 844.034 915.35 857.209 904.038C883.39 882.539 910.867 861.501 936.556 839.573C981.102 801.548 1009.45 749.801 1012.99 690.921C1013.74 678.337 1013.34 662.955 1013.34 649.97L1013.3 578.417C1013.28 567.141 1013.32 555.865 1013.41 544.59C1013.49 531.834 1015.13 517.677 1005.69 507.583C995.1 496.268 975.864 495.904 964.863 506.812C960.682 510.993 957.92 516.383 956.968 522.219C955.982 528.102 956.396 536.884 956.44 543.036L956.428 569.951L956.436 676.69C956.317 709.377 948.736 719.644 927.085 741.089L898.585 769.233L862.112 805.765C855.772 812.165 849.672 818.617 842.971 824.836C837.837 829.696 829.764 830.838 828.537 822.027C827.865 817.199 834.895 811.127 838.082 808.13C843.416 803.115 848.389 798.018 853.517 792.841L902.332 744.139C910.889 735.625 920.047 727.037 928.167 718.148C940.234 704.938 939.613 683.705 925.509 672.084C918.903 666.713 910.396 664.261 901.945 665.292C895.821 666.028 888.249 669.023 883.847 673.28C853.8 702.336 824.794 732.765 795.26 762.334C769.834 787.791 739.315 809.479 715.815 836.63C702.693 851.857 691.961 868.99 683.987 887.443C677.385 902.65 672.749 918.636 670.19 935.016C668.634 944.949 667.742 954.975 667.519 965.027C667.486 967.6 670.754 1005.22 654.687 990.316C651.525 987.383 652.727 969.647 652.765 963.207C652.994 907.23 678.161 849.842 718.54 811.033C751.287 779.56 787.287 751.51 818.047 717.497C835.886 700.037 853.1 681.67 871.129 664.425C892.571 643.915 922.232 645.97 941.625 666.666L941.629 566.952C941.63 561.486 941.639 555.866 941.635 550.499C941.618 528.428 938.837 506.735 959.234 492.226C966.837 486.817 971.889 484.998 981.296 483.946Z"/><path fill="#01485C" d="M425.574 290.773C427.013 290.597 428.723 290.517 430.154 290.755C433.726 291.35 465.979 324.525 469.772 329.238C471.175 330.983 471.883 332.83 471.404 335.092C470.858 337.675 468.81 339.327 466.873 340.906C465.38 341.083 461.865 341.303 460.697 340.27C448.185 329.201 436.691 316.562 424.784 304.831C419.552 299.677 420.17 295.335 425.574 290.773Z"/><path fill="#01485C" d="M808.91 290.235C809.124 290.267 809.339 290.297 809.553 290.331C812.467 290.797 814.878 291.628 816.548 294.239C817.625 295.923 817.66 297.947 817.117 299.816C815.958 303.797 780.712 338.711 775.852 341.177C761.354 340.627 767.97 327.836 775.282 322.118C783.415 315.759 800.639 293.542 808.91 290.235Z"/><path fill="#01485C" d="M617.88 223.49C628.469 223.577 627.557 228.817 627.584 237.686C627.625 251.617 627.815 265.621 627.386 279.538C627.303 282.222 624.748 283.991 622.804 285.357C619.001 285.554 613.479 284.902 613.233 279.884C612.414 263.167 612.736 246.136 613.067 229.394C613.119 226.769 616.01 224.807 617.88 223.49Z"/></svg>