<?xml version="1.0" encoding="utf-8" ?><svg xmlns="http://www.w3.org/2000/svg" xmlns:xlink="http://www.w3.org/1999/xlink" width="1254" height="1254" viewBox="0 0 1254 1254"><path fill="#FBFBFB" d="M0 0L1254 0L1254 1254L0 1254L0 0Z"/><path fill="#003B59" d="M407.524 234.148C408.235 234.045 408.255 234.027 409.176 234.011C432.81 233.598 456.66 233.812 480.29 233.837L612.927 233.858L692.282 233.844C720.75 233.841 748.336 230.137 770.466 251.685C780.567 261.52 790.465 271.453 800.392 281.466L860.77 342.525L913.049 395.227C956.022 438.462 954.706 435.979 954.627 496.833L954.61 559.739L954.615 759.227L954.629 873.433C954.635 891.984 955.372 914.55 953.612 932.738C952.471 944.531 943.438 962.76 935.05 971.487C918.473 988.734 901.875 995.236 878.466 996.14L545.338 996.152L447.866 996.181C434.506 996.184 407.377 996.91 395.021 995.266C381.811 993.473 369.333 988.14 358.907 979.833C343.008 967.282 332.883 948.818 330.849 928.665C329.84 918.927 330.312 901.261 330.293 890.788L330.311 819.925L330.261 604.848L330.279 406.507L330.254 345.647C330.25 335.818 329.842 318.669 330.862 309.334C332.689 292.57 339.336 276.694 349.996 263.628C364.725 245.806 384.735 236.245 407.524 234.148Z"/><path fill="#FBFBFB" d="M408.804 255.557C413.763 254.828 435.797 255.227 442.073 255.232L513.531 255.28L653.545 255.262C678.024 255.257 702.62 255.108 727.098 255.359C730.387 255.393 732.028 255.555 734.745 257.279C738.47 262.707 737.226 287.04 737.218 294.712L737.203 363.404C737.199 376.03 737.053 388.257 737.565 400.859C738.715 429.154 759.378 453.729 787.167 459.158C800.278 461.72 825.911 460.817 841.073 460.803L910.933 460.77C914.744 460.734 918.672 460.567 922.469 460.614C929.99 460.707 933.226 460.069 933.304 468.765C933.417 481.441 933.379 494.039 933.368 506.682L933.389 571.611L933.397 761.998L933.33 872.126L933.375 905.117C933.382 912.118 933.834 919.905 932.848 926.783C928.451 957.452 906.457 974.028 876.904 974.964L546.576 975.011L452.724 975.049C438.594 975.088 412.588 975.873 399.455 974.459C389.747 973.454 380.516 969.746 372.81 963.757C361.346 955.112 353.866 942.198 352.069 927.953C351.106 920.313 351.484 905.474 351.483 897.3L351.489 845.144L351.511 666.903L351.514 428.927L351.485 355.403C351.474 342.439 350.959 323.712 352.037 311.253C353.095 299.708 357.397 288.697 364.445 279.491C375.87 264.788 390.711 257.822 408.804 255.557Z"/><path fill="#003B59" d="M573.648 544.378C579.29 543.768 587.338 545.628 587.608 552.607C588.028 563.481 587.8 574.609 587.795 585.512L587.804 656.812L587.8 785.435C587.794 805.898 587.842 826.362 587.836 846.822C587.833 855.189 583.017 858.282 575.324 858.515C571.616 857.358 567.151 855.34 566.7 850.903C565.826 842.286 566.107 833.504 566.089 824.841L566.043 782.657L566.112 653.486L566.065 583.085C566.053 573.783 565.661 561.651 566.592 552.418C566.973 548.644 570.567 546.177 573.648 544.378Z"/><path fill="#003B59" d="M817.41 640.569C822.304 640.275 829.685 641.994 830.44 647.881C831.549 656.525 831.112 666.059 831.109 674.827L831.097 725.525L831.058 804.811C831.079 819.303 831.263 833.851 830.913 848.332C830.76 854.661 825.797 857.759 820.183 858.745C814.431 857.89 812.816 856.29 809.544 851.606C808.795 843.62 809.195 829.388 809.182 820.995C809.077 801.301 809.075 781.606 809.176 761.912L809.118 691.2C809.08 678.066 808.311 660.517 809.837 647.542C810.186 644.573 814.719 641.84 817.41 640.569Z"/><path fill="#003B59" d="M459.893 657.053C464.69 656.752 469.144 657.499 472.022 661.852C473.504 664.095 473.537 666.747 473.579 669.375C473.822 684.496 473.718 699.639 473.7 714.766L473.665 794.475C473.668 809.893 473.718 825.319 473.662 840.735C473.627 850.227 475.032 853.128 466.426 858.294C454.779 859.378 451.776 854.124 451.853 843.394C452.279 783.784 450.947 723.903 452.486 664.402C452.566 661.312 457.629 658.247 459.893 657.053Z"/><path fill="#003B59" d="M694.929 722.031C705.229 721.249 709.254 724.54 709.349 735.051C709.653 770.084 709.438 805.152 709.416 840.189C709.411 848.71 710.563 853.555 702.453 858.059C693.858 859.314 688.072 856.521 687.764 847.149C687.505 839.244 687.622 831.381 687.621 823.476L687.613 778.14C687.614 765.571 687.572 752.992 687.628 740.426C687.668 731.394 686.656 727.109 694.929 722.031Z"/><path fill="#FBFBFB" d="M759.429 271.726C764.334 274.638 783.172 294.568 788.095 299.633L820.645 332.608L892.001 404.536C900.85 413.481 909.764 422.341 918.641 431.25C920.741 433.357 923.98 436.306 922.624 439.182C899.382 440.593 871.222 438.851 847.447 439.396C830.63 438.32 812.309 441.042 795.688 438.923C751.716 433.317 758.68 388.533 758.491 359.67L758.482 310.415C758.458 298.328 757.995 283.484 759.429 271.726Z"/></svg>