<?xml version="1.0" encoding="utf-8" ?><svg xmlns="http://www.w3.org/2000/svg" xmlns:xlink="http://www.w3.org/1999/xlink" width="1254" height="1254" viewBox="0 0 1254 1254"><path fill="#F6F5F5" d="M0 0L33.2704 0L66.6559 0L100.202 0L133.516 0L167.062 0L200.555 0L300.919 0L401.149 0L434.598 0L467.805 0L501.146 0L534.691 0L568.23 0L601.661 0L635.949 0L702.224 0L735.524 0L769.034 0L802.393 0L1036.13 0L1069.69 0L1169.96 0L1203.32 0L1236.82 0L1254 0L1254 33.6368L1254 67.1557L1254 100.444L1254 133.861L1254 167.284L1254 200.618L1254 234.003L1254 267.372L1254 301.314L1254 334.303L1254 368.098L1254 401.207L1254 434.741L1254 468.25L1254 501.662L1254 534.94L1254 568.615L1254 601.829L1254 635.347L1254 668.61L1254 702.15L1254 735.391L1254 768.75L1254 802.443L1254 835.912L1254 869.436L1254 902.673L1254 936.178L1254 969.875L1254 1003.12L1254 1036.75L1254 1070.22L1254 1103.7L1254 1137.13L1254 1170.78L1254 1204.09L1254 1237.78L1254 1254L1236.94 1254L1203.48 1254L1170.08 1254L1136.67 1254L1102.79 1254L1069.64 1254L1036.13 1254L1002.75 1254L969.285 1254L935.671 1254L902.545 1254L869.266 1254L835.733 1254L802.461 1254L769.078 1254L735.524 1254L702.381 1254L668.532 1254L635.089 1254L601.712 1254L568.124 1254L534.536 1254L501.07 1254L467.775 1254L434.492 1254L401.119 1254L367.695 1254L334.35 1254L301.251 1254L267.507 1254L234.016 1254L200.681 1254L167.137 1254L133.575 1254L100.334 1254L66.6332 1254L33.2495 1254L0 1254L0 1237.88L0 1204.34L0 1170.69L0 1137.13L0 969.714L0 936.257L0 836.029L0 802.666L0 768.974L0 735.497L0 701.786L0 668.773L0 635.332L0 601.943L0 568.273L0 534.983L0 501.45L0 468.33L0 434.714L0 401.252L0 368.107L0 334.374L0 301.003L0 133.942L0 100.301L0 66.7642L0 33.4208L0 0Z"/><path fill="#FEFEFE" d="M66.823 134.04C77.4082 134.014 89.6555 133.678 100.138 134.062C100.655 144.343 100.251 156.814 100.199 167.311C109.883 167.306 124.196 167.768 133.494 167.214L133.438 200.761C144.636 200.852 155.834 200.883 167.032 200.856L167.052 234.201L200.621 234.183C200.713 245.318 200.698 256.454 200.575 267.589L234.051 267.601C234.017 278.662 234.101 289.945 233.9 300.987C222.83 301.116 211.759 301.131 200.69 301.031C200.669 312.046 200.803 323.481 200.516 334.462C211.212 334.45 223.446 334.742 234.008 334.39C233.924 345.563 233.897 356.737 233.928 367.911L200.601 367.947C200.634 374.026 201.164 395.971 200.451 400.796C194.244 401.773 174.494 401.191 167.178 401.105C167.203 390.549 167.531 378.428 167.188 368.002C156.816 367.664 143.978 367.98 133.566 368.072C133.153 378.434 133.538 390.601 133.518 401.177C123.547 401.683 110.507 401.269 100.374 401.108C100.091 390.375 100.336 378.886 100.256 368.04L66.7515 368C67.0642 357.275 66.7766 345.167 66.7692 334.334C56.9373 333.896 43.5871 334.298 33.3901 334.279C33.2757 323.197 33.2475 312.114 33.3055 301.031C22.2038 301.118 11.1015 301.109 0 301.003L0 133.942L33.304 134.116C33.4325 144.895 33.6965 156.566 33.1124 167.318C43.4917 167.31 56.6051 167.689 66.7508 167.228L66.823 134.04Z"/><path fill="#FEFEFE" d="M267.598 134.12L301.013 134.077C301.053 145.208 301.014 156.34 300.894 167.471L334.423 167.471L334.304 200.921C345.429 200.725 356.556 200.681 367.683 200.789L367.683 234.243L401.105 234.228L401.108 267.591L434.502 267.613C434.531 278.553 434.741 290.053 434.488 300.949C423.353 301.08 412.216 301.128 401.08 301.092C401.201 312.144 401.191 323.197 401.052 334.249C389.951 334.331 378.848 334.333 367.746 334.257L367.788 368.232C378.844 368.184 390.1 368.02 401.138 368.102C401.209 379.084 401.14 390.067 400.933 401.047C389.935 401.369 378.932 401.426 367.932 401.219C367.676 390.126 367.658 379.03 367.878 367.936L334.353 367.974C334.353 378.943 334.476 390.15 334.306 401.099C322.711 401.418 312.754 401.276 301.232 401.112C301.118 390.442 300.862 378.574 301.222 367.933L267.687 367.932C267.545 356.735 267.5 345.538 267.553 334.34C278.411 334.7 290.031 334.472 300.947 334.44C301.016 345.713 301.021 356.986 300.962 368.259C311.835 368.147 323.965 368.465 334.619 368.11C334.408 356.961 334.391 345.808 334.567 334.658C345.604 334.4 356.644 334.338 367.683 334.472L367.683 300.954C356.675 301.107 345.665 301.124 334.657 301.007C334.413 289.802 334.373 278.595 334.537 267.389L301.162 267.401L301.121 234.381C312.527 233.877 323.234 234.247 334.52 234.105L334.477 200.571C323.617 200.668 312.048 200.902 301.24 200.524C301.118 189.391 301.115 178.258 301.228 167.126L267.636 167.152C267.553 156.142 267.54 145.131 267.598 134.12Z"/><path fill="#FEFEFE" d="M802.393 0L1036.13 0C1035.98 11.244 1036.26 22.3895 1036.04 33.7364C1047.11 33.5239 1058.53 33.6222 1069.63 33.5758L1069.65 66.8714C1058.53 67.0127 1047.41 66.9682 1036.3 66.7381C1035.8 56.3461 1036.15 43.9878 1036.19 33.4511C1025.01 33.5518 1013.83 33.5422 1002.66 33.4223L1002.75 67.1798C991.777 66.799 980.359 66.8865 969.345 66.8254L969.318 33.4434C958.104 33.5293 946.89 33.5254 935.676 33.4317L935.704 66.8981C924.67 66.9486 913.636 66.9067 902.602 66.7724C902.488 55.6509 902.48 44.5286 902.58 33.4069C891.349 33.6057 880.116 33.5825 868.886 33.3373C868.98 44.5061 868.996 55.6754 868.934 66.8444L835.87 66.8265C835.397 55.7664 835.667 44.4844 835.799 33.3992C824.734 33.5418 813.669 33.5453 802.605 33.4099C802.16 22.5261 802.353 10.9408 802.393 0Z"/><path fill="#FEFEFE" d="M601.661 0L635.949 0L702.224 0L702.201 33.4206C695.298 33.4657 675.686 33.0641 669.566 33.9836C675.951 34.6927 694.571 34.3009 701.701 34.2891C701.708 36.4898 701.61 39.8093 701.781 41.9093L702.176 41.0451L702.055 43.0115C702.487 39.4418 702.425 37.3272 702.358 33.792C713.043 33.6152 725.114 33.8866 735.541 33.453C735.492 44.4961 735.637 56.0611 735.38 67.0535L702.203 67.0535L702.149 100.216C692.034 100.213 678.546 99.8389 668.676 100.371L668.729 67.1732C661.976 66.4111 643.092 66.8365 635.277 66.8186L635.043 33.4528C623.977 33.5732 612.775 33.4821 601.697 33.4815C601.031 24.3669 601.465 9.45259 601.661 0Z"/><path fill="#FEFEFE" d="M200.555 0L300.919 0C301.258 10.8519 301.034 22.4837 301.061 33.4213C289.861 33.6255 278.657 33.5987 267.457 33.3411L267.47 66.8613C256.391 67.0837 244.959 66.8845 233.853 66.8256C234.011 77.9643 234.058 89.1043 233.996 100.244C222.939 100.312 211.882 100.304 200.826 100.22C200.087 90.363 200.513 77.1554 200.612 67.0412L234.227 67.0412C233.792 56.246 234.049 44.3107 234.069 33.4307C222.916 33.5286 211.763 33.5237 200.61 33.416L200.572 66.8659C189.481 66.9089 178.39 66.8814 167.299 66.7837C166.986 56.1754 167.197 44.4771 167.164 33.7813C178.371 33.6049 189.581 33.5592 200.79 33.6441C200.248 22.7851 200.499 10.9394 200.555 0Z"/><path fill="#FEFEFE" d="M66.8641 401.559C78.3165 401.357 88.7531 401.256 100.233 401.598C100.249 412.526 100.451 424.099 100.041 434.969C111.175 434.746 122.312 434.712 133.447 434.866C133.503 445.976 133.501 457.086 133.442 468.196C122.44 468.248 111.155 468.123 100.193 468.289L100.181 501.382C89.1378 501.396 77.7445 501.263 66.7298 501.484L66.7939 468.179C56.2423 468.521 44.1477 468.237 33.4745 468.243C32.9984 457.672 33.2392 445.437 33.1975 434.742C44.3838 434.828 55.5704 434.843 66.7568 434.788C66.7763 423.744 66.7121 412.592 66.8641 401.559Z"/><path fill="#FEFEFE" d="M1254 835.912L1254 869.436L1254 902.673L1254 936.178L1254 969.875L1254 1003.12L1236.95 1003.12C1236.76 992.149 1236.9 980.848 1236.9 969.855C1228.18 969.247 1212.75 969.754 1203.52 969.752C1203.12 958.944 1203.36 947.324 1203.41 936.451C1214.58 936.548 1225.76 936.501 1236.93 936.311L1236.95 902.879C1225.78 902.997 1214.61 902.933 1203.45 902.688C1203.02 892.601 1203.43 880.03 1203.48 869.762C1214.26 869.304 1225.98 869.587 1236.89 869.508L1236.92 836.122C1242.37 835.851 1248.5 835.946 1254 835.912Z"/><path fill="#FEFEFE" d="M1203.32 0L1236.82 0L1254 0L1254 33.6368L1254 67.1557L1254 100.444L1254 133.861C1248.48 133.907 1242.59 133.665 1237.04 133.537C1236.67 122.915 1236.94 111.105 1236.97 100.398C1227.5 99.7786 1213.18 100.259 1203.35 100.279C1203.31 89.2608 1203.32 78.242 1203.39 67.2235C1213.71 66.7247 1226.38 67.0604 1236.93 66.9473L1236.92 33.6088C1231.51 32.974 1209.83 33.4637 1203.42 33.4513C1203.18 22.4949 1203.34 10.9982 1203.32 0Z"/><path fill="#FEFEFE" d="M1069.69 0L1169.96 0C1170.01 11.1193 1169.85 22.5588 1170.07 33.6238C1161.57 33.0244 1145.89 33.4965 1136.75 33.3362L1136.75 66.8155C1125.31 67.1208 1114.74 66.9875 1103.31 66.829C1102.74 56.0916 1103.01 44.258 1103.09 33.4209C1092.24 33.6785 1080.7 33.4815 1069.8 33.4791C1069.69 22.3198 1069.65 11.1598 1069.69 1.08767e-15L1069.69 0Z"/><path fill="#FEFEFE" d="M1203.52 1003.43C1214.77 1003.12 1225.56 1003.27 1236.8 1003.43C1236.94 1014.58 1236.94 1025.73 1236.82 1036.88C1242.5 1036.76 1248.31 1036.79 1254 1036.75L1254 1070.22L1254 1103.7L1254 1137.13L1237.06 1136.95C1236.7 1126.04 1236.89 1114.81 1236.95 1103.87C1230.45 1103.22 1211.18 1103.68 1203.53 1103.65C1203.01 1093.44 1203.31 1080.66 1203.26 1070.27C1212.48 1070.39 1227.76 1070.75 1236.92 1070.19C1237.29 1059.83 1236.92 1047.15 1236.91 1036.6C1225.79 1036.66 1214.67 1036.66 1203.56 1036.59C1202.97 1026.86 1203.41 1013.29 1203.52 1003.43Z"/><path fill="#FEFEFE" d="M1203.49 668.807L1236.89 668.747L1236.9 702.233L1254 702.15L1254 735.391L1254 768.75L1254 802.443C1248.34 802.521 1242.68 802.447 1237.03 802.222C1236.73 791.446 1236.93 779.858 1236.93 769.022C1227.52 768.459 1213.31 768.933 1203.54 768.945C1203.09 758.464 1203.41 746.139 1203.42 735.524C1214.58 735.459 1225.81 735.783 1236.95 735.419L1236.96 702.049C1227.7 701.415 1213.23 701.868 1203.58 701.865C1203 691.678 1203.37 679.072 1203.49 668.807Z"/><path fill="#FEFEFE" d="M1254 368.098L1254 401.207L1254 434.741L1254 468.25C1248.31 468.252 1242.63 468.284 1236.94 468.344C1237.06 457.26 1236.91 445.859 1236.86 434.762C1228.09 434.186 1212.92 434.665 1203.55 434.665C1203.4 423.564 1203.34 412.462 1203.38 401.36C1214.62 401.285 1225.85 401.293 1237.08 401.383C1236.74 390.532 1236.93 379.136 1236.95 368.241L1254 368.098Z"/><path fill="#FEFEFE" d="M735.524 0L769.034 0L769.195 33.5676C759.816 33.0366 745.514 33.4704 735.666 33.4542C735.233 22.7563 735.505 10.7903 735.524 0Z"/><path fill="#FEFEFE" d="M534.691 0L568.23 0C568.136 11.1802 568.128 22.361 568.208 33.5413C557.075 33.6275 545.941 33.5364 534.81 33.268C534.452 22.3491 534.589 10.9244 534.691 0Z"/><path fill="#FEFEFE" d="M66.6559 0L100.202 0C100.444 10.9099 100.222 22.4834 100.193 33.4415C89.0763 33.5567 77.9588 33.5306 66.843 33.3633L66.6559 0Z"/><path fill="#FEFEFE" d="M1236.91 334.336C1236.69 345.411 1236.82 356.825 1236.81 367.926C1225.76 368.065 1214.54 367.949 1203.48 367.935C1203.06 357.433 1203.42 345.137 1203.53 334.501C1214.43 334.504 1226.08 334.708 1236.91 334.336Z"/><path fill="#FEFEFE" d="M1203.36 267.64L1236.83 267.553L1236.9 301.198C1226.11 301.028 1214.18 301.364 1203.58 300.947C1203.36 289.846 1203.29 278.743 1203.36 267.64Z"/><path fill="#FEFEFE" d="M467.805 0L501.146 0C501.163 11.2504 501.371 22.1378 501.096 33.4111C490.056 33.5262 479.014 33.5303 467.974 33.4233C467.667 22.4939 467.823 10.9735 467.805 0Z"/><path fill="#FEFEFE" d="M133.516 0L167.062 0L167.04 33.2927C156.675 33.6866 143.993 33.7389 133.674 33.2349C133.211 23.0814 133.541 10.3529 133.516 0Z"/><path fill="#FEFEFE" d="M1203.44 1137.28L1236.86 1137.17L1236.88 1170.71L1203.53 1170.64C1203.3 1159.52 1203.27 1148.4 1203.44 1137.28Z"/><path fill="#FEFEFE" d="M401.149 0L434.598 0L434.556 33.3475C423.457 33.5746 412.355 33.5987 401.256 33.4196C401.103 22.2804 401.067 11.1399 401.149 0Z"/><path fill="#FEFEFE" d="M0 735.497C11.0425 735.495 22.2897 735.611 33.3128 735.483C33.3311 746.509 33.4948 757.907 33.151 768.897L0 768.974L0 735.497Z"/><path fill="#FEFEFE" d="M0 936.257C10.6206 936.311 22.7057 936.67 33.2003 936.391C33.3331 947.415 33.6193 958.715 33.1273 969.707C22.2528 969.713 10.8253 969.909 0 969.714L0 936.257Z"/><path fill="#FEFEFE" d="M0 334.374L33.1736 334.471C33.3636 345.616 33.3686 356.763 33.1886 367.908C22.2361 367.957 10.9214 367.859 0 368.107L0 334.374Z"/><path fill="#FEFEFE" d="M668.676 100.371C668.189 110.35 668.585 123.41 668.593 133.622C657.84 133.939 646.031 134.285 635.318 133.514C634.926 122.953 635.153 111.207 635.137 100.56C646.201 100.561 657.648 100.709 668.676 100.371Z"/><path fill="#FEFEFE" d="M167.101 167.224L200.621 167.318C200.653 178.324 200.838 189.713 200.373 200.677C189.51 200.664 177.989 200.852 167.182 200.6C167.235 189.475 167.207 178.349 167.101 167.224Z"/><path fill="#FEFEFE" d="M0 1137.13C11.1502 1137.04 22.2142 1137.45 33.3767 1137.36L33.1768 1170.64L0 1170.69L0 1137.13Z"/><path fill="#FEFEFE" d="M0 1204.34C10.767 1204.23 22.5532 1203.88 33.2267 1204.36C33.2206 1215.24 33.3917 1226.64 33.1703 1237.48L0 1237.88L0 1204.34Z"/><path fill="#FEFEFE" d="M66.7298 501.484C66.6335 512.618 66.6043 523.752 66.6421 534.887C57.2497 534.393 43.7335 534.978 33.5363 534.775C33.0387 523.844 33.4655 512.657 33.2172 501.631C44.3883 501.717 55.5599 501.668 66.7298 501.484Z"/><path fill="#FEFEFE" d="M568.208 33.5413L601.669 33.6501C601.736 44.7314 601.716 55.813 601.609 66.894C590.622 66.885 579.284 67.0179 568.329 66.717C568.223 55.6588 568.182 44.6 568.208 33.5413Z"/><path fill="#FEFEFE" d="M133.549 134.042L167.008 134.11L167.101 167.224C157.453 166.753 143.287 167.079 133.494 167.214L133.549 134.042Z"/><path fill="#FEFEFE" d="M0 66.7642C11.0192 66.8752 22.2246 67.0961 33.229 67.0412C33.4104 78.0973 33.3811 89.1558 33.1412 100.211L0 100.301L0 66.7642Z"/><path fill="#FEFEFE" d="M0 534.983C10.9391 535.042 22.3182 534.938 33.219 535.195C33.3388 545.782 33.7438 557.814 33.0992 568.265C22.0663 568.359 11.0329 568.362 2.17534e-15 568.273L0 534.983Z"/><path fill="#FEFEFE" d="M1170.08 1036.79L1203.34 1036.79L1203.26 1070.27L1170.21 1070.1L1170.08 1036.79Z"/><path fill="#FEFEFE" d="M0 601.943L33.2255 601.894C33.3136 612.963 33.2928 624.032 33.1631 635.1C22.1118 635.425 11.0547 635.502 0 635.332L0 601.943Z"/><path fill="#FEFEFE" d="M0 401.252C10.8403 401.257 22.4856 401.871 33.1728 401.296L33.1975 434.742L0 434.714L0 401.252Z"/><path fill="#FEFEFE" d="M1203.38 134.107C1214.41 134.098 1225.83 133.932 1236.83 134.113C1236.84 144.689 1236.56 156.743 1236.92 167.192C1225.76 167.028 1214.6 167.022 1203.45 167.176C1203.27 156.154 1203.25 145.13 1203.38 134.107Z"/><path fill="#FEFEFE" d="M0 0L33.2704 0L33.0999 33.3657C23.3673 33.398 9.24807 32.9012 0 33.4208L0 0Z"/><path fill="#FEFEFE" d="M66.7515 368C66.473 378.653 66.6967 390.302 66.6832 401.036C55.6148 401.476 44.4647 401.265 33.384 401.145C32.843 391.75 33.323 377.95 33.3546 368.227C44.4874 368.262 55.6203 368.187 66.7515 368Z"/><path fill="#FEFEFE" d="M769.195 33.5676C780.24 33.6568 791.286 33.6554 802.33 33.5635C802.205 44.7891 802.546 55.5347 802.181 66.8236C791.224 66.7974 780.181 67.0064 769.258 66.8993C769.142 55.7891 769.122 44.6781 769.195 33.5676Z"/><path fill="#FEFEFE" d="M0 802.666L33.2261 802.719C33.3171 813.75 33.271 824.782 33.0879 835.813C22.4338 835.892 10.5486 836.255 0 836.029L0 802.666Z"/><path fill="#FEFEFE" d="M234.168 301.301L267.495 301.295C267.415 312.31 267.435 323.325 267.553 334.34C258.074 333.835 243.806 334.339 234.008 334.39C234.045 323.691 233.83 311.907 234.168 301.301Z"/><path fill="#FEFEFE" d="M0 468.33L33.226 468.386L33.1654 501.421L0 501.45L0 468.33Z"/><path fill="#FEFEFE" d="M1170.07 33.6238C1181.16 33.5635 1192.25 33.5722 1203.34 33.65C1203.34 44.5913 1203.49 55.9551 1203.13 66.8565L1170.17 66.8587C1170.16 56.0472 1170.38 44.3634 1170.07 33.6238Z"/><path fill="#FEFEFE" d="M1236.94 468.344C1236.36 477.23 1236.86 492.133 1236.87 501.429L1203.52 501.388C1202.96 491.953 1203.37 478.24 1203.36 468.478L1236.94 468.344Z"/><path fill="#FEFEFE" d="M0 668.773L33.4304 668.796C33.0617 679.762 33.6906 691.097 33.1166 701.797C22.1919 702.191 10.9548 701.917 0 701.786L0 668.773Z"/><path fill="#FEFEFE" d="M1236.92 167.192C1242.61 167.309 1248.31 167.34 1254 167.284L1254 200.618C1247.9 200.698 1243.16 200.688 1237.02 200.292C1236.6 189.938 1236.91 177.686 1236.92 167.192Z"/><path fill="#FEFEFE" d="M1254 501.662L1254 534.94C1248.44 535.078 1242.55 534.934 1236.96 534.887C1236.85 523.855 1236.87 512.822 1237.04 501.791L1254 501.662Z"/><path fill="#FEFEFE" d="M1236.95 635.411L1254 635.347L1254 668.61L1237.12 668.653C1236.68 657.808 1236.91 646.312 1236.95 635.411Z"/><path fill="#FEFEFE" d="M1254 234.003L1254 267.372C1247.99 267.449 1243.02 267.4 1237.01 267.127C1236.88 256.192 1236.87 245.256 1236.97 234.322C1242.65 234.276 1248.33 234.17 1254 234.003Z"/><path fill="#FEFEFE" d="M1236.9 301.198C1242.6 301.272 1248.3 301.311 1254 301.314L1254 334.303C1248.3 334.283 1242.61 334.294 1236.91 334.336L1236.9 301.198Z"/><path fill="#FEFEFE" d="M1236.88 1170.71C1242.46 1170.74 1248.46 1170.89 1254 1170.78L1254 1204.09L1236.98 1204.09C1236.86 1192.96 1236.82 1181.84 1236.88 1170.71Z"/><path fill="#FEFEFE" d="M1254 568.615L1254 601.829L1237.03 601.714C1236.84 590.765 1236.82 579.813 1236.96 568.863L1254 568.615Z"/><path fill="#FEFEFE" d="M1102.92 1238.01C1114.11 1237.84 1125.58 1237.58 1136.74 1238.06C1136.74 1243.18 1136.88 1248.93 1136.67 1254L1102.79 1254L1102.92 1238.01Z"/><path fill="#FEFEFE" d="M1036.16 1237.97C1047.25 1237.82 1058.57 1237.54 1069.64 1238.04L1069.64 1254L1036.13 1254L1036.16 1237.97Z"/><path fill="#FEFEFE" d="M835.811 1238.01L869.185 1237.74L869.266 1254L835.733 1254L835.811 1238.01Z"/><path fill="#FEFEFE" d="M33.2524 1238.04C43.5739 1237.62 56.2903 1237.63 66.7049 1237.87L66.6332 1254L33.2495 1254L33.2524 1238.04Z"/><path fill="#FEFEFE" d="M167.101 1238.02L200.74 1237.85L200.681 1254L167.137 1254C167.159 1248.73 167.258 1243.27 167.101 1238.02Z"/><path fill="#FEFEFE" d="M234.028 1237.92C245.185 1237.8 256.342 1237.82 267.499 1237.98L267.507 1254L234.016 1254L234.028 1237.92Z"/><path fill="#FEFEFE" d="M367.885 1238.08C378.768 1237.52 390.167 1237.97 401.142 1238C401.138 1243.32 401.183 1248.69 401.119 1254L367.695 1254C367.716 1248.69 367.779 1243.38 367.885 1238.08Z"/><path fill="#FEFEFE" d="M635.056 1237.97L668.565 1237.92L668.532 1254L635.089 1254L635.056 1237.97Z"/><path fill="#FEFEFE" d="M969.291 1238.08C980.275 1237.91 991.836 1237.6 1002.78 1237.88L1002.75 1254L969.285 1254L969.291 1238.08Z"/><path fill="#FEFEFE" d="M501.378 1238.17C511.05 1237.67 524.821 1237.68 534.693 1238C534.66 1243.15 534.755 1248.91 534.536 1254L501.07 1254C501.246 1248.73 501.349 1243.45 501.378 1238.17Z"/><path fill="#FEFEFE" d="M568.245 1238.06C579.399 1237.84 590.557 1237.83 601.711 1238.01L601.712 1254L568.124 1254L568.245 1238.06Z"/><path fill="#FEFEFE" d="M1170.12 1238.08C1181.18 1237.74 1192.24 1237.73 1203.29 1238.05C1203.43 1243.37 1203.49 1248.68 1203.48 1254L1170.08 1254L1170.12 1238.08Z"/><path fill="#FEFEFE" d="M769.164 1238.08C780.202 1237.78 791.246 1237.75 802.285 1238.01L802.461 1254L769.078 1254L769.164 1238.08Z"/><path fill="#FEFEFE" d="M902.55 1237.98C913.589 1237.65 924.635 1237.68 935.671 1238.06L935.671 1254L902.545 1254L902.55 1237.98Z"/><path fill="#FEFEFE" d="M100.312 1237.98C111.143 1237.91 122.869 1237.63 133.628 1237.95L133.575 1254L100.334 1254L100.312 1237.98Z"/><path fill="#FEFEFE" d="M702.327 1238.09C713.395 1237.87 724.467 1237.81 735.537 1237.89L735.524 1254L702.381 1254L702.327 1238.09Z"/><path fill="#FEFEFE" d="M301.202 1238.11C312.251 1237.77 323.307 1237.75 334.356 1238.07L334.35 1254L301.251 1254L301.202 1238.11Z"/><path fill="#FEFEFE" d="M434.672 1237.94C445.601 1237.95 456.916 1238.19 467.784 1238.07L467.775 1254L434.492 1254L434.672 1237.94Z"/><path fill="#FEFEFE" d="M1236.94 1237.94C1242.39 1237.72 1248.5 1237.81 1254 1237.78L1254 1254L1236.94 1254C1236.79 1248.84 1236.93 1243.15 1236.94 1237.94Z"/><path fill="#FEFEFE" d="M902.574 568.677C913.4 568.853 924.773 568.629 935.651 568.625L935.594 602.004C946.813 602.048 958.033 602.001 969.252 601.865C969.08 612.947 969.05 624.03 969.163 635.113C958.008 635.461 946.845 635.501 935.688 635.231L935.654 668.624C930.919 668.63 924.622 668.459 920.036 668.959C925.014 669.25 930.003 669.347 934.989 669.249C934.993 679.763 934.792 691.126 935.261 701.564C936.179 697.302 935.735 674.746 935.777 668.779L969.173 668.789C969.184 679.694 969.351 691.02 969.111 701.892C958.236 701.956 946.579 702.244 935.767 702.04C935.619 713.128 935.612 724.217 935.745 735.305C924.651 735.521 913.554 735.546 902.459 735.381L902.431 769.063L935.658 769.034L935.589 802.805C946.815 802.647 958.042 802.603 969.268 802.675L969.256 835.648C960.131 836.593 945.315 836.124 935.611 836.108L935.611 869.782C947.055 869.28 958.091 869.915 969.173 869.546L969.233 903.047C958.65 902.565 946.315 902.852 935.604 902.849C935.625 913.886 935.53 925.126 935.687 936.143L902.448 936.188L902.426 970.014C913.507 969.911 924.589 969.901 935.67 969.983L935.664 1003.27L902.436 1003.27L902.466 1036.74C896.009 1036.06 876.575 1036.63 869.165 1036.65C869.024 1025.52 868.977 1014.39 869.025 1003.27L835.85 1003.27C835.609 992.095 835.583 980.92 835.772 969.746L802.478 969.741C802.254 980.867 802.51 991.888 802.194 1003C791.228 1003.28 780.257 1003.32 769.29 1003.12C769.224 992.098 769.222 981.08 769.283 970.063L802.445 969.852C802.247 958.724 802.364 947.29 802.348 936.137L768.971 936.187C769.165 947.347 769.204 958.508 769.087 969.669C757.928 969.819 746.768 969.843 735.609 969.742C735.213 959.154 735.517 946.891 735.525 936.179L702.224 936.186C702.153 947.412 702.169 958.638 702.273 969.864C694.743 969.259 676.694 969.754 668.697 969.835C668.53 980.888 668.486 991.942 668.567 1003C657.375 1003.13 646.183 1003.17 634.991 1003.12L635.08 1036.72C625.887 1036.17 611.531 1036.64 601.936 1036.64C601.14 1026.12 601.485 1013.98 601.799 1003.42C612.709 1003.13 624.355 1003.34 635.333 1003.34C634.914 992.496 635.144 980.62 635.147 969.7C624.019 969.68 612.89 969.726 601.762 969.839C601.241 979.662 601.806 992.615 601.538 1003C590.81 1003.34 579.057 1003.08 568.254 1003.04C568.32 991.993 568.281 980.947 568.137 969.902C558.767 969.283 544.703 969.736 534.987 969.748C534.263 979.461 534.61 992.964 534.612 1002.98C524.541 1003.37 511.377 1003.4 501.385 1003.08C501.187 992.135 501.315 981.014 501.155 970.013C510.146 969.907 525.625 970.508 533.625 969.535C524.714 968.872 510.762 969.284 501.478 969.278C501.264 958.974 502.124 947.604 502.09 936.826L533.93 936.826C533.935 946.638 533.625 958.802 534.175 968.421C535.12 961.917 534.668 943.62 534.671 936.159C523.586 936.298 512.271 936.167 501.168 936.154C501.112 925.054 501.116 913.954 501.179 902.854C490.039 902.911 478.898 902.91 467.757 902.849C467.576 913.743 467.76 925.177 467.688 936.152L434.74 936.182C434.405 924.868 434.515 914.382 434.699 903.091C444.764 902.872 458.082 902.627 467.96 903.124C467.805 891.853 467.758 880.581 467.817 869.309L434.683 869.477C434.267 879.799 434.635 892.2 434.486 902.775C423.399 902.953 412.311 902.925 401.226 902.691C400.952 891.669 401.488 880.562 401.067 869.458C389.991 869.347 378.914 869.33 367.838 869.405L367.784 902.843L401.141 902.839L401.163 936.267C390.017 936.154 378.871 936.121 367.725 936.168C367.775 947.288 367.988 958.867 367.686 969.948C378.83 969.92 389.974 969.949 401.117 970.034C401.139 980.722 401.416 992.503 401.114 1003.1C390.002 1003.27 378.888 1003.32 367.775 1003.27L367.788 1036.79L401.166 1036.8L401.092 1070.1L367.725 1070.16C367.746 1081.29 367.855 1092.55 367.739 1103.67L401.141 1103.67C401.165 1114.57 401.383 1126.11 401.119 1136.95C389.979 1137.06 378.839 1137.07 367.699 1136.96C367.781 1148.24 367.772 1159.52 367.674 1170.81L401.098 1170.77C401.121 1181.66 401.332 1193.19 401.051 1204.03C390.121 1204.06 378.785 1204.26 367.893 1203.88C367.707 1193.36 368.158 1180.74 367.754 1170.62C356.646 1170.69 345.538 1170.7 334.43 1170.65C334.454 1159.76 334.222 1147.79 334.543 1136.98C323.34 1137.13 312.135 1137.12 300.932 1136.96L301.039 1170.83L334.304 1170.76C334.372 1181.87 334.383 1192.98 334.338 1204.09L301.102 1204.06C301.16 1193.96 301.61 1180.41 300.824 1170.61L267.562 1170.72L267.618 1137.28C277.964 1137.24 289.538 1137.43 299.78 1136.96C295.007 1135.97 274.268 1136.41 268.189 1136.44C268.247 1114.17 267.443 1092.61 267.638 1070.36L301.261 1070.33C301.266 1065.66 300.465 1040.25 301.432 1037.38C302.338 1036.5 302.755 1035.88 304.18 1035.86C313.577 1035.75 323.297 1036.81 332.675 1035.88L333.669 1035.78C334.036 1031.85 333.943 1007.89 333.345 1004.13C330.088 1002.47 306.021 1003.11 301.164 1003.12L301.175 970.203C312.286 970.202 323.266 969.961 334.478 970.023C334.434 958.723 334.462 947.422 334.564 936.122L301.199 936.145L301.098 903.152C311.961 902.816 323.565 903.068 334.484 903.125L334.471 869.391C323.371 869.447 312.27 869.432 301.17 869.348L301.231 836.09C311.795 835.921 324.119 835.578 334.584 836.086C333.985 826.79 334.45 812.392 334.451 802.713L367.911 802.693C367.443 791.919 367.732 779.936 367.817 769.07C371.487 768.84 374.494 768.546 378.143 768.08C380.738 772.026 383.435 775.903 386.232 779.709C433.178 844.315 503.977 887.504 582.906 899.682C660.705 911.172 739.865 891.004 802.681 843.687C857.29 802.883 896.304 744.632 913.25 678.603C916.466 666.045 918.374 653.759 920.141 640.959C920.843 634.391 923.376 625.992 918.816 620.304C914.993 615.535 908.153 614.752 903.532 618.885C898.505 623.383 898.71 629.016 898.297 635.297C888.814 635.077 878.705 635.238 869.173 635.223L869.173 602.208C880.216 602.307 891.4 601.907 902.61 601.993C902.391 591.019 902.553 579.679 902.574 568.677Z"/><path fill="#013154" d="M378.143 768.08C335.229 703.594 319.191 624.9 333.444 548.762C348.537 470.67 394.089 401.796 460.044 357.343C524.698 314.029 603.931 298.223 680.257 313.412C756.238 328.887 823.073 373.653 866.302 438.026C874.696 450.679 882.191 463.906 888.732 477.609C891.671 464.103 893.897 450.374 897.452 437.056C897.835 435.624 900.354 433.626 901.556 432.672C907.306 428.103 919.087 432.873 918.389 440.608C917.405 451.52 913.953 463.495 912.063 474.367C909.367 487.643 906.788 501.009 903.576 514.094C902.994 516.464 900.962 521.615 898.723 522.648C895.009 524.361 892.083 524.957 888.141 523.373C874.297 517.807 860.804 511.365 847.134 505.312C837.992 501.109 828.541 497.483 819.585 492.904C817.508 491.842 817.082 490.526 815.902 488.765C811.481 482.162 819.718 470.641 826.945 472.792C841.509 477.125 856.016 485.094 870.338 490.882C837.265 422.671 783.304 370.459 710.973 345.45C643.07 321.804 568.507 326.483 504.093 358.432C439.009 390.334 389.258 446.776 365.778 515.349C342.249 583.651 346.813 658.502 378.467 723.44C392.376 751.71 410.892 777.469 433.256 799.662C435.398 794.669 434.452 775.751 434.455 768.919C445.038 768.912 457.348 768.612 467.772 769L467.846 802.738C478.793 802.642 490.145 802.393 501.058 802.641C501.179 813.733 501.215 824.827 501.165 835.92C497.232 836.056 493.165 836.032 489.326 836.779C491.417 836.956 499.853 836.531 500.065 836.615C500.501 840.145 500.29 843.365 500.192 846.914C498.539 847.008 497.439 845.979 495.334 845.86C500.449 849.367 509.19 853.415 514.95 855.989C543.509 868.899 574.091 876.76 605.336 879.222C680.127 885.494 749.378 859.633 806.173 811.699L813.052 805.424C861.319 758.956 890.535 702.156 898.297 635.297C898.71 629.016 898.505 623.383 903.532 618.885C908.153 614.752 914.993 615.535 918.816 620.304C923.376 625.992 920.843 634.391 920.141 640.959C918.374 653.759 916.466 666.045 913.25 678.603C896.304 744.632 857.29 802.883 802.681 843.687C739.865 891.004 660.705 911.172 582.906 899.682C503.977 887.504 433.178 844.315 386.232 779.709C383.435 775.903 380.738 772.026 378.143 768.08Z"/><path fill="#FEFEFE" d="M434.455 768.919C445.038 768.912 457.348 768.612 467.772 769L467.846 802.738C478.793 802.642 490.145 802.393 501.058 802.641C501.179 813.733 501.215 824.827 501.165 835.92C497.232 836.056 493.165 836.032 489.326 836.779C491.417 836.956 499.853 836.531 500.065 836.615C500.501 840.145 500.29 843.365 500.192 846.914C498.539 847.008 497.439 845.979 495.334 845.86C493.271 845.196 487.12 841.521 484.863 840.155C466.107 828.764 448.782 815.17 433.256 799.662C435.398 794.669 434.452 775.751 434.455 768.919Z"/><path fill="#013154" d="M617.514 431.055C666.556 429.344 707.737 467.638 709.588 516.675C711.44 565.712 673.264 607.002 624.232 608.994C575.002 610.993 533.508 572.629 531.649 523.393C529.79 474.157 568.273 432.774 617.514 431.055Z"/><path fill="#FEFEFE" d="M615.681 453.615C652.239 450.912 684.104 478.271 686.962 514.817C689.82 551.363 662.597 583.343 626.063 586.357C589.31 589.389 557.094 561.965 554.219 525.199C551.343 488.433 578.903 456.334 615.681 453.615Z"/><path fill="#013154" d="M694.248 640.771C743.11 665.054 765.369 699.271 763.637 754.34C763.163 769.412 749.659 773.561 741.691 761.972C740.155 759.738 740.979 749.219 740.806 746.397C743.296 687.081 693.759 655.836 639.658 649.138C583.916 642.481 505.926 667.607 501.036 733.102C500.265 743.436 504.834 772.04 487.41 768.247C484.18 767.557 481.38 765.561 479.675 762.732C474.882 754.951 479.251 722.15 481.702 713.393C503.697 634.813 600.115 613.676 669.85 631.859C675.171 633.602 680.162 635.239 685.388 637.264C686.785 637.805 693.132 640.474 694.248 640.771Z"/><path fill="#FEFEFE" d="M601.811 67.2804C612.886 67.0479 623.964 66.9681 635.042 67.0412C635.122 78.0997 635.113 89.1586 635.016 100.217L601.677 100.259C601.688 110.893 602.022 123.648 601.45 134.112L635.123 134.048C635.106 144.056 634.659 157.498 635.122 167.214C624.312 166.929 612.667 167.164 601.796 167.185C601.202 176.146 601.682 191.073 601.519 200.605C590.444 200.734 579.368 200.718 568.293 200.556C568.331 189.433 568.286 178.309 568.159 167.186C557.308 166.856 545.55 167.114 534.633 167.155L534.657 134.184L568.306 134.077L568.205 100.379C579.345 100.742 590.821 100.55 601.991 100.495C600.756 91.4008 601.923 76.8535 601.811 67.2804Z"/><path fill="#FEFEFE" d="M935.727 200.866C946.895 200.803 958.063 200.803 969.23 200.867L969.228 234.16C958.03 234.197 946.832 234.162 935.634 234.057C935.586 245.144 935.609 256.231 935.705 267.318C924.617 267.48 913.527 267.475 902.438 267.303L902.407 300.985C891.348 301.092 880.289 301.11 869.23 301.04C869.153 289.912 868.93 278.417 869.197 267.321L835.773 267.418C835.73 256.482 835.547 245.21 835.78 234.303C846.909 233.984 858.045 233.943 869.176 234.178C868.954 223.074 868.923 211.967 869.083 200.862L902.432 200.864C902.506 211.969 902.506 223.075 902.433 234.18C891.506 234.182 879.698 234.397 868.846 233.947C868.94 245.085 869.181 256.56 868.905 267.668L902.568 267.575C902.464 256.473 902.464 245.369 902.568 234.267C913.672 233.999 924.781 233.969 935.886 234.177C935.686 223.075 935.633 211.97 935.727 200.866Z"/><path fill="#FEFEFE" d="M1170.11 769.092L1203.37 769.081C1203.18 780.277 1203.65 790.892 1203.22 802.292C1192.74 802.768 1180.54 802.585 1170.02 802.377L1169.95 836.126C1181.15 835.922 1192.36 835.895 1203.56 836.044C1203.37 824.953 1203.33 813.86 1203.45 802.769C1214.58 802.689 1225.71 802.67 1236.85 802.712L1236.83 835.833C1225.67 835.982 1214.51 835.976 1203.36 835.814C1203.57 846.994 1203.55 858.178 1203.3 869.357C1192.26 869.46 1181.23 869.45 1170.2 869.328L1170.13 835.865L1136.88 835.881C1136.67 825.116 1136.89 813.632 1136.91 802.81C1148.01 802.707 1159.1 802.666 1170.2 802.685L1170.11 769.092Z"/><path fill="#FEFEFE" d="M100.334 568.82L133.456 568.642C133.46 579.292 133.17 591.391 133.504 601.915C124.76 601.29 109.458 601.755 100.212 601.73L100.198 635.211C89.0262 635.128 77.9718 635.387 66.6925 635.239L66.6225 668.839C77.6409 668.638 89.1405 668.795 100.198 668.784C100.275 679.804 100.235 690.825 100.078 701.844C89.3265 701.677 77.7394 701.96 66.8898 701.941C66.7619 690.848 66.7312 679.754 66.7976 668.66C55.7022 668.732 44.6062 668.68 33.5119 668.504C33.1138 657.657 33.2761 646.366 33.2962 635.478C44.4777 635.289 55.662 635.332 66.8417 635.606L66.7004 601.854C77.9307 601.937 89.1615 601.959 100.392 601.92L100.334 568.82Z"/><path fill="#FEFEFE" d="M167.254 970.015C174.147 969.982 194.074 969.493 199.837 970.372C189.149 970.508 178.46 970.552 167.771 970.503L167.771 1002.34C177.045 1002.35 190.407 1001.96 199.353 1002.59C192.755 1003.62 174.768 1003.05 167.087 1003C167.076 1014.15 166.861 1025.95 167.097 1037.04C177.233 1036.39 190.334 1036.76 200.687 1036.8C200.665 1047.59 200.873 1059.37 200.493 1070.08C189.536 1070.15 178.202 1070.36 167.279 1070.05C167.259 1058.97 167.126 1047.7 167.242 1036.64C156.092 1036.64 144.737 1036.76 133.605 1036.62C133.581 1047.23 133.214 1059.77 133.564 1070.21C123.004 1069.9 110.996 1070.17 100.348 1070.24L100.333 1037.06C110.958 1036.48 122.961 1036.76 133.701 1036.79C133.516 1025.66 133.478 1014.54 133.586 1003.42C144.877 1003.19 155.987 1003.33 167.268 1003.35L167.254 970.015Z"/><path fill="#FEFEFE" d="M1036.13 1103.91L1069.69 1103.71C1069.68 1107.43 1070.05 1135.28 1069.19 1136.92C1058.15 1137.19 1047.1 1137.19 1036.05 1136.92C1036.07 1148.01 1036.27 1159.6 1036.06 1170.65C1024.97 1170.67 1013.77 1170.76 1002.68 1170.64C1002.38 1180.79 1002.35 1193.71 1002.62 1203.91C991.529 1204.2 980.435 1204.2 969.346 1203.9C969.338 1194.3 969.79 1180.03 969.221 1170.81L1002.88 1170.79C1002.29 1161.13 1002.43 1147.12 1002.71 1137.33C1013.89 1137.04 1025.08 1137.01 1036.27 1137.22C1036.13 1126.12 1036.08 1115.01 1036.13 1103.91Z"/><path fill="#FEFEFE" d="M935.914 468.434L969.177 468.391L969.173 501.783C980.349 501.638 991.527 501.61 1002.7 501.699C1002.35 512.304 1002.53 524.041 1002.4 534.771C991.443 535.16 980.144 534.967 969.157 534.914C969.267 545.753 969.261 556.592 969.14 567.431C966.357 569.347 940.501 568.364 935.914 568.27L935.914 535.028L969.346 535.127L969.298 501.416L935.914 501.405L935.914 468.434Z"/><path fill="#FEFEFE" d="M902.502 100.403C913.088 100.894 924.989 100.577 935.679 100.509C935.675 111.222 935.372 123.366 935.677 133.949C924.613 133.637 913.356 134.094 902.409 133.752C902.442 144.72 902.274 156.311 902.516 167.222C891.31 167.084 880.103 167.061 868.897 167.154L868.917 200.605L835.796 200.737C835.697 189.564 835.696 178.389 835.793 167.215C844.967 167.786 859.491 167.321 869.077 167.331C868.941 156.301 869.021 145.148 869.016 134.109L902.571 134.096L902.502 100.403Z"/><path fill="#FEFEFE" d="M1147 1137.36C1154.58 1137.07 1162.36 1137.18 1169.96 1137.18L1170.01 1170.63L1136.79 1170.61C1136.56 1181.08 1136.51 1193.76 1136.83 1204.15C1133.65 1203.91 1128.15 1204.09 1124.8 1204.1C1117.56 1204.13 1110.32 1204.23 1103.08 1203.9C1102.85 1193.09 1103.05 1181.7 1103.08 1170.86C1114.4 1170.76 1125.73 1170.73 1137.05 1170.76C1136.58 1159.96 1136.84 1148.24 1136.89 1137.36L1147 1137.36Z"/><path fill="#FEFEFE" d="M668.713 735.69L702.225 735.69C702.245 746.039 702.592 758.517 702.089 768.699C690.931 768.986 679.768 769.069 668.607 768.947C668.592 780.048 668.692 791.346 668.54 802.428C657.455 802.58 646.369 802.574 635.285 802.412C635.204 792.219 635.568 778.894 635.072 769.016C646.076 769.042 657.854 768.84 668.794 769.129C668.587 757.984 668.56 746.836 668.713 735.69Z"/><path fill="#FEFEFE" d="M935.721 1003.31C946.891 1003.23 958.061 1003.25 969.23 1003.39C969.228 1014.34 969.03 1025.87 969.23 1036.77C960.021 1036.16 945.334 1036.61 935.71 1036.6L935.661 1070.07C924.632 1070.19 913.601 1070.18 902.572 1070.01L902.466 1036.74L935.993 1036.8C935.406 1026.28 935.705 1013.97 935.721 1003.31Z"/><path fill="#FEFEFE" d="M635.205 1103.94C646.333 1103.82 657.462 1103.79 668.59 1103.84C668.601 1107.94 669.154 1135.27 667.85 1136.87L667.616 1136.92C657.004 1137.1 645.57 1137.26 634.963 1136.92C635.124 1148.17 635.151 1159.42 635.044 1170.67L601.853 1170.66C601.053 1161.39 601.612 1146.88 601.748 1137.19C612.886 1137.24 624.185 1137.16 635.301 1137.31C635.102 1126.19 635.07 1115.06 635.205 1103.94Z"/><path fill="#FEFEFE" d="M902.502 1170.73C913.556 1170.82 924.611 1170.83 935.665 1170.75C935.659 1181.7 935.417 1193.55 935.705 1204.43C946.778 1204.16 957.854 1204.1 968.928 1204.26C969.283 1208.37 969.559 1234.85 968.831 1237.61C957.875 1237.77 946.917 1237.77 935.962 1237.62C935.483 1227.65 935.576 1214.17 935.864 1204.03C925.713 1204.25 912.678 1204.57 902.597 1203.93C902.519 1193.48 902.887 1180.92 902.502 1170.73Z"/><path fill="#FEFEFE" d="M501.193 568.863C511.932 568.759 523.916 568.91 534.537 568.519C534.739 579.631 534.725 590.745 534.494 601.856C525.217 601.204 511.062 601.897 501.165 601.725C501.225 612.845 501.146 623.965 500.929 635.083C490 635.31 479.067 635.356 468.135 635.222C467.865 624.125 467.761 613.024 467.821 601.924L501.43 601.976C501.09 590.942 501.011 579.901 501.193 568.863Z"/><path fill="#FEFEFE" d="M267.514 601.914C278.712 602.094 289.996 601.755 301.127 601.961C300.688 612.646 300.932 624.456 300.942 635.224C289.854 635.276 278.489 635.462 267.424 635.33C267.435 646.324 267.28 657.769 267.508 668.726C258.958 668.057 243.505 668.605 234.193 668.549C233.649 658.882 234.074 645.365 234.081 635.41L267.633 635.485C267.678 624.295 267.638 613.104 267.514 601.914Z"/><path fill="#FEFEFE" d="M1036.78 501.813C1047.73 501.582 1058.7 501.575 1069.66 501.791L1069.64 535.136C1080.72 535.065 1091.81 535.076 1102.89 535.168C1102.8 540.145 1103.61 565.722 1102.03 568.229C1091.29 568.531 1080.54 568.552 1069.8 568.292C1069.69 557.157 1069.7 546.022 1069.82 534.887C1058.65 535.046 1047.47 535.019 1036.3 534.805C1036.1 530.694 1035.57 504.522 1036.78 501.813Z"/><path fill="#FEFEFE" d="M200.699 401.372L234.004 401.483L233.924 434.653C222.792 434.767 211.658 434.761 200.526 434.635C200.62 445.466 200.942 457.488 200.433 468.221C189.416 468.232 178.195 468.36 167.197 468.231C167.217 457.439 167.487 445.475 167.084 434.774C178.249 434.778 189.582 434.674 200.731 434.816C200.294 424.664 200.456 411.639 200.699 401.372Z"/><path fill="#FEFEFE" d="M1036.18 234.233C1047.22 234.04 1058.27 234.043 1069.31 234.243C1070.23 239.692 1069.67 261.466 1069.6 267.563L1102.88 267.659L1102.93 301.072C1094.71 301.07 1077.19 300.523 1069.73 301.181C1069.7 290.049 1069.48 278.309 1069.74 267.225C1058.59 267.496 1047.44 267.502 1036.3 267.242C1035.96 256.417 1036.15 245.099 1036.18 234.233Z"/><path fill="#FEFEFE" d="M568.185 702.247L601.674 702.033C601.661 713.047 601.851 724.699 601.618 735.657C612.754 735.454 623.893 735.456 635.029 735.662L635.072 769.016C624.026 768.923 612.98 768.904 601.934 768.959C601.195 758.508 601.414 745.89 601.711 735.402L568.22 735.358C568.276 724.321 568.265 713.284 568.185 702.247Z"/><path fill="#FEFEFE" d="M451.737 501.784C456.67 501.5 462.667 501.696 467.685 501.733C467.784 512.883 467.803 524.034 467.742 535.184C473.194 535.029 498.509 536.031 501.164 534.277L501.308 531.111L501.907 530.909C502.071 532.077 502.174 533.125 502.281 534.3C504.747 535.027 511.708 534.321 515.56 534.673C515.02 535.198 503.013 535.011 501.166 535.019C501.264 545.523 501.19 556.029 500.945 566.532L500.756 567.445C498.652 569.172 472.552 568.321 467.975 568.234C467.763 557.101 467.733 545.966 467.883 534.832C456.808 535.02 445.73 535.021 434.654 534.834C434.348 524.137 434.585 512.551 434.606 501.79L451.737 501.784Z"/><path fill="#FEFEFE" d="M467.86 1170.72C467.445 1181.22 467.75 1193.74 467.769 1204.39C478.392 1204.22 490.483 1203.8 500.977 1204.44C501.555 1214.71 501.125 1227.17 500.903 1237.45C490.134 1237.72 479.195 1237.66 468.391 1237.81C467.206 1235.26 467.917 1208.88 467.978 1204.17C456.88 1204.25 445.782 1204.22 434.685 1204.08C434.572 1193.02 434.578 1181.96 434.701 1170.9C445.333 1170.56 457.156 1170.77 467.86 1170.72Z"/><path fill="#FEFEFE" d="M1002.72 267.615L1036.04 267.588C1036.13 278.817 1036.12 290.046 1036.01 301.275C1047.25 301.384 1058.49 301.352 1069.73 301.181C1069.59 312.247 1069.57 323.314 1069.66 334.381C1059.12 334.006 1047.09 334.294 1036.44 334.304C1035.79 324.28 1036.21 311.242 1036.26 300.996C1025.24 301.171 1013.94 301.004 1002.91 300.942C1002.22 290.58 1002.55 277.998 1002.72 267.615Z"/><path fill="#FEFEFE" d="M769.206 1036.88C779.866 1036.57 791.475 1036.8 802.206 1036.8L802.155 1070.37C813.364 1070.4 824.573 1070.33 835.78 1070.17C835.27 1079.76 835.704 1093.53 835.697 1103.44C824.672 1103.72 813.644 1103.78 802.617 1103.65C802.034 1093.3 802.37 1080.66 802.386 1070.15C791.381 1070.24 780.375 1070.22 769.37 1070.06C768.95 1059.22 769.165 1047.77 769.206 1036.88Z"/><path fill="#FEFEFE" d="M1069.73 368.039C1069.57 379.037 1069.53 390.037 1069.63 401.036C1058.65 401.46 1047 401.207 1035.97 401.138L1036.07 434.776C1026.55 434.248 1012.63 434.679 1002.79 434.646C1002.07 425.153 1002.56 411.368 1002.67 401.541C1013.92 401.526 1024.84 401.302 1036.19 401.386L1036.27 368.189C1047.42 368.241 1058.58 368.191 1069.73 368.039Z"/><path fill="#FEFEFE" d="M835.833 1170.78L869.039 1170.78C868.783 1181.64 868.907 1192.99 868.865 1203.88C858.304 1204.44 846.37 1204.19 835.697 1204.18C835.72 1214.97 835.972 1226.79 835.504 1237.5C824.574 1237.77 813.64 1237.82 802.709 1237.63C802.395 1226.56 802.299 1215.48 802.42 1204.4C813.567 1204.24 824.716 1204.18 835.864 1204.23C835.566 1193.08 835.555 1181.93 835.833 1170.78Z"/><path fill="#FEFEFE" d="M534.676 200.905C545.847 200.834 557.018 200.821 568.188 200.868L568.066 233.972C557.231 234.4 545.578 234.073 534.617 234.153L534.588 267.151C523.504 267.66 512.403 267.66 501.32 267.152C501.24 256.173 501.233 245.193 501.299 234.213L534.81 234.213C534.49 223.261 534.657 211.892 534.676 200.905Z"/><path fill="#FEFEFE" d="M501.141 1036.94L534.667 1036.94L534.55 1070.08C523.977 1070.42 511.647 1070.29 501.128 1070.05C501.256 1081.17 501.26 1092.29 501.14 1103.42C491.293 1104.07 478.049 1103.76 468.022 1103.49C467.709 1092.59 467.897 1081.3 467.941 1070.37C479.116 1070.3 490.292 1070.29 501.468 1070.36C500.936 1060.44 501.333 1047.23 501.141 1036.94Z"/><path fill="#FEFEFE" d="M735.525 134.127L769.03 134.11C769.118 145.146 769.13 156.182 769.067 167.218C759.654 166.653 745.274 167.156 735.538 167.203C735.589 178.363 735.532 189.523 735.368 200.682C724.758 200.699 712.788 200.971 702.307 200.328L702.3 167.207C713.369 167.328 724.439 167.36 735.508 167.305L735.525 134.127Z"/><path fill="#FEFEFE" d="M133.712 67.296C144.811 67.1529 155.911 67.0977 167.01 67.1304C167.021 78.195 166.949 89.3654 167.085 100.42C156.683 99.8864 144.013 100.218 133.446 100.223C133.525 111.363 133.522 122.504 133.435 133.644C122.963 134.038 109.882 133.296 100.375 133.856L100.316 100.889C104.153 99.9315 127.849 100.653 133.553 100.487C133.546 89.4229 133.599 78.3592 133.712 67.296Z"/><path fill="#FEFEFE" d="M234.034 568.746L267.422 568.739L267.514 601.914C257.105 601.404 244.492 601.768 233.923 601.807L233.938 634.939C223.555 635.671 211.307 635.456 200.772 635.368C200.091 625.681 200.59 612.01 200.7 602.017C211.421 601.668 223.466 601.969 234.283 602.003C233.796 591.793 234.075 579.143 234.034 568.746Z"/><path fill="#FEFEFE" d="M1069.79 134.11C1080.81 134.055 1091.83 134.06 1102.84 134.125C1102.85 145.053 1102.69 156.533 1103.1 167.409L1136.76 167.27L1136.58 200.51C1125.98 200.654 1113.8 201.001 1103.22 200.446C1103.18 191.225 1102.61 175.848 1103.18 167.132C1093.77 167.132 1078.67 166.631 1069.72 167.221C1069.66 156.184 1069.68 145.146 1069.79 134.11Z"/><path fill="#FEFEFE" d="M434.582 568.649C445.659 568.816 456.738 568.829 467.815 568.688C467.747 579.089 467.406 591.687 467.821 601.924C456.715 601.775 445.608 601.711 434.502 601.733C434.533 612.343 434.883 624.759 434.464 635.227C424.043 635.464 411.628 635.66 401.243 635.109L401.192 602.067C412.253 601.996 423.742 601.762 434.771 601.94C434.527 590.656 434.692 579.832 434.582 568.649Z"/><path fill="#FEFEFE" d="M802.623 602.338C812.543 601.475 825.518 601.991 835.777 601.907C835.258 611.495 835.695 625.164 835.698 635.065C825.733 635.71 812.485 635.426 802.402 635.211L802.204 668.209C791.952 668.986 779.668 668.659 769.367 668.575C769.389 657.812 769.635 646.121 769.04 635.45L802.633 635.392C802.123 625.055 802.443 612.722 802.623 602.338Z"/><path fill="#FEFEFE" d="M1170.12 334.308C1169.46 342.582 1170.01 359.337 1169.98 368.363C1180.72 367.92 1192.52 368.136 1203.34 368.124C1203.48 379.106 1203.43 390.09 1203.19 401.07C1192.2 401.295 1181.21 401.301 1170.22 401.09C1169.95 390.27 1170.16 378.848 1170.18 367.983L1136.99 367.953C1136.74 356.828 1136.72 345.698 1136.91 334.572C1147.03 334.044 1159.54 334.597 1170.12 334.308Z"/><path fill="#FEFEFE" d="M401.161 134.111L434.58 134.116C434.608 145.085 434.782 156.397 434.33 167.329C445.489 167.401 456.648 167.356 467.806 167.194C467.693 178.324 467.669 189.456 467.733 200.587C456.741 200.686 445.749 200.7 434.757 200.629C434.395 189.462 434.356 178.287 434.643 167.118L401.306 167.07C400.868 156.906 401.183 144.452 401.161 134.111Z"/><path fill="#FEFEFE" d="M200.704 134.098L233.912 134.059C233.947 144.714 233.718 156.753 234.245 167.297L267.444 167.349C267.386 178.503 267.407 189.657 267.508 200.811C256.544 200.492 244.831 201.032 234.194 200.599C234.008 189.442 233.959 178.283 234.047 167.125L200.746 167.108C200.389 156.108 200.375 145.099 200.704 134.098Z"/><path fill="#FEFEFE" d="M835.73 100.371C846.564 100.799 858.069 100.541 868.961 100.472L868.958 133.594C857.665 134.102 846.98 133.813 835.698 133.787C835.712 144.727 835.526 156.33 835.793 167.215C825.717 166.78 812.91 167.137 802.615 167.122C802.245 160.935 803.176 138.029 802.019 133.992C809.516 134.631 827.455 134.123 835.874 134.119C835.41 123.297 835.69 111.284 835.73 100.371Z"/><path fill="#FEFEFE" d="M1136.9 602.003L1169.05 601.926L1169.79 602.498C1170.48 610.812 1170.06 626.702 1170.01 635.48L1203.5 635.47C1203.33 646.524 1203.26 657.579 1203.28 668.634L1170.12 668.621L1170.12 635.185C1159 635.41 1147.87 635.433 1136.74 635.255L1136.9 602.003Z"/><path fill="#FEFEFE" d="M1069.68 601.88L1102.93 601.922L1102.81 634.991C1092.6 635.698 1080 635.465 1069.64 635.241C1069.68 646.344 1069.65 657.447 1069.56 668.55C1058.49 668.655 1047.41 668.639 1036.33 668.5L1036.33 635.472C1047.49 635.335 1058.64 635.307 1069.8 635.388C1069.78 625.217 1070.18 611.775 1069.68 601.88Z"/><path fill="#FEFEFE" d="M668.671 601.822C679.835 601.893 690.999 601.901 702.163 601.844C702.2 612.791 702.391 624.111 702.236 635.027C700.716 635.141 694.7 635.484 693.562 635.75L694.485 635.815C697.633 636.056 702.078 635.871 702.442 639.699C701.176 641.962 702.057 641.416 700.155 642.128L699.115 641.73C697.081 640.962 696.415 640.648 694.248 640.771C693.132 640.474 686.785 637.805 685.388 637.264C680.162 635.239 675.171 633.602 669.85 631.859C667.706 628.11 668.601 607.209 668.671 601.822Z"/><path fill="#FEFEFE" d="M702.346 1137.29C702.333 1127.02 702.029 1115 702.535 1104.86C703.441 1112.49 702.961 1128.17 702.926 1136.44C712.391 1136.43 724.478 1136.11 733.718 1136.77C723.479 1137.27 712.53 1137.03 702.222 1136.97L702.249 1170.79C692.414 1170.27 678.759 1170.7 668.673 1170.72L668.734 1137.31C679.938 1137.17 691.142 1137.16 702.346 1137.29Z"/><path fill="#FEFEFE" d="M568.234 1137.06L568.165 1170.8C559.845 1170.15 543.712 1170.65 534.797 1170.63C534.4 1159.84 534.656 1148.13 534.699 1137.27C545.815 1137.14 557.152 1137.46 568.234 1137.06Z"/><path fill="#FEFEFE" d="M935.755 267.661C946.922 267.532 958.09 267.506 969.258 267.584C969.278 278.728 969.232 289.871 969.12 301.014C958.031 301.141 946.942 301.135 935.853 300.994C935.433 290.511 935.744 278.272 935.755 267.661Z"/><path fill="#FEFEFE" d="M1103.13 769.1C1114.32 769.024 1125.51 769.039 1136.7 769.147C1136.67 779.675 1137.09 792.243 1136.56 802.504C1125.52 802.553 1114.47 802.518 1103.43 802.401C1102.67 792.636 1103.08 779.158 1103.13 769.1Z"/><path fill="#FEFEFE" d="M601.776 267.588L635.04 267.565L635.104 301.137L601.631 301.148C601.502 289.962 601.55 278.773 601.776 267.588Z"/><path fill="#FEFEFE" d="M167.183 1137.04C167.031 1146.9 166.67 1161.02 167.111 1170.77C157.9 1170.2 143.404 1170.67 133.782 1170.66C133.133 1160.76 133.534 1147.43 133.568 1137.29C144.773 1137.32 155.979 1137.24 167.183 1137.04Z"/><path fill="#FEFEFE" d="M735.583 1204.4C746.697 1204.22 757.813 1204.21 768.928 1204.36C769.265 1214.7 769.389 1227.48 769.046 1237.7C758.113 1237.35 746.812 1237.87 735.644 1237.55C735.463 1226.5 735.442 1215.45 735.583 1204.4Z"/><path fill="#FEFEFE" d="M668.735 200.901C679.815 200.712 691.142 200.793 702.243 200.753L702.213 234.063C691.1 234.225 679.854 234.158 668.73 234.18C668.329 223.634 668.671 211.558 668.735 200.901Z"/><path fill="#FEFEFE" d="M969.286 1137.09C969.208 1147.64 968.838 1160.38 969.221 1170.81C963.197 1170.13 943.594 1170.72 935.861 1170.43C935.348 1160.45 935.73 1147.42 935.735 1137.22C946.855 1137.2 958.192 1137.41 969.286 1137.09Z"/><path fill="#FEFEFE" d="M1036.07 434.776L1069.6 434.816L1069.71 468.338C1059.59 467.869 1046.59 468.262 1036.26 468.275C1036 457.313 1036.2 445.845 1036.07 434.776Z"/><path fill="#FEFEFE" d="M668.723 1204.35C679.37 1204.19 691.707 1203.8 702.196 1204.37L702.135 1237.68C691.01 1237.73 679.884 1237.72 668.759 1237.64C668.598 1226.54 668.586 1215.44 668.723 1204.35Z"/><path fill="#FEFEFE" d="M601.859 1204.39C613.112 1204.2 623.725 1204.05 634.993 1204.37C635.128 1209.11 635.823 1235.39 634.216 1237.59C623.43 1237.82 612.639 1237.79 601.855 1237.49C600.917 1229.02 601.626 1213.35 601.859 1204.39Z"/><path fill="#FEFEFE" d="M133.693 1204.37C144.802 1204.09 155.916 1204.06 167.026 1204.3C167.099 1215.37 167.088 1226.45 166.991 1237.53C155.968 1237.73 144.943 1237.76 133.92 1237.61C133.071 1228.96 133.602 1213.52 133.693 1204.37Z"/><path fill="#FEFEFE" d="M1103.03 635.457C1114.25 635.483 1125.48 635.453 1136.7 635.366C1136.83 646.383 1136.79 657.401 1136.59 668.417C1131.31 669.138 1109.65 668.651 1103.3 668.619C1102.46 660.405 1102.92 644.04 1103.03 635.457Z"/><path fill="#FEFEFE" d="M267.62 267.577L300.996 267.583L301.034 301.059C289.964 300.757 279.043 301.276 267.658 300.839C267.418 289.879 267.588 278.565 267.62 267.577Z"/><path fill="#FEFEFE" d="M534.724 1204.4C545.032 1204.12 557.909 1203.99 568.062 1204.46C568.314 1215.29 568.127 1226.75 568.125 1237.64C557.031 1237.75 545.935 1237.75 534.84 1237.63C534.588 1226.56 534.55 1215.48 534.724 1204.4Z"/><path fill="#FEFEFE" d="M133.504 601.915C142.343 601.938 158.93 602.492 167.143 601.904C166.559 610.931 167.037 625.64 167.052 635.044C157.104 635.753 143.715 635.433 133.639 635.242C133.391 624.408 133.59 612.827 133.504 601.915Z"/><path fill="#FEFEFE" d="M735.555 1070.39C746.535 1070.11 758.026 1070.31 769.045 1070.34C769.149 1081.41 769.148 1092.48 769.042 1103.54C757.97 1103.64 746.897 1103.64 735.824 1103.56C734.988 1096.18 735.521 1078.49 735.555 1070.39Z"/><path fill="#FEFEFE" d="M534.678 267.553L568.114 267.597L568.141 301.164C557.194 300.998 545.979 301.11 535.01 301.096C534.137 293.291 534.648 276.041 534.678 267.553Z"/><path fill="#FEFEFE" d="M735.626 535.257C746.564 534.94 758.038 535.082 769.018 535.059C769.165 544.077 769.742 559.378 768.851 568.254C757.836 568.464 746.819 568.469 735.804 568.269C735.08 558.457 735.51 545.138 735.626 535.257Z"/><path fill="#FEFEFE" d="M969.256 936.23L969.251 969.898C958.973 969.365 946.347 969.712 935.898 969.73C935.451 959.092 935.743 947.066 935.771 936.327C945.634 936.718 959.384 936.495 969.256 936.23Z"/><path fill="#FEFEFE" d="M902.529 1137.08C902.432 1148.3 902.423 1159.52 902.502 1170.73C891.754 1170.39 880.048 1170.63 869.23 1170.65C868.693 1160.85 868.844 1147.15 869.301 1137.28C880.377 1137.34 891.454 1137.27 902.529 1137.08Z"/><path fill="#FEFEFE" d="M167.103 769.021C176.858 769.069 191.29 769.532 200.727 768.97C200.129 777.495 200.638 793.072 200.574 802.282C190.921 802.722 176.821 802.733 167.269 802.226C167.098 791.153 167.361 780.159 167.103 769.021Z"/><path fill="#FEFEFE" d="M133.62 735.749C144.523 735.338 156.07 735.516 167.025 735.524C167.045 745.883 166.674 758.987 167.103 769.021C155.987 768.892 144.871 768.831 133.755 768.839C133.539 757.81 133.494 746.779 133.62 735.749Z"/><path fill="#FEFEFE" d="M668.663 1036.67C668.454 1046.55 668.229 1060.43 668.632 1070.25C659.161 1069.71 645.1 1070.17 635.278 1070.18L635.08 1036.72C644.909 1036.79 659.056 1037.24 668.663 1036.67Z"/><path fill="#FEFEFE" d="M935.756 1070.36L969.283 1070.23C968.975 1080.79 969.297 1092.73 969.172 1103.47C958.111 1103.63 946.842 1103.92 935.807 1103.44C935.334 1093.49 935.738 1080.53 935.756 1070.36Z"/><path fill="#FEFEFE" d="M1103.16 100.491C1114.36 100.581 1125.57 100.582 1136.77 100.493C1136.41 107.292 1137.51 128.264 1136.21 133.754C1125.23 133.982 1114.25 133.93 1103.27 133.597C1103.05 122.563 1103.01 111.526 1103.16 100.491Z"/><path fill="#FEFEFE" d="M467.892 1137.08C478.831 1137.39 490.29 1137.2 501.269 1137.19C501.249 1147.99 501.456 1159.86 500.924 1170.57L467.86 1170.72L467.892 1137.08Z"/><path fill="#FEFEFE" d="M1002.88 1070.35C1013.92 1070.22 1025.1 1070.32 1036.15 1070.34C1036.19 1079.63 1036.6 1094.38 1035.8 1103.43C1026.17 1104.11 1012.58 1103.65 1002.87 1103.54C1001.94 1095.01 1002.66 1079.46 1002.88 1070.35Z"/><path fill="#FEFEFE" d="M434.7 1137.09C434.181 1147.23 434.594 1160.14 434.467 1170.67C423.413 1170.77 412.357 1170.72 401.304 1170.51C400.968 1159.85 401.221 1148.04 401.223 1137.3C411.988 1136.81 423.666 1137.48 434.7 1137.09Z"/><path fill="#FEFEFE" d="M200.566 735.67C211.706 735.531 222.847 735.491 233.988 735.552L234.06 768.97C223.667 768.631 211.159 768.889 200.727 768.97C200.35 757.7 200.657 746.881 200.566 735.67Z"/><path fill="#FEFEFE" d="M133.982 401.593C145.086 401.194 155.951 401.293 167.052 401.356C167.043 412.445 166.931 423.7 167.084 434.774C155.969 434.634 144.854 434.597 133.74 434.663C133.637 430.112 133.061 404.39 133.982 401.593Z"/><path fill="#FEFEFE" d="M802.349 1137.31C813.261 1136.87 824.667 1137.44 835.778 1137.05C835.425 1147.68 835.673 1159.86 835.649 1170.61C824.641 1170.69 813.632 1170.7 802.623 1170.65C802.112 1159.98 802.351 1148.08 802.349 1137.31Z"/><path fill="#FEFEFE" d="M735.539 1137.22L768.939 1137.19C769.067 1148.37 769.135 1159.56 769.143 1170.74C758.15 1170.46 746.67 1170.64 735.64 1170.67C735.463 1159.52 735.429 1148.37 735.539 1137.22Z"/><path fill="#FEFEFE" d="M1069.74 1036.71C1069.16 1046.05 1069.61 1060.38 1069.59 1070.11C1058.69 1070.32 1047.24 1070.14 1036.29 1070.13C1036.06 1059.2 1036.18 1047.85 1036.15 1036.89C1047.06 1036.6 1058.73 1036.78 1069.74 1036.71Z"/><path fill="#FEFEFE" d="M66.7619 1070.37L100.348 1070.24C99.8368 1080.05 100.219 1093.46 100.194 1103.55C89.4126 1103.88 77.6192 1103.64 66.7634 1103.65L66.7619 1070.37Z"/><path fill="#FEFEFE" d="M200.707 936.279C209.112 937.058 225.081 936.507 234.064 936.374C234.013 947.461 234.018 958.549 234.079 969.637C223.3 970.019 211.651 969.8 200.807 969.79C199.921 961.307 200.525 945.019 200.707 936.279Z"/><path fill="#FEFEFE" d="M1002.81 1204.4C1013.89 1204.19 1024.97 1204.2 1036.05 1204.42C1036.1 1213.07 1036.61 1229.17 1035.83 1237.43C1025.07 1237.87 1013.78 1237.72 1002.96 1237.7C1002.24 1227.01 1002.53 1215.1 1002.81 1204.4Z"/><path fill="#FEFEFE" d="M935.802 735.627C946.393 735.229 958.552 735.506 969.261 735.497L969.146 768.904L935.885 768.915C935.467 758.293 935.733 746.34 935.802 735.627Z"/><path fill="#FEFEFE" d="M401.333 334.638C411.402 334.17 424.129 334.482 434.424 334.367C434.65 345.623 434.578 356.884 434.207 368.137C423.735 367.78 412.052 367.997 401.487 367.964C400.651 360.831 401.202 342.583 401.333 334.638Z"/><path fill="#FEFEFE" d="M167.21 702.303C178.349 702.107 189.49 702.099 200.629 702.28C200.694 713.311 200.673 724.343 200.568 735.374C189.425 735.489 178.282 735.491 167.139 735.382C167.104 724.356 167.127 713.329 167.21 702.303Z"/><path fill="#FEFEFE" d="M1002.71 200.866C1013.82 200.744 1024.93 200.743 1036.05 200.861C1036.14 211.944 1036.13 223.028 1036 234.112C1024.92 234.232 1013.84 234.224 1002.76 234.086C1002.49 223.155 1002.67 211.828 1002.71 200.866Z"/><path fill="#FEFEFE" d="M1069.75 1170.71C1069.17 1179.89 1069.63 1194.49 1069.61 1204.09C1058.62 1204.18 1047.5 1204.39 1036.52 1203.95C1035.78 1201.13 1036.17 1175.01 1036.19 1170.96L1069.75 1170.71Z"/><path fill="#FEFEFE" d="M1009.55 735.684C1012.42 735.211 1031.85 735.488 1036.01 735.486C1036.1 742.137 1036.74 762.859 1035.69 768.076C1034.27 768.929 1031.61 768.812 1029.81 768.887C1021.01 769.119 1011.71 768.855 1002.86 768.733C1002.58 764.256 1002.04 739.372 1003.31 736.558C1005.29 735.215 1007.07 735.611 1009.55 735.684Z"/><path fill="#FEFEFE" d="M1119.76 234.207C1123.31 233.854 1132.73 234.281 1136.72 234.354L1136.68 267.395L1119.14 267.476L1103.27 267.368C1102.94 256.794 1103.01 244.842 1103.11 234.241L1119.76 234.207Z"/><path fill="#FEFEFE" d="M568.194 1103.85C577.43 1103.72 593.494 1104.28 601.743 1103.58L601.748 1137.19C592.552 1136.67 577.627 1136.93 568.234 1137.06L568.194 1103.85Z"/><path fill="#FEFEFE" d="M267.631 535.191C278.61 534.949 290.003 535.091 301.013 535.083C301.111 546.136 301.087 557.189 300.942 568.242C289.829 568.456 278.713 568.486 267.599 568.331C267.548 557.284 267.558 546.237 267.631 535.191Z"/><path fill="#FEFEFE" d="M668.632 1070.25C679.854 1070.43 691.036 1070.21 702.243 1070.37L702.205 1103.46C691.806 1103.64 679.057 1104.02 668.71 1103.41C668.699 1093.17 669.066 1080.3 668.632 1070.25Z"/><path fill="#FEFEFE" d="M234.06 768.97L267.434 768.987C267.513 780.112 267.499 791.238 267.392 802.363C256.751 802.561 244.923 802.69 234.287 802.213C234.063 791.133 233.987 780.051 234.06 768.97Z"/><path fill="#FEFEFE" d="M1036.28 769.063L1069.59 769.015C1069.47 780.088 1069.82 791.063 1069.51 802.188C1059.33 802.884 1046.57 802.568 1036.31 802.26C1035.95 791.389 1036.19 779.979 1036.28 769.063Z"/><path fill="#FEFEFE" d="M267.51 735.455C278.69 735.567 289.871 735.581 301.052 735.496C301.01 746.288 301.356 758.285 301.014 768.905L267.681 768.902C267.59 758.155 267.858 746.025 267.51 735.455Z"/><path fill="#FEFEFE" d="M200.603 535.113C211.711 535.053 222.819 535.057 233.927 535.126C234.063 546.165 234.069 557.206 233.946 568.246C222.872 568.503 211.793 568.504 200.719 568.249C200.327 557.398 200.55 546.011 200.603 535.113Z"/><path fill="#FEFEFE" d="M1069.74 100.379C1069.17 110.009 1069.61 123.921 1069.62 133.874C1059.25 133.431 1047.39 133.88 1036.42 133.516C1035.82 122.997 1036.16 111.203 1036.22 100.569C1047.25 100.583 1058.75 100.756 1069.74 100.379Z"/><path fill="#FEFEFE" d="M668.673 1170.72C668.104 1180.07 668.564 1194.23 668.567 1203.95C657.725 1204.35 646.235 1204.16 635.383 1204C634.974 1193.05 635.193 1181.79 635.275 1170.81L668.673 1170.72Z"/><path fill="#FEFEFE" d="M66.8377 1137.28L100.23 1137.24L100.169 1170.66C90.0547 1170.66 76.5208 1170.26 66.7571 1170.73L66.8377 1137.28Z"/><path fill="#FEFEFE" d="M1103.1 1036.88C1114.27 1036.71 1125.61 1036.8 1136.79 1036.78C1136.35 1047.11 1136.65 1059.61 1136.63 1070.12C1127.03 1070.31 1112.48 1070.53 1103.11 1069.84L1103.1 1036.88Z"/><path fill="#FEFEFE" d="M534.692 1070.39C545.822 1070.31 556.952 1070.3 568.083 1070.37C568.215 1081.36 568.133 1092.49 568.142 1103.5C557.692 1103.19 545.561 1103.6 534.832 1103.54C534.432 1092.71 534.649 1081.27 534.692 1070.39Z"/><path fill="#FEFEFE" d="M200.776 1204.42C211.81 1204.15 222.849 1204.14 233.883 1204.38C234.022 1215.39 234.009 1226.41 233.844 1237.42C222.834 1237.66 211.82 1237.74 200.808 1237.67C200.085 1228.24 200.559 1214.03 200.776 1204.42Z"/><path fill="#FEFEFE" d="M167.143 668.682C166.649 678.161 167.042 691.919 166.995 701.85C156.046 701.706 144.732 701.973 133.64 701.869C133.388 691.029 133.55 679.581 133.469 668.684C143.472 668.837 157.237 669.119 167.143 668.682Z"/><path fill="#FEFEFE" d="M167.111 1170.77C176.487 1170.81 191.803 1171.31 200.759 1170.66C200.102 1178.15 200.683 1195.17 200.568 1203.85C189.239 1204.31 178.598 1204.07 167.271 1203.91L167.111 1170.77Z"/><path fill="#FEFEFE" d="M133.59 535.132L166.836 535.112C167.18 546.141 167.199 557.178 166.893 568.209C156.279 568.826 144.339 568.467 133.614 568.325C133.334 557.645 133.585 545.896 133.59 535.132Z"/><path fill="#FEFEFE" d="M572.69 234.117L601.76 234.093C601.639 239.86 602.576 264.115 600.797 267.106L598.987 267.412C588.758 267.484 578.528 267.445 568.299 267.296C568.281 258.912 567.577 242.899 568.392 235.228C569.593 233.86 570.187 234.315 572.69 234.117Z"/><path fill="#FEFEFE" d="M401.169 1070.29C412.151 1070.32 423.704 1070.52 434.64 1070.21C433.969 1079.37 434.766 1093.26 434.342 1103.45C424.462 1103.79 410.986 1103.98 401.3 1103.41C400.932 1092.93 401.193 1080.9 401.169 1070.29Z"/><path fill="#FEFEFE" d="M234.104 100.564L267.506 100.495C267.61 111.523 267.573 122.551 267.393 133.578C256.962 134.194 244.723 133.941 234.255 133.69C233.654 123.479 234.042 110.95 234.104 100.564Z"/><path fill="#FEFEFE" d="M969.324 769.095C980.361 768.991 991.4 768.99 1002.44 769.092C1002.66 780.243 1002.67 791.398 1002.47 802.549C991.427 802.579 980.384 802.516 969.343 802.362L969.324 769.095Z"/><path fill="#FEFEFE" d="M601.652 802.687C612.782 802.646 623.912 802.67 635.042 802.76C635.163 813.775 635.133 824.791 634.952 835.805C623.927 835.984 612.899 835.999 601.873 835.847C601.157 826.584 601.609 812.311 601.652 802.687Z"/><path fill="#FEFEFE" d="M668.739 802.773L702.24 802.674L702.242 835.815L668.769 835.94C668.594 824.885 668.584 813.829 668.739 802.773Z"/><path fill="#FEFEFE" d="M501.403 100.516C512.479 100.572 523.555 100.557 534.631 100.47C534.552 108.638 535.347 126.224 534.275 133.755C524.823 133.921 510.608 134.403 501.401 133.479C501.048 122.539 501.279 111.469 501.403 100.516Z"/><path fill="#FEFEFE" d="M401.163 936.267C412.269 936.82 423.382 936.319 434.526 936.662C434.645 947.6 434.61 958.54 434.419 969.477C426.446 970.519 410.097 969.551 401.432 969.792C400.794 959.282 401.151 946.953 401.163 936.267Z"/><path fill="#FEFEFE" d="M200.622 1070.35L233.985 1070.33C234.03 1075.51 234.698 1100.8 233.161 1103.44C222.697 1103.88 211.246 1103.71 200.79 1103.37C199.948 1094.66 200.51 1079.56 200.622 1070.35Z"/><path fill="#FEFEFE" d="M601.653 1070.32L635.032 1070.32C635.291 1080.58 635.293 1093.5 634.909 1103.65C623.864 1103.8 612.816 1103.73 601.774 1103.43C601.409 1092.58 601.613 1081.21 601.653 1070.32Z"/><path fill="#FEFEFE" d="M1052.4 702L1069.65 702.301L1069.64 735.332L1054.69 735.44C1048.52 735.469 1042.34 735.447 1036.16 735.374L1036.13 702.345C1041.48 702.327 1047.03 702.122 1052.4 702Z"/><path fill="#FEFEFE" d="M267.687 1204.41C278.723 1204.23 289.762 1204.21 300.798 1204.37C300.91 1215.45 300.951 1226.53 300.921 1237.61C289.855 1237.73 278.788 1237.72 267.721 1237.58C267.544 1226.53 267.532 1215.47 267.687 1204.41Z"/><path fill="#FEFEFE" d="M1002.79 535.188C1013.62 534.904 1025.13 535.109 1036 535.126C1036.08 543.812 1036.64 559.817 1035.83 568.244C1024.86 568.506 1013.89 568.49 1002.92 568.193C1002.44 556.907 1002.56 546.478 1002.79 535.188Z"/><path fill="#FEFEFE" d="M267.562 1170.72C266.917 1179.09 267.468 1195.07 267.49 1204.01C256.432 1204.17 245.372 1204.15 234.316 1203.95C233.62 1194.89 234.17 1180.19 234.213 1170.78L267.562 1170.72Z"/><path fill="#FEFEFE" d="M935.748 67.1946C946.903 67.0707 958.058 67.0337 969.214 67.0835C969.208 77.6213 968.874 89.9932 969.247 100.374C958.41 100.046 946.798 100.25 935.905 100.295C935.688 89.2632 935.636 78.2284 935.748 67.1946Z"/><path fill="#FEFEFE" d="M66.7571 1170.73C66.332 1180.93 66.6857 1193.64 66.6802 1204.03C55.6669 1204.27 44.6495 1204.22 33.6382 1203.91C33.0491 1193.89 33.3587 1181.16 33.3138 1170.91C44.3345 1170.66 55.7087 1170.77 66.7571 1170.73Z"/><path fill="#FEFEFE" d="M66.7319 100.354C66.354 110.74 66.6487 123.036 66.6549 133.59C55.6333 133.991 44.6009 134.002 33.5785 133.624C32.8256 124.195 33.2473 110.238 33.2858 100.504C43.3623 100.546 56.9879 101.013 66.7319 100.354Z"/><path fill="#FEFEFE" d="M200.673 1003.44C210.672 1002.89 223.787 1003.32 234.003 1003.44C234.189 1014.31 233.974 1025.76 233.943 1036.67L200.775 1036.6C200.316 1025.84 200.598 1014.27 200.673 1003.44Z"/><path fill="#FEFEFE" d="M803.69 1003.48C813.351 1003.05 827.091 1003.94 835.697 1003.22L835.726 1036.69C824.718 1036.5 813.648 1036.78 802.674 1036.55C802.446 1031.71 801.686 1006.42 803.334 1003.64L803.69 1003.48Z"/><path fill="#FEFEFE" d="M568.165 1170.8L601.669 1170.76C601.75 1181.84 601.717 1192.92 601.572 1204C590.48 1204.25 579.384 1204.25 568.293 1204.01C568.292 1193.21 568.51 1181.53 568.165 1170.8Z"/><path fill="#FEFEFE" d="M1006.79 869.779C1014.68 869.096 1027.74 869.524 1036.05 869.585C1036.02 876.501 1036.71 896.078 1035.69 901.977C1034.25 902.958 1032.06 902.717 1030.19 902.76C1021.04 902.974 1011.88 902.913 1002.72 902.577C1002.66 894.134 1002.04 878.439 1002.86 870.609C1004.41 869.391 1004.28 869.817 1006.79 869.779Z"/><path fill="#FEFEFE" d="M501.277 33.6146C512.383 33.5049 523.489 33.5137 534.595 33.6412C534.676 44.7012 534.65 55.7617 534.518 66.8213C523.475 66.9179 512.432 66.9174 501.389 66.82C501.078 55.7546 501.447 44.7075 501.277 33.6146Z"/><path fill="#FEFEFE" d="M1103.1 434.863C1114.27 434.719 1125.6 434.814 1136.78 434.813C1136.25 444.472 1136.71 458.142 1136.74 468.101L1103.11 468.101L1103.1 434.863Z"/><path fill="#FEFEFE" d="M1170.07 434.808L1203.36 434.782C1203.38 445.713 1203.63 457.374 1203.32 468.238L1170.12 468.319C1170.23 457.149 1170.22 445.978 1170.07 434.808Z"/><path fill="#FEFEFE" d="M534.705 67.1747L568.072 67.0129C568.111 77.9306 567.944 89.5219 568.205 100.379C557.193 100.102 545.78 100.274 534.736 100.3C534.6 89.2585 534.59 78.2161 534.705 67.1747Z"/><path fill="#FEFEFE" d="M601.751 200.881L635.01 200.817C635.154 211.892 635.144 222.968 634.983 234.042C624.027 234.313 612.711 234.154 601.726 234.135C601.145 224.594 601.616 210.593 601.751 200.881Z"/><path fill="#FEFEFE" d="M234.169 234.224C245.252 233.998 256.338 234.002 267.421 234.234C267.56 245.272 267.55 256.312 267.39 267.35L234.311 267.449C233.693 258.651 233.936 243.15 234.169 234.224Z"/><path fill="#FEFEFE" d="M1036.11 936.253C1035.81 947.042 1036.03 958.889 1036 969.765L1002.92 969.752C1002.02 961.655 1002.55 945.142 1002.62 936.382C1013.56 936.419 1025.23 936.651 1036.11 936.253Z"/><path fill="#FEFEFE" d="M523.208 1103.67C527.041 1103.5 530.865 1103.6 534.701 1103.66L534.579 1137.04L513.571 1137.08L501.412 1136.95C501.26 1126 501.336 1114.88 501.315 1103.92C508.612 1103.79 515.91 1103.71 523.208 1103.67Z"/><path fill="#FEFEFE" d="M1002.67 802.782C1013.82 802.653 1024.98 802.627 1036.13 802.702C1035.94 813.641 1036.03 824.849 1035.99 835.81C1024.92 835.984 1013.84 836.007 1002.77 835.878C1002.42 825.238 1002.67 813.502 1002.67 802.782Z"/><path fill="#FEFEFE" d="M401.212 535.209C411.779 534.822 423.883 535.109 434.564 535.112C434.628 546.138 434.599 557.164 434.476 568.19C425.37 568.822 410.674 568.395 401.297 568.203C400.977 557.599 401.216 545.897 401.212 535.209Z"/><path fill="#FEFEFE" d="M501.452 1170.96C512.383 1170.61 523.679 1170.77 534.642 1170.8C534.687 1181.46 534.955 1193.62 534.423 1204.19L501.325 1204.17C501.275 1193.1 501.317 1182.03 501.452 1170.96Z"/><path fill="#FEFEFE" d="M668.668 1003.31C679.843 1003.16 691.019 1003.2 702.192 1003.42L702.153 1036.51C690.99 1036.66 679.827 1036.71 668.663 1036.67L668.668 1003.31Z"/><path fill="#FEFEFE" d="M267.579 835.922C267.084 845.795 267.46 859.215 267.458 869.41L234.171 869.368C234.019 858.305 234.005 847.242 234.13 836.179C245.127 835.752 256.514 836.017 267.579 835.922Z"/><path fill="#FEFEFE" d="M1002.85 1003.43C1013.04 1002.94 1025.59 1003.35 1036.08 1003.3C1036.12 1014.42 1036.1 1025.54 1036.02 1036.66L1002.93 1036.6C1002.5 1025.55 1002.47 1014.48 1002.85 1003.43Z"/><path fill="#FEFEFE" d="M267.508 200.811L301.028 200.869C300.964 211.934 300.967 222.999 301.038 234.064C289.888 234.2 278.738 234.198 267.589 234.057C267.586 223.929 267.988 210.673 267.508 200.811Z"/><path fill="#FEFEFE" d="M1036.33 836.108L1069.68 836.108L1069.58 869.414L1036.3 869.417C1035.74 860.045 1036.29 845.756 1036.33 836.108Z"/><path fill="#FEFEFE" d="M1069.8 1137.2L1102.82 1137.21C1102.83 1147.94 1102.56 1159.99 1102.92 1170.61L1069.75 1170.71C1069.6 1159.54 1069.62 1148.37 1069.8 1137.2Z"/><path fill="#FEFEFE" d="M568.275 836.108L601.583 836.108L601.559 869.398C590.112 869.768 579.87 870.01 568.446 869.304C568.032 858.26 568.2 847.163 568.275 836.108Z"/><path fill="#FEFEFE" d="M1002.65 334.631L1036.09 334.631L1036.01 367.94L1002.96 367.947C1002.25 358.037 1002.64 344.789 1002.65 334.631Z"/><path fill="#FEFEFE" d="M1069.72 167.221C1069.29 177.5 1069.62 190.14 1069.6 200.604L1036.32 200.676C1035.79 190.255 1036.14 177.834 1036.18 167.267C1046.24 167.653 1059.58 167.371 1069.72 167.221Z"/><path fill="#FEFEFE" d="M668.696 134.016L701.979 134.094C702.762 143.839 702.027 157.072 702.3 167.207C692.877 166.732 678.257 167.041 668.713 167.233L668.696 134.016Z"/><path fill="#FEFEFE" d="M200.674 802.75C211.776 802.656 222.878 802.656 233.98 802.749C233.999 810.832 234.511 828.233 233.704 835.796C222.742 835.933 211.779 835.95 200.816 835.847C200.366 824.621 200.526 813.965 200.674 802.75Z"/><path fill="#FEFEFE" d="M234.133 702.232C244.785 702.184 257.015 701.83 267.525 702.319L267.51 735.455L234.239 735.367C233.926 725.891 233.724 711.763 234.133 702.232Z"/><path fill="#FEFEFE" d="M736.757 67.2907C746.868 67.1229 759.234 67.4047 769.047 66.9604C769.065 77.7025 768.798 89.7836 769.135 100.408C758.109 100.037 746.758 100.226 735.69 100.105C735.669 90.9063 735.197 76.7804 735.835 67.9716L736.757 67.2907Z"/><path fill="#FEFEFE" d="M467.875 100.4C467.418 110.638 467.79 123.442 467.802 133.873C457.217 133.611 445.777 133.898 434.971 133.738C434.074 129.73 434.589 106.2 434.658 100.522C445.558 100.561 457.027 100.776 467.875 100.4Z"/><path fill="#FEFEFE" d="M802.6 67.0659C813.619 66.9538 824.64 67.0044 835.658 67.2177L835.73 100.371C824.65 100.12 813.551 100.34 802.467 100.249C802.294 89.188 802.338 78.1249 802.6 67.0659Z"/><path fill="#FEFEFE" d="M1170.08 936.275C1169.82 946.325 1169.71 959.83 1170.05 969.902C1161.85 969.252 1145.7 969.753 1136.95 969.744C1136.57 958.813 1136.81 947.355 1136.89 936.377C1147.13 936.563 1159.99 936.728 1170.08 936.275Z"/><path fill="#FEFEFE" d="M66.7869 535.176L100.297 535.067L100.174 568.239C89.0652 568.484 77.9523 568.471 66.8442 568.198C66.5829 557.457 66.7863 545.973 66.7869 535.176Z"/><path fill="#FEFEFE" d="M1136.99 1003.4C1147.56 1003.05 1159.32 1003.29 1169.97 1003.29C1170.06 1014.38 1170.05 1025.48 1169.95 1036.58C1158.96 1036.67 1147.97 1036.69 1136.98 1036.63C1136.73 1025.55 1136.74 1014.47 1136.99 1003.4Z"/><path fill="#FEFEFE" d="M835.768 1103.94C846.763 1103.76 858.319 1104.04 869.139 1103.76L868.906 1136.98L835.778 1137.05C835.683 1126.01 835.68 1114.98 835.768 1103.94Z"/><path fill="#FEFEFE" d="M1103.13 301.309L1136.74 301.3C1136.42 311.769 1136.72 323.531 1136.63 334.184C1125.76 334.597 1114.11 334.323 1103.18 334.196C1103.07 323.234 1103.06 312.271 1103.13 301.309Z"/><path fill="#FEFEFE" d="M167.23 635.409C176.724 635.829 191.211 635.649 200.772 635.368C200.62 645.901 200.98 658.316 200.279 668.548L167.143 668.682C167.453 658.009 167.214 646.174 167.23 635.409Z"/><path fill="#FEFEFE" d="M133.564 1070.21C144.733 1070.36 155.902 1070.41 167.071 1070.36C167.1 1074.96 167.627 1101.1 166.608 1103.66L133.628 1103.66C133.555 1094.97 134.191 1077.74 133.564 1070.21Z"/><path fill="#FEFEFE" d="M200.554 200.893C211.679 200.798 222.804 200.791 233.929 200.869L233.946 234.007C223.173 234.403 211.481 234.186 200.699 234.029C200.298 223.055 200.687 211.92 200.554 200.893Z"/><path fill="#FEFEFE" d="M267.604 802.826C271.817 802.754 298.354 802.007 300.956 802.974C301.037 813.858 300.89 824.957 301.048 835.788C290.887 835.873 277.358 835.476 267.579 835.922L267.604 802.826Z"/><path fill="#FEFEFE" d="M868.984 1070.25L902.467 1070.32L902.434 1103.42C891.385 1103.82 880.326 1103.82 869.277 1103.44C868.92 1092.2 869.28 1081.23 868.984 1070.25Z"/><path fill="#FEFEFE" d="M200.69 1137.36L233.971 1137.36C233.971 1148.34 233.871 1159.48 234.018 1170.45C223.011 1171 211.307 1170.15 200.759 1170.66C200.386 1160.5 200.388 1147.61 200.69 1137.36Z"/><path fill="#FEFEFE" d="M301.106 702.065C312.1 702.563 323.344 701.905 334.52 702.18C334.248 713.093 334.338 724.34 334.295 735.28C323.25 735.476 312.202 735.499 301.156 735.352C300.946 724.403 301.109 713.049 301.106 702.065Z"/><path fill="#FEFEFE" d="M1170.07 167.205C1181.16 167.355 1192.25 167.38 1203.34 167.28C1203.36 178.36 1203.31 189.441 1203.19 200.521C1193.83 200.631 1179.36 201.149 1170.42 200.42C1169.73 190.77 1170.13 177.212 1170.07 167.205Z"/><path fill="#FEFEFE" d="M234.201 1036.8C243.942 1036.77 258.009 1036.33 267.406 1037.08L267.391 1070.06C256.309 1070.18 245.225 1070.18 234.143 1070.06C233.806 1060.18 233.886 1046.6 234.201 1036.8Z"/><path fill="#FEFEFE" d="M66.7854 67.2949C77.429 66.9398 90.2801 67.6378 100.192 67.0832C100.251 78.1347 100.25 89.1864 100.191 100.238C90.3209 100.25 76.2489 99.8104 66.7319 100.354L66.7854 67.2949Z"/><path fill="#FEFEFE" d="M869.03 67.2648C880.166 67.1205 891.302 67.0467 902.439 67.0434C902.445 77.4619 902.09 90.1845 902.502 100.403C891.698 100.002 879.956 100.265 869.071 100.258L869.03 67.2648Z"/><path fill="#FEFEFE" d="M1036.08 568.841C1047.05 568.774 1058.71 568.505 1069.62 568.757C1069.57 579.798 1069.59 590.839 1069.68 601.88C1058.58 601.76 1047.48 601.723 1036.38 601.768C1035.85 590.845 1036.26 579.789 1036.08 568.841Z"/><path fill="#FEFEFE" d="M401.546 67.1935C412.529 66.9835 423.515 66.9965 434.497 67.2324C434.571 78.229 434.541 89.226 434.406 100.222C423.35 100.306 412.294 100.315 401.238 100.248C401.189 92.8242 400.653 73.6629 401.546 67.1935Z"/><path fill="#FEFEFE" d="M869.173 535.122C879.775 534.778 891.718 535.058 902.42 535.07L902.433 568.176C891.348 568.456 880.259 568.509 869.173 568.335L869.173 535.122Z"/><path fill="#FEFEFE" d="M735.69 601.986C746.242 601.633 758.291 601.94 768.954 601.963L769.118 635.094C758.302 635.451 746.573 635.247 735.69 635.26L735.69 601.986Z"/><path fill="#FEFEFE" d="M399.691 100.727L400.569 100.746C401.604 102.825 401.098 129.138 401.079 133.529C390.721 133.995 380.348 134.065 369.985 133.738C369.582 133.68 368.781 133.347 368.359 133.193C367.052 129.79 367.765 105.963 367.824 100.73L399.691 100.727Z"/><path fill="#FEFEFE" d="M1082.4 1204.1C1089.19 1204.08 1095.98 1204.15 1102.76 1204.32L1102.86 1237.63L1092.5 1237.75L1069.84 1237.63C1069.59 1226.54 1069.58 1215.46 1069.8 1204.37L1082.4 1204.1Z"/><path fill="#FEFEFE" d="M401.196 1204.48C411.129 1203.97 424.609 1204.2 434.436 1204.4C434.518 1215.27 434.783 1226.76 434.378 1237.57L401.325 1237.69C401.004 1226.88 401.196 1215.34 401.196 1204.48Z"/><path fill="#FEFEFE" d="M869.06 1204.4C880.185 1204.18 891.313 1204.16 902.439 1204.33L902.42 1237.59L869.471 1237.61C868.664 1227.52 869.013 1214.72 869.06 1204.4Z"/><path fill="#FEFEFE" d="M467.867 1003.4C478.944 1003.27 490.021 1003.28 501.097 1003.43C501.268 1014.26 501.052 1025.6 501.004 1036.47C490.025 1036.66 479.044 1036.68 468.063 1036.56C467.781 1025.51 467.715 1014.46 467.867 1003.4Z"/><path fill="#FEFEFE" d="M1103.07 1103.95C1113.96 1103.58 1125.72 1103.84 1136.67 1103.95L1136.72 1136.96C1125.57 1137.05 1114.41 1137.04 1103.25 1136.93C1103.04 1125.94 1102.98 1114.94 1103.07 1103.95Z"/><path fill="#FEFEFE" d="M1012.36 66.9961C1020.23 66.9482 1028.11 66.9648 1035.99 67.0458L1036.05 100.222L1028.91 100.322L1002.88 100.276C1002.2 90.9915 1002.73 76.9153 1002.84 67.2785C1005.98 67.2596 1009.21 67.1059 1012.36 66.9961Z"/><path fill="#FEFEFE" d="M835.726 1036.69C846.789 1036.83 857.852 1036.9 868.916 1036.92C868.933 1047.89 868.777 1059.32 868.984 1070.25C858.739 1069.89 846.083 1070.06 835.78 1070.17L835.726 1036.69Z"/><path fill="#FEFEFE" d="M334.485 401.558L367.683 401.372L367.798 434.753C358.222 434.263 344.444 434.709 334.533 434.708C334.167 424.258 334.476 412.135 334.485 401.558Z"/><path fill="#FEFEFE" d="M267.508 668.726L301.145 668.8C300.702 679.273 300.925 690.838 300.922 701.394C296.518 702.707 273.333 701.851 267.628 701.87C267.59 691.751 267.957 678.482 267.508 668.726Z"/><path fill="#FEFEFE" d="M33.3767 1103.93C44.1734 1103.48 55.9282 1103.69 66.7204 1103.89L66.6386 1136.96C55.5748 1137.12 44.5091 1137.12 33.4454 1136.94C33.1049 1126.49 33.3856 1114.5 33.3767 1103.93Z"/><path fill="#FEFEFE" d="M1136.99 1204.39C1147.93 1204.19 1158.87 1204.15 1169.8 1204.27C1169.93 1215.43 1170 1226.6 1170.01 1237.77C1160.34 1237.29 1147.02 1237.62 1137.04 1237.55C1136.68 1226.67 1136.83 1215.27 1136.99 1204.39Z"/><path fill="#FEFEFE" d="M234.201 969.985C245.274 969.904 256.347 969.895 267.42 969.959L267.477 1003.04C256.415 1003.16 245.352 1003.21 234.29 1003.21C233.976 992.138 233.946 981.059 234.201 969.985Z"/><path fill="#FEFEFE" d="M969.251 969.898C980.334 969.977 991.418 969.971 1002.5 969.879C1002.7 980.897 1002.7 991.918 1002.51 1002.94C991.446 1003.15 980.385 1003.23 969.325 1003.18C969.317 992.564 969.613 980.375 969.251 969.898Z"/><path fill="#FEFEFE" d="M1069.66 334.381C1080.61 334.623 1091.88 334.453 1102.85 334.416L1102.85 367.934C1092.9 367.934 1079.39 367.542 1069.73 368.039C1070 357.277 1069.69 345.246 1069.66 334.381Z"/><path fill="#FEFEFE" d="M1137.35 401.435C1148.22 401.318 1159.08 401.295 1169.95 401.366C1169.98 412.277 1169.79 423.967 1170.07 434.808C1159.08 434.648 1148.08 434.6 1137.09 434.663C1136.99 430.082 1136.25 404.778 1137.35 401.435Z"/><path fill="#FEFEFE" d="M167.169 568.848C175.528 568.767 193.476 569.291 200.679 568.602C200.66 579.308 200.869 591.116 200.53 601.76C193.076 601.761 173.641 601.226 167.143 601.904C167.231 590.885 167.24 579.867 167.169 568.848Z"/><path fill="#FEFEFE" d="M802.558 267.666C813.245 267.651 825.187 267.886 835.773 267.418L835.558 301.023L802.66 301.091C802.256 289.854 802.43 278.897 802.558 267.666Z"/><path fill="#FEFEFE" d="M167.085 100.42C177.983 100.802 189.541 100.58 200.494 100.539C200.604 110.284 201.114 124.409 200.429 133.847L167.313 133.759C167.002 122.646 167.47 111.319 167.085 100.42Z"/><path fill="#FEFEFE" d="M301.192 100.419C311.733 100.906 323.697 100.574 334.347 100.503C334.352 111.454 334.469 122.602 334.323 133.535C323.284 133.923 312.237 134.059 301.191 133.945C301.211 122.981 301.437 111.327 301.192 100.419Z"/><path fill="#FEFEFE" d="M935.677 133.949C946.844 134.114 958.013 134.148 969.181 134.052C969.186 144.98 969.333 156.222 969.164 167.122L935.891 167.125C935.548 156.051 936.02 144.811 935.677 133.949Z"/><path fill="#FEFEFE" d="M769.067 167.218C779.945 167.342 791.472 167.092 802.21 167.43C802.255 178.31 802.557 189.803 802.341 200.608C791.435 200.635 780.213 200.8 769.334 200.575C769.194 189.711 769.391 177.976 769.067 167.218Z"/><path fill="#FEFEFE" d="M434.7 1036.99C445.528 1036.56 456.92 1036.76 467.798 1036.79L467.779 1070.08C459.126 1070.11 442.452 1069.61 434.64 1070.21C434.538 1059.14 434.558 1048.06 434.7 1036.99Z"/><path fill="#FEFEFE" d="M969.23 1036.77L1002.76 1036.78C1002.37 1047.63 1002.53 1059.12 1002.51 1070.01C991.847 1070.11 979.75 1069.86 969.283 1070.23C969.336 1059.08 969.319 1047.92 969.23 1036.77Z"/><path fill="#FEFEFE" d="M1203.39 535.208C1214.35 534.965 1225.82 535.156 1236.82 535.178C1236.9 546.219 1236.89 557.262 1236.78 568.303L1203.45 568.289C1203.11 557.752 1203.39 545.849 1203.39 535.208Z"/><path fill="#FEFEFE" d="M1036.21 970.067C1047.33 969.96 1058.44 969.934 1069.56 969.989L1069.62 1002.98C1058.93 1003.38 1047.22 1003.13 1036.45 1003.12C1035.75 993.634 1036.17 979.883 1036.21 970.067Z"/><path fill="#FEFEFE" d="M969.233 903.047C979.744 903.063 992.289 902.627 1002.55 903.034C1002.62 913.484 1002.91 925.795 1002.44 936.14C991.874 936.157 979.678 935.865 969.256 936.23C969.347 925.169 969.339 914.108 969.233 903.047Z"/><path fill="#FEFEFE" d="M902.516 167.222C913.562 167.34 924.609 167.358 935.656 167.275C935.683 178.352 935.649 189.429 935.554 200.506C924.568 200.724 913.578 200.747 902.591 200.573L902.516 167.222Z"/><path fill="#FEFEFE" d="M467.909 67.2697C479.088 67.1122 490.017 66.8319 501.197 67.3336C501.148 78.1114 501.284 89.4977 500.976 100.228C491.812 100.274 476.496 99.8021 467.875 100.4C467.83 89.3567 467.841 78.3131 467.909 67.2697Z"/><path fill="#FEFEFE" d="M1103.05 568.795L1136.7 568.806C1136.53 579.768 1136.73 590.78 1136.59 601.792L1103.28 601.805C1102.9 590.806 1102.82 579.798 1103.05 568.795Z"/><path fill="#FEFEFE" d="M1170.05 100.391C1180.42 100.861 1192.68 100.596 1203.18 100.458C1203.37 111.662 1203.55 122.328 1203.24 133.545C1192.41 133.742 1180.97 134.141 1170.2 133.671C1170.16 123.034 1170.42 110.894 1170.05 100.391Z"/><path fill="#FEFEFE" d="M635.385 702.266C646.432 702.154 657.479 702.151 668.526 702.258L668.59 735.346C657.488 735.421 646.385 735.409 635.283 735.308C635.062 724.675 634.95 712.845 635.385 702.266Z"/><path fill="#FEFEFE" d="M268.024 67.3013L300.964 67.0773C300.991 77.3189 300.647 90.4061 301.192 100.419C290.548 99.9291 278.501 100.311 267.718 100.264C267.65 96.3233 266.958 70.0461 268.024 67.3013Z"/><path fill="#FEFEFE" d="M668.713 167.233C668.132 176.488 668.555 191.05 668.498 200.662L635.292 200.635C634.93 189.813 635.107 178.103 635.122 167.214C645.174 167.378 658.673 167.653 668.713 167.233Z"/><path fill="#FEFEFE" d="M1172.86 501.765L1203.34 501.539C1203.36 507.192 1204.21 530.924 1202.58 534.655L1200.88 534.891C1190.66 535.047 1180.43 535.036 1170.2 534.858C1170.15 529.721 1169.39 505.266 1170.89 502.208L1172.86 501.765Z"/><path fill="#FEFEFE" d="M969.311 702.344C980.4 702.058 991.494 702.024 1002.58 702.24C1002.27 713.162 1002.9 724.145 1002.43 735.283C991.385 735.486 980.334 735.524 969.283 735.396L969.311 702.344Z"/><path fill="#FEFEFE" d="M434.659 33.6378C445.681 33.58 456.704 33.5914 467.726 33.672C467.603 43.8188 468.326 56.9678 467.583 66.857C456.734 66.696 445.619 66.8054 434.748 66.7893C434.271 55.617 434.484 44.7998 434.659 33.6378Z"/><path fill="#FEFEFE" d="M768.834 767.356L769.427 768.51C772.563 769.473 797.122 769.01 802.301 768.978C802.185 774.424 803.307 799.139 801.591 802.16L799.823 802.419L769.367 802.419C769.346 798.183 769.672 770.782 768.401 769.174C767.161 769.014 765.921 768.864 764.678 768.724C767.276 768.348 767.177 768.785 768.834 767.356Z"/><path fill="#FEFEFE" d="M1136.8 200.871L1170.04 200.867L1169.95 234.028C1159.89 234.333 1146.89 234.386 1136.94 233.971C1136.42 223.915 1136.82 211.202 1136.8 200.871Z"/><path fill="#FEFEFE" d="M969.313 1103.83C980.411 1103.64 991.511 1103.64 1002.61 1103.85C1002.46 1114.89 1002.69 1125.92 1002.48 1136.94C993.723 1137.03 977.078 1136.47 969.286 1137.09L969.313 1103.83Z"/><path fill="#FEFEFE" d="M200.65 668.807L233.911 668.783C233.969 678.787 234.417 692.132 233.767 701.864L200.834 701.925C200.109 691.356 200.49 679.51 200.65 668.807Z"/><path fill="#FEFEFE" d="M33.2507 568.779L66.6772 568.783L66.7004 601.854C55.6171 601.767 44.5334 601.749 33.4499 601.8C33.2707 590.794 33.2043 579.786 33.2507 568.779Z"/><path fill="#FEFEFE" d="M100.414 635.492C111.449 635.241 122.489 635.238 133.524 635.483L133.469 668.684C122.797 668.251 111.182 668.715 100.391 668.608C100.364 657.741 100.158 646.316 100.414 635.492Z"/><path fill="#FEFEFE" d="M243.853 501.784C250.201 501.312 260.826 501.64 267.497 501.65C267.302 512.52 267.451 523.911 267.413 534.828L256.717 535.02L234.318 534.808C233.8 525.087 233.832 511.606 234.337 501.903L243.853 501.784Z"/><path fill="#FEFEFE" d="M568.246 1036.94L601.583 1036.94L601.553 1070L568.327 1070.13C567.877 1059.96 568.246 1047.31 568.246 1036.94Z"/><path fill="#FEFEFE" d="M702.249 1170.79L735.553 1170.76C735.544 1181.49 735.804 1193.55 735.39 1204.17C724.415 1204.11 713.293 1203.96 702.331 1204.04C702.328 1193.16 702.522 1181.62 702.249 1170.79Z"/><path fill="#FEFEFE" d="M1138 67.2811C1148.67 67.0158 1159.34 66.9306 1170.01 67.0253C1170.01 77.1977 1169.59 90.4814 1170.05 100.391C1159.09 100.019 1147.77 100.368 1136.77 100.269C1136.78 95.8879 1136.45 69.5609 1137.52 67.4951L1138 67.2811Z"/><path fill="#FEFEFE" d="M1069.8 200.916C1080.84 200.839 1091.89 200.829 1102.93 200.887C1102.81 211.907 1102.8 222.928 1102.88 233.948C1091.96 234.341 1080.74 234.133 1069.79 234.058C1069.7 223.011 1069.7 211.963 1069.8 200.916Z"/><path fill="#FEFEFE" d="M1103.03 368.225L1136.69 368.247C1136.6 379.172 1136.58 390.097 1136.62 401.022C1126.6 401.352 1113 401.603 1103.21 401.081C1103.26 390.101 1102.87 379.3 1103.03 368.225Z"/><path fill="#FEFEFE" d="M1137 535.11C1147.98 535.083 1158.96 535.112 1169.94 535.197C1170.12 546.223 1170.1 557.252 1169.86 568.277C1158.99 568.655 1147.81 567.991 1136.94 568.594C1136.79 557.433 1136.81 546.271 1137 535.11Z"/><path fill="#FEFEFE" d="M835.775 635.442L868.913 635.433L868.987 668.324C858.095 668.615 846.442 668.305 835.792 668.719C835.697 657.627 835.691 646.534 835.775 635.442Z"/><path fill="#FEFEFE" d="M200.696 468.525C211.767 468.387 222.84 468.354 233.912 468.426C233.99 478.006 234.613 492.273 233.702 501.44L200.892 501.431C199.994 492.384 200.553 478.032 200.696 468.525Z"/><path fill="#FEFEFE" d="M1170.15 702.25C1181.24 702.31 1192.21 701.931 1203.34 702.213L1203.37 735.367C1192.32 735.525 1181.27 735.51 1170.22 735.321C1169.93 724.636 1170.16 713.008 1170.15 702.25Z"/><path fill="#FEFEFE" d="M769.135 100.408C779.595 100.918 791.624 100.581 802.205 100.518C802.267 110.274 802.801 124.559 802.019 133.992C797.257 133.402 775.454 133.93 769.22 133.82C769.029 122.708 769.392 111.674 769.135 100.408Z"/><path fill="#FEFEFE" d="M769.143 1170.74C780.181 1170.83 791.22 1170.85 802.259 1170.79C802.262 1175.4 802.672 1200.97 801.799 1203.93C791.52 1204.19 779.51 1204.48 769.266 1204.07C769.242 1194.75 769.726 1179.67 769.143 1170.74Z"/><path fill="#FEFEFE" d="M434.651 234.363C445.27 233.986 457.066 234.222 467.771 234.213C467.901 245.232 467.861 256.252 467.651 267.27C457.905 267.827 444.762 267.427 434.769 267.417C434.422 256.536 434.609 245.277 434.651 234.363Z"/><path fill="#FEFEFE" d="M33.285 970.001L66.6987 969.975C66.7145 980.973 66.6246 991.971 66.4289 1002.97C55.4421 1003.09 44.4546 1003.14 33.467 1003.12C33.1388 992.321 33.3039 980.848 33.285 970.001Z"/><path fill="#FEFEFE" d="M100.216 501.723C111.053 501.641 122.739 501.855 133.465 501.577L133.424 534.832C122.83 534.919 110.697 534.698 100.297 535.067C100.308 524.429 100.616 512.237 100.216 501.723Z"/><path fill="#FEFEFE" d="M702.273 969.864C713.35 969.967 724.429 969.991 735.507 969.934C735.547 980.975 735.513 992.016 735.407 1003.06L702.382 1003.12L702.273 969.864Z"/><path fill="#FEFEFE" d="M1002.65 468.412L1036.09 468.424L1035.99 501.448L1003.01 501.448C1002.09 495.324 1002.6 475.61 1002.65 468.412Z"/><path fill="#FEFEFE" d="M1136.89 267.596L1170.05 267.588L1169.93 300.906C1158.88 301.088 1147.82 301.163 1136.76 301.13C1136.69 290.014 1136.84 278.726 1136.89 267.596Z"/><path fill="#FEFEFE" d="M1036.2 903.151C1047.34 902.869 1058.48 902.862 1069.62 903.13L1069.58 936.14C1058.97 936.164 1046.57 935.867 1036.11 936.253L1036.2 903.151Z"/><path fill="#FEFEFE" d="M434.652 702.263C445.503 702.118 456.945 701.782 467.738 702.227L467.748 735.422L434.701 735.353C434.256 725.112 434.621 712.664 434.652 702.263Z"/><path fill="#FEFEFE" d="M1069.79 67.3197C1080.67 66.9708 1091.56 66.9263 1102.45 67.1864C1103.45 71.905 1102.74 93.9143 1102.97 100.206C1094.13 100.225 1077.97 99.7312 1069.74 100.379C1069.65 89.3591 1069.67 78.3389 1069.79 67.3197Z"/><path fill="#FEFEFE" d="M1069.82 1003.36C1080.82 1003.21 1091.83 1003.26 1102.83 1003.52C1102.86 1014.41 1102.71 1025.74 1102.92 1036.59L1069.74 1036.71L1069.82 1003.36Z"/><path fill="#FEFEFE" d="M367.822 635.522C378.912 635.456 390.002 635.454 401.092 635.517C401.217 646.527 401.226 657.538 401.12 668.549C389.979 668.666 378.837 668.675 367.695 668.573L367.822 635.522Z"/><path fill="#FEFEFE" d="M401.264 668.773L434.512 668.785C434.584 679.803 434.557 690.821 434.432 701.838C423.389 702.062 412.343 702.079 401.3 701.89C401.179 690.852 401.167 679.812 401.264 668.773Z"/><path fill="#FEFEFE" d="M1069.86 869.712C1080.86 869.611 1091.86 869.582 1102.85 869.622C1102.51 880.093 1103.58 893.113 1102.86 903.184C1099.99 902.488 1074.77 902.725 1069.83 902.71C1069.65 891.711 1069.66 880.71 1069.86 869.712Z"/><path fill="#FEFEFE" d="M434.576 1103.92L467.812 1103.62C467.803 1114.13 467.455 1126.73 467.892 1137.08C459.932 1136.51 443.089 1137 434.7 1137.09C434.578 1126.03 434.537 1114.97 434.576 1103.92Z"/><path fill="#FEFEFE" d="M301.267 769.072L334.417 769.002C334.186 779.976 334.354 791.4 334.33 802.419L301.136 802.398C300.779 791.853 301.163 779.697 301.267 769.072Z"/><path fill="#FEFEFE" d="M769.206 1103.98C780.264 1103.66 791.329 1103.62 802.389 1103.85C801.882 1113.04 803.043 1129.19 801.941 1137.03C791.042 1137.1 780.143 1137.06 769.245 1136.92C768.916 1126.16 769.39 1114.89 769.206 1103.98Z"/><path fill="#FEFEFE" d="M1170.08 1103.97C1181.2 1103.71 1192.33 1103.68 1203.46 1103.88L1203.2 1137C1192.2 1137.05 1181.2 1137.03 1170.2 1136.92C1170.01 1126.04 1170.11 1114.87 1170.08 1103.97Z"/><path fill="#FEFEFE" d="M835.796 200.737C835.344 210.923 835.676 223.748 835.63 234.18L802.694 234.052C802.319 223.244 802.513 211.738 802.579 200.895C813.651 200.759 824.686 200.986 835.796 200.737Z"/><path fill="#FEFEFE" d="M33.2469 33.7922C43.6636 33.3513 56.1948 33.6787 66.6843 33.7824L66.6331 66.8172L33.7089 66.8285C32.8688 59.4647 33.2695 41.7182 33.2469 33.7922Z"/><path fill="#FEFEFE" d="M434.574 969.992L467.774 969.953L467.8 1003.03C456.973 1003.35 445.606 1003.16 434.736 1003.14C434.33 992.289 434.535 980.893 434.574 969.992Z"/><path fill="#FEFEFE" d="M1170.13 903.179C1181.2 903.036 1192.27 903.028 1203.34 903.157C1203.47 914.154 1203.47 925.153 1203.35 936.151C1193.94 936.155 1179.05 935.673 1170.08 936.275L1170.13 903.179Z"/><path fill="#FEFEFE" d="M1169.83 134.041C1170.3 144.541 1170.02 156.587 1170.07 167.205C1158.98 167.106 1147.89 167.075 1136.81 167.112L1136.89 134.146L1169.83 134.041Z"/><path fill="#FEFEFE" d="M100.332 33.7011C111.375 33.5937 122.42 33.5684 133.463 33.6251L133.439 66.8534C122.559 67.0399 111.279 66.8074 100.37 66.7249C100.246 55.7607 100.332 44.6755 100.332 33.7011Z"/><path fill="#FEFEFE" d="M167.129 1103.89C178.171 1103.72 189.519 1103.37 200.524 1103.91L200.524 1137.04C190.186 1137.04 177.218 1136.65 167.183 1137.04L167.129 1103.89Z"/><path fill="#FEFEFE" d="M1069.79 735.69L1102.86 735.69C1102.73 746.613 1103.17 757.712 1102.76 768.614C1092.47 769.261 1080.23 768.935 1069.79 768.902C1069.51 757.969 1069.72 746.655 1069.79 735.69Z"/><path fill="#FEFEFE" d="M534.633 167.155L534.492 200.495L501.367 200.524C501.162 189.494 501.35 178.432 501.137 167.339C512.309 167.219 523.442 167.442 534.633 167.155Z"/><path fill="#FEFEFE" d="M1069.88 936.455C1080.86 936.484 1091.84 936.446 1102.82 936.34L1102.8 969.736C1091.84 969.851 1080.76 969.749 1069.79 969.727C1069.65 958.637 1069.68 947.544 1069.88 936.455Z"/><path fill="#FEFEFE" d="M1137.28 869.588C1148.12 869.495 1158.96 869.5 1169.8 869.603C1169.83 878.249 1170.35 894.646 1169.56 902.837C1158.7 902.893 1147.84 902.831 1136.98 902.651C1136.85 898.12 1136.35 872.998 1137.28 869.588Z"/><path fill="#FEFEFE" d="M301.023 434.805L334.383 434.795L334.357 468.101L301.116 468.101C301.352 457.003 301.321 445.901 301.023 434.805Z"/><path fill="#FEFEFE" d="M1069.79 1070.37C1080.74 1070.23 1091.87 1070.36 1102.83 1070.38L1102.85 1103.38C1091.85 1103.81 1080.83 1103.82 1069.83 1103.39C1069.58 1092.52 1069.76 1081.28 1069.79 1070.37Z"/><path fill="#FEFEFE" d="M334.631 134.11L367.683 133.975L367.683 167.109L334.631 167.165L334.631 134.11Z"/><path fill="#FEFEFE" d="M1170.05 969.902C1180.85 970.269 1192.46 970.01 1203.32 969.953L1203.23 1003.03C1192.22 1003.27 1181.2 1003.29 1170.18 1003.11C1170.21 992.042 1170.17 980.971 1170.05 969.902Z"/><path fill="#FEFEFE" d="M434.59 635.498C445.635 635.44 456.681 635.455 467.726 635.543L467.766 668.548C456.959 668.787 445.555 668.603 434.703 668.601C434.368 657.946 434.597 646.232 434.59 635.498Z"/><path fill="#FEFEFE" d="M100.307 702.282L133.457 702.159C133.612 713.232 133.607 724.307 133.44 735.38L100.337 735.367L100.307 702.282Z"/><path fill="#FEFEFE" d="M301.198 33.7825C312.018 33.5001 323.362 33.6477 334.221 33.6295C334.389 44.7207 334.429 55.8136 334.34 66.9058C323.331 66.9559 312.321 66.9336 301.312 66.8386L301.198 33.7825Z"/><path fill="#FEFEFE" d="M1069.79 802.737C1080.81 802.679 1091.84 802.678 1102.86 802.736L1102.86 835.814C1091.89 835.959 1080.8 835.89 1069.81 835.902C1069.67 824.847 1069.67 813.791 1069.79 802.737Z"/><path fill="#FEFEFE" d="M367.848 568.663L401.156 568.739C401.225 579.761 401.177 590.783 401.012 601.804C390.363 601.961 378.656 601.611 367.855 601.583C367.696 590.61 367.693 579.636 367.848 568.663Z"/><path fill="#FEFEFE" d="M534.854 735.723L568.148 735.69L568.098 768.742C556.914 768.705 546.158 768.918 534.87 768.73C534.599 757.73 534.594 746.724 534.854 735.723Z"/><path fill="#FEFEFE" d="M969.325 568.789C980.402 568.719 991.48 568.707 1002.56 568.754C1002.28 579.823 1002.73 590.845 1002.42 601.815C992.032 601.8 979.488 601.471 969.252 601.865L969.325 568.789Z"/><path fill="#FEFEFE" d="M969.247 100.374C979.562 100.816 992.064 100.644 1002.5 100.481L1002.57 133.779C992.282 133.904 979.39 134.319 969.306 133.531C969.312 123.1 969.656 110.636 969.247 100.374Z"/><path fill="#FEFEFE" d="M902.522 1103.95C911.879 1103.88 926.913 1104.25 935.655 1103.64L935.675 1137C926.76 1137.08 910.47 1136.48 902.529 1137.08L902.522 1103.95Z"/><path fill="#FEFEFE" d="M1136.99 468.48L1170.12 468.319C1169.66 478.404 1170.02 491.143 1170.02 501.43L1136.97 501.416C1136.22 493.631 1136.87 476.933 1136.99 468.48Z"/><path fill="#FEFEFE" d="M835.823 568.699L868.923 568.669C868.989 579.717 868.963 590.766 868.843 601.813C858.393 601.788 846.081 601.45 835.777 601.907C835.672 590.838 835.688 579.768 835.823 568.699Z"/><path fill="#FEFEFE" d="M130.277 970.198C131.791 969.887 131.313 969.967 132.908 970.13C134.114 972.528 133.472 998.536 133.435 1003.12L103.326 1003.04C102.708 1003.04 101.823 1002.82 101.177 1002.69C99.576 1000.13 100.283 974.644 100.295 970.203L130.277 970.198Z"/><path fill="#FEFEFE" d="M301.199 301.283L334.369 301.242L334.304 334.194C323.253 334.351 312.2 334.369 301.148 334.25L301.199 301.283Z"/><path fill="#FEFEFE" d="M100.315 1103.93C111.182 1103.63 122.62 1103.8 133.53 1103.8L133.413 1136.98C122.397 1137.07 111.38 1137.08 100.364 1137.01L100.315 1103.93Z"/><path fill="#FEFEFE" d="M802.462 535.214C813.331 534.901 824.772 535.1 835.685 535.128L835.672 568.245C824.605 568.431 813.535 568.418 802.468 568.206L802.462 535.214Z"/><path fill="#FEFEFE" d="M401.171 200.86C412.255 200.796 423.34 200.812 434.424 200.909L434.424 234.032C423.407 234.23 412.387 234.202 401.372 233.946L401.171 200.86Z"/><path fill="#FEFEFE" d="M835.792 668.719C835.449 679.291 835.699 691.292 835.669 701.979L802.695 701.897C802.262 691.037 802.488 679.843 802.572 668.949C813.645 668.968 824.719 668.892 835.792 668.719Z"/><path fill="#FEFEFE" d="M1069.71 468.338C1080.41 468.765 1092.08 468.435 1102.87 468.421C1102.85 478.995 1102.56 490.964 1102.97 501.429L1069.83 501.415C1069.63 491.764 1070.25 477.216 1069.71 468.338Z"/><path fill="#FEFEFE" d="M1170.23 301.326L1203.62 301.269C1203.05 311.468 1203.41 323.819 1203.46 334.179C1192.67 334.412 1180.5 333.919 1170.12 334.308L1170.23 301.326Z"/><path fill="#FEFEFE" d="M467.923 134.174L501.166 134.012C501.08 144.614 501.445 156.703 501.058 167.071C490.532 167.098 478.171 166.801 467.806 167.194L467.923 134.174Z"/><path fill="#FEFEFE" d="M1170.12 668.621C1169.52 678.068 1169.99 692.064 1170.02 701.841L1137.03 701.938C1136.74 691.415 1136.46 679.25 1136.94 668.808C1147.47 668.824 1159.73 669.133 1170.12 668.621Z"/><path fill="#FEFEFE" d="M434.714 301.32L467.737 301.296C467.821 312.299 467.819 323.302 467.732 334.305L434.726 334.25C434.562 323.274 434.558 312.296 434.714 301.32Z"/><path fill="#FEFEFE" d="M902.773 334.618L935.302 334.618L935.378 367.758L902.789 367.745L902.773 334.618Z"/><path fill="#FEFEFE" d="M836.058 334.618L868.662 334.618C868.507 345.672 868.522 356.728 868.706 367.782C857.823 367.712 846.94 367.696 836.057 367.736L836.058 334.618Z"/><path fill="#FEFEFE" d="M802.498 802.804C806.403 802.438 812.452 800.673 813.052 805.424L806.173 811.699C804.486 811.897 805.096 812.012 803.567 811.528C802.049 809.197 802.511 805.805 802.498 802.804Z"/></svg>