<?xml version="1.0" encoding="utf-8" ?><svg xmlns="http://www.w3.org/2000/svg" xmlns:xlink="http://www.w3.org/1999/xlink" width="1254" height="1254" viewBox="0 0 1254 1254"><path fill="#FAFAF9" d="M0 0L1254 0L1254 1254L0 1254L0 0Z"/><path fill="#002E5F" d="M614.078 374.328C671.474 369.297 722.11 411.678 727.267 469.063C732.423 526.448 690.154 577.177 632.781 582.46C575.228 587.76 524.306 545.33 519.133 487.766C513.961 430.202 556.503 379.373 614.078 374.328Z"/><path fill="#FAFAF9" d="M614.586 393.642C661.491 388.861 703.372 423.057 708.069 469.97C712.766 516.884 678.496 558.704 631.574 563.317C584.771 567.919 543.079 533.754 538.394 486.958C533.709 440.163 567.799 398.411 614.586 393.642Z"/><path fill="#002E5F" d="M381.453 468.523C422.821 465.88 458.534 497.192 461.324 538.55C464.113 579.907 432.929 615.732 391.581 618.669C350.025 621.62 313.981 590.244 311.177 548.678C308.373 507.111 339.877 471.179 381.453 468.523Z"/><path fill="#FAFAF9" d="M380.925 487.917C411.636 484.969 438.946 507.417 441.998 538.118C445.051 568.819 422.696 596.205 392.006 599.362C361.167 602.535 333.62 580.048 330.552 549.199C327.485 518.35 350.066 490.879 380.925 487.917Z"/><path fill="#002E5F" d="M858.626 468.556C899.892 466.925 934.733 498.917 936.62 540.172C938.508 581.426 906.735 616.466 865.493 618.612C823.885 620.777 788.466 588.66 786.561 547.039C784.656 505.418 816.994 470.2 858.626 468.556Z"/><path fill="#FAFAF9" d="M855.815 488.051C886.415 484.854 913.845 506.989 917.183 537.574C920.522 568.159 898.513 595.691 867.944 599.171C837.174 602.673 809.423 580.489 806.062 549.703C802.702 518.918 825.014 491.269 855.815 488.051Z"/><path fill="#002E5F" d="M594.735 610.114C596.202 610.018 597.671 609.954 599.141 609.922C661.827 608.565 719.166 608.401 767.798 655.478C813.448 699.668 812.773 756.488 811.185 814.918C807.083 828.208 791.783 825.365 792.002 810.148C792.674 763.584 794.523 716.974 762.702 678.703C734.822 645.173 696.752 633.581 654.988 629.5C617.806 629.047 585.354 626.905 550.534 637.097C481.688 657.25 451.467 714.742 455.525 783.371C454.748 793.053 457.781 811.141 453.244 819.416C448.101 828.796 435.496 821.728 435.899 810.781C436.656 790.26 434.746 769.511 436.995 749.107C446.751 660.575 510.094 615.195 594.735 610.114Z"/><path fill="#002E5F" d="M826.979 629.686C837.032 628.069 854.163 629.551 865.061 629.328C901.335 628.585 932.009 627.596 962.484 651.19C983.724 667.831 997.484 692.227 1000.74 719.012C1002.97 737.004 1001.13 758.857 1001.58 777.286C1001.79 785.994 990.939 790.27 985.146 784.259C980.833 779.784 982.25 765.729 982.318 759.42C982.443 741.828 983.686 724.388 978.467 707.544C972.215 686.755 957.97 669.297 938.858 659.002C930.299 654.565 921.077 651.544 911.551 650.058C896.923 647.836 874.617 649.363 859.138 648.95C847.301 648.712 835.578 648.987 823.838 649.612C815.916 650.033 796.642 660.868 791.827 656.307C772.998 638.474 816.741 630.821 826.979 629.686Z"/><path fill="#002E5F" d="M341.981 629.694C346.63 628.911 366.551 629.209 372.508 629.222C388.744 629.257 406.252 628.859 422.465 629.887C429.889 630.078 435.923 633.027 442.917 634.436C449.762 635.816 464.056 644.762 459.34 653.011C453.127 663.876 434.692 650.898 424.962 649.94C411.769 648.641 397.183 648.915 383.805 648.943C370.598 649.235 356.365 648.306 343.267 649.258C338.158 649.628 333.089 650.419 328.11 651.621C304.667 657.371 288.487 669.926 276.046 690.338C270.654 699.995 267.103 710.57 265.575 721.524C264.035 732.596 266.091 776.833 263.134 782.527C262.05 784.613 259.996 785.986 257.752 786.55C255.025 787.236 251.454 786.847 249.125 785.188C246.695 783.457 245.756 780.355 245.435 777.524C244.565 769.839 245.408 761.276 245.364 753.485C245.169 719.04 246.704 693.739 269.696 665.727C287.908 643.539 313.892 632.438 341.981 629.694Z"/></svg>