<?xml version="1.0" encoding="utf-8" ?><svg xmlns="http://www.w3.org/2000/svg" xmlns:xlink="http://www.w3.org/1999/xlink" width="1254" height="1254" viewBox="0 0 1254 1254"><path fill="#F4F4F3" d="M0 0L33.5075 0L66.7706 0L100.347 0L133.553 0L167.211 0L200.679 0L234.317 0L267.684 0L301.08 0L334.448 0L367.882 0L401.084 0L434.536 0L467.845 0L501.409 0L534.696 0L568.214 0L601.764 0L635.418 0L668.749 0L702.319 0L735.893 0L769.405 0L802.653 0L835.83 0L869.398 0L902.548 0L936.118 0L969.55 0L1003 0L1036.59 0L1069.76 0L1103.5 0L1137.06 0L1170.34 0L1203.81 0L1237.24 0L1254 0L1254 33.7112L1254 67.2843L1254 100.62L1254 134.113L1254 167.414L1254 201.176L1254 234.498L1254 267.668L1254 301.31L1254 334.773L1254 368.223L1254 401.582L1254 435.262L1254 468.391L1254 502.107L1254 535.433L1254 568.865L1254 602.225L1254 635.585L1254 669.112L1254 702.406L1254 735.945L1254 769.181L1254 802.782L1254 836.086L1254 869.744L1254 903.123L1254 936.483L1254 969.978L1254 1003.41L1254 1036.72L1254 1070.27L1254 1103.57L1254 1137.1L1254 1170.53L1254 1203.82L1254 1237.43L1254 1254L1237.02 1254L1203.85 1254L1170.23 1254L1136.99 1254L1103.44 1254L1069.85 1254L1036.49 1254L1002.98 1254L969.417 1254L936.173 1254L902.59 1254L869.452 1254L835.814 1254L802.678 1254L769.295 1254L735.902 1254L702.356 1254L668.636 1254L635.07 1254L601.741 1254L568.197 1254L534.651 1254L501.298 1254L467.805 1254L434.334 1254L401.102 1254L367.754 1254L334.428 1254L301.121 1254L267.551 1254L234.123 1254L200.708 1254L167.178 1254L133.87 1254L100.304 1254L66.6529 1254L33.2524 1254L0 1254L0 1237.43L0 1203.99L0 735.99L0 702.313L0 669.249L0 635.621L0 602.307L0 568.775L0 535.194L0 501.998L0 468.484L0 435.263L0 401.517L0 368.257L0 334.683L0 301.243L0 267.718L0 234.401L0 201.121L0 167.466L0 134.184L0 100.581L0 67.0791L0 33.6717L0 0Z"/><path fill="#FAF9F9" d="M815.145 266.31C797.869 256.309 780.255 247.424 761.428 240.677C756.186 238.653 750.057 236.934 744.833 235.122C738.841 233.043 728.614 232.363 726.971 225.06C724.564 214.368 733.858 210.182 742.873 213.432C745.813 214.492 749.884 215.523 752.835 216.45C785.058 226.713 815.703 241.394 843.895 260.074C878.14 282.697 908.879 310.225 935.127 341.778C935.547 339.199 935.602 337.602 936.798 335.334C941.593 334.086 963.121 334.768 969.404 334.847L969.38 368.29C966.976 368.385 960.554 368.503 958.484 369.01L959.645 368.853C961.132 369.495 966.719 369.224 968.666 369.22C968.673 371.691 968.509 376.259 968.968 378.484C969.203 374.954 969.367 371.834 969.42 368.294L1002.97 368.197C1003.05 379.359 1003.05 390.522 1002.99 401.684C1013.52 401.699 1026.2 402.057 1036.56 401.613C1036.59 412.796 1036.56 423.979 1036.46 435.162L1003.02 435.301C1003.07 446.266 1003.26 457.536 1003.08 468.476L1036.62 468.435L1036.58 502.045C1031.7 502.047 1021.73 501.822 1017.27 502.521C1015.73 496.572 1013.94 485.526 1008.6 482.191C1002.55 478.422 993.013 484.23 994.397 491.659C995.48 499.392 997.6 506.188 999.338 513.758C1001.5 523.806 1003.91 535.047 1005.16 545.185C1010.11 585.177 1008.93 630.1 999.77 669.452C997.049 681.616 994.317 691.55 990.638 703.464C982.977 726.663 972.958 749.016 960.738 770.173C956.246 769.334 941.402 769.247 936.037 769.103L936.122 735.974L902.632 735.975C902.65 746.938 902.809 758.232 902.612 769.169C891.998 769.36 880.06 769.218 869.6 769.737L869.369 802.775C880.343 802.747 891.666 802.568 902.611 802.716C902.684 813.913 902.694 825.11 902.64 836.307L869.365 836.344L869.433 869.595C864.804 869.663 859.123 869.902 854.598 869.549L853.847 868.425C856.364 849.315 855.156 841.237 849.083 823.325C848.364 822.773 845.309 817.587 844.595 816.491C820.722 779.858 773.023 778.11 735.549 788.636C723.022 792.649 715.11 796.02 703.024 801.414C688.656 808.739 674.638 816.729 661.016 825.36C650.107 832.296 637.989 840.795 627.101 847.274C621.619 843.989 616.227 840.555 610.932 836.975C607.814 835.097 604.633 832.869 601.597 830.83C577.225 815.566 560.87 805.442 534.52 794.113C500.5 780.647 475.48 778.811 440.969 790.203C432.017 794.893 426.309 797.684 418.676 804.672C416.461 801.249 405.405 802.367 401.36 802.431L401.293 769.355L434.424 769.355L434.424 735.69L400.76 735.69C400.845 739.815 401.593 749.998 399.664 752.894C404.45 761.705 398.972 771.064 390.572 769.168C381.72 767.171 368.682 743.505 364.31 735.99C326.541 672.534 322.183 579.578 345.895 510.649C352.599 491.686 361.005 473.368 371.01 455.92C403.383 398.162 442.616 360.799 502.042 331.779C525.993 321.097 539.538 317.196 564.578 310.814C647.814 295.63 722.695 306.338 793.546 355.239C796.345 357.181 799.125 359.152 801.885 361.149C802.748 355.883 802.516 340.988 802.607 334.813L769.367 334.858L769.367 301.326L802.67 301.236C802.044 291.37 802.552 277.984 802.681 267.889C807.375 268.012 811.318 268.745 815.145 266.31Z"/><path fill="#00425D" d="M564.578 310.814C647.814 295.63 722.695 306.338 793.546 355.239C796.345 357.181 799.125 359.152 801.885 361.149L812.505 369.601C820.047 375.92 827.318 382.556 834.298 389.491C892.949 450.824 925.261 529.184 922.035 614.001C920.994 659.879 909.75 705.527 884.618 744.315C880.02 751.412 875.442 759.511 869.453 765.578C865.649 769.433 863.151 769.512 858.082 768.782C848.852 762.357 851.745 756.5 857.483 748.899C886.849 709.998 901.621 662.188 902.115 613.642C903.867 571.722 895.877 529.966 878.771 491.655C875.09 483.249 871.686 475.488 866.919 467.615C855.682 444.821 834.33 417.931 816.226 400.281C760.143 347.864 695.379 322.056 618.067 324.568C547.758 326.853 477.448 357.347 429.305 408.914C376.442 464.946 348.41 539.929 351.55 616.898C353.376 667.317 368.279 713.029 399.664 752.894C404.45 761.705 398.972 771.064 390.572 769.168C381.72 767.171 368.682 743.505 364.31 735.99C326.541 672.534 322.183 579.578 345.895 510.649C352.599 491.686 361.005 473.368 371.01 455.92C403.383 398.162 442.616 360.799 502.042 331.779C525.993 321.097 539.538 317.196 564.578 310.814Z"/><path fill="#00425D" d="M815.145 266.31C797.869 256.309 780.255 247.424 761.428 240.677C756.186 238.653 750.057 236.934 744.833 235.122C738.841 233.043 728.614 232.363 726.971 225.06C724.564 214.368 733.858 210.182 742.873 213.432C745.813 214.492 749.884 215.523 752.835 216.45C785.058 226.713 815.703 241.394 843.895 260.074C878.14 282.697 908.879 310.225 935.127 341.778C952.129 363.831 962.362 378.188 976.397 402.606C980.534 410.22 990.748 428.232 991.853 436.032C990.174 445.863 978.574 449.274 975.031 442.814C964.501 423.616 955.44 404.503 942.985 386.252C910.225 338.25 866.189 294.771 815.145 266.31Z"/><path fill="#00425D" d="M554.093 469.144C563.998 448.657 578.075 433.743 599.97 425.993C620.128 418.637 642.406 419.757 661.724 429.099C680.632 438.275 695.094 454.62 701.899 474.504C708.611 494.004 707.283 517.573 698.102 536.086C688.755 555.301 672.059 569.939 651.787 576.693C631.644 583.225 609.731 581.496 590.861 571.887C572.04 562.236 557.9 545.41 551.634 525.207C549.044 517.257 547.775 508.937 547.878 500.576C547.889 488.602 549.831 480.152 554.093 469.144Z"/><path fill="#FAF9F9" d="M619.356 441.899C651.969 437.662 681.838 460.676 686.057 493.291C690.276 525.907 667.246 555.763 634.629 559.965C602.036 564.163 572.206 541.155 567.991 508.564C563.775 475.973 586.767 446.132 619.356 441.899Z"/><path fill="#00425D" d="M491.595 669.838C504.113 638.763 522.78 616.813 554.425 603.434C593.659 586.848 657.059 586.832 696.41 602.13C725.172 613.312 748.831 635.937 760.294 664.377C769.196 685.641 771.043 708.242 770.404 731.035C770.117 737.113 771.554 743.547 769.229 749.358C765.297 758.937 753.691 756.55 751.1 747.407C750.032 743.81 750.505 739.118 750.682 735.406C754.363 656.291 716.664 614.928 637.796 611.314C558.227 607.668 501.997 639.035 502.95 726.534C503.045 735.246 506.426 751.895 496.038 754.705C490.597 756.177 485.857 753.642 484.053 748.22C482.522 742.971 483.694 735.761 483.025 730.074C483.445 705.809 483.87 693.318 491.595 669.838Z"/><path fill="#FAF9F9" d="M0 0L33.5075 0L66.7706 0L100.347 0L133.553 0L167.211 0L200.679 0L234.317 0L267.684 0L301.08 0L334.448 0L367.882 0L401.084 0L434.536 0L467.845 0L501.409 0C501.434 11.2562 501.402 22.5125 501.314 33.7684L534.71 33.7386L534.691 67.2649L568.172 67.3252L568.205 100.409C557.05 100.707 545.889 100.741 534.733 100.513L534.671 134.116L501.348 134.091L501.356 167.379C490.213 167.636 479.064 167.606 467.922 167.291C467.695 156.432 467.869 145.032 467.87 134.132L434.496 134.021C434.603 145.242 434.583 156.464 434.436 167.684C445.568 167.571 456.701 167.559 467.833 167.647L467.852 201.152C478.996 200.963 490.141 200.958 501.285 201.136C501.319 203.374 501.185 208.882 501.85 210.71C502.188 207.507 502.135 205.242 502.09 202.061L533.93 202.061C533.946 204.328 533.87 210.772 534.243 212.734C534.575 208.518 534.702 205.316 534.713 201.087C545.868 201.015 557.024 201.022 568.179 201.107L568.192 234.417L534.854 234.409L534.854 267.842C545.97 267.689 557.087 267.655 568.204 267.739C568.233 278.377 568.463 289.777 568.1 300.354C566.558 301.89 566.185 300.934 563.211 301.383L563.581 301.892L567.084 302.014C567.689 303.817 568.06 306.86 568.368 308.82L565.019 309.702L564.578 310.814C539.538 317.196 525.993 321.097 502.042 331.779C442.616 360.799 403.383 398.162 371.01 455.92C361.005 473.368 352.599 491.686 345.895 510.649C322.183 579.578 326.541 672.534 364.31 735.99L334.318 735.99L334.318 702.926L301.254 702.926C301.255 712.427 301.614 725.071 301.031 734.318L300.766 734.12C299.364 727.441 301.111 711.487 300.161 703.465C298.236 703.442 297.367 703.42 295.411 703.175L295.216 702.51L296.025 702.415C298.738 702.089 299.156 702.522 300.391 700.945C301.127 696.304 300.757 674.647 300.129 669.56C296.569 667.973 273.102 668.61 267.577 668.637L267.577 635.572L300.642 635.572L300.642 602.508L267.577 602.508L267.614 568.799C264.121 568.771 248.732 568.434 246.398 569.304C248.65 542.244 252.602 518.485 259.37 492.237C261.628 483.479 248.73 477.112 242.53 484.197C239.582 487.328 237.084 499.858 236.089 504.183C226.612 544.112 223.588 585.301 227.132 626.186C228.444 641.43 230.582 654.324 233.639 669.249L200.84 669.249C200.65 680.592 200.163 690.734 200.224 702.313L167.154 702.302L167.159 735.99L133.482 735.99L133.482 702.313L100.331 702.301C100.822 712.309 100.416 725.72 100.418 735.99L66.7412 735.99L66.7818 702.342L33.6768 702.313L33.6768 669.249L0 669.249L0 635.621L0 602.307L0 568.775L0 535.194L0 501.998L0 468.484L0 435.263L0 401.517L0 368.257L0 334.683L0 301.243L0 267.718L0 234.401L0 201.121L0 167.466L0 134.184L0 100.581L0 67.0791L0 33.6717L0 0Z"/><path fill="#00425D" d="M435.413 244.193C440.772 241.423 446.15 238.691 451.549 235.999C463.355 230.188 514.079 208.445 524.902 212.644C527.534 213.666 529.375 215.911 530.39 218.487C531.317 220.84 531.478 223.28 530.321 225.586C526.916 232.375 507.586 235.66 500.122 237.969C481.112 244.559 464.603 251.186 446.911 260.976C443.906 262.639 435.899 266.955 433.463 268.957C370.584 305.689 316.245 366.269 284.965 431.987C280.191 442.018 279.393 449.21 266.412 446.401C265.048 443.847 262.406 442.721 261.699 439.59C259.384 429.337 291.178 379.633 298.303 369.107C304.154 360.652 310.815 352.595 316.485 344.212C317.982 343.099 322.616 337.183 324.096 335.377C337.651 319.59 352.369 304.84 368.128 291.253C377.272 283.483 386.701 276.055 396.397 268.985L401.128 265.668C411.114 258.405 424.663 250.56 435.413 244.193Z"/><path fill="#00425D" d="M735.549 788.636C773.023 778.11 820.722 779.858 844.595 816.491C845.309 817.587 848.364 822.773 849.083 823.325C855.156 841.237 856.364 849.315 853.847 868.425C846.159 899.167 826.408 918.321 795.147 924.559C737.834 935.996 673.595 901.305 627.066 871.339C585.746 897.639 538.512 923.54 488.353 926.81C444.338 929.679 400.955 905.715 398.925 857.731C398.013 836.165 404.101 820.686 418.676 804.672C426.309 797.684 432.017 794.893 440.969 790.203C475.48 778.811 500.5 780.647 534.52 794.113C560.87 805.442 577.225 815.566 601.597 830.83C604.633 832.869 607.814 835.097 610.932 836.975C616.227 840.555 621.619 843.989 627.101 847.274C637.989 840.795 650.107 832.296 661.016 825.36C674.638 816.729 688.656 808.739 703.024 801.414C715.11 796.02 723.022 792.649 735.549 788.636Z"/><path fill="#FAF9F9" d="M478.57 802.998C520.485 801.012 574.391 836.226 608.501 859.334C585.359 873.4 562.332 885.993 536.937 895.531C506.142 906.355 462.717 916.052 434.938 891.605C403.361 863.816 418.873 811.443 460.879 805.032C467.244 804.06 471.818 803.366 478.57 802.998Z"/><path fill="#FAF9F9" d="M771.002 802.997C792.829 801.826 819.293 810.107 829.977 830.707C842.589 855.024 833.51 886.363 808.498 898.671C779.863 912.762 750.551 906.634 721.64 897.306C691.453 885.88 673.112 875.8 645.604 859.376C681.619 834.513 726.722 805.508 771.002 802.997Z"/><path fill="#FAF9F9" d="M668.749 0L702.319 0L735.893 0L769.405 0L802.653 0L835.83 0L869.398 0L902.548 0L936.118 0L969.55 0L1003 0L1036.59 0L1036.55 33.7223L1003.02 33.6653L1002.99 67.2582C991.905 66.9028 980.927 67.4721 969.541 66.9235C969.034 57.0274 969.439 43.8987 969.365 33.7224L936.227 33.6347C936.005 44.8797 936.161 56.0218 936.055 67.2382L902.697 67.0471C902.413 56.1663 902.577 44.6712 902.56 33.7451L869.402 33.6797L869.252 67.0978C858.17 67.2166 847.086 67.2111 836.003 67.0813C835.594 56.4588 835.849 44.4711 835.843 33.7488C826.533 33.221 812.36 33.6815 802.707 33.6471L802.649 67.1617C791.556 67.2292 780.463 67.2028 769.37 67.0825C769.062 56.1236 769.421 44.732 769.261 33.6389C758.168 33.7404 747.074 33.7374 735.981 33.6298C735.63 44.3041 735.93 56.4163 735.951 67.1979C724.744 67.2599 713.536 67.2337 702.329 67.1192C702.462 56.0046 702.451 44.8887 702.296 33.7744C691.15 33.6574 680.004 33.6224 668.859 33.6696C668.55 22.7546 668.758 10.979 668.749 0Z"/><path fill="#00425D" d="M999.77 669.452C1008.93 630.1 1010.11 585.177 1005.16 545.185C1003.91 535.047 1001.5 523.806 999.338 513.758C997.6 506.188 995.48 499.392 994.397 491.659C993.013 484.23 1002.55 478.422 1008.6 482.191C1013.94 485.526 1015.73 496.572 1017.27 502.521C1038.45 598.107 1028.99 680.774 984.851 768.447C969.432 795.988 960.409 809.756 940.37 834.374L934.965 840.35C928.031 843.138 924.341 842.094 919.984 836.125C918.103 827.322 923.279 823.118 928.733 816.698C941.054 802.194 951.028 786.468 960.738 770.173C972.958 749.016 982.977 726.663 990.638 703.464C994.317 691.55 997.049 681.616 999.77 669.452Z"/><path fill="#00425D" d="M233.639 669.249C230.582 654.324 228.444 641.43 227.132 626.186C223.588 585.301 226.612 544.112 236.089 504.183C237.084 499.858 239.582 487.328 242.53 484.197C248.73 477.112 261.628 483.479 259.37 492.237C252.602 518.485 248.65 542.244 246.398 569.304C241.722 640.927 258.819 712.289 295.445 774.016C301.056 783.375 308.084 794.748 314.829 803.344C321.298 811.966 326.152 818.407 333.309 826.421C335.877 832.181 334.114 839.557 327.98 841.369C317.387 844.499 303.63 822.038 298.088 814.525C265.987 771.005 245.11 721.921 233.639 669.249Z"/><path fill="#FAF9F9" d="M902.614 1170.61L936.062 1170.49L936.151 1203.9L902.561 1203.82C902.572 1214.88 902.406 1226.43 902.621 1237.44C913.758 1237.53 924.895 1237.55 936.032 1237.51L936.173 1254L902.59 1254L869.452 1254L835.814 1254L802.678 1254L769.295 1254C769.416 1248.58 769.302 1242.95 769.267 1237.51C780.308 1237.52 791.731 1237.67 802.74 1237.4C802.529 1226.29 802.515 1215.18 802.697 1204.07C813.149 1203.66 825.341 1203.94 835.925 1203.92C835.902 1214.95 835.695 1226.49 835.88 1237.47C846.218 1237.52 859.05 1237.79 869.358 1237.41L869.344 1204.04C880.305 1203.82 891.646 1203.95 902.636 1203.94C902.456 1192.83 902.449 1181.72 902.614 1170.61Z"/><path fill="#FAF9F9" d="M568.169 1170.63C578.778 1170.58 591.359 1170.84 601.777 1170.37L601.778 1203.91C612.955 1203.86 624.132 1203.89 635.308 1203.97C635.316 1214.95 635.487 1226.39 635.19 1237.34C624.075 1237.41 612.96 1237.42 601.845 1237.37C601.779 1242.91 601.744 1248.46 601.741 1254L568.197 1254L568.191 1237.46C557.074 1237.47 545.958 1237.41 534.843 1237.29C534.466 1226.32 534.643 1215.05 534.69 1204.04L568.21 1203.87C568.299 1192.79 568.285 1181.71 568.169 1170.63Z"/><path fill="#FAF9F9" d="M534.696 0L568.214 0L601.764 0L635.418 0C635.377 11.0074 635.541 22.6837 635.272 33.6313C624.124 33.7129 612.975 33.7345 601.826 33.6961C601.432 44.0316 601.79 56.6711 601.798 67.1873C590.629 67.3349 579.457 67.2481 568.292 66.9268L568.219 33.7088L534.853 33.6518C534.242 23.2943 534.594 10.5195 534.696 0Z"/><path fill="#FAF9F9" d="M1137.06 0L1170.34 0L1203.81 0L1237.24 0C1237.24 11.075 1237.4 22.6172 1237.11 33.6537L1203.85 33.7014L1203.84 67.2503L1170.39 67.0465C1170.23 55.9483 1170.18 44.849 1170.22 33.7499C1159.5 33.4793 1147.84 33.6848 1137.04 33.6575L1137.06 0Z"/><path fill="#FAF9F9" d="M1237.11 1170.68L1254 1170.53L1254 1203.82L1254 1237.43L1254 1254L1237.02 1254L1203.85 1254L1170.23 1254C1170.22 1248.89 1170.05 1242.56 1170.44 1237.55L1203.88 1237.45C1203.61 1226.58 1203.83 1214.98 1203.84 1204.06C1214.61 1203.71 1226.26 1203.89 1237.1 1203.86C1236.99 1192.8 1236.99 1181.74 1237.11 1170.68Z"/><path fill="#FAF9F9" d="M702.366 1203.9C702.267 1215.08 702.247 1226.26 702.307 1237.44C711.768 1237.52 726.818 1237.95 735.999 1237.43L735.902 1254L702.356 1254L668.636 1254L635.07 1254L635.126 1237.54L668.746 1237.4L668.818 1203.99C679.774 1203.73 691.337 1203.93 702.366 1203.9Z"/><path fill="#FAF9F9" d="M66.8006 1204.07C77.9442 1203.87 89.09 1203.82 100.235 1203.92L100.254 1237.47L133.889 1237.55C133.782 1243.03 133.775 1248.52 133.87 1254L100.304 1254L66.6529 1254L33.2524 1254L33.2988 1237.5L66.7536 1237.43L66.8006 1204.07Z"/><path fill="#FAF9F9" d="M1002.86 736.027C1014.1 735.837 1025.33 735.791 1036.57 735.889L1036.53 769.168C1025.44 769.23 1014.01 769.433 1002.95 769.176C1003.06 780.386 1003.09 791.596 1003.02 802.806L969.445 803.007C969.583 814.067 969.307 825.12 969.445 836.129C962.681 836.277 946.991 837.152 941.298 835.358L940.37 834.374C960.409 809.756 969.432 795.988 984.851 768.447C989.63 769.855 997.806 769.406 1003.03 769.367L1002.86 736.027Z"/><path fill="#FAF9F9" d="M1003.03 301.258C1003.03 312.412 1003.12 323.709 1002.99 334.85C1013.96 334.788 1025.64 334.93 1036.54 334.61C1036.52 345.64 1036.66 357.07 1036.46 368.065C1025.3 368.309 1014.13 368.353 1002.97 368.197C1003.16 357.161 1003.01 345.706 1003.02 334.637C992.366 335.065 980.269 334.867 969.603 334.602C969.044 324.352 969.357 311.583 969.39 301.242C980.569 301.263 991.861 301.371 1003.03 301.258Z"/><path fill="#FAF9F9" d="M1203.82 301.237C1203.85 312.396 1203.98 323.744 1203.88 334.885C1215 334.817 1226.12 334.812 1237.24 334.87C1237.23 345.819 1237.38 357.233 1237.11 368.144C1226 368.375 1214.89 368.379 1203.79 368.158L1203.86 334.767C1192.67 334.867 1181.49 334.839 1170.3 334.681C1170.22 323.56 1170.24 312.44 1170.36 301.32C1181.52 301.354 1192.67 301.326 1203.82 301.237Z"/><path fill="#FAF9F9" d="M1203.8 267.843C1214.82 267.79 1226.14 267.599 1237.13 267.74L1237.34 301.304L1254 301.31L1254 334.773C1248.09 334.84 1243.31 334.814 1237.39 334.466C1236.91 323.416 1237.23 312.316 1237.18 301.241C1226.06 301.348 1214.94 301.347 1203.82 301.237L1203.8 267.843Z"/><path fill="#FAF9F9" d="M1203.8 602.402C1214.94 602.309 1226.08 602.312 1237.23 602.413C1237.21 612.991 1236.88 625.315 1237.3 635.755L1254 635.585L1254 669.112L1237.31 668.914C1237 657.906 1237.11 646.542 1237.08 635.504C1226.02 635.609 1214.96 635.641 1203.89 635.6C1203.74 624.535 1203.71 613.468 1203.8 602.402Z"/><path fill="#FAF9F9" d="M1069.76 0L1103.5 0L1103.4 33.6963C1092.26 33.7571 1081.12 33.7355 1069.98 33.6316L1069.76 0Z"/><path fill="#FAF9F9" d="M1069.89 267.75C1080.9 267.762 1092.48 267.598 1103.43 268.006L1103.47 301.258C1092.3 301.32 1081.13 301.299 1069.96 301.196C1069.73 290.049 1069.71 278.898 1069.89 267.75Z"/><path fill="#FAF9F9" d="M1203.83 769.18C1203.84 780.298 1203.94 791.553 1203.82 802.659C1192.64 802.872 1181.46 802.897 1170.28 802.735C1170.24 791.582 1170.26 780.429 1170.35 769.275C1181.38 769.473 1192.77 769.257 1203.83 769.18Z"/><path fill="#FAF9F9" d="M200.793 1204.03C211.92 1203.83 223.05 1203.82 234.178 1203.99C234.313 1215.1 234.276 1226.2 234.069 1237.3C222.982 1237.41 211.894 1237.44 200.807 1237.4C200.431 1226.28 200.426 1215.15 200.793 1204.03Z"/><path fill="#FAF9F9" d="M167.211 1203.87L167.141 1237.47C156.924 1237.05 144.274 1237.39 133.865 1237.38C133.129 1227.93 133.591 1213.79 133.668 1203.99C144.082 1203.56 156.523 1203.93 167.211 1203.87Z"/><path fill="#FAF9F9" d="M1103.46 1203.92L1103.42 1237.43L1070.09 1237.35C1069.32 1228.13 1069.8 1213.39 1069.95 1203.97C1080.81 1203.68 1092.54 1203.91 1103.46 1203.92Z"/><path fill="#FAF9F9" d="M1203.85 702.396L1203.82 735.968C1192.9 735.738 1181.37 735.914 1170.4 735.902C1169.95 725.259 1170.21 713.236 1170.25 702.499C1181.07 702.209 1192.89 702.5 1203.85 702.396Z"/><path fill="#FAF9F9" d="M1103.57 836.395C1114.72 836.272 1125.87 836.238 1137.03 836.294C1136.87 847.391 1136.96 858.689 1136.94 869.803C1125.77 869.836 1115.03 870.096 1103.86 869.55C1102.95 866.478 1103.51 841.253 1103.57 836.395Z"/><path fill="#FAF9F9" d="M401.134 1204.02C412.254 1203.9 423.375 1203.89 434.496 1203.97C434.668 1215.07 434.652 1226.18 434.45 1237.28C423.33 1237.43 412.21 1237.48 401.09 1237.42C400.982 1226.28 400.997 1215.15 401.134 1204.02Z"/><path fill="#FAF9F9" d="M1137.04 33.6575C1136.69 44.2978 1136.98 56.3504 1136.99 67.0985C1126.06 67.4226 1114.54 67.2157 1103.56 67.1827C1103.19 56.6033 1103.47 44.6029 1103.49 33.92C1113.97 33.4354 1126.36 33.7283 1137.04 33.6575Z"/><path fill="#FAF9F9" d="M1103.47 301.258C1114.66 301.338 1125.84 301.331 1137.03 301.238C1136.95 312.439 1136.94 323.641 1137 334.842C1125.91 334.507 1114.9 335.024 1103.51 334.525C1103.36 323.543 1103.48 312.265 1103.47 301.258Z"/><path fill="#FAF9F9" d="M1036.55 267.794L1036.54 301.288L1003.03 301.258L1003 267.939C1014.18 267.711 1025.37 267.663 1036.55 267.794Z"/><path fill="#FAF9F9" d="M-2.17534e-15 1203.99C11.1534 1203.85 22.3082 1203.84 33.4616 1203.98C33.4916 1214.84 33.7247 1226.48 33.2966 1237.27C22.1981 1237.39 11.0991 1237.45 5.43836e-16 1237.43L0 1203.99L-2.17534e-15 1203.99Z"/><path fill="#FAF9F9" d="M1036.53 769.168C1046.65 769.322 1059.68 769.532 1069.76 769.165C1069.88 780.104 1069.6 791.986 1069.95 802.75C1058.82 802.862 1047.69 802.861 1036.57 802.749C1036.23 791.824 1036.48 780.15 1036.53 769.168Z"/><path fill="#FAF9F9" d="M1203.89 1036.77L1203.82 1070.28L1170.4 1070.24C1170.03 1059.51 1170.25 1047.68 1170.24 1036.88C1181.46 1036.76 1192.67 1036.72 1203.89 1036.77Z"/><path fill="#FAF9F9" d="M735.994 1204.04C747.118 1203.85 758.244 1203.83 769.368 1203.98L769.265 1237.38L735.999 1237.43C735.788 1226.3 735.787 1215.17 735.994 1204.04Z"/><path fill="#FAF9F9" d="M1203.82 401.654C1214.91 401.783 1226.01 401.799 1237.1 401.701C1237.19 412.683 1237.46 424.229 1237.23 435.168L1203.82 435.241L1203.82 401.654Z"/><path fill="#FAF9F9" d="M1203.84 100.464L1203.83 134.126C1193.86 133.643 1180.6 134.037 1170.36 134.071C1170.1 123.116 1170.27 111.795 1170.29 100.812C1181.47 100.865 1192.66 100.749 1203.84 100.464Z"/><path fill="#FAF9F9" d="M1203.89 635.6L1203.82 669.023C1192.9 668.718 1181.31 668.884 1170.34 668.864C1170.02 658.237 1170.26 646.487 1170.25 635.774C1181.1 635.397 1192.95 635.617 1203.89 635.6Z"/><path fill="#FAF9F9" d="M1203.87 802.924C1214.99 802.799 1226.11 802.747 1237.23 802.769C1237.26 813.926 1237.22 825.083 1237.11 836.24L1203.82 836.288C1203.82 825.213 1203.72 813.984 1203.87 802.924Z"/><path fill="#FAF9F9" d="M902.652 769.289L935.852 769.197C936.244 780.501 936.084 791.516 936.159 802.801C924.976 802.892 913.793 802.864 902.611 802.716C902.453 791.574 902.467 780.431 902.652 769.289Z"/><path fill="#FAF9F9" d="M1170.33 970.047L1203.82 969.941C1203.83 981.029 1203.96 992.332 1203.84 1003.4L1170.26 1003.39C1170.2 992.273 1170.23 981.16 1170.33 970.047Z"/><path fill="#FAF9F9" d="M1003 100.443L1003.01 134.154L969.53 134.021C969.066 123.74 969.402 111.214 969.403 100.768C980.15 100.742 992.373 100.988 1003 100.443Z"/><path fill="#FAF9F9" d="M1003 802.903L1036.57 802.749L1036.49 836.208C1025.35 836.331 1014.21 836.339 1003.07 836.233L1003 802.903Z"/><path fill="#FAF9F9" d="M1170.22 836.29C1180.65 836.331 1193.49 836.649 1203.82 836.288L1203.83 869.66C1192.66 869.966 1181.48 869.92 1170.32 869.523C1170.07 858.538 1170.46 847.394 1170.22 836.29Z"/><path fill="#FAF9F9" d="M1036.57 702.626C1047.69 702.462 1058.81 702.403 1069.94 702.45L1069.89 735.9L1036.57 735.889C1036.44 724.802 1036.44 713.713 1036.57 702.626Z"/><path fill="#FAF9F9" d="M0 702.313L33.0645 702.313C33.0409 713.884 33.6331 724.727 33.6768 735.99L0 735.99L0 702.313Z"/><path fill="#FAF9F9" d="M467.922 1204C479.065 1203.91 490.209 1203.9 501.353 1203.98L501.342 1237.19C491.251 1237.81 478.18 1237.44 467.862 1237.47L467.922 1204Z"/><path fill="#FAF9F9" d="M936.122 268.073C947.229 267.729 958.343 267.647 969.454 267.828L969.39 301.242C958.298 301.372 947.204 301.364 936.111 301.216C936.009 290.168 936.012 279.12 936.122 268.073Z"/><path fill="#FAF9F9" d="M1036.58 134.112C1036.08 144.533 1037.15 157.129 1036.29 167.265C1026.98 167.775 1012.32 167.662 1003.01 167.324L1003.01 134.154C1010.83 134.181 1029.64 134.785 1036.58 134.112Z"/><path fill="#FAF9F9" d="M1203.84 468.466C1214.97 468.552 1226.11 468.565 1237.24 468.505L1237.11 501.638C1232.67 502.505 1209.77 501.979 1203.9 501.913C1203.74 490.765 1203.73 479.615 1203.84 468.466Z"/><path fill="#FAF9F9" d="M1103.44 134.194L1103.38 167.492C1092.27 167.646 1081.15 167.613 1070.04 167.393C1069.56 156.724 1069.71 144.934 1070.05 134.265L1103.44 134.194Z"/><path fill="#FAF9F9" d="M1003.01 1204.03C1014.18 1203.89 1025.36 1203.87 1036.54 1203.98L1036.53 1237.3C1025.36 1237.41 1014.19 1237.46 1003.01 1237.44L1003.01 1204.03Z"/><path fill="#FAF9F9" d="M1002.99 67.2582C1014.1 67.2722 1025.44 67.1345 1036.51 67.2671C1036.51 78.0887 1036.72 89.6473 1036.45 100.408C1025.63 100.473 1013.73 100.786 1003 100.443L1002.99 67.2582Z"/><path fill="#FAF9F9" d="M1103.48 100.65C1112.08 100.699 1129.04 101.244 1137.02 100.566L1137.02 134.156C1127.55 133.709 1113.01 133.967 1103.44 134.194L1103.48 100.65Z"/><path fill="#FAF9F9" d="M1203.82 1070.28C1214.98 1070.43 1226.14 1070.42 1237.3 1070.26C1237.33 1081.38 1237.24 1092.51 1237.04 1103.63C1225.98 1103.75 1214.91 1103.67 1203.85 1103.37C1203.52 1092.74 1203.79 1081 1203.82 1070.28Z"/><path fill="#FAF9F9" d="M835.933 1170.66C847.079 1170.53 858.225 1170.49 869.371 1170.54C869.339 1181.04 869.633 1193.42 869.23 1203.75C858.614 1203.81 846.4 1203.55 835.925 1203.92C835.823 1192.83 835.826 1181.75 835.933 1170.66Z"/><path fill="#FAF9F9" d="M1103.83 368.361C1113.37 368.12 1128.33 368.825 1137.01 368.192L1137 401.66L1103.51 401.592C1103.46 396.874 1103 371.248 1103.83 368.361Z"/><path fill="#FAF9F9" d="M1036.55 33.7223L1069.9 33.6967C1069.89 44.1262 1069.54 56.9265 1070.02 67.1649C1059.86 67.2253 1046.57 67.6029 1036.59 66.8212C1036.28 55.6398 1036.76 44.6965 1036.55 33.7223Z"/><path fill="#FAF9F9" d="M1036.54 301.288L1069.88 301.281C1069.94 312.334 1069.9 323.388 1069.75 334.441C1058.69 334.94 1047.61 334.999 1036.54 334.618C1036.44 323.508 1036.44 312.398 1036.54 301.288Z"/><path fill="#FAF9F9" d="M1137.06 267.847L1170.22 267.704C1170.24 278.623 1170.48 290.333 1170.24 301.184C1159.17 301.353 1148.1 301.372 1137.03 301.238C1136.98 290.108 1136.99 278.977 1137.06 267.847Z"/><path fill="#FAF9F9" d="M1203.82 669.023L1237.22 669.145C1237.32 680.229 1237.32 691.314 1237.23 702.398L1203.85 702.396C1203.72 691.272 1203.71 680.147 1203.82 669.023Z"/><path fill="#FAF9F9" d="M1036.58 368.35C1047.57 368.211 1058.55 368.205 1069.54 368.331C1070.61 376.5 1069.63 392.649 1069.95 401.575L1036.56 401.613C1036.47 390.526 1036.48 379.437 1036.58 368.35Z"/><path fill="#FAF9F9" d="M1036.56 100.777C1047.5 100.609 1058.45 100.631 1069.39 100.841C1070.5 103.833 1069.72 128.893 1069.92 134.052C1060.07 134.031 1046.05 133.59 1036.58 134.112C1036.46 123 1036.45 111.889 1036.56 100.777Z"/><path fill="#FAF9F9" d="M1203.79 368.158L1203.82 401.654C1194.32 401.121 1180.36 401.616 1170.26 401.489L1170.3 368.458C1181.28 368.092 1192.8 368.189 1203.79 368.158Z"/><path fill="#FAF9F9" d="M1203.83 134.126C1214.93 134.259 1226.04 134.29 1237.15 134.219L1237.26 167.281C1227.16 167.984 1213.96 167.526 1203.78 167.367L1203.83 134.126Z"/><path fill="#FAF9F9" d="M702.282 1170.63C711.445 1170.6 727.257 1171.07 735.878 1170.39L735.928 1203.8C725.239 1203.81 712.913 1203.52 702.366 1203.9L702.282 1170.63Z"/><path fill="#FAF9F9" d="M936.151 1203.9C947.263 1203.86 958.374 1203.89 969.484 1203.99L969.38 1237.41C958.408 1237.41 947.113 1237.55 936.167 1237.34L936.151 1203.9Z"/><path fill="#FAF9F9" d="M1137 401.66L1170.17 401.721C1170.26 412.909 1170.28 424.098 1170.23 435.287L1137.11 435.159L1137 401.66Z"/><path fill="#FAF9F9" d="M1203.84 1003.4C1214.94 1003.52 1226.03 1003.58 1237.12 1003.57C1237.36 1014.6 1237.3 1025.62 1236.96 1036.64C1226.83 1036.68 1213.69 1036.32 1203.89 1036.77C1203.77 1025.65 1203.76 1014.52 1203.84 1003.4Z"/><path fill="#FAF9F9" d="M1036.6 234.473L1069.96 234.481C1069.94 241.905 1070.59 261.547 1069.89 267.75C1059.08 267.476 1047.56 267.952 1036.55 267.794C1036.5 256.687 1036.51 245.58 1036.6 234.473Z"/><path fill="#FAF9F9" d="M1103.47 1170.65C1111.83 1170.58 1129.7 1171.08 1137 1170.38L1136.99 1203.81C1126.25 1203.84 1114.07 1203.57 1103.46 1203.92L1103.47 1170.65Z"/><path fill="#FAF9F9" d="M1203.84 67.2503C1214.97 67.3188 1226.11 67.2961 1237.24 67.1819L1237.13 100.453L1203.84 100.464C1203.77 89.3925 1203.77 78.3213 1203.84 67.2503Z"/><path fill="#FAF9F9" d="M1137.02 134.156C1147.65 134.213 1159.87 134.501 1170.36 134.071C1170.36 145.154 1170.53 156.286 1170.2 167.359C1159.15 167.645 1148.08 167.597 1137.03 167.215L1137.02 134.156Z"/><path fill="#FAF9F9" d="M167.209 1170.66C175.017 1170.63 193.619 1171.1 200.732 1170.38L200.722 1203.78C190.098 1203.82 177.658 1203.52 167.211 1203.87L167.209 1170.66Z"/><path fill="#FAF9F9" d="M1170.23 435.287C1180.58 435.293 1193.68 435.663 1203.82 435.241L1203.84 468.466L1170.48 468.39C1169.98 458.054 1170.26 445.767 1170.23 435.287Z"/><path fill="#FAF9F9" d="M1203.82 735.968L1237.21 735.95C1237.18 747.036 1237.27 758.234 1237.1 769.304L1203.83 769.18C1203.68 758.193 1203.81 746.974 1203.82 735.968Z"/><path fill="#FAF9F9" d="M1137.03 1204.04C1148.1 1203.86 1159.17 1203.83 1170.24 1203.97L1170.25 1237.38C1159.21 1237.38 1148.06 1237.29 1137.02 1237.43L1137.03 1204.04Z"/><path fill="#FAF9F9" d="M1137.08 802.982C1147.83 802.599 1159.46 802.772 1170.28 802.735L1170.22 836.29C1159.6 836.012 1147.75 836.286 1137.03 836.294L1137.08 802.982Z"/><path fill="#FAF9F9" d="M1137 334.842L1170.21 334.853C1170.23 345.301 1170.6 357.819 1170.15 368.111C1159.12 368.279 1148.09 368.293 1137.06 368.152C1136.98 357.049 1136.96 345.946 1137 334.842Z"/><path fill="#FAF9F9" d="M936.055 67.2382L969.46 67.2506C969.465 77.6361 969.803 90.2202 969.288 100.433C958.69 100.533 946.597 100.915 936.12 100.443C936.131 89.5576 936.326 78.0772 936.055 67.2382Z"/><path fill="#FAF9F9" d="M1203.8 936.82L1237.23 936.748C1237.26 947.216 1237.59 959.596 1237 969.908L1203.82 969.941L1203.8 936.82Z"/><path fill="#FAF9F9" d="M301.254 735.99L334.318 735.99L334.318 769.055L301.254 769.055L301.254 735.99Z"/><path fill="#FAF9F9" d="M902.636 836.311C908.088 836.332 914.63 836.524 919.984 836.125C924.341 842.094 928.031 843.138 934.965 840.35C936.927 843.348 936.086 865.166 936.047 869.771C924.915 869.818 913.783 869.734 902.653 869.519C902.478 858.451 902.472 847.38 902.636 836.311Z"/><path fill="#FAF9F9" d="M1254 836.086L1254 869.744C1248.4 869.807 1242.8 869.764 1237.2 869.617C1236.61 859.601 1236.95 846.503 1237.14 836.365L1254 836.086Z"/><path fill="#FAF9F9" d="M1254 167.414L1254 201.176C1248.5 201.213 1242.84 201.093 1237.33 201.047C1236.67 190.616 1237.06 178.304 1237.19 167.75L1254 167.414Z"/><path fill="#FAF9F9" d="M1254 1036.72L1254 1070.27L1237.3 1070.26C1236.69 1059.96 1237.03 1047.4 1237.04 1036.93C1242.59 1036.76 1248.43 1036.79 1254 1036.72Z"/><path fill="#FAF9F9" d="M1254 969.978L1254 1003.41C1248.38 1003.53 1242.86 1003.34 1237.25 1003.18C1236.58 993.392 1237.02 979.988 1237.14 970.06L1254 969.978Z"/><path fill="#FAF9F9" d="M1254 100.62L1254 134.113L1237.32 134.008C1236.66 123.672 1237.02 111.405 1237.1 100.897L1254 100.62Z"/><path fill="#FAF9F9" d="M1237.26 502.138L1254 502.107L1254 535.433C1248.42 535.468 1242.83 535.385 1237.25 535.182C1236.64 525.622 1236.94 511.888 1237.26 502.138Z"/><path fill="#FAF9F9" d="M1237.23 568.897L1254 568.865L1254 602.225C1248.73 602.441 1242.66 602.282 1237.33 602.27C1237.03 591.148 1237 580.021 1237.23 568.897Z"/><path fill="#FAF9F9" d="M1237.26 903.245L1254 903.123L1254 936.483C1248.35 936.628 1242.95 936.487 1237.31 936.356C1236.72 926.463 1236.95 913.276 1237.26 903.245Z"/><path fill="#FAF9F9" d="M1254 33.7112L1254 67.2843L1237.28 66.9559C1236.64 56.7528 1237.03 44.2503 1237.11 33.8618L1254 33.7112Z"/><path fill="#FAF9F9" d="M1254 702.406L1254 735.945C1248.44 735.907 1242.87 735.833 1237.31 735.723C1237.12 724.707 1237.07 713.69 1237.16 702.673C1242.44 702.307 1248.64 702.429 1254 702.406Z"/><path fill="#FAF9F9" d="M1254 769.181L1254 802.782C1248.49 802.827 1242.85 802.713 1237.33 802.665C1236.65 793.863 1237.24 779.1 1237.17 769.562C1242.78 769.402 1248.39 769.275 1254 769.181Z"/><path fill="#FAF9F9" d="M1254 1103.57L1254 1137.1L1237.38 1136.97C1236.74 1126.53 1237.06 1114.37 1237.27 1103.87L1254 1103.57Z"/><path fill="#FAF9F9" d="M1237.19 234.56L1254 234.498L1254 267.668C1248.53 267.766 1242.83 267.641 1237.34 267.601C1236.58 257.944 1237.08 244.481 1237.19 234.56Z"/><path fill="#FAF9F9" d="M1254 368.223L1254 401.582L1237.21 401.534C1236.74 390.702 1237.18 379.278 1237.26 368.356L1254 368.223Z"/><path fill="#FAF9F9" d="M1237.17 435.334L1254 435.262L1254 468.391L1237.32 468.403C1236.58 458.96 1237.07 444.964 1237.17 435.334Z"/><path fill="#FAF9F9" d="M167.141 1237.47C177.663 1237.52 190.32 1237.76 200.807 1237.4L200.708 1254L167.178 1254L167.141 1237.47Z"/><path fill="#FAF9F9" d="M1103.42 1237.43C1113.31 1237.46 1127.49 1237.96 1137.02 1237.43L1136.99 1254L1103.44 1254L1103.42 1237.43Z"/><path fill="#FAF9F9" d="M969.446 1237.55L1003.01 1237.44C1003.01 1242.9 1003.09 1248.56 1002.98 1254L969.417 1254L969.446 1237.55Z"/><path fill="#FAF9F9" d="M467.862 1237.47L467.805 1254L434.334 1254L434.375 1237.56L467.862 1237.47Z"/><path fill="#FAF9F9" d="M234.122 1237.53C245.189 1237.5 256.566 1237.32 267.605 1237.56L267.551 1254L234.123 1254L234.122 1237.53Z"/><path fill="#FAF9F9" d="M401.09 1237.42L401.102 1254L367.754 1254C367.48 1249.16 367.774 1242.51 367.85 1237.54C378.93 1237.6 390.011 1237.56 401.09 1237.42Z"/><path fill="#FAF9F9" d="M501.457 1237.55C512.561 1237.43 523.667 1237.4 534.772 1237.46L534.651 1254L501.298 1254L501.457 1237.55Z"/><path fill="#FAF9F9" d="M1036.56 1237.42L1069.94 1237.46C1069.95 1242.26 1070.18 1249.38 1069.85 1254L1036.49 1254C1036.4 1248.47 1036.42 1242.95 1036.56 1237.42Z"/><path fill="#FAF9F9" d="M301.178 1237.55C312.243 1237.47 323.309 1237.46 334.374 1237.52L334.428 1254L301.121 1254C301.2 1248.52 301.219 1243.03 301.178 1237.55Z"/><path fill="#FAF9F9" d="M314.829 803.344C320.435 803.425 325 803.231 330.614 802.592C331.438 802.499 332.533 803.369 333.198 803.901C335.006 807.427 335.052 823.139 333.309 826.421C326.152 818.407 321.298 811.966 314.829 803.344Z"/><path fill="#00425D" d="M852.594 939.281C861.885 939.083 867.051 945.625 862.744 953.887C859.025 959.34 849.559 963.717 844.077 967.053C776.306 1008.3 705.948 1030.82 626.551 1030.57C539.784 1030.29 474.236 1006.34 400.123 962.639C397.861 961.343 394.379 959.562 392.7 957.614C384.541 948.144 391.952 936.067 403.989 941.845C414.089 947.047 423.721 953.185 433.701 958.691C542.738 1018.86 663.456 1028.75 779.12 978.197C794.315 971.474 809.138 963.939 823.525 955.625C831.921 950.8 843.952 942.771 852.594 939.281Z"/><path fill="#00425D" d="M634.855 179.139C647.935 180.17 659.062 189.076 662.932 201.612C666.433 212.954 663.372 225.301 654.98 233.694C649.636 239.038 642.573 242.32 635.042 242.957C624.389 243.86 613.989 239.385 607.319 231.03C600.65 222.675 598.59 211.541 601.83 201.353C602.222 200.122 602.688 198.916 603.225 197.741C608.817 185.514 621.452 178.083 634.855 179.139Z"/><path fill="#FAF9F9" d="M635.55 223.068C630.336 224.587 624.734 222.592 621.655 218.117C618.576 213.642 618.714 207.697 621.997 203.369C625.28 199.042 630.968 197.308 636.107 199.067C641.3 200.846 644.743 205.783 644.615 211.271C644.488 216.759 640.821 221.532 635.55 223.068Z"/><path fill="#FAF9F9" d="M568.189 100.752C579.232 100.741 590.77 100.898 601.772 100.626L601.743 134.215L635.12 134.207C635.258 143.887 635.797 158.479 635.168 167.758C646.371 167.572 657.575 167.539 668.779 167.657C668.755 172.267 669.77 198.941 667.945 200.748C666.159 201.112 664.761 201.392 662.932 201.612C659.062 189.076 647.935 180.17 634.855 179.139C635.056 175.275 635.078 171.379 635.14 167.507C624.132 167.732 612.851 167.483 601.797 167.569C600.911 158.898 601.614 143.27 601.83 134.102L568.225 134.183L568.189 100.752Z"/><path fill="#FAF9F9" d="M1002.99 969.928C1003.08 981.115 1003.07 992.302 1002.95 1003.49C1013.9 1003.47 1025.66 1003.68 1036.54 1003.38L1036.55 1036.78C1025.88 1036.76 1013.54 1036.43 1003.03 1036.76L1003.04 1003.31C991.868 1003.45 980.698 1003.41 969.531 1003.21C969.204 992.358 969.395 980.948 969.418 970.05L1002.99 969.928Z"/><path fill="#FAF9F9" d="M200.836 1003.57C200.825 999.167 200.51 972.633 201.13 970.126L201.742 969.891L233.9 969.891C233.892 976.591 232.506 998.268 234.991 1003L234.514 1004.01C223.484 1003.33 211.926 1003.54 200.836 1003.57L200.836 1036.63L167.159 1036.63L167.159 1003.57L200.836 1003.57Z"/><path fill="#FAF9F9" d="M1069.37 167.662C1070.53 170.344 1069.79 195.727 1070.03 200.984C1058.87 201.193 1047.7 201.272 1036.54 201.22L1036.49 234.294C1025.34 234.452 1014.19 234.5 1003.04 234.437L1003.03 201.201C1014.23 200.918 1025.44 200.92 1036.63 201.209C1036.44 190.04 1036.41 178.868 1036.56 167.698C1047.45 167.668 1058.5 167.536 1069.37 167.662Z"/><path fill="#FAF9F9" d="M1103.49 167.791C1114.67 167.607 1125.85 167.535 1137.04 167.576C1136.98 178.712 1136.97 189.848 1137.03 200.984C1125.68 201.438 1114.8 201.133 1103.48 201.08L1103.44 234.383L1070.03 234.385C1069.77 223.327 1069.73 212.264 1069.9 201.204C1081.09 201.047 1092.29 201.024 1103.49 201.135L1103.49 167.791Z"/><path fill="#FAF9F9" d="M936.169 201.264C947.532 200.976 958.129 201.045 969.473 201.134C969.554 212.097 969.545 223.061 969.446 234.024C965.415 234.963 941.902 234.4 936.144 234.325L935.999 267.701C924.949 267.86 913.898 267.831 902.849 267.615C902.647 256.548 902.552 245.479 902.564 234.41C913.774 234.538 924.986 234.548 936.196 234.442C936.102 223.383 936.093 212.323 936.169 201.264Z"/><path fill="#FAF9F9" d="M1036.53 635.652C1047.67 635.588 1058.81 635.583 1069.96 635.637C1070.06 646.729 1070.04 657.821 1069.9 668.912L1043.37 669.001L1036.58 668.912C1036.63 673.818 1036.57 678.724 1036.4 683.627C1035.86 679.581 1036.02 674.057 1036.02 669.861C1031.91 669.941 1029.68 669.999 1025.58 669.518L1025.55 669.4L1026.63 669.562L1027.02 669.159C1029.59 668.895 1033.9 669.055 1036.61 669.073C1036.19 658.587 1036.51 646.272 1036.53 635.652Z"/><path fill="#FAF9F9" d="M167.159 802.731L200.836 802.731L200.836 836.408L167.159 836.408L167.159 802.731Z"/><path fill="#FAF9F9" d="M267.577 1036.63L301.254 1036.63L301.254 1070.31L267.577 1070.31L267.577 1036.63Z"/><path fill="#FAF9F9" d="M1036.33 568.825L1069.88 568.864C1069.48 578.804 1069.95 591.893 1069.92 602.13C1059.78 602.542 1047.63 602.257 1037.34 602.269C1035.62 604.838 1036.89 628.714 1036.31 634.402C1035.35 630.325 1036.37 601.306 1036.43 595.175C1036.51 587.075 1036.42 577.145 1036.33 568.825Z"/><path fill="#FAF9F9" d="M969.449 167.765C979.835 167.263 992.399 167.576 1002.95 167.567C1003.03 178.516 1003.3 190.065 1002.88 200.957C991.777 201.23 980.668 201.256 969.562 201.036C969.047 190.883 969.424 178.107 969.449 167.765Z"/><path fill="#FAF9F9" d="M568.152 167.759C579.352 167.593 590.554 167.516 601.755 167.527C601.76 174.694 600.503 192.458 603.225 197.741C602.688 198.916 602.222 200.122 601.83 201.353C599.919 201.482 594.875 201.072 592.383 201.091C584.353 201.154 576.277 201.279 568.259 200.941L568.152 167.759Z"/><path fill="#FAF9F9" d="M1170.23 167.782C1180.63 167.273 1193.29 167.582 1203.86 167.564C1203.8 178.718 1203.81 189.872 1203.87 201.026C1192.56 201.052 1181.73 201.313 1170.39 201.059C1170.01 190.413 1170.25 178.522 1170.23 167.782Z"/><path fill="#FAF9F9" d="M969.533 836.538C978.115 835.691 994.133 836.265 1002.95 836.39C1003.01 847.453 1003.21 858.801 1002.95 869.838C991.829 869.614 980.686 869.922 969.541 869.679C969.243 858.523 969.44 847.678 969.533 836.538Z"/><path fill="#FAF9F9" d="M1103.5 769.296C1114.67 769.229 1125.84 769.23 1137.01 769.299C1136.86 780.355 1136.98 791.698 1136.98 802.777C1125.86 802.878 1114.74 802.855 1103.62 802.708C1103.12 792.316 1103.46 779.822 1103.5 769.296Z"/><path fill="#FAF9F9" d="M635.218 33.8042C646.428 33.6904 657.639 33.6682 668.849 33.7376C668.663 44.7606 669.039 56.2167 668.583 67.0839C657.687 67.37 646.258 67.1592 635.321 67.116C634.796 56.8206 635.115 44.168 635.218 33.8042Z"/><path fill="#FAF9F9" d="M1069.91 802.881C1081.09 802.753 1092.26 802.748 1103.44 802.865C1103.56 813.99 1103.52 825.116 1103.32 836.24C1092.25 836.304 1081.19 836.303 1070.12 836.238C1069.62 825.407 1069.86 813.783 1069.91 802.881Z"/><path fill="#FAF9F9" d="M1003.03 1036.76L1002.98 1070.29C992.172 1070.03 980.431 1070.27 969.549 1070.27C969.236 1059.32 969.401 1048.02 969.433 1037.04C979.425 1036.39 992.788 1036.76 1003.03 1036.76Z"/><path fill="#FAF9F9" d="M1002.95 869.838C1014.14 869.667 1025.33 869.619 1036.52 869.694L1036.56 903.16C1026.27 902.771 1013.52 903.156 1002.98 903.147C1003.08 892.078 1002.98 880.915 1002.95 869.838Z"/><path fill="#FAF9F9" d="M1137.05 568.816C1136.78 579.595 1137 591.282 1136.99 602.134C1126.48 602.571 1114.11 602.268 1103.47 602.275L1103.42 568.851L1137.05 568.816Z"/><path fill="#FAF9F9" d="M1002.99 1103.41C1003.05 1114.61 1003.04 1125.82 1002.97 1137.03L969.587 1137C969.175 1126.22 969.399 1114.7 969.431 1103.86C980.437 1103.42 991.878 1103.62 1002.99 1103.41Z"/><path fill="#FAF9F9" d="M643.996 100.728C652.254 100.636 660.512 100.59 668.771 100.59C668.683 111.744 668.719 122.899 668.881 134.052L659.939 134.153C651.729 134.174 643.518 134.124 635.308 134.002C634.826 124.123 635.217 110.983 635.211 100.853L643.996 100.728Z"/><path fill="#FAF9F9" d="M936.09 969.931L936.127 1003.42C925.016 1003.19 913.986 1003.48 902.721 1003.19C902.468 992.182 902.446 981.168 902.655 970.158C913.74 969.951 924.995 969.964 936.09 969.931Z"/><path fill="#FAF9F9" d="M702.356 167.746C713.406 167.478 724.873 167.602 735.955 167.577C735.936 178.617 735.843 189.657 735.678 200.696C732.89 201.663 707.62 201.094 702.778 201.036C701.855 193.86 702.342 175.436 702.356 167.746Z"/><path fill="#FAF9F9" d="M1203.88 234.463C1203.72 245.415 1203.88 256.751 1203.88 267.734C1192.68 267.847 1181.48 267.818 1170.28 267.646L1170.19 234.443C1180.77 234.589 1193.34 234.765 1203.88 234.463Z"/><path fill="#FAF9F9" d="M601.866 67.3573C612.982 67.1842 624.099 67.179 635.215 67.3418C635.38 78.0295 635.277 88.9451 635.285 99.6515C632.89 101.257 606.789 100.572 601.799 100.499C601.131 90.3646 601.66 77.7119 601.866 67.3573Z"/><path fill="#FAF9F9" d="M902.643 100.915C913.799 100.68 924.957 100.565 936.115 100.569C936.116 111.426 936.362 123.316 936.034 134.089C926.273 134.085 911.965 133.585 902.622 134.219C902.546 123.118 902.553 112.016 902.643 100.915Z"/><path fill="#FAF9F9" d="M1069.96 1137.06L1103.44 1137.07C1103.41 1147.7 1103.75 1159.81 1103.29 1170.31C1092.17 1170.64 1081.05 1170.64 1069.93 1170.31C1069.35 1160.77 1069.8 1146.79 1069.96 1137.06Z"/><path fill="#FAF9F9" d="M1137.04 903.11C1136.73 913.701 1137.01 925.71 1137.02 936.414C1125.85 936.584 1114.67 936.651 1103.5 936.613L1103.46 903.201C1114.65 903.243 1125.84 903.213 1137.04 903.11Z"/><path fill="#FAF9F9" d="M1070.06 468.592L1103.45 468.538L1103.45 502.023L1070.12 501.993C1069.67 490.865 1069.65 479.723 1070.06 468.592Z"/><path fill="#FAF9F9" d="M1069.95 401.769L1103.45 401.682L1103.46 435.305L1069.99 435.225C1069.76 424.074 1069.74 412.92 1069.95 401.769Z"/><path fill="#FAF9F9" d="M1103.81 1103.82C1115 1103.35 1126.04 1104.01 1137.02 1103.61L1137.02 1137.05C1125.85 1137.1 1114.67 1137.04 1103.5 1136.86C1103.46 1132.26 1103.03 1106.65 1103.81 1103.82Z"/><path fill="#FAF9F9" d="M936.204 1036.77L936.014 1070.24C924.919 1070.36 913.822 1070.33 902.727 1070.15C902.271 1059.68 902.545 1047.54 902.536 1036.95C913.343 1036.59 925.31 1036.81 936.204 1036.77Z"/><path fill="#FAF9F9" d="M1036.58 836.397C1047.72 836.26 1058.85 836.253 1069.98 836.378C1069.73 847.284 1069.87 858.797 1069.83 869.76C1058.57 869.828 1047.78 869.922 1036.52 869.557C1036.06 859.393 1036.5 846.739 1036.58 836.397Z"/><path fill="#FAF9F9" d="M367.899 1203.88C367.609 1214.65 367.837 1226.48 367.82 1237.35L334.407 1237.4L334.445 1204.03L367.899 1203.88Z"/><path fill="#FAF9F9" d="M1137.07 702.354L1137.02 735.915L1103.51 735.823C1103.25 724.983 1103.48 713.361 1103.5 702.462L1137.07 702.354Z"/><path fill="#FAF9F9" d="M1070.19 870.058C1079.82 869.583 1093.69 869.464 1103.43 869.864L1103.46 903.201C1092.34 903.075 1081.23 903.022 1070.11 903.042C1070 898.65 1069.21 873 1070.19 870.058Z"/><path fill="#FAF9F9" d="M1137.03 1036.81L1137.02 1070.28L1103.49 1070.23L1103.49 1036.99C1114.67 1036.81 1125.85 1036.75 1137.03 1036.81Z"/><path fill="#FAF9F9" d="M1002.98 903.147L1003.01 936.48C992.03 936.75 980.582 936.546 969.565 936.502C969.142 925.777 969.382 914.002 969.395 903.199L1002.98 903.147Z"/><path fill="#FAF9F9" d="M1170.24 568.795C1181.44 568.97 1192.64 568.973 1203.84 568.806L1203.89 601.983C1193.33 602.607 1180.85 602.403 1170.28 602.021L1170.24 568.795Z"/><path fill="#FAF9F9" d="M635.268 970.024C644.363 969.98 660.069 969.473 668.707 970.234C668.77 978.581 669.281 995.253 668.422 1003.26C657.32 1003.42 646.217 1003.46 635.114 1003.39L635.268 970.024Z"/><path fill="#FAF9F9" d="M167.159 869.473C170.896 869.377 199.419 870.116 200.419 870.895C201.192 876.396 200.711 895.383 200.836 902.443C199.344 903.762 171.337 903.161 167.159 903.149L167.159 869.473Z"/><path fill="#FAF9F9" d="M1002.97 1137.03C1013.81 1137.03 1025.84 1137.32 1036.57 1137.03L1036.51 1170.3C1026.35 1170.67 1013.13 1170.65 1003.06 1170.3C1002.88 1159.34 1003 1148.02 1002.97 1137.03Z"/><path fill="#FAF9F9" d="M969.474 234.529L1003.04 234.437L1003 267.747C991.852 267.922 980.7 267.883 969.552 267.629C969.134 256.855 969.379 245.356 969.474 234.529Z"/><path fill="#FAF9F9" d="M668.761 201.276C679.965 201.17 691.168 201.127 702.372 201.148L702.305 234.184C691.149 234.453 679.99 234.536 668.831 234.433C668.508 223.384 668.485 212.327 668.761 201.276Z"/><path fill="#FAF9F9" d="M1137.02 969.951L1137.03 1003.21C1125.97 1003.45 1114.57 1003.39 1103.48 1003.49L1103.44 969.969C1113.78 969.978 1126.93 970.385 1137.02 969.951Z"/><path fill="#FAF9F9" d="M1070.09 67.3535C1081.21 67.15 1092.32 67.1455 1103.43 67.3401C1103.48 78.3565 1103.46 89.3731 1103.38 100.389C1092.27 100.583 1081.15 100.591 1070.04 100.416C1069.47 90.7514 1069.7 77.1185 1070.09 67.3535Z"/><path fill="#FAF9F9" d="M936.029 869.907C947.146 869.635 958.269 869.608 969.388 869.824C969.502 880.949 969.504 892.075 969.395 903.199C958.312 903.121 947.228 903.103 936.145 903.147C936.005 892.067 935.967 880.987 936.029 869.907Z"/><path fill="#FAF9F9" d="M1103.45 502.023C1113.71 502.125 1126.94 502.446 1137.04 502.081C1136.51 511.43 1136.99 525.482 1137 535.19C1125.84 535.416 1114.68 535.468 1103.52 535.347C1103.21 524.667 1103.46 512.797 1103.45 502.023Z"/><path fill="#FAF9F9" d="M668.975 267.916L702.281 267.889L702.266 301.224L668.949 301.555L668.975 267.916Z"/><path fill="#FAF9F9" d="M1170.57 1103.83C1180.75 1103.7 1194.04 1104.03 1203.83 1103.63L1203.81 1137.06L1170.33 1136.98C1170.29 1132.65 1169.8 1106.28 1170.57 1103.83Z"/><path fill="#FAF9F9" d="M568.225 134.183L568.125 167.398C557.027 167.513 545.928 167.553 534.83 167.52C534.126 160.644 534.401 141.09 534.819 134.186L568.225 134.183Z"/><path fill="#FAF9F9" d="M1069.96 602.33C1080.96 602.099 1092.41 602.295 1103.44 602.331C1103.49 613.398 1103.45 624.465 1103.33 635.531C1092.26 635.671 1081.2 635.656 1070.14 635.485C1069.68 624.69 1069.91 613.187 1069.96 602.33Z"/><path fill="#FAF9F9" d="M869.374 1036.75L869.351 1070.28L836.017 1070.25C835.791 1059.15 835.752 1048.05 835.901 1036.95C847.046 1036.77 858.207 1036.92 869.374 1036.75Z"/><path fill="#FAF9F9" d="M1036.57 1036.99C1047.71 1036.73 1058.86 1036.71 1070.01 1036.91C1069.87 1047.81 1069.68 1059.33 1069.95 1070.23L1036.61 1070.28C1036.46 1059.18 1036.45 1048.09 1036.57 1036.99Z"/><path fill="#FAF9F9" d="M702.371 100.833C712.58 100.471 726.485 101.223 735.884 100.524L735.948 134.027C725.294 134.107 712.806 133.789 702.362 134.149L702.371 100.833Z"/><path fill="#FAF9F9" d="M1069.97 535.495C1081.16 535.446 1092.34 535.456 1103.53 535.525C1103.43 546.633 1103.39 557.742 1103.42 568.851L1070.06 568.778C1069.76 557.686 1069.73 546.588 1069.97 535.495Z"/><path fill="#FAF9F9" d="M1036.48 1103.71C1047.3 1103.6 1058.11 1103.58 1068.93 1103.67C1071.03 1105.99 1069.79 1131.79 1070.03 1136.97L1036.57 1137.03C1036.44 1125.92 1036.41 1114.82 1036.48 1103.71Z"/><path fill="#FAF9F9" d="M1069.79 334.899C1080.54 334.559 1092.61 334.841 1103.46 334.854L1103.42 368.136C1092.29 368.314 1081.16 368.285 1070.03 368.049C1069.51 357.834 1069.81 345.285 1069.79 334.899Z"/><path fill="#FAF9F9" d="M936.119 1103.46L936.082 1137.03L902.753 1136.98C902.324 1126.17 902.509 1114.59 902.503 1103.72C913.709 1103.77 924.915 1103.69 936.119 1103.46Z"/><path fill="#FAF9F9" d="M1203.84 869.909C1214.83 869.456 1226.46 870.194 1236.91 869.708C1237.28 880.847 1237.34 891.994 1237.1 903.136C1226.26 903.134 1214.6 902.905 1203.84 903.146C1203.75 892.067 1203.75 880.988 1203.84 869.909Z"/><path fill="#FAF9F9" d="M1203.81 1137.06L1237.23 1137.06C1237.28 1147.95 1237.5 1159.45 1237.18 1170.3C1226.06 1170.54 1214.94 1170.55 1203.82 1170.34C1203.54 1159.64 1203.8 1147.84 1203.81 1137.06Z"/><path fill="#FAF9F9" d="M635.147 1170.69C646.333 1170.51 657.52 1170.47 668.706 1170.59C668.728 1180.2 669.183 1194.47 668.496 1203.78C657.472 1203.88 646.448 1203.91 635.425 1203.85C634.807 1193.22 635.356 1181.56 635.147 1170.69Z"/><path fill="#FAF9F9" d="M1002.98 1070.29L1036.61 1070.28L1036.49 1103.38C1025.33 1103.73 1014.15 1103.74 1002.99 1103.41L1002.98 1070.29Z"/><path fill="#FAF9F9" d="M1170.22 502.053C1181.38 502.159 1192.68 501.944 1203.79 502.144L1203.86 535.225C1192.61 535.403 1181.51 535.578 1170.26 535.137L1170.22 502.053Z"/><path fill="#FAF9F9" d="M702.362 134.149L702.248 167.361C691.452 167.745 679.701 167.576 668.886 167.405C668.509 157.559 668.567 144.083 668.912 134.205C680.062 134.27 691.213 134.251 702.362 134.149Z"/><path fill="#FAF9F9" d="M1069.89 669.167C1081.07 669.087 1092.25 669.107 1103.43 669.23L1103.4 702.278C1092.3 702.462 1081.19 702.481 1070.08 702.336C1069.57 691.645 1069.83 679.941 1069.89 669.167Z"/><path fill="#FAF9F9" d="M936.167 1070.35C940.887 1070.3 967.051 1069.81 969.582 1070.69C969.57 1081.39 969.704 1092.84 969.323 1103.51C958.256 1103.8 947.184 1103.78 936.119 1103.46C936.061 1092.42 936.077 1081.39 936.167 1070.35Z"/><path fill="#FAF9F9" d="M100.308 1170.6L133.774 1170.5L133.738 1203.84L100.344 1203.86L100.308 1170.6Z"/><path fill="#FAF9F9" d="M969.462 1170.62C980.409 1170.39 991.956 1170.56 1002.95 1170.55C1003.08 1181.65 1003.09 1192.75 1002.98 1203.85L969.569 1203.85C969.355 1192.77 969.32 1181.7 969.462 1170.62Z"/><path fill="#FAF9F9" d="M1070.01 735.963C1081.15 735.786 1092.3 735.776 1103.44 735.931L1103.41 769.153C1092.55 769.433 1080.85 769.199 1069.93 769.182C1069.58 758.353 1069.89 746.847 1070.01 735.963Z"/><path fill="#FAF9F9" d="M501.275 167.672C512.29 167.437 523.634 167.59 534.674 167.608L534.677 200.944C523.729 201.504 512.237 201.266 501.285 200.995C501.448 189.99 501.297 178.699 501.275 167.672Z"/><path fill="#FAF9F9" d="M1203.84 201.232C1214.99 201.053 1226.14 201.001 1237.3 201.077L1237.11 234.212C1226.16 234.922 1214.52 233.934 1203.88 234.463C1203.76 223.387 1203.75 212.309 1203.84 201.232Z"/><path fill="#FAF9F9" d="M902.601 903.184L936.145 903.147L936.094 936.315C925.44 936.832 913.437 936.639 902.678 936.592C902.547 925.457 902.521 914.32 902.601 903.184Z"/><path fill="#FAF9F9" d="M1203.84 903.146L1203.83 936.348C1192.67 936.745 1181.5 936.721 1170.34 936.276C1169.99 925.679 1170.27 913.93 1170.31 903.25C1181.48 903.274 1192.66 903.24 1203.84 903.146Z"/><path fill="#FAF9F9" d="M1137.03 635.586L1137.01 668.831C1125.98 669.035 1114.6 668.898 1103.54 668.903C1103.3 658.035 1103.47 646.631 1103.47 635.724C1114.66 635.737 1125.84 635.691 1137.03 635.586Z"/><path fill="#FAF9F9" d="M200.836 1036.63L233.9 1036.63C233.866 1042.17 232.939 1066.62 235.062 1070.31L200.836 1070.31L200.836 1036.63Z"/><path fill="#FAF9F9" d="M1069.96 1070.31L1103.43 1070.35C1103.51 1081.37 1103.49 1092.4 1103.34 1103.42C1092.79 1103.59 1080.47 1103.92 1070.06 1103.37C1069.59 1092.56 1069.86 1081.18 1069.96 1070.31Z"/><path fill="#FAF9F9" d="M668.762 67.3363C679.808 67.1289 691.188 67.2894 702.259 67.314L702.243 100.4C691.217 100.788 679.924 100.518 668.872 100.384C668.444 89.9383 668.744 77.8978 668.762 67.3363Z"/><path fill="#FAF9F9" d="M533.799 1170.39C533.827 1170.41 533.863 1170.42 533.882 1170.45C535.704 1173.07 534.661 1198.92 534.63 1203.84C523.806 1203.92 512.982 1203.92 502.158 1203.85C500.704 1201.82 501.339 1175.05 501.354 1170.62C512.032 1170.34 522.984 1170.65 533.799 1170.39Z"/><path fill="#FAF9F9" d="M1070.1 1003.54L1103.43 1003.54L1103.36 1036.75C1092.27 1036.88 1081.19 1036.9 1070.1 1036.81C1069.67 1025.72 1069.66 1014.63 1070.1 1003.54Z"/><path fill="#FAF9F9" d="M33.6768 802.731L66.7412 802.731L66.7412 836.408C60.3055 836.427 38.7332 836.821 33.8432 835.911C32.9659 832.633 33.6639 808.001 33.6768 802.731Z"/><path fill="#FAF9F9" d="M1137.07 67.3015C1148.2 67.1919 1159.32 67.1538 1170.44 67.187C1169.95 77.7718 1170.36 89.6587 1170.32 100.437C1159.05 100.669 1148.32 100.846 1137.05 100.368C1136.87 89.5164 1137.06 78.1896 1137.07 67.3015Z"/><path fill="#FAF9F9" d="M869.399 869.893C880.138 869.439 891.787 869.612 902.589 869.737L902.601 903.184C891.544 903.069 880.486 903.052 869.428 903.135C869.267 892.055 869.257 880.973 869.399 869.893Z"/><path fill="#FAF9F9" d="M268.042 1204.07C278.834 1203.78 290.205 1203.96 301.04 1203.97C300.94 1215.11 300.912 1226.26 300.955 1237.4L267.778 1237.37C267.658 1230.97 266.997 1209.08 268.042 1204.07Z"/><path fill="#FAF9F9" d="M1103.44 234.383C1111.79 234.612 1128.89 234.96 1137.07 234.418C1136.63 244.593 1137.02 257.391 1137.04 267.766L1103.55 267.757C1103.42 256.633 1103.38 245.508 1103.44 234.383Z"/><path fill="#FAF9F9" d="M836.108 167.688C846.645 167.32 858.523 167.572 869.16 167.56C869.14 173.104 869.736 196.482 868.752 200.914C859.255 201.321 845.529 201.299 836.108 200.934C836.133 189.531 835.829 179.292 836.108 167.688Z"/><path fill="#FAF9F9" d="M1036.59 1170.65C1047.72 1170.57 1058.85 1170.55 1069.97 1170.59C1069.65 1181.26 1069.88 1193.08 1069.86 1203.83C1058.78 1203.89 1047.7 1203.89 1036.62 1203.82C1036.33 1192.87 1036.52 1181.62 1036.59 1170.65Z"/><path fill="#FAF9F9" d="M1137.01 669.005C1148.07 669.094 1159.14 669.111 1170.21 669.056C1170.32 679.312 1170.77 692.285 1170.31 702.314C1159.23 702.433 1148.15 702.447 1137.07 702.354C1137.02 691.415 1136.78 679.9 1137.01 669.005Z"/><path fill="#FAF9F9" d="M1137.04 869.902C1147.8 869.443 1159.41 869.605 1170.23 869.703L1170.2 903.046L1137.04 903.11C1137.01 892.228 1136.79 880.737 1137.04 869.902Z"/><path fill="#FAF9F9" d="M1036.62 502.107C1047.7 502.029 1058.78 502.056 1069.86 502.191C1070.03 513.222 1069.69 524.18 1070.04 535.224C1058.89 535.499 1047.74 535.48 1036.59 535.168C1036.13 525.092 1036.54 512.394 1036.62 502.107Z"/><path fill="#FAF9F9" d="M601.715 936.7L635.166 936.778C635.371 947.814 635.4 958.853 635.253 969.89L601.664 969.923C601.548 958.849 601.565 947.774 601.715 936.7Z"/><path fill="#FAF9F9" d="M936.082 1137.03L969.566 1137.09C969.495 1148.06 969.548 1159.28 969.318 1170.24C958.245 1170.79 947.15 1170.74 936.081 1170.1C936.149 1159.07 936.149 1148.05 936.082 1137.03Z"/><path fill="#FAF9F9" d="M1069.94 936.768L1103.45 936.774L1103.44 969.969L1069.99 969.889C1069.73 959.196 1069.58 947.465 1069.94 936.768Z"/><path fill="#FAF9F9" d="M66.0625 1170.42L66.3969 1170.59C67.0364 1172.99 66.7333 1199.48 66.7245 1203.81C55.7476 1203.87 44.7704 1203.85 33.7937 1203.77C32.8622 1198.59 33.4037 1176.9 33.4546 1170.61L66.0625 1170.42Z"/><path fill="#FAF9F9" d="M1003 936.778C1012.98 936.765 1026.88 937.191 1036.52 936.65C1036.51 947.672 1036.62 958.905 1036.48 969.907L1002.99 969.928L1003 936.778Z"/><path fill="#FAF9F9" d="M1203.82 1170.34L1203.83 1203.88L1170.39 1203.81C1170.02 1193.12 1170.24 1181.42 1170.24 1170.66C1181.24 1170.46 1192.9 1170.93 1203.82 1170.34Z"/><path fill="#FAF9F9" d="M1036.56 903.16L1069.9 903.234L1069.94 936.344C1058.87 936.56 1047.63 936.892 1036.57 936.404C1036.38 925.324 1036.38 914.241 1036.56 903.16Z"/><path fill="#FAF9F9" d="M769.352 100.821C780.453 100.719 791.555 100.717 802.656 100.814C802.667 111.462 802.374 123.649 802.715 134.161C791.58 133.902 780.466 134.216 769.366 134.028C769.378 123.279 769.643 111.481 769.352 100.821Z"/><path fill="#FAF9F9" d="M367.837 1170.6C378.374 1170.59 390.499 1170.86 400.91 1170.4C401.171 1181.52 401.201 1192.66 400.998 1203.79L367.899 1203.88C367.599 1192.79 367.578 1181.69 367.837 1170.6Z"/><path fill="#FAF9F9" d="M936.127 1003.42C947.266 1003.54 958.406 1003.54 969.545 1003.43C969.507 1014.2 969.71 1025.98 969.357 1036.67L936.204 1036.77C936.009 1025.66 935.983 1014.54 936.127 1003.42Z"/><path fill="#FAF9F9" d="M1203.83 535.56C1212.8 535.546 1228.64 536.022 1237.06 535.314C1237.35 546.462 1237.39 557.615 1237.19 568.765L1203.84 568.806L1203.83 535.56Z"/><path fill="#FAF9F9" d="M1103.46 435.305L1137.02 435.323L1136.99 468.325C1125.81 468.435 1114.63 468.457 1103.45 468.39L1103.46 435.305Z"/><path fill="#FAF9F9" d="M1137.02 735.915C1148.11 735.791 1159.21 735.802 1170.3 735.949C1170.2 747.007 1170.2 758.066 1170.3 769.125C1159.22 769.242 1148.14 769.256 1137.06 769.164L1137.02 735.915Z"/><path fill="#FAF9F9" d="M1137.03 201.233C1146.39 201.102 1161.36 200.515 1170.25 201.348L1170.19 234.443C1159.59 234.164 1147.77 234.423 1137.07 234.418C1136.99 223.357 1136.98 212.295 1137.03 201.233Z"/><path fill="#FAF9F9" d="M1137.08 602.433C1148.12 602.264 1159.17 602.238 1170.22 602.355L1170.35 635.53L1137.03 635.586C1136.98 624.535 1137 613.483 1137.08 602.433Z"/><path fill="#FAF9F9" d="M434.6 1170.67C445.252 1170.36 457.151 1170.56 467.872 1170.5L467.811 1203.84L434.668 1203.85C434.036 1193.39 434.443 1181.28 434.6 1170.67Z"/><path fill="#FAF9F9" d="M1036.57 435.339C1047.64 435.167 1058.72 435.169 1069.78 435.345L1069.99 468.274C1059.18 468.664 1047.49 468.429 1036.61 468.403C1036.29 457.579 1036.52 446.207 1036.57 435.339Z"/><path fill="#FAF9F9" d="M769.25 1170.61L802.681 1170.56C802.796 1181.63 802.752 1192.7 802.551 1203.77C791.49 1203.87 780.429 1203.91 769.367 1203.89C768.979 1193.33 769.428 1181.42 769.25 1170.61Z"/><path fill="#FAF9F9" d="M234.088 1170.65L267.514 1170.51L267.516 1203.85L234.427 1203.83C233.538 1196.34 234.044 1178.9 234.088 1170.65Z"/><path fill="#FAF9F9" d="M301.112 1170.41C311.855 1170.8 323.609 1170.55 334.378 1170.46C334.474 1181.58 334.46 1192.71 334.338 1203.83L301.099 1203.8L301.112 1170.41Z"/><path fill="#FAF9F9" d="M869.366 1003.46C879.271 1003.46 893.088 1003.86 902.609 1003.34C902.592 1014.37 902.709 1025.68 902.541 1036.69L869.374 1036.75C869.315 1025.66 869.313 1014.56 869.366 1003.46Z"/><path fill="#FAF9F9" d="M735.95 268.13C746.46 267.604 758.624 267.886 769.258 267.889L769.338 301.211C758.202 301.324 747.064 301.317 735.928 301.189C735.774 290.17 735.781 279.149 735.95 268.13Z"/><path fill="#FAF9F9" d="M1137.07 468.748C1148.13 468.493 1159.19 468.419 1170.25 468.524C1170.26 479.249 1170.57 491.417 1170.22 502.053C1159.97 501.712 1147.28 501.887 1137.04 502.081L1137.07 468.748Z"/><path fill="#FAF9F9" d="M802.691 201.24C813.485 200.966 824.987 201.175 835.832 201.189C835.879 206.984 836.418 229.45 835.628 234.2C824.491 234.109 813.824 235.058 802.606 234.026C802.466 223.097 802.494 212.167 802.691 201.24Z"/><path fill="#FAF9F9" d="M802.715 134.161C813.768 134.233 824.822 134.244 835.875 134.195C835.896 145.201 835.827 156.328 835.969 167.322C826.084 167.488 812.443 167.863 802.773 167.282C802.394 156.219 802.593 145.225 802.715 134.161Z"/><path fill="#FAF9F9" d="M936.174 134.237L969.345 134.216C969.414 139.159 970.332 164.976 968.641 167.393C957.821 167.534 946.999 167.533 936.178 167.388C936.051 156.338 936.05 145.287 936.174 134.237Z"/><path fill="#FAF9F9" d="M1137.02 936.778C1147.91 936.749 1159.39 936.911 1170.22 936.661C1170.32 947.497 1170.63 959.124 1170.22 969.889L1137.02 969.951C1136.96 958.894 1136.96 947.836 1137.02 936.778Z"/><path fill="#FAF9F9" d="M1036.68 970.199C1047.7 969.968 1058.72 969.958 1069.74 970.168L1070 1003.37C1058.86 1003.45 1047.72 1003.43 1036.59 1003.31C1036.28 993.239 1036.3 980.227 1036.68 970.199Z"/><path fill="#FAF9F9" d="M869.351 1070.28L902.598 1070.3C902.605 1081.14 902.807 1092.67 902.522 1103.46C891.529 1103.55 880.316 1103.76 869.349 1103.37L869.351 1070.28Z"/><path fill="#FAF9F9" d="M1137.08 535.558C1147.02 535.537 1160.51 535.929 1170.16 535.383L1170.24 568.795C1159.75 568.479 1147.67 568.797 1137.05 568.816C1136.99 557.73 1137 546.643 1137.08 535.558Z"/><path fill="#FAF9F9" d="M735.945 936.768L769.331 936.72L769.355 969.869C758.211 970.103 747.064 970.111 735.92 969.892C735.866 958.851 735.874 947.809 735.945 936.768Z"/><path fill="#FAF9F9" d="M902.569 167.639L935.902 167.659L935.902 201.04C924.892 201.202 913.879 201.146 902.871 200.874C902.427 189.975 902.576 178.583 902.569 167.639Z"/><path fill="#FAF9F9" d="M869.362 201.2L902.565 201.187L902.564 234.41C891.607 234.385 880.276 234.526 869.357 234.32L869.362 201.2Z"/><path fill="#FAF9F9" d="M936.089 936.76C944.89 936.751 961.294 937.266 969.475 936.61C969.461 947.439 969.663 959.129 969.294 969.889C958.505 969.9 946.795 969.669 936.09 969.931L936.089 936.76Z"/><path fill="#FAF9F9" d="M769.367 167.696C780.477 167.545 791.588 167.527 802.698 167.644L802.642 200.991C791.565 201.233 780.484 201.206 769.409 200.91L769.367 167.696Z"/><path fill="#FAF9F9" d="M802.69 1003.62C813.787 1003.53 824.885 1003.5 835.983 1003.53L835.849 1036.77C824.811 1036.85 813.772 1036.82 802.735 1036.67C802.395 1025.92 802.64 1014.43 802.69 1003.62Z"/><path fill="#FAF9F9" d="M802.748 67.3561C813.782 67.2742 824.816 67.2732 835.85 67.3531L835.936 100.47C824.75 100.489 813.932 100.733 802.714 100.462C802.351 89.5533 802.601 78.2931 802.748 67.3561Z"/><path fill="#FAF9F9" d="M869.273 67.3381L902.547 67.2358C902.621 78.3064 902.592 89.3774 902.46 100.448C891.415 100.621 880.368 100.653 869.321 100.544L869.273 67.3381Z"/><path fill="#FAF9F9" d="M835.872 100.858C846.63 100.545 858.33 100.751 869.16 100.73L869.16 133.975C858.101 134.099 847.04 134.127 835.98 134.06C835.682 123.105 835.841 111.839 835.872 100.858Z"/><path fill="#FAF9F9" d="M902.622 134.219C902.334 144.819 902.604 156.69 902.604 167.393C891.495 167.521 880.386 167.507 869.278 167.352C869.348 156.371 869.345 145.389 869.268 134.407C879.495 134.421 892.686 134.836 902.622 134.219Z"/><path fill="#FAF9F9" d="M1137.09 1003.58L1170.22 1003.42C1170.29 1014.26 1170.58 1025.91 1170.24 1036.69L1137.03 1036.81L1137.09 1003.58Z"/><path fill="#FAF9F9" d="M1137.02 1137.05L1170.23 1137.07L1170.24 1170.22C1159.16 1170.51 1148.15 1170.69 1137.08 1170.11C1136.95 1159.09 1136.93 1148.07 1137.02 1137.05Z"/><path fill="#FAF9F9" d="M735.991 134.407L769.235 134.407C769.34 145.372 769.328 156.338 769.2 167.303C758.494 167.679 746.68 167.451 735.893 167.459C735.681 156.72 735.942 145.205 735.991 134.407Z"/><path fill="#FAF9F9" d="M50.209 869.779C53.5574 869.302 63.8326 868.808 66.4503 870.839C67.2729 877.373 66.7662 895.737 66.7412 903.149L50.5151 903.149L33.6768 903.149L33.6768 870.085C38.4523 870.112 45.6579 870.367 50.209 869.779Z"/><path fill="#FAF9F9" d="M869.393 936.791L902.663 936.737C902.668 947.791 902.599 958.844 902.455 969.897L869.435 969.836C869.218 958.822 869.204 947.805 869.393 936.791Z"/><path fill="#FAF9F9" d="M1137.02 1070.28C1148.08 1070.41 1159.13 1070.42 1170.19 1070.31L1170.23 1103.44C1159.17 1103.72 1148.09 1103.76 1137.03 1103.56C1136.97 1092.46 1136.96 1081.37 1137.02 1070.28Z"/><path fill="#FAF9F9" d="M654.98 233.694C659.418 235.043 664.21 234.66 668.831 234.433L668.842 267.625C657.654 267.785 646.465 267.79 635.278 267.639C635.251 261.141 635.284 254.653 635.358 248.154C635.371 247.025 634.932 243.553 635.042 242.957C642.573 242.32 649.636 239.038 654.98 233.694Z"/></svg>