<?xml version="1.0" encoding="utf-8" ?><svg xmlns="http://www.w3.org/2000/svg" xmlns:xlink="http://www.w3.org/1999/xlink" width="1254" height="1254" viewBox="0 0 1254 1254"><path fill="#F6F6F6" d="M0 0L29.9673 0L59.9183 0L89.7351 0L119.754 0L149.393 0L238.86 0L268.793 0L298.505 0L358.251 0L388.148 0L477.793 0L507.612 0L537.532 0L567.181 0L597.019 0L626.971 0L656.919 0L686.79 0L716.42 0L746.524 0L776.254 0L805.918 0L835.805 0L865.649 0L895.486 0L925.302 0L955.197 0L985.157 0L1015.06 0L1044.75 0L1074.87 0L1104.75 0L1134.3 0L1164.9 0L1194.6 0L1224.3 0L1254 0L1254 29.7029L1254 60.3059L1254 89.0423L1254 119.699L1254 149.102L1254 178.619L1254 208.796L1254 328.236L1254 358.26L1254 388.164L1254 417.95L1254 447.907L1254 477.721L1254 507.557L1254 537.51L1254 567.465L1254 597.144L1254 626.747L1254 656.775L1254 686.863L1254 716.49L1254 746.292L1254 776.456L1254 806.163L1254 835.775L1254 865.724L1254 895.532L1254 925.299L1254 955.508L1254 985.192L1254 1015.1L1254 1044.99L1254 1074.89L1254 1104.72L1254 1134.59L1254 1164.24L1254 1194.24L1254 1223.96L1254 1254L1223.95 1254L1134.56 1254L1104.69 1254L1074.68 1254L1044.7 1254L1014.72 1254L985.117 1254L955.123 1254L925.183 1254L895.525 1254L865.793 1254L835.706 1254L805.861 1254L776.138 1254L746.36 1254L716.499 1254L686.585 1254L656.898 1254L627.061 1254L597.064 1254L567.294 1254L537.519 1254L507.502 1254L477.792 1254L447.895 1254L417.746 1254L388.022 1254L358.312 1254L328.422 1254L298.761 1254L268.685 1254L238.866 1254L209.038 1254L179.141 1254L149.372 1254L119.489 1254L89.5825 1254L59.8981 1254L29.9512 1254L0 1254L0 1223.99L0 1194.11L0 1164.28L0 1134.65L0 1104.72L0 1074.68L0 1044.9L0 1015.09L0 985.273L0 955.6L0 865.638L0 835.845L0 806.029L0 776.261L0 686.622L0 656.703L0 626.835L0 597.131L0 567.199L0 537.456L0 507.351L0 477.649L0 447.737L0 418.144L0 388.121L0 358.194L0 328.334L0 298.746L0 268.746L0 238.669L0 208.891L0 179.234L0 149.346L0 119.34L0 89.7468L0 59.9936L0 30.0323L0 0Z"/><path fill="#FDFDFD" d="M0 0L29.9673 0L59.9183 0L89.7351 0L119.754 0L149.393 0L238.86 0L268.793 0L298.505 0L358.251 0L388.148 0L477.793 0L507.612 0L537.532 0L537.435 29.9011L507.61 29.9775C507.477 39.9938 507.435 50.0111 507.485 60.0282L537.548 59.9415C537.491 68.953 537.818 80.9113 537.348 89.5736C527.543 89.7096 517.737 89.7155 507.931 89.591C508.292 97.894 507.443 110.137 507.581 119.412L537.422 119.487L537.428 149.244L507.545 149.328L507.507 179.19L477.91 179.157L477.91 208.804C470.286 208.901 462.896 209.007 455.29 208.854C446.807 208.684 427.454 207.242 419.643 208.552C424.25 209.344 442.265 209.033 447.925 209.052C447.926 214.584 449.064 234.519 446.598 237.819C442.81 240.198 423.918 238.877 417.99 238.806L418.006 268.911L447.903 268.869L447.895 239.073C457.802 238.931 467.709 238.898 477.616 238.974C477.611 248.674 477.818 259.224 477.556 268.853C486.705 268.857 498.693 269.221 507.609 268.77C507.475 278.781 507.458 288.793 507.557 298.804C497.562 298.545 487.53 298.858 477.638 298.601L477.623 328.153C471.588 328.187 453.846 327.849 449.036 328.621C458.233 328.928 467.755 328.811 476.985 328.808C476.985 331.074 476.731 334.11 477.433 336.098C477.848 333.047 477.821 331.517 477.764 328.418C487.54 328.382 497.768 328.195 507.506 328.396C507.544 335.791 507.686 343.264 507.298 350.642C555.867 330.542 609.364 328.98 658.205 349.134C706.365 368.87 744.578 407.125 764.261 455.306C783.618 502.031 783.653 554.526 764.357 601.276C756.2 621.23 744.743 639.669 730.465 655.82C759.936 684.003 789.579 715.179 818.556 744.114L851.79 777.296C857.974 783.44 866.979 791.238 871.943 797.994C877.988 806.223 869.345 813.723 861.599 815.509C863.505 816.274 863.162 814.693 865.466 815.955C866.018 820.53 865.686 830.853 865.522 835.683L835.889 835.807C835.505 825.631 835.585 816.098 835.7 805.902C825.806 805.944 815.912 805.925 806.018 805.845C805.644 796.252 805.881 786.002 805.95 776.35C796.017 776.441 786.347 776.095 776.308 776.366C776.407 786.25 776.334 796.134 776.088 806.016C766.211 806.058 756.334 806.025 746.458 805.919C746.48 796.155 746.624 786.092 746.33 776.359C737.067 775.743 725.693 776.874 716.443 776.036L716.411 805.921L686.962 805.837C686.483 796.004 686.592 786.06 686.619 776.21L656.963 776.32C656.858 786.164 656.845 796.009 656.924 805.854L626.942 805.949C627.007 815.924 627.017 825.899 626.972 835.874C636.822 835.893 647.155 836.075 656.964 835.893L656.866 865.843C665.871 865.816 676.73 865.518 685.583 865.982C679.387 866.871 664.512 866.445 657.615 866.411C657.581 871.952 657.084 889.469 657.914 894.049C659.489 894.684 660.584 894.57 662.272 894.6L662.463 895.124C660.631 895.476 659.982 895.431 658.138 895.455C656.351 897.032 656.744 900.911 656.778 903.35C656.878 910.694 656.948 918.053 656.975 925.397C647.011 925.516 637.045 925.499 627.081 925.345C626.855 915.452 626.849 905.555 627.062 895.662C636.952 895.65 647.189 895.769 657.04 895.398C656.823 885.43 656.823 875.458 657.039 865.49C647.014 865.746 636.983 865.765 626.957 865.548C627.046 875.445 627.045 885.342 626.954 895.238C617.353 895.414 606.508 895.774 596.993 895.257L596.943 925.492C606.941 925.495 616.938 925.561 626.935 925.689C626.968 935.46 627.109 945.432 627.01 955.184C616.978 955.354 606.944 955.338 596.914 955.137C597.015 964.918 596.75 975.677 597.019 985.271C604.39 985.349 620.385 985.909 627.025 985.306C626.958 995.274 626.942 1005.24 626.977 1015.21C636.951 1015.3 646.938 1015.11 656.885 1015.23L656.935 1044.97L626.949 1044.96C627.019 1054.94 627.024 1064.92 626.965 1074.89C636.733 1074.88 647.34 1075.07 657.037 1074.7C656.976 1070.66 656.532 1048.68 657.273 1045.91C658.011 1049.84 657.635 1068.87 657.615 1073.98C664.454 1073.96 679.457 1073.54 685.603 1074.38C677.575 1075.05 665.22 1074.78 656.989 1074.59L656.934 1104.91L686.694 1104.91C686.682 1114.68 686.801 1124.8 686.404 1134.53L657.028 1134.59C656.67 1143.86 656.938 1154.68 656.946 1164.07C647.391 1164.53 636.648 1164.3 627.088 1164.08C626.79 1154.55 627.003 1144.19 627.028 1134.6C619.165 1134.07 605.417 1134.55 597.271 1134.57C596.903 1125.13 597.102 1114.39 597.061 1104.86C606.459 1104.5 617.447 1104.74 627.008 1104.68C626.772 1094.93 626.952 1084.67 626.998 1074.91L596.964 1074.91L596.963 1104.57C587.078 1104.76 577.191 1104.75 567.306 1104.55C567.327 1114.55 567.414 1124.53 567.017 1134.52C557.205 1134.64 547.391 1134.66 537.579 1134.57C537.43 1124.68 537.599 1114.46 537.637 1104.55C527.022 1104.85 518.4 1104.76 507.711 1104.51C507.278 1095.17 507.579 1084.07 507.614 1074.59C497.719 1074.81 487.821 1074.81 477.927 1074.59C477.52 1064.79 477.697 1054.73 477.753 1044.9C487.734 1044.83 497.716 1044.82 507.697 1044.87C507.357 1035.35 507.602 1024.66 507.623 1015.06C497.736 1014.93 487.549 1015.06 477.641 1015.1L477.585 1044.63C467.797 1044.95 458.002 1044.95 448.214 1044.65C447.618 1035.54 447.899 1024.32 447.907 1015.03C437.904 1015.13 427.9 1015.08 417.899 1014.88L417.892 985.115C408.089 985.245 398.073 985.138 388.252 985.137C388.008 975.327 388.184 965.038 388.215 955.189C378.262 955.346 368.307 955.334 358.354 955.152C358.359 953.654 358.439 925.301 358.531 925.626C356.448 925.005 332.185 925.523 328.647 925.499L328.508 955.139C318.556 955.265 308.604 955.288 298.652 955.208L298.749 985.2C308.605 985.285 318.461 985.32 328.318 985.306C328.402 995.152 328.612 1005.27 328.31 1015.09C318.772 1015.07 308.232 1014.82 298.774 1015.12C298.234 1022.82 298.698 1036.36 298.58 1044.81C288.378 1044.93 279.118 1044.98 268.927 1044.57C268.791 1034.71 268.778 1024.85 268.886 1014.99L239.011 1015.03C238.824 1005.14 238.79 995.249 238.91 985.358C248.878 985.422 258.846 985.37 268.812 985.201L268.842 955.137C258.877 955.277 248.91 955.286 238.944 955.163C238.626 945.781 238.871 935.275 238.896 925.81C248.803 925.406 258.901 925.522 268.831 925.534C268.573 932.116 268.374 948.311 269.148 954.291C269.804 946.849 269.407 933.104 269.414 925.192C275.552 925.253 292.982 926.36 297.62 923.608C298.85 921.685 298.335 900.077 297.823 896.899C292.539 895.389 277.574 896.126 270.793 895.785C278.503 895.143 290.812 895.492 298.864 895.489C298.396 875.826 298.781 855.536 298.805 835.796C304.236 835.811 323.658 836.219 327.969 835.578C328.223 834.277 328.298 833.003 328.341 831.679C328.388 833.377 328.344 833.303 328.946 834.878C330.488 835.812 353.99 835.685 356.455 834.276C359.143 830.709 357.608 811.467 357.586 806.105C348.611 806.168 339.635 806.134 330.66 806.001C331.939 805.689 341.17 805.784 343.173 805.778L388.274 806.093C388.085 796.134 388.068 786.173 388.223 776.213L358.341 776.232C358.215 770.199 358.783 751.989 357.965 747.19C357.291 749.409 357.578 771.864 357.586 775.79C337.896 775.74 318.465 776.27 298.796 776.309C298.514 766.53 298.692 756.129 298.705 746.301L268.775 746.342L268.805 716.709C286.95 716.771 304.574 716.492 322.699 716.303C320.386 715.884 302.582 716.084 299.117 716.084C299.363 680.787 292.105 686.524 328.522 686.698C328.377 676.876 328.37 667.052 328.501 657.23C333.811 656.268 351.778 656.668 358.161 656.691C358.128 660.143 358.149 661.678 358.6 665.174C359.154 655.518 358.395 637.242 358.257 626.93C352.012 626.356 335.981 626.818 328.508 626.658L328.508 656.813C318.661 656.618 308.713 656.618 298.857 656.549C298.331 647.144 298.71 636.302 298.841 626.768L268.926 626.83C268.711 616.971 268.847 606.784 268.86 596.897C258.905 597.011 248.948 597.021 238.992 596.927C238.654 587.493 238.876 577.06 238.896 567.549L268.939 567.631C268.543 558.247 268.814 547.165 268.814 537.654C276.978 537.633 291.489 537.996 299.117 537.146L299.117 507.913C307.32 507.994 315.524 507.942 323.726 507.757C317.241 507.264 305.677 507.614 298.805 507.601L298.805 477.598L269.414 477.598C269.308 468.009 269.335 458.418 269.494 448.83C270.531 447.942 273.738 448.164 275.534 448.069L275.227 447.701L268.875 447.581C268.821 437.7 268.827 427.819 268.893 417.938C258.951 418.028 249.008 418.031 239.066 417.948C238.724 408.114 238.843 398.01 238.846 388.149C228.932 387.977 219.016 387.953 209.102 388.077C208.784 377.985 208.868 368.49 209.004 358.384C218.955 358.396 228.907 358.351 238.859 358.251C238.829 348.37 238.866 338.489 238.97 328.608C248.491 328.103 259.119 328.448 268.814 328.33C269.136 319.141 268.84 308.193 268.834 298.865L298.869 298.754C298.268 290.179 298.686 277.651 298.734 268.775C289.061 268.541 278.513 268.802 268.776 268.856C268.481 278.351 268.714 289.1 268.699 298.696L238.979 298.708L238.811 268.804C230.018 268.393 218.105 268.727 209.052 268.715C208.745 259.126 208.965 248.622 208.987 238.964L238.924 238.983C238.804 229.065 238.819 219.146 238.968 209.228C247.93 208.653 259.593 208.97 268.81 208.968L268.801 179.093L298.896 179.093C298.069 172.327 298.491 156.673 298.492 149.224C288.56 149.286 278.627 149.298 268.695 149.26C268.711 158.748 268.446 169.805 268.795 179.159L238.787 179.105L238.806 208.767C228.921 209.084 219.031 209.198 209.142 209.108C209.101 218.326 208.762 229.738 209.18 238.788C199.17 239.051 189.155 239.044 179.146 238.766L179.156 268.712C169.218 268.841 159.279 268.825 149.342 268.663C149.507 278.598 149.469 288.536 149.226 298.47C139.389 298.702 129.55 298.768 119.712 298.668L119.712 328.147C117.789 328.189 114.698 328.065 112.996 328.609C115.122 328.756 116.66 328.838 118.787 328.808L118.787 357.586C112.115 357.548 96.8291 357.113 90.9185 358.029C97.054 358.746 112.53 358.327 119.441 358.462C119.538 367.995 119.798 378.538 119.426 388.05L89.721 388.012C89.4846 378.582 89.2984 367.517 89.6934 358.106C79.6937 358.19 69.6936 358.216 59.6936 358.183L59.6936 328.107L30.0142 328.235C29.9332 338.231 29.9212 348.228 29.9781 358.224C39.8971 358.414 49.8185 358.443 59.7384 358.313C59.8267 368.208 59.8623 378.103 59.8452 387.998C50.3906 388.005 39.2298 388.296 29.9125 387.9L29.9866 418.081C21.8914 417.58 8.49055 418.077 0 418.144L0 388.121L0 358.194L0 328.334L0 298.746L0 268.746L0 238.669L0 208.891L0 179.234L0 149.346L0 119.34L0 89.7468L0 59.9936L0 30.0323L0 0Z"/><path fill="#0A3C54" d="M507.298 350.642C555.867 330.542 609.364 328.98 658.205 349.134C706.365 368.87 744.578 407.125 764.261 455.306C783.618 502.031 783.653 554.526 764.357 601.276C756.2 621.23 744.743 639.669 730.465 655.82C759.936 684.003 789.579 715.179 818.556 744.114L851.79 777.296C857.974 783.44 866.979 791.238 871.943 797.994C877.988 806.223 869.345 813.723 861.599 815.509C853.739 813.693 851.169 809.913 845.577 804.263L836.246 794.989C829.863 788.356 822.831 781.577 816.283 775.045L806.828 765.556L786.309 744.979L778.659 737.295L713.689 672.43C698.201 685.598 682.92 695.868 664.368 704.356C617.896 725.517 564.92 727.346 517.099 709.439C467.972 691.353 428.207 654.232 406.79 606.463C385.844 560.315 384.324 507.686 402.573 460.406C421.73 409.576 458.061 372.833 507.298 350.642Z"/><path fill="#FDFDFD" d="M569.895 357.218C664.416 349.168 747.537 419.334 755.463 513.865C763.39 608.396 693.114 691.425 598.573 699.228C504.207 707.016 421.365 636.899 413.453 542.543C405.542 448.187 475.55 365.254 569.895 357.218Z"/><path fill="#FDFDFD" d="M686.79 0L716.42 0L746.524 0L776.254 0L805.918 0L835.805 0L865.649 0L895.486 0L925.302 0L955.197 0L985.157 0L1015.06 0L1044.75 0L1074.87 0L1104.75 0L1134.3 0L1164.9 0L1194.6 0L1224.3 0L1254 0L1254 29.7029L1254 60.3059L1254 89.0423L1254 119.699L1254 149.102L1254 178.619L1254 208.796L1254 328.236L1254 358.26L1254 388.164L1254 417.95L1254 447.907L1223.97 447.907L1223.97 477.535C1214.08 477.72 1204.19 477.722 1194.31 477.542L1194.31 507.395L1164.45 507.448L1164.42 537.449C1154.63 537.426 1144.37 537.558 1134.62 537.327C1134.58 530.879 1134.92 513.208 1134.14 507.431C1124.58 507.444 1114.11 507.672 1104.63 507.399C1104.63 516.821 1104.31 528.234 1104.66 537.481C1094.65 537.357 1084.64 537.311 1074.62 537.342L1074.62 567.302C1064.72 567.391 1054.81 567.391 1044.9 567.304L1044.9 596.993L1015 596.986C1015.01 601.192 1014.81 625.876 1015.45 628.253L1014.83 628.728L1013.95 626.942C1006.57 626.718 992.439 626.455 985.151 626.856C985.741 619.677 985.242 604.738 985.192 596.996L955.225 596.927C954.931 587.287 955.136 577.203 955.2 567.523C964.518 567.622 973.836 567.577 983.152 567.388C977.13 566.559 962.507 566.967 955.808 566.994C955.891 557.521 955.839 548.047 955.652 538.576C954.866 542.12 955.152 562.349 955.159 567.252C945.244 567.451 935.327 567.458 925.412 567.273C925.064 557.878 925.309 546.933 925.287 537.417L895.518 537.5C895.238 527.711 895.397 517.276 895.386 507.437L865.779 507.533L865.635 537.709C870.166 537.548 890.766 537.267 894.394 537.802C892.198 538.524 870.309 538.223 866.411 538.216C866.48 542.202 866.575 544.74 866.057 548.699C865.439 544.999 865.723 541.033 865.811 537.247C855.793 537.479 845.772 537.491 835.753 537.282C835.8 546.292 836.047 556.287 835.489 565.184L835.55 563.702C834.996 563.051 835.186 541.051 835.184 538.216C832.229 538.266 830.345 538.215 827.403 537.964C829.087 537.3 833.804 537.525 835.865 537.526C835.656 527.666 835.781 517.487 835.783 507.601C827.729 507.03 814.421 507.432 805.927 507.402L805.912 477.689C796.109 477.841 786.304 477.805 776.503 477.582C776.392 467.761 776.359 457.939 776.404 448.118C784.97 447.548 797.204 447.884 805.914 448.008C805.892 457.57 805.645 468.288 806.076 477.753C815.979 477.82 825.882 477.796 835.784 477.68C835.706 467.776 835.733 457.871 835.864 447.967C844.785 447.522 856.37 447.842 865.493 447.832L865.487 417.867C855.652 418.084 845.73 417.954 835.848 418.141C835.744 408.162 835.723 398.183 835.784 388.204C826.669 387.727 815.397 388.042 806.118 388.067C805.869 378.15 805.855 368.229 806.078 358.312C815.975 358.405 825.872 358.371 835.768 358.21C835.688 348.22 835.696 338.23 835.793 328.24C826.439 327.917 815.839 328.328 806.078 328.107C805.781 318.44 805.981 308.507 806.062 298.814L835.806 298.744L835.73 268.811L806.138 268.683C805.693 259.534 805.976 248.378 805.976 239.079C815.401 238.676 826.094 239.076 835.837 238.858C835.587 229.025 835.758 218.857 835.806 208.995C827.116 208.568 815.421 208.968 806.273 208.824C805.842 199.015 805.955 189.023 805.974 179.19C796.165 179.274 786.199 179.159 776.376 179.137L776.357 149.515C786.195 149.387 796.035 149.352 805.874 149.411L805.956 179.388C815.914 179.239 825.874 179.203 835.833 179.28C835.593 169.345 835.593 159.405 835.835 149.47C845.828 149.483 855.821 149.438 865.814 149.333C865.347 139.792 865.574 128.842 865.81 119.299C855.796 119.356 845.782 119.341 835.768 119.255L835.813 149.179C825.912 149.321 816.009 149.346 806.108 149.252C805.687 139.744 805.954 128.832 805.984 119.214C796.046 119.385 786.105 119.372 776.168 119.176C776.299 129.183 776.294 139.191 776.153 149.198C766.274 149.34 756.267 149.29 746.375 149.324C746.088 159.054 746.278 169.632 746.269 179.427C750.656 179.297 752.982 179.193 757.344 179.743C750.814 180.127 745.196 179.366 738.717 179.23C731.385 179.076 723.914 179.141 716.575 179.183C716.271 169.561 716.454 159.049 716.436 149.36C707.017 149.036 696.398 149.27 686.889 149.273C686.227 139.659 686.493 129.078 686.89 119.422L716.514 119.436L716.514 89.7822C725.422 89.7607 737.739 90.1044 746.37 89.5695C746.346 98.9771 746.019 110.206 746.373 119.463C749.866 119.539 753.118 119.724 756.583 119.181L756.582 119.15L755.385 119.355L755.041 118.849C752.81 118.681 749.343 118.789 747.012 118.787C747.076 98.9958 746.369 79.6553 746.378 59.8807C737.584 59.4892 725.59 59.859 716.58 59.8303C716.211 50.4305 716.461 39.5202 716.471 30.0046C707.022 29.7376 696.439 29.9769 686.899 29.9788C686.233 20.8152 686.556 9.19244 686.79 0Z"/><path fill="#FDFDFD" d="M805.89 1015.17C814.677 1015.19 827.449 1015.67 835.802 1015.2C835.707 1025.09 835.674 1034.99 835.701 1044.88C845.76 1044.74 855.82 1044.73 865.879 1044.85C865.533 1035.01 865.474 1025.16 865.701 1015.31C875.606 1015.2 885.512 1015.2 895.417 1015.31C895.434 1025.1 895.381 1034.89 895.257 1044.68C886.298 1045 874.607 1045.24 865.692 1044.78L865.624 1074.91L835.707 1074.91L835.807 1104.79C845.398 1104.77 856.299 1105.01 865.776 1104.69L865.688 1134.76L895.502 1134.76C895.575 1144.54 895.475 1154.32 895.203 1164.1C901.246 1164.84 918.544 1164.39 925.225 1164.38L925.136 1194.25L955.075 1194.37C955.103 1204.23 955.214 1214.22 955.112 1224.07C963.946 1224.23 976.377 1224.43 985.172 1224.08L985.284 1194.38C995.045 1194.35 1005.17 1194.18 1014.89 1194.57L1014.89 1224.07L1044.71 1224.06L1044.7 1254L1014.72 1254L985.117 1254L955.123 1254L925.183 1254L895.525 1254L865.793 1254L835.706 1254L835.8 1223.95L806.142 1223.94C805.883 1214.09 805.85 1204.23 806.042 1194.38C811.25 1194.32 830.918 1195.13 833.86 1193.62L832.204 1194.3L834.258 1193.23C836.773 1189.77 835.768 1170.03 835.813 1164.29L865.489 1164.29L865.487 1134.51C855.598 1134.58 845.71 1134.6 835.822 1134.56L835.801 1164.18C825.879 1164.36 815.954 1164.33 806.034 1164.08C805.63 1154.98 805.939 1143.76 805.949 1134.51C796.756 1134.6 785.346 1134.94 776.316 1134.31C776.404 1124.56 776.291 1114.68 776.254 1104.91C782.279 1104.81 800.34 1105.11 804.982 1104.26C797.72 1103.62 784.708 1103.99 777.015 1103.99C777.019 1098.83 777.324 1080.17 776.701 1076.11C775.801 1081.63 776.28 1097.87 776.089 1104.91C766.2 1104.93 756.397 1105.02 746.514 1104.53L746.444 1075.17C756.429 1074.97 766.416 1074.85 776.404 1074.82L776.268 1045.02C785.472 1044.61 796.744 1044.91 806.105 1044.9C806.149 1034.99 806.078 1025.08 805.89 1015.17Z"/><path fill="#FDFDFD" d="M119.472 567.566C129.107 567.551 139.832 567.756 149.377 567.365C149.395 577.098 149.558 587.268 149.281 596.961L119.712 597.007L119.712 626.688L149.368 626.688C149.349 633.34 148.85 649.927 149.476 656.11C150.758 656.898 150.257 656.739 151.73 656.815L149.745 657.54C148.622 661.219 149.862 683.204 149.802 688.362C149.696 697.482 149.372 707.57 149.257 716.709L179.093 716.709L179.093 746.309C169.225 746.43 159.356 746.402 149.489 746.223L149.518 716.351C139.381 716.544 129.799 716.767 119.65 716.333C119.615 726.301 119.679 736.444 119.509 746.396C109.642 746.322 99.7742 746.3 89.9069 746.33C89.1362 737.694 89.5251 725.348 89.5909 716.361C79.7016 716.446 69.8118 716.441 59.9227 716.345L59.7848 746.217C49.8499 746.362 39.9135 746.388 29.978 746.294C30.0238 756.27 30.0015 766.246 29.9112 776.222L0 776.261L0 686.622L0 656.703L0 626.835C9.87921 626.873 20.1093 626.776 29.9578 627.014L29.953 656.691L59.7259 656.691C60.0455 666.001 59.3635 676.541 59.8522 685.444L60.4269 685.755C60.9479 682.45 60.6746 675.886 60.6184 672.16C60.3845 656.645 59.6092 642.654 59.9756 627.027C69.9036 626.843 79.8343 626.851 89.762 627.052C89.4947 617.14 89.4847 607.222 89.732 597.31C99.4992 597.22 109.874 596.955 119.593 597.146C119.474 587.286 119.433 577.426 119.472 567.566Z"/><path fill="#FDFDFD" d="M1134.57 1104.91L1164.4 1104.91C1164.73 1114.28 1164.44 1125.21 1164.42 1134.71L1194.31 1134.71L1194.31 1164.29L1223.93 1164.29L1223.97 1194.29L1254 1194.24L1254 1223.96L1254 1254L1223.95 1254L1134.56 1254C1134.43 1244.02 1134.44 1234.05 1134.57 1224.07C1144.59 1224.13 1154.6 1224.12 1164.62 1224.04C1163.59 1204.88 1165.94 1185.57 1165 1165.56C1164.05 1170.14 1164.41 1188.39 1164.43 1194.31L1134.29 1194.3L1134.57 1104.91Z"/><path fill="#FDFDFD" d="M567.181 0L597.019 0L626.971 0L656.919 0C656.887 9.55509 656.592 20.5891 656.969 30.0257L686.496 30.0666C686.676 39.9467 686.706 49.829 686.586 59.7101C676.706 59.9029 666.824 59.9179 656.944 59.7552L656.949 89.392C646.939 89.6204 637.029 89.834 627.016 89.495L626.997 59.8881C618.82 59.3492 606.341 59.8865 597.332 59.6705C596.758 50.9438 597.066 38.9479 597.024 29.9981C587.456 29.7519 576.912 29.971 567.265 29.9669C567.367 19.978 567.339 9.98816 567.181 0Z"/><path fill="#FDFDFD" d="M268.868 1194.38L298.445 1194.33C299.134 1202.43 298.73 1215.53 298.694 1224.07L328.516 1224.05L328.422 1254L298.761 1254L268.685 1254L238.866 1254L238.899 1224.18C248.809 1224.02 258.852 1224.08 268.781 1224.02C268.8 1214.22 268.694 1204.15 268.868 1194.38Z"/><path fill="#FDFDFD" d="M0 447.737C9.89253 447.805 20.0733 447.755 29.938 448.062C29.88 457.842 29.6946 467.914 30.0194 477.665C39.9102 477.808 49.8025 477.821 59.6936 477.701L59.6936 507.417C50.5322 507.451 39.0158 507.143 30.0148 507.528L29.9527 537.407L0 537.456L0 507.351L0 477.649L0 447.737Z"/><path fill="#FDFDFD" d="M0 865.638C9.88904 865.69 20.1278 865.886 29.9867 865.778L29.9409 895.717L59.9582 895.611C59.9183 905.576 59.8195 915.541 59.6616 925.505L29.9629 925.505L29.9722 955.105C24.9645 955.185 3.25821 954.989 0 955.6L0 865.638Z"/><path fill="#FDFDFD" d="M30.0663 1194.36L59.8354 1194.37C59.8337 1203.72 59.5431 1214.82 59.9205 1224.03L89.4869 1224.12C89.6744 1234.08 89.7063 1244.04 89.5825 1254L59.8981 1254L29.9512 1254L0 1254L0 1223.99C8.0538 1224.04 22.489 1224.58 30.0189 1224.05C30.0297 1214.19 29.9505 1204.2 30.0663 1194.36Z"/><path fill="#FDFDFD" d="M388.135 1224C388.103 1217.12 387.672 1201.54 388.598 1195.42C389.062 1204.05 388.809 1214.61 388.813 1223.38C408.696 1223.32 427.962 1224.14 447.808 1224.1L447.895 1254L417.746 1254L388.022 1254L358.312 1254C358.439 1244.03 358.414 1234.06 358.236 1224.08C366.491 1224.23 379.987 1224.45 388.135 1224Z"/><path fill="#FDFDFD" d="M537.643 268.878L567.141 268.831L567.108 298.715L537.588 298.691C537.444 308.502 537.411 318.314 537.49 328.125C527.541 328.368 517.588 328.397 507.637 328.213C507.475 318.411 507.448 308.607 507.557 298.804L537.636 298.686C537.502 288.75 537.504 278.814 537.643 268.878Z"/><path fill="#FDFDFD" d="M30.0034 1075.11C39.8989 1074.91 49.7964 1074.84 59.6936 1074.91C59.6805 1084.24 59.3771 1095.78 60.0351 1104.91L89.6007 1104.91C89.7285 1114.78 89.7186 1124.65 89.5711 1134.52C79.6986 1134.6 69.8256 1134.59 59.9533 1134.49C59.5948 1124.7 59.8085 1114.47 59.8818 1104.63C49.9287 1104.69 39.9754 1104.69 30.0222 1104.64L30.0034 1075.11Z"/><path fill="#FDFDFD" d="M59.9182 985.202C69.842 985.366 79.7675 985.402 89.6923 985.312C89.6771 994.937 89.9002 1005.68 89.5854 1015.21L119.431 1015.19C119.474 1024.43 119.784 1035.51 119.365 1044.65C109.683 1044.85 99.6539 1045.09 89.9718 1044.72C89.4419 1035.27 89.6892 1024.45 89.7088 1014.89L60.0273 1014.89C59.6695 1004.92 59.8146 995.166 59.9182 985.202Z"/><path fill="#FDFDFD" d="M746.435 1224.01L746.36 1254L716.499 1254L716.499 1224.08L746.435 1224.01Z"/><path fill="#FDFDFD" d="M30.0222 1104.64L29.9808 1134.51L0 1134.65L0 1104.72C9.24906 1104.74 20.9704 1105.1 30.0222 1104.64Z"/><path fill="#FDFDFD" d="M149.432 1224L149.372 1254L119.489 1254L119.563 1224.16L149.432 1224Z"/><path fill="#FDFDFD" d="M597.119 1224.12L626.936 1224.06C626.987 1234 627.124 1244.07 627.061 1254L597.064 1254L597.119 1224.12Z"/><path fill="#FDFDFD" d="M30.0329 985.211L29.9548 1015.01L0 1015.09L0 985.273C8.45768 985.287 21.9886 985.746 30.0329 985.211Z"/><path fill="#FDFDFD" d="M0 1044.9L29.9601 1044.9L29.9708 1074.76C19.9807 1074.87 9.98946 1074.84 0 1074.68L0 1044.9Z"/><path fill="#FDFDFD" d="M656.447 955.481C657.617 957.999 656.923 980.998 656.852 985.091C649.316 985.116 633.921 984.691 627.025 985.306C626.841 975.35 626.856 965.392 627.071 955.438L656.447 955.481Z"/><path fill="#FDFDFD" d="M477.688 1224.04C487.63 1224.09 497.571 1224.06 507.512 1223.96L507.502 1254L477.792 1254C477.438 1244.62 477.741 1233.61 477.688 1224.04Z"/><path fill="#FDFDFD" d="M1224.01 537.611L1254 537.51L1254 567.465C1244.08 567.491 1234.16 567.39 1224.24 567.162C1223.89 557.682 1224.07 547.187 1224.01 537.611Z"/><path fill="#FDFDFD" d="M1254 656.775L1254 686.863C1244.5 686.866 1233.66 687.011 1224.3 686.292C1223.94 677.044 1224.14 666.382 1224.06 657.003L1254 656.775Z"/><path fill="#FDFDFD" d="M865.735 985.204C865.612 995.16 865.809 1005.1 865.698 1015C856.182 1015.05 845.191 1014.82 835.802 1015.2C835.715 1005.2 835.707 995.207 835.778 985.213C844.627 985.414 856.952 985.626 865.735 985.204Z"/><path fill="#FDFDFD" d="M537.571 238.865C537.398 248.798 537.35 258.734 537.426 268.668C527.487 268.757 517.548 268.79 507.609 268.77C507.561 258.876 507.567 248.983 507.628 239.089C517.148 238.672 527.808 239.05 537.571 238.865Z"/><path fill="#FDFDFD" d="M656.996 1224.2C666.837 1224 676.68 1223.97 686.522 1224.11C686.609 1233.97 686.828 1244.17 686.585 1254L656.898 1254C656.867 1244.07 656.899 1234.13 656.996 1224.2Z"/><path fill="#FDFDFD" d="M4.35069e-15 806.029C9.9852 805.837 19.9739 805.948 29.9524 806.361L29.8961 835.674L0 835.845L0 806.029L4.35069e-15 806.029Z"/><path fill="#FDFDFD" d="M179.177 1224.17L208.864 1224.03C209.086 1234.02 209.144 1244.01 209.038 1254L179.141 1254L179.177 1224.17Z"/><path fill="#FDFDFD" d="M1224.04 597.125C1234.03 597.069 1244.01 597.076 1254 597.144L1254 626.747C1244.08 626.871 1234.15 626.917 1224.23 626.885C1223.87 617.483 1224.16 606.731 1224.04 597.125Z"/><path fill="#FDFDFD" d="M1224.1 835.876C1234.07 835.971 1244.03 835.938 1254 835.775L1254 865.724C1244.13 865.728 1234 865.859 1224.18 865.355C1224.09 855.529 1224.07 845.702 1224.1 835.876Z"/><path fill="#FDFDFD" d="M1224.01 1015.16C1233.78 1015.41 1244.18 1015.17 1254 1015.1L1254 1044.99C1244.1 1045.09 1234.19 1044.97 1224.29 1044.64C1223.81 1035.64 1224.13 1024.45 1224.01 1015.16Z"/><path fill="#FDFDFD" d="M1074.77 1224.07C1084.03 1224.09 1095.49 1224.43 1104.56 1224.07L1104.69 1254L1074.68 1254L1074.77 1224.07Z"/><path fill="#FDFDFD" d="M0 1164.28L29.9512 1164.44L29.9677 1194.04C19.9787 1194.13 9.98928 1194.15 1.08767e-15 1194.11L0 1164.28Z"/><path fill="#FDFDFD" d="M1224.45 895.74C1233.77 895.326 1244.57 895.549 1254 895.532L1254 925.299C1244.3 925.665 1234.01 925.506 1224.31 925.351C1224.28 916.359 1223.91 904.497 1224.45 895.74Z"/><path fill="#FDFDFD" d="M1254 716.49L1254 746.292C1244.18 746.474 1234.03 746.322 1224.18 746.295L1224.06 716.704C1234.04 716.53 1244.02 716.459 1254 716.49Z"/><path fill="#FDFDFD" d="M119.509 746.396C129.439 746.544 139.371 746.589 149.302 746.531C149.415 756.334 149.436 766.139 149.367 775.943C140.221 776.578 128.971 776.275 119.646 776.247C119.404 766.265 119.758 756.14 119.509 746.396Z"/><path fill="#FDFDFD" d="M1104.66 537.481C1114.5 537.75 1124.66 537.611 1134.53 537.594C1134.54 547.305 1134.69 557.374 1134.49 567.054C1124.61 567.532 1114.72 567.554 1104.84 567.121C1104.69 559.176 1105.2 544.409 1104.66 537.481Z"/><path fill="#FDFDFD" d="M1224.01 1134.62C1233.93 1134.88 1244.07 1134.69 1254 1134.59L1254 1164.24C1244.06 1164.56 1234.11 1164.49 1224.18 1164.05L1224.01 1134.62Z"/><path fill="#FDFDFD" d="M1254 477.721L1254 507.557C1247.34 506.93 1231.32 507.416 1224.26 507.434C1224.08 497.661 1224.17 487.655 1224.14 477.862C1233.63 477.526 1244.41 477.745 1254 477.721Z"/><path fill="#FDFDFD" d="M776.347 1224.18C786.168 1224.07 795.99 1224.04 805.813 1224.08C805.902 1233.92 806.138 1244.2 805.861 1254L776.138 1254C776.386 1244.06 776.455 1234.12 776.347 1224.18Z"/><path fill="#FDFDFD" d="M0 567.199L29.8707 567.65L30.0038 597.095C21.5736 596.531 8.5859 596.997 0 597.131L0 567.199Z"/><path fill="#FDFDFD" d="M805.897 418.077C815.44 418.105 826.431 418.417 835.848 418.141C835.558 427.594 835.746 438.108 835.707 447.647C825.86 447.787 816.012 447.845 806.164 447.822C805.646 438.613 805.904 427.441 805.897 418.077Z"/><path fill="#FDFDFD" d="M30.0812 955.683C39.4981 955.514 50.6 955.79 59.7272 955.3C59.8995 964.933 59.5351 975.917 59.9182 985.202C49.9566 985.116 39.9945 985.119 30.0329 985.211C29.9902 975.368 30.0063 965.526 30.0812 955.683Z"/><path fill="#FDFDFD" d="M537.571 238.865C537.553 228.981 537.683 218.625 537.292 208.79C536.992 208.868 563.754 209.015 565.311 209.04L566.686 209.625C567.728 213.448 567.146 234.043 567.079 238.767C557.934 238.869 546.334 238.485 537.571 238.865Z"/><path fill="#FDFDFD" d="M537.64 1224.18C546.925 1224.1 558.178 1223.75 567.244 1224.42C567.187 1234.28 567.204 1244.14 567.294 1254L537.519 1254L537.64 1224.18Z"/><path fill="#FDFDFD" d="M268.775 746.342C268.307 754.869 268.699 767.354 268.692 776.19L238.933 776.252C238.819 766.331 238.829 756.408 238.961 746.487C248.523 746.511 259.319 746.764 268.775 746.342Z"/><path fill="#FDFDFD" d="M955.075 627.019C964.447 626.605 975.583 626.968 985.151 626.856C984.656 635.201 984.992 648.017 984.886 656.691L955.308 656.58C955.014 646.729 954.937 636.873 955.075 627.019Z"/><path fill="#FDFDFD" d="M806.214 955.509C816.054 955.561 825.895 955.555 835.735 955.491L835.778 985.213L806.077 985.152C805.936 980.419 805.454 959.086 806.214 955.509Z"/><path fill="#FDFDFD" d="M1194.49 806.279C1204.42 805.846 1214.53 806.483 1223.96 806.049C1223.97 815.056 1223.62 827.119 1224.1 835.876C1214.21 835.746 1204.31 835.692 1194.42 835.715C1194.33 831.081 1193.76 809.345 1194.49 806.279Z"/><path fill="#FDFDFD" d="M1224.04 776.336C1234.02 776.475 1244.01 776.515 1254 776.456L1254 806.163C1244.27 805.879 1234.03 805.949 1224.26 805.866C1224.01 796.218 1224.1 786.028 1224.04 776.336Z"/><path fill="#FDFDFD" d="M865.796 955.299C875.719 955.678 885.452 955.442 895.327 955.658L895.417 985.111L865.735 985.204C865.503 975.237 865.523 965.266 865.796 955.299Z"/><path fill="#FDFDFD" d="M1224.31 1075.16C1232.99 1074.58 1245.06 1074.91 1254 1074.89L1254 1104.72C1244.1 1104.89 1234.2 1104.84 1224.31 1104.58L1224.31 1075.16Z"/><path fill="#FDFDFD" d="M865.683 1075.13L895.457 1074.74L895.348 1104.5C885.492 1104.7 875.634 1104.76 865.776 1104.69C865.538 1094.84 865.507 1084.98 865.683 1075.13Z"/><path fill="#FDFDFD" d="M1194.17 746.546L1224 746.48C1224 756.18 1223.79 766.707 1224.04 776.336C1214.14 776.181 1204.25 776.156 1194.36 776.261L1194.17 746.546Z"/><path fill="#FDFDFD" d="M30.0038 597.095C40.0372 597.081 49.6854 597.068 59.7043 597.466C59.7936 607.252 59.8303 617.039 59.8145 626.826L30.0891 626.704L30.0038 597.095Z"/><path fill="#FDFDFD" d="M1224.32 985.149C1224.25 977.668 1223.66 962.306 1224.36 955.508L1254 955.508L1254 985.192L1224.32 985.149Z"/><path fill="#FDFDFD" d="M29.9866 418.081C39.8659 418.164 49.8347 418.054 59.6936 418.195C59.6976 427.47 59.4205 438.742 59.9189 447.851L30.0716 447.605L29.9866 418.081Z"/><path fill="#FDFDFD" d="M448.026 1194.34C457.889 1194.31 467.752 1194.33 477.615 1194.4C477.632 1204.01 477.427 1214.52 477.688 1224.04C467.786 1223.88 457.882 1223.85 447.978 1223.94C447.858 1214.07 447.874 1204.21 448.026 1194.34Z"/><path fill="#FDFDFD" d="M328.638 1194.44C338.48 1194.33 348.323 1194.3 358.166 1194.34L358.236 1224.08C348.458 1223.78 338.349 1223.91 328.54 1223.91C328.516 1214.52 328.246 1203.72 328.638 1194.44Z"/><path fill="#FDFDFD" d="M1105.06 1194.38L1134.51 1194.26C1134.53 1203.91 1134.31 1214.5 1134.57 1224.07C1124.77 1223.77 1114.62 1223.91 1104.78 1223.93C1104.72 1218.99 1104.24 1197.82 1105.06 1194.38Z"/><path fill="#FDFDFD" d="M268.82 776.516C278.812 776.548 288.805 776.479 298.796 776.309L298.643 805.931L268.863 805.806C268.675 796.211 268.824 786.147 268.82 776.516Z"/><path fill="#FDFDFD" d="M149.508 1194.39C159.327 1194.2 169.149 1194.2 178.968 1194.4C179.224 1204.23 179.228 1214.08 178.98 1223.91C169.513 1223.93 158.79 1223.69 149.432 1224L149.508 1194.39Z"/><path fill="#FDFDFD" d="M746.457 1194.36L776.213 1194.29C776.243 1203.91 776.47 1214.39 776.153 1223.94C766.513 1223.96 755.997 1223.76 746.435 1224.01L746.457 1194.36Z"/><path fill="#FDFDFD" d="M1194.25 568.247C1197.33 566.738 1219.57 567.546 1223.95 567.62C1223.97 577.09 1223.74 587.762 1224.04 597.125C1214.18 596.935 1204.31 596.875 1194.44 596.943C1194.19 587.549 1194.68 577.222 1194.25 568.247Z"/><path fill="#FDFDFD" d="M776.361 388.334C786.198 388.156 796.038 388.123 805.877 388.236C805.951 397.797 805.543 408.81 805.897 418.077L776.459 417.884L776.361 388.334Z"/><path fill="#FDFDFD" d="M1194.3 985.338C1204.19 985.333 1214.08 985.39 1223.97 985.511L1224.01 1015.16C1214.12 1015.03 1204.24 1015 1194.35 1015.05L1194.3 985.338Z"/><path fill="#FDFDFD" d="M776.359 985.307C785.988 985.317 796.222 985.507 805.801 985.293L805.89 1015.17C796.169 1014.87 786.106 1015.04 776.354 1015.09L776.359 985.307Z"/><path fill="#FDFDFD" d="M1194.29 1104.91L1224.01 1104.91C1224.01 1114.63 1223.82 1124.96 1224.01 1134.62C1214.14 1134.47 1204.28 1134.63 1194.43 1134.49C1194.32 1124.63 1194.28 1114.77 1194.29 1104.91Z"/><path fill="#FDFDFD" d="M119.586 806.132L149.09 806.105C149.015 815.987 149.404 825.815 149.282 835.937C159.086 835.791 169.294 835.947 179.132 835.955L179.121 865.865L208.949 865.788C209.21 875.408 209.003 885.825 208.939 895.502C201.151 895.409 192.263 896.747 184.294 896.106C181.995 895.921 181.752 895.034 180.032 896.148C179.965 902.156 179.858 908.164 179.711 914.171C178.837 908.994 180.664 898.716 178.491 895.769C177.494 895.49 152.462 895.819 149.402 895.802L149.402 865.799C129.549 865.87 109.696 865.779 89.8438 865.524C89.4613 856.304 89.7162 845.452 89.7088 836.108C99.7522 836.134 109.796 836.066 119.838 835.906C119.058 829.806 119.529 813.059 119.586 806.132Z"/><path fill="#FDFDFD" d="M597.003 149.331C604.481 149.537 619.668 149.839 627.009 149.361C627.014 159.231 627.154 169.453 626.953 179.293C636.81 179.196 646.856 178.987 656.691 179.361C656.668 188.277 656.32 200.214 657.056 208.859C647.017 209.042 636.976 209.034 626.937 208.834C627.01 218.847 627.03 228.861 626.995 238.874C618.502 238.401 605.823 238.806 597.107 238.794L597.099 209.214C602.76 208.486 620.956 209 627.087 209.055C626.969 199.076 626.929 189.097 626.964 179.118L597.206 179.238C596.794 169.85 597.091 158.929 597.003 149.331Z"/><path fill="#FDFDFD" d="M955.061 686.931C965.083 686.765 975.106 686.725 985.128 686.81L985.077 716.411C975.11 716.675 965.137 716.67 955.17 716.396L955.131 746.395C945.152 746.31 935.172 746.29 925.193 746.334C925.381 736.46 925.407 726.584 925.272 716.709L955.345 716.709C955.118 706.785 955.023 696.858 955.061 686.931Z"/><path fill="#FDFDFD" d="M238.987 806.049C248.886 805.78 258.755 806.236 268.674 806.03L268.686 835.724L238.854 835.749C238.743 845.706 238.753 855.664 238.883 865.62C229.795 865.267 218.255 865.611 209.012 865.606C208.767 856.28 208.766 845.218 209.135 835.921C219.104 835.843 229.073 835.852 239.041 835.948C238.785 825.984 238.767 816.015 238.987 806.049Z"/><path fill="#FDFDFD" d="M865.687 895.682C875.621 895.607 885.555 895.6 895.489 895.661C895.493 905.536 895.408 915.412 895.234 925.287C885.771 925.645 875.247 925.48 865.7 925.522C865.747 935.298 865.92 945.389 865.6 955.132C855.861 955.451 845.684 955.231 835.904 955.153C835.603 945.329 835.571 935.497 835.81 925.671C844.996 925.241 856.499 925.552 865.86 925.55C865.421 915.594 865.594 905.645 865.687 895.682Z"/><path fill="#FDFDFD" d="M209.063 597.182C218.959 597.083 228.855 597.068 238.75 597.138L238.787 626.841L208.863 626.691C209.092 636.701 209.102 646.714 208.895 656.725C199.059 656.903 189.221 656.829 179.389 656.504C179.123 646.881 179.316 636.724 179.355 627.059C189.271 626.922 199.187 626.878 209.103 626.928C208.735 617.738 208.801 606.392 209.063 597.182Z"/><path fill="#FDFDFD" d="M716.515 209.108L746.371 209.108L746.285 239.198C756.22 239.117 766.155 239.088 776.09 239.111L776.09 268.674C766.204 268.897 756.315 268.912 746.428 268.719L746.504 238.8C736.532 238.909 726.558 238.906 716.586 238.793C716.436 228.899 716.412 219.003 716.515 209.108Z"/><path fill="#FDFDFD" d="M59.9545 388.251C69.8172 388.095 79.682 388.13 89.5434 388.355C89.7764 398.344 89.3357 408.263 89.6746 418.242C99.6266 418.05 109.581 418.034 119.534 418.194C119.604 423.648 120.086 442.211 119.155 446.955L118.185 447.603C108.882 447.814 99.1667 447.701 89.8301 447.726C89.4639 437.787 89.4471 427.838 89.7797 417.898C80.2557 417.879 69.4689 417.78 60.0116 418.142C59.7907 408.18 59.7716 398.214 59.9545 388.251Z"/><path fill="#FDFDFD" d="M208.909 298.706L238.851 298.812L238.833 328.146C228.898 328.245 218.961 328.277 209.025 328.242C208.911 338.224 208.88 348.207 208.934 358.19L179.341 358.162C179.193 348.256 179.141 338.349 179.186 328.442L209.034 328.375C208.855 318.487 208.814 308.596 208.909 298.706Z"/><path fill="#FDFDFD" d="M1074.91 806.152L1104.63 806.184L1104.65 835.661C1094.83 835.9 1084.59 835.765 1074.74 835.769C1074.89 845.566 1074.69 855.666 1074.62 865.487C1064.71 865.734 1054.81 865.725 1044.9 865.459L1044.9 836.257C1054.75 835.655 1064.94 835.873 1074.83 835.904C1074.61 825.987 1074.64 816.067 1074.91 806.152Z"/><path fill="#FDFDFD" d="M657.023 268.856L686.804 268.865C686.628 278.815 686.986 288.96 686.54 298.828L716.427 298.806L716.407 328.115C706.612 328.23 696.815 328.251 687.019 328.176C686.534 317.411 686.615 309.166 686.706 298.443C677.138 298.638 666.361 298.402 657.06 298.814C656.829 288.829 656.817 278.841 657.023 268.856Z"/><path fill="#FDFDFD" d="M1134.63 806.105L1164.46 806.105C1164.49 816.048 1164.43 825.991 1164.29 835.933C1174.08 835.763 1184.35 835.935 1194.18 835.948C1194.32 845.794 1194.3 855.641 1194.12 865.487L1164.62 865.487C1164.46 855.628 1164.53 845.544 1164.49 835.666C1154.67 835.879 1144.5 835.768 1134.65 835.785C1134.53 825.892 1134.52 815.998 1134.63 806.105Z"/><path fill="#FDFDFD" d="M179.285 507.617C189.022 507.472 199.051 507.583 208.814 507.569C209.264 517.007 209.014 528.033 209.012 537.593L238.848 537.551C238.81 546.152 238.868 554.797 238.866 563.397C238.865 565.738 238.874 566.078 237.618 567.265C228.16 567.367 218.702 567.333 209.245 567.163C208.334 559.65 208.971 545.063 209.149 537.291L179.372 537.291C178.985 527.788 179.24 517.205 179.285 507.617Z"/><path fill="#FDFDFD" d="M567.349 60.087C577.212 59.971 587.077 59.9194 596.941 59.9323L597.005 89.8998C604.538 89.7525 620.738 90.245 626.951 89.6386L626.986 119.379L597.289 119.208C597.155 109.357 597.08 99.5055 597.063 89.6535C587.289 89.6346 577.218 89.7354 567.475 89.417C567.285 80.2359 567.131 69.2954 567.349 60.087Z"/><path fill="#FDFDFD" d="M746.5 298.858L776.09 298.773L776.09 328.139C766.185 328.355 756.277 328.391 746.371 328.245C746.377 337.963 746.157 348.604 746.417 358.24C736.49 358.222 726.474 358.274 716.556 358.142C716.438 348.267 716.441 338.39 716.566 328.515C724.43 327.876 738.12 328.366 746.478 328.445L746.5 298.858Z"/><path fill="#FDFDFD" d="M925.52 776.499C935.421 776.591 945.323 776.517 955.222 776.275L955.147 805.932C945.4 805.916 934.825 806.107 925.146 805.822C925.083 815.807 925.104 825.793 925.209 835.778L895.658 835.684C895.443 825.883 895.429 816.079 895.616 806.277C905.405 805.815 915.496 806.023 925.32 806.099C925.283 797.691 924.861 784.412 925.52 776.499Z"/><path fill="#FDFDFD" d="M1015.05 1106.73L1015.49 1106.91C1016.12 1109.2 1015.83 1130.16 1015.81 1133.99C1021.11 1133.98 1038.54 1133.69 1042.8 1134.32C1033.44 1134.71 1024.25 1134.57 1014.89 1134.49C1014.93 1140.19 1015.37 1159.09 1014.57 1164C1005.78 1164.65 994.088 1164.28 985.25 1164.1L985.253 1134.99C995.151 1134.53 1005.23 1134.66 1015.15 1134.69C1015.03 1125.37 1015 1116.05 1015.05 1106.73Z"/><path fill="#FDFDFD" d="M965.316 925.481C971.652 925.229 978.725 925.464 985.117 925.541L985.169 955.187L975.571 955.422C968.926 955.487 961.983 955.246 955.318 955.115C955.105 945.317 955.058 935.517 955.178 925.718L965.316 925.481Z"/><path fill="#FDFDFD" d="M746.477 895.729C756.397 895.581 766.319 895.505 776.24 895.502C776.304 905.379 776.476 915.394 776.017 925.249C766.463 925.944 756.004 925.562 746.446 925.214C746.328 915.474 746.46 905.489 746.477 895.729Z"/><path fill="#FDFDFD" d="M955.131 746.395C965.125 746.599 975.122 746.612 985.116 746.435C985.104 754.762 984.644 768.457 985.205 776.349C975.755 775.967 964.785 776.247 955.222 776.275C955.023 766.444 955.143 756.255 955.131 746.395Z"/><path fill="#FDFDFD" d="M656.99 119.411L656.936 149.223C648.302 149.25 635.342 148.849 627.009 149.361L626.986 119.379C636.071 119.482 648.065 119.856 656.99 119.411Z"/><path fill="#FDFDFD" d="M149.427 328.24C149.362 338.232 149.366 348.225 149.439 358.218C139.493 358.251 129.547 358.22 119.601 358.127C119.453 348.245 119.449 338.361 119.587 328.479C129.534 328.498 139.481 328.418 149.427 328.24Z"/><path fill="#FDFDFD" d="M119.579 1104.83C128.706 1104.45 140.067 1104.76 149.365 1104.76C149.464 1114.67 149.44 1124.57 149.294 1134.48C139.387 1134.6 129.478 1134.62 119.571 1134.54C119.332 1124.79 119.525 1114.62 119.579 1104.83Z"/><path fill="#FDFDFD" d="M626.995 238.874C636.976 238.961 646.957 238.99 656.938 238.961C656.973 248.862 656.925 258.763 656.794 268.663L626.972 268.745L626.995 238.874Z"/><path fill="#FDFDFD" d="M746.428 268.719C746.316 278.655 746.287 288.592 746.342 298.529C736.534 298.761 726.387 298.605 716.551 298.575C716.224 289.274 716.491 278.219 716.449 268.81C725.618 268.817 737.479 269.172 746.428 268.719Z"/><path fill="#FDFDFD" d="M626.972 268.745C627.026 278.725 627.019 288.705 626.948 298.685C617.098 298.558 607.254 298.712 597.343 298.552C597.134 288.638 597.03 278.722 597.03 268.806C607.011 268.903 616.992 268.883 626.972 268.745Z"/><path fill="#FDFDFD" d="M955.177 1045.15C964.647 1044.64 975.53 1044.91 985.119 1044.95L985.067 1074.66C975.009 1074.6 965.403 1074.98 955.247 1074.59C954.95 1064.94 955.134 1054.84 955.177 1045.15Z"/><path fill="#FDFDFD" d="M955.103 1164.4C964.617 1164.66 975.322 1164.39 984.891 1164.28C984.927 1174.13 985.019 1183.98 985.168 1193.84C982.163 1194.6 959.434 1194.15 955.251 1194.11C955.087 1184.21 955.037 1174.3 955.103 1164.4Z"/><path fill="#FDFDFD" d="M1134.54 627.03C1144.5 626.877 1154.47 626.867 1164.43 626.999C1164.54 636.896 1164.5 646.795 1164.31 656.691C1154.41 656.761 1144.51 656.717 1134.62 656.558C1134.37 646.944 1134.54 636.692 1134.54 627.03Z"/><path fill="#FDFDFD" d="M955.105 865.775L985.042 865.732C985.084 875.217 985.39 886.119 985.056 895.492C975.101 895.553 965.145 895.515 955.19 895.378C955.027 885.75 955.443 875.058 955.105 865.775Z"/><path fill="#FDFDFD" d="M955.138 985.255C965.131 985.386 975.124 985.382 985.117 985.244L985.105 1015.11C975.535 1015.06 964.655 1014.77 955.19 1015.12L955.138 985.255Z"/><path fill="#FDFDFD" d="M925.23 1015.15C934.231 1015.28 946.221 1015.46 955.19 1015.12C954.775 1024.06 955.109 1035.8 955.102 1044.88C945.062 1044.82 935.514 1045.06 925.329 1044.86C925.359 1034.96 925.327 1025.05 925.23 1015.15Z"/><path fill="#FDFDFD" d="M268.803 1075.09C278.359 1074.71 289.224 1074.91 298.879 1074.88C298.018 1082.62 299.065 1095.46 298.49 1104.45C292.197 1105.18 275.919 1104.67 268.915 1104.6C268.76 1094.76 268.723 1084.93 268.803 1075.09Z"/><path fill="#FDFDFD" d="M1134.5 746.378C1141.16 746.659 1157.81 746.868 1164.54 746.376C1164.41 756.324 1164.38 766.273 1164.44 776.222C1155.31 776.232 1143.47 775.892 1134.56 776.336C1134.6 766.35 1134.58 756.364 1134.5 746.378Z"/><path fill="#FDFDFD" d="M716.566 985.283C726.276 985.487 736.611 985.308 746.37 985.308C746.443 995.228 746.417 1005.15 746.29 1015.07C736.52 1014.93 726.442 1015.06 716.647 1015.06C716.437 1005.13 716.411 995.208 716.566 985.283Z"/><path fill="#FDFDFD" d="M478.968 209.157C488.461 208.792 497.999 208.97 507.498 209.07C507.532 213.557 508.142 236.489 506.798 238.718C497.133 238.861 487.467 238.874 477.802 238.759C477.68 230.603 477.569 222.391 477.693 214.238C477.736 211.41 477.387 210.642 478.968 209.157Z"/><path fill="#FDFDFD" d="M955.183 806.333C965.143 806.111 975.107 806.059 985.069 806.178C985.149 816.042 985.085 825.907 984.878 835.769L955.123 835.78C954.971 825.965 954.991 816.147 955.183 806.333Z"/><path fill="#FDFDFD" d="M1194.22 507.723C1203.89 507.368 1214.23 507.575 1223.96 507.613C1224.07 515.596 1224.52 529.716 1223.73 537.407C1213.95 537.503 1204.02 537.4 1194.23 537.388C1194.3 527.5 1194.3 517.611 1194.22 507.723Z"/><path fill="#FDFDFD" d="M119.592 1164.33C128.954 1164.7 139.873 1164.42 149.351 1164.39C149.479 1174.3 149.46 1184.2 149.293 1194.1C139.865 1194.42 129.102 1194.18 119.572 1194.19C119.528 1184.23 119.534 1174.28 119.592 1164.33Z"/><path fill="#FDFDFD" d="M925.276 895.771C935.186 895.453 945.103 895.442 955.014 895.737C955.223 905.576 955.213 915.419 954.986 925.257C945.691 925.828 934.602 925.472 925.276 925.269L925.276 895.771Z"/><path fill="#FDFDFD" d="M776.771 835.325L777.206 835.337C777.104 835.512 776.132 837.221 776.133 837.277C776.255 846.238 776.222 857.014 776.203 865.718C769.715 865.014 757.101 865.899 748.999 865.431C747.598 865.338 748.297 865.53 746.935 864.751C745.767 860.336 746.367 841.321 746.433 836.005C751.963 835.797 773.313 836.531 776.771 835.325Z"/><path fill="#FDFDFD" d="M955.123 835.78C955.054 845.778 955.048 855.776 955.105 865.775C948.092 865.157 933.389 865.65 925.323 865.498C925.375 855.592 925.337 845.684 925.209 835.778C934.3 835.853 946.107 836.244 955.123 835.78Z"/><path fill="#FDFDFD" d="M866.271 716.675C875.014 716.21 886.475 716.565 895.419 716.593C895.501 726.476 895.673 736.419 895.278 746.29C885.589 746.456 875.601 746.302 865.888 746.267C865.602 741.684 864.838 720.192 866.271 716.675Z"/><path fill="#FDFDFD" d="M1074.91 865.819C1084.82 865.728 1094.73 865.704 1104.64 865.747C1104.42 875.247 1104.69 885.749 1104.73 895.325C1094.82 895.589 1084.91 895.553 1075.01 895.216C1074.38 886.09 1074.82 875.139 1074.91 865.819Z"/><path fill="#FDFDFD" d="M1164.46 656.985C1173.15 656.481 1185.26 656.827 1194.31 656.727C1194.1 666.534 1194.62 676.716 1193.93 686.505C1184.53 687.057 1173.88 686.738 1164.48 686.488C1164.35 676.784 1164.54 666.773 1164.46 656.985Z"/><path fill="#FDFDFD" d="M119.57 985.321L149.375 985.302C149.45 995.215 149.42 1005.13 149.283 1015.04C139.436 1015.1 129.589 1015.05 119.743 1014.89C119.456 1005.04 119.398 995.177 119.57 985.321Z"/><path fill="#FDFDFD" d="M985.21 656.976C995.123 656.716 1005.04 656.73 1014.95 657.017C1015.27 666.22 1014.98 677.034 1014.96 686.362C1005.71 686.956 994.598 686.731 985.345 686.46C984.957 677.293 985.224 666.284 985.21 656.976Z"/><path fill="#FDFDFD" d="M716.562 925.612C726.348 925.379 736.571 925.546 746.393 925.573L746.339 955.202C736.406 955.405 726.471 955.421 716.538 955.249C716.496 945.37 716.503 935.491 716.562 925.612Z"/><path fill="#FDFDFD" d="M716.487 865.858C726.44 865.753 736.393 865.747 746.346 865.84C746.389 875.646 746.365 885.452 746.273 895.258C736.274 895.608 726.549 895.451 716.555 895.342C716.449 885.514 716.427 875.686 716.487 865.858Z"/><path fill="#FDFDFD" d="M716.474 1104.91L746.371 1104.91C746.395 1114.77 746.364 1124.63 746.278 1134.5L716.483 1134.6L716.474 1104.91Z"/><path fill="#FDFDFD" d="M865.797 835.952C875.271 835.641 885.88 835.892 895.438 835.917C895.369 840.912 895.945 861.57 894.867 865.037L893.808 865.393C885.504 865.961 874.412 865.629 865.885 865.569C865.198 855.816 865.539 845.718 865.797 835.952Z"/><path fill="#FDFDFD" d="M238.914 1104.91L268.712 1104.91C268.728 1114.36 269.014 1125.25 268.514 1134.54C258.887 1134.6 248.601 1134.84 239.041 1134.4C238.566 1125.09 238.858 1114.34 238.914 1104.91Z"/><path fill="#FDFDFD" d="M298.737 1045.09C307.933 1044.61 319.248 1044.88 328.472 1045.16C328.211 1054.74 328.36 1065.08 328.313 1074.7C318.49 1074.87 308.665 1074.86 298.842 1074.67C298.436 1065.11 298.68 1054.72 298.737 1045.09Z"/><path fill="#FDFDFD" d="M30.0454 537.615C39.928 537.534 49.811 537.53 59.6936 537.604C59.6737 547 59.3854 558.247 60.0405 567.466C50.0423 567.43 40.0444 567.34 30.0472 567.195C29.9253 557.418 30.0409 547.412 30.0454 537.615Z"/><path fill="#FDFDFD" d="M776.295 358.223C775.91 368.062 776.626 377.903 775.937 388.029C766.132 388.07 756.326 388.019 746.522 387.875C746.369 378.074 746.439 368.058 746.417 358.24C755.019 358.374 767.716 358.611 776.295 358.223Z"/><path fill="#FDFDFD" d="M187.065 985.504C192.253 984.969 203.25 985.27 208.843 985.311C209.121 995.078 209.01 1005.2 209.024 1014.99L201.783 1015.02C194.618 1015.08 186.379 1015.35 179.324 1014.75C178.902 1005.72 179.182 994.689 179.177 985.511L187.065 985.504Z"/><path fill="#FDFDFD" d="M805.966 597.047C815.811 597.124 825.937 597.321 835.757 597.133C835.739 606.525 835.414 617.664 835.723 626.902C828.165 626.295 814.867 626.969 806.098 626.683C805.716 617.22 805.948 606.599 805.966 597.047Z"/><path fill="#FDFDFD" d="M925.608 955.547L955.085 955.479L955.138 985.255C945.188 985.152 935.237 985.104 925.286 985.113C925.25 981.076 924.922 958.608 925.608 955.547Z"/><path fill="#FDFDFD" d="M805.916 895.734C815.622 895.331 825.944 895.569 835.709 895.64L835.705 925.421C825.906 925.462 816.106 925.449 806.307 925.382C805.663 916.013 805.904 905.238 805.916 895.734Z"/><path fill="#FDFDFD" d="M716.671 1045.06C725.396 1044.54 737.382 1044.9 746.349 1044.9L746.358 1074.74L716.584 1074.54C716.413 1065.3 716.153 1054.18 716.671 1045.06Z"/><path fill="#FDFDFD" d="M895.242 686.706C905.239 686.638 915.235 686.716 925.229 686.942L925.128 716.416C914.822 716.619 905.962 716.768 895.654 716.341C895.398 706.464 895.26 696.585 895.242 686.706Z"/><path fill="#FDFDFD" d="M1104.71 716.709L1134.53 716.709L1134.5 746.378C1124.61 746.195 1114.76 746.434 1104.91 746.279C1104.65 736.425 1104.59 726.566 1104.71 716.709Z"/><path fill="#FDFDFD" d="M567.306 119.499L596.934 119.513L597.003 149.331L567.306 149.246L567.306 119.499Z"/><path fill="#FDFDFD" d="M111.296 955.503L119.564 955.512C119.652 965.388 119.613 975.264 119.445 985.139L99.3464 985.167L89.8719 985.16C89.4753 975.038 89.6329 965.695 89.8151 955.548L111.296 955.503Z"/><path fill="#FDFDFD" d="M258.861 1044.9C260.689 1044.72 266.566 1044.92 268.68 1044.94L268.68 1074.7L251.198 1074.65L239.221 1074.59C238.468 1067.52 238.894 1052.77 238.925 1045.13C245.569 1044.99 252.215 1044.91 258.861 1044.9Z"/><path fill="#FDFDFD" d="M626.98 298.857C637.006 298.736 647.033 298.722 657.06 298.814L656.921 328.146C646.98 328.332 637.037 328.384 627.095 328.301C626.907 318.488 626.869 308.672 626.98 298.857Z"/><path fill="#FDFDFD" d="M686.778 239.217C696.65 239.073 706.524 239.038 716.397 239.111L716.449 268.81C706.719 268.787 696.524 268.92 686.827 268.708C686.325 258.9 686.604 249.04 686.778 239.217Z"/><path fill="#FDFDFD" d="M686.659 60.0876C696.509 59.9193 706.518 59.9482 716.383 59.8848C716.444 66.1804 716.917 83.3146 716.139 88.7715L715.193 89.4646C705.807 89.9051 696.293 89.6923 686.906 89.477C686.228 80.0587 686.783 69.6791 686.659 60.0876Z"/><path fill="#FDFDFD" d="M686.837 835.989C696.511 835.756 706.74 835.913 716.456 835.909C716.416 840.003 717.152 863.173 715.716 865.361C706.762 866.014 695.917 865.613 686.867 865.469C686.479 855.484 686.669 845.962 686.837 835.989Z"/><path fill="#FDFDFD" d="M895.502 865.857C904.978 865.543 915.592 865.756 925.156 865.74C925.216 875.17 925.443 885.99 924.944 895.337C915.221 895.772 905.377 895.497 895.637 895.335C895.257 885.586 895.434 875.629 895.502 865.857Z"/><path fill="#FDFDFD" d="M1142.1 985.505C1147.67 985.003 1158.36 985.294 1164.29 985.302L1164.29 1014.89L1155.73 1014.89C1148.69 1015.02 1141.65 1015.09 1134.61 1015.1C1134.5 1005.24 1134.5 995.373 1134.6 985.511L1142.1 985.505Z"/><path fill="#FDFDFD" d="M895.502 985.289L925.112 985.284C925.135 995.174 925.05 1005.28 925.23 1015.15C915.638 1014.84 905.368 1015.02 895.721 1015.04C895.148 1005.72 895.363 994.71 895.502 985.289Z"/><path fill="#FDFDFD" d="M238.89 686.933C248.826 686.694 258.766 686.692 268.702 686.925L268.666 716.379C258.856 716.556 249.044 716.554 239.234 716.373C238.55 707.092 238.83 696.366 238.89 686.933Z"/><path fill="#FDFDFD" d="M1104.89 1075.16C1114.6 1074.99 1124.87 1074.69 1134.53 1075.16C1134.57 1082.1 1134.99 1098.29 1134.13 1104.54C1124.41 1104.65 1114.69 1104.66 1104.97 1104.58C1104.81 1094.47 1104.32 1085.38 1104.89 1075.16Z"/><path fill="#FDFDFD" d="M1074.57 1193.99L1074.85 1194C1074.19 1198.07 1074.74 1218.41 1074.84 1223.96L1045.8 1223.94L1045.08 1223.31C1044.42 1216.14 1044.88 1202.07 1044.9 1194.39C1051.01 1194.34 1069.76 1194.81 1074.57 1193.99Z"/><path fill="#FDFDFD" d="M686.677 1134.79C696.585 1134.72 706.493 1134.71 716.402 1134.76C716.458 1141.78 716.954 1157.67 716.196 1164.14C706.509 1164.43 696.619 1164.24 686.912 1164.16C686.347 1154.38 686.269 1144.58 686.677 1134.79Z"/><path fill="#FDFDFD" d="M1223.24 686.755L1223.71 687.153C1224.41 691.399 1224.02 711.027 1224.01 716.437C1214.3 716.699 1204.19 716.454 1194.44 716.345C1193.74 709.862 1194.38 694.578 1194.26 686.922C1203.49 686.588 1213.92 686.786 1223.24 686.755Z"/><path fill="#FDFDFD" d="M898.803 1044.9C907.594 1044.86 916.384 1044.92 925.172 1045.1C925.227 1051.43 925.937 1067.39 924.517 1074.04C924.386 1074.66 923.237 1074.5 922.284 1074.58C913.416 1074.72 904.547 1074.7 895.68 1074.5C895.292 1067.04 894.981 1053.29 895.588 1046.07C896.948 1044.59 896.137 1045.22 898.803 1044.9Z"/><path fill="#FDFDFD" d="M925.274 1134.74C935.232 1134.7 945.191 1134.76 955.147 1134.91L955.11 1164.4C945.171 1164.46 935.233 1164.39 925.296 1164.19L925.274 1134.74Z"/><path fill="#FDFDFD" d="M925.193 746.334C924.861 755.612 925.163 766.814 925.16 776.204L895.6 776.251C895.427 766.353 895.387 756.452 895.481 746.552C905.386 746.598 915.29 746.526 925.193 746.334Z"/><path fill="#FDFDFD" d="M835.833 567.701L865.709 567.413L865.699 596.952C856.969 596.97 844.153 596.59 835.757 597.133C835.611 587.323 835.636 577.51 835.833 567.701Z"/><path fill="#FDFDFD" d="M835.723 626.902C845.583 626.907 855.645 626.805 865.487 626.947L865.487 656.691C855.763 656.672 845.504 656.81 835.828 656.468L835.723 626.902Z"/><path fill="#FDFDFD" d="M910.653 925.501C914.73 925.2 920.934 925.529 925.171 925.63C925.277 935.464 925.244 945.3 925.072 955.133L907.282 955.245L895.621 955.209C895.318 945.477 895.647 935.571 895.326 925.756C900.406 925.616 905.565 925.582 910.653 925.501Z"/><path fill="#FDFDFD" d="M1164.55 716.551L1194.09 716.524C1194.2 726.46 1194.19 736.397 1194.07 746.333L1164.54 746.376L1164.55 716.551Z"/><path fill="#FDFDFD" d="M567.472 239.294C575.285 238.565 588.891 238.844 596.911 239.203C597.048 249.07 597.088 258.938 597.03 268.806L567.485 268.706C567.395 261.619 566.832 245.608 567.472 239.294Z"/><path fill="#FDFDFD" d="M1194.31 627.075C1204.05 626.782 1214.18 626.907 1223.95 626.899C1223.99 630.821 1224.59 654.501 1223.29 656.568C1213.66 656.732 1204.03 656.711 1194.41 656.505C1194.26 646.75 1194.41 636.871 1194.31 627.075Z"/><path fill="#FDFDFD" d="M581.173 179.084C586.448 179.15 591.722 179.242 596.996 179.361L596.972 208.785L585.516 208.933C579.49 208.955 573.464 208.927 567.438 208.849C567.014 199.856 567.316 188.544 567.306 179.375C571.87 179.395 576.595 179.209 581.173 179.084Z"/><path fill="#FDFDFD" d="M1134.58 567.58L1164.45 567.554L1164.41 596.94L1134.56 596.971L1134.58 567.58Z"/><path fill="#FDFDFD" d="M358.511 1045.17C367.352 1044.57 379.007 1044.89 388.068 1044.9C388.117 1054.8 388.057 1064.69 387.889 1074.58C378.165 1074.92 368.256 1074.7 358.511 1074.58L358.511 1045.17Z"/><path fill="#FDFDFD" d="M1164.53 537.637L1194.15 537.587C1194.3 547.454 1194.29 557.324 1194.12 567.191C1184.56 567.523 1174.21 567.369 1164.63 567.323C1164.37 557.547 1164.51 547.442 1164.53 537.637Z"/><path fill="#FDFDFD" d="M1164.68 597.296C1174.03 596.977 1184.62 597.229 1194.06 597.247C1194.22 606.684 1194.45 617.405 1193.98 626.759C1184.21 626.886 1174.44 626.903 1164.66 626.808C1164.51 616.797 1164.38 607.294 1164.68 597.296Z"/><path fill="#FDFDFD" d="M1075.04 1104.91L1104.65 1104.91C1104.69 1114.77 1104.66 1124.63 1104.55 1134.5C1094.68 1134.57 1084.8 1134.58 1074.92 1134.53C1074.51 1124.66 1074.55 1114.78 1075.04 1104.91Z"/><path fill="#FDFDFD" d="M716.567 1164.47L746.31 1164.53L746.292 1194.11L716.571 1194.11C716.288 1184.4 716.499 1174.22 716.567 1164.47Z"/><path fill="#FDFDFD" d="M746.474 1134.78L776.179 1134.72C776.305 1143.54 776.666 1155.55 775.964 1164.18C766.572 1164.51 756.004 1164.27 746.525 1164.25C746.206 1154.88 746.46 1144.24 746.474 1134.78Z"/><path fill="#FDFDFD" d="M179.213 567.441C188.672 567.767 199.332 567.574 208.886 567.619C209.011 577.341 209.25 587.251 208.885 596.95C199.021 597 189.157 597.002 179.293 596.953C179.162 587.117 179.135 577.279 179.213 567.441Z"/><path fill="#FDFDFD" d="M1164.51 955.661C1173.95 955.29 1184.64 955.522 1194.18 955.527C1194.26 965.397 1194.21 975.268 1194.03 985.136L1164.52 985.171C1164.42 975.334 1164.42 965.497 1164.51 955.661Z"/><path fill="#FDFDFD" d="M1164.48 1075.17C1174.39 1075.03 1184.3 1074.94 1194.22 1074.91L1193.99 1104.62C1184.18 1104.86 1174.37 1104.86 1164.56 1104.61C1164.29 1094.94 1164.4 1084.84 1164.48 1075.17Z"/><path fill="#FDFDFD" d="M776.353 627.111C786.347 626.817 795.842 626.896 805.847 627.019C805.978 636.842 805.993 646.665 805.893 656.487C796.22 656.721 786.544 656.746 776.871 656.564C776.069 647.401 776.343 636.463 776.353 627.111Z"/><path fill="#FDFDFD" d="M567.229 1134.73L597.059 1134.73C597.015 1138.93 597.713 1161.94 596.244 1164.15C586.597 1164.39 576.948 1164.45 567.299 1164.32C567.343 1154.46 567.32 1144.59 567.229 1134.73Z"/><path fill="#FDFDFD" d="M656.929 89.8146C666.863 89.6331 676.801 89.6672 686.734 89.9167C686.621 99.6802 686.569 109.444 686.578 119.208C677.275 119.224 666.146 118.961 656.99 119.411C656.931 109.709 656.71 99.4717 656.929 89.8146Z"/><path fill="#FDFDFD" d="M1194.29 925.876C1203.44 925.172 1214.79 925.525 1224 925.679L1223.99 955.163C1214.15 955.322 1204.3 955.34 1194.46 955.218C1194 946.318 1194.3 934.961 1194.29 925.876Z"/><path fill="#FDFDFD" d="M209.108 716.709L238.88 716.709C238.612 726.281 238.782 736.641 238.751 746.283C229.059 746.498 218.842 746.27 209.109 746.196C209.013 736.367 209.013 726.538 209.108 716.709Z"/><path fill="#FDFDFD" d="M597.105 1164.53L626.936 1164.38C627 1174.28 627.004 1184.18 626.947 1194.08C617.199 1193.96 607.15 1194.11 597.377 1194.13C596.93 1184.64 597.118 1174.11 597.105 1164.53Z"/><path fill="#FDFDFD" d="M447.927 1075.16C457.889 1075.04 467.649 1074.89 477.616 1075.22L477.606 1104.56C467.752 1104.84 457.893 1104.86 448.039 1104.62C447.628 1095.53 447.923 1084.4 447.927 1075.16Z"/><path fill="#FDFDFD" d="M179.285 268.98L208.923 268.864L208.909 298.706L179.317 298.61C179.239 288.734 179.229 278.857 179.285 268.98Z"/><path fill="#FDFDFD" d="M90.8523 1194.24L119.496 1194.38C119.53 1198.97 120.168 1221.55 118.62 1223.94L89.953 1223.93C89.1553 1215.94 89.5314 1205.41 89.5727 1197.27C89.5834 1195.17 89.6995 1195.23 90.8523 1194.24Z"/><path fill="#FDFDFD" d="M89.7088 1134.75L119.628 1134.7L119.594 1164.07C109.771 1164.43 99.6227 1164.26 89.7672 1164.21C89.5294 1154.68 89.7185 1144.35 89.7088 1134.75Z"/><path fill="#FDFDFD" d="M776.361 328.602C786.159 328.337 795.962 328.253 805.763 328.349C805.901 338.271 805.942 348.195 805.885 358.117L776.295 358.223L776.361 328.602Z"/><path fill="#FDFDFD" d="M776.372 925.305C784.021 925.943 797.99 925.576 805.914 925.595L805.913 955.206C796.061 955.426 786.205 955.411 776.353 955.16C776.261 945.209 776.267 935.257 776.372 925.305Z"/><path fill="#FDFDFD" d="M328.608 955.503L358.173 955.508C358.278 965.363 358.263 975.218 358.129 985.073C348.255 985.151 338.381 985.172 328.508 985.138C328.481 975.26 328.514 965.381 328.608 955.503Z"/><path fill="#FDFDFD" d="M328.598 1015.33C338.464 1015.22 348.33 1015.17 358.196 1015.19L358.132 1044.68C348.809 1045.12 338.065 1044.88 328.629 1044.86C328.475 1035.02 328.465 1025.17 328.598 1015.33Z"/><path fill="#FDFDFD" d="M1164.55 776.505C1174.4 776.407 1184.25 776.366 1194.1 776.38C1194.24 786.205 1194.21 796.031 1194.02 805.855C1184.22 805.979 1174.41 805.967 1164.6 805.817C1164.43 796.047 1164.42 786.275 1164.55 776.505Z"/><path fill="#FDFDFD" d="M298.799 1104.91L328.422 1104.91C328.477 1114.78 328.452 1124.65 328.346 1134.52L298.815 1134.56C298.474 1125.04 298.643 1114.45 298.799 1104.91Z"/><path fill="#FDFDFD" d="M865.836 597.179C875.698 597.102 885.562 597.157 895.423 597.345C895.019 606.105 895.92 618.271 894.986 626.591C885.691 626.896 875.211 626.675 865.824 626.688C865.594 617.981 865.109 605.764 865.836 597.179Z"/><path fill="#FDFDFD" d="M1015.12 806.32C1024.87 805.952 1034.93 806.135 1044.71 806.189L1044.69 835.754L1015.2 835.755C1014.93 825.946 1014.9 816.131 1015.12 806.32Z"/><path fill="#FDFDFD" d="M1104.44 776.285C1111.88 777.02 1126.7 776.475 1134.56 776.336C1134.52 783.998 1134.99 799.028 1134.19 805.82C1124.43 805.938 1114.67 805.938 1104.91 805.821C1104.95 802.016 1104.89 777.595 1104.44 776.285Z"/><path fill="#FDFDFD" d="M835.772 686.929C845.411 686.631 855.79 686.761 865.487 686.706L865.487 716.376C855.588 716.512 845.687 716.488 835.789 716.305C835.659 706.514 835.653 696.721 835.772 686.929Z"/><path fill="#FDFDFD" d="M537.557 89.8859C547.184 89.6444 557.414 89.7874 567.088 89.76C567.288 99.6251 567.318 109.493 567.18 119.359L537.614 119.273C537.495 109.533 537.571 99.6401 537.557 89.8859Z"/><path fill="#FDFDFD" d="M1134.52 686.881C1144.44 686.753 1154.37 686.689 1164.29 686.688L1164.29 716.302C1154.4 716.531 1144.51 716.562 1134.63 716.396C1134.26 707.123 1134.52 696.273 1134.52 686.881Z"/><path fill="#FDFDFD" d="M1105.07 955.508L1134.53 955.508C1134.61 965.38 1134.58 975.254 1134.45 985.126L1104.86 985.124C1104.3 977.711 1104.36 962.784 1105.07 955.508Z"/><path fill="#FDFDFD" d="M416.836 1134.91L417.469 1134.91C418.672 1137.01 417.927 1159.9 417.892 1164.05C408.393 1164.26 398.89 1164.31 389.389 1164.19L389.009 1163.98C387.534 1162.09 388.191 1139.03 388.214 1134.91L416.836 1134.91Z"/><path fill="#FDFDFD" d="M179.178 746.474L208.856 746.49C209.025 756.356 209.023 766.224 208.85 776.09L179.374 776.09C178.951 766.398 179.142 756.213 179.178 746.474Z"/><path fill="#FDFDFD" d="M1194.31 865.85L1223.94 865.775L1224 895.387C1214.13 895.577 1204.25 895.53 1194.38 895.245L1194.31 865.85Z"/><path fill="#FDFDFD" d="M776.354 1164.43L805.803 1164.47C805.951 1174.34 805.96 1184.21 805.832 1194.09L776.354 1194.14L776.354 1164.43Z"/><path fill="#FDFDFD" d="M1134.52 865.849C1144.45 865.784 1154.37 865.775 1164.29 865.82L1164.29 895.357C1154.9 895.596 1144.03 895.684 1134.72 895.166C1134.36 885.648 1134.53 875.425 1134.52 865.849Z"/><path fill="#FDFDFD" d="M89.7088 776.489L119.523 776.393C119.611 786.202 119.567 796.011 119.391 805.819C109.504 805.919 99.6159 805.918 89.7286 805.819L89.7088 776.489Z"/><path fill="#FDFDFD" d="M1044.9 776.475L1074.63 776.429C1074.72 786.257 1074.72 796.086 1074.62 805.914L1044.9 805.838L1044.9 776.475Z"/><path fill="#FDFDFD" d="M59.9388 567.619C69.7825 567.487 79.7554 567.558 89.6104 567.548C89.3781 575.884 90.2977 588.999 89.2213 596.995L60.0276 596.937C59.6812 586.79 59.7483 577.8 59.9388 567.619Z"/><path fill="#FDFDFD" d="M149.439 358.218L179.155 358.378C179.152 367.912 179.368 378.59 178.959 388.027L149.491 388.033C149.486 378.533 149.756 367.593 149.439 358.218Z"/><path fill="#FDFDFD" d="M1134.56 596.971L1134.29 626.688C1124.5 626.712 1114.72 626.687 1104.94 626.612C1104.88 616.632 1104.63 607.311 1104.8 597.246C1114.72 597.255 1124.64 597.163 1134.56 596.971Z"/><path fill="#FDFDFD" d="M149.473 298.777L179.248 298.721C179.17 308.324 178.905 318.569 179.069 328.122C169.189 328.271 159.307 328.31 149.427 328.24L149.473 298.777Z"/><path fill="#FDFDFD" d="M895.575 567.654C905.456 567.574 915.337 567.557 925.219 567.603C925.212 577.311 925.315 587.261 925.007 596.943L895.625 596.956C895.04 589.106 895.523 575.898 895.575 567.654Z"/><path fill="#FDFDFD" d="M985.205 776.349C995.015 776.646 1005.06 776.51 1014.89 776.476L1014.89 805.803C1005.03 805.973 995.162 805.982 985.299 805.83C985.262 796.698 985.583 785.295 985.205 776.349Z"/><path fill="#FDFDFD" d="M1074.91 746.712C1084.82 746.698 1094.74 746.623 1104.65 746.486C1104.67 755.197 1105.04 767.919 1104.44 776.285C1095.33 775.75 1084.19 776.104 1074.91 776.09L1074.91 746.712Z"/></svg>