<?xml version="1.0" encoding="utf-8" ?><svg xmlns="http://www.w3.org/2000/svg" xmlns:xlink="http://www.w3.org/1999/xlink" width="1254" height="1254" viewBox="0 0 1254 1254"><path fill="white" d="M0 0L56.9388 0L85.7634 0L285.034 0L1139.52 0L1168.24 0L1197 0L1225.23 0L1254 0L1254 28.629L1254 57.0364L1254 85.6956L1254 114.023L1254 142.615L1254 228.328L1254 256.916L1254 285.338L1254 313.8L1254 342.358L1254 371.074L1254 399.25L1254 428.111L1254 456.338L1254 484.909L1254 513.277L1254 541.899L1254 570.352L1254 598.914L1254 627.31L1254 655.799L1254 684.257L1254 712.89L1254 741.477L1254 769.967L1254 798.391L1254 827.184L1254 855.397L1254 883.882L1254 912.34L1254 941.019L1254 969.376L1254 998.143L1254 1026.48L1254 1054.98L1254 1083.3L1254 1111.86L1254 1140.17L1254 1168.8L1254 1197.04L1254 1225.59L1254 1254L1225.19 1254L1197.04 1254L1168.21 1254L1139.55 1254L1111.18 1254L114.064 1254L85.6651 1254L56.9546 1254L28.708 1254L0 1254L0 1225.46L0 1197.17L0 1168.82L0 1140.17L0 1111.8L0 1083.32L0 1054.83L0 1026.22L0 969.278L0 941.112L0 912.334L0 883.706L0 855.401L0 827.143L0 798.489L0 769.924L0 741.458L0 656.078L0 627.612L0 598.868L0 570.668L0 541.905L0 513.532L0 485.022L0 456.336L0 427.993L0 399.42L0 371.018L0 342.33L0 313.96L0 285.34L0 256.556L0 171.145L0 0Z"/><path fill="#FAFAFA" d="M1139.52 0L1168.24 0L1197 0L1225.23 0L1254 0L1254 28.629L1254 57.0364L1254 85.6956L1254 114.023L1254 142.615L1254 228.328L1254 256.916L1254 285.338L1254 313.8L1254 342.358L1254 371.074L1254 399.25L1254 428.111L1254 456.338L1254 484.909L1254 513.277L1254 541.899L1254 570.352L1254 598.914L1254 627.31L1254 655.799L1254 684.257L1254 712.89L1254 741.477L1254 769.967L1254 798.391L1254 827.184L1254 855.397L1225.19 855.533L1225.23 827.134C1215.85 827.033 1206.47 827.05 1197.1 827.185C1196.88 836.608 1196.89 846.034 1197.12 855.456C1188.41 855.851 1177.14 855.535 1168.23 855.548L1168.22 826.968C1177.8 827.021 1187.38 827.023 1196.97 826.976L1196.95 798.417C1187.36 798.508 1177.77 798.504 1168.17 798.403L1168.25 769.979C1177.82 770.01 1187.39 769.946 1196.95 769.786L1196.94 741.506C1187.4 741.298 1177.86 741.314 1168.32 741.552C1168.33 749.673 1168.6 759.988 1168.03 767.901C1167.39 760.376 1167.66 749.9 1167.67 742.113C1164.1 742.139 1149.89 742.432 1147.35 741.537L1147.29 741.571L1147.23 741.366C1153.87 741.071 1161.26 741.207 1167.97 741.189C1167.99 736.519 1167.44 717.491 1168.33 714.015L1170.13 713.183C1169.56 712.958 1168.99 712.733 1168.42 712.507C1167.82 705.278 1168.25 692.217 1168.28 684.557C1171.93 684.574 1175.58 684.524 1179.23 684.408C1176.46 684.106 1171.71 684.246 1168.78 684.244C1168.58 678.909 1168.51 661.324 1169.13 656.921C1172.41 655.331 1192.23 656.051 1196.74 656.456L1196.74 627.496C1186.96 627.241 1178.15 627.412 1168.33 627.661L1168.31 655.91C1158.7 655.785 1149.09 655.784 1139.48 655.905C1139.75 646.664 1139.56 636.625 1139.56 627.324C1148.65 627.545 1159.13 627.628 1168.14 627.149C1168.41 618.016 1168.21 608.003 1168.22 598.803L1196.93 598.822L1196.96 570.509C1187.58 570.247 1177.62 570.49 1168.19 570.572L1168.24 541.89C1177.81 541.864 1187.37 541.899 1196.93 541.996L1196.94 513.458C1187.56 513.164 1177.61 513.297 1168.19 513.278C1168.26 503.833 1168.28 494.388 1168.25 484.944C1177.83 484.853 1187.41 484.864 1196.99 484.979L1196.93 456.458L1168.23 456.341C1168.19 446.89 1168.21 437.439 1168.31 427.989L1139.54 428.081C1139.66 418.562 1139.56 408.853 1139.56 399.318C1130.11 399.365 1120.66 399.345 1111.21 399.259C1111.2 389.815 1111.13 380.371 1111 370.927C1120.53 371.002 1130.06 371.023 1139.59 370.991L1139.63 342.36C1148.74 342.333 1159.32 342.03 1168.29 342.313C1168.04 333.122 1168.22 323.194 1168.23 313.948C1176.78 313.905 1188.85 314.37 1196.95 313.788L1196.94 285.216L1225.23 285.288L1225.21 256.856L1196.96 256.837L1196.99 228.367L1168.13 228.403C1168.28 218.983 1168.2 209.355 1168.22 199.917L1196.93 199.988L1196.93 171.2L1225.11 171.178C1225.26 161.688 1225.29 152.196 1225.19 142.705L1196.95 142.788L1196.96 114.069C1189.26 114.598 1176.27 114.185 1168.17 114.189L1168.25 85.7578C1163.91 85.7945 1142.13 86.3266 1139.75 85.3803C1139.72 83.6915 1139.36 81.9039 1140.09 80.7452C1140.05 82.4576 1139.9 83.3469 1140.51 84.9674C1148.12 85.5033 1159.75 85.1304 1167.67 85.1104C1167.68 79.8876 1168.04 61.8425 1167.4 57.7535L1165.46 57.5448L1165.1 57.0635C1167.28 57.0075 1166.43 57.4273 1167.95 56.3118C1168.64 49.3216 1168.24 36.1717 1168.22 28.7199L1139.48 28.8086C1139.59 19.2061 1139.61 9.60275 1139.52 6.52603e-15L1139.52 0Z"/><path fill="#FAFAFA" d="M0 0L56.9388 0L85.7634 0L285.034 0L285.034 28.466C288.569 28.4738 306.828 28.0276 309.014 28.61C301.122 28.8062 293.228 28.8623 285.334 28.7783C285.278 36.7187 284.29 48.4808 285.778 55.7699C290.108 59.4043 307.259 56.1702 312.729 57.6303C314.298 58.0491 313.48 83.3092 313.5 85.7227L285.334 85.7227L285.334 113.889C280.553 113.843 260.396 112.814 257.324 115.38C256.101 120.259 256.467 131.926 256.434 137.508L256.254 171.142L228.09 171.145C228.078 175.168 228.603 190.047 227.953 193.108C227.767 186.094 227.709 179.076 227.777 172.06L221.195 171.894L227.778 171.299C218.656 170.634 209.497 170.643 200.376 171.325L207.571 171.914L200.224 172.058C200.219 174.438 200.27 195.75 200.043 196.049C199.855 187.545 199.811 179.039 199.911 170.533L171.745 170.533C171.737 165.708 170.927 146.549 172.495 143.492L171.967 142.627C163.635 141.037 147.467 142.799 138.441 142.535C127.156 142.206 115.268 142.927 103.878 142.388C96.0281 142.016 94.1899 143.826 86.5219 140.719L85.4774 140.285C85.2436 140.903 85.0097 141.522 84.7759 142.14C80.1029 142.208 61.4714 142.572 57.8293 141.873L57.6446 141.326C57.3527 140.486 57.4729 140.806 57.06 139.92C56.0871 141.16 56.4744 140.471 56.2853 142.236C48.7946 142.847 36.3361 142.415 28.4783 142.367L28.4783 171.145L0 171.145L0 0Z"/><path fill="#FAFAFA" d="M1225.24 883.88L1254 883.882L1254 912.34L1254 941.019L1254 969.376L1254 998.143L1254 1026.48L1254 1054.98L1254 1083.3L1254 1111.86L1254 1140.17L1254 1168.8L1254 1197.04L1254 1225.59L1254 1254L1225.19 1254L1197.04 1254L1168.21 1254L1139.55 1254L1111.18 1254L1111.13 1225.53L1139.43 1225.53C1139.58 1216.02 1139.61 1206.51 1139.52 1196.99C1149.1 1196.97 1158.68 1197.01 1168.26 1197.12C1168.03 1188.05 1168.27 1177.93 1168.28 1168.77C1158.97 1169.12 1148.91 1168.94 1139.54 1168.94L1139.59 1140.25L1111.05 1140.29L1111.15 1111.61C1120.14 1111.98 1130.51 1111.79 1139.61 1111.83C1139.56 1120.85 1139.28 1131.12 1139.82 1140.02L1168.26 1140.19L1168.22 1111.87C1177.81 1111.78 1187.43 1111.61 1197.01 1111.96C1196.76 1102.82 1196.96 1092.66 1196.94 1083.44C1187.4 1083.28 1177.87 1083.34 1168.34 1083.63C1168.35 1091.57 1168.58 1102.44 1168.01 1110.17C1167.36 1106.45 1167.71 1089.62 1167.57 1084.44C1164.73 1082.59 1163.46 1084.76 1161.52 1083.31C1163.73 1083.27 1166.59 1083.54 1167.99 1082.17C1168.68 1076.93 1168.28 1061.14 1168.33 1054.97C1158.79 1054.88 1149.1 1054.99 1139.55 1055C1139.77 1045.49 1139.8 1035.97 1139.65 1026.45C1130.64 1026.7 1120.31 1026.39 1111.2 1026.35C1111.13 1016.9 1111.14 1007.46 1111.24 998.014C1120.07 997.722 1130.54 997.997 1139.5 997.968C1139.7 988.531 1139.59 978.779 1139.6 969.316C1149.1 969.796 1158.66 969.546 1168.18 969.407C1168.34 960.066 1168.18 950.319 1168.17 940.946L1197.05 940.896C1196.85 950.378 1196.84 959.864 1197.03 969.347C1205.7 969.911 1216.34 969.511 1225.18 969.388L1225.19 941.076C1215.81 940.905 1206.42 940.857 1197.04 940.932L1196.98 912.24L1225.21 912.316L1225.24 883.88Z"/><path fill="#FAFAFA" d="M0 256.556C9.44733 256.516 19.9905 257.368 28.7783 257.168L28.7783 285.334L56.9443 285.334C56.9548 294.626 56.7363 304.928 57.0076 314.132C64.2604 314.859 77.6496 314.432 85.4226 314.412C85.4128 322.788 85.067 334.268 85.5899 342.394C94.5424 342.823 104.548 342.602 113.589 342.578C113.57 351.381 113.253 362.619 113.795 371.22C121.92 371.453 134.581 371.723 142.517 371.207C142.289 377.712 141.955 392.966 142.578 399.185L170.833 399.223L170.833 428.001L199.611 428.001L199.611 456.167L171.45 456.167C171.287 446.484 170.765 437.892 170.833 428.001L142.573 427.994C142.205 434.352 142.032 449.983 142.556 456.315C151.759 456.635 161.295 456.492 170.533 456.467L170.533 484.645C161.892 484.624 151.05 484.324 142.597 484.856C141.933 491.303 142.349 505.785 142.367 512.811L113.589 512.811L113.589 541.59L86.0227 541.59L86.0248 513.414L114.189 513.411C114.273 503.881 114.234 494.35 114.073 484.821C105.798 484.305 94.5188 484.634 86.0227 484.645L86.0227 455.867C77.66 455.855 64.9433 455.439 57.0105 456.12C56.9234 465.773 56.9167 475.427 56.9904 485.08C66.2069 485.464 76.1426 485.27 85.4226 485.245L85.4226 512.811C78.4125 512.794 63.2259 512.366 56.853 513.05C56.3306 521.804 56.6219 532.668 56.6443 541.59C48.1664 541.574 37.0588 541.254 28.7943 541.778L28.7783 570.056C18.9041 570.211 10.0945 570.736 0 570.668L0 541.905L0 513.532L0 485.022L0 456.336L0 427.993L0 399.42L0 371.018L0 342.33L0 313.96L0 285.34L0 256.556Z"/><path fill="#FAFAFA" d="M0 1083.32C9.52563 1083.3 19.2892 1083.38 28.7932 1083.19L28.7975 1111.86L57.0497 1111.69C56.9391 1121.15 56.9709 1130.61 57.1453 1140.07L85.7491 1140.18L85.6816 1111.76L114.029 1111.66L113.994 1140.19L142.752 1140C142.707 1148.93 142.381 1159.68 142.775 1168.46C137.084 1169.29 120.428 1168.98 113.964 1168.85C114.02 1177.91 113.856 1187.99 114.185 1196.94C123.707 1197.1 133.23 1197.13 142.753 1197.05C142.672 1206.53 142.439 1216.42 142.835 1225.85C133.597 1225.49 123.375 1225.72 114.075 1225.8C114.069 1235.05 113.897 1244.8 114.064 1254L85.6651 1254L56.9546 1254L28.708 1254L0 1254L0 1225.46L0 1197.17L0 1168.82L0 1140.17L0 1111.8L0 1083.32Z"/><path fill="#FAFAFA" d="M29.0783 627.912L56.6443 627.912L56.6443 656.078L85.4226 656.078L85.4211 684.253C80.1612 684.263 61.1296 682.767 57.7213 685.24C55.5027 688.775 56.695 706.739 56.6443 712.423C47.2561 712.554 37.8665 712.554 28.4783 712.423C28.4675 721.299 28.1285 732.898 28.6381 741.555C33.6702 741.916 52.265 742.16 56.9443 741.501C56.2067 748.096 56.6236 762.143 56.6443 769.367C51.307 769.46 32.1989 769.209 28.7941 769.63L28.7743 798.429C34.7372 798.916 50.6533 799.058 56.7943 798.595C56.6054 804.281 56.2259 822.124 56.9443 827.224C51.999 826.527 34.0161 826.867 28.6841 827.109C28.3368 833.293 28.1213 849.132 28.654 855.281C28.8949 864.758 28.509 874.195 28.861 883.634C35.7402 883.784 50.7773 884.35 57.0791 883.462C57.0338 891.153 57.4014 905.4 56.8577 912.382C56.1708 919.092 56.7332 934.04 56.9899 941.017C65.344 941.658 76.8235 941.386 85.4226 941.412C85.4087 949.288 85.05 961.467 85.7505 968.978L57.3253 968.978C56.8144 962.341 58.4392 945.601 55.9915 941.776C52.3493 939.097 34.4633 940.189 29.0282 940.215C29.1722 931.577 29.2921 920.874 28.9084 912.378L0 912.334L0 883.706L0 855.401L0 827.143L0 798.489L0 769.924L0 741.458L0 656.078L29.0783 656.078L29.0783 627.912Z"/><path fill="#FAFAFA" d="M1139.46 940.85C1139.51 936.586 1139.12 914.747 1139.96 912.19C1149.42 912.381 1158.88 912.378 1168.34 912.181L1168.32 941.038L1139.71 941.09C1139.5 950.582 1139.46 960.078 1139.59 969.572C1130.3 969.546 1120.3 969.324 1111.08 969.856C1110.94 979.52 1110.87 988.371 1111.24 998.014L1082.87 998.101L1082.87 969.579L1111.05 969.591C1111.08 960.306 1111.3 950.145 1110.99 940.932C1120.38 940.895 1130.1 940.724 1139.46 940.85Z"/><path fill="#FAFAFA" d="M28.7783 228.39L56.9443 228.39L56.9443 257.168C63.7771 257.133 78.3967 256.479 84.3017 257.469L85.3728 257.404C86.1125 260.585 85.7408 280.541 85.7227 285.334L113.889 285.334L113.889 313.5L85.7227 313.5L85.7227 285.334L56.9443 285.334L56.9443 256.556L28.7783 256.556L28.7783 228.39Z"/><path fill="#FAFAFA" d="M85.7227 798.445L113.889 798.445L113.889 827.224L142.667 827.224L142.667 855.39L113.889 855.39L113.889 827.224L85.7227 827.224L85.7227 798.445Z"/><path fill="#FAFAFA" d="M0 598.868C9.19677 598.771 20.0358 599.22 28.9245 598.756C28.6716 606.746 29.0469 616.222 28.6986 624.25C28.6556 625.241 27.9022 626.089 27.2105 626.781C23.4468 628.577 5.63056 627.565 0 627.612L0 598.868Z"/><path fill="#FAFAFA" d="M56.9443 770.279C67.727 770.291 78.3322 770.338 89.0437 769.034C91.9232 768.684 95.3333 768.85 98.2372 769.019C95.6457 769.912 88.6711 769.703 85.7227 769.667L85.7227 798.445C76.1569 798.42 66.3315 798.281 56.7943 798.595C57.1028 789.254 56.9701 779.649 56.9443 770.279Z"/><path fill="#FAFAFA" d="M-2.17534e-15 1026.22C9.61702 1026.32 19.2349 1026.29 28.8513 1026.14C28.6606 1035.78 28.6646 1045.42 28.8633 1055.05L0 1054.83L0 1026.22L-2.17534e-15 1026.22Z"/><path fill="#FAFAFA" d="M0 941.112L28.7783 941.112L28.7783 969.278L0 969.278L0 941.112Z"/><path fill="#FAFAFA" d="M1111 313.904C1119.02 313.896 1131.91 313.474 1139.54 314.014C1139.53 323.306 1139.37 333.112 1139.63 342.36C1130.61 342.392 1119.94 342.698 1111.05 342.329C1111.21 332.855 1111.2 323.378 1111 313.904Z"/><path fill="#FAFAFA" d="M142.667 342.891C149.238 342.865 155.773 342.764 162.34 342.545C165.227 342.449 167.922 342.959 170.833 342.891L170.833 371.057C162.262 371.051 150.859 370.715 142.517 371.207C142.825 361.865 142.693 352.261 142.667 342.891Z"/><path fill="#FAFAFA" d="M56.9443 598.834C63.6707 599.584 78.093 599.16 85.4226 599.134L85.4226 626.7C79.5434 626.777 62.3894 628.648 58.2925 625.985C56.27 623.024 57.8138 605.031 56.9443 598.834Z"/><path fill="#FAFAFA" d="M56.9443 827.224C63.6707 827.974 78.093 827.549 85.4226 827.524L85.4226 855.09L57.2444 855.09C57.2677 849.1 57.6604 832.294 56.9443 827.224Z"/><path fill="#FAFAFA" d="M57.2444 713.453C61.2182 713.572 83.2405 714.374 85.3746 712.923L85.4226 741.201C79.4329 741.178 62.0883 740.775 56.9443 741.501C57.6858 734.865 57.267 720.709 57.2444 713.453Z"/><path fill="#FAFAFA" d="M29.0783 570.968L56.6443 570.968C56.621 576.957 56.2283 593.764 56.9443 598.834C52.2845 598.178 33.9688 598.421 28.9245 598.756C29.2676 589.676 29.1032 580.096 29.0783 570.968Z"/><path fill="#002959" d="M552.802 721.201L504.278 776.139C499.741 781.295 495.11 786.554 490.609 791.733C481.954 801.691 476.079 809.265 461.94 810.301C453.338 810.919 444.855 808.008 438.445 802.238C430.556 795.217 427.849 786.522 427.676 776.346C427.108 742.931 426.844 709.448 426.509 676.038L424.589 508.847L423.629 417.373C423.594 409.321 422.969 385.127 423.828 378.283C424.77 370.489 428.126 363.184 433.426 357.392C440.066 350.365 449.284 346.348 458.952 346.269C475.419 346.277 488.257 359.106 500.634 368.606L539.197 398.083L671.375 499.459L764.412 570.423L790.444 590.369C804.21 600.964 815.533 607.838 814.453 627.61C813.726 640.924 804.237 652.857 790.922 656.004C778.542 658.153 763.997 657.57 751.355 658.725C724.966 660.006 698.287 661.762 671.932 662.634C687.617 695.144 704.308 727.2 720.17 759.617C727.739 776.07 738.157 792.696 743.419 809.937C746.273 819.287 741.439 836.728 733.637 842.194C714.243 855.78 690.396 865.69 669.538 876.942C655.825 884.34 636.231 879.953 627.109 867.568C620.044 857.38 614.132 843.58 608.476 832.113L577.35 769.791L569.756 769.762C569.89 764.738 569.734 762.948 571.613 758.265C565.841 746.806 558.945 732.186 552.802 721.201Z"/><path fill="#FAFAFA" d="M571.613 758.265L577.35 769.791L569.756 769.762C569.89 764.738 569.734 762.948 571.613 758.265Z"/><path fill="#FAFAFA" d="M457.842 368.65C460.881 368.653 464.276 369.354 466.737 371.172C474.584 376.97 482.363 382.99 490.113 388.916L537.717 425.454L685.237 538.439L756.907 593.109L778.321 609.44C782.319 612.493 786.079 615.425 789.911 618.636C794.561 622.105 792.781 632.489 787.176 633.8C779.266 635.649 767.822 635.517 759.635 635.879C736.069 636.962 712.508 638.165 688.954 639.489C677.871 640.08 666.648 640.524 655.73 641.437C648.576 642.035 641.821 647.85 644.171 655.034C647.364 664.795 653.653 675.892 658.196 685.189L699.451 768.415C706.795 783.071 714.664 798.262 721.409 813.226C722.266 815.126 722.186 817.201 722.08 819.257C722.017 819.458 721.96 819.66 721.891 819.859C721.217 821.798 720.361 824.29 718.808 825.701C714.044 830.027 702.774 834.567 696.584 837.809C684.894 843.934 673.295 850.544 661.375 856.195C656.63 858.444 651.47 859.596 646.931 855.933C641.419 851.484 628.972 822.98 624.799 814.495L586.973 739.032C564.051 692.995 562.818 669.103 529.447 713.15C522.931 721.751 466.171 786.047 462.966 787.417C460.57 788.432 457.857 788.388 455.495 787.295C453.216 786.213 450.887 783.65 450.575 781.182C449.04 769.019 449.569 755.019 449.433 742.803L448.728 675.128L446.772 492.333C446.333 456.772 445.759 421.218 445.505 385.656C445.439 376.446 448.94 370.949 457.842 368.65Z"/><path fill="#FAFAFA" d="M882.867 370.918C892.466 371.024 902.066 371.073 911.665 371.064C911.558 380.438 911.584 389.813 911.742 399.187C921.16 399.264 930.578 399.251 939.996 399.149C939.966 408.678 939.806 418.542 939.96 428.044L911.58 428.002C911.472 437.399 911.539 446.798 911.781 456.194L939.999 456.121C939.901 465.74 939.905 475.36 940.011 484.98L911.479 485.05C911.848 475.765 911.633 465.704 911.595 456.353L883.059 456.334C882.926 465.419 882.618 475.879 883.225 484.865C891.509 484.875 902.227 484.596 910.316 485.098C904.76 486.011 889.877 485.593 883.556 485.558C883.565 487.797 883.856 492.459 883.152 494.269C882.767 492.345 882.894 487.28 882.882 485.068C867.852 484.885 853.049 485.55 838.042 485.596C834.606 485.607 831.306 485.694 827.894 485.242C830.726 484.52 847.714 484.938 852.382 484.667C845.083 484.042 834.205 484.33 826.611 484.333L826.611 456.779L853.001 456.7C849.117 455.948 830.764 456.311 826.072 456.327C826.474 447.131 826.199 437.327 826.088 428.069L797.525 428.01L797.666 399.358C793.16 399.354 773.681 399.811 770.66 398.956C783.95 398.017 796.528 399.038 809.793 399.243C820.12 399.403 830.746 398.372 841.048 398.608C855.248 398.933 868.623 399.311 882.894 399.142L882.867 370.918Z"/><path fill="#FAFAFA" d="M939.873 1111.77C951.345 1111.85 963.068 1111.29 974.191 1111.45L973.884 1111.87C971.994 1111.89 970.142 1111.62 968.668 1112.62C967.963 1117.71 968.499 1134.3 968.661 1140.06L997.142 1140.11L997.144 1111.83L1025.55 1111.92C1025.4 1121.15 1025.61 1130.91 1025.66 1140.18C1035.1 1140.01 1044.55 1140.21 1053.94 1140.05C1053.89 1149.38 1053.67 1159.4 1054.05 1168.66L1082.77 1168.71C1082.5 1178.2 1082.48 1187.71 1082.72 1197.21C1072.99 1197.1 1063.55 1197 1053.83 1197.3C1053.86 1187.96 1054.02 1178.22 1053.8 1168.92C1044.9 1168.91 1034.28 1169.19 1025.53 1168.85L1025.62 1197.13C1016.27 1196.94 1006.53 1197.12 997.144 1197.18C997.149 1189.35 997.587 1176.07 996.744 1168.84L968.361 1168.98C968.269 1178.36 968.377 1187.75 968.685 1197.13L939.856 1197.19C939.953 1187.73 939.963 1178.26 939.885 1168.8L911.587 1168.89C911.474 1178.44 911.339 1187.61 911.704 1197.15L882.94 1197.14C883.071 1187.67 883.054 1178.2 882.889 1168.74L911.609 1168.8C911.688 1161.9 912.149 1146.48 911.332 1140.3L882.94 1140.27L882.943 1111.81C892.352 1111.71 902.05 1111.85 911.483 1111.88C911.463 1121.28 911.542 1130.68 911.718 1140.08C921.11 1140.14 930.502 1140.14 939.893 1140.08L939.873 1111.77Z"/><path fill="#FAFAFA" d="M285.334 371.057C291.936 371.795 305.973 371.378 313.2 371.357C313.186 379.873 312.865 391.024 313.381 399.328C319.775 399.653 335.729 399.908 342.073 399.353C351.604 399.113 361.096 399.36 370.57 399.152C370.564 408.719 370.474 418.415 370.59 427.97L398.91 427.963L398.912 456.302L370.633 456.328C370.57 465.746 370.392 475.424 370.685 484.814C374.898 484.841 393.99 484.74 396.829 485.346C380.297 486.237 359.501 484.86 342.016 485.067C342.108 476.675 341.676 464.071 342.203 456.27C334.503 456.534 320.977 456.485 313.457 456.066C308.506 455.595 290.028 455.655 285.334 456.167C285.992 451.492 285.749 432.9 285.388 427.873C276.869 427.364 265.583 427.688 256.856 427.701L256.856 399.523C266.23 399.547 276.072 399.717 285.4 399.363C285.935 395.294 285.786 375.203 285.334 371.057Z"/><path fill="#FAFAFA" d="M598.245 1111.86C607.848 1111.75 617.452 1111.72 627.055 1111.76C626.911 1127.56 626.235 1152.96 627.222 1168.1C629.356 1169.5 629.45 1168.48 632.494 1169.16C630.052 1169.21 629.355 1168.82 627.534 1169.86C626.861 1174.56 627.263 1189.31 627.306 1194.61C627.11 1193.43 626.999 1191.45 626.886 1190.2C626.652 1192.99 626.601 1193.68 625.853 1196.34C621.434 1197.04 603.42 1196.94 599.308 1196.17C597.648 1193.45 598.381 1173.47 598.431 1168.79C589.157 1169 579.374 1168.88 570.058 1168.92C570.089 1159.37 570.071 1149.81 570.005 1140.26C564.921 1140.23 546.643 1140.57 542.685 1139.77C548.036 1139.13 563.357 1139.51 569.443 1139.5L569.443 1112.56C560.766 1112.55 549.513 1112.94 541.123 1112.26C546.631 1111.35 563.992 1111.74 570.107 1111.77C570.102 1121.2 570.151 1130.63 570.254 1140.06L598.206 1140.1C598.299 1130.68 598.312 1121.27 598.245 1111.86Z"/><path fill="#FAFAFA" d="M313.657 1055.02L341.966 1054.94C341.942 1064.34 342.062 1073.74 342.325 1083.14C351.336 1083.54 361.519 1083.67 370.53 1083.16C370.538 1092.59 370.387 1102.55 370.645 1111.93C361.467 1111.89 351.288 1111.65 342.199 1112.07C342.222 1121.41 342.148 1130.93 342.28 1140.26C333.536 1140.24 322.129 1140.58 313.53 1140.2C313.587 1131.16 313.747 1121.9 313.397 1112.88C311.928 1111.47 310.482 1111.91 307.963 1111.79L308.306 1111.33C310.03 1111.4 311.123 1111.61 312.715 1110.94C313.22 1104.72 312.598 1097.14 312.952 1090.82C313.625 1078.79 313.6 1067.06 313.657 1055.02Z"/><path fill="#FAFAFA" d="M513.034 1084.7C514.896 1087.15 512.667 1107.97 514.159 1111.26L515.77 1111.64C514.389 1112 514.655 1111.91 513.392 1112.52C512.751 1115.61 513.2 1136.29 513.258 1140.3L484.664 1140.3C484.309 1149.67 484.478 1159.25 484.534 1168.64C493.694 1169 503.878 1168.8 513.116 1168.79C512.995 1178.27 513.045 1187.75 513.267 1197.22C503.622 1197.03 493.974 1197.05 484.33 1197.29C484.649 1187.89 484.633 1178.48 484.284 1169.08C480.812 1168.5 460.291 1168.82 456.023 1168.84C456.249 1159.55 456.036 1149.64 455.986 1140.3C447.841 1140.3 437.793 1140.53 429.84 1139.9C434.779 1138.85 452.105 1140.25 455.463 1139.07L455.573 1136.68L456.073 1136.35L456.311 1139.03C458.316 1140.96 479.974 1140.11 484.398 1140.07L484.356 1111.74L513.013 1111.8L513.034 1084.7Z"/><path fill="#FAFAFA" d="M598.534 85.6594C608.015 85.74 617.497 85.7284 626.978 85.6246C626.782 95.1351 626.808 104.649 627.055 114.158L598.296 114.189C598.263 123.641 598.302 133.093 598.415 142.545L627.033 142.539C626.873 152.085 626.899 161.634 627.109 171.18C622.982 171.696 603.153 171.154 598.194 171.133C598.593 161.844 598.82 152.011 598.11 142.746L569.962 142.816C570.059 133.278 570.086 123.739 570.044 114.201L598.159 114.199C598.568 104.652 598.527 95.2091 598.534 85.6594Z"/><path fill="#FAFAFA" d="M854.01 798.754C860.935 797.944 875.549 798.307 883.055 798.298C882.877 807.846 882.888 817.397 883.089 826.944L911.477 826.989C911.761 817.558 911.658 807.832 911.668 798.374L939.992 798.368C939.851 807.882 939.856 817.397 940.008 826.911L911.635 826.917C911.644 836.184 911.778 845.786 911.574 855.023L910.606 855.603C901.42 855.419 892.232 855.406 883.045 855.565C882.902 862.655 883.479 876.933 882.775 883.268C881.864 877.397 882.292 862.606 882.331 856.002C873.395 856.076 864.459 856.012 855.525 855.811C860.674 854.926 877.166 855.293 882.977 855.269C883.015 846.27 883.152 837.122 882.789 828.142C881.492 826.741 881.485 827.223 878.87 827.09L878.518 826.653C880.473 826.561 880.251 826.738 882.036 826.089C882.865 821.502 882.368 804.671 882.331 799.058C873.697 799.051 862.346 799.44 854.01 798.754Z"/><path fill="#FAFAFA" d="M256.595 998.018C266.148 998.108 275.703 998.095 285.256 997.977L285.336 1026.26C294.583 1026.32 304.372 1026.55 313.569 1026.26C313.543 1035.73 313.381 1045.59 313.657 1055.02C304.248 1055 294.536 1054.86 285.153 1055.04L285.269 1026.39L256.767 1026.49C256.702 1030.47 256.82 1046.45 256.419 1049.52C256.602 1048.68 256.527 1049.18 256.557 1048.02L256.22 1048.24C255.991 1043.62 256.055 1029.72 255.086 1026.22C256.284 1025.65 256.213 1025.98 256.587 1025.17C256.638 1016.12 256.641 1007.07 256.595 998.018Z"/><path fill="#FAFAFA" d="M997.144 427.9L1025.64 427.927C1025.57 437.38 1025.56 446.833 1025.61 456.286L997.019 456.332C996.742 465.833 996.78 475.34 997.135 484.838C1002.75 484.836 1008.58 484.699 1014.15 485.278C1002 486.081 981.824 484.96 968.366 485.087L968.366 474.689C968.459 468.5 968.47 462.309 968.398 456.119C977.98 456.188 987.562 456.2 997.144 456.156L997.144 427.9Z"/><path fill="#FAFAFA" d="M626.966 228.247L655.326 228.237C655.29 237.874 655.348 247.512 655.499 257.149C645.996 256.993 636.492 256.987 626.989 257.13C626.871 266.528 626.906 275.926 627.093 285.323C618.518 285.31 606.093 285.769 597.98 285.145C600.408 269.031 596.141 247.145 597.867 229.81C598.609 234.098 598.336 251.545 598.349 256.855C607.89 257.046 617.434 257.044 626.975 256.848C627.036 247.314 627.033 237.78 626.966 228.247Z"/><path fill="#FAFAFA" d="M570.04 342.26L598.279 342.277C598.225 351.845 598.278 361.412 598.439 370.979L627.011 371.067L627.019 399.232C617.414 399.324 607.809 399.35 598.204 399.312C598.437 390.106 598.319 380.353 598.341 371.12C588.899 370.992 579.455 371.036 570.015 371.252C570.137 361.659 570.038 351.87 570.04 342.26Z"/><path fill="#FAFAFA" d="M655.478 997.998C664.863 998.096 674.248 998.109 683.632 998.038C683.611 1007.31 683.416 1017.09 684.061 1026.29C693.413 1026.4 702.766 1026.34 712.116 1026.13C712.095 1035.77 712.141 1045.41 712.255 1055.04C702.762 1054.89 693.267 1054.89 683.774 1055.06C683.747 1045.54 683.775 1036.02 683.858 1026.5L655.456 1026.36C655.55 1016.9 655.557 1007.45 655.478 997.998Z"/><path fill="#FAFAFA" d="M712.037 450.994C712.742 452.528 712.744 453.659 713 455.369C714.52 455.635 716.071 455.647 717.617 455.714L717.345 456.304C715.452 456.392 714.738 456.451 712.802 456.78C711.425 460.317 712.174 479.608 712.256 484.745C719.413 484.866 733.354 484.231 739.514 485.345C731.205 485.769 721.161 485.542 712.723 485.558C712.745 490.401 712.674 495.244 712.51 500.085C711.934 495.361 712.102 490.262 711.72 485.352L710.909 484.978C703.858 484.795 696.966 484.83 689.923 484.994C681.504 485.191 670.043 486.282 661.838 485.22L661.864 485.01L683.935 484.902C683.681 475.459 683.782 465.602 683.748 456.125C691.21 456.168 704.428 456.607 711.423 455.922C712.286 454.292 712.006 453.024 712.037 450.994Z"/><path fill="#FAFAFA" d="M1082.43 512.998C1092.05 513.634 1101.37 513.446 1111 513.424C1110.83 522.9 1110.84 532.378 1111.03 541.854L1139.58 541.86C1139.59 550.415 1139.71 558.97 1139.22 567.509C1138.79 564.389 1138.91 560.123 1138.89 556.891L1138.89 542.502L1111.95 542.502C1111.95 545.481 1111.93 548.459 1111.89 551.438C1111.13 552.458 1111.39 551.865 1111.51 553.391L1111.72 552.107L1111.25 551.738C1111.04 548.732 1111.13 545.062 1111.12 541.995C1101.8 542.2 1091.93 541.989 1082.49 542.08C1082.69 532.387 1082.67 522.69 1082.43 512.998Z"/><path fill="#FAFAFA" d="M399.549 824.825L400.562 826.857L399.487 827.495C398.466 829.612 398.902 851.233 398.913 855.225C407.737 855.536 416.746 855.223 425.683 855.499C422.401 856.223 404.532 855.999 399.835 856.002L399.835 867.13L399.612 867.101C398.726 865.991 398.958 857.676 398.927 855.537C389.427 855.493 379.927 855.512 370.427 855.596C370.814 846.625 370.556 836.036 370.527 826.999C375.764 827.062 394.45 827.608 398.768 826.56L399.549 824.825Z"/><path fill="#FAFAFA" d="M284.722 890.597C285.792 892.303 285.38 908.923 285.372 912.252C294.772 912.415 304.175 912.398 313.574 912.202C313.436 921.836 313.478 931.471 313.699 941.104C304.469 940.816 295.233 940.719 285.998 940.812C284.43 938.727 285.246 916.481 285.294 912.466C280.995 912.47 260.45 912.741 257.477 912.192C263.193 911.245 278.232 911.681 284.722 911.722L284.722 890.597Z"/><path fill="#FAFAFA" d="M854.65 284.158L854.857 284.545C857.243 285.923 878.544 285.254 883.047 285.204C882.976 294.846 882.982 304.489 883.064 314.131C873.806 313.968 864.137 313.637 854.929 314.119C853.908 312.713 854.706 289.671 854.489 285.397C846.086 285.387 836.005 285.606 827.769 285.012C833.911 284.556 849.89 285.618 854.65 284.158Z"/><path fill="#FAFAFA" d="M113.909 1026.27C123.501 1026.39 133.094 1026.36 142.685 1026.18C142.594 1035.79 142.616 1045.4 142.749 1055C133.124 1054.95 123.499 1054.97 113.875 1055.06C113.995 1045.46 114.006 1035.87 113.909 1026.27Z"/><path fill="#FAFAFA" d="M712.089 371.065L740.473 371.064C740.445 380.233 740.251 390.054 740.63 399.162L750.532 399.25C753.517 399.231 766.165 398.931 768.308 399.648C759.818 400.044 750.089 399.837 741.501 399.835C741.502 402.101 741.766 405.15 741.041 407.119C740.576 404.042 740.595 402.497 740.62 399.363L712.098 399.242C711.992 389.85 711.989 380.457 712.089 371.065Z"/><path fill="#FAFAFA" d="M1082.53 342.137C1091.84 342.398 1101.67 342.214 1111.02 342.178L1111.03 371.186C1101.53 371.004 1092.03 371.007 1082.53 371.196C1082.6 361.51 1082.6 351.823 1082.53 342.137Z"/><path fill="#FAFAFA" d="M199.611 743.064L200.006 743.178C200.835 744.266 200.395 765.198 200.607 768.435L202.434 768.661L202.603 769.352C201.085 769.574 201.08 769.466 199.847 770.328C199.15 777.14 199.586 791.098 199.611 798.445L173.741 798.445C173.427 798.445 172.496 798.167 172.144 798.075C170.805 795.539 171.409 774.795 171.445 770.279L199.611 770.279L199.611 743.064Z"/><path fill="#FAFAFA" d="M1025.61 456.286C1035.06 456.177 1044.51 456.128 1053.96 456.139C1053.92 465.671 1053.75 475.585 1054.12 485.075C1044.75 485.063 1034.82 484.887 1025.49 485.1L1025.61 456.286Z"/><path fill="#FAFAFA" d="M627.019 399.232C636.397 399.215 646 399.306 655.357 399.143C655.363 408.625 655.213 418.646 655.502 428.081C646.047 428.069 636.395 427.951 626.959 428.055C626.975 418.768 626.754 408.424 627.019 399.232Z"/><path fill="#FAFAFA" d="M996.732 712.69L1025.62 712.743L1025.67 741.567C1016.23 741.439 1006.6 741.539 997.144 741.542C997.166 732.127 997.368 722.014 996.732 712.69Z"/><path fill="#FAFAFA" d="M626.968 342.206C636.454 342.295 645.941 342.324 655.428 342.293C655.291 351.9 655.316 361.507 655.502 371.113L627.011 371.067C627.018 361.631 627.197 351.593 626.968 342.206Z"/><path fill="#FAFAFA" d="M683.743 399.164C693.195 399.26 702.647 399.286 712.098 399.242L712.283 428.018L683.796 428.034L683.743 399.164Z"/><path fill="#FAFAFA" d="M1111.06 142.455C1120.36 142.726 1130.26 142.536 1139.61 142.499C1139.64 146.872 1140.01 168.28 1139.25 171.342L1111.17 171.374C1111.22 161.734 1111.18 152.094 1111.06 142.455Z"/><path fill="#FAFAFA" d="M285.267 1140.1C294.688 1140.05 304.109 1140.08 313.53 1140.2C313.536 1149.43 313.327 1159.69 313.652 1168.85C304.902 1169.19 294.076 1168.88 285.163 1168.87L285.267 1140.1Z"/><path fill="#FAFAFA" d="M484.348 998.048C493.942 998.131 503.536 998.084 513.128 997.907L513.197 1026.4L484.325 1026.35C484.402 1016.92 484.409 1007.48 484.348 998.048Z"/><path fill="#FAFAFA" d="M598.558 997.927C607.973 997.988 617.685 998.173 627.074 998.047C626.983 1007.48 626.963 1016.92 627.013 1026.35C617.575 1026.53 607.731 1026.36 598.261 1026.32C598.278 1016.97 598.165 1007.24 598.558 997.927Z"/><path fill="#FAFAFA" d="M313.652 1168.85C323.199 1168.73 332.748 1168.69 342.297 1168.73C342.226 1177.78 341.913 1188.24 342.316 1197.17L313.463 1197.17C313.545 1188.29 313.281 1177.53 313.652 1168.85Z"/><path fill="#FAFAFA" d="M911.631 342.236C920.923 342.256 930.792 342.444 940.038 342.224C939.847 351.828 939.823 361.435 939.966 371.039L911.665 371.064L911.631 342.236Z"/><path fill="#FAFAFA" d="M570.111 1026.3C579.387 1026.29 589.015 1026.15 598.261 1026.32C598.539 1035.65 598.233 1045.46 598.501 1055.08C588.998 1054.89 579.492 1054.88 569.988 1055.06L570.111 1026.3Z"/><path fill="#FAFAFA" d="M683.733 285.212C693.209 285.277 702.685 285.284 712.161 285.233L712.245 314.098C702.752 313.91 693.257 313.917 683.765 314.122C683.828 304.485 683.818 294.848 683.733 285.212Z"/><path fill="#FAFAFA" d="M627.013 1026.35L655.355 1026.21C655.365 1035.63 655.208 1045.68 655.5 1055.05C646.188 1055.01 636.223 1054.78 626.966 1054.95L627.013 1026.35Z"/><path fill="#FAFAFA" d="M683.786 912.319C693.254 912.38 702.722 912.35 712.19 912.229C711.857 921.595 712.289 931.765 712.205 941.298C707.745 940.401 688.646 940.678 683.77 941.032L683.786 912.319Z"/><path fill="#FAFAFA" d="M570.085 912.257C579.494 912.366 588.905 912.346 598.314 912.2C598.169 921.897 598.223 931.596 598.476 941.291C592.686 940.403 576.608 940.786 569.979 940.8L570.085 912.257Z"/><path fill="#FAFAFA" d="M256.856 285.634L285.034 285.634C285.011 291.624 284.608 308.968 285.334 314.112C278.409 313.341 263.776 313.787 256.256 313.812C256.243 320.99 256.613 333.275 256.09 340.04C255.95 331.602 255.901 323.163 255.943 314.725L249.369 314.73L249.335 314.412C251.967 314.494 253.875 314.868 256.11 313.616C257.512 311.57 256.886 289.831 256.856 285.634Z"/><path fill="#FAFAFA" d="M342.095 969.591L370.621 969.591C370.509 979.088 370.483 988.586 370.545 998.084C361.015 998.031 351.484 998.069 341.955 998.198C342.403 989.481 342.101 978.478 342.095 969.591Z"/><path fill="#FAFAFA" d="M199.603 997.981L228.077 998.055C228.003 1007.44 228.302 1016.98 228.347 1026.4L199.496 1026.42C199.775 1017.24 199.593 1007.22 199.603 997.981Z"/><path fill="#FAFAFA" d="M882.85 655.727C892.37 655.781 901.89 655.783 911.409 655.733C911.379 662.855 910.97 677.855 912.002 684.244L882.907 684.248C882.963 674.741 882.944 665.234 882.85 655.727Z"/><path fill="#FAFAFA" d="M256.533 1168.71L285.022 1168.75L285.022 1197.2C275.737 1197.04 266.175 1197.18 256.868 1197.2C256.885 1187.64 256.941 1178.26 256.533 1168.71Z"/><path fill="#FAFAFA" d="M257.457 798.445L285.334 798.445C285.503 807.856 284.704 817.06 284.722 826.611C280.861 826.632 258.964 827.248 257.347 825.793C256.311 821.52 255.825 802.268 257.457 798.445Z"/><path fill="#FAFAFA" d="M541.59 997.903C551.108 998.147 560.63 998.204 570.15 998.072L570.111 1026.3C560.617 1026.41 551.121 1026.43 541.626 1026.35L541.59 997.903Z"/><path fill="#FAFAFA" d="M142.667 570.668L170.833 570.668L170.833 598.834L142.667 598.834L142.667 570.668Z"/><path fill="#FAFAFA" d="M456.167 28.7783L484.333 28.7783L484.333 56.9443L456.167 56.9443L456.167 28.7783Z"/><path fill="#FAFAFA" d="M142.667 741.501L170.833 741.501L170.833 769.667L142.667 769.667L142.667 741.501Z"/><path fill="#FAFAFA" d="M256.556 741.501L284.722 741.501L284.722 769.667L256.556 769.667L256.556 741.501Z"/><path fill="#FAFAFA" d="M114.557 713.335L142.667 713.335C142.698 720.981 143.098 733.388 142.483 740.672C136.319 741.136 119.809 743.445 115.316 739.63C112.627 734.548 114.212 719.487 114.557 713.335Z"/><path fill="#FAFAFA" d="M285.334 456.167C284.608 461.311 285.011 478.656 285.034 484.645C277.536 484.688 265.152 485.09 257.987 484.483C255.933 481.041 256.805 461.792 256.856 456.467C264.185 456.493 278.608 456.917 285.334 456.167Z"/><path fill="#FAFAFA" d="M256.556 228.39L284.722 228.39C284.887 237.679 284.749 247.244 284.722 256.556C278.899 256.572 261.612 257.746 257.957 255.17C255.37 251.437 256.534 234.173 256.556 228.39Z"/><path fill="#FAFAFA" d="M256.856 342.578L285.034 342.578C285.011 348.568 284.608 365.913 285.334 371.057C281.619 370.403 260.536 370.626 256.556 371.057C257.306 364.33 256.881 349.908 256.856 342.578Z"/><path fill="#FAFAFA" d="M233.607 542.181C235.623 541.552 253.418 541.868 256.556 541.89C256.578 546.693 257.343 567.068 255.667 569.76L253.647 570.056L228.39 570.056C228.343 561.794 228.015 551.24 228.539 543.176C229.771 542.295 231.823 542.384 233.607 542.181Z"/><path fill="#FAFAFA" d="M171.445 484.945L199.334 484.945C199.387 494.334 199.491 503.723 199.644 513.111C193.879 513.058 176.539 514.186 172.899 512.128C170.29 508.799 171.428 490.36 171.445 484.945Z"/><path fill="#FAFAFA" d="M342.278 200.224L370.444 200.224L370.444 227.777L342.278 227.777L342.278 200.224Z"/><path fill="#FAFAFA" d="M313.8 114.801L341.978 114.801C342.012 122.839 342.345 133.646 341.844 141.481C336.32 142.845 320.414 142.386 313.803 142.365L313.8 114.801Z"/><path fill="#FAFAFA" d="M428.001 114.349C431.687 115.151 450.449 114.542 455.712 114.501C455.374 120.831 455.501 135.882 455.969 142.189C446.688 142.224 437.528 142.671 427.983 142.667C428.071 133.699 428.374 123.11 428.001 114.349Z"/><path fill="#FAFAFA" d="M285.334 314.112C288.714 314.507 308.842 314.434 313.2 314.412L313.2 341.978L285.634 341.978C285.657 335.989 286.05 319.182 285.334 314.112Z"/><path fill="#FAFAFA" d="M171.745 827.524L199.311 827.524L199.311 855.09L171.745 855.09L171.745 827.524Z"/><path fill="#FAFAFA" d="M86.0227 228.69L113.589 228.69L113.589 256.256L86.0227 256.256L86.0227 228.69Z"/><path fill="#FAFAFA" d="M228.69 257.468L256.256 257.468L256.256 285.034L228.69 285.034L228.69 257.468Z"/><path fill="#FAFAFA" d="M285.634 827.524L313.2 827.524L313.2 855.09L285.634 855.09L285.634 827.524Z"/><path fill="#FAFAFA" d="M256.556 371.057C255.84 376.127 256.232 392.933 256.256 398.923L228.69 398.923L228.69 371.357C235.917 371.378 249.954 371.795 256.556 371.057Z"/><path fill="#FAFAFA" d="M256.861 570.968L284.422 570.968L284.422 598.534C278.762 598.478 262.113 599.656 258.419 597.487C255.64 593.952 256.832 576.581 256.861 570.968Z"/></svg>