<?xml version="1.0" encoding="utf-8" ?><svg xmlns="http://www.w3.org/2000/svg" xmlns:xlink="http://www.w3.org/1999/xlink" width="1254" height="1254" viewBox="0 0 1254 1254"><path fill="#FBFBFB" d="M0 0L1254 0L1254 1254L0 1254L0 0Z"/><path fill="#01395A" d="M615.759 431.928C616.137 431.882 616.516 431.835 616.894 431.788C659.438 429.402 701.887 443.437 734.506 470.341C771.723 501.037 797.1 546.722 801.58 594.621C806.185 644.775 790.708 694.708 758.544 733.465C727.371 770.605 686.32 791.56 638.174 795.917C593.581 798.552 549.692 783.87 515.66 754.934C478.32 723.558 453.996 675.24 450.736 626.691C444.026 526.757 515.784 440.368 615.759 431.928Z"/><path fill="#FBFBFB" d="M613.283 441.72C613.583 441.672 613.883 441.624 614.183 441.576C655.435 438.693 693.515 450.639 725.876 475.663C762.246 504.291 785.857 546.111 791.581 592.042C797.03 638.403 784.079 685.051 755.511 721.968C726 759.527 688.592 780.313 641.235 786.145C598.268 788.964 557.802 777.399 524.391 749.929C406.832 653.275 458.772 457.801 613.283 441.72Z"/><path fill="#01395A" d="M618.846 521.352C649.535 518.223 676.932 540.609 679.983 571.306C683.033 602.002 660.578 629.342 629.874 632.315C599.279 635.276 572.059 612.919 569.02 582.333C565.98 551.747 588.268 524.47 618.846 521.352Z"/><path fill="#FBFBFB" d="M619.596 530.618C645.16 527.932 668.052 546.504 670.694 572.073C673.336 597.642 654.725 620.502 629.152 623.101C603.64 625.693 580.847 607.137 578.211 581.629C575.575 556.121 594.093 533.297 619.596 530.618Z"/><path fill="#01395A" d="M623.041 648.69C639.254 648.213 657.185 652.775 671.413 660.423C685.728 667.947 697.634 679.35 705.769 693.326C707.746 696.724 713.852 707.345 705.45 707.681C700.329 705.512 698.408 697.346 695.397 693.121C678.892 669.962 654.173 659.114 626.359 658.073C598.941 657.988 570.845 669.309 554.676 692.345C551.998 696.16 548.873 703.335 545.69 706.761C544.646 707.884 542.337 707.367 540.901 706.981C539.902 706.009 538.965 705.288 539.166 703.509C539.92 696.843 547.869 685.662 552.074 680.961C571.215 659.566 595.096 650.479 623.041 648.69Z"/><path fill="#01395A" d="M619.002 263.423C660.323 258.99 697.39 288.954 701.716 330.286C706.041 371.618 675.98 408.607 634.637 412.824C593.446 417.026 556.624 387.1 552.314 345.92C548.005 304.741 577.834 267.84 619.002 263.423Z"/><path fill="#FBFBFB" d="M620.258 273.072C656.243 269.351 688.411 295.553 692.047 331.546C695.683 367.539 669.406 399.645 633.405 403.198C597.523 406.738 565.545 380.567 561.921 344.693C558.296 308.819 584.393 276.78 620.258 273.072Z"/><path fill="#01395A" d="M623.024 305.116C639.671 303.679 654.275 312.239 664.672 324.717C670.177 331.323 675.307 336.638 669.722 344.987C661.105 358.131 647.597 367.292 632.197 370.435C619.904 370.976 611.285 369.05 600.683 361.783C595.118 357.969 582.823 346.182 581.271 339.06C581.242 335.556 583.4 331.998 585.441 329.351C595.331 316.523 606.692 307.387 623.024 305.116Z"/><path fill="#FBFBFB" d="M620.762 314.243C640.343 312.262 653.894 322.429 663.949 338.341C655.738 349.754 647.933 357.35 634.196 360.997C614.724 364.853 600.446 353.394 590.029 338.379C598.228 325.695 606.176 318.439 620.762 314.243Z"/><path fill="#01395A" d="M622.974 322.425C631.456 320.311 640.057 325.425 642.25 333.886C644.443 342.347 639.409 350.996 630.969 353.267C622.417 355.569 613.629 350.454 611.407 341.881C609.185 333.308 614.381 324.568 622.974 322.425Z"/><path fill="#FBFBFB" d="M623.86 330.859C626.408 329.783 629.341 330.188 631.503 331.913C633.666 333.639 634.711 336.409 634.228 339.133C633.744 341.856 631.81 344.098 629.186 344.974C625.339 346.259 621.164 344.274 619.732 340.479C618.3 336.684 620.122 332.436 623.86 330.859Z"/><path fill="#01395A" d="M618.181 815.101C659.521 810.492 696.722 840.391 701.113 881.756C705.503 923.12 675.407 960.163 634.02 964.334C592.941 968.474 556.235 938.651 551.877 897.595C547.52 856.539 577.148 819.675 618.181 815.101Z"/><path fill="#FBFBFB" d="M674.459 934.035C651.072 959.344 612.051 962.142 585.292 940.429C558.533 918.716 553.234 879.956 573.183 851.857C593.132 823.759 631.472 815.981 660.794 834.084C690.116 852.187 700.34 889.949 684.158 920.373C681.525 925.324 678.265 929.916 674.459 934.035Z"/><path fill="#01395A" d="M611.018 842.203C612.774 842.532 615.448 843.41 615.927 845.301C616.775 848.65 616.015 853.845 615.774 857.329C614.903 869.947 613.286 883.522 606.66 894.569C602.553 901.512 593.446 911.695 597.874 920.352C600.433 925.355 606.646 927.077 611.685 928.44C622.728 923.788 625.366 916.993 639.115 923.15C641.426 924.184 645.811 924.739 648.172 923.11C657.211 916.876 644.313 908.028 646.429 901.219C651.869 897.648 655.201 903.249 657.879 907.135C663.651 920.442 657.452 930.08 644.028 933.393C639.179 932.44 634.762 929.809 630.402 929.306C623.868 928.552 618.711 936.158 611.634 936.076C604.751 935.997 597.802 933.144 593.099 928.19C589.408 924.355 587.494 919.148 587.822 913.836C588.472 903.007 597.609 895.363 601.687 886.169C605.11 878.133 605.656 869.1 606.653 860.587C607.419 854.045 605.969 846.742 611.018 842.203Z"/><path fill="#01395A" d="M897.781 540.486C939.08 539.31 973.528 571.807 974.758 613.105C975.988 654.402 943.536 688.892 902.24 690.176C860.868 691.462 826.301 658.937 825.069 617.563C823.836 576.19 856.406 541.665 897.781 540.486Z"/><path fill="#FBFBFB" d="M891.533 550.726C927.347 546.09 960.109 571.441 964.609 607.271C969.11 643.102 943.635 675.768 907.788 680.133C872.132 684.475 839.678 659.166 835.201 623.526C830.725 587.887 855.911 555.337 891.533 550.726Z"/><path fill="#01395A" d="M897.787 568.296C898.591 568.324 899.392 568.385 900.191 568.478C902.98 568.799 904.129 569.055 905.692 571.433C909.672 577.49 911.031 573.414 916.725 574.954C918.35 575.394 920.592 578.303 921.253 579.861C923.527 587.452 929.284 582.871 932.772 586.337C938.151 591.68 936.184 608.753 936.398 615.635C936.871 630.898 936.669 646.184 925.892 658.056C923.717 660.452 921.634 661.931 918.318 662.054C916.108 661.096 917.013 661.819 915.644 659.647C914.949 652.804 926.929 648.162 927.458 638.272C928.103 626.226 930.132 605.645 927.95 594.194C926.45 592.342 927.357 592.773 925.441 592.175C919.938 596.573 927.263 610.985 920.331 614.723C917.613 614.653 918.814 615.035 916.569 613.613C912.752 608.155 918.261 587.392 913.696 582.646C911.642 582.502 912.565 582.253 910.852 583.485C907.252 590.88 913.066 608.438 907.559 613.202C905.631 613.772 905.76 613.842 903.882 613.187C903.342 612.659 902.802 612.132 902.261 611.604C900.657 605.216 904.262 580.902 899.722 577.024C895.022 577.511 896.29 584.351 896.388 587.903C896.249 595.139 897.856 607.966 894.315 613.227C892.161 614.518 893.285 614.265 890.839 614.085C885.238 609.108 890.892 588.827 886.485 582.863L885.31 582.844C877.275 589.789 889.001 627.15 878.441 630.132C873.497 628.532 872.134 619.594 867.24 615.078C865.057 614.468 866.078 614.359 864.074 615.413C862.382 618.309 865.445 622.952 866.434 626.302C868.981 634.936 872.262 642.266 878.917 648.52C882.243 651.646 888.56 654.672 888.602 659.215C887.568 661.351 888.321 660.57 886.346 661.721C874.309 662.459 861.644 640.201 858.895 630.129C856.376 620.897 850.622 609.892 864.861 606.583C867.894 605.878 871.812 608.85 873.797 610.59L874.416 611.142C874.704 594.371 869.739 572.882 889.093 574.595C888.662 574.557 894.526 569.415 897.787 568.296Z"/><path fill="#01395A" d="M348.125 540.451C389.529 539.864 423.546 572.999 424.047 614.405C424.547 655.811 391.341 689.758 349.934 690.172C308.65 690.585 274.824 657.498 274.325 616.214C273.826 574.931 306.842 541.036 348.125 540.451Z"/><path fill="#FBFBFB" d="M341.046 550.729C376.781 546.192 409.419 571.505 413.917 607.245C418.415 642.985 393.066 675.595 357.321 680.054C321.632 684.506 289.082 659.205 284.591 623.52C280.101 587.835 305.367 555.258 341.046 550.729Z"/><path fill="#01395A" d="M358.087 649.977C359.354 647.445 361.016 644.381 361.969 641.767C367.973 625.307 383.813 614.459 377.274 595.079C374.949 588.288 369.99 582.719 363.513 579.625C346.077 571.345 328.631 582.859 327.835 601.307C327.708 604.245 327.135 608.145 324.857 610.163C320.53 610.602 318.68 607.844 318.816 603.791C319.456 584.762 332.788 567.825 352.931 568.373C362.246 568.539 371.099 572.458 377.483 579.242C384.145 586.385 387.678 595.893 387.295 605.653C387.113 610.07 386.119 614.416 384.362 618.473C381.4 625.452 376.68 630.773 373.1 637.291C370.441 642.132 368.809 647.615 366.091 652.743C359.233 665.681 343.277 667.666 333.625 656.707C332.292 655.194 330.918 652.016 330.919 649.914C331.809 648.962 331.777 648.457 333.031 648.602C340.648 649.477 341.62 654.694 349.625 655.687C354.072 654.345 354.826 653.434 358.087 649.977Z"/><path fill="#01395A" d="M349.942 587.301C354.639 587.101 358.738 588.218 362.476 591.16C366.028 593.916 368.319 597.986 368.832 602.451C370.142 613.88 362.521 617.041 356.956 624.885C354.526 628.31 355.977 637.867 348.165 637.114C344.807 634.174 345.603 630.767 347.102 627.155C347.77 625.201 348.735 622.27 349.943 620.52C354.616 613.749 366.537 605.516 357.296 597.054C350.982 591.272 346.086 602.043 340.281 602.471L339.249 601.305C337.059 593.178 342.765 589.505 349.942 587.301Z"/><path fill="#01395A" d="M388.832 405.479C390.177 405.422 392.375 405.405 393.705 405.543C399.763 406.135 405.343 409.091 409.235 413.771C413.362 418.705 415.227 425.146 414.373 431.522C413.494 437.89 410.014 443.608 404.762 447.316C398.523 451.633 392.012 451.909 384.835 450.683C370.296 472.753 361.53 488.273 353.048 513.575C351.858 517.387 348.368 524.37 343.54 520.819C338.304 509.535 368.533 457.325 377.041 446.489C373.165 442.821 370.702 439.843 369.305 434.538C367.701 428.35 368.698 421.776 372.064 416.342C376.129 409.851 381.617 407.024 388.832 405.479Z"/><path fill="#FBFBFB" d="M389.021 414.847C396.467 413.449 403.66 418.276 405.189 425.696C406.718 433.116 402.02 440.393 394.628 442.054C389.728 443.154 384.616 441.525 381.257 437.792C377.898 434.06 376.815 428.805 378.424 424.048C380.034 419.291 384.085 415.773 389.021 414.847Z"/><path fill="#01395A" d="M721.348 344.552C732.915 343.849 768.371 365.122 778.983 372.23C804.874 389.56 827.738 411.032 846.657 435.785C849.2 439.083 854.478 445.676 855.228 450.056C855.51 451.701 854.159 452.878 853.164 454.096C846.904 454.903 845.263 449.941 841.703 445.053C813.1 405.776 772.441 373.79 727.483 355.319C724.199 353.97 720.66 352.69 719.343 349.31C719.577 346.971 720.084 346.5 721.348 344.552Z"/><path fill="#01395A" d="M891.5 707.787C894.051 707.675 894.373 707.541 896.67 708.455C902.852 715.504 875.412 765.125 869.962 773.091C871.895 777.73 872.89 780.869 871.601 785.971C870.563 790.215 867.804 793.834 863.988 795.961C858.882 798.831 854.407 798.481 849.082 796.912C845.315 794.622 842.678 792.584 840.805 788.413C839.079 784.598 838.958 780.249 840.47 776.344C842.033 772.304 845.142 769.054 849.108 767.314C853.999 765.17 858.08 765.52 862.954 767.285C872.609 751.236 880.719 734.307 887.174 716.726C888.432 713.395 889.123 710.352 891.5 707.787Z"/><path fill="#FBFBFB" d="M853.599 774.928C857.414 773.701 861.516 775.716 862.876 779.486C864.237 783.256 862.368 787.426 858.648 788.918C856.123 789.932 853.246 789.486 851.146 787.756C849.045 786.026 848.057 783.287 848.568 780.615C849.079 777.942 851.008 775.761 853.599 774.928Z"/><path fill="#01395A" d="M836.483 803.161C838.985 803.973 839.949 804.211 841.555 806.311C842.749 812.106 832.304 820.679 828.057 824.911C799.097 854.19 763.886 876.533 725.061 890.266C721.96 890.37 719.222 887.903 719.978 885.537C721.768 879.933 737.684 875.701 742.983 873.29C768.994 861.202 792.949 845.109 813.973 825.598C819.881 820.076 831.888 806.626 836.483 803.161Z"/><path fill="#01395A" d="M527.403 341.72C529.646 341.5 530.373 341.219 532.364 342.281C538.993 350.351 521.941 353.131 516.875 354.718C481.071 365.932 451.949 384.034 423.519 408.077C420.202 408.603 418.461 407.274 417.103 404.356C417.083 403.634 417.039 401.915 417.604 401.381C448.683 371.981 486.805 353.931 527.403 341.72Z"/><path fill="#01395A" d="M862.469 463.571C876.455 462.875 884.728 471.862 881.038 485.677C884.414 492.935 887.799 500.252 890.84 507.655C892.528 511.764 894.737 516.744 891.74 520.57C889.602 521.425 889.448 521.25 887.202 521.047C885.471 520.029 885.36 519.374 884.495 517.566C881.706 509.823 877.702 501.21 874.343 493.583C869.745 496.006 865.012 496.831 860.008 495.035C855.738 493.484 852.333 490.185 850.648 485.966C848.931 481.695 849.056 476.904 850.993 472.728C853.522 467.391 857.222 465.42 862.469 463.571Z"/><path fill="#FBFBFB" d="M864.823 472.318C868.914 471.814 872.644 474.708 873.172 478.796C873.7 482.884 870.828 486.631 866.744 487.184C862.624 487.741 858.838 484.839 858.306 480.717C857.773 476.594 860.697 472.826 864.823 472.318Z"/><path fill="#01395A" d="M346.696 708.856C349.33 708.917 349.739 708.822 351.622 710.127C355.002 716.578 357.14 725.391 360.209 732.253C369.841 753.964 382.201 774.076 397.435 792.307C399.836 795.181 409.118 805.325 409.548 808.182C409.133 810.475 408.222 811.042 406.574 812.712C400.75 812.672 394.711 803.611 391.052 799.222C373.244 777.865 358.668 753.579 348.389 727.735C346.626 723.303 344.43 718.67 343.74 713.924C343.481 711.929 345.337 710.282 346.696 708.856Z"/><path fill="#01395A" d="M425.346 813.482C431.603 812.018 438.162 814.058 442.484 818.813C446.806 823.568 448.214 830.291 446.163 836.381C444.111 842.47 438.922 846.971 432.604 848.14C423.145 849.892 414.017 843.772 412.045 834.356C410.074 824.941 415.979 815.673 425.346 813.482Z"/><path fill="#FBFBFB" d="M426.538 822.63C429.475 821.575 432.754 822.191 435.108 824.242C437.462 826.292 438.521 829.456 437.878 832.51C437.235 835.565 434.99 838.033 432.009 838.96C427.536 840.352 422.771 837.914 421.283 833.472C419.795 829.031 422.129 824.214 426.538 822.63Z"/><path fill="#01395A" d="M454.373 847.281C459.288 846.881 470 854.985 474.588 857.925C494.301 870.557 515.462 877.58 537.1 885.641C540.304 886.834 537.675 891.68 535.916 893.657C520.583 892.028 482.115 873.841 468.421 865.063C464.244 862.385 453.086 856.686 451.93 852.031C452.214 849.789 453.014 849.086 454.373 847.281Z"/></svg>