<?xml version="1.0" encoding="utf-8" ?><svg xmlns="http://www.w3.org/2000/svg" xmlns:xlink="http://www.w3.org/1999/xlink" width="1254" height="1254" viewBox="0 0 1254 1254"><path fill="#FDFDFC" d="M0 0L1254 0L1254 1254L0 1254L0 0Z"/><path fill="#003951" d="M616.614 436.828C617.06 436.785 617.507 436.742 617.954 436.699C659.392 433.804 700.297 447.389 731.77 474.5C800.138 533.652 802.912 645.357 753.225 717.204C745.681 728.112 736.561 738.015 727.594 747.772C699.025 778.858 698.149 827.893 724.982 860.286C727.198 862.96 732.408 866.612 735.499 869.389C740.062 873.489 740.967 880.288 736.737 885.126C727.957 892.025 715.593 880.359 709.969 873.791C680.352 840.059 676.663 783.56 702.962 746.804C716.992 727.196 731.774 714.828 744.355 692.756C757.655 669.065 765.243 642.597 766.515 615.458C767.111 603.022 766.723 590.6 765.085 578.254C756.06 510.202 703.101 460.293 634.195 457.259C620.844 456.359 604.3 458.376 591.434 461.852C557.309 470.713 528.206 492.972 510.719 523.586C500.011 542.402 494.111 563.568 493.539 585.209C493.168 603.208 494.084 620.599 489.811 638.317C487.013 649.92 483.074 661.232 479.134 672.485C477.254 677.857 475.002 683.297 473.595 688.805C473.048 690.949 472.153 694.258 473.067 696.36C476.082 703.302 495.638 699.107 502.265 701.86C505.059 703.021 507.093 704.903 508.295 707.691C513.994 720.914 506.951 758.99 513.087 773.237C519.73 788.659 544.582 785.028 557.486 790.546C562.39 792.643 565.4 795.856 567.353 800.79C572.256 813.176 579.543 871.35 574.346 882.376C573.332 884.528 571.619 886.396 569.312 887.151C566.619 888.032 563.176 887.361 560.797 885.907C558.318 884.392 556.805 881.9 556.233 879.091C554.771 871.918 555.887 863.065 555.62 855.642C555.077 839.992 552.874 824.443 549.047 809.258C532.436 805.751 515.986 805.127 502.385 792.42C489.696 780.565 490.896 764.359 490.567 748.32L490.013 720.358C480.52 720.331 469.476 720.663 461.86 714.353C447.389 702.364 453.593 685.377 458.568 670.906C463.441 656.733 468.629 642.516 471.53 628.03C474.255 614.417 473.12 599.287 473.374 585.459C473.636 571.528 475.816 557.7 479.853 544.364C485.805 524.771 495.671 506.589 508.856 490.921C536.56 458.084 574.207 440.536 616.614 436.828Z"/><path fill="#003951" d="M855.334 588.612C868.336 586.644 885.688 590.72 895.906 598.644C916.924 614.945 939.845 619.134 962.037 602.101C968.187 597.381 981.951 581.718 988.733 595.625C989.911 598.013 990.052 600.782 989.122 603.277C985.933 611.616 965.781 624.335 957.192 627.959C953.834 629.267 950.405 630.385 946.921 631.307C931.132 635.392 912.135 633.133 898.478 624.396C880.971 613.196 864.729 600.373 843.961 614.298C840.017 616.665 835.244 621.402 830.68 622.205C822.062 623.72 816.323 613.956 822.134 606.993C830.727 596.694 842.379 590.774 855.334 588.612Z"/><path fill="#003951" d="M860.066 681.679C885.043 680.079 891.526 686.61 912.184 698.307C926.396 705.804 943.891 707.152 958.184 699.127C964.892 696.016 973.183 687.212 980.954 691.994C985.918 695.048 987.103 703.727 982.499 707.478C971.327 716.58 957.966 722.199 943.71 724.155C928.192 725.695 912.678 723.09 899.488 714.469C883.058 703.73 864.325 695.036 845.882 707.59C842.156 710.126 835.951 715.722 831.832 716.79C829.181 717.493 826.355 717.051 824.046 715.57C821.942 714.245 820.473 712.115 819.984 709.676C819.409 706.999 819.999 704.203 821.607 701.987C829.275 691.393 847.044 683.675 860.066 681.679Z"/><path fill="#003951" d="M330.009 587.467C351.839 587.7 355.393 596.392 371.523 606.826C396.361 622.894 405.78 597.778 419.165 595.458C421.57 595.041 423.54 595.615 425.515 597.008C427.764 598.593 429.621 600.555 429.932 603.408C430.295 606.73 428.6 609.945 426.564 612.441C418.462 622.368 404.729 629.909 392.029 631.356C371.137 632.769 362.853 626.39 347.428 613.62C336.786 604.225 318.509 606.971 309.224 616.68C296.457 630.031 282.031 616.581 291.802 605.26C301.075 594.516 315.654 588.215 330.009 587.467Z"/><path fill="#003951" d="M324.89 681.629C348.353 680.464 354.162 687.223 371.94 700.268C380.409 706.482 394.076 705.42 402.484 699.514C409.631 694.494 422.665 688.716 423.868 702.91C424.482 710.388 415.667 715.234 410.282 718.469C402.059 723.41 394.529 724.563 385.154 724.58C372.161 723.974 362.867 720.119 353.293 711.649C341.045 699.32 320.91 697.45 309.012 711.243C297.705 724.351 282.74 712.688 290.703 701.378C297.84 691.242 312.722 683.819 324.89 681.629Z"/><path fill="#003951" d="M625.866 319.74C627.399 319.929 629.077 320.063 630.523 320.629C633.154 321.659 635.08 324.067 635.994 326.687C637.481 330.954 637.241 389.565 635.422 393.257C633.81 396.53 630.889 397.659 627.614 398.714C624.234 398.48 617.947 396.33 617.593 392.514C615.687 371.936 616.942 350.382 616.923 329.677C616.917 323.987 620.981 321.083 625.866 319.74Z"/><path fill="#003951" d="M848.131 441.516C861.692 441.114 863.602 455.201 855.444 459.849C842.26 467.361 821.468 484.393 808.188 489.906C794.079 490.434 793.499 476.459 800.023 472.485C813.542 464.251 834.226 447.657 848.131 441.516Z"/><path fill="#003951" d="M399.885 441.643C408.911 442.506 431.764 461.262 441.001 466.019C447.63 469.431 459.36 477.098 453.451 485.45C450.993 488.925 449.581 489.495 445.495 490.405C436.923 489.674 411.253 469.466 401.942 464.657C395.39 461.273 386.358 454.122 392.066 446.383C394.387 443.236 396.12 442.47 399.885 441.643Z"/><path fill="#003951" d="M492.913 361.957C495.802 361.908 500.544 362.005 502.304 364.645C511.146 377.893 518.781 392.16 526.993 405.832C531.789 413.818 531.677 419.175 522.896 423.62C519.856 423.728 515.273 423.678 513.409 420.911C504.237 407.245 496.158 392.667 487.757 378.495C483.263 370.913 485.271 365.644 492.913 361.957Z"/><path fill="#003951" d="M752.543 361.96C757.274 361.579 762.121 362.164 764.437 366.882C767.856 373.847 759.967 383.38 756.513 389.424C750.567 399.833 744.425 410.266 737.973 420.341C737.233 421.496 734.433 422.743 733.194 423.297C710.58 425.704 726.543 399.41 732.276 391.342C737.718 383.683 744.647 366.059 752.543 361.96Z"/></svg>