<?xml version="1.0" encoding="utf-8" ?><svg xmlns="http://www.w3.org/2000/svg" xmlns:xlink="http://www.w3.org/1999/xlink" width="1254" height="1254" viewBox="0 0 1254 1254"><path fill="#FCFCFC" d="M0 0L1254 0L1254 1254L0 1254L0 0Z"/><path fill="#003B53" d="M621.973 531.797C672.907 529.027 716.456 568.045 719.274 618.977C722.092 669.91 683.114 713.495 632.185 716.36C581.188 719.23 537.533 680.189 534.711 629.19C531.889 578.19 570.971 534.571 621.973 531.797Z"/><path fill="#FCFCFC" d="M623.578 549.848C664.441 547.985 699.121 579.509 701.155 620.364C703.19 661.219 671.812 696.031 630.966 698.236C589.877 700.454 554.813 668.85 552.766 627.752C550.72 586.654 582.472 551.722 623.578 549.848Z"/><path fill="#003B53" d="M614.311 465.607C623.604 464.576 637.943 465.349 647.202 466.162C698.897 470.7 743.963 493.933 783.824 526.121C813.288 549.947 838.437 579.732 878.344 584.866C902.743 588.005 928.873 583.039 948.026 566.768C953.655 561.987 961.261 551.624 968.853 559.668C970.544 561.466 971.44 563.868 971.342 566.334C971.126 571.161 965.618 575.877 962.107 578.92C945.97 592.742 925.985 601.288 904.844 603.406C845.152 609.936 814.868 575.926 774.793 542.497C763.625 533.168 751.808 524.643 739.431 516.99C708.053 497.662 676.047 486.775 639.152 484.149C623.499 482.372 600.824 485.184 585.427 488.393C549.437 495.893 514.833 514.225 486.424 537.333C453.397 564.198 426.258 594.531 381.638 602.128C353.376 606.939 323.07 601.268 299.44 584.452C293.28 579.659 283.844 573.468 282.485 565.236C281.687 560.402 284.276 555.987 289.421 555.822C297.204 555.572 300.967 562.191 306.191 566.556C317.892 576.333 333.069 581.924 348.009 584.226C373.872 588.327 398.48 581.048 420.302 567.172C435.839 557.292 449.084 544.583 463.142 532.689C476.443 521.435 490.927 510.237 505.803 501.08C538.535 480.578 575.789 468.4 614.311 465.607Z"/><path fill="#003B53" d="M879.432 665.208C906.281 661.156 940.379 673.089 958.937 692.663C963.085 697.038 967.834 704.564 961.839 709.831C953.98 716.736 945.77 704.805 940.763 700.419C916.455 681.091 881.477 678.889 853.128 689.971C827.611 699.814 805.778 719.428 784.544 736.358C731.181 778.904 666.411 805.389 597.313 795.411C554.584 789.445 516.119 770.52 481.418 744.938C447.338 719.815 419.61 689.144 374.881 685.479C371.765 685.041 366.956 685.108 363.761 685.199C345.66 685.714 327.447 691.483 312.903 702.384C307.076 706.752 300.842 716.869 292.706 710.977C287.899 707.496 287.889 701.365 291.848 697.294C312.53 675.179 344.584 664.961 374.408 666.815C430.656 669.322 464.92 713.347 508.937 741.504C535.749 758.655 565.198 771.966 596.886 776.56C661.755 786.901 718.489 763.623 769.101 724.879C805.309 697.161 831.294 670.028 879.432 665.208Z"/><path fill="#003B53" d="M410.795 754.513C412.591 754.746 415.625 755.049 416.842 756.384C421.691 761.699 426.528 769.129 430.978 774.924C437.453 783.377 444.55 791.335 452.208 798.732C484.169 829.316 522.601 851.671 566.113 860.35C570.581 861.242 579.249 862.706 580.592 867.908C582.213 874.193 578.954 878.502 573.059 880.348C554.45 878.347 525.694 868.158 508.848 860.113C472.111 842.811 440.049 816.967 415.342 784.741C409.292 776.875 393.16 759.294 410.795 754.513Z"/><path fill="#003B53" d="M841.384 754.433C863.041 757.007 843.091 778.787 837.24 786.318C807.951 823.894 768.73 852.523 724.016 868.966C709.323 874.378 697.857 876.982 682.657 880.271C675.293 880.011 670.935 873.445 674.339 866.911C677.657 860.542 692.965 859.692 700.15 857.676C722.128 851.395 743.098 842.01 762.425 829.805C783.926 816.244 804.209 798.427 820.036 778.554C825.177 772.098 833.772 756.599 841.384 754.433Z"/><path fill="#003B53" d="M680.817 373.645C687.382 374.232 697.542 376.741 704.06 378.508C751.882 391.475 795.039 418.143 828.493 454.639C835.512 462.732 843.594 471.133 849.349 480.138C853.864 487.202 850.246 492.134 843.528 494.916C841.986 494.839 838.475 494.52 837.466 493.571C831.891 488.322 826.527 480.498 821.584 474.562C816.56 468.59 811.237 462.877 805.636 457.444C779.032 430.812 746.446 410.929 710.595 399.452C704.791 397.548 698.909 395.892 692.964 394.488C688.039 393.335 675.034 391.808 673.574 386.58C671.852 380.413 674.886 375.752 680.817 373.645Z"/><path fill="#003B53" d="M572.082 373.732C582.601 374.758 584.156 388 574.556 391.357C568.234 393.366 561.695 393.964 555.25 395.727C514.423 406.893 475.096 429.145 445.612 459.767C439.713 465.788 434.128 472.108 428.878 478.701C424.562 484.078 419.326 492.62 413.099 494.945C400.151 494.282 401.469 484.429 407.604 476.146C445.821 424.549 507.912 383.099 572.082 373.732Z"/><path fill="#003B53" d="M624.856 360.999C632.671 359.846 639.946 365.23 641.128 373.041C642.309 380.851 636.952 388.146 629.146 389.357C621.299 390.574 613.957 385.183 612.769 377.331C611.581 369.479 617 362.157 624.856 360.999Z"/><path fill="#003B53" d="M623.988 864.906C631.763 863.227 639.415 868.214 641.02 876.005C642.624 883.796 637.564 891.4 629.758 892.929C622.057 894.438 614.578 889.462 612.995 881.775C611.412 874.089 616.317 866.563 623.988 864.906Z"/><path fill="#003B53" d="M287.519 627.416C292.445 625.866 297.825 627.106 301.574 630.657C305.324 634.209 306.856 639.513 305.575 644.516C304.295 649.519 300.404 653.436 295.41 654.75C287.938 656.715 280.263 652.358 278.12 644.935C275.977 637.513 280.149 629.736 287.519 627.416Z"/><path fill="#003B53" d="M958.49 624.322C963.421 623.04 968.659 624.507 972.207 628.163C975.754 631.819 977.063 637.099 975.633 641.989C974.203 646.878 970.256 650.622 965.298 651.791C957.753 653.569 950.181 648.946 948.316 641.421C946.451 633.897 950.988 626.273 958.49 624.322Z"/></svg>