<?xml version="1.0" encoding="utf-8" ?><svg xmlns="http://www.w3.org/2000/svg" xmlns:xlink="http://www.w3.org/1999/xlink" width="1254" height="1254" viewBox="0 0 1254 1254"><path fill="white" d="M0 0L28.044 0L111.752 0L139.612 0L446.682 0L474.224 0L502.525 0L529.944 0L781.339 0L809.343 0L837.226 0L865.13 0L1116.98 0L1144.71 0L1254 0L1254 614.637L1254 642.344L1254 726.506L1254 754.195L1254 1061.25L1254 1088.98L1254 1254L976.727 1254L948.877 1254L641.801 1254L614.016 1254L251.078 1254L223.389 1254L0 1254L0 1144.94L0 1117.01L0 642.375L0 614.67L0 28.1522L0 0Z"/><path fill="#FAFAFA" d="M55.7624 642.15C55.7598 640.573 55.4764 633.071 56.1234 632.332C56.39 635.748 56.3737 638.31 56.332 641.695C59.8838 641.697 80.3065 641.505 82.3679 642.054C77.8487 642.797 57.2225 641.862 55.9467 643.157L55.9157 643.376C55.862 647.311 55.2169 668.387 56.4805 670.237L58.0941 670.503L57.8879 671.051L56.5445 671.25C55.9003 673.988 56.4231 679.516 56.0458 680.144C55.7919 676.541 55.6962 674.062 55.7597 670.443L28.0739 670.563C28.0314 661.134 28.0478 651.706 28.123 642.278C37.1762 642.273 46.7564 642.399 55.7624 642.15Z"/><path fill="#FAFAFA" d="M0 614.67L27.6099 614.481C28.2981 613.316 28.0627 613.703 28.2333 612.23L28.7497 612.561L28.9619 613.92C32.22 614.68 47.8342 613.642 53.9367 614.588C45.3265 614.81 36.7131 614.883 28.1003 614.808L28.123 642.278C20.1902 642.744 8.24093 642.369 0 642.375L0 614.67Z"/><path fill="#FAFAFA" d="M781.339 0L809.343 0C809.342 9.39574 809.393 18.7914 809.497 28.1866C800.071 28.0424 790.642 28.0979 781.218 28.3531L781.339 0Z"/><path fill="#FAFAFA" d="M0 0L28.044 0C28.067 9.08244 27.8714 19.3931 28.2842 28.3741C18.8579 28.1492 9.42864 28.0752 4.35069e-15 28.1522L0 0Z"/><path fill="#FAFAFA" d="M111.752 0L139.612 0C139.187 8.6239 139.45 19.5009 139.653 28.192C130.222 28.0371 120.79 28.0888 111.362 28.3468C111.774 18.8327 111.746 9.52365 111.752 0Z"/><path fill="#FAFAFA" d="M0 1117.01C9.39113 1117.19 18.4591 1117.01 27.8537 1116.81C27.7497 1126.25 27.9175 1135.69 28.3568 1145.11L0 1144.94L0 1117.01Z"/><path fill="#FAFAFA" d="M1116.98 0L1144.71 0C1144.59 7.95431 1144.32 20.5677 1145.02 28.2074L1116.81 28.168L1116.98 0Z"/><path fill="#FAFAFA" d="M837.226 0L865.13 0C865.114 9.4091 865.192 18.8181 865.364 28.2257L837.051 28.1519C837.409 20.7673 837.615 7.11112 837.226 0Z"/><path fill="#FAFAFA" d="M502.525 0L529.944 0C529.881 9.141 530.226 18.9928 530.354 28.1857C521.037 28.0356 511.718 28.06 502.402 28.2589L502.525 0Z"/><path fill="#FAFAFA" d="M446.682 0L474.224 0C474.208 9.26483 474.02 19.0298 474.665 28.2251L446.682 28.1214L446.682 0Z"/><path fill="#FAFAFA" d="M223.204 1228.81L251.167 1228.85L251.078 1254L223.389 1254L223.204 1228.81Z"/><path fill="#FAFAFA" d="M948.971 1228.86L976.681 1228.87L976.727 1254L948.877 1254C948.899 1245.81 948.751 1236.99 948.971 1228.86Z"/><path fill="#FAFAFA" d="M1228.85 614.55L1254 614.637L1254 642.344C1245.68 642.27 1237.19 642.404 1228.86 642.454L1228.85 614.55Z"/><path fill="#FAFAFA" d="M1228.81 726.153C1237.13 726.188 1245.55 726.484 1254 726.506L1254 754.195C1246.42 754.604 1236.61 754.378 1228.85 754.411L1228.81 726.153Z"/><path fill="#FAFAFA" d="M614.02 1228.84L641.812 1228.87C641.771 1237.04 641.571 1245.89 641.801 1254L614.016 1254L614.02 1228.84Z"/><path fill="#FAFAFA" d="M1228.84 1061.08C1236.95 1061.48 1245.82 1061.29 1254 1061.25L1254 1088.98C1245.62 1088.99 1237.24 1089.1 1228.86 1089.31L1228.84 1061.08Z"/><path fill="#00295C" d="M597.069 358.419C603.646 357.896 610.574 358.28 617.195 358.258C628.202 358.223 639.239 358.035 650.243 358.245C659.693 358.425 668.426 360.297 675.924 366.341C697.802 383.978 681.001 412.302 693.188 424.183C696.365 427.28 701.841 429.396 705.917 431.075C732.841 442.166 732.392 414.528 760.594 413.79C776.486 413.374 787.748 425.513 798.293 435.639C806.53 443.55 816.325 452.506 822.501 462.125C830.362 474.37 830.815 489.145 822.209 501.232C816.983 508.571 807.406 514.169 807.884 524.281C808.095 528.75 809.917 533.476 811.59 537.59C821.394 561.705 844.679 542.782 863.68 560.316C871.227 567.28 873.872 576.718 874.301 586.664C874.873 599.937 875.655 635.829 872.662 647.118C871.244 652.465 869.084 656.292 865.311 660.327C854.69 671.688 843.365 670.555 829.36 671.215C824.166 671.46 819.344 673.264 815.861 677.231C812.694 680.839 811.045 685.663 809.479 690.127C808.428 693.125 807.106 696.228 807.225 699.456C807.665 711.401 825.693 720.057 826.792 738.659C827.375 748.528 823.472 758.186 816.89 765.447C809.635 773.449 801.956 781.337 794.113 788.759C774.019 807.775 757.388 817.122 732.894 796.215C727.909 791.96 723.291 787.61 716.215 788.126C711.671 788.458 707.306 790.508 703.124 792.19C700.641 793.189 697.736 794.12 695.549 795.672C682.129 805.193 694.362 827.502 679.65 844.529C673.666 851.454 665.062 854.724 656.155 855.519C642.878 855.67 629.601 855.729 616.323 855.695C607.773 855.691 598.814 856.15 590.443 854.654C574.432 852.177 564.001 837.038 563.674 821.719C563.241 801.416 564.87 798.172 545.394 790.62C523.622 780.463 518.47 804.342 498.796 807.353C475.488 810.92 463.426 793.976 448.446 779.682C431.868 763.862 416.776 747.363 429.253 723.456C434.025 714.313 446.7 707.669 443.882 695.937C442.381 690.072 439.261 682.076 435.957 676.937C429.934 669.275 414.614 672.099 406.107 670.534C374.766 663.975 377.362 641.512 377.65 616.474C377.399 589.583 372.286 555.37 409.086 551.604C427.019 549.769 434.796 554.33 441.565 532.709C446.098 522.765 443.426 516.717 435.928 508.885C407.801 479.505 429.196 458.805 451.754 436.796C467.772 421.168 481.687 405.616 506.573 417.337C516.617 422.067 523.835 435.531 535.942 434.041C542.572 433 553.397 428.599 558.736 424.453C564.95 419.302 563.38 405.3 563.533 397.98C563.311 375.761 574.29 361.149 597.069 358.419Z"/><path fill="#FAFAFA" d="M615.112 377.48C624.973 377.586 653.142 376.152 661.004 379.186C675.272 384.69 665.608 412.919 672.034 426.174C676.485 438.497 684.487 441.874 694.046 446.649C722.88 461.054 733.506 450.538 756.142 433.638C757.728 432.454 764.767 432.54 767.2 434.34C782.116 445.374 799.832 461.452 808.97 477.684C813.267 490.707 796.372 497.778 792.054 508.139C781.242 534.084 801.622 574.27 833.358 569.976C840.454 569.016 853.523 571.985 854.425 580.805C856.385 599.964 855.22 620.737 854.942 640.073C854.531 655.754 830.098 651.433 820.476 653.599C802.873 657.563 796.272 670.145 791.283 685.958C779.151 715.104 803.906 721.468 808.483 741.141C808.091 742.577 807.114 746.447 806.335 747.566C799.609 757.226 789.551 765.9 781.294 774.312C778.122 777.543 770.353 784.686 766.797 786.473C746.933 796.452 742.775 768.275 718.824 769.093C705.652 769.543 688.195 776.243 678.997 784.819C669.991 793.451 668.786 805.667 669.304 817.285C670.323 840.116 651.641 836.701 636.338 836.709C626.178 836.722 595.644 838.7 588.881 833.965C579.516 827.409 583.438 812.606 581.789 802.87C580.33 794.26 575.853 785.854 568.481 780.922C564.614 778.334 560.126 776.414 555.866 774.582C541.616 768.455 527.343 766.158 513.822 775.719C507.644 780.088 501.527 787.699 493.717 788.921C489.696 789.55 486.185 787.963 483.03 785.6C474.353 779.1 453.738 759.442 447.507 750.759C445.587 748.082 443.98 745.118 443.613 741.794C442.645 733.031 451.485 726.526 456.277 720.288C461.624 713.327 464.329 703.893 462.984 695.142C462.052 689.08 459.314 683.174 457.039 677.516C441.998 640.118 415.921 660.24 401.044 648.31C398.276 646.091 397.125 643.206 396.823 639.756C396.013 630.491 396.522 620.829 396.492 611.513C396.463 602.1 395.415 591.266 397.087 582.027C397.555 579.437 398.588 577.009 400.389 575.061C405.585 569.44 413.725 570.164 420.657 569.954C431.416 569.627 441.842 567.069 449.356 558.765C454.188 553.426 456.264 546.824 458.8 540.254C474.009 500.84 441.875 499.551 441.681 481.783C441.566 471.24 459.359 456.207 466.345 449.212C471.382 444.169 476.904 437.795 483.158 434.296C500.6 424.538 508.869 453.769 533.878 453.345C542.026 453.207 549.864 450.195 557.251 447.005C598.846 429.043 572.333 396.805 587.338 381.856C593.641 375.577 606.788 377.434 615.112 377.48Z"/><path fill="#00295C" d="M621.513 516.218C673.799 513.799 718.155 554.208 720.604 606.494C723.052 658.779 682.668 703.158 630.383 705.635C578.058 708.115 533.637 667.691 531.187 615.365C528.736 563.038 569.185 518.64 621.513 516.218Z"/><path fill="#FAFAFA" d="M623.769 535.2C665.499 534.029 700.315 566.831 701.63 608.557C702.945 650.283 670.263 685.212 628.542 686.671C586.617 688.136 551.48 655.26 550.159 613.33C548.838 571.401 581.835 536.377 623.769 535.2Z"/><path fill="#FAFAFA" d="M641.652 83.8155L669.858 83.8024C669.849 93.0606 669.703 102.74 669.932 111.962L697.453 112C697.47 121.024 697.245 131.487 697.655 140.393C691.84 139.522 679.167 139.894 672.767 139.905L672.272 140.1L676.551 140.464L670.174 140.53C670.196 145.89 671.192 163.198 668.919 166.799L667.035 168.002L667.405 167.763C663.024 168.877 647.511 168.044 642.008 168.084C641.996 171.089 642.141 179.19 641.777 181.767L641.695 167.771L614.142 167.771C614.024 149.194 614.017 130.616 614.119 112.038C623.322 111.92 632.527 111.895 641.731 111.961L641.652 83.8155Z"/><path fill="#FAFAFA" d="M614.023 278.624C614.038 278.649 614.047 278.68 614.069 278.7C616.248 280.68 637.413 279.731 641.767 279.716C641.654 289.04 641.697 298.365 641.898 307.687C632.713 307.557 623.277 307.8 614.07 307.937C613.84 312.655 614.635 332.609 613.781 335.472L611.846 335.574C603.192 335.473 594.537 335.503 585.884 335.665L585.915 307.347L614.027 307.416C614.101 299.291 614.482 288.39 613.827 280.529C612.687 279.619 611.187 279.931 609.348 279.858L609.944 278.954C611.831 279.202 612.189 279.146 614.023 278.624Z"/><path fill="#FAFAFA" d="M977.096 725.85L978.462 725.658C975.251 729.846 976.694 747.966 976.884 754.245L1004.88 754.139C1004.85 757.637 1005.13 779.99 1004.4 781.351C1003.77 774.665 1004.16 762.09 1004.18 754.972L977.275 754.972C977.296 756.67 977.138 757.54 976.915 759.214C976.869 757.61 976.986 756.315 976.332 754.868C972.172 753.001 934.349 755.891 925.505 754.605C927.494 754.104 945.705 754.167 948.991 754.146C948.895 744.813 948.901 735.479 949.009 726.146C956.776 726.607 969.455 726.978 977.096 725.85Z"/><path fill="#FAFAFA" d="M781.249 335.352L809.155 335.442L809.157 362.991C812.82 363.031 815.931 363.178 819.582 363.426L818.067 363.422C817.524 363.815 811.298 363.698 810.079 363.709C810.108 369.445 810.206 374.666 809.678 380.402C809.261 374.934 809.35 368.845 809.313 363.316L800.741 363.303L781.496 363.318C781.464 368.986 781.755 384.734 781.142 389.601C780.427 381.734 780.676 371.777 780.688 363.709C777.855 363.754 775.878 363.678 773.051 363.465L774.815 363.559L774.322 363.207L781.607 363.023C781.672 353.798 781.553 344.572 781.249 335.352Z"/><path fill="#FAFAFA" d="M865.169 363.152C874.44 363.172 883.711 363.143 892.982 363.064C892.833 372.433 892.868 381.803 893.086 391.17L920.907 391.253C920.887 399.703 920.999 408.634 920.692 417.036C920.093 413.939 920.299 396.284 920.294 391.875L893.353 391.875C893.384 394.01 893.301 395.537 893.15 397.672C892.588 395.976 892.783 393.262 892.775 391.349L871.769 391.283C868.932 391.376 868.29 391.407 865.529 390.947C864.759 388.873 865.155 367.184 865.169 363.152Z"/><path fill="#FAFAFA" d="M27.988 83.83L55.9035 83.8695C55.816 93.3082 55.6789 102.54 56.0536 111.976C64.5823 111.945 73.1048 111.793 81.6153 112.315C79.4239 112.741 74.9606 112.642 72.5581 112.664L56.332 112.664C56.3798 116.14 56.3101 118.599 56.1026 122.046L56.0873 122.058C55.6235 119.515 55.7819 114.83 55.7842 112.081C46.5862 111.976 37.2127 112.074 27.9993 112.077C28.0587 102.661 28.0549 93.2455 27.988 83.83Z"/><path fill="#FAFAFA" d="M669.249 1039.45C670.275 1041.91 669.981 1057.58 669.998 1061.43C677.925 1061.53 689.955 1061.85 697.6 1061.09C697.495 1070.38 697.501 1079.68 697.616 1088.98L685.642 1088.98C681.403 1089.53 674.204 1089.32 669.715 1089.32L669.701 1061.33C666.334 1061.36 662.966 1061.33 659.6 1061.21C658.562 1060.55 659.182 1060.75 657.674 1060.89L659.399 1061.06L659.261 1060.62C661.908 1060.37 666.459 1060.51 669.249 1060.51L669.249 1039.45Z"/><path fill="#FAFAFA" d="M250.985 642.182C260.407 642.343 269.831 642.333 279.253 642.15L279.332 670.427L251.01 670.479C251.187 661.047 251.179 651.613 250.985 642.182Z"/><path fill="#FAFAFA" d="M251.021 810.021C260.424 810.115 269.827 810.127 279.23 810.056L279.229 838.297L251.029 838.31C251.159 828.88 251.157 819.45 251.021 810.021Z"/><path fill="#FAFAFA" d="M641.852 223.358C641.787 232.835 641.781 242.313 641.834 251.791C632.526 251.688 623.217 251.692 613.909 251.801C614.042 242.354 614.064 232.906 613.976 223.459L641.852 223.358Z"/><path fill="#FAFAFA" d="M1059.42 1033.26C1063.44 1032.77 1084.04 1032.61 1087.61 1033.49L1060.68 1033.66C1060.61 1042.76 1060.64 1051.86 1060.76 1060.96C1057.92 1061.66 1037.04 1061.32 1032.86 1061.31L1032.97 1033.48C1040.76 1033.47 1052.01 1033.83 1059.42 1033.26Z"/><path fill="#FAFAFA" d="M1144.91 83.8502L1172.86 83.8551L1172.86 112.108L1144.94 112.066C1144.62 103.154 1144.88 92.8645 1144.91 83.8502Z"/><path fill="#FAFAFA" d="M585.936 112.15C586.032 102.714 585.998 93.2776 585.831 83.8427L613.996 83.8717C613.828 93.2604 613.869 102.652 614.119 112.038C604.814 112.056 595.215 111.953 585.936 112.15Z"/><path fill="#FAFAFA" d="M167.106 726.129C176.511 726.588 185.933 726.602 195.339 726.17C195.531 735.407 195.372 745.105 195.359 754.378L167.131 754.412C167.39 745.064 167.195 735.5 167.106 726.129Z"/><path fill="#FAFAFA" d="M250.899 307.299C260.276 307.609 269.806 307.444 279.2 307.371L279.34 335.607L250.971 335.562C251.593 326.15 251.569 316.707 250.899 307.299Z"/><path fill="#FAFAFA" d="M837.333 726.199C846.306 726.452 856.164 726.222 865.202 726.188C865.159 735.574 865.163 744.96 865.214 754.347C855.919 754.25 846.623 754.349 837.333 754.643L837.333 726.199Z"/><path fill="#FAFAFA" d="M390.623 726.12C400.062 726.694 409.527 726.683 418.964 726.087C418.254 735.944 418.372 743.811 418.997 753.636C417.325 755.045 394.24 754.397 390.553 754.38C390.813 745.194 390.636 735.355 390.623 726.12Z"/><path fill="#FAFAFA" d="M1032.87 83.8931C1042.1 83.8044 1051.48 83.9037 1060.72 83.9142C1060.59 93.1665 1060.59 102.42 1060.73 111.672C1052.05 112.223 1041.67 112.07 1032.85 112.141C1032.73 102.83 1032.86 93.2291 1032.87 83.8931Z"/><path fill="#FAFAFA" d="M920.856 363.409C929.575 363.416 940.22 363.68 948.76 363.029C948.738 372.168 948.521 382.212 948.925 391.27C939.586 391.376 930.246 391.37 920.907 391.253C920.84 381.972 920.823 372.69 920.856 363.409Z"/></svg>