<?xml version="1.0" encoding="utf-8" ?><svg xmlns="http://www.w3.org/2000/svg" xmlns:xlink="http://www.w3.org/1999/xlink" width="1254" height="1254" viewBox="0 0 1254 1254"><path fill="#FCFCFC" d="M0 0L1254 0L1254 1254L0 1254L0 0Z"/><path fill="#014459" d="M590.386 288.048C602.013 287.676 636.356 282.997 624.851 308.945C623.544 311.894 617.094 317.82 614.5 320.416C592.341 342.595 574.737 369.943 563.007 399.006C537.55 460.446 537.67 529.505 563.339 590.856C591.441 655.478 644.034 706.31 709.575 732.195C770.759 756.553 840.076 754.035 899.14 724.993C907.255 721.003 918.138 712.61 927.153 716.852C938.279 722.088 934.216 734.394 930.24 743.014C892.231 825.421 825.303 883.436 740.547 914.204C712.18 923.455 683.622 929.957 653.735 931.693C562.79 937.317 473.408 906.113 405.722 845.111C343.099 789.199 302.059 709.15 297.403 624.972C292.724 539.166 321.895 454.95 378.646 390.423C432.865 329.579 509.026 292.756 590.386 288.048Z"/><path fill="#FCFCFC" d="M583.281 312.535C585.249 312.298 585.742 312.4 587.686 312.554L587.988 313.084C567.87 337.811 555.449 355.957 542.903 385.734C514.284 453.737 513.584 530.272 540.954 598.788C584.976 706.564 700.382 781.023 816.416 771.53C845.826 769.124 871.745 762.338 898.962 751.167C857.952 824.958 794.798 873.392 714.078 897.034C694.341 902.279 676.705 905.694 656.194 907.321C573.674 913.309 492.118 886.538 429.201 832.809C351.19 766.348 308.447 666.401 324.279 563.925C333.024 507.325 356.151 453.39 393.534 409.775C441.556 353.697 509.715 318.767 583.281 312.535Z"/><path fill="#014459" d="M801.735 316.153C812.722 316.833 815.756 323.45 819.885 332.671C823.96 341.769 828.035 350.901 832.11 360.002C852.135 363.97 910.289 361.885 870.272 399.187C864.049 404.987 857.322 410.536 850.909 416.156C852.331 427.563 860.042 458.24 854.989 467.228C853.399 470.056 850.845 471.713 847.732 472.466C844.637 473.215 841.4 473.14 838.343 472.249C832.273 470.482 808.936 456.308 802.235 452.414C794.221 457.007 786.234 461.682 778.219 466.273C733.268 492.017 750.2 438.737 753.611 416.063C749.414 412.453 739.176 402.152 734.557 399.447C723.46 392.949 713.309 372.196 729.924 366.607C739.816 363.28 760.395 362.079 772.339 360.22C776.308 351.586 780.025 342.718 783.857 334.022C788.059 324.485 790.429 317.818 801.735 316.153Z"/><path fill="#FCFCFC" d="M801.921 344.477C808.292 350.325 813.052 376.709 821.514 378.997C831.161 381.606 845.411 382.348 855.76 384.103C850.93 388.58 835.001 401.981 832.062 406.166C830.536 408.305 829.644 410.832 829.489 413.455C829.196 418.062 833.502 440.206 834.573 446.684C827.507 442.809 809.623 431.109 803.067 430.079C795.383 430.683 777.867 442.337 769.861 446.889C771.373 435.644 774.322 424.388 774.9 413.16C775.222 406.903 767.765 401.272 763.633 397.612C758.565 393.123 753.563 388.554 748.543 384.018C759.413 382.397 771.552 381.932 782.096 379.419C789.394 377.68 792.684 365.058 795.613 358.899C797.681 354.548 799.911 349.069 801.921 344.477Z"/><path fill="#014459" d="M793.931 561.108C832.245 557.672 864.368 577.778 879.983 612.506C898.211 607.9 917.525 610.809 933.589 620.578C949.838 630.286 961.523 646.096 966.036 664.478C969.513 678.987 968.277 697.902 961.069 711.519C959.684 713.816 956.344 716.943 953.492 717.093C933.564 718.143 943.205 698.342 944.969 689.776C945.858 685.374 946.086 680.864 945.647 676.394C944.313 662.944 937.802 651.927 927.315 643.542C916.45 634.754 902.257 631.214 888.537 633.869C884.538 634.685 869.512 639.57 866.543 636.214C861.186 630.161 859.838 620.383 855.129 613.207C850.494 606.143 847.024 602.012 840.528 596.565C810.85 575.647 773.046 579.78 750.991 610.398C747.075 615.835 744.367 627.678 739.023 630.921C731.13 635.709 718.272 625.326 710.028 624.206C688.695 620.231 666.249 629.24 654 647.274C649.086 654.509 647.791 665.864 636.158 663.096C629.876 661.602 625.366 654.624 627.888 648.434C634.705 631.698 648.338 617.124 664.503 609.044C686.135 598.308 705.332 598.459 727.877 605.811C742.117 579.773 764.214 564.324 793.931 561.108Z"/><path fill="#FCFCFC" d="M869.729 870.352L902.228 870.353L902.237 902.853L869.731 902.849C869.63 892.017 869.629 881.184 869.729 870.352Z"/></svg>