<?xml version="1.0" encoding="utf-8" ?><svg xmlns="http://www.w3.org/2000/svg" xmlns:xlink="http://www.w3.org/1999/xlink" width="1254" height="1254" viewBox="0 0 1254 1254"><path fill="#FBFAFA" d="M0 0L1254 0L1254 1254L0 1254L0 0Z"/><path fill="#014962" d="M880.079 511.111C911.568 508.043 939.583 531.081 942.654 562.57C945.724 594.059 922.688 622.076 891.199 625.149C859.707 628.222 831.687 605.183 828.616 573.691C825.545 542.199 848.586 514.18 880.079 511.111Z"/><path fill="#FBFAFA" d="M883.118 527.388C905.538 525.981 924.89 542.934 926.446 565.344C928.002 587.754 911.178 607.219 888.779 608.924C866.168 610.644 846.479 593.627 844.909 571.005C843.338 548.384 860.486 528.809 883.118 527.388Z"/><path fill="#014962" d="M643.58 786.168C644.446 786.178 646.157 786.226 646.905 786.544C651.493 788.49 655.574 794.155 660.17 797.851C670.809 806.407 679.816 812.24 692.132 818.063C696.766 820.686 706.896 821.525 709.604 826.393C712.854 832.237 709.369 836.083 704.35 838.59C686.699 837.125 660.281 819.524 647.065 808.178C639.429 801.623 629.886 792.529 643.58 786.168Z"/><path fill="#014962" d="M804.88 810.644C813.046 810.671 817.84 819.737 812.139 824.262C794.911 837.934 765.643 844.191 745.023 845.104C732.337 845.781 730.671 827.296 751.568 828.373C767.725 829.205 790.597 818.108 804.88 810.644Z"/><path fill="#014962" d="M865.879 737.219C873.8 737.656 876.463 743.012 873.833 750.079C868.737 763.766 851.262 795.512 839.354 802.173C830.771 802.531 827.163 796.048 831.421 789.488C836.509 781.648 843.039 774.707 848.145 766.583C852.975 758.896 855.477 751.847 859.06 743.558C860.686 739.798 862.031 738.515 865.879 737.219Z"/><path fill="#014962" d="M627.632 509.451C636.369 508.639 638.287 512.67 639.877 520.669C643.379 538.292 644.704 557.011 642.838 574.9C642.535 577.799 639.919 579.31 637.728 580.674C625.189 582.564 627.16 571.096 627.417 562.885C627.698 553.876 627.384 544.251 626.35 535.274C625.61 528.847 622.366 521.931 622.787 515.342C622.949 512.8 625.852 510.851 627.632 509.451Z"/><path fill="#014962" d="M579.847 426.734L580.11 426.738C580.64 426.74 583.143 426.778 583.51 426.934C592.517 430.766 606.891 449.742 611.921 457.445C615.771 463.341 624.993 476.108 623.359 481.717C622.597 484.334 619.842 486.095 617.749 487.419C611.974 487.61 610.874 486.695 607.938 481.559C601.882 470.965 595.202 460.307 587.126 451.117C583.983 447.282 578.683 443.793 575.811 439.867C571.58 434.084 574.764 429.706 579.847 426.734Z"/><path fill="#014962" d="M608.753 697.437C612.201 698.089 616.819 699.594 616.924 703.483C617.446 722.734 620.183 738.63 628.04 756.418C630.744 762.541 627.614 766.591 621.26 768.545C615.917 767.403 614.066 764.921 611.744 758.95C605.143 741.979 599.421 720.325 602.361 702.115C602.726 699.852 606.823 698.129 608.753 697.437Z"/><path fill="#014962" d="M314.601 476.949C335.727 476.697 317.923 499.866 316.411 510.234C315.897 513.757 314.733 519.065 313.87 522.574C311.854 530.763 314.021 542.026 305.958 546.452C301.974 546.591 296.886 545.713 296.098 540.99C294.049 528.717 304.512 483.47 314.601 476.949Z"/><path fill="#014962" d="M625.223 605.034C631.745 604.497 637.593 606.76 635.872 614.508C631.807 632.799 626.688 651.071 621.624 669.111C621.323 670.184 618.606 672.094 617.645 672.785C611.479 673.844 605.569 671.137 606.904 664.062C608.635 654.885 611.427 645.833 613.827 636.794C616.301 627.478 618.454 617.935 621.647 608.86C622.207 607.27 623.914 606.011 625.223 605.034Z"/><path fill="#014962" d="M375.59 407.244C376.285 407.24 378.185 407.214 378.812 407.492C395.77 415.006 375.724 426.137 368.718 431.45C365.368 433.991 362.255 436.657 359.134 439.231C353.65 443.751 345.744 456.512 339.779 459.186C321.952 458.62 333.706 442.905 339.995 436.48C350.476 425.772 362.126 414.129 375.59 407.244Z"/><path fill="#014962" d="M454.783 382.338C458.567 382.05 463.386 381.279 466.99 382.786C472.899 385.258 472.321 396.205 465.874 397.495C460.015 398.667 453.381 398.633 447.307 399.251C438.212 400.242 429.221 402.026 420.437 404.582C418.893 405.131 417.323 405.608 415.735 406.011C407.129 408.146 400.255 398.838 405.812 394.186C415.505 386.074 442.512 383.396 454.783 382.338Z"/><path fill="#014962" d="M501.344 385.199C509.802 386.19 582.475 404.698 552.107 419.166C546.6 418.768 534.635 411.904 528.689 409.456C519.367 405.617 511.226 403.736 501.482 401.279C492.139 398.923 492.154 388.833 501.344 385.199Z"/><path fill="#014962" d="M881.166 652.681C882.787 652.703 884.385 652.719 885.92 653.305C887.957 654.082 889.476 655.468 890.345 657.479C892.169 661.701 887.273 705.486 884.901 709.878C883.614 712.26 881.726 713.063 879.312 714.024C873.448 713.822 869.215 711.781 870.057 705.172C872.041 689.588 873.831 673.945 875.758 658.359C876.054 655.964 879.333 653.819 881.166 652.681Z"/></svg>