<?xml version="1.0" encoding="utf-8" ?><svg xmlns="http://www.w3.org/2000/svg" xmlns:xlink="http://www.w3.org/1999/xlink" width="1254" height="1254" viewBox="0 0 1254 1254"><path fill="#FCFCFB" d="M0 0L1254 0L1254 1254L0 1254L0 0Z"/><path fill="#014B5A" d="M610.104 252.229C803.945 242.648 968.827 392.07 978.315 585.916C987.803 779.761 838.3 944.572 644.45 953.966C450.733 963.353 286.059 813.975 276.578 620.262C267.097 426.549 416.395 261.804 610.104 252.229Z"/><path fill="#FCFCFB" d="M693.924 460.462C702.703 460.236 708.01 469.002 711.401 476.116C718.837 491.716 723.561 511.241 727.403 528.115C737.63 573.087 743.786 619.568 758.212 663.459C764.238 681.795 776.773 706.425 799.553 704.501C827.693 702.126 834.341 665.884 842.145 644.367C845.312 635.634 848.723 620.083 859.823 617.843C870.252 616.481 882.591 617.095 893.157 617.129L953.003 617.204C951.193 673.351 934.611 728.028 904.931 775.723C859.808 849.128 787.272 901.504 703.399 921.244C613.829 942.533 528.106 925.661 450.419 877.802C433.823 866.893 418.213 854.553 403.767 840.924C341.442 782.831 304.736 702.367 301.718 617.22L384.813 617.184C398.999 617.185 419.746 618.863 433.057 615.429C475.018 604.604 471.246 511.056 494.069 497.075C496.01 495.885 497.961 495.483 500.187 496.201C518.163 502 536.028 612.583 540.083 634.143C542.661 648.192 545.561 662.181 548.779 676.098C553.756 697.229 564.446 738.601 588.603 744.888C626.528 754.759 638.92 704.832 644.435 678.041C646.113 669.89 647.824 661.911 649.319 653.697C657.637 608.009 662.071 561.705 670.511 516.043C672.997 502.595 675.58 488.885 681.025 476.282C684.269 468.751 686.414 464.416 693.924 460.462Z"/><path fill="#FCFCFB" d="M610.87 275.802C613.076 275.658 615.285 275.559 617.495 275.503C705.123 272.934 790.048 306.004 852.862 367.157C914.377 426.75 950.278 507.948 952.961 593.552C925.153 593.679 897.29 593.191 869.491 593.605C863.845 593.689 858.07 593.792 852.584 595.277C825.587 602.588 821.051 636.539 813.027 658.994C810.698 665.51 807.819 673.294 802.759 678.23C801.198 679.754 799.051 681.251 796.754 681.033C778.117 679.263 761.137 575.977 757.397 557.44C753.873 539.975 750.397 522.497 745.927 505.242C741.499 488.152 736.158 469.265 725.881 454.74C719.724 446.038 711.592 439.129 700.733 437.494C691.83 436.154 683.398 438.537 676.26 443.902C652.6 461.687 645.918 518.862 641.817 547.05L635.268 593.169C631.777 619.635 621.675 701.727 604.86 719.052C602.983 720.985 600.146 722.992 597.3 722.802C590.08 722.32 585.338 712.618 582.701 706.799C575.382 690.652 571.696 672.013 568.046 654.743C562.852 630.172 558.61 605.429 553.858 580.77C550.482 563.249 546.663 545.53 541.65 528.401C536.922 512.245 531.064 493.393 518.703 481.421C512.438 475.354 504.805 472.17 496.041 472.447C468.174 473.328 459.251 511.065 453.356 532.546C450.511 543.22 447.513 553.853 444.361 564.441C441.61 573.392 436.038 591.996 425.386 592.996C412.577 594.198 397.332 593.659 384.318 593.646L301.38 593.527C302.099 580.253 302.976 566.925 305.023 553.779C314.838 491.566 342.2 433.445 383.895 386.241C441.536 320.288 523.402 280.454 610.87 275.802Z"/></svg>