<?xml version="1.0" encoding="utf-8" ?><svg xmlns="http://www.w3.org/2000/svg" xmlns:xlink="http://www.w3.org/1999/xlink" width="1254" height="1254" viewBox="0 0 1254 1254"><path fill="#FBFBFB" d="M0 0L1254 0L1254 1254L0 1254L0 0Z"/><path fill="#01485B" d="M600.001 782.048C605.728 776.585 616.051 769.118 622.644 764.4C660.727 737.149 706.654 716.928 754.139 717.059C778.39 717.48 801.29 726.183 818.172 743.78C851.47 778.487 850.302 840.495 815.559 873.783C796.726 891.828 773.9 898.301 748.092 897.679C698.962 895.085 656.81 854.353 621.563 823.323C578.219 860.186 522.89 891.636 465.269 897.15C436.656 900.204 408.897 896.049 386.172 877.025C348.742 845.691 345.952 783.108 377.233 746.57C393.783 727.239 416.129 719.306 440.868 717.267C447.678 716.634 462.643 718.019 469.673 719.031C519.951 726.271 561.085 750.985 600.001 782.048Z"/><path fill="#FBFBFB" d="M438.61 735.009C498.544 729.537 565.867 773.616 608.378 811.626C583.713 832.529 556.146 849.742 526.538 862.727C507.049 871.346 486.387 877.019 465.229 879.56C440.636 882.315 418.441 880.408 398.404 864.422C363.778 836.796 364.49 776.27 399.501 749.291C411.313 740.189 423.91 736.433 438.61 735.009Z"/><path fill="#FBFBFB" d="M741.127 735.012C755.329 733.389 772.182 735.281 785.216 741.263C801.624 748.719 814.318 762.496 820.407 779.459C834.265 817.099 818.994 862.321 779.322 876.025C754.629 884.555 734.216 880.301 711.224 869.586C678.581 853.442 642.333 817.418 613.66 793.343C649.573 763.375 694.014 739.469 741.127 735.012Z"/><path fill="#01485B" d="M593.235 282.666C651.042 279.49 700.473 323.791 703.624 381.6C706.776 439.409 662.453 488.821 604.643 491.948C546.867 495.073 497.492 450.783 494.342 393.008C491.193 335.234 535.462 285.84 593.235 282.666Z"/><path fill="#FBFBFB" d="M591.71 300.771C639.647 296.771 681.731 332.436 685.646 380.38C689.562 428.325 653.823 470.346 605.872 474.177C558.04 477.999 516.146 442.368 512.24 394.542C508.334 346.717 543.891 304.761 591.71 300.771Z"/><path fill="#01485B" d="M577.107 514.642L620.485 514.629C653.802 514.711 676.243 515.249 705.969 534.05C734.385 551.894 754.395 580.453 761.461 613.255C762.766 619.267 763.393 625.564 763.785 631.697C764.313 639.954 765.604 685.516 762.417 690.023C761.258 691.662 759.264 692.9 757.288 693.203C754.825 693.582 751.665 693.126 749.773 691.361C744.943 686.853 747.052 660.356 747.086 653.025C747.254 617.356 741.497 590.127 715.339 563.942C687.206 535.779 658.43 531.982 620.576 532.048C599.431 532.039 578.004 531.311 556.892 532.27C533.97 533.312 511.858 540.39 493.474 554.331C429.562 602.798 459.726 679.852 448.593 691.047C446.951 692.699 444.712 693.51 442.402 693.499C440.027 693.487 438.094 692.837 436.429 691.081C434.347 688.886 434.046 685.136 434.01 682.278C433.38 631.825 430.848 590.997 469.598 551.961C489.7 531.933 515.91 519.185 544.076 515.738C554.668 514.521 566.353 514.703 577.107 514.642Z"/><path fill="#01485B" d="M362.442 936.907C372.173 936.183 388.28 936.724 398.565 936.726L468.174 936.734L683.41 936.717L797.36 936.755L825.994 936.749C832.484 936.687 842.338 934.77 846.514 941.296C850.001 946.747 846.11 951.275 841.114 953.71C830.675 954.117 818.138 953.761 807.58 953.732L752.436 953.752L560.68 953.777L421.145 953.718L383.926 953.677C376.412 953.716 362.949 956.035 357.819 949.296C354.122 944.44 358.29 939.693 362.442 936.907Z"/></svg>