<?xml version="1.0" encoding="utf-8" ?><svg xmlns="http://www.w3.org/2000/svg" xmlns:xlink="http://www.w3.org/1999/xlink" width="1254" height="1254" viewBox="0 0 1254 1254"><path fill="#FDFDFD" d="M0 0L1254 0L1254 1254L0 1254L0 0Z"/><path fill="#004057" d="M614.93 286.084C784.12 279.627 926.51 411.551 932.964 580.741C939.417 749.932 807.491 892.319 638.3 898.769C469.114 905.219 326.732 773.297 320.279 604.111C313.825 434.926 445.744 292.541 614.93 286.084Z"/><path fill="#FDFDFD" d="M621.15 302.748C646.635 302.034 677.527 305.871 702.154 312.653C777.397 333.154 841.257 383.01 879.4 451.032C916.521 517.691 925.878 596.292 905.443 669.802C888.273 732.176 850.674 786.986 798.663 825.46C785.316 835.334 774.502 841.589 760.056 849.744C750.792 839.822 743.807 827.996 739.59 815.093C729.478 783.662 730.783 740.534 755.426 716.609C761.409 710.801 767.476 704.993 773.178 698.92C784.68 686.82 794.358 673.11 801.906 658.22C808.99 644.324 814.155 629.532 817.259 614.248C822.875 586.187 822.392 532.134 812.945 504.726C797.85 460.93 762.038 422.553 720.869 402.108C672.354 377.987 616.25 374.103 564.874 391.308C553.717 394.942 542.915 399.587 532.603 405.185C478.471 434.572 442.246 484.092 436 546.381C434.326 563.085 437.045 586.029 433.862 600.603C430.995 613.732 405.844 638.652 402.355 651.474C401.382 655.154 401.364 659.021 402.304 662.71C406.61 680.007 426.752 675.455 433.786 685.919C435.95 690.363 435.546 699.044 435.355 703.683C434.212 731.367 439.57 760.039 466.621 773.703C479.827 780.817 497.693 780.151 512.313 779.781C542.919 779.007 547.79 785.427 547.369 814.72C547.073 835.313 547.013 848.556 541.289 869.428C501.404 856.999 464.662 836.127 433.564 808.229C377.897 758.116 341.17 683.693 337.495 608.75C333.096 531.139 360.08 455.018 412.379 397.506C467.721 336.731 539.78 306.625 621.15 302.748Z"/><path fill="#004057" d="M855.153 561.212C858.51 559.96 862.284 560.649 864.981 563.007C867.679 565.365 868.866 569.013 868.073 572.507C867.281 576.001 864.636 578.779 861.185 579.742C856.152 581.147 850.907 578.336 849.289 573.368C847.672 568.399 850.258 563.039 855.153 561.212Z"/><path fill="#004057" d="M392.287 561.164C397.341 559.423 402.852 562.085 404.629 567.126C406.406 572.167 403.784 577.697 398.756 579.51C393.677 581.342 388.078 578.686 386.283 573.594C384.488 568.503 387.183 562.923 392.287 561.164Z"/><path fill="#FDFDFD" d="M524.497 536.568C528.603 536.253 531.997 536.126 536.051 536.792C559.521 539.803 565.975 561.401 577.99 577.738C604.655 613.992 657.858 610.034 680.409 571.595C686.105 561.887 692.078 550.959 701.092 544.222C710.107 537.483 721.204 535.149 732.253 536.864C752.751 540.152 757.875 553.086 768.522 567.852C777.552 580.375 789.28 585.617 804.108 587.791C802.413 622.429 789.145 655.496 766.426 681.698C746.374 704.486 725.632 716.817 719.88 751.02C714.259 784.439 718.954 820.505 738.219 848.715L744.477 857.296C685.275 885.333 619.889 888.735 556.746 873.746C564.367 851.347 563.694 824.055 563.283 800.473C563.137 792.123 559.908 782.53 554.446 776.058C531.944 749.39 490.304 775.655 465.911 753.138C448.449 737.928 451.715 710.891 451.307 690.733C450.84 667.645 434.609 668.917 419.455 659.75C418.829 659.371 417.58 657.138 417.846 656.573C426.601 637.998 445.265 623.406 450.238 602.653C451.492 597.434 451.421 592.897 451.412 587.613C494.641 582.783 484.295 542.733 524.497 536.568Z"/><path fill="#004057" d="M624.077 647.011C629.038 645.325 634.431 647.955 636.156 652.903C637.882 657.85 635.294 663.264 630.361 665.028C625.371 666.813 619.883 664.19 618.138 659.186C616.393 654.183 619.06 648.716 624.077 647.011Z"/><path fill="#FDFDFD" d="M622.783 397.646C624.029 397.584 625.275 397.546 626.521 397.53C675.51 396.558 722.863 415.169 758.08 449.238C780.329 471.152 798.846 500.668 803.191 532.093C804.703 543.027 804.423 559.692 804.482 571.18C775.757 566.892 780.697 545.35 757.2 529.506C744.501 520.944 728.896 517.842 713.888 520.895C666.672 530.35 678.019 577.372 633.435 585.915C626.488 586.895 619.408 586.24 612.758 584.002C582.723 573.947 585.343 543.042 556.51 526.798C533.189 513.906 504.04 518.973 486.438 538.979C472.641 554.44 474.563 564.757 451.613 571.207C448.03 471.177 527.596 403.168 622.783 397.646Z"/><path fill="#004057" d="M625.716 473.66C630.818 472.885 635.612 476.304 636.541 481.38C637.47 486.455 634.197 491.35 629.151 492.432C625.749 493.161 622.22 491.981 619.941 489.353C617.661 486.726 616.991 483.066 618.193 479.801C619.394 476.536 622.277 474.183 625.716 473.66Z"/></svg>