<?xml version="1.0" encoding="utf-8" ?><svg xmlns="http://www.w3.org/2000/svg" xmlns:xlink="http://www.w3.org/1999/xlink" width="1254" height="1254" viewBox="0 0 1254 1254"><path fill="#FCFCFC" d="M0 0L1254 0L1254 1254L0 1254L0 0Z"/><path fill="#034658" d="M1008.44 549.949C1026.61 550.684 1024.05 568.248 1023.81 581.411C1023.46 611.424 1019.8 641.307 1012.91 670.521C989.718 772.779 927.383 861.88 839.269 918.716C750.201 974.556 642.592 992.709 540.134 969.179C434.007 945.151 349.874 881.98 292.111 790.457C290.898 800.113 289.765 809.779 288.714 819.454C287.783 827.775 287.806 839.424 281.407 845.349C275.586 850.741 265.553 848.969 260.96 842.774C259.452 840.777 258.576 838.375 258.444 835.876C258.175 830.32 260.695 813.059 261.461 806.976L267.524 756.951C268.41 748.873 267.819 738.056 275.677 733.335C283.071 728.893 288.582 731.695 295.678 734.665C305.355 738.716 315.039 742.753 324.722 746.782L359.027 761.07C365.798 763.896 380.355 768.604 383.775 774.705C385.853 778.481 386.256 782.953 384.886 787.04C382.955 792.966 375.095 797.933 369.729 796.401C353.464 791.76 334.646 782.644 318.922 776.571C348.88 823.657 384.309 860.845 431.415 891.137C513.427 943.587 612.931 961.27 707.993 940.288C858.088 907.584 964.839 785.575 989.932 635.709C992.631 619.773 994.195 603.665 994.615 587.508C994.851 579.327 994.358 570.957 994.893 562.858C995.41 555.046 1001.57 551.327 1008.44 549.949Z"/><path fill="#034658" d="M613.261 187.622C617.445 187.081 628.079 187.213 632.495 187.211C661.603 187.01 690.639 190.121 719.044 196.484C819.03 219.18 900.874 280.125 955.404 366.514C956.414 357.176 957.152 347.736 958.18 338.394C959.317 326.256 958.85 305.591 977.142 308.553C992.47 311.035 987.688 330.226 986.646 340.252L983.289 372.262L980.196 402.128C979.31 410.796 980.077 423.179 971.878 428.234C963.467 433.419 951.68 426.692 942.759 423.296L915.058 412.814L885.981 401.803C881.185 399.978 873.193 397.425 869.106 394.838C856.881 387.098 864.62 365.871 879.491 368.916C887.203 370.496 893.829 373.392 901 376.068L933.678 388.21C909.822 348.909 878.782 314.448 842.179 286.628C767.751 230.984 674.154 207.431 582.255 221.221C581.218 221.34 580.182 221.473 579.149 221.62C403.385 246.732 267.517 412.487 270.151 589.893C270.463 599.786 270.566 612.677 257.767 613.962C247.043 615.038 240.927 607.901 240.799 597.604C240.596 581.354 241.066 564.875 242.628 548.7C251.1 463.406 286.488 383.018 343.672 319.167C414.938 238.333 506.062 194.43 613.261 187.622Z"/><path fill="#034658" d="M616.931 362.893C672.368 356.674 722.333 396.617 728.472 452.063C734.612 507.509 694.597 557.416 639.142 563.476C583.8 569.523 534.017 529.607 527.89 474.274C521.763 418.941 561.607 369.101 616.931 362.893Z"/><path fill="#FCFCFC" d="M619.273 391.491C658.84 386.575 694.881 414.714 699.709 454.291C704.537 493.869 676.317 529.847 636.729 534.587C597.266 539.312 561.425 511.2 556.613 471.747C551.8 432.295 579.832 396.392 619.273 391.491Z"/><path fill="#034658" d="M599.523 588.685C608.256 588.169 617.364 588.83 625.959 588.471C679.306 586.182 732.821 596.389 770.334 637.472C804.788 675.205 805.435 716.028 804.322 763.685C803.904 781.625 782.387 784.126 776.794 769.017C774.825 763.697 776.572 752.415 775.993 746.566C780.456 671.014 736.44 623.471 657.768 618.456C635.008 618.086 601.991 617.047 580.571 620.408C522.097 629.583 481.762 667.919 479.881 728.523C479.57 736.208 479.418 743.754 479.538 751.476C479.711 762.602 482.044 776.442 467.166 778.646C457.243 780.116 451.114 772.322 450.779 762.951C449.209 719.086 453.361 673.863 483.959 639.525C514.449 605.128 555.159 591.548 599.523 588.685Z"/></svg>