<?xml version="1.0" encoding="utf-8" ?><svg xmlns="http://www.w3.org/2000/svg" xmlns:xlink="http://www.w3.org/1999/xlink" width="1254" height="1254" viewBox="0 0 1254 1254"><path fill="#F6F6F5" d="M0 0L29.9356 0L59.9125 0L89.9513 0L119.514 0L149.479 0L179.184 0L209.408 0L268.764 0L298.827 0L328.688 0L358.598 0L388.205 0L418.014 0L448.008 0L477.818 0L508.089 0L537.74 0L567.52 0L597.227 0L627.073 0L656.934 0L686.886 0L716.547 0L746.435 0L776.289 0L806.105 0L835.812 0L925.505 0L955.29 0L985.145 0L1014.94 0L1045.1 0L1074.77 0L1104.79 0L1134.72 0L1164.55 0L1194.16 0L1223.94 0L1254 0L1254 30.0186L1254 60.0438L1254 149.48L1254 179.301L1254 209.22L1254 239.28L1254 269.267L1254 299.298L1254 328.932L1254 358.825L1254 388.497L1254 418.219L1254 448.298L1254 478.184L1254 508.172L1254 537.609L1254 567.919L1254 597.297L1254 627.312L1254 657.259L1254 687.124L1254 717.034L1254 746.944L1254 776.854L1254 806.48L1254 836.322L1254 866.329L1254 896.291L1254 925.906L1254 955.845L1254 985.822L1254 1015.58L1254 1045.23L1254 1075.16L1254 1164.61L1254 1194.38L1254 1223.98L1254 1254L1224.12 1254L1194.36 1254L1164.49 1254L1134.57 1254L1104.69 1254L1074.89 1254L1044.73 1254L1015.05 1254L985.168 1254L955.164 1254L925.281 1254L895.446 1254L865.503 1254L835.784 1254L805.929 1254L776.238 1254L746.442 1254L716.625 1254L686.707 1254L656.952 1254L626.991 1254L597.064 1254L567.599 1254L537.639 1254L507.761 1254L478.088 1254L447.895 1254L418.146 1254L388.25 1254L358.51 1254L328.532 1254L298.678 1254L268.844 1254L238.865 1254L208.848 1254L179.159 1254L149.534 1254L119.696 1254L89.6965 1254L59.9595 1254L29.9925 1254L0 1254L0 1223.95L0 1194.37L0 1164.66L0 1075.27L0 1045.35L0 1015.77L0 985.814L0 955.821L0 925.938L0 896.284L0 866.284L0 836.293L0 806.4L0 776.68L0 746.872L0 717.082L0 687.149L0 657.227L0 627.517L0 597.5L0 567.648L0 537.773L0 508.008L0 478.165L0 448.154L0 418.262L0 388.521L0 358.813L0 328.811L0 299.235L0 269.283L0 239.276L0 209.237L0 179.315L0 149.733L0 119.721L0 89.9251L0 59.769L0 29.9865L0 0Z"/><path fill="#FCFCFC" d="M0 0L29.9356 0L59.9125 0L89.9513 0L119.514 0L149.479 0L179.184 0L209.408 0L268.764 0L298.827 0L328.688 0L358.598 0L388.205 0L418.014 0L448.008 0C448.044 9.97084 448.026 19.9418 447.953 29.9124L418.154 29.9844C418.201 39.951 418.177 49.9179 418.08 59.8842C408.39 59.9106 397.852 59.7281 388.222 59.9887C388.144 69.9944 388.136 80.0005 388.199 90.0063C378.695 89.7 368.308 89.9376 358.736 89.984C358.238 100.207 358.702 109.75 358.44 119.735C348.623 119.711 338.462 119.972 328.707 119.689C328.696 129.451 328.839 139.651 328.643 149.377C318.81 149.401 308.591 149.284 298.791 149.504C298.707 159.457 298.692 169.411 298.747 179.364C305.963 179.6 321.547 179.813 328.756 179.311C328.663 189.237 328.631 199.163 328.661 209.089L298.779 209.269C298.684 219.304 298.665 229.338 298.721 239.372C308.645 239.253 318.571 239.254 328.495 239.376L328.495 269.16C318.575 269.293 308.653 269.307 298.733 269.204L298.725 299.078C289.586 299.159 278.108 299.502 269.111 298.905C268.398 290.272 268.76 278.033 268.847 269.15C258.916 269.185 248.713 269.099 238.797 269.275C238.811 279.17 238.705 289.3 238.848 299.172L208.993 299.003C209.184 308.968 209.158 318.937 208.916 328.901C218.921 328.961 228.925 328.946 238.929 328.855C238.775 338.91 238.732 348.966 238.8 359.021C247.996 358.919 259.986 359.25 268.854 358.803C268.38 367.886 268.697 379.259 268.718 388.513C264.263 388.487 241.484 388.066 238.892 389.004L238.78 391.074L238.31 391.416L238.022 389.754C231.797 388.812 218.553 389.743 210.289 388.859L212.953 388.773C202.269 387.403 190.628 388.919 179.093 388.256L179.093 358.699C169.298 358.898 159.499 358.898 149.704 358.699C149.504 348.784 149.484 338.866 149.642 328.95L179.093 328.928L179.093 299.117L149.786 299.117C149.303 289.436 149.543 278.873 149.591 269.109L119.572 269.174C120.056 278.718 119.746 289.335 119.651 298.977C109.982 298.769 99.5585 298.996 89.8322 299.028L89.7428 328.822L60.0091 328.848C59.8913 338.858 59.8664 348.869 59.9344 358.88C51.1244 358.448 39.1439 358.825 30.0132 358.836L29.9709 388.368C20.4035 388.395 9.45133 388.162 0 388.521L0 358.813L0 328.811L0 299.235L0 269.283L0 239.276L0 209.237L0 179.315L0 149.733L0 119.721L0 89.9251L0 59.769L0 29.9865L0 0Z"/><path fill="#FCFCFC" d="M597.227 0L627.073 0L656.934 0L686.886 0L716.547 0L746.435 0L776.289 0L806.105 0L835.812 0L925.505 0L955.29 0L985.145 0L1014.94 0L1045.1 0L1074.77 0L1104.79 0L1134.72 0L1164.55 0L1164.41 30.0793L1194.22 30.0372C1194.24 39.9999 1194.2 49.9626 1194.11 59.9248L1164.54 59.9717C1164.45 68.7873 1164.04 81.3521 1164.57 90.0043L1194.21 90.0224C1194.21 99.9248 1194.16 109.827 1194.05 119.729C1184.41 119.763 1174.02 119.981 1164.44 119.668L1164.43 149.611L1194.1 149.503C1194.33 159.403 1194.33 169.308 1194.1 179.208C1184.23 179.306 1174.36 179.333 1164.49 179.288L1164.42 209.157C1154.6 209.201 1144.5 209.366 1134.7 209.22C1134.56 199.219 1134.54 189.216 1134.64 179.215L1104.63 179.242C1104.64 189.115 1104.54 199.224 1104.69 209.076C1094.77 209.269 1084.84 209.291 1074.91 209.143L1074.9 239.148C1064.9 239.216 1054.9 239.223 1044.9 239.168L1044.9 269.346C1050.62 269.331 1056.76 269.165 1062.41 269.717C1053.52 270.312 1046.62 269.616 1037.85 269.28C1030.35 268.993 1022.52 269.339 1014.98 269.02L1015.06 298.902C1005.13 298.979 995.199 298.999 985.268 298.962C985.233 289.111 985.295 279.102 985.149 269.266C976.074 268.886 964.61 269.193 955.267 269.088L955.298 239.065C945.586 239.446 935.233 239.252 925.511 239.153C925.158 229.472 925.366 218.899 925.384 209.148L895.651 209.145C895.384 199.448 895.536 189.229 895.538 179.49L925.354 179.512C925.389 169.467 925.359 159.422 925.266 149.377L895.523 149.38C895.263 139.696 895.456 129.419 895.489 119.688C885.686 119.876 875.529 119.73 865.697 119.712L865.711 149.384L835.782 149.425L835.769 179.384C828.598 178.803 813.848 179.263 806.106 179.258C805.938 169.454 805.892 159.648 805.968 149.843C814.971 149.392 825.093 149.569 834.294 149.346C828.914 147.842 803.573 149.314 796.462 149.394C790.319 149.463 782.556 149.4 776.211 149.333L776.211 179.273L746.36 179.254L746.353 209.096L716.709 209.096C716.709 204.939 716.149 181.948 716.857 179.616C726.307 179.162 736.913 179.387 746.458 179.4C746.263 169.74 746.439 159.64 746.472 149.945C755.898 149.479 766.808 149.714 776.351 149.712L776.365 119.705L806.117 119.699C805.694 110.517 805.994 99.2807 806.001 89.9459L776.386 89.8206C776.186 80.0933 776.397 69.874 776.298 60.0376C767.994 59.5368 755.132 59.9608 746.481 59.9681C746.431 69.3435 746.039 80.8215 746.347 90.0144C737.285 89.6161 726.003 89.9038 716.766 89.8801C716.194 80.7678 716.528 69.3278 716.582 60.0279C707.079 59.7437 696.539 59.9433 686.953 59.9182C686.396 50.6985 686.762 39.3318 686.884 30.0176C676.942 29.9294 667 29.9305 657.059 30.0209C656.932 40.0214 656.916 50.0231 657.011 60.024C647.228 59.7924 637.033 59.9139 627.217 59.8972C626.799 50.1744 626.993 39.8049 627.022 30.0211C617.697 29.698 606.829 29.9448 597.378 29.92C597.272 19.947 597.222 9.97354 597.227 0Z"/><path fill="#FCFCFC" d="M328.645 985.825L358.583 985.839C358.584 995.298 358.871 1006.54 358.451 1015.86L388.093 1015.69C388.166 1025.62 388.17 1035.55 388.105 1045.49C397.66 1045.38 408.829 1045.61 418.213 1045.24L418.029 1075.15C408.181 1075.15 398.028 1075.03 388.207 1075.22L388.112 1105.2C398.107 1105.13 408.103 1105.11 418.098 1105.14C418.144 1115.06 418.128 1124.99 418.048 1134.91L388.167 1134.91L388.126 1164.82C394.146 1164.81 412.945 1165.19 418.198 1164.53L418.078 1134.98C427.257 1134.98 439.099 1135.32 448.061 1134.85L448.056 1164.75L507.601 1164.6C507.59 1172.55 507.195 1185.42 507.836 1192.97L507.913 1164.92L537.291 1164.92L537.291 1194.24C527.493 1194.58 517.715 1194.41 507.913 1194.3L507.913 1224.06L537.634 1224.08C537.637 1233.94 537.791 1244.18 537.639 1254L507.761 1254L478.088 1254L447.895 1254L418.146 1254L388.25 1254L358.51 1254L328.532 1254L298.678 1254L268.844 1254L268.813 1224.04C276.873 1224.16 290.889 1224.52 298.799 1224.05L298.823 1194.3C288.92 1194.37 278.866 1194.54 268.982 1194.16C268.634 1184.61 268.815 1174.38 268.827 1164.78L298.83 1164.7L298.827 1135.02C308.718 1134.91 318.609 1134.87 328.5 1134.9L328.495 1104.96C318.567 1105.01 308.639 1105.01 298.71 1104.94C298.794 1114.69 298.741 1124.44 298.552 1134.19C297.596 1125.92 298.283 1111.88 298.553 1103.44C298.78 1094.03 298.861 1084.62 298.796 1075.21C288.801 1075.16 278.806 1075.16 268.811 1075.23L268.71 1104.73C258.795 1104.94 248.876 1104.98 238.959 1104.85C238.733 1095.08 238.886 1084.98 238.912 1075.18L209.123 1075.14C208.659 1065.46 208.882 1055 209.133 1045.33L239.006 1045.3C238.872 1037.55 238.386 1023.11 239.197 1015.83L268.809 1015.72C268.649 1025.56 268.638 1035.4 268.776 1045.23C278.713 1045.51 288.881 1045.33 298.84 1045.26C298.833 1035.5 298.712 1025.51 298.848 1015.77C308.015 1015.75 319.81 1016.06 328.762 1015.57C328.643 1025.46 328.617 1035.36 328.683 1045.25C337.764 1045.64 349.216 1045.33 358.515 1045.39C358.442 1035.45 358.44 1025.51 358.509 1015.58L328.822 1015.51C328.2 1005.96 328.532 995.476 328.645 985.825Z"/><path fill="#FCFCFC" d="M30.0736 926.328C39.8976 926.191 50.1593 925.891 59.9351 926.413L59.907 955.819L29.9772 955.839L29.975 985.829C39.0297 985.887 51.0336 986.277 59.9968 985.802C59.8811 995.665 59.8369 1005.53 59.8642 1015.39C49.8867 1015.61 39.9062 1015.66 29.927 1015.54L30.0106 1045.22C38.3512 1045.46 51.6484 1045.65 60.0227 1045.27C59.9229 1035.71 59.7282 1025.4 60.0391 1015.87C69.9588 1015.75 79.8792 1015.71 89.7996 1015.74C89.8104 1024.74 89.4713 1036.45 89.9004 1045.23C99.8413 1045.5 109.681 1045.24 119.59 1045.38C119.504 1035.39 119.533 1025.41 119.677 1015.43C109.832 1015.51 99.7297 1015.73 89.9124 1015.41C89.7867 1005.56 89.7818 995.7 89.8977 985.842L119.699 985.918C119.694 995.079 120.038 1006.88 119.605 1015.82L149.489 1015.69C149.579 1025.5 149.554 1035.32 149.415 1045.13C139.512 1045.28 129.607 1045.32 119.702 1045.24C119.81 1055.27 119.813 1065.29 119.71 1075.32L149.472 1075.3C149.47 1085.15 149.529 1095.07 149.409 1104.91C139.509 1104.98 129.608 1104.98 119.708 1104.91C119.754 1114.55 120.029 1125.38 119.652 1134.92L149.522 1134.9C149.477 1144.75 149.523 1154.74 149.371 1164.57C139.498 1164.68 129.623 1164.66 119.75 1164.51C119.342 1155.07 119.455 1144.42 119.667 1134.91L89.8419 1134.91C89.8339 1144.46 90.0773 1155.33 89.7214 1164.77C99.5795 1164.75 109.917 1164.9 119.732 1164.7L119.711 1194.3L89.8779 1194.39L89.8337 1224.04C99.7691 1224.11 109.705 1224.12 119.64 1224.06C119.768 1234.01 119.988 1244.06 119.696 1254L89.6965 1254L59.9595 1254L29.9925 1254L0 1254L0 1223.95L0 1194.37L0 1164.66L0 1075.27L0 1045.35L0 1015.77L0 985.814L0 955.821C10.0327 955.913 20.0658 955.952 30.0989 955.938C30.02 946.069 30.0116 936.198 30.0736 926.328Z"/><path fill="#FCFCFC" d="M30.0446 388.808L59.9784 388.621C59.8686 398.487 59.8776 408.355 60.0053 418.221C69.9054 418.403 79.8076 418.438 89.7087 418.326C89.8218 428.249 89.8613 438.173 89.8271 448.097L60.0069 448.213C59.8345 458.199 59.8324 468.187 60.0005 478.173C68.6468 478.295 81.324 478.542 89.9234 478.139C89.2137 469.542 89.7185 457.214 89.8932 448.319L119.876 448.311C119.083 440.969 119.576 426.206 119.65 418.291L149.554 418.3L149.508 388.71L179.161 388.645C179.185 398.339 179.354 408.46 179.138 418.117L149.771 418.191C148.997 425.483 149.463 440.192 149.492 448.199L179.169 448.33L179.172 478.054L149.505 478.226C149.528 488.203 149.49 498.181 149.393 508.158C159.284 508.032 169.176 508.056 179.067 508.229C179.125 513.915 178.826 530.949 179.749 535.495C180.323 528.57 180.026 516.141 180.018 508.825L208.796 508.825C208.829 513.795 209.813 534.454 207.581 537.257C202.827 538.807 193.59 538.084 187.858 537.757C177.429 537.163 179.142 539.306 179.29 549.141C179.372 554.518 178.947 562.178 179.64 567.403C181.727 567.798 184.021 567.238 185.485 567.883C183.609 567.879 181.271 567.55 179.909 568.57C179.631 576.684 179.497 589.349 180.117 597.297C182.46 597.311 188.984 597.221 190.958 597.526L149.567 597.364L149.547 567.919L119.87 567.919C119.861 577.829 119.798 587.739 119.681 597.649C129.634 597.58 139.587 597.565 149.539 597.605C149.511 607.247 149.648 617.42 149.41 627.016C140.723 627.77 128.551 627.457 119.651 627.203C119.7 637.061 119.867 647.199 119.614 657.03C109.703 657.267 99.7888 657.263 89.8787 657.018C89.7522 647.018 89.6062 637.3 89.9187 627.291C99.8576 627.476 109.799 627.508 119.739 627.387C119.391 617.476 119.544 607.37 119.594 597.439L89.959 597.389C89.505 586.994 89.9248 577.735 89.7236 567.658C79.8066 567.72 69.8892 567.708 59.9724 567.619C59.7417 557.811 59.927 547.738 60.0002 537.906C69.8987 537.79 79.7984 537.805 89.6965 537.952L89.6965 508.09C79.7985 507.988 69.8995 508.004 60.0018 508.138L59.9377 537.755C49.9756 538.051 40.0064 538.023 30.046 537.671L29.9647 567.615C19.9772 567.778 9.98781 567.789 0 567.648L0 537.773L0 508.008L0 478.165L0 448.154L0 418.262C8.90608 418.278 21.4302 418.699 30.0353 418.241L30.0446 388.808Z"/><path fill="#FCFCFC" d="M865.77 1164.77L895.443 1164.74C895.465 1174.11 895.728 1184.84 895.325 1194.09C885.447 1194.42 875.562 1194.47 865.682 1194.22C865.69 1203.7 865.975 1214.66 865.659 1224.01C875.587 1224.17 885.517 1224.2 895.446 1224.11L895.446 1254L865.503 1254L835.784 1254L805.929 1254L806.045 1224.16L835.768 1224.01C835.605 1214.22 835.638 1204.43 835.867 1194.64L865.853 1194.54C865.416 1184.72 865.587 1174.61 865.77 1164.77Z"/><path fill="#FCFCFC" d="M865.791 179.344C865.352 188.208 865.718 200.256 865.716 209.366C875.634 209.176 885.556 209.198 895.473 209.431C895.328 219.339 895.474 229.201 895.288 239.163C885.534 239.391 875.5 239.185 865.72 239.094C865.763 249.105 865.73 259.117 865.621 269.128C855.662 269.222 845.703 269.198 835.746 269.055L835.713 298.999L806.129 298.863C805.942 289.032 805.934 279.199 806.105 269.369C816.015 269.167 825.927 269.114 835.838 269.21C835.715 259.266 835.714 249.322 835.833 239.379C845.847 239.178 855.864 239.182 865.877 239.392C865.342 229.178 865.615 219.273 865.799 209.063C856.115 209.394 845.484 209.162 835.727 209.129C835.901 219.014 835.779 229.263 835.794 239.178C825.91 239.276 816.025 239.258 806.142 239.125L806.105 209.384C816.02 209.224 825.936 209.132 835.853 209.106C835.722 199.261 835.794 189.245 835.769 179.384C841.818 179.497 860.056 179.881 865.791 179.344Z"/><path fill="#FCFCFC" d="M1194.16 0L1223.94 0L1254 0L1254 30.0186L1254 60.0438C1244.1 59.8718 1233.88 59.9752 1223.95 59.9492L1223.96 89.9516C1214.31 89.7446 1204.07 89.9164 1194.37 89.916C1193.95 80.6053 1194.35 69.6313 1194.3 60.0818L1224.29 60.0545C1223.92 50.4209 1224.07 39.7782 1224.06 30.0877C1215.99 29.5324 1202.72 29.9346 1194.42 29.9308C1194.16 19.9874 1194.43 10.039 1194.16 0Z"/><path fill="#FCFCFC" d="M1254 806.48L1254 836.322L1254 866.329L1254 896.291C1244.11 896.238 1234.23 896.132 1224.34 895.974C1223.96 886.357 1224.06 875.996 1224.02 866.339C1215.32 865.883 1203.56 866.208 1194.51 866.096C1194.28 856.215 1194.18 846.331 1194.22 836.447C1204.17 836.357 1214.08 836.535 1224.04 836.295C1224.18 826.487 1224.06 816.453 1224.04 806.627L1254 806.48Z"/><path fill="#FCFCFC" d="M1134.63 1194.55L1164.43 1194.54L1164.49 1224.03C1174.4 1224.15 1184.37 1223.98 1194.25 1224.14C1194.17 1234.09 1194.21 1244.05 1194.36 1254L1164.49 1254L1134.57 1254L1104.69 1254C1104.43 1244.29 1104.69 1233.94 1104.78 1224.18C1114.71 1224.07 1124.65 1224 1134.58 1223.99L1134.63 1194.55Z"/><path fill="#FCFCFC" d="M1254 388.497L1254 418.219L1254 448.298L1254 478.184L1224.19 478.053C1223.86 468.485 1224.06 457.882 1224.04 448.226L1194.37 448.127C1194.23 438.19 1194.22 428.252 1194.35 418.316C1204.25 418.373 1214.16 418.336 1224.06 418.203C1224.39 409.073 1224.11 398.113 1224.12 388.835L1254 388.497Z"/><path fill="#FCFCFC" d="M1015.12 1194.64C1025.03 1194.55 1034.94 1194.53 1044.84 1194.58C1044.97 1204.42 1044.99 1214.27 1044.89 1224.11C1054.81 1224 1064.72 1224.01 1074.63 1224.16L1074.89 1254L1044.73 1254L1015.05 1254L985.168 1254L985.248 1224.33C995.084 1224.04 1005.22 1224.12 1015.1 1224.01C1015.09 1214.3 1014.96 1204.32 1015.12 1194.64Z"/><path fill="#FCFCFC" d="M0 836.293L29.9687 836.413L29.9544 866.405C39.8784 866.355 49.8026 866.361 59.7266 866.422C60.2175 875.946 59.7812 886.344 59.9747 896.072C50.1182 896.07 39.8987 896.204 30.0737 895.987C29.9981 886.063 30.0064 876.14 30.0988 866.217L0 866.284L0 836.293Z"/><path fill="#FCFCFC" d="M30.0733 627.557C40.0196 627.32 49.9696 627.28 59.9174 627.438L59.9146 657.089C49.9352 657.291 39.953 657.304 29.9731 657.129L29.9814 687.07L0 687.149L0 657.227L30.0653 657.336L30.0733 627.557Z"/><path fill="#FCFCFC" d="M1194.29 1015.87C1204.01 1015.63 1214.2 1015.76 1223.95 1015.73L1223.94 1045.49C1233.68 1045.15 1244.2 1045.28 1254 1045.23L1254 1075.16C1244.06 1075.27 1234.12 1075.27 1224.18 1075.16C1223.85 1065.61 1224.08 1054.85 1224.09 1045.2C1214.21 1045.39 1204.33 1045.38 1194.46 1045.17C1194.06 1036.14 1194.4 1025.2 1194.29 1015.87Z"/><path fill="#FCFCFC" d="M657.007 89.9804C656.988 99.7107 657.187 110.345 656.904 119.999L686.658 119.834C687.273 127.991 686.87 140.949 686.86 149.461C676.928 149.542 666.994 149.515 657.062 149.38C656.919 139.467 656.919 129.554 657.063 119.641L627.002 119.806L626.991 90.0114C636.759 90.0131 647.306 90.2218 657.007 89.9804Z"/><path fill="#FCFCFC" d="M30.0205 687.232C39.9941 687.111 49.9689 687.128 59.942 687.283L89.7088 687.306C89.6516 693.409 89.3378 699.364 89.2188 705.475C89.1438 709.323 89.8078 713.455 89.7069 716.789C79.8836 716.738 69.6372 716.543 59.8536 716.823C51.8682 717.372 38.5718 716.931 30.0268 716.98C30.2487 707.365 30.0309 696.914 30.0205 687.232Z"/><path fill="#FCFCFC" d="M1223.38 686.394C1223.37 677.166 1223.41 667.939 1223.5 658.713C1224.32 661.828 1224.03 682.512 1224.02 687.234L1254 687.124L1254 717.034L1224.17 716.904C1224.05 706.986 1224 697.068 1224.03 687.149C1215.44 687.018 1203.96 687.635 1195.72 686.699C1197.48 686.242 1219.97 686.396 1223.38 686.394Z"/><path fill="#FCFCFC" d="M448.169 179.493C448.117 173.118 447.629 157.062 448.423 151.502C449.707 157.097 448.271 179.104 448.103 185.634C447.904 193.31 448.021 201.396 448.046 209.12C438.785 209.165 427.232 208.85 418.173 209.225L418.141 179.383C428.157 179.605 438.151 179.385 448.169 179.493Z"/><path fill="#FCFCFC" d="M1224.03 1224C1234.02 1224.1 1244.01 1224.09 1254 1223.98L1254 1254L1224.12 1254L1224.03 1224Z"/><path fill="#FCFCFC" d="M1224.02 209.26C1233.97 209.463 1244.27 208.951 1254 209.22L1254 239.28C1244.06 239.312 1234.12 239.262 1224.19 239.131C1224.05 229.174 1224 219.217 1224.02 209.26Z"/><path fill="#FCFCFC" d="M89.7517 329.004C99.7509 328.809 109.753 328.8 119.752 328.977C119.777 338.713 119.933 348.756 119.533 358.456C112.038 359.253 97.6553 358.847 89.8498 358.81C89.7249 348.875 89.6922 338.939 89.7517 329.004Z"/><path fill="#FCFCFC" d="M686.979 1224.29C696.869 1224.05 706.761 1223.97 716.653 1224.03C716.667 1233.5 716.975 1244.68 716.625 1254L686.707 1254C686.63 1244.09 686.721 1234.19 686.979 1224.29Z"/><path fill="#FCFCFC" d="M477.818 0L508.089 0C507.411 6.6841 507.82 22.2763 507.677 29.9651L478.2 29.9287C477.623 20.0971 477.794 9.87888 477.818 0Z"/><path fill="#FCFCFC" d="M537.74 0L567.52 0L567.598 30.0654C557.663 29.9506 547.726 29.9439 537.79 30.0453L537.74 0Z"/><path fill="#FCFCFC" d="M627.021 1224.04C637.004 1224.3 646.958 1223.97 656.902 1224.25L656.952 1254L626.991 1254C626.947 1244.01 626.957 1234.03 627.021 1224.04Z"/><path fill="#FCFCFC" d="M30.0268 716.98L29.9788 746.917C22.1809 746.345 8.25265 746.839 0 746.872L0 717.082C10.0091 717.099 20.0181 717.065 30.0268 716.98Z"/><path fill="#FCFCFC" d="M328.758 955.861L328.645 985.825C318.698 985.729 308.752 985.694 298.805 985.722L298.776 955.905C308.208 955.943 319.473 956.271 328.758 955.861Z"/><path fill="#FCFCFC" d="M746.388 1224.02C754.781 1224.26 767.862 1224.38 776.302 1224.01L776.238 1254L746.442 1254L746.388 1224.02Z"/><path fill="#FCFCFC" d="M0 896.284C10.1756 896.046 19.772 896.199 29.958 896.407L29.9915 926.024L0 925.938L0 896.284Z"/><path fill="#FCFCFC" d="M298.769 328.861C298.748 338.774 298.656 348.78 298.757 358.684C289.514 358.756 277.87 358.431 268.854 358.803C268.805 348.897 268.819 338.991 268.898 329.085C278.156 328.655 289.362 328.9 298.769 328.861Z"/><path fill="#FCFCFC" d="M1254 328.932L1254 358.825L1224.1 358.801C1224.2 348.84 1224.17 338.877 1224.02 328.916L1254 328.932Z"/><path fill="#FCFCFC" d="M955.257 1224.02C955.161 1234.01 955.13 1244.01 955.164 1254L925.281 1254C925.386 1244.01 925.387 1234.03 925.284 1224.04C934.176 1224.23 946.346 1224.35 955.257 1224.02Z"/><path fill="#FCFCFC" d="M507.765 89.994C517.599 89.9968 527.904 90.1618 537.697 89.9752L537.681 119.887C531.347 119.288 514.819 119.849 507.736 119.889L507.765 89.994Z"/><path fill="#FCFCFC" d="M1254 925.906L1254 955.845C1244.07 955.876 1234.14 955.854 1224.21 955.778C1223.92 946.215 1224.08 935.939 1224.06 926.322C1234.04 926.015 1244.02 925.877 1254 925.906Z"/><path fill="#FCFCFC" d="M328.538 926.151C338.56 926 348.584 925.958 358.607 926.025C358.45 935.956 358.4 945.889 358.457 955.821C349.034 955.817 338.048 955.53 328.758 955.861C328.283 945.874 328.528 936.138 328.538 926.151Z"/><path fill="#FCFCFC" d="M1224.08 746.998L1254 746.944L1254 776.854C1244.12 776.838 1234.04 776.935 1224.19 776.466C1223.9 766.981 1224.1 756.556 1224.08 746.998Z"/><path fill="#FCFCFC" d="M0 597.5C9.86917 597.527 20.1544 597.708 29.9888 597.553L29.9519 627.023C19.5388 627.73 10.0147 627.092 0 627.517L0 597.5Z"/><path fill="#FCFCFC" d="M1224.1 269.335C1234.07 269.167 1244.03 269.145 1254 269.267L1254 299.298L1224.26 298.918C1223.93 289.274 1224.1 279.029 1224.1 269.335Z"/><path fill="#FCFCFC" d="M208.958 1224.06C218.752 1224.05 229.009 1223.89 238.763 1224.15L238.865 1254L208.848 1254L208.958 1224.06Z"/><path fill="#FCFCFC" d="M1224.05 985.841L1254 985.822L1254 1015.58C1244.1 1015.63 1234.2 1015.58 1224.3 1015.41C1223.72 1006.87 1224.06 994.622 1224.05 985.841Z"/><path fill="#FCFCFC" d="M29.9788 746.917L59.9642 746.988C59.9408 756.767 60.0495 766.904 59.7945 776.65C50.297 776.855 39.6175 777.041 30.1235 776.64C30.0037 766.733 29.9554 756.825 29.9788 746.917Z"/><path fill="#FCFCFC" d="M478.041 60.1264L507.642 60.0894L507.765 89.994C497.929 89.8664 488.093 89.8491 478.257 89.9419C477.472 79.7588 477.694 70.3219 478.041 60.1264Z"/><path fill="#FCFCFC" d="M60.0224 956.076C69.913 955.926 79.8049 955.879 89.6965 955.937L89.6965 985.788C79.7967 985.727 69.8966 985.731 59.9968 985.802C59.9367 975.974 59.7582 965.875 60.0224 956.076Z"/><path fill="#FCFCFC" d="M388.477 209.38L418.173 209.225C417.944 218.983 418.046 229.084 418.023 238.87C408.342 239.312 398.031 239.214 388.292 239.273C388.289 229.731 387.992 218.758 388.477 209.38Z"/><path fill="#FCFCFC" d="M418.089 149.418L418.141 179.383C409.863 178.837 396.896 179.271 388.268 179.292C388.302 169.414 388.273 159.536 388.182 149.659C398.152 149.688 408.121 149.608 418.089 149.418Z"/><path fill="#FCFCFC" d="M59.9724 567.619C59.6228 576.946 59.9531 587.906 60.0148 597.353C50.0422 597.461 40.0687 597.46 30.0961 597.349C29.9344 587.604 30.0446 577.557 30.0298 567.787C39.9102 567.553 49.9427 567.881 59.9724 567.619Z"/><path fill="#FCFCFC" d="M268.827 926.117C278.792 926.127 288.756 926.226 298.719 926.414C298.732 936.015 298.54 946.371 298.776 955.905C288.787 955.72 278.769 955.997 268.867 955.814C268.799 945.915 268.786 936.016 268.827 926.117Z"/><path fill="#FCFCFC" d="M0 776.68L29.9753 776.914L29.9705 806.309L0 806.4L0 776.68Z"/><path fill="#FCFCFC" d="M537.79 30.0453C537.256 38.3615 537.656 51.2628 537.65 59.9256L508.004 59.927C507.303 51.1532 507.677 39.2417 507.761 30.2049C517.45 29.8711 528.055 30.0452 537.79 30.0453Z"/><path fill="#FCFCFC" d="M657.011 60.024L686.716 60.1155C686.81 70.0454 686.806 79.976 686.704 89.9058C676.853 89.9293 666.842 89.8542 657.007 89.9804C656.904 80.0372 656.996 69.9771 657.011 60.024Z"/><path fill="#FCFCFC" d="M1224.06 1165.05C1231.43 1164.31 1246.09 1164.66 1254 1164.61L1254 1194.38C1244.05 1194.44 1234.1 1194.35 1224.15 1194.1C1224.02 1184.48 1224.09 1174.69 1224.06 1165.05Z"/><path fill="#FCFCFC" d="M597.229 60.1252L626.947 60.1051C627.019 70.0737 627.034 80.0426 626.991 90.0114C617.136 89.8637 607.28 89.8416 597.424 89.9451C597.158 80.0074 597.093 70.0654 597.229 60.1252Z"/><path fill="#FCFCFC" d="M746.347 90.0144C756.242 90.0295 766.279 90.1329 776.161 90.0114C776.214 99.6587 776.45 110.039 776.17 119.626C766.264 119.815 756.356 119.854 746.45 119.745C746.449 111.76 746.91 97.4848 746.347 90.0144Z"/><path fill="#FCFCFC" d="M537.699 149.443C537.591 159.369 537.616 169.296 537.777 179.221L507.899 179.297C507.69 169.348 507.64 159.395 507.749 149.444C516.261 149.57 529.486 149.986 537.699 149.443Z"/><path fill="#FCFCFC" d="M1224.1 627.493L1254 627.312L1254 657.259L1224.17 657.138C1223.87 647.609 1224.09 637.095 1224.1 627.493Z"/><path fill="#FCFCFC" d="M149.78 1224.47C158.677 1223.8 170.038 1223.99 179.093 1224.16C179.188 1233.34 179.557 1244.95 179.159 1254L149.534 1254C149.548 1244.49 149.35 1233.88 149.78 1224.47Z"/><path fill="#FCFCFC" d="M1224.04 508.163L1254 508.172L1254 537.609C1244.39 537.972 1234.13 537.734 1224.46 537.664C1223.79 528.078 1224.02 517.829 1224.04 508.163Z"/><path fill="#FCFCFC" d="M328.685 149.659L358.61 149.53L358.45 179.27C348.834 179.277 338.29 179.058 328.756 179.311C328.288 169.385 328.531 159.586 328.685 149.659Z"/><path fill="#FCFCFC" d="M1254 149.48L1254 179.301L1224.19 179.228C1223.87 169.85 1224.08 159.214 1224 149.715L1254 149.48Z"/><path fill="#FCFCFC" d="M388.199 90.0063L418.082 90.0496C418.093 99.9392 418.001 110.018 418.148 119.89C411.382 119.194 396.557 119.814 388.351 119.544C388.39 109.698 388.339 99.8515 388.199 90.0063Z"/><path fill="#FCFCFC" d="M1194.35 478.301C1204.23 478.174 1214.11 478.157 1223.99 478.251C1224 487.856 1223.75 498.665 1224.04 508.163C1214.18 508.021 1204.32 507.956 1194.47 507.97C1194.31 498.081 1194.27 488.191 1194.35 478.301Z"/><path fill="#FCFCFC" d="M119.648 359.099C129.538 358.709 139.657 358.855 149.573 358.89C149.495 368.83 149.473 378.77 149.508 388.71C139.459 388.396 129.67 388.574 119.746 388.313C119.337 378.804 119.575 368.667 119.648 359.099Z"/><path fill="#FCFCFC" d="M89.8498 358.81C89.6609 368.506 89.7935 378.529 89.8032 388.252C79.8951 388.603 69.9777 388.611 60.069 388.278C59.6972 378.682 59.8932 368.528 59.9344 358.88C69.4086 358.9 80.5055 359.196 89.8498 358.81Z"/><path fill="#FCFCFC" d="M567.646 59.9829C567.259 67.6608 567.204 82.1799 567.557 89.9868C559.352 89.47 546.268 89.9194 537.697 89.9752L537.806 60.1403C547.513 59.8768 558.088 60.5397 567.646 59.9829Z"/><path fill="#FCFCFC" d="M418.102 1015.84L447.993 1015.6L448.064 1045.2L418.213 1045.24C418.146 1035.94 417.792 1025.01 418.102 1015.84Z"/><path fill="#FCFCFC" d="M865.68 149.678C869.756 149.608 892.711 149.107 895.39 149.821L895.47 179.227C885.748 179.228 875.465 179.066 865.791 179.344C865.519 169.458 865.482 159.566 865.68 149.678Z"/><path fill="#FCFCFC" d="M716.668 1194.52C726.565 1194.27 736.466 1194.26 746.363 1194.48L746.388 1224.02C736.525 1223.89 726.66 1223.87 716.797 1223.95C716.345 1215.29 716.276 1203.21 716.668 1194.52Z"/><path fill="#FCFCFC" d="M567.546 1224C577.339 1224.1 587.134 1224.13 596.927 1224.09L597.064 1254L567.599 1254C567.687 1244 567.669 1234 567.546 1224Z"/><path fill="#FCFCFC" d="M1194.19 299.585C1202.31 298.684 1215.64 299.152 1224 299.279C1224 308.973 1223.81 319.275 1224.02 328.916C1214.13 328.77 1204.23 328.719 1194.33 328.764C1194.29 319.636 1194.56 308.599 1194.19 299.585Z"/><path fill="#FCFCFC" d="M418.148 119.89L447.895 119.857L447.895 149.358L418.089 149.418L418.148 119.89Z"/><path fill="#FCFCFC" d="M537.681 119.887C547.457 119.851 557.841 119.646 567.561 119.987L567.497 149.392C557.565 149.482 547.632 149.499 537.699 149.443C537.768 139.591 537.762 129.739 537.681 119.887Z"/><path fill="#FCFCFC" d="M1194.19 956.42C1196.65 955.443 1220 955.909 1223.94 955.939L1224.05 985.841L1194.28 985.726C1194.29 976.168 1194.49 965.92 1194.19 956.42Z"/><path fill="#FCFCFC" d="M238.924 1194.6C248.849 1194.51 258.774 1194.5 268.698 1194.59C268.717 1203.91 268.453 1214.86 268.813 1224.04C258.875 1223.88 248.937 1223.83 238.998 1223.92C238.801 1214.14 238.776 1204.37 238.924 1194.6Z"/><path fill="#FCFCFC" d="M477.979 120.072C487.872 119.803 497.77 119.776 507.664 119.991L507.749 149.444C497.944 149.377 487.953 149.53 478.19 149.336C477.77 139.579 477.914 129.836 477.979 120.072Z"/><path fill="#FCFCFC" d="M298.839 299.28L328.705 299.25C328.701 309.013 328.818 319.072 328.478 328.801L298.769 328.861C298.785 319.119 298.655 308.988 298.839 299.28Z"/><path fill="#FCFCFC" d="M238.948 299.359C248.88 299.288 258.812 299.302 268.744 299.403L268.696 328.753C259.116 328.783 248.407 328.565 238.929 328.855C238.851 319.023 238.858 309.191 238.948 299.359Z"/><path fill="#FCFCFC" d="M1194.29 179.554L1223.96 179.469C1223.98 189.18 1223.79 199.614 1224.02 209.26C1214.71 209.172 1203.38 209.488 1194.35 208.999C1194.16 199.421 1194.73 188.81 1194.29 179.554Z"/><path fill="#FCFCFC" d="M567.598 30.0654C577.385 30.0349 587.172 30.0593 596.958 30.1387L597.049 59.9396C587.248 59.8839 577.447 59.8983 567.646 59.9829C567.927 50.579 567.621 39.5966 567.598 30.0654Z"/><path fill="#FCFCFC" d="M895.637 1194.62C905.386 1194.58 915.438 1194.68 925.159 1194.5C925.28 1204.35 925.322 1214.19 925.284 1224.04C915.404 1223.89 905.522 1223.86 895.641 1223.94C895.21 1214.79 895.329 1203.84 895.637 1194.62Z"/><path fill="#FCFCFC" d="M1224.1 358.801C1223.79 368.43 1223.97 378.759 1223.98 388.443C1214.05 388.293 1204.27 388.875 1194.35 388.268C1194.4 378.52 1194.37 368.773 1194.27 359.026C1204.09 358.818 1214.19 358.954 1224.1 358.801Z"/><path fill="#FCFCFC" d="M597.16 120.056C606.995 119.792 617.14 119.858 627.002 119.806L627.023 149.406C621.768 149.478 601.812 149.988 597.279 148.945L597.16 120.056Z"/><path fill="#FCFCFC" d="M537.74 1194.53C547.538 1194.51 557.761 1194.65 567.522 1194.45C567.509 1203.57 567.156 1215.08 567.546 1224C557.626 1223.91 547.706 1223.89 537.787 1223.94L537.74 1194.53Z"/><path fill="#FCFCFC" d="M597.168 1194.59C607.094 1194.54 617.02 1194.55 626.946 1194.62C627.022 1204.43 627.047 1214.24 627.021 1224.04C617.098 1223.87 607.173 1223.82 597.249 1223.92L597.168 1194.59Z"/><path fill="#FCFCFC" d="M955.301 1194.56C964.958 1194.56 975.47 1194.77 985.049 1194.53C985.111 1204.33 985.123 1214.13 985.085 1223.94C975.89 1223.94 964.248 1223.6 955.257 1224.02L955.301 1194.56Z"/><path fill="#FCFCFC" d="M776.301 1194.46C786.174 1194.57 796.047 1194.6 805.92 1194.57C806.012 1204.36 806.009 1214.15 805.912 1223.94C796.783 1223.94 785.227 1223.61 776.302 1224.01C776.412 1214.16 776.412 1204.31 776.301 1194.46Z"/><path fill="#FCFCFC" d="M1194.25 1194.91C1197.61 1194.07 1219.38 1194.52 1223.92 1194.56L1224.03 1224L1194.4 1223.94C1194.33 1215.7 1194.78 1202.6 1194.25 1194.91Z"/><path fill="#FCFCFC" d="M567.557 89.9868L597.122 90.0694L596.932 119.437C587.01 119.811 577.652 119.739 567.713 119.64C567.618 110.521 567.987 98.7266 567.557 89.9868Z"/><path fill="#FCFCFC" d="M1254 567.919L1254 597.297L1224.22 597.297C1223.69 589.114 1224.09 576.364 1224.08 567.919L1254 567.919Z"/><path fill="#084357" d="M560.849 212.868C570.971 209.598 579.893 206.642 590.365 204.512C631.033 196.1 673.351 201.729 710.407 220.478C761.751 246.735 799.201 297.541 805.859 355.189C846.909 357.627 880.308 372.82 907.942 403.902C933.589 432.648 946.739 470.419 944.491 508.876C941.899 547.483 923.961 583.446 894.68 608.74C877.505 623.659 856.932 634.136 834.765 639.252C815.013 643.636 794.687 642.201 774.518 642.378C748.835 642.603 722.95 642.104 697.27 642.37C679.947 670.337 661.121 701.304 642.808 728.482L692.741 728.502C707.645 728.47 737.63 723.94 735.925 746.699C735.628 750.275 734.294 753.688 732.088 756.519C728.02 761.757 711.702 775.117 705.699 780.45L628.531 849.186C624.928 852.383 598.539 875.391 596.753 877.642C568.309 902.27 540.549 927.807 512.3 952.66C502.861 960.965 490.101 976.374 476.172 971.359C462.534 965.957 465.885 955.061 470.036 944.486C490.276 892.931 514.916 841.965 533.933 790.029C519.196 789.726 456.134 791.698 447.1 788.579C441.412 786.615 438.516 782.7 435.94 777.55C433.483 768.931 438.035 760.446 442.508 753.346C448.957 743.105 455.592 732.981 462.073 722.76L512.814 642.483C467.653 641.184 429.321 648.613 387.845 627.818C375.202 621.553 363.588 613.398 353.402 603.634C326.127 577.285 310.279 541.285 309.267 503.375C308.363 464.437 323.152 426.771 350.307 398.849C376.122 371.621 411.741 355.829 449.252 354.98C453.808 321.576 464.558 296.231 484.933 269.536C482.756 269.461 480.307 269.175 478.113 268.975C477.707 258.953 477.814 249.376 477.91 239.36C487.779 239.241 497.647 239.015 507.511 238.684L507.728 209.305C517.483 209.156 527.24 209.096 536.996 209.126C538.31 210.265 537.415 210.872 538.128 213.59C538.26 211.822 537.959 211.202 538.895 210.196C541.478 209.771 560.922 209.883 564.882 209.928C563.487 212.86 564.263 208.993 560.849 212.868Z"/><path fill="#FCFCFC" d="M507.728 209.305C517.483 209.156 527.24 209.096 536.996 209.126C538.31 210.265 537.415 210.872 538.128 213.59C538.26 211.822 537.959 211.202 538.895 210.196C541.478 209.771 560.922 209.883 564.882 209.928C563.487 212.86 564.263 208.993 560.849 212.868L560.051 213.341C556.922 215.164 552.404 217 549.04 218.519C523.392 230.097 502.745 247.752 484.933 269.536C482.756 269.461 480.307 269.175 478.113 268.975C477.707 258.953 477.814 249.376 477.91 239.36C487.779 239.241 497.647 239.015 507.511 238.684L507.728 209.305Z"/><path fill="#FCFCFC" d="M624.202 232.33C699.467 229.31 770.66 288.164 776.184 364.654C777.568 383.817 785.183 385.367 802.426 385.324C871.453 385.149 925.554 451.313 913.422 518.969C905.69 567.302 864.523 608.178 815.428 613.113C802.679 614.395 787.316 613.84 774.371 613.858L710.968 613.781C701.217 613.723 689.344 611.907 681.653 618.078C680.288 619.16 679.084 620.429 678.076 621.848C674.707 626.664 670.484 634.049 667.296 639.174L644.744 675.413C634.111 692.461 622.868 709.615 612.748 726.969C611.03 730.141 609.674 733.378 609.611 737.063C609.239 758.908 633.234 755.707 647.252 755.663C662.041 755.475 676.832 755.517 691.62 755.788C672.043 773.646 651.683 791.108 631.895 808.772L511.049 917.065C516.43 904.061 521.882 891.087 527.406 878.143L552.47 817.798C556.891 807.124 563.792 792.316 566.466 781.134C566.925 776.549 565.246 771.46 562.229 768.134C557.195 762.586 549.719 762.62 542.712 762.526C536.294 762.44 529.615 762.511 523.083 762.523C504.885 762.654 486.687 762.618 468.489 762.416C478.971 746.898 489.181 729.983 499.268 714.074L551.397 632.064L580.445 586.663C586.307 577.542 606.92 552.972 592.411 544.43C576.137 534.849 567.512 555.852 560.541 566.791L530.69 613.607C513.084 613.752 495.476 613.802 477.869 613.757C437.594 613.788 409.683 614.731 376.682 585.008C353.932 564.347 340.306 535.506 338.796 504.811C337.659 474.372 348.463 444.693 368.904 422.109C387.437 401.855 412.629 388.934 439.89 385.7C471.537 382.033 477.103 392.764 480.1 353.036C481.288 337.283 492.764 312.427 501.438 299.316C529.811 256.431 573.488 234.732 624.202 232.33Z"/><path fill="#FCFCFC" d="M388.25 717.135C388.115 727.107 388.082 737.079 388.151 747.051C398.131 746.86 408.114 746.826 418.096 746.947C418.219 756.92 418.238 766.894 418.154 776.867C421.806 776.777 433.49 776.023 435.94 777.55C438.516 782.7 441.412 786.615 447.1 788.579C456.134 791.698 519.196 789.726 533.933 790.029C514.916 841.965 490.276 892.931 470.036 944.486C465.885 955.061 462.534 965.957 476.172 971.359C490.101 976.374 502.861 960.965 512.3 952.66C540.549 927.807 568.309 902.27 596.753 877.642C597.907 880.565 596.918 892.381 596.933 896.402C607.001 896.329 617.07 896.313 627.138 896.356C626.977 886.371 626.963 876.385 627.095 866.4C637.086 866.345 647.077 866.345 657.067 866.398C656.908 856.401 656.919 846.402 657.101 836.405L686.93 836.373C686.666 832.16 687.147 808.707 686.344 807.23C684.854 806.242 684.983 806.239 683.21 806.184C684.491 806.015 685.045 805.886 686.212 805.332L686.591 804.574C686.83 804.739 689.387 806.505 689.392 806.505C698.061 806.527 708.242 806.552 716.754 806.573L716.541 836.229C706.652 836.339 696.762 836.351 686.873 836.263L686.788 866.449C696.76 866.284 706.735 866.261 716.709 866.38L716.709 896.114L686.736 896.114C686.892 906.038 686.885 915.964 686.714 925.888C676.831 926.035 666.947 926.007 657.065 925.805C656.889 915.902 656.885 905.996 657.053 896.092L626.967 896.196C627.072 906.089 627.088 915.983 627.015 925.877L597.328 925.841C597.128 935.918 596.995 945.996 596.929 956.075C606.118 955.997 618.101 956.303 626.993 955.829L626.991 985.815C618.316 985.38 606.297 985.736 597.353 985.691C596.973 975.939 597.135 965.475 597.154 955.705L567.535 955.822L567.579 985.875C557.581 985.682 547.628 985.816 537.645 985.71L537.68 1015.72C529.102 1015.17 517.075 1015.56 508.038 1015.44C507.261 1008.15 507.701 993.641 507.747 985.737C497.852 985.795 487.958 985.791 478.064 985.723C477.872 995.527 477.959 1005.68 477.91 1015.51L447.895 1015.51L447.895 985.749L418.223 985.808C418.073 995.684 418.135 1005.72 418.108 1015.6C408.203 1015.62 398.156 1015.73 388.274 1015.28L388.213 985.824C379.391 985.389 367.719 985.717 358.673 985.7C358.103 976.494 358.465 965.384 358.583 956.022L388.188 955.875C388.575 946.75 388.276 935.414 388.289 926.117L358.694 926.117C358.365 915.941 358.462 906.294 358.589 896.104L388.3 896.102L388.292 866.381L448.207 866.411C448.18 875.677 448.043 885.192 448.371 894.427C448.814 893.125 448.516 869.909 448.519 866.723L476.574 866.646C469.025 866.006 456.154 866.401 448.207 866.411C448.193 862.855 447.856 839.486 448.577 836.959L450.282 836.274L448.934 836.048C447.424 834.082 448.134 810.617 448.176 806.298C438.185 806.426 428.192 806.427 418.2 806.303C417.967 797.393 418.545 785.253 417.852 776.801C407.951 776.886 398.05 776.85 388.151 776.693L388.125 806.389L358.673 806.338C357.991 797.768 358.446 785.581 358.58 776.926C368.486 776.73 378.396 776.737 388.302 776.948L388.271 746.65C378.41 746.823 368.548 746.84 358.686 746.699C358.322 737.192 358.523 726.703 358.528 717.118C368.306 716.936 378.444 717.101 388.25 717.135Z"/><path fill="#FCFCFC" d="M268.917 687.254L298.739 687.097L298.72 717.182L328.749 716.998L328.657 746.699C336.425 746.683 351.341 746.277 358.453 747.202L358.449 776.759C348.811 776.786 338.284 777.025 328.718 776.755C328.762 786.604 328.724 796.454 328.605 806.303L298.816 806.42C298.728 816.449 298.698 826.479 298.725 836.508C307.085 836.417 320.906 836.853 328.748 836.347C328.638 846.287 328.801 856.313 328.629 866.213C318.765 866.208 308.625 866.087 298.786 866.306C298.508 875.86 298.729 886.509 298.717 896.151C289.245 896.499 278.328 896.25 268.746 896.256L268.718 925.94L238.911 925.888C238.762 917.154 238.523 904.852 239.253 896.363C249.114 896.088 258.938 896.39 268.836 896.113C268.771 886.129 268.766 876.144 268.82 866.16C259.199 866.429 248.724 866.248 239.036 866.271C238.79 856.406 238.906 846.187 238.897 836.292L209.106 836.2C208.677 826.991 208.934 816.057 208.929 806.719C218.969 806.579 229.011 806.53 239.052 806.573C238.708 797.09 238.957 786.28 238.962 776.698C229.055 776.875 219.146 776.869 209.24 776.68C208.707 766.9 208.911 756.622 208.957 746.787C199.211 746.835 189.071 747.025 179.372 746.557C179.279 736.752 179.246 726.946 179.272 717.141C189.063 716.95 199.163 717.116 208.98 717.161C209.232 727.099 209.227 737.042 208.966 746.98C218.934 746.837 228.903 746.848 238.87 747.013C238.771 752.943 238.806 757.751 239.123 763.666C239.534 758.797 239.391 752.602 239.411 747.624C245.62 747.652 263.034 748.104 268.017 747.016C258.901 746.607 248.279 746.839 239.049 746.829C238.622 737.294 238.852 726.729 238.879 717.109C248.898 716.988 258.918 717.042 268.935 717.27C268.754 707.266 268.748 697.259 268.917 687.254Z"/><path fill="#FCFCFC" d="M1015.05 956.12L1044.89 956.12L1044.89 985.877L1074.91 985.866L1074.91 1015.81C1084.83 1015.71 1094.75 1015.7 1104.67 1015.77C1104.58 1025.6 1104.58 1035.43 1104.69 1045.26C1114.16 1045.37 1125.28 1045.59 1134.65 1045.25C1134.38 1055.37 1134.72 1065.28 1134.55 1075.3L1164.29 1075.34L1164.29 1104.82C1156.19 1104.87 1148.09 1105.04 1140 1105.35C1144.79 1106.1 1158.58 1105.84 1163.99 1105.82C1163.99 1110.37 1163.42 1130.39 1164.3 1133.49C1164.47 1124.66 1164.6 1114.04 1164.39 1105.18C1174.48 1104.92 1184.15 1105.07 1194.18 1104.98C1194.18 1114.73 1194.29 1124.76 1194.04 1134.49C1186.87 1135.43 1172.19 1135.05 1164.49 1134.96L1164.45 1164.77C1174.36 1164.7 1184.27 1164.69 1194.17 1164.74C1194.24 1174.52 1194.22 1184.31 1194.13 1194.09C1184.75 1194.46 1173.83 1194.64 1164.46 1194.08C1164.47 1185.35 1164.89 1173 1164.42 1164.57L1134.65 1164.6L1134.58 1194.15C1124.71 1194.36 1114.84 1194.41 1104.98 1194.29C1104.11 1187.11 1104.58 1172.26 1104.67 1164.7L1074.91 1164.48L1074.91 1135.09C1084.87 1134.85 1094.83 1134.89 1104.78 1135.21C1104.41 1125.17 1104.64 1114.93 1104.77 1104.86L1074.88 1104.9C1074.37 1096.18 1074.82 1084.06 1074.93 1075.1C1064.93 1075.22 1054.92 1075.23 1044.92 1075.14C1044.56 1065.39 1044.79 1054.99 1044.85 1045.18C1034.97 1045.33 1025.08 1045.32 1015.2 1045.15C1014.86 1035.33 1015.01 1025.39 1015.07 1015.55C1005.21 1015.34 995.289 1015.53 985.285 1015.3L985.148 985.821C995.152 985.952 1005.16 985.95 1015.16 985.815C1015.06 975.917 1015.02 966.018 1015.05 956.12Z"/><path fill="#FCFCFC" d="M776.339 717.065C785.333 716.991 797.226 716.669 805.938 717.496C806.143 727.309 806.125 737.124 805.883 746.936C815.853 746.853 825.824 746.857 835.795 746.948L835.818 776.702L865.829 776.702C865.327 767.05 865.536 756.542 865.735 746.89C875.6 746.83 885.465 746.841 895.33 746.924C895.514 756.869 895.482 766.817 895.233 776.761C886.508 776.362 874.677 776.732 865.715 776.698C865.807 786.619 865.771 796.541 865.608 806.462L895.328 806.649C895.439 816.503 895.439 826.357 895.33 836.21C885.459 836.354 875.586 836.35 865.716 836.199L865.708 866.41L895.355 866.342C895.448 876.287 895.461 886.232 895.393 896.177L865.718 896.189C865.709 906.03 865.85 916.296 865.641 926.102L835.864 925.903C835.73 916.051 835.721 906.199 835.838 896.347C845.784 895.98 855.882 896.162 865.846 896.243C865.533 885.966 865.622 876.448 865.794 866.155L835.865 866.279C835.707 856.282 835.685 846.283 835.799 836.285C827.721 836.311 813.564 836.785 805.987 836.089L805.929 806.389L776.332 806.326C776.326 799.742 775.921 782.398 776.728 776.693L746.517 776.702C746.272 766.745 746.338 756.782 746.714 746.828L776.156 746.974C776.144 753.071 776.057 762.06 776.689 767.916C777.166 761.501 777.004 754.124 777.015 747.624C785.17 747.694 793.326 747.614 801.478 747.383C799.382 746.807 779.648 746.641 776.406 746.587C776.167 736.892 776.297 726.776 776.339 717.065Z"/><path fill="#FCFCFC" d="M1104.72 388.823L1134.51 388.649L1134.59 418.227C1143.87 418.339 1155.34 418.636 1164.5 418.242L1164.46 448.211C1174.35 448.306 1184.24 448.338 1194.14 448.305C1194.24 457.95 1194.51 468.514 1194.18 478.12C1185.29 478.125 1173.22 477.745 1164.53 478.162C1164.21 487.578 1164.48 498.465 1164.48 507.996C1154.7 508.151 1144.56 507.997 1134.75 507.98C1134.42 498.299 1134.59 487.952 1134.59 478.218C1127.81 477.62 1112.24 478.128 1104.81 478.147C1104.5 468.282 1104.67 458.117 1104.72 448.224L1075.06 448.082C1074.6 438.97 1074.9 427.607 1074.91 418.327L1105.01 418.333C1104.25 410.087 1104.64 397.42 1104.72 388.823Z"/><path fill="#FCFCFC" d="M925.313 836.307L925.234 866.4C935.223 866.333 945.213 866.327 955.203 866.381L955.163 896.152C948.89 896.207 941.01 896.067 934.886 896.646L934.85 896.747C941.424 897.023 948.004 897.116 954.583 897.026C954.589 902.966 954.211 919.837 954.853 924.907C955.779 918.108 955.337 903.785 955.296 896.363C964.865 896.249 975.664 895.898 985.12 896.341C985.091 905.556 984.745 916.807 985.157 925.894C975.156 926.054 965.155 926.128 955.154 926.116L955.167 955.8L925.528 955.824C925.342 965.814 925.258 975.805 925.274 985.797C915.942 985.507 905.052 985.785 895.522 985.689C895.244 976.08 895.457 965.725 895.489 956.06C905.495 955.958 915.502 955.943 925.507 956.017C925.294 945.957 925.281 935.894 925.469 925.833C915.525 926.271 905.568 926.302 895.622 925.924C894.953 917.479 895.381 904.921 895.622 896.357C905.573 896.145 915.526 896.06 925.479 896.102C925.178 886.321 925.353 875.977 925.371 866.151L895.649 866.225C895.141 856.613 895.472 846.129 895.594 836.435C905.501 836.454 915.407 836.412 925.313 836.307Z"/><path fill="#FCFCFC" d="M1164.51 269.371C1174.4 269.241 1184.29 269.208 1194.17 269.273L1194.07 298.93C1184.22 299.052 1174.37 299.072 1164.52 298.99C1164.49 308.426 1164.17 319.552 1164.49 328.848C1174.43 329.032 1184.39 328.687 1194.26 328.899L1194.08 358.698C1184.24 358.89 1174.39 358.935 1164.54 358.835C1164.21 368.096 1164.46 378.985 1164.44 388.376C1154.5 388.558 1144.55 388.537 1134.61 388.314C1134.43 378.696 1134.62 368.526 1134.64 358.866C1127.09 358.38 1112.49 358.68 1104.69 358.848C1104.61 348.846 1104.58 338.843 1104.62 328.84C1114.63 328.948 1124.64 328.954 1134.65 328.857C1134.63 319.104 1134.51 309.129 1134.65 299.395C1144.63 299.038 1154.62 298.937 1164.61 299.093C1164.39 289.188 1164.36 279.278 1164.51 269.371Z"/><path fill="#FCFCFC" d="M268.777 418.239C268.654 428.223 268.652 438.209 268.769 448.194C278.747 448.364 288.727 448.406 298.705 448.322L298.723 478.081C289.271 478.075 278.073 477.777 268.763 478.152C268.45 487.612 268.69 498.452 268.672 508.023L238.937 508.041C238.804 498.057 238.814 488.071 238.967 478.087C229.036 478.165 219.105 478.155 209.174 478.055C208.557 469.112 208.891 457.326 209.133 448.331L238.854 448.22L238.912 418.296C248.867 418.353 258.822 418.334 268.777 418.239Z"/><path fill="#FCFCFC" d="M985.185 388.821L1014.95 388.641L1015.1 418.252C1025.01 418.38 1034.92 418.395 1044.83 418.295L1044.89 448.121L1015.07 448.218C1015.03 458.182 1015.05 468.146 1015.13 478.11L985.195 478.178C985.593 469.186 985.214 457.414 985.189 448.21L955.222 448.106L955.304 418.341L985.176 418.247C985.274 408.439 985.277 398.63 985.185 388.821Z"/><path fill="#FCFCFC" d="M299.033 567.753C298.38 571.714 298.744 592.46 298.717 597.673C308.642 597.538 318.569 597.476 328.495 597.489L328.495 627.083C318.564 627.339 308.628 627.411 298.694 627.3L298.722 657.056C288.777 657.287 278.829 657.282 268.885 657.041C268.749 647.172 268.763 637.302 268.925 627.434C278.902 627.282 288.88 627.232 298.858 627.284C298.724 617.339 298.712 607.392 298.822 597.447L268.888 597.43C268.805 587.524 268.781 577.619 268.815 567.713L299.033 567.753Z"/><path fill="#FCFCFC" d="M358.708 836.43C368.399 836.237 378.407 836.386 388.124 836.416L388.164 866.099L358.589 866.099L358.472 896.178C348.562 896.253 338.651 896.25 328.741 896.167C328.772 900.241 329.323 923.38 328.055 925.988L298.897 926.062C298.783 916.158 298.756 906.253 298.815 896.348C308.805 896.122 318.799 896.115 328.79 896.328C328.091 887.148 328.522 875.812 328.692 866.44C338.691 866.315 348.692 866.311 358.692 866.428C358.058 857.045 358.483 845.828 358.708 836.43Z"/><path fill="#FCFCFC" d="M835.828 1045.32C835.692 1055.28 835.692 1065.25 835.826 1075.21C826.82 1074.83 815.117 1075.19 805.897 1075.21C806.055 1085.08 806.072 1094.95 805.948 1104.81C795.826 1104.99 786.384 1105.1 776.266 1104.87L776.162 1134.73C766.438 1135.21 756.244 1134.99 746.475 1134.89C746.388 1125 746.367 1115.11 746.41 1105.21C756.268 1104.95 766.568 1105.12 776.461 1105.14L776.264 1075.3L806.195 1075.33C805.578 1066.77 805.958 1054.35 806.007 1045.49C815.774 1045.23 826.037 1045.33 835.828 1045.32Z"/><path fill="#FCFCFC" d="M805.987 1105.04C815.946 1105.16 825.906 1105.18 835.865 1105.09C835.738 1115.1 835.746 1125.12 835.891 1135.13C845.479 1135.08 855.97 1134.83 865.487 1135.11L865.487 1164.25C855.505 1164.67 845.827 1164.61 835.85 1164.58C835.71 1154.71 835.703 1144.84 835.828 1134.98C825.909 1135.06 815.989 1135 806.071 1134.8C805.671 1144.14 805.93 1155.04 805.936 1164.5C796.093 1164.61 786.25 1164.6 776.408 1164.49L776.306 1135.06C786.275 1134.96 796.244 1134.94 806.212 1134.99C805.602 1126.81 806.024 1113.63 805.987 1105.04Z"/><path fill="#FCFCFC" d="M895.502 239.353C905.42 239.186 915.34 239.19 925.258 239.367L925.225 269.319C935.204 269.094 945.188 269.101 955.166 269.341C955.234 279.192 955.2 289.044 955.063 298.895C945.17 299.334 935.262 299.337 925.369 298.904L925.306 269.056C915.829 269.44 905.295 269.257 895.736 269.279C895.081 259.821 895.373 248.83 895.502 239.353Z"/><path fill="#FCFCFC" d="M1104.79 627.42L1134.53 627.36L1134.51 657.038C1125.2 657.336 1113.5 656.663 1104.61 657.336C1104.63 664.745 1105.14 679.815 1104.41 686.385L1103.42 687.017C1096.58 687.203 1081.18 687.546 1074.92 686.78C1074.26 681.408 1074.72 663.699 1074.73 657.421C1084.61 657.128 1094.8 657.29 1104.71 657.332C1104.53 647.362 1104.55 637.389 1104.79 627.42Z"/><path fill="#FCFCFC" d="M746.459 955.934L746.407 985.831L716.758 985.69C716.492 995.437 716.555 1005.66 716.465 1015.44C706.609 1015.62 696.751 1015.6 686.896 1015.37C686.492 1005.68 686.787 995.68 686.945 985.959L716.901 985.867C716.136 977.727 716.53 964.554 716.569 956.027C726.151 955.741 736.746 955.979 746.459 955.934Z"/><path fill="#FCFCFC" d="M746.505 866.39C756.366 866.316 766.229 866.334 776.09 866.446L776.09 896.102L746.362 896.102C746.416 904.272 746.876 918.072 746.185 925.887C736.348 926.172 726.505 926.152 716.669 925.826C716.326 916.327 716.578 905.928 716.635 896.358C726.578 896.103 736.526 896.059 746.472 896.228L746.505 866.39Z"/><path fill="#FCFCFC" d="M657.049 1015.82C666.979 1015.76 676.909 1015.75 686.838 1015.8C686.797 1025.56 686.638 1035.59 686.788 1045.33C691.826 1045.31 712.771 1044.93 716.557 1045.73C716.635 1055.53 716.656 1065.33 716.622 1075.13C706.725 1075.23 696.827 1075.23 686.93 1075.14C686.631 1065.14 686.62 1055.13 686.897 1045.13C676.938 1045.26 666.978 1045.3 657.018 1045.25C656.951 1035.44 656.962 1025.63 657.049 1015.82Z"/><path fill="#FCFCFC" d="M1164.5 209.395C1174.39 209.196 1184.29 209.195 1194.19 209.392C1194.32 219.307 1194.28 229.223 1194.07 239.136C1184.14 239.321 1174.22 239.316 1164.29 239.121L1164.29 268.859C1160.24 269.506 1140.03 269.093 1134.72 269.054C1134.36 259.75 1134.61 249.126 1134.63 239.723C1142.61 239.864 1156.25 239.384 1164.55 239.134C1164.36 229.335 1164.49 219.22 1164.5 209.395Z"/><path fill="#FCFCFC" d="M776.335 985.793L776.228 1015.85C786.115 1015.8 796.085 1015.68 805.966 1015.75C806.327 1025.24 806.005 1035.55 805.873 1045.11C796.015 1045.28 786.155 1045.32 776.296 1045.24C776.383 1035.38 776.387 1025.52 776.307 1015.66C766.357 1015.71 756.406 1015.59 746.459 1015.31L746.407 985.831C756.082 985.846 766.739 986.084 776.335 985.793Z"/><path fill="#FCFCFC" d="M179.351 836.523C189.198 836.418 199.045 836.384 208.893 836.421C209.548 845.069 209.125 857.477 208.865 866.341L238.816 866.378C238.689 876.272 238.696 886.166 238.838 896.06L209.108 896.125L209.108 866.061C199.183 866.329 189.252 866.311 179.328 866.009L179.351 836.523Z"/><path fill="#FCFCFC" d="M1134.61 985.774C1134.58 995.164 1134.91 1006.69 1134.46 1015.86C1144.45 1015.7 1154.44 1015.68 1164.44 1015.8L1164.44 1045.14C1154.03 1045.36 1144.93 1045.28 1134.65 1045.25L1134.64 1015.5L1104.74 1015.6C1104.63 1005.7 1104.63 995.806 1104.73 985.908L1134.61 985.774Z"/><path fill="#FCFCFC" d="M179.336 1075.32L208.881 1075.33C209.258 1085.24 209.287 1095.15 208.969 1105.06C218.58 1104.81 229.09 1105.11 238.768 1105.22L238.875 1134.66C228.567 1134.69 219.543 1134.93 209.104 1134.62C208.674 1125.03 208.911 1114.52 208.953 1104.85C198.939 1104.98 189.415 1105.09 179.412 1104.78C179.039 1095.07 179.249 1085.07 179.336 1075.32Z"/><path fill="#FCFCFC" d="M865.724 985.826C875.636 985.887 885.547 985.895 895.459 985.851L895.406 1015.38C885.616 1015.48 875.485 1015.7 865.727 1015.49L865.683 1045.14C856.259 1045.18 845.132 1044.95 835.828 1045.32C835.761 1035.46 835.747 1025.6 835.785 1015.75L865.856 1015.78C865.424 1005.66 865.593 995.94 865.724 985.826Z"/><path fill="#FCFCFC" d="M985.233 567.842C994.984 567.787 1005.34 567.563 1015.04 567.9C1015.09 576.234 1015.51 589.26 1014.86 597.132C1005.22 597.704 994.819 597.426 985.136 597.325C985.227 607.193 985.107 617.24 985.086 627.123C975.158 627.333 965.227 627.365 955.297 627.22L955.294 597.759C965.289 597.591 975.286 597.534 985.282 597.59L985.233 567.842Z"/><path fill="#FCFCFC" d="M716.709 657.297C725.39 657.795 737.549 657.378 746.366 657.315L746.398 687.048C736.564 687.261 726.444 687.066 716.584 686.987L716.52 717.029C706.752 716.853 696.69 717.083 686.897 717.194C686.74 707.189 686.775 697.183 687.001 687.179C696.513 686.908 707.144 687.192 716.738 687.247L716.709 657.297Z"/><path fill="#FCFCFC" d="M179.322 1135.1C189.077 1134.83 199.035 1135.13 208.907 1134.89C209.31 1144.31 209.092 1155.01 209.1 1164.53C199.098 1164.63 189.095 1164.61 179.093 1164.47C179.135 1169.45 179.582 1190 178.666 1194.06C168.904 1194.37 159.457 1194.3 149.686 1194.23C149.12 1185.56 149.454 1173.54 149.493 1164.77L179.377 1164.65L179.322 1135.1Z"/><path fill="#FCFCFC" d="M209.108 567.919L238.487 567.919C238.384 577.713 238.769 587.83 238.816 597.702C248.774 597.569 258.734 597.545 268.692 597.631L268.722 627.09C260.131 627.619 247.696 627.385 239.005 627.076C238.65 617.506 238.859 606.944 238.866 597.297L209.108 597.297L209.108 567.919Z"/><path fill="#FCFCFC" d="M567.579 985.875C577.335 985.88 587.229 985.796 596.971 985.913C596.986 995.836 597.113 1005.98 596.989 1015.88L626.966 1015.73L627.048 1045.29L597.268 1045.19C597.096 1035.32 597.056 1025.45 597.15 1015.58L567.688 1015.45C567.358 1006.1 567.597 995.331 567.579 985.875Z"/><path fill="#FCFCFC" d="M835.785 955.907C845.721 955.907 855.761 955.83 865.687 955.951L865.724 985.826C856.133 985.508 845.497 985.753 835.827 985.785C835.794 975.85 835.695 965.834 835.785 955.907Z"/><path fill="#FCFCFC" d="M657.018 1045.25L656.957 1075.14L627.062 1075.22L627.048 1045.29C636.507 1045.33 647.649 1045.6 657.018 1045.25Z"/><path fill="#FCFCFC" d="M238.885 538.007C248.853 537.78 258.824 537.735 268.794 537.872C268.689 547.819 268.697 557.767 268.815 567.713C258.914 567.629 248.729 567.946 238.899 567.612C238.767 557.744 238.763 547.875 238.885 538.007Z"/><path fill="#FCFCFC" d="M448.073 30.0934C458 30.0299 467.927 30.0398 477.854 30.123L477.994 59.9781L448.121 59.9248C447.721 50.306 447.977 39.7469 448.073 30.0934Z"/><path fill="#FCFCFC" d="M955.287 478.247C965.256 478.132 975.226 478.109 985.195 478.178C984.753 487.19 985.099 498.918 985.165 508.096L955.285 508.077C955.419 498.217 955.172 488.21 955.287 478.247Z"/><path fill="#FCFCFC" d="M328.465 806.6C338.409 806.564 348.7 806.668 358.613 806.475C358.409 816.407 358.482 826.279 358.32 836.194C349.009 836.27 337.864 835.996 328.748 836.347C328.29 826.458 328.424 816.504 328.465 806.6Z"/><path fill="#FCFCFC" d="M507.762 1045.31L537.691 1045.25L537.651 1075.11C527.687 1075.22 517.723 1075.24 507.76 1075.16L507.762 1045.31Z"/><path fill="#FCFCFC" d="M1104.72 926.157C1115.24 925.869 1124.11 926.049 1134.6 926.308C1134.56 936.067 1134.39 946.215 1134.58 955.941C1124.67 955.793 1114.76 955.755 1104.84 955.825C1104.65 945.776 1104.47 936.196 1104.72 926.157Z"/><path fill="#FCFCFC" d="M776.296 1045.24C776.251 1055.13 776.338 1065.32 776.143 1075.17L746.431 1075.23L746.499 1045.33L776.296 1045.24Z"/><path fill="#FCFCFC" d="M1134.63 836.421L1164.52 836.357C1164.24 845.92 1164.44 856.554 1164.42 866.205C1154.53 866.253 1144.64 866.244 1134.75 866.176C1134.39 856.518 1134.6 846.14 1134.63 836.421Z"/><path fill="#FCFCFC" d="M1134.58 955.941C1144.45 955.925 1154.63 956.038 1164.47 955.853C1164.45 965.628 1164.61 975.98 1164.4 985.703L1134.61 985.774L1134.58 955.941Z"/><path fill="#FCFCFC" d="M746.431 1075.23L746.305 1104.85L716.715 1104.99C716.629 1107.12 716.499 1108.81 716.259 1110.93C715.616 1110.09 715.811 1107.17 715.784 1105.82C713.867 1105.86 711.922 1105.7 710.004 1105.59C712.621 1105.23 714.246 1105.11 716.723 1104.26L716.709 1075.33L746.431 1075.23Z"/><path fill="#FCFCFC" d="M985.208 717.037C984.876 726.668 985.099 737.182 985.133 746.882C975.2 746.805 965.266 746.807 955.333 746.888C955.112 737.182 955.284 726.831 955.275 717.074L985.208 717.037Z"/><path fill="#FCFCFC" d="M925.264 328.798C935.144 328.985 945.467 328.678 955.202 328.956L955.115 358.762C945.264 358.883 935.411 358.864 925.56 358.705C925.31 349.392 925.805 337.421 925.264 328.798Z"/><path fill="#FCFCFC" d="M328.553 687.318C338.431 687.221 348.668 687.021 358.523 687.318L358.335 716.95L328.749 716.998C328.268 707.463 328.51 696.943 328.553 687.318Z"/><path fill="#FCFCFC" d="M955.311 956.065C965.262 955.905 975.215 955.866 985.167 955.947C985.112 965.802 984.926 975.997 985.148 985.821C975.274 985.723 965.4 985.694 955.527 985.736C954.819 978.009 955.284 964.294 955.311 956.065Z"/><path fill="#FCFCFC" d="M126.285 299.089C134.143 298.89 141.728 299.134 149.58 299.344C149.404 307.717 150.075 320.339 149.258 328.277C147.659 329.017 144.415 328.8 142.514 328.808C134.942 328.837 127.371 328.809 119.8 328.724C119.436 323.569 119.192 304.506 119.883 300.022C121.715 298.973 124.095 299.156 126.285 299.089Z"/><path fill="#FCFCFC" d="M59.9886 806.433C59.8781 816.399 59.8714 826.365 59.9686 836.33C50.2754 836.087 39.9331 836.268 30.1914 836.275C30.0553 826.444 30.014 816.612 30.0676 806.781C39.3255 806.21 50.4665 806.582 59.9886 806.433Z"/><path fill="#FCFCFC" d="M966.36 657.313C972.494 657.19 978.973 657.264 985.128 657.246L985.139 687.021L972.799 687.021L955.298 687.072L955.299 657.36L966.36 657.313Z"/><path fill="#FCFCFC" d="M388.28 806.675C398.058 806.449 408.211 806.554 418.019 806.526C418.202 816.423 418.228 826.323 418.098 836.221C408.166 836.336 398.233 836.333 388.301 836.212C388.235 826.366 388.228 816.521 388.28 806.675Z"/><path fill="#FCFCFC" d="M657.026 985.792C656.674 994.983 656.975 1006.12 656.976 1015.46C647.024 1015.64 637.069 1015.6 627.118 1015.33C626.861 1005.7 627.007 995.489 626.991 985.815C637.002 985.943 647.015 985.935 657.026 985.792Z"/><path fill="#FCFCFC" d="M716.596 836.451C726.431 836.225 736.529 836.428 746.428 836.313L746.319 866.136C736.937 866.489 726.207 866.239 716.724 866.23C716.25 856.737 716.515 846.028 716.596 836.451Z"/><path fill="#FCFCFC" d="M925.32 747.065C935.149 746.773 945.33 746.877 955.168 746.918C955.215 756.885 955.187 766.853 955.083 776.82C945.326 776.832 935.09 776.997 925.387 776.575L925.32 747.065Z"/><path fill="#FCFCFC" d="M388.314 687.318C397.815 687.256 408.703 687.459 418.08 687.103C418.222 697.056 418.213 707.012 418.053 716.965C408.491 716.941 397.708 716.687 388.25 717.135C388.331 707.196 388.352 697.257 388.314 687.318Z"/><path fill="#FCFCFC" d="M969.759 537.899C974.948 537.649 979.915 537.833 985.094 537.971L985.02 567.632L973.105 567.737C967.249 567.841 961.262 567.678 955.396 567.584C955.147 557.902 955.312 547.863 955.351 538.15L969.759 537.899Z"/><path fill="#FCFCFC" d="M268.848 508.212C278.692 507.962 288.804 508.147 298.673 508.22C298.825 517.784 298.988 527.934 298.499 537.457C292.656 538.245 275.144 537.774 268.897 537.58C268.782 527.791 268.766 518.001 268.848 508.212Z"/><path fill="#FCFCFC" d="M179.472 418.39C187.926 418.291 201.005 417.875 209.096 418.567C209.17 428.395 209.083 438.225 208.836 448.051C199.022 448.206 189.206 448.233 179.391 448.133C179.315 438.297 179.144 428.196 179.472 418.39Z"/><path fill="#FCFCFC" d="M627.074 926.035L656.933 926.368L656.885 955.797L626.993 955.829C626.992 946.012 626.853 935.819 627.074 926.035Z"/><path fill="#FCFCFC" d="M1104.69 747.006C1114.59 746.847 1124.68 746.915 1134.59 746.886L1134.55 776.702L1105.05 776.627C1104.15 769.59 1104.61 754.663 1104.69 747.006Z"/><path fill="#FCFCFC" d="M627.062 1075.22C627.108 1085.08 627.091 1094.93 627.01 1104.79C617.282 1105.18 607.157 1104.95 597.389 1104.85C596.777 1096.06 597.165 1084.35 597.261 1075.33C607.195 1075.38 617.129 1075.35 627.062 1075.22Z"/><path fill="#FCFCFC" d="M746.475 806.588L776.229 806.504L776.246 836.23C766.307 836.35 756.367 836.378 746.428 836.313L746.475 806.588Z"/><path fill="#FCFCFC" d="M835.826 1075.21C845.645 1075.5 855.838 1075.35 865.69 1075.33L865.715 1104.89C856.906 1104.94 844.44 1104.6 835.865 1105.09C835.53 1095.33 835.755 1085.03 835.826 1075.21Z"/><path fill="#FCFCFC" d="M1194.33 239.387C1204.2 239.124 1214.08 239.127 1223.95 239.396C1224.07 249.229 1224.05 259.062 1223.87 268.894C1214.6 269.527 1203.74 269.249 1194.45 269.026C1194.19 259.438 1194.38 249.071 1194.33 239.387Z"/><path fill="#FCFCFC" d="M865.187 299.233L865.536 299.486C865.938 304.856 865.924 323.594 865.407 328.729C856.007 329.025 846.075 328.771 836.629 328.669C835.036 327.444 835.782 303.293 835.824 299.368L865.187 299.233Z"/><path fill="#FCFCFC" d="M835.797 717.151L865.715 717.064L865.653 746.686C855.736 746.869 845.817 746.875 835.9 746.703C835.592 737.179 835.794 726.744 835.797 717.151Z"/><path fill="#FCFCFC" d="M1104.76 687.243C1114.62 687.067 1124.74 687.165 1134.62 687.151C1134.65 697.083 1134.62 707.014 1134.52 716.945L1104.79 716.927C1104.43 707.114 1104.65 697.079 1104.76 687.243Z"/><path fill="#FCFCFC" d="M686.821 955.877L686.772 985.708L657.026 985.792L657.037 956.05C666.714 955.796 677.058 955.952 686.821 955.877Z"/><path fill="#FCFCFC" d="M59.9686 836.33C69.974 836.507 79.9823 836.429 89.9837 836.097C89.8402 835.531 89.7023 863.562 89.6965 865.033L88.9947 865.916C81.3221 866.563 68.1685 866.13 60.0866 866.099C59.8552 856.178 59.8159 846.253 59.9686 836.33Z"/><path fill="#FCFCFC" d="M925.274 985.797L955.206 985.844C955.2 995.429 954.936 1006.25 955.22 1015.73C947.219 1015.04 934.552 1015.71 925.356 1015.29C925.451 1005.46 925.424 995.628 925.274 985.797Z"/><path fill="#FCFCFC" d="M59.9796 597.591C69.8948 597.531 79.8103 597.556 89.725 597.665L89.837 627.048C79.9275 627.326 69.9565 627.594 60.0648 626.979C59.8124 617.185 59.784 607.386 59.9796 597.591Z"/><path fill="#FCFCFC" d="M149.635 1105.22C159.476 1104.99 169.32 1104.92 179.163 1105.01C179.268 1114.9 179.216 1124.79 179.009 1134.68C168.962 1134.86 160.033 1135.01 149.939 1134.82C149.111 1126.55 149.535 1113.62 149.635 1105.22Z"/><path fill="#FCFCFC" d="M865.801 269.41C875.682 269.2 885.566 269.206 895.446 269.429C895.455 279.249 895.389 289.07 895.249 298.889C886.421 299.422 874.906 298.966 865.871 298.842C865.127 290.44 865.642 278.165 865.801 269.41Z"/><path fill="#FCFCFC" d="M925.505 627.342C935.206 627.498 945.4 627.324 955.142 627.312L955.17 657.072C945.478 657.479 935.249 657.23 925.505 657.138L925.505 627.342Z"/><path fill="#FCFCFC" d="M805.965 985.943C815.814 985.764 825.916 985.895 835.827 985.785L835.78 1015.43C825.95 1015.61 816.118 1015.62 806.287 1015.47C805.494 1008.4 805.921 993.685 805.965 985.943Z"/><path fill="#FCFCFC" d="M1105.02 508.2C1114.85 508.129 1124.68 508.146 1134.52 508.251C1134.67 518.069 1134.66 527.89 1134.49 537.708C1124.63 537.827 1114.77 537.783 1104.91 537.577C1104.74 527.577 1104.47 518.2 1105.02 508.2Z"/><path fill="#FCFCFC" d="M925.356 806.66L955.141 806.468C955.167 816.269 955.024 826.586 955.241 836.341C946.13 835.959 934.592 836.27 925.313 836.307C925.377 826.425 925.391 816.543 925.356 806.66Z"/><path fill="#FCFCFC" d="M955.261 1134.97C965.216 1134.93 975.171 1134.96 985.125 1135.07C985.118 1144.86 985.011 1154.83 985.124 1164.61L955.21 1164.62L955.261 1134.97Z"/><path fill="#FCFCFC" d="M746.42 209.41C756.309 209.207 766.201 209.196 776.09 209.378L776.09 239.099C766.321 239.12 756.162 239.288 746.438 238.838L746.42 209.41Z"/><path fill="#FCFCFC" d="M1164.5 985.935C1174.15 985.701 1184.51 985.875 1194.21 985.861C1194.29 995.741 1194.23 1005.62 1194.05 1015.5C1184.12 1015.6 1174.51 1015.73 1164.58 1015.31C1164.3 1005.78 1164.48 995.524 1164.5 985.935Z"/><path fill="#FCFCFC" d="M895.555 777.044C905.241 776.626 915.595 776.793 925.311 776.82C925.376 786.644 925.33 796.47 925.173 806.293C915.456 806.545 905.411 806.382 895.665 806.341C895.171 796.658 895.427 786.754 895.555 777.044Z"/><path fill="#FCFCFC" d="M239.311 657.373L268.688 657.332L268.691 686.954C259.007 687.193 248.968 687.023 239.253 686.979C238.602 679.55 238.554 664.787 239.311 657.373Z"/><path fill="#FCFCFC" d="M268.818 388.844C278.787 388.59 288.76 388.49 298.732 388.544L298.745 418.139C289.177 418.301 277.886 417.851 268.777 418.239L268.818 388.844Z"/><path fill="#FCFCFC" d="M1194.31 537.916L1223.95 537.959L1223.94 567.622L1194.34 567.67L1194.31 537.916Z"/><path fill="#FCFCFC" d="M746.506 926.382C756.367 926.204 766.228 926.116 776.09 926.117C776.148 936.009 776.148 945.902 776.09 955.795C767.275 955.826 755.023 955.474 746.459 955.934C746.441 946.175 746.3 936.114 746.506 926.382Z"/><path fill="#FCFCFC" d="M89.911 388.807L119.649 388.677L119.738 418.036C110.712 418.628 98.9103 418.273 89.8363 418.151C89.5997 408.516 89.8234 398.476 89.911 388.807Z"/><path fill="#FCFCFC" d="M955.21 1164.62L955.173 1194.29C945.269 1194.41 935.363 1194.37 925.459 1194.17C925.11 1184.78 925.321 1174.19 925.323 1164.77L955.21 1164.62Z"/><path fill="#FCFCFC" d="M627.017 1164.67L656.977 1164.69L656.978 1194.22C647.047 1194.37 637.048 1194.54 627.122 1194.06C626.957 1184.27 626.922 1174.47 627.017 1164.67Z"/><path fill="#FCFCFC" d="M1194.3 717.133C1204.17 717.001 1214.04 716.994 1223.91 717.112C1223.97 721.298 1224.6 744.848 1223.15 746.744C1213.6 746.819 1204.04 746.789 1194.49 746.654C1194.01 737.618 1194.3 726.337 1194.3 717.133Z"/><path fill="#FCFCFC" d="M1134.62 657.328L1164.46 657.304C1164.51 667.214 1164.45 677.124 1164.28 687.033C1154.39 687.133 1144.51 687.172 1134.62 687.151L1134.62 657.328Z"/><path fill="#FCFCFC" d="M835.85 1164.58L835.855 1194.22C825.952 1194.46 816.045 1194.42 806.145 1194.11C805.657 1184.92 805.937 1174.08 805.965 1164.76C815.927 1164.76 825.889 1164.7 835.85 1164.58Z"/><path fill="#FCFCFC" d="M955.22 1015.73C965.17 1015.84 975.121 1015.81 985.071 1015.65L985.138 1045.22C975.26 1045.29 965.136 1045.48 955.282 1045.26C955.285 1036.06 955.606 1024.75 955.22 1015.73Z"/><path fill="#FCFCFC" d="M1104.76 567.919L1134.59 567.919C1134.62 577.697 1134.59 587.475 1134.48 597.252C1125.01 597.63 1114.36 597.422 1104.8 597.431C1104.4 587.494 1104.61 577.848 1104.76 567.919Z"/><path fill="#FCFCFC" d="M955.27 358.987L985.124 358.898C985.167 368.708 985.118 378.519 984.979 388.328C974.742 388.518 965.47 388.663 955.262 388.25L955.27 358.987Z"/><path fill="#FCFCFC" d="M537.68 1015.72C545.286 1015.85 559.984 1016.07 567.533 1015.56C567.541 1025.27 567.366 1035.57 567.567 1045.23L537.691 1045.25C537.796 1035.41 537.792 1025.56 537.68 1015.72Z"/><path fill="#FCFCFC" d="M746.401 1164.71L776.235 1164.7C776.235 1174.27 776.455 1184.72 776.213 1194.21C766.306 1194.45 756.395 1194.42 746.49 1194.11C746.481 1185.23 746.828 1173.39 746.401 1164.71Z"/><path fill="#FCFCFC" d="M209.108 926.167C219.001 926.079 228.895 926.146 238.786 926.367L238.874 955.776L209.12 955.823C208.883 945.939 208.879 936.051 209.108 926.167Z"/><path fill="#FCFCFC" d="M567.567 1045.23C577.368 1045.34 587.169 1045.36 596.97 1045.3L597.075 1075.13L567.63 1075.24C567.936 1065.91 567.599 1054.71 567.567 1045.23Z"/><path fill="#FCFCFC" d="M686.749 926.159L716.496 926.301C716.556 935.757 716.851 946.445 716.496 955.8C706.799 955.822 696.459 955.654 686.821 955.877L686.749 926.159Z"/><path fill="#FCFCFC" d="M925.311 388.67C935.249 388.703 945.187 388.657 955.125 388.533L955.161 418.144C945.316 418.36 935.467 418.379 925.621 418.2C924.951 410.676 925.331 396.675 925.311 388.67Z"/><path fill="#FCFCFC" d="M895.476 1015.81C905.155 1015.57 915.525 1015.72 925.261 1015.69C925.29 1025.51 925.261 1035.32 925.173 1045.14C915.352 1045.34 905.528 1045.35 895.707 1045.16C895.278 1035.57 895.452 1025.46 895.476 1015.81Z"/><path fill="#FCFCFC" d="M955.329 1075.3L985.098 1075.34C985.108 1085.03 985.044 1094.73 984.907 1104.43C982.01 1105.53 959.652 1104.8 955.304 1104.66L955.329 1075.3Z"/><path fill="#FCFCFC" d="M59.9757 776.969L89.9807 776.814L89.6616 806.33C80.1999 806.352 69.3275 806.104 59.9886 806.433C59.8494 796.613 59.8451 786.79 59.9757 776.969Z"/><path fill="#FCFCFC" d="M835.876 657.383C845.226 657.698 856.275 657.371 865.685 657.315L865.715 687.07L835.895 687.043C835.771 677.157 835.765 667.269 835.876 657.383Z"/><path fill="#FCFCFC" d="M238.943 1135.04L268.717 1135.15L268.714 1164.52C258.8 1164.63 248.886 1164.64 238.972 1164.55C238.66 1154.98 238.892 1144.67 238.943 1135.04Z"/><path fill="#FCFCFC" d="M1074.91 597.578L1104.65 597.626C1104.55 606.141 1105.16 618.828 1104.41 626.994C1095.06 627.669 1084.39 627.453 1075.02 627.046C1074.61 617.999 1074.91 606.789 1074.91 597.578Z"/><path fill="#FCFCFC" d="M746.505 687.318L776.09 687.318L776.09 716.945L746.48 716.962C746.393 707.081 746.401 697.199 746.505 687.318Z"/><path fill="#FCFCFC" d="M955.293 299.373C965.24 299.262 975.187 299.23 985.135 299.278C985.208 309.072 985.087 318.992 985.047 328.797L955.35 328.779C955.113 319.237 955.297 308.972 955.293 299.373Z"/><path fill="#FCFCFC" d="M776.39 896.318C786.285 896.147 796.034 895.974 805.927 896.352C806.207 906.274 806.005 916.086 805.855 926.004L776.394 925.839C776.294 915.999 776.293 906.158 776.39 896.318Z"/><path fill="#FCFCFC" d="M149.555 746.867L179.093 746.969C179.126 754.201 179.587 770.013 178.827 776.632C169.166 776.808 159.502 776.805 149.842 776.623C149.177 767.878 149.529 755.875 149.555 746.867Z"/><path fill="#FCFCFC" d="M1164.5 388.843C1175.09 388.585 1183.64 388.493 1194.13 388.761C1194.24 398.55 1194.24 408.339 1194.11 418.128L1164.5 418.242C1164.5 408.539 1164.64 398.517 1164.5 388.843Z"/><path fill="#FCFCFC" d="M895.566 299.366C905.305 299.199 915.57 298.864 925.274 299.439C925.308 308.615 924.962 319.816 925.264 328.798L895.601 328.791C895.455 318.983 895.443 309.174 895.566 299.366Z"/><path fill="#FCFCFC" d="M955.241 836.341C964.195 836.387 976.591 836.781 985.207 836.302C984.859 846.008 985.078 856.338 985.133 866.099L955.292 866.099C955.326 856.179 955.309 846.26 955.241 836.341Z"/><path fill="#FCFCFC" d="M1104.69 358.848C1104.19 366.875 1104.63 379.906 1104.65 388.311C1094.76 388.532 1084.87 388.537 1074.98 388.324C1074.58 379.489 1074.92 367.942 1074.91 358.895C1084.84 358.946 1094.76 358.93 1104.69 358.848Z"/><path fill="#FCFCFC" d="M776.375 956.12C785.774 956.081 796.653 955.709 805.936 955.939C806.017 965.865 806.029 975.791 805.972 985.718C796.152 985.726 786.138 985.632 776.335 985.793L776.375 956.12Z"/><path fill="#FCFCFC" d="M776.401 239.423C786.164 239.075 796.105 239.289 805.887 239.396C806.017 247.564 806.424 260.952 805.7 268.836C796.374 269.469 785.448 268.506 776.418 269.439L776.401 239.423Z"/><path fill="#FCFCFC" d="M477.992 1015.82C487.879 1015.68 497.767 1015.68 507.654 1015.83L507.713 1045.2L478.201 1045.26C477.665 1035.45 477.596 1025.63 477.992 1015.82Z"/><path fill="#FCFCFC" d="M1074.91 299.357C1084.65 299.313 1094.91 299.111 1104.61 299.387L1104.62 328.84C1094.8 328.715 1084.98 328.685 1075.16 328.748C1074.68 319.231 1074.88 308.946 1074.91 299.357Z"/><path fill="#FCFCFC" d="M1074.91 478.322C1084.82 478.235 1094.73 478.207 1104.65 478.236L1104.67 507.901L1074.91 507.901L1074.91 478.322Z"/><path fill="#FCFCFC" d="M1194.3 120.004C1203.92 119.718 1214.28 119.865 1223.96 119.829L1223.97 149.392C1214.11 149.493 1204.24 149.484 1194.38 149.362C1194.08 139.72 1194.26 129.683 1194.3 120.004Z"/><path fill="#FCFCFC" d="M149.59 1045.38L179.093 1045.32L179.093 1075.13C169.429 1075.34 159.262 1075.19 149.559 1075.19L149.59 1045.38Z"/><path fill="#FCFCFC" d="M1134.63 597.674C1144.52 597.568 1154.41 597.544 1164.29 597.605L1164.29 627.115C1154.53 627.462 1144.44 627.283 1134.65 627.228C1134.46 617.559 1134.63 607.383 1134.63 597.674Z"/><path fill="#FCFCFC" d="M985.136 806.718L1014.89 806.718L1014.89 835.931C1005.72 836.699 994.581 836.229 985.207 836.302C985.312 826.672 985.369 816.329 985.136 806.718Z"/><path fill="#FCFCFC" d="M865.694 926.257C875.611 926.239 885.528 926.276 895.444 926.368L895.332 955.763C885.487 955.849 875.641 955.854 865.795 955.776C865.403 946.106 865.587 935.935 865.694 926.257Z"/><path fill="#FCFCFC" d="M985.286 1164.76C995.003 1164.72 1005.23 1165 1014.89 1164.58L1014.89 1194.22C1005.67 1194.44 994.35 1194.44 985.271 1194.06L985.286 1164.76Z"/><path fill="#FCFCFC" d="M149.715 687.318L179.093 687.318L179.093 716.965L149.706 716.949C149.297 707.397 149.542 696.931 149.715 687.318Z"/><path fill="#FCFCFC" d="M716.709 1134.9L746.385 1135.07C746.388 1144.82 746.233 1155 746.401 1164.71C736.645 1164.4 726.501 1164.57 716.709 1164.6L716.709 1134.9Z"/><path fill="#FCFCFC" d="M179.337 896.277C188.804 896.536 199.332 896.321 208.926 896.406C209.286 905.953 209.092 916.303 208.875 925.845L179.386 925.873L179.337 896.277Z"/><path fill="#FCFCFC" d="M358.633 119.907C368.311 119.722 378.436 119.864 388.15 119.855L388.129 149.396L358.693 149.428C358.256 140.218 358.345 129.111 358.633 119.907Z"/><path fill="#FCFCFC" d="M1164.47 806.718L1194.2 806.718C1194.21 816.524 1194.29 826.441 1194.18 836.237C1184.98 836.285 1173.51 835.978 1164.52 836.357L1164.47 806.718Z"/><path fill="#FCFCFC" d="M179.325 956.12L208.937 956.12C209.461 964.726 209.14 976.971 208.998 985.745L179.397 985.731C179.098 976.179 179.31 965.738 179.325 956.12Z"/><path fill="#FCFCFC" d="M358.555 299.354C368.428 299.23 378.302 299.237 388.174 299.375L388.096 328.741C378.278 328.907 368.457 328.876 358.64 328.646C358.255 319.444 358.531 308.673 358.555 299.354Z"/><path fill="#FCFCFC" d="M567.722 149.596C577.499 149.63 587.276 149.612 597.053 149.543L596.938 179.253L567.717 179.23C567.425 169.441 567.632 159.409 567.722 149.596Z"/><path fill="#FCFCFC" d="M597.309 1135.11C607.087 1134.79 617.129 1134.99 626.934 1135.07C627.045 1144.94 627.073 1154.8 627.017 1164.67C617.715 1164.45 607.937 1164.99 598.836 1164.24L597.309 1164.12L597.309 1135.11Z"/><path fill="#FCFCFC" d="M179.276 1194.43C189.07 1194.69 199.204 1194.56 209.027 1194.55C209.153 1204.35 209.107 1214.14 208.889 1223.94L179.382 1223.95C179.253 1214.11 179.217 1204.27 179.276 1194.43Z"/><path fill="#FCFCFC" d="M179.249 1015.83C189.068 1015.71 199.03 1015.8 208.862 1015.8C209.42 1024.51 209.074 1036.18 209.051 1045.12C199.33 1045.42 189.102 1045.24 179.338 1045.21L179.249 1015.83Z"/><path fill="#FCFCFC" d="M985.31 687.318L1014.89 687.318L1014.89 716.968C1005.94 716.968 993.897 716.594 985.208 717.037L985.31 687.318Z"/><path fill="#FCFCFC" d="M119.787 1194.65L149.461 1194.53C149.53 1202 149.995 1216.84 149.203 1223.93L119.679 1223.95C119.12 1215.37 119.58 1203.3 119.787 1194.65Z"/><path fill="#FCFCFC" d="M567.63 1075.24C567.184 1084.08 567.501 1095.83 567.504 1104.9L538.097 1104.85C537.391 1095.46 537.742 1084.85 537.838 1075.32C547.769 1075.38 557.699 1075.35 567.63 1075.24Z"/><path fill="#FCFCFC" d="M418.209 1075.52L447.895 1075.52L447.895 1104.85L418.247 1104.9C417.797 1096.08 418.171 1084.53 418.209 1075.52Z"/><path fill="#FCFCFC" d="M1194.32 597.651C1204.11 597.497 1214.12 597.587 1223.93 597.572L1223.95 627.1C1214.33 627.486 1204.14 627.28 1194.46 627.231L1194.32 597.651Z"/><path fill="#FCFCFC" d="M149.715 926.273C159.411 926.213 169.43 926.019 179.093 926.358L179.093 955.766C169.3 955.847 159.507 955.856 149.715 955.791L149.715 926.273Z"/><path fill="#FCFCFC" d="M567.61 1164.92L596.996 1164.92C597.07 1174.64 597.036 1184.36 596.893 1194.08C587.045 1194.52 577.528 1194.36 567.686 1194.24C567.486 1184.59 567.61 1174.6 567.61 1164.92Z"/><path fill="#FCFCFC" d="M985.247 328.896L986.196 329.202C986.803 330.528 986.463 354.783 986.523 358.2L985.884 358.405C984.754 356.337 985.24 333.064 985.247 328.896Z"/></svg>