<?xml version="1.0" encoding="utf-8" ?><svg xmlns="http://www.w3.org/2000/svg" xmlns:xlink="http://www.w3.org/1999/xlink" width="1254" height="1254" viewBox="0 0 1254 1254"><path fill="#F5F5F4" d="M0 0L25.9962 0L52.0621 0L78.1073 0L104.131 0L130.4 0L156.567 0L182.522 0L208.715 0L234.76 0L260.838 0L286.774 0L312.971 0L339.351 0L365.526 0L391.71 0L417.83 0L443.556 0L469.615 0L495.832 0L521.869 0L548.452 0L574.154 0L600.254 0L626.927 0L652.417 0L678.734 0L756.853 0L782.825 0L808.957 0L835.12 0L861.013 0L887.096 0L913.375 0L939.408 0L965.649 0L1044.04 0L1070.16 0L1096.52 0L1122.49 0L1148.64 0L1175.04 0L1200.79 0L1227.05 0L1254 0L1254 26.1898L1254 52.2055L1254 78.462L1254 104.741L1254 130.914L1254 157.047L1254 183.301L1254 209.709L1254 235.853L1254 262.155L1254 288.272L1254 314.412L1254 340.919L1254 367.109L1254 393.112L1254 419.463L1254 445.721L1254 471.796L1254 497.739L1254 523.609L1254 549.723L1254 575.743L1254 601.835L1254 628.01L1254 654.136L1254 680.007L1254 706.186L1254 732.273L1254 758.159L1254 784.381L1254 810.573L1254 836.522L1254 862.747L1254 888.766L1254 915.187L1254 940.944L1254 967.024L1254 993.197L1254 1019.33L1254 1045.27L1254 1071.35L1254 1097.24L1254 1123.44L1254 1149.31L1254 1175.64L1254 1201.41L1254 1227.92L1254 1254L1226.98 1254L1200.74 1254L1174.8 1254L1148.56 1254L1122.39 1254L1096.49 1254L1070.2 1254L1043.92 1254L1017.95 1254L991.491 1254L965.467 1254L939.317 1254L913.455 1254L887.095 1254L860.848 1254L835.07 1254L808.872 1254L782.725 1254L756.708 1254L730.554 1254L704.64 1254L678.578 1254L652.445 1254L626.518 1254L600.39 1254L574.248 1254L547.955 1254L521.85 1254L495.655 1254L469.634 1254L443.664 1254L417.636 1254L391.741 1254L365.439 1254L339.189 1254L313.005 1254L287.054 1254L260.904 1254L234.631 1254L208.484 1254L182.527 1254L156.446 1254L130.335 1254L104.266 1254L78.2754 1254L52.0798 1254L26.2039 1254L0 1254L0 1227.8L0 1201.73L0 1175.62L0 1149.33L0 1123.42L0 1097.23L0 1071.26L0 1045.31L0 1019.49L0 993.158L0 966.89L0 941.011L0 915.053L0 888.634L0 862.72L0 836.67L0 810.507L0 784.333L0 758.206L0 732.182L0 706.25L0 680.184L0 653.957L0 628.176L0 601.927L0 575.858L0 497.761L0 471.539L0 445.59L0 419.416L0 393.16L0 367.18L0 340.633L0 314.406L0 288.395L0 262.147L0 235.735L0 209.813L0 183.183L0 157.218L0 130.666L0 104.701L0 78.5677L0 52.1476L0 26.0482L0 0Z"/><path fill="#FAFAFA" d="M1254 471.796L1254 497.739L1254 523.609L1254 549.723L1254 575.743L1254 601.835L1254 628.01L1254 654.136L1254 680.007L1254 706.186L1254 732.273L1254 758.159L1254 784.381L1254 810.573L1254 836.522L1254 862.747L1254 888.766L1254 915.187L1254 940.944L1254 967.024L1254 993.197L1254 1019.33L1254 1045.27L1254 1071.35L1254 1097.24L1254 1123.44L1254 1149.31L1254 1175.64L1254 1201.41L1254 1227.92L1254 1254L1226.98 1254L1200.74 1254L1174.8 1254L1148.56 1254L1122.39 1254L1096.49 1254L1070.2 1254L1043.92 1254L1017.95 1254L991.491 1254L965.467 1254L939.317 1254L913.455 1254L887.095 1254L860.848 1254L835.07 1254L808.872 1254L782.725 1254L756.708 1254L730.554 1254L704.64 1254L678.578 1254L652.445 1254L626.518 1254L626.54 1227.77C617.484 1227.73 609.455 1228 600.213 1227.77L600.189 1201.9C609.007 1201.82 617.826 1201.79 626.645 1201.83C626.487 1193.14 626.446 1184.45 626.522 1175.75L652.357 1175.76L652.224 1201.94L678.636 1201.78C678.433 1193.2 678.579 1184.32 678.619 1175.71C669.925 1175.73 661.232 1175.69 652.539 1175.6C652.071 1167.53 652.324 1157.86 652.36 1149.64C661.232 1149.35 670.004 1149.49 678.879 1149.57C678.163 1141.89 678.583 1131.23 678.75 1123.44C669.978 1123.51 661.207 1123.48 652.436 1123.35C652.159 1114.89 652.31 1105.72 652.299 1097.2C644.225 1097.24 636.176 1097.39 628.117 1096.92C634.729 1096.4 646.088 1097.22 651.314 1096.4L651.637 1094.27L652.32 1094.49C652.283 1096.08 652.18 1095.52 652.706 1097.03C656.847 1097.64 673.663 1097.3 678.747 1097.29C678.753 1106.06 678.703 1114.82 678.6 1123.59C687.117 1123.39 696.069 1123.54 704.622 1123.55C704.01 1115.65 704.387 1105.25 704.545 1097.3C713.234 1097.19 721.923 1097.16 730.613 1097.2C730.419 1088.79 730.603 1079.68 730.61 1071.21C721.92 1071.39 713.227 1071.43 704.536 1071.3C704.59 1079.94 704.547 1088.58 704.408 1097.22C695.827 1097.29 687.247 1097.27 678.667 1097.16C678.337 1088.8 678.532 1079.64 678.563 1071.22C669.901 1071.41 661.234 1071.41 652.572 1071.2C652.167 1063.42 652.427 1053.46 652.417 1045.52C661.192 1045.37 669.969 1045.36 678.745 1045.48C678.866 1054.12 678.84 1062.77 678.666 1071.42L704.538 1071.31C704.337 1062.92 704.48 1053.95 704.465 1045.52L730.674 1045.39C730.239 1037.53 730.499 1027.54 730.498 1019.52C721.819 1019.46 713.14 1019.34 704.463 1019.17L704.463 993.232L678.746 993.258L678.746 967.175C687.332 966.868 695.926 966.872 704.511 967.188C704.034 959.557 704.352 948.884 704.358 941.032C695.849 941.1 687.34 941.092 678.832 941.01L678.751 967.267C670.012 967.327 661.324 967.439 652.587 967.173C651.993 958.482 652.178 949.75 652.205 941.029C661.051 940.927 669.897 940.936 678.742 941.057C678.225 932.854 678.404 923.434 678.667 915.236L652.426 915.336C652.11 906.486 652.228 897.61 652.271 888.753C643.454 888.839 635.371 888.922 626.576 888.474C626.148 880.39 626.389 870.973 626.43 862.767C620.678 862.677 605.005 863.804 601.87 861.976C599.156 858.596 600.319 847.841 600.411 842.965C658.932 845.958 700.343 841.161 755.143 821.898C764.269 818.248 773.232 814.203 782.006 809.775C787.505 807.023 792.901 804.071 798.184 800.925C865.643 760.785 905.473 703.482 924.624 627.925C929.523 627.967 934.554 627.947 939.438 628.072L939.378 653.981C948.112 653.904 956.846 653.881 965.581 653.913C965.407 645.349 965.414 636.782 965.601 628.219C974.168 628.184 982.985 628.042 991.53 628.176C991.619 636.794 991.659 645.412 991.65 654.031C1000.07 654.016 1009.84 654.251 1018.14 653.963C1018.05 645.24 1017.76 636.82 1018.06 628.085C1009.26 628.178 1000.45 628.142 991.654 627.976C991.38 619.588 991.52 610.448 991.491 602.004C1000.23 601.748 1009.42 601.917 1018.2 601.954C1017.69 594.175 1017.99 583.979 1018.02 575.999C1026.57 575.682 1035.5 575.782 1044.08 575.765L1043.99 549.808L1018.06 549.688C1017.67 541.658 1017.9 531.627 1018.08 523.541C1009.32 523.907 1000.55 523.896 991.791 523.507C991.123 515.719 991.504 505.777 991.623 497.867L1018.11 497.774C1017.88 489.368 1018.01 480.408 1017.99 471.957C1026.5 471.71 1035.44 471.811 1043.98 471.787C1044.09 480.463 1044.11 489.141 1044.03 497.817C1052.79 497.89 1061.54 497.858 1070.3 497.721C1070.21 506.377 1070.19 515.034 1070.22 523.69L1096.48 523.703L1096.5 549.777C1104.89 549.779 1114.08 549.981 1122.39 549.775C1122.25 541.274 1122.43 532.367 1122.47 523.836C1130.63 523.486 1140.4 523.701 1148.63 523.703C1148.38 515.396 1148.58 506.18 1148.58 497.806C1156.99 497.803 1166.61 498.04 1174.92 497.777L1174.96 471.77L1200.74 471.793L1200.77 497.83C1209.52 497.87 1218.27 497.844 1227.03 497.752L1227 471.938C1235.22 471.516 1245.62 471.796 1254 471.796Z"/><path fill="#00394D" d="M337.547 654.379C326.361 626.114 320.76 584.55 319.219 554.137C318.646 542.827 319.026 531.316 319.024 519.986C319.022 511.264 318.615 502.297 319.187 493.6C319.944 482.096 325.188 473.67 333.744 466.188C383.91 422.318 539.135 413.413 606.224 412.55C647.745 412.017 688.776 413.654 730.176 416.42C765.862 419.682 799.514 423.79 834.673 431.508C864.29 438.164 911.987 450.847 929.923 477.219C937.249 487.991 934.993 507.628 935.082 521.053C935.151 531.408 935.306 545.864 934.843 556.053C933.707 578.646 930.66 601.103 925.734 623.182L924.624 627.925C905.473 703.482 865.643 760.785 798.184 800.925C792.901 804.071 787.505 807.023 782.006 809.775C773.232 814.203 764.269 818.248 755.143 821.898C700.343 841.161 658.932 845.958 600.411 842.965C571.993 840.191 552.608 838.532 524.31 830.049C467.771 813.099 415.723 780.449 379.438 733.439C367.288 717.698 360.62 705.378 351.253 688.357C350.79 686.699 348.389 681.85 347.545 680.035L341.588 665.363L337.547 654.379Z"/><path fill="#FAFAFA" d="M340.854 581.598C366.261 597.042 392.059 604.807 420.841 611.524C450.844 618.476 481.267 623.472 511.917 626.481C615.953 636.902 825.705 636.769 913.292 582.356C910.239 624.172 893.476 671.338 871.067 706.707C868.611 710.334 865.75 714.779 863.064 718.123C861.953 719.656 860.818 721.17 859.658 722.666C815.504 779.495 745.686 813.731 675.083 821.995C592.982 831.604 504.16 817.46 437.837 765.374C377.774 718.205 349.78 656.011 340.854 581.598Z"/><path fill="#FAFAFA" d="M627.667 432.579C689.7 431.612 859.401 440.499 906.083 479.985C909.811 483.138 914.736 487.787 914.948 492.98C915.132 497.46 912.076 501.566 909.069 504.567C874.831 538.742 742.947 550.138 692.568 552.839C670.828 553.828 649.068 554.266 627.306 554.152C553.399 554.489 457.358 548.568 387.47 525.818C373.567 521.292 357.065 515.397 346.042 505.394C342.868 502.514 339.086 498.378 339.044 493.813C339.007 489.73 341.553 485.989 344.25 483.145C377.426 448.168 510.673 436.82 558.899 434.195C581.783 432.949 604.755 432.777 627.667 432.579Z"/><path fill="#FAFAFA" d="M338.537 524.104C404.482 571.204 585.538 576.174 668.474 573.496C714.667 572.257 760.73 568.002 806.369 560.759C841.292 554.964 886.544 544.948 915.742 524.402C915.8 536.193 918.094 553.281 909.934 560.713C900.255 569.526 885.961 576.124 873.609 580.363C794.819 607.406 704.026 612.095 621.161 612.382C607.916 612.428 586.122 612.321 573.583 611.215C564.884 610.853 550.656 610.538 542.285 609.302C532.309 609.016 522.24 607.643 512.318 606.586C471.849 602.276 372.07 588.748 343.328 558.69C341.465 556.742 339.994 554.674 338.56 552.396C338.44 542.966 338.432 533.534 338.537 524.104Z"/><path fill="#FAFAFA" d="M0 0L25.9962 0L52.0621 0L78.1073 0L104.131 0L130.4 0L156.567 0L182.522 0L208.715 0L234.76 0L260.838 0L286.774 0L312.971 0L339.351 0L365.526 0L391.71 0L417.83 0L443.556 0L469.615 0C469.735 32.5952 475.833 26.3649 443.606 26.0568L443.637 52.2449C452.301 52.1466 460.966 52.1459 469.63 52.2427C469.617 60.9027 469.715 69.8166 469.561 78.4533L443.782 78.4353C443.294 70.4442 443.351 60.1621 443.552 52.0636L417.678 52.1678L417.613 78.4246L391.8 78.4603C391.302 70.0594 391.576 60.6754 391.662 52.1761C383.99 51.7946 373.409 52.1214 365.508 52.1185C365.318 60.6806 365.473 69.8355 365.463 78.4459L339.378 78.6953C339.272 69.8428 339.226 60.9897 339.239 52.1366C330.82 51.9299 321.484 52.1423 312.99 52.1494C312.668 60.209 312.932 70.1772 312.918 78.3907C304.303 78.4728 295.687 78.4738 287.072 78.3937C286.338 70.8313 286.828 59.7845 287.074 52.1557C278.353 52.1056 269.633 52.1166 260.913 52.1888L260.899 78.6693L286.885 78.6591L287.028 104.796C295.505 104.785 304.585 104.943 313.01 104.736L313.02 78.6517C321.549 78.6469 330.791 78.4829 339.248 78.8399L339.199 104.767C347.325 104.772 357.587 105.078 365.534 104.723C365.545 113.41 365.496 122.097 365.388 130.784L339.235 130.912L339.198 157.142L312.994 157.273L312.909 183.098C304.031 183.301 295.746 183.104 286.972 183.15C287.042 192.063 287.047 200.975 286.986 209.888C295.614 209.766 304.243 209.752 312.872 209.847L312.975 235.807L339.163 235.833L339.24 262.223L365.543 262.195L365.489 235.831C373.409 235.831 382.347 236.022 390.141 235.432C383.181 234.901 373.362 235.131 366.158 235.125L366.158 210.633C373.366 210.657 380.486 210.796 387.675 210.236C385.251 209.813 369.187 209.77 365.507 209.68L365.545 183.391C358.76 183.402 345.409 183.798 339.278 182.954L339.297 157.374C348.056 157.031 356.783 157.416 365.542 157.025C365.345 148.546 365.519 139.532 365.546 131.012C374.439 130.652 383.003 130.731 391.898 130.834C391.193 122.524 391.616 113.194 391.849 104.814L417.737 104.726C417.7 113.445 417.728 122.264 417.573 130.972C425.95 130.951 435.328 130.721 443.625 130.981L443.609 157.05L417.632 157.05L417.689 130.771C409.259 130.822 400.155 131.031 391.789 130.742L391.668 157.167C382.955 157.285 374.241 157.277 365.528 157.143L365.467 183.379C374.209 183.324 382.951 183.313 391.694 183.347L391.687 209.957C400.354 209.705 409.025 209.69 417.693 209.911L417.64 235.744C408.993 235.875 400.344 235.852 391.697 235.675C391.708 244.353 391.885 253.63 391.67 262.259C400.339 262.183 409.009 262.164 417.679 262.202C417.618 253.444 417.625 244.686 417.701 235.929C425.475 235.846 435.971 235.521 443.603 236.162C443.656 244.797 443.637 253.433 443.547 262.069C434.931 262.225 426.314 262.238 417.698 262.107L417.692 288.34C426.306 288.565 434.905 288.447 443.521 288.45C443.641 297.155 443.603 305.862 443.409 314.566C448.112 314.596 466.601 313.712 468.842 314.652C470.621 316.886 469.547 336.035 469.576 340.741L443.667 340.97C443.633 349.594 443.747 358.744 443.484 367.323C449.646 367.147 464.899 367.502 469.677 366.991C469.578 375.704 469.543 384.418 469.573 393.131L443.824 393.166C443.122 385.613 443.411 374.845 443.491 367.065L417.732 367.234C417.713 362.508 417.911 346.09 417.209 342.387C416.089 356.64 417.798 377.641 417.774 393.07L391.586 393.121C391.434 384.435 391.432 375.747 391.58 367.061C382.876 367.194 374.17 367.198 365.466 367.073C365.306 358.314 365.314 349.553 365.49 340.794C356.757 340.931 348.023 340.956 339.29 340.869L339.205 367.082L312.999 367.111L312.937 393.111L287.035 393.168L286.978 419.519C295.237 419.511 304.819 419.727 312.973 419.362C312.61 427.188 312.922 437.543 312.923 445.565C309.656 445.532 306.782 445.406 303.546 445.988L303.539 445.946L305.514 445.805L304.644 446.293C306.635 446.474 310.16 446.367 312.275 446.37C312.257 449.819 311.838 468.871 312.773 470.891L315.732 470.9L315.925 471.538C315.083 471.782 314.273 471.853 313.402 471.933C312.129 474.888 312.952 493.226 313.06 497.729L286.876 497.766C286.759 489.146 286.822 480.415 286.816 471.785L260.847 471.785L260.808 497.735L234.891 497.72C234.489 489.089 234.646 480.442 234.701 471.8C243.451 471.666 252.203 471.651 260.955 471.754C260.711 463.182 260.879 454.057 260.908 445.439C252.19 445.608 243.471 445.642 234.752 445.54C234.39 437.372 234.632 427.714 234.652 419.427C226.161 419.288 217.285 419.43 208.762 419.437L208.739 445.588L182.729 445.444C182.518 436.744 182.474 428.04 182.597 419.338C178.47 419.359 161.352 419.231 158.502 419.822C166.284 420.037 174.07 420.11 181.854 420.041C181.799 437.739 182.869 454.122 182.779 471.775L208.735 471.745L208.706 497.821C201.013 497.425 190.658 497.713 182.759 497.694C182.33 489.823 182.872 481.825 182.256 473.794C181.607 480.86 181.849 489.92 181.854 497.191C177.12 497.195 161.273 497.522 157.541 496.942L157.331 495.616L156.758 495.312L155.949 497.299C153.838 498.175 133.763 497.782 130.393 497.771C130.374 506.388 130.466 515.239 130.33 523.833L156.438 523.833L156.438 549.502C147.768 549.774 139.094 549.857 130.421 549.752L130.268 575.742C121.535 576.06 112.794 576.095 104.059 575.847C104.077 584.476 104.001 593.288 104.151 601.9C112.664 601.879 121.872 601.687 130.33 601.935L130.296 627.912L104.112 628.105C104 636.752 103.98 645.401 104.054 654.049L130.342 653.975L130.363 680.17C121.739 680.147 112.581 680.276 104.001 680.025L104.043 705.964C95.397 706.083 86.7501 706.138 78.1032 706.128C77.8483 697.432 77.8503 688.731 78.1092 680.036C69.4681 680.106 60.6124 680.273 51.9933 680.021C52.0723 688.767 52.0782 697.514 52.0109 706.26L78.0681 706.14C78.1286 714.635 77.8612 723.672 78.0482 732.031C69.3822 732.144 60.7156 732.206 52.0489 732.217L52.017 758.093C43.4337 758.207 34.8491 758.197 26.2661 758.065C25.794 750.566 25.8008 739.755 26.1824 732.244C18.5247 731.843 7.88464 732.176 0 732.182L0 706.25L0 680.184L0 653.957L0 628.176L0 601.927L0 575.858L0 497.761L0 471.539L0 445.59L0 419.416L0 393.16L0 367.18L0 340.633L0 314.406L0 288.395L0 262.147L0 235.735L0 209.813L0 183.183L0 157.218L0 130.666L0 104.701L0 78.5677L0 52.1476L0 26.0482L0 0Z"/><path fill="#FAFAFA" d="M260.882 810.582C269.593 810.55 278.304 810.584 287.014 810.682L287.004 836.826C295.205 836.808 304.849 837.001 312.926 836.582L312.947 862.693C304.294 862.791 295.639 862.733 286.988 862.518C287.01 871.05 287.207 880.289 286.976 888.765L260.777 888.765L260.887 915.212C269.554 915.332 278.222 915.388 286.89 915.381L286.976 941.019L313.013 941.064C313.275 932.989 313.017 923.465 313.008 915.273L339.229 915.367L339.21 941.072L365.522 941.04C365.446 932.473 365.455 923.905 365.551 915.338C374.276 915.251 383.002 915.272 391.726 915.4C391.705 923.679 391.898 932.921 391.652 941.113C400.334 941.019 409.016 941.021 417.698 941.119L417.603 966.993C409.094 967.002 400.185 967.206 391.73 967.109L391.688 993.091C382.964 993.248 374.239 993.285 365.514 993.204L365.503 1019.26C365.517 1027.74 365.697 1036.81 365.506 1045.25C375.166 1045.48 381.993 1045.14 391.263 1045.2L391.263 1071.53C383.687 1071.53 372.823 1071.87 365.516 1071.43C365.519 1079.91 365.666 1088.82 365.505 1097.27L391.818 1097.27L391.875 1071.53L417.592 1071.53L417.606 1097.3C417.707 1105.97 417.722 1114.64 417.65 1123.31C409.051 1123.44 400.451 1123.49 391.852 1123.47C391.713 1132.11 391.677 1140.75 391.742 1149.39L417.737 1149.39C417.71 1157.98 417.516 1167.12 417.67 1175.66C409.897 1175.31 399.743 1175.61 391.784 1175.62C391.729 1184.21 391.823 1193.28 391.594 1201.83C382.915 1201.89 374.236 1201.89 365.558 1201.84L365.463 1227.84C356.721 1227.93 347.978 1227.9 339.236 1227.74L339.189 1254L313.005 1254L287.054 1254L260.904 1254L234.631 1254L208.484 1254L182.527 1254L156.446 1254L130.335 1254L104.266 1254L78.2754 1254L52.0798 1254L26.2039 1254L0 1254L0 1227.8L0 1201.73L0 1175.62L0 1149.33L0 1123.42L0 1097.23L0 1071.26L0 1045.31L0 1019.49L0 993.158L0 966.89L0 941.011L0 915.053L0 888.634L0 862.72L26.1224 862.763C26.2049 871.47 26.2383 880.178 26.2226 888.886L52.0095 888.766L52.0142 915.083L26.0256 915.083C26.1526 923.733 26.1902 932.384 26.1382 941.034L52.0397 941.04L52.1249 915.376C60.3955 915.326 69.8913 915.058 78.0594 915.354C78.1839 922.509 78.6404 934.308 77.9665 941.106C86.6437 941.013 95.3215 940.989 103.999 941.032L104.104 967.396C112.929 967.224 121.636 967.002 130.463 967.216C130.396 958.494 130.382 949.771 130.421 941.049C139.128 941.041 147.956 940.951 156.651 941.049C156.401 932.47 156.335 923.886 156.454 915.303L182.613 915.329L182.586 941.056L208.721 941.034C208.278 932.596 208.575 923.618 208.782 915.169L182.843 915.095C182.303 907.093 182.562 897.076 182.585 888.893C191.284 888.644 199.987 888.589 208.688 888.731C208.674 895.944 208.363 907.159 209.066 913.998C210.303 908.27 208.82 887.68 208.636 881.192C208.464 875.104 208.644 868.804 208.744 862.667L182.751 862.65C182.282 854.93 182.54 844.808 182.537 836.895C191.305 836.77 200.073 836.739 208.842 836.803C208.32 829.044 208.503 818.57 208.422 810.606L234.674 810.668C234.545 819.407 234.6 828.298 234.569 837.051C243.121 836.585 252.254 836.816 260.865 836.893L260.867 862.813L286.947 862.734C286.598 854.231 286.776 845.262 286.823 836.711C278.354 836.948 269.529 836.776 261.025 836.719C260.793 828.135 260.894 819.198 260.882 810.582Z"/><path fill="#FAFAFA" d="M861.013 0L887.096 0L913.375 0L939.408 0L965.649 0L1044.04 0L1070.16 0L1096.52 0L1122.49 0L1148.64 0L1175.04 0L1200.79 0L1227.05 0L1254 0L1254 26.1898L1254 52.2055L1254 78.462L1254 104.741L1254 130.914L1254 157.047L1254 183.301L1254 209.709L1254 235.853L1254 262.155L1254 288.272L1254 314.412L1254 340.919L1254 367.109L1254 393.112L1254 419.463L1254 445.721C1245.01 445.692 1236.02 445.584 1227.03 445.396C1226.82 436.959 1227.01 427.868 1227.03 419.383C1218.47 419.198 1209.35 419.388 1200.75 419.424L1200.74 445.722C1193.64 445.26 1182.7 445.725 1174.92 445.56C1174.38 438.035 1174.81 427.234 1174.91 419.436C1166.92 419.099 1156.78 419.392 1148.61 419.391L1148.52 445.524C1139.84 445.697 1131.15 445.685 1122.47 445.489L1122.3 419.455C1114.05 419.217 1104.92 419.388 1096.59 419.365C1096.33 427.796 1096.5 437.07 1096.48 445.564C1087.77 445.7 1079.06 445.674 1070.35 445.489C1070.17 436.819 1070.11 428.147 1070.17 419.476C1061.46 419.393 1052.74 419.392 1044.03 419.474L1043.97 393.22L1070.26 393.185C1070.21 384.57 1070.22 375.955 1070.27 367.34C1078.76 367.176 1088.15 366.813 1096.54 367.27L1096.52 393.179L1122.47 393.192C1122.34 384.571 1122.33 375.949 1122.42 367.327L1148.66 366.989C1148.4 358.453 1148.55 349.563 1148.58 340.995C1140.3 340.698 1130.72 340.895 1122.33 340.858L1122.36 366.84C1113.1 367.07 1105.83 367.135 1096.57 366.869C1096.36 358.298 1096.52 349.514 1096.59 340.923C1105.37 340.84 1113.71 340.758 1122.47 341.096C1122.2 332.59 1122.42 323.012 1122.44 314.425C1131.18 314.431 1139.91 314.38 1148.65 314.273C1148.29 305.669 1148.52 297.1 1148.67 288.491C1157.44 288.471 1166.22 288.406 1175 288.296C1174.79 279.576 1174.76 270.852 1174.91 262.131L1148.65 262.161C1148.4 253.713 1148.61 244.311 1148.62 235.79C1139.89 235.89 1131.16 235.873 1122.43 235.738L1122.4 209.88C1114.79 209.516 1104.34 209.772 1096.53 209.697L1096.49 183.309C1103.98 183.762 1114.67 183.416 1122.39 183.391L1122.39 157.029C1113.75 157.326 1105.11 157.212 1096.47 157.17C1096.59 165.828 1096.54 174.487 1096.31 183.143C1087.64 183.473 1078.97 183.47 1070.3 183.132C1070.22 174.544 1070.21 165.955 1070.26 157.367C1079.27 157.126 1087.59 156.859 1096.58 157.246C1096.3 148.774 1096.51 139.521 1096.54 130.985C1104.92 130.632 1114 130.842 1122.44 130.899C1122.47 122.169 1122.46 113.439 1122.4 104.709C1114.36 104.433 1104.7 104.707 1096.54 104.718C1096.27 113.068 1096.43 122.355 1096.4 130.779C1087.71 130.953 1078.91 131.116 1070.24 130.654C1070.28 138.952 1070.45 149.096 1070.03 157.245L1043.97 157.28C1044.23 165.801 1044.04 174.813 1043.98 183.379C1035.55 183.402 1026.49 183.579 1018.14 183.091C1017.68 175.126 1017.96 165.35 1018.09 157.356C1026.73 157.143 1035.37 157.06 1044 157.107L1044.03 130.732C1035.31 130.838 1026.94 130.966 1018.23 130.646C1017.66 121.864 1017.85 113.468 1017.91 104.682C1009.2 104.814 1000.48 104.805 991.767 104.656C991.088 97.3619 991.634 86.2753 991.878 78.8554L1018.08 78.8461C1018.01 87.4928 1018.02 96.14 1018.12 104.786L1044.04 104.761C1043.86 96.2526 1044.02 87.2266 1044.02 78.6784C1035.37 78.7647 1026.71 78.6702 1018.06 78.3948C1017.87 69.6062 1017.79 60.8155 1017.83 52.0249C1012.57 52.5947 996.893 52.6293 991.772 51.891L991.624 78.4704L965.559 78.4574C965.344 69.9012 965.513 60.7292 965.522 52.1272C957.749 51.7628 947.351 52.0822 939.371 52.084L939.349 26.0047C930.403 26.1761 922.276 26.2726 913.345 25.9762C913.444 34.7857 913.58 43.2462 913.203 52.0496L887.205 52.1613C887.046 43.1729 886.819 35.0989 887.086 26.0965C878.226 26.1945 869.893 26.239 861.043 25.9643L861.013 0Z"/><path fill="#FAFAFA" d="M756.8 235.865C756.747 244.625 756.756 253.386 756.828 262.146L782.863 262.224C782.859 270.728 782.698 279.857 782.954 288.305C774.773 288.303 764.857 288.027 756.823 288.358C756.688 297.042 756.705 305.728 756.873 314.412C765.265 314.38 774.597 314.164 782.908 314.462C782.473 306.111 782.745 296.957 782.844 288.526L808.892 288.444C808.941 297.216 808.941 305.988 808.89 314.76C816.657 313.88 827.08 314.539 835.104 314.281C835.033 305.769 834.844 296.911 835.099 288.434C843.458 288.411 852.71 288.592 860.991 288.342L861.041 262.253C869.619 262.235 878.463 262.114 887.016 262.281L887.107 288.352C895.821 288.424 904.536 288.437 913.251 288.393C913.203 296.853 912.993 306.023 913.306 314.412C904.506 314.516 895.874 314.663 887.075 314.379C886.953 323.162 886.964 331.946 887.108 340.728C878.196 340.879 869.872 341.116 860.97 340.683C860.965 349.446 860.871 358.36 860.974 367.108C852.439 367.123 843.568 367.26 835.061 367.084L835.122 393.148C826.393 393.075 817.663 393.085 808.934 393.179L808.892 419.633C817.649 419.528 826.408 419.487 835.166 419.511C835.222 422.291 835.693 429.412 834.673 431.508C799.514 423.79 765.862 419.682 730.176 416.42C730.8 411.219 730.587 398.997 730.63 393.279L756.926 393.258C756.803 384.54 756.807 375.821 756.938 367.103C748.501 367.155 739.011 367.449 730.699 366.799C730.412 358.434 730.575 349.401 730.589 340.978C722.968 340.584 712.335 340.924 704.484 340.933L704.487 367.073C695.876 367.204 687.264 367.203 678.653 367.069L678.672 393.118L652.527 393.275C652.189 385.211 652.429 375.469 652.417 367.277C661.181 367.015 669.95 366.948 678.717 367.078C678.429 358.44 678.527 349.514 678.522 340.844C669.816 340.987 661.107 340.939 652.402 340.701L652.325 366.841C643.834 367.247 635.193 367.06 626.7 366.849L626.7 340.976L652.417 340.742L652.417 314.557C661.189 314.442 669.962 314.455 678.733 314.597C678.834 323.37 678.797 332.144 678.622 340.916C687.232 340.879 695.842 340.942 704.45 341.104L704.45 314.403C695.906 314.572 687.359 314.571 678.814 314.402C678.356 305.85 678.498 296.865 678.786 288.309C670.055 288.363 661.324 288.364 652.593 288.313C652.2 279.972 652.339 270.682 652.309 262.258L678.652 262.205L678.77 288.436C687.163 288.641 696.142 288.483 704.579 288.48C704.614 294.819 704.36 306.472 704.946 312.395C705.621 305.156 705.382 296.386 705.375 289.008L729.867 289.008C729.787 296.327 729.865 303.648 730.101 310.964C730.803 306.127 730.72 293.674 730.803 288.246C722.184 288.413 713.259 288.303 704.616 288.305C704.175 280.481 704.31 269.912 704.619 262.089C696.028 262.213 687.435 262.203 678.844 262.06C678.407 253.421 678.597 244.601 678.663 235.934C687.116 235.7 695.989 235.847 704.48 235.873C704.682 244.679 704.668 253.489 704.438 262.295C712.778 261.998 722.166 262.198 730.584 262.198C730.388 254.036 730.41 243.984 730.939 235.914C739.559 235.799 748.18 235.782 756.8 235.865Z"/><path fill="#FAFAFA" d="M208.735 549.699C217.361 549.774 225.987 549.799 234.614 549.773C234.626 558.365 234.491 567.456 234.723 576.006L208.73 575.883L208.67 601.893C217.212 601.895 226.073 601.782 234.585 601.973C234.601 610.356 234.385 619.881 234.646 628.161C242.97 628.08 252.607 627.783 260.806 628.177C260.822 636.297 260.585 645.972 260.923 653.963L286.859 654.025L286.859 680.2C278.516 680.161 269.157 679.919 260.894 680.203C260.77 688.834 260.766 697.466 260.883 706.096L234.835 706.11C234.53 697.659 234.642 688.696 234.623 680.198C226.456 679.934 217.021 680.159 208.752 680.152L208.654 706.064L182.579 706.12C182.622 714.681 182.818 723.727 182.663 732.249C191.37 732.318 200.077 732.312 208.785 732.23C208.707 740.869 208.682 749.509 208.711 758.148L234.617 758.207L234.686 784.271C226.05 784.421 217.411 784.435 208.774 784.314L208.702 810.574L182.771 810.443C182.346 802.123 182.553 792.811 182.58 784.4L156.611 784.317C156.637 793.048 156.583 801.779 156.448 810.509C147.814 810.512 138.917 810.627 130.306 810.472L130.329 836.923C122.019 836.558 112.901 836.903 104.202 836.577C104.152 832.096 104.703 813.863 103.883 811.43C100.935 808.946 82.9713 810.388 78.075 810.379L78.075 784.423L104.227 784.424L104.222 758.49C112.937 758.278 121.654 758.216 130.371 758.306L130.346 784.421L156.484 784.412C156.207 775.966 156.401 766.85 156.444 758.345C147.797 758.423 139.15 758.328 130.507 758.06C130.181 749.707 130.367 740.609 130.397 732.188L104.219 732.145L104.228 706.239C112.973 706.103 121.72 706.113 130.464 706.27L130.363 680.17C135.478 680.125 153.389 678.858 156.245 681.293C157.179 683.77 156.544 701.786 156.581 706.341C165.289 706.103 174.001 706.052 182.712 706.188C182.595 697.514 182.553 688.839 182.586 680.164L156.592 679.958C156.271 671.753 156.506 662.321 156.541 654.022L182.667 653.965C182.404 645.639 182.59 636.522 182.61 628.132C173.962 628.13 165.315 628.053 156.669 627.899C156.301 619.192 156.48 610.672 156.614 601.964C165.28 601.844 173.947 601.821 182.613 601.895C182.502 593.273 182.587 584.501 182.591 575.866L156.454 575.866L156.539 549.838L182.608 549.843L182.556 576.009C189.914 575.464 201.178 575.792 208.825 575.792C208.529 567 208.64 558.496 208.735 549.699Z"/><path fill="#FAFAFA" d="M756.852 78.5368C756.731 87.2637 756.695 95.9916 756.742 104.719L782.81 104.756L782.825 130.781C791.611 130.568 800.266 130.744 809.051 130.899C809.044 139.65 809.115 148.522 809.004 157.262C817.689 157.022 826.377 156.956 835.064 157.062C834.878 148.362 834.818 139.66 834.884 130.958C843.571 130.698 852.264 130.7 860.952 130.963C860.984 139.648 861.141 148.633 861.026 157.291L835.174 157.343L835.169 183.252C826.462 183.437 817.752 183.428 809.045 183.226C809.047 192.001 809.18 201.195 808.934 209.929L783.212 210.039C782.469 217.244 783.026 228.165 783.046 235.809L808.982 235.728L809.114 262.293C800.364 262.373 791.614 262.349 782.865 262.219C782.647 253.516 782.423 244.491 782.915 235.793C774.211 236.01 765.504 236.034 756.8 235.865C756.654 227.189 756.665 218.512 756.833 209.836C748.569 210.208 738.789 209.928 730.517 209.687C730.419 200.965 730.487 192.136 730.486 183.404C739.561 183.164 747.667 183.066 756.733 183.291C756.437 175.233 756.742 165.45 756.78 157.262C765.426 157.059 774.076 157.026 782.723 157.161C782.571 148.394 782.568 139.624 782.714 130.856C774.105 131.016 765.494 131.001 756.887 130.814L756.841 157.19L730.78 157.362C730.808 165.986 730.738 174.611 730.57 183.234C722.131 183.484 712.965 183.323 704.473 183.332L704.463 157.295C712.723 156.882 722.27 157.09 730.641 157.101C730.359 148.244 730.425 139.811 730.52 130.945L704.486 130.818C704.556 139.556 704.544 148.294 704.45 157.031C695.946 157.236 687.439 157.288 678.933 157.186C678.348 148.216 678.541 139.835 678.621 130.847L704.663 130.802C704.2 122.501 704.399 113.22 704.421 104.82L730.682 104.757C730.441 96.1849 730.624 87.3915 730.709 78.7968C739.424 78.7987 748.139 78.712 756.852 78.5368Z"/><path fill="#FAFAFA" d="M1070.3 235.836C1070.17 244.617 1070.17 253.401 1070.29 262.183C1079.01 262.142 1087.73 262.149 1096.44 262.206C1096.46 270.738 1096.63 279.746 1096.46 288.238C1087.83 288.295 1078.96 288.454 1070.34 288.341C1061.83 288.555 1052.56 288.383 1043.98 288.396L1044.01 262.178L1044 235.839L1070.3 235.836Z"/><path fill="#FAFAFA" d="M965.581 523.833L991.721 523.833C991.72 532.441 991.811 541.251 991.533 549.835L1017.98 549.719C1018.08 558.478 1018.09 567.239 1018.02 575.999C1009.3 575.968 1000.37 576.04 991.672 575.866C991.566 584.553 991.713 593.215 991.641 601.879L965.598 601.842C965.441 593.228 965.442 584.611 965.598 575.997C974.344 575.87 983.09 575.831 991.837 575.879C991.411 567.168 991.354 558.444 991.663 549.728C982.941 549.733 974.218 549.665 965.497 549.525L965.581 523.833Z"/><path fill="#FAFAFA" d="M313.917 183.525C322.336 183.383 330.756 183.311 339.176 183.309L339.202 209.897C347.695 209.836 357.034 209.969 365.453 209.668L365.489 235.831C356.802 235.696 348.06 235.824 339.409 235.657L339.29 209.721C330.503 209.817 321.824 209.988 313.042 209.608C313.021 206.082 312.364 184.565 313.917 183.525Z"/><path fill="#FAFAFA" d="M626.589 26.1379C635.151 25.9775 643.716 26.0145 652.276 26.2488C652.317 34.7542 652.48 43.626 652.228 52.0965L626.516 52.1127C626.538 60.7234 626.701 69.8525 626.445 78.415C617.892 78.4272 608.843 78.5868 600.331 78.3731C600.198 69.6585 600.164 60.9426 600.228 52.2273L626.561 52.1759C626.51 43.4966 626.52 34.8171 626.589 26.1379Z"/><path fill="#FAFAFA" d="M548.106 1149.59C556.835 1149.37 565.567 1149.33 574.297 1149.46L574.223 1175.76L600.137 1175.76L600.189 1201.9C591.55 1201.89 582.911 1201.84 574.273 1201.73C574.151 1193.02 574.085 1184.31 574.075 1175.6C565.765 1175.66 556.78 1175.88 548.529 1175.65C547.693 1168.52 548.045 1157.07 548.106 1149.59Z"/><path fill="#FAFAFA" d="M312.982 810.748C321.708 810.62 330.435 810.572 339.162 810.606L339.191 836.924L365.244 836.688C365.871 843.772 365.53 855.316 365.466 862.71L339.326 862.6C339.32 854.166 339.484 845.106 339.27 836.724C330.489 836.925 321.704 836.878 312.926 836.582C313.007 827.971 313.026 819.359 312.982 810.748Z"/><path fill="#FAFAFA" d="M130.325 888.934C139.038 888.766 147.754 888.699 156.469 888.731C156.522 897.322 156.739 906.62 156.432 915.142C147.823 915.191 138.848 915.364 130.273 915.203L130.421 941.049L104.146 941.002L104.145 915.334L130.36 915.33L130.325 888.934Z"/><path fill="#FAFAFA" d="M0 810.507L26.1225 810.66C26.1508 819.293 26.3045 828.314 26.1067 836.911L52.0318 836.693C52.1494 845.335 52.1469 853.979 52.0242 862.622C43.5294 862.645 34.6861 862.788 26.2264 862.536C26.0624 853.962 25.987 845.387 26.0001 836.812C17.4986 836.867 8.43923 837.072 0 836.67L0 810.507Z"/><path fill="#FAFAFA" d="M313.2 653.982C321.243 653.97 329.543 653.804 337.547 654.379L341.588 665.363L347.545 680.035C348.389 681.85 350.79 686.699 351.253 688.357L350.991 689.205C349.547 687.647 347.75 683.043 346.792 680.883L339.829 680.881C339.868 688.66 339.811 696.44 339.658 704.218C339.063 700.808 339.329 684.692 339.339 680.181C330.626 680.208 321.913 680.166 313.2 680.055L313.2 653.982Z"/><path fill="#FAFAFA" d="M600.254 0L626.927 0L626.589 26.1379C617.893 26.198 608.961 26.4005 600.306 25.8764C599.988 17.7602 600.236 8.22064 600.254 0Z"/><path fill="#FAFAFA" d="M808.957 0L835.12 0L835.122 26.195C826.938 25.9347 817.292 26.2011 808.99 26.2148C808.808 17.6483 808.955 8.60393 808.957 0Z"/><path fill="#FAFAFA" d="M574.186 1227.86C582.848 1227.72 591.512 1227.69 600.175 1227.75L600.39 1254L574.248 1254C574.16 1245.29 574.14 1236.57 574.186 1227.86Z"/><path fill="#FAFAFA" d="M887.205 52.1613C886.96 60.6151 887.118 69.8764 887.089 78.3953C878.404 78.5186 869.717 78.5053 861.032 78.3555L861.033 52.2558L887.205 52.1613Z"/><path fill="#FAFAFA" d="M339.259 393.162C339.183 401.865 339.164 410.569 339.2 419.272C330.458 419.39 321.715 419.42 312.973 419.362C313.259 411.223 313.021 401.546 313.038 393.28L339.259 393.162Z"/><path fill="#FAFAFA" d="M156.528 810.763C165.226 810.517 173.928 810.469 182.628 810.616C182.623 819.319 182.568 828.023 182.462 836.725C173.861 836.815 165.259 836.851 156.657 836.833C156.218 827.609 156.561 819.867 156.528 810.763Z"/><path fill="#FAFAFA" d="M522.142 1228.01C530.757 1227.75 539.377 1227.71 547.994 1227.9L547.955 1254L521.85 1254C521.799 1245.83 521.504 1235.98 522.142 1228.01Z"/><path fill="#FAFAFA" d="M287.071 888.937C295.825 888.562 304.347 888.911 312.896 888.64C312.922 897.171 312.718 906.842 313.008 915.273L286.979 915.157C286.715 906.419 286.746 897.674 287.071 888.937Z"/><path fill="#FAFAFA" d="M6.52603e-15 758.206C8.65963 758.136 17.3197 758.143 25.9792 758.226C26.265 766.89 26.3052 775.561 26.0997 784.228L0 784.333L0 758.206L6.52603e-15 758.206Z"/><path fill="#FAFAFA" d="M652.276 104.831L678.668 104.78C678.697 113.469 678.682 122.158 678.621 130.847C669.956 130.692 661.15 131.138 652.6 130.897C652.202 122.217 652.278 113.521 652.276 104.831Z"/><path fill="#FAFAFA" d="M1070.2 209.924C1078.97 209.769 1087.74 209.73 1096.52 209.806L1096.49 235.844L1070.3 235.836C1070.26 227.248 1070.13 218.495 1070.2 209.924Z"/><path fill="#FAFAFA" d="M339.306 367.341C348.282 366.952 356.521 366.889 365.513 366.917L365.526 393.157C357.043 392.94 347.799 393.141 339.259 393.162L339.306 367.341Z"/><path fill="#FAFAFA" d="M469.607 1227.79C478.29 1227.69 486.974 1227.77 495.655 1228L495.655 1254L469.634 1254L469.607 1227.79Z"/><path fill="#FAFAFA" d="M365.52 1228.02C374.236 1227.75 382.957 1227.7 391.675 1227.87L391.741 1254L365.439 1254L365.52 1228.02Z"/><path fill="#FAFAFA" d="M1148.56 445.76L1174.92 445.56L1174.9 471.531C1166.26 471.735 1157.34 471.621 1148.68 471.608C1148.4 463.248 1148.56 454.179 1148.56 445.76Z"/><path fill="#FAFAFA" d="M1200.74 445.722C1209.24 445.743 1218.47 445.856 1226.96 445.556C1226.98 454.206 1227.14 463.296 1226.96 471.91C1218.73 471.458 1209.13 471.562 1200.81 471.65L1200.74 445.722Z"/><path fill="#FAFAFA" d="M808.934 209.929C817.672 209.717 826.412 209.666 835.152 209.776C835.13 217.362 835.429 227.937 834.996 235.277C831.313 236.582 813.983 235.818 809.303 235.683C808.648 229.897 808.841 216.304 808.934 209.929Z"/><path fill="#FAFAFA" d="M1122.43 235.738L1122.45 262.078C1113.84 262.177 1105.23 262.157 1096.61 262.018C1096.18 254.041 1096.47 243.976 1096.49 235.844L1122.43 235.738Z"/><path fill="#FAFAFA" d="M1122.49 262.267L1148.65 262.161L1148.52 288.223C1139.85 288.391 1131.17 288.419 1122.5 288.306C1122.41 279.626 1122.41 270.946 1122.49 262.267Z"/><path fill="#FAFAFA" d="M260.955 784.352C260.923 792.978 260.75 801.989 260.882 810.582L234.857 810.506C234.554 801.805 234.646 793.166 234.685 784.462L260.955 784.352Z"/><path fill="#FAFAFA" d="M1044.03 419.474C1044.08 428.129 1044.06 436.784 1043.98 445.438C1035.28 445.592 1027.39 445.697 1018.71 445.362C1017.32 442.899 1017.92 423.493 1017.96 419.506L1044.03 419.474Z"/><path fill="#FAFAFA" d="M234.653 732.234C242.85 732.122 252.759 731.806 260.814 732.293C260.827 740.791 260.73 749.53 260.868 758.005C252.174 758.143 243.478 758.174 234.783 758.097C234.597 749.477 234.554 740.855 234.653 732.234Z"/><path fill="#FAFAFA" d="M365.54 78.8537L391.767 78.5269C391.738 87.0895 391.84 96.1254 391.63 104.648C382.932 104.785 374.233 104.81 365.534 104.723L365.54 78.8537Z"/><path fill="#FAFAFA" d="M130.451 862.717L130.351 888.666C121.025 888.802 113.526 888.985 104.225 888.365L104.105 862.739C112.51 862.74 122.155 862.982 130.451 862.717Z"/><path fill="#FAFAFA" d="M939.371 52.084C939.401 60.8996 939.363 69.7154 939.255 78.5304L913.283 78.4306C913.189 69.708 913.214 60.9846 913.36 52.2627L939.371 52.084Z"/><path fill="#FAFAFA" d="M417.618 1227.74L443.645 1227.89C443.649 1236.14 443.387 1245.88 443.664 1254L417.636 1254L417.618 1227.74Z"/><path fill="#FAFAFA" d="M860.966 367.204C869.616 367.107 878.267 367.066 886.917 367.083C887.01 375.761 887.01 384.44 886.917 393.118C878.522 393.132 869.302 392.948 860.98 393.179C860.92 384.521 860.916 375.862 860.966 367.204Z"/><path fill="#FAFAFA" d="M443.621 1201.91C452.423 1201.77 460.882 1201.65 469.678 1201.87L469.607 1227.79C461.34 1227.83 452 1228.06 443.835 1227.68C443.423 1219.34 443.597 1210.32 443.621 1201.91Z"/><path fill="#FAFAFA" d="M548.077 1201.92L574.273 1201.73C574.1 1210.22 574.244 1219.21 574.237 1227.74C565.576 1227.87 556.913 1227.86 548.253 1227.7C547.926 1219.45 548.088 1210.25 548.077 1201.92Z"/><path fill="#FAFAFA" d="M260.953 758.221L286.83 758.212C287.002 766.91 287.046 775.611 286.964 784.311C278.295 784.38 269.625 784.393 260.955 784.352C260.92 775.722 260.781 766.825 260.953 758.221Z"/><path fill="#FAFAFA" d="M182.591 523.59L208.729 523.688L208.735 549.699L182.76 549.748C182.366 540.984 182.514 532.359 182.591 523.59Z"/><path fill="#FAFAFA" d="M652.417 0L678.734 0L678.729 26.0168C669.98 26.1011 661.231 26.0501 652.484 25.8636C652.246 17.5597 652.428 8.37413 652.417 0Z"/><path fill="#FAFAFA" d="M130.329 836.923C139.104 836.721 147.881 836.691 156.657 836.833C156.337 845.586 156.733 854.018 156.53 862.61C148.094 862.639 138.812 862.468 130.451 862.717L130.329 836.923Z"/><path fill="#FAFAFA" d="M391.716 1201.97C400.373 1201.79 409.032 1201.74 417.69 1201.81L417.618 1227.74C409.499 1227.79 399.92 1228.1 391.927 1227.78C391.396 1219 391.588 1210.76 391.716 1201.97Z"/><path fill="#FAFAFA" d="M234.723 576.006C238.724 576 257.886 575.213 260.098 576.073C261.527 577.948 260.781 597.339 260.864 601.896L234.75 601.793C234.334 594.286 234.681 583.76 234.723 576.006Z"/><path fill="#FAFAFA" d="M1070.19 471.854C1078.95 471.765 1087.7 471.729 1096.45 471.746L1096.41 497.693L1070.3 497.721L1070.19 471.854Z"/><path fill="#FAFAFA" d="M860.98 393.179C860.647 401.386 860.922 411.029 860.968 419.341L835.205 419.487C834.876 410.711 834.848 401.926 835.122 393.148C843.004 393.174 853.299 393.52 860.98 393.179Z"/><path fill="#FAFAFA" d="M469.638 340.818C478.308 340.922 486.978 340.933 495.648 340.851L495.655 366.859C486.827 367.142 478.514 367.089 469.677 366.991C469.51 358.267 469.497 349.542 469.638 340.818Z"/><path fill="#FAFAFA" d="M1122.42 471.759C1131.13 471.619 1139.85 471.638 1148.56 471.814L1148.58 497.806C1140.47 497.432 1130.61 497.686 1122.45 497.821L1122.42 471.759Z"/><path fill="#FAFAFA" d="M495.832 0L521.869 0C522.13 8.38208 521.897 17.5685 521.832 26.0168L495.86 26.0168C495.502 17.3479 495.718 8.67708 495.832 0Z"/><path fill="#FAFAFA" d="M208.811 706.278C217.404 706.167 225.999 706.165 234.592 706.27L234.653 732.234C226.265 732.012 217.221 732.201 208.785 732.23C208.425 723.461 208.605 715.047 208.811 706.278Z"/><path fill="#FAFAFA" d="M365.526 393.157L391.563 393.412C391.571 400.848 391.912 412.271 391.328 419.387L365.459 419.35C365.387 410.76 365.713 401.553 365.526 393.157Z"/><path fill="#FAFAFA" d="M756.888 52.3582L782.825 52.3582L782.825 78.3792C774.688 78.5286 764.829 78.9335 756.852 78.5368L756.888 52.3582Z"/><path fill="#FAFAFA" d="M312.947 862.693C321.692 862.794 330.437 862.808 339.182 862.734L339.225 888.616C330.518 888.824 321.829 889.01 313.127 888.457L312.947 862.693Z"/><path fill="#FAFAFA" d="M260.864 601.896C269.417 601.889 278.336 601.754 286.859 601.942L286.859 628.149C278.34 628.116 269.454 628.204 260.97 627.968C260.939 619.514 261.101 610.279 260.864 601.896Z"/><path fill="#FAFAFA" d="M417.722 78.7794C425.315 78.7748 436.169 79.0868 443.609 78.6156L443.609 104.658L417.737 104.726C417.63 96.0775 417.625 87.428 417.722 78.7794Z"/><path fill="#FAFAFA" d="M835.122 26.195C843.386 26.1669 852.726 25.9492 860.888 26.3314C860.896 34.7516 861.074 43.7484 860.905 52.1169L835.127 52.183L835.122 26.195Z"/><path fill="#FAFAFA" d="M208.706 497.821L234.732 497.858C234.612 506.446 234.582 515.035 234.644 523.623C226.047 523.751 217.449 523.748 208.852 523.614C208.366 515.121 208.611 506.35 208.706 497.821Z"/><path fill="#FAFAFA" d="M208.739 445.588C217.419 445.868 226.048 445.755 234.73 445.696L234.594 471.683C225.989 471.693 217.385 471.641 208.781 471.524C208.657 462.879 208.644 454.233 208.739 445.588Z"/><path fill="#FAFAFA" d="M756.853 0L782.825 0L782.825 26.0168L757.132 25.9799C756.936 17.3213 756.843 8.66077 756.853 0Z"/><path fill="#FAFAFA" d="M78.075 836.945C86.7477 836.704 95.4253 836.692 104.099 836.908L104.105 862.739L78.075 862.603L78.075 836.945Z"/><path fill="#FAFAFA" d="M417.67 1175.66L443.52 1175.74L443.608 1201.5C434.947 1202.02 426.413 1201.88 417.739 1201.82C417.638 1193.1 417.615 1184.38 417.67 1175.66Z"/><path fill="#FAFAFA" d="M548.452 0L574.154 0C574.21 8.67222 574.202 17.3447 574.13 26.0168L548.325 25.9807C548.254 17.3203 548.297 8.65931 548.452 -2.17534e-15L548.452 0Z"/><path fill="#FAFAFA" d="M130.353 628.174C139.045 627.876 147.745 627.878 156.438 628.181L156.438 653.909C147.739 653.979 139.041 654.001 130.342 653.975L130.353 628.174Z"/><path fill="#FAFAFA" d="M1122.45 497.821L1122.31 523.596C1113.73 523.687 1105.15 523.653 1096.58 523.493C1096.38 515.125 1096.54 506.292 1096.57 497.886L1122.45 497.821Z"/><path fill="#FAFAFA" d="M417.819 1123.55L443.655 1123.54C443.648 1132.11 443.571 1140.68 443.425 1149.24C434.862 1149.4 426.297 1149.65 417.737 1149.39C417.572 1140.78 417.599 1132.17 417.819 1123.55Z"/><path fill="#FAFAFA" d="M626.562 915.419C635.146 915.256 643.732 915.201 652.317 915.254C652.369 923.837 652.494 932.452 652.205 941.029L626.677 940.99C626.324 932.469 626.489 923.949 626.562 915.419Z"/><path fill="#FAFAFA" d="M939.35 393.285L965.473 393.233L965.5 419.319C974.207 419.448 982.914 419.486 991.621 419.434L991.621 445.68C996.07 445.657 1013.19 445.303 1016.6 446.004C1011.27 446.827 995.51 445.785 992.642 446.779L992.511 449.743L991.945 449.925L991.368 446.364C989.502 445.026 969.458 445.547 965.488 445.462C965.475 453.78 965.689 463.265 965.401 471.485C956.693 471.707 947.983 471.755 939.273 471.629C939.32 463.482 939.627 453.697 939.306 445.678L913.256 445.446L913.259 419.585C921.967 419.477 930.676 419.433 939.386 419.452L939.35 393.285Z"/><path fill="#FAFAFA" d="M469.672 967.389C478.113 967.155 485.695 966.794 494.121 967.377L495.629 967.471L495.815 993.306C504.499 993.153 513.185 993.151 521.868 993.3C522.056 1002.15 522.268 1010.48 521.925 1019.33L495.611 1019.43C495.81 1028.05 495.858 1036.67 495.755 1045.29C487.11 1045.34 478.465 1045.31 469.821 1045.2C469.606 1036.6 469.54 1027.99 469.625 1019.39L443.815 1019.37C443.113 1011.82 443.521 1000.92 443.781 993.307C452.318 993.121 461.07 993.304 469.671 993.188C469.609 984.588 469.609 975.988 469.672 967.389Z"/><path fill="#FAFAFA" d="M495.781 262.379L521.777 262.379C521.966 270.925 521.817 279.873 521.791 288.454C530.555 288.489 539.318 288.44 548.08 288.308C548.007 297.117 547.982 305.927 548.006 314.736C552.618 314.468 554.632 314.456 559.222 314.846C554.758 315 552.877 315.465 548.521 316.401C548.053 315.741 547.573 315.089 547.082 314.446C543.617 314.044 527.055 314.557 522.091 314.513C522.094 321.896 522.375 334.016 521.738 340.997C530.503 340.8 539.272 340.833 548.036 341.097L548.012 366.91C538.959 366.953 531.082 367.416 521.985 366.862C521.894 358.16 521.899 349.457 522.001 340.755C513.277 340.941 504.55 340.889 495.829 340.6C495.711 337.302 495.715 333.804 495.667 330.488C495.357 328.499 495.733 317.126 495.78 314.425C500.272 314.443 515.431 314.646 519.123 313.871L518.665 313.843L520.027 313.827C514.275 313.355 499.461 314.902 496.872 312.779C496.212 307.532 496.557 294.829 496.579 289.008C503.072 289.058 514.483 289.42 520.53 288.652L520.496 288.407C512.116 288.402 504.035 288.452 495.667 287.955L495.781 262.379Z"/><path fill="#FAFAFA" d="M495.753 837.093C504.525 836.623 512.961 836.695 521.744 836.72C521.875 845.29 522.104 854.078 521.926 862.628C513.205 862.741 504.484 862.734 495.764 862.605L495.72 888.954C504.689 888.487 513.215 888.924 521.997 888.655L521.996 862.79L548.025 862.774L548.042 888.477C539.322 888.959 530.583 888.986 521.86 888.559C521.828 896.955 521.564 906.678 521.895 914.97C512.974 915.218 504.826 915.382 495.89 914.882C495.409 907.486 495.448 896.271 495.785 888.783C487.433 888.849 477.924 889.123 469.701 888.543C469.371 880.453 469.621 870.953 469.626 862.73L495.826 862.685C495.534 854.152 495.681 845.63 495.753 837.093Z"/><path fill="#FAFAFA" d="M417.684 862.749C426.304 862.764 435.068 862.864 443.674 862.773C443.631 870.794 443.887 880.655 443.524 888.456C434.739 888.854 426.543 888.838 417.74 888.794L417.622 915.34C426.29 915.245 434.958 915.229 443.626 915.291C443.69 924.125 443.702 932.314 443.35 941.133L469.722 941.027C469.4 949.145 469.606 958.738 469.571 966.974C460.967 967.17 452.361 967.235 443.755 967.171C443.329 958.508 443.509 949.648 443.569 940.957L417.733 941.056C417.51 932.265 417.627 923.875 417.77 915.077C409.285 915.333 400.439 915.187 391.918 915.155C391.53 906.374 391.594 897.559 391.575 888.766L417.76 888.771C417.494 880.405 417.68 871.178 417.684 862.749Z"/><path fill="#FAFAFA" d="M417.619 810.535L443.593 810.576L443.609 836.947C452.378 836.794 460.835 836.607 469.602 836.904L469.626 862.73C461.714 862.39 451.713 862.684 443.64 862.692C443.246 854.449 443.471 845.22 443.515 836.893L417.739 836.778C417.597 845.342 417.695 854.163 417.684 862.749L391.862 862.671C391.211 854.597 391.427 844.989 391.536 836.802C399.638 836.792 409.769 837.071 417.7 836.714C417.558 827.988 417.531 819.261 417.619 810.535Z"/><path fill="#FAFAFA" d="M521.967 915.248C530.581 915.221 539.524 915.08 548.104 915.378C548.103 923.85 547.982 932.607 548.113 941.052L522.018 941.028C522.057 949.684 522.199 958.593 521.974 967.224C513.371 967.234 504.275 967.389 495.714 967.159C495.456 958.157 495.608 950.099 495.853 941.082C504.29 940.973 513.716 940.667 522.067 940.935C521.787 932.197 521.855 923.996 521.967 915.248Z"/><path fill="#FAFAFA" d="M495.747 104.79L521.832 104.782C521.869 113.022 522.245 122.806 521.915 130.868C530.616 130.749 539.318 130.804 548.016 131.031L548.079 157.2C539.837 157.205 530.288 157.448 522.154 157.151C521.854 148.392 521.75 139.628 521.84 130.864C513.644 130.856 503.78 131.102 495.716 130.729C495.339 121.983 495.575 113.539 495.747 104.79Z"/><path fill="#FAFAFA" d="M521.996 183.456C530.391 183.361 539.675 183.08 547.986 183.456L548.023 209.768C539.607 209.765 530.286 210.083 521.99 209.782C522.067 218.262 521.616 227.618 521.86 235.809C513.155 235.849 504.449 235.818 495.743 235.715C495.615 227.14 495.601 218.564 495.699 209.988C504.335 209.74 513.541 209.512 522.183 209.899C521.96 201.086 521.898 192.271 521.996 183.456Z"/><path fill="#FAFAFA" d="M626.492 183.391L652.405 183.391C652.424 192.136 652.356 200.881 652.201 209.624C643.747 209.943 635.284 209.97 626.829 209.708C626.82 218.389 626.712 227.07 626.506 235.749C617.78 235.893 609.052 235.874 600.326 235.69C600.141 227.081 600.102 218.47 600.208 209.859C608.652 209.824 618.287 210.025 626.623 209.74C626.563 200.978 626.446 192.147 626.492 183.391Z"/><path fill="#FAFAFA" d="M631.48 967.125C638.713 966.937 645.089 967.021 652.313 967.211C652.429 975.851 652.435 984.492 652.333 993.131C643.74 993.196 635.147 993.2 626.554 993.142C626.569 996.704 627.001 1017.89 625.871 1019.26L621.067 1019.36L600.252 1019.36L600.214 993.286L626.699 993.305C626.439 988.221 626.154 972.763 626.827 968.171C628.53 966.935 628.972 967.327 631.48 967.125Z"/><path fill="#FAFAFA" d="M391.806 784.382L417.642 784.435L417.74 810.35C409.017 810.703 400.284 810.683 391.563 810.292C391.65 819.142 391.604 827.992 391.425 836.84C382.707 836.896 374.195 836.998 365.482 836.63C365.329 828.181 365.478 819.279 365.483 810.793C374.334 810.453 383.027 810.619 391.88 810.724C391.011 802.805 391.526 792.44 391.806 784.382Z"/><path fill="#FAFAFA" d="M521.996 26.2987C530.805 25.9362 539.182 26.0427 548.002 26.1373L548.224 52.0492L521.828 52.1504C521.598 60.5346 521.885 69.9229 521.979 78.3854C513.419 78.5701 504.423 78.4456 495.828 78.4592C495.434 70.4103 495.675 60.5419 495.667 52.3582C504.494 52.4046 513.071 52.1364 521.996 52.2741L521.996 26.2987Z"/><path fill="#FAFAFA" d="M548.154 209.952C556.739 209.888 565.575 209.722 574.138 209.85L574.222 235.857L600.129 235.79C600.164 244.003 600.462 254.028 600.153 262.136L574.173 262.157C574.203 253.361 574.173 244.564 574.081 235.769C565.51 235.841 556.937 235.814 548.366 235.686C548.11 227.111 548.039 218.531 548.154 209.952Z"/><path fill="#FAFAFA" d="M574.192 1071.41L600.139 1071.37C600.187 1079.9 600.35 1088.77 600.161 1097.27L626.562 1097.26C626.692 1105.99 626.668 1114.72 626.489 1123.45C618.029 1123.19 609.026 1123.46 600.331 1123.24C600.158 1114.55 600.141 1105.86 600.282 1097.16L574.256 1097.24L574.192 1071.41Z"/><path fill="#FAFAFA" d="M574.279 1045.25L574.212 1071.31C565.746 1071.35 556.391 1071.56 548.012 1071.2C548.04 1079.57 548.284 1088.91 548.067 1097.2L522.054 1097.2C521.652 1089.22 521.954 1079.59 522.03 1071.47L548.088 1071.53L548.083 1045.29C556.814 1045.43 565.548 1045.42 574.279 1045.25Z"/><path fill="#FAFAFA" d="M1044.28 315.026L1069.55 314.932C1069.41 324.225 1070 331.892 1070.1 340.918C1070.46 349.08 1070.22 358.827 1070.22 367.106C1062.72 366.759 1051.84 367.127 1044.12 367.119C1044.04 358.551 1043.81 349.475 1044.12 340.959C1044.47 332.509 1044.3 323.527 1044.28 315.026Z"/><path fill="#FAFAFA" d="M574.249 52.1426C574.089 60.7461 574.247 69.8488 574.252 78.4929C565.546 78.699 556.837 78.734 548.13 78.5977C548.008 69.7901 547.993 60.9813 548.086 52.1733L574.249 52.1426Z"/><path fill="#FAFAFA" d="M626.688 1149.39C626.748 1158.12 626.701 1166.85 626.547 1175.58C617.826 1175.71 609.105 1175.71 600.385 1175.61C599.895 1168.01 600.278 1157.49 600.308 1149.61C608.784 1149.27 618.144 1149.42 626.688 1149.39Z"/><path fill="#FAFAFA" d="M948.916 130.727L965.394 130.841L965.463 157.112L958.41 157.237L939.414 157.275L939.35 130.877L948.916 130.727Z"/><path fill="#FAFAFA" d="M574.476 183.333C582.906 183.393 591.82 183.1 600.161 183.631C600.198 192.057 600.453 201.518 600.208 209.859C592.267 209.827 581.951 210.123 574.26 209.635C574.108 204.483 573.785 188.071 574.476 183.333Z"/><path fill="#FAFAFA" d="M548.169 888.906C556.78 888.775 565.391 888.728 574.003 888.766C574.241 897.609 574.315 906.455 574.224 915.301C566.194 915.257 556.172 915.492 548.329 915.059C548.06 906.154 548.276 897.716 548.169 888.906Z"/><path fill="#FAFAFA" d="M469.701 888.543C469.382 896.806 469.628 906.595 469.626 914.975C462.208 914.653 451.32 915.091 443.686 915.276C443.259 906.728 443.483 897.546 443.616 888.987C451.861 888.551 461.36 888.647 469.701 888.543Z"/><path fill="#FAFAFA" d="M600.213 367.173C609 367.265 617.745 367.054 626.514 367.083C626.583 371.11 627.291 391.133 626.049 393.092C620.928 393.136 603.426 394.401 600.532 392.095C599.508 389.509 600.237 371.831 600.213 367.173Z"/><path fill="#FAFAFA" d="M600.203 157.258C608.985 157.117 617.77 157.134 626.552 157.31C626.558 165.713 626.748 174.862 626.523 183.204C618.215 183.277 608.565 183.573 600.371 183.238L600.203 157.258Z"/><path fill="#FAFAFA" d="M548.113 941.052C556.817 940.867 565.524 940.86 574.229 941.033L574.236 967.166C565.542 967.345 556.846 967.326 548.153 967.108C547.842 958.444 548.021 949.724 548.113 941.052Z"/><path fill="#FAFAFA" d="M600.221 104.947C608.713 104.595 618.178 104.782 626.752 104.792C626.731 113.463 626.626 122.134 626.437 130.804C617.753 130.921 609.068 130.888 600.385 130.707C600.089 122.535 600.262 113.21 600.221 104.947Z"/><path fill="#FAFAFA" d="M339.241 888.766L365.469 888.839L365.476 915.083L339.539 915.083L339.241 888.766Z"/><path fill="#FAFAFA" d="M991.634 393.199C1000.41 393.156 1009.18 393.174 1017.95 393.253L1017.95 419.398L991.9 419.366C991.342 411.757 991.626 401.057 991.634 393.199Z"/><path fill="#FAFAFA" d="M495.755 1045.29L522.028 1045.3L522.036 1071.33C513.281 1071.41 504.526 1071.42 495.772 1071.35C495.407 1062.67 495.402 1053.97 495.755 1045.29Z"/><path fill="#FAFAFA" d="M365.613 758.213C374.211 758.094 382.81 758.153 391.405 758.39C391.755 767.013 391.857 775.644 391.711 784.273C383.352 784.57 373.953 784.36 365.518 784.347C365.399 775.636 365.431 766.923 365.613 758.213Z"/><path fill="#FAFAFA" d="M600.371 888.919C608.957 888.652 617.899 888.809 626.518 888.853C626.599 894.848 627.009 909.646 626.111 915.1L600.392 915.104C600.071 906.604 600.278 897.441 600.371 888.919Z"/><path fill="#FAFAFA" d="M652.414 993.289L678.649 993.243C678.714 1000.1 679.124 1012.57 678.482 1019.04C670.053 1019.58 660.925 1019.41 652.424 1019.4C652.159 1010.92 652.36 1001.82 652.414 993.289Z"/><path fill="#FAFAFA" d="M1044.01 183.415C1052.64 183.537 1061.55 183.407 1070.21 183.391L1070.18 209.708L1044.06 209.701L1044.01 183.415Z"/><path fill="#FAFAFA" d="M495.658 1097.27L521.849 1097.28C522.109 1105.29 521.999 1115.36 521.694 1123.35C513.27 1123.59 504.273 1123.41 495.8 1123.37C495.375 1114.51 495.534 1106.14 495.658 1097.27Z"/><path fill="#FAFAFA" d="M652.243 210.012C659.958 209.523 670.771 209.818 678.714 209.803C678.641 218.446 678.619 227.089 678.651 235.732C669.926 235.85 661.201 235.861 652.476 235.767C652.063 227.915 652.283 218.016 652.243 210.012Z"/><path fill="#FAFAFA" d="M286.873 784.38L312.902 784.415C313.068 793.015 313.053 801.618 312.858 810.218C304.746 810.84 295.34 810.585 287.105 810.535C286.327 802.973 286.757 792.14 286.873 784.38Z"/><path fill="#FAFAFA" d="M704.552 52.3582C712.422 52.3818 722.704 52.6699 730.356 52.137C731.089 58.4255 730.601 71.5049 730.51 78.4037C721.478 78.6288 713.651 78.6909 704.627 78.3945C704.463 69.7167 704.439 61.0368 704.552 52.3582Z"/><path fill="#FAFAFA" d="M730.792 26.1018L756.837 26.0291L756.772 52.0817L730.356 52.137C730.896 50.2241 730.78 29.1904 730.792 26.1018Z"/><path fill="#FAFAFA" d="M548.139 262.199C556.496 262.192 565.909 262.408 574.173 262.157C574.187 270.707 574.359 279.741 574.21 288.248L548.08 288.308C548.34 280.108 548.012 270.681 548.139 262.199Z"/><path fill="#FAFAFA" d="M501.802 367.055C508.43 366.844 515.184 367.003 521.824 367.078C521.7 372.636 523.2 389.502 520.7 392.897L518.163 393.129C510.709 393.204 503.132 393.126 495.667 393.119C495.647 386.497 495.305 374.175 496.007 368.051C497.282 366.97 499.954 367.142 501.802 367.055Z"/><path fill="#FAFAFA" d="M548.067 1097.2C556.306 1097.23 566.15 1097.53 574.256 1097.24L574.226 1123.4C565.551 1123.41 556.698 1123.51 548.039 1123.39C548.163 1114.74 548.066 1105.87 548.067 1097.2Z"/><path fill="#FAFAFA" d="M521.86 235.809L548.168 235.893C548.039 244.661 548.029 253.43 548.139 262.199L522.015 262.104C521.718 253.346 521.826 244.573 521.86 235.809Z"/><path fill="#FAFAFA" d="M456.023 1149.6C458.728 1149.19 466.756 1149.39 469.632 1149.41L469.664 1175.55L458.741 1175.72C453.871 1175.86 448.529 1175.66 443.621 1175.58L443.621 1149.61L456.023 1149.6Z"/><path fill="#FAFAFA" d="M495.667 157.375C504.402 157.183 513.14 157.184 521.875 157.378C521.869 165.89 521.927 174.402 522.05 182.913C518.648 183.721 500.017 183.259 495.732 183.204C495.492 174.92 495.678 165.731 495.667 157.375Z"/><path fill="#FAFAFA" d="M652.417 52.3582L678.733 52.3582L678.653 78.4693C669.908 78.4991 661.163 78.4557 652.419 78.3389L652.417 52.3582Z"/><path fill="#FAFAFA" d="M574.237 104.709L574.13 130.942L548.234 130.908C547.868 122.73 548.094 113.034 548.087 104.744C556.566 104.752 565.822 104.948 574.237 104.709Z"/><path fill="#FAFAFA" d="M530.627 967.169C536.037 966.887 542.56 967.083 547.966 967.407L548.042 993.135L537.45 993.235C532.578 993.396 527.019 993.2 522.095 993.14C521.76 984.56 521.744 975.971 522.045 967.389L530.627 967.169Z"/><path fill="#FAFAFA" d="M548.079 157.2C554.517 157.385 567.834 157.603 574.237 157.219C573.982 165.401 574.213 174.823 574.213 183.105C565.515 183.391 556.809 183.41 548.109 183.161L548.079 157.2Z"/><path fill="#FAFAFA" d="M712.271 367.042L730.605 367.072C730.69 375.734 730.66 384.396 730.516 393.057L721.754 393.117C716.027 393.202 710.298 393.21 704.57 393.141C704.32 384.631 704.561 375.859 704.69 367.321L712.271 367.042Z"/><path fill="#FAFAFA" d="M600.189 1045.25L626.688 1045.35C626.72 1053.94 626.633 1062.53 626.424 1071.12C617.733 1071.47 609.033 1071.51 600.34 1071.24C600.342 1062.57 600.292 1053.91 600.189 1045.25Z"/><path fill="#FAFAFA" d="M339.294 732.258C348.014 731.974 356.727 732.151 365.45 732.254L365.491 758.078C356.745 758.16 347.999 758.148 339.254 758.042L339.294 732.258Z"/><path fill="#FAFAFA" d="M574.106 130.972C582.677 130.916 591.674 130.72 600.21 130.87L600.203 157.258L574.237 157.219L574.106 130.972Z"/><path fill="#FAFAFA" d="M469.669 78.769C478.341 78.6044 487.014 78.5703 495.687 78.6668C495.749 87.2482 495.917 96.0937 495.635 104.648L469.719 104.698C469.593 96.0555 469.576 87.4118 469.669 78.769Z"/><path fill="#FAFAFA" d="M521.925 1019.33L548.062 1019.49L548.083 1045.29C539.333 1045.1 531.291 1045.7 522.164 1045.25C521.811 1036.42 521.85 1028.17 521.925 1019.33Z"/><path fill="#FAFAFA" d="M574.219 993.232L574.243 1019.4L548.244 1019.39C547.896 1011.3 548.18 1001.49 548.213 993.276L574.219 993.232Z"/><path fill="#FAFAFA" d="M1043.95 445.762L1070.28 445.739L1070.2 471.699L1044.04 471.507L1043.95 445.762Z"/><path fill="#FAFAFA" d="M971.1 471.744C977.952 471.624 984.805 471.685 991.654 471.925C991.696 476.093 992.336 495.31 991.023 497.561L988.413 497.72C981.755 497.785 971.981 498.028 965.536 497.348C965.48 491.837 965.058 477.276 965.899 472.629C967.316 471.608 969.241 471.816 971.1 471.744Z"/><path fill="#FAFAFA" d="M835.079 104.711L835.057 130.864C827.678 130.467 817.124 130.872 809.201 130.727C808.684 123.011 808.948 112.817 808.956 104.9L835.079 104.711Z"/><path fill="#FAFAFA" d="M600.227 262.379L626.641 262.379L626.647 288.309C617.897 288.395 609.146 288.385 600.397 288.278C600.127 279.852 600.247 270.854 600.227 262.379Z"/><path fill="#FAFAFA" d="M469.719 104.698C469.279 112.201 469.602 123.053 469.592 130.81C460.953 130.909 452.371 131.124 443.746 130.595C443.259 123.492 443.616 112.208 443.621 104.8C452.32 104.813 461.02 104.779 469.719 104.698Z"/><path fill="#FAFAFA" d="M600.158 967.052C600.147 975.715 600.06 984.496 600.159 993.147C591.513 993.313 582.865 993.341 574.219 993.232C574.131 984.604 574.126 975.977 574.203 967.349C582.853 967.091 591.514 967.289 600.158 967.052Z"/><path fill="#FAFAFA" d="M574.198 26.2261C582.525 26.1347 591.931 25.8412 600.167 26.1252L600.295 52.2058L574.249 52.1426C574.23 43.6481 574.055 34.6782 574.198 26.2261Z"/><path fill="#FAFAFA" d="M455.099 262.373C458.947 261.918 465.542 262.106 469.612 262.103L469.564 288.275L458.769 288.314L443.654 288.316L443.621 262.379L455.099 262.373Z"/><path fill="#FAFAFA" d="M521.987 78.6822C530.655 78.5499 539.325 78.5962 547.992 78.8212L548.087 104.744L522.023 104.637C521.833 95.9863 521.821 87.333 521.987 78.6822Z"/><path fill="#FAFAFA" d="M391.808 157.38C400.178 157.117 409.208 157.26 417.632 157.249C417.683 165.872 417.665 174.496 417.578 183.119C408.944 183.304 400.307 183.362 391.671 183.293C391.285 174.858 391.603 165.845 391.808 157.38Z"/><path fill="#FAFAFA" d="M551.784 367.074C559.198 366.821 566.621 366.949 574.022 367.457C574.06 368.367 574.298 394.623 574.57 393.592L572.658 393.084L548.079 393.158C548.025 386.962 547.577 373.598 548.277 368.075C549.701 366.814 549.382 367.224 551.784 367.074Z"/><path fill="#FAFAFA" d="M260.996 706.265C269.622 706.186 278.249 706.159 286.875 706.184C287.054 714.828 287.075 723.474 286.938 732.119C278.297 732.181 269.655 732.172 261.014 732.091C260.854 723.483 260.848 714.873 260.996 706.265Z"/><path fill="#FAFAFA" d="M78.1998 888.85C86.7953 888.741 95.3918 888.743 103.987 888.855L104.027 914.961C95.3264 915.069 87.0395 915.157 78.3476 914.887C77.7599 907.097 78.0595 896.703 78.1998 888.85Z"/><path fill="#FAFAFA" d="M574.228 341.056C582.878 340.909 591.535 340.691 600.183 340.901L600.213 367.173L574.166 367.099C574.136 358.49 574.005 349.641 574.228 341.056Z"/><path fill="#FAFAFA" d="M652.457 157.369C661.216 157.166 669.979 157.159 678.738 157.349L678.559 183.093C669.482 183.383 661.674 183.353 652.58 183.176C652.253 174.812 652.431 165.791 652.457 157.369Z"/><path fill="#FAFAFA" d="M887.228 393.236C894.327 393.145 906.573 392.741 913.246 393.593L913.246 419.39C904.577 419.425 895.908 419.406 887.239 419.33C887.089 410.633 887.086 401.933 887.228 393.236Z"/><path fill="#FAFAFA" d="M704.467 209.948C712.682 209.599 722.344 209.775 730.674 209.717L730.548 235.745L704.779 235.772C704.235 227.838 704.462 218.052 704.467 209.948Z"/><path fill="#FAFAFA" d="M600.227 941.053L626.644 941.065C626.603 949.585 626.664 958.344 626.473 966.841L600.158 967.052C600.419 958.824 600.209 949.381 600.227 941.053Z"/><path fill="#FAFAFA" d="M313.022 706.265C321.24 706.221 331.13 705.899 339.209 706.179L339.186 732.102L313.041 732.289L313.022 706.265Z"/><path fill="#FAFAFA" d="M626.7 235.846L652.47 235.811L652.293 261.339C649.888 262.982 630.679 262.131 626.7 262.06L626.7 235.846Z"/><path fill="#FAFAFA" d="M574.218 78.7703C582.661 78.6549 591.765 78.4224 600.181 78.6916L600.149 104.681L574.237 104.709C574.182 96.0628 574.176 87.4165 574.218 78.7703Z"/><path fill="#FAFAFA" d="M156.524 862.785L182.643 862.718C182.67 867.127 183.349 885.813 181.727 888.523C172.897 888.97 165.286 888.845 156.482 888.6C156.368 879.995 156.382 871.389 156.524 862.785Z"/><path fill="#FAFAFA" d="M287.005 732.281C295.582 732.127 304.441 732.259 313.041 732.289L312.961 758.109C304.394 758.263 295.496 758.151 286.902 758.163C286.663 749.502 286.861 740.943 287.005 732.281Z"/><path fill="#FAFAFA" d="M234.656 523.695L260.814 523.654C260.866 532.282 260.868 540.91 260.819 549.537C252.126 549.531 243.433 549.587 234.741 549.704C234.337 541.598 234.606 531.931 234.656 523.695Z"/><path fill="#FAFAFA" d="M782.838 26.2942C791.536 25.9805 800.241 25.9398 808.942 26.1722C809.048 34.8254 809.053 43.4795 808.955 52.1328L782.84 52.1893L782.838 26.2942Z"/><path fill="#FAFAFA" d="M469.715 915.319C477.539 915.328 488.11 915.628 495.785 915.224C495.79 923.534 495.982 932.733 495.716 940.97L469.722 941.027C469.635 932.478 469.458 923.858 469.715 915.319Z"/><path fill="#FAFAFA" d="M574.254 1123.58L600.15 1123.51L600.275 1149.33C591.597 1149.52 582.916 1149.56 574.236 1149.45C573.747 1142.22 574.179 1131.1 574.254 1123.58Z"/><path fill="#FAFAFA" d="M1096.57 288.53C1105.17 288.403 1113.77 288.397 1122.37 288.512C1122.42 297.076 1122.4 305.641 1122.33 314.205C1114.16 314.745 1104.8 314.589 1096.63 314.282C1096.36 305.703 1096.5 297.115 1096.57 288.53Z"/><path fill="#FAFAFA" d="M574.243 1019.4C582.762 1019.37 591.627 1019.23 600.111 1019.51L600.189 1045.25C591.552 1045.38 582.915 1045.38 574.279 1045.25C574.114 1036.63 574.102 1028.02 574.243 1019.4Z"/><path fill="#FAFAFA" d="M443.829 157.398C452.565 157.064 460.906 157.207 469.649 157.329L469.613 183.197C460.971 183.365 452.327 183.367 443.686 183.202C443.541 174.601 443.588 165.997 443.829 157.398Z"/><path fill="#FAFAFA" d="M939.346 235.933C947.659 235.678 956.907 235.871 965.292 235.868L965.292 262.096C956.732 262.214 947.955 262.123 939.376 262.135L939.346 235.933Z"/><path fill="#FAFAFA" d="M78.0588 732.262C86.7035 732.102 95.3506 732.115 103.995 732.301L104.02 758.092C95.3768 758.219 86.7318 758.215 78.0884 758.077C77.9751 749.472 77.9653 740.867 78.0588 732.262Z"/><path fill="#FAFAFA" d="M574.224 915.301C582.773 915.221 591.68 915.01 600.186 915.384C600.208 923.713 600.42 932.787 600.227 941.053C592.663 940.671 582.03 941.021 574.229 941.033C573.907 933.036 574.184 923.421 574.224 915.301Z"/><path fill="#FAFAFA" d="M574.108 862.789L600.124 862.705C600.172 871.317 600.164 879.929 600.099 888.54C591.82 888.998 582.482 888.75 574.182 888.603C573.907 880.348 574.1 871.12 574.108 862.789Z"/><path fill="#FAFAFA" d="M521.955 1123.71C530.485 1123.43 539.416 1123.56 548.039 1123.39C548.159 1132.04 548.14 1140.69 547.983 1149.34C539.323 1149.48 530.662 1149.48 522.001 1149.36L521.955 1123.71Z"/><path fill="#FAFAFA" d="M835.148 78.8245C843.639 78.7235 852.44 78.5032 860.905 78.5731L860.939 104.679C852.481 104.665 843.492 104.504 835.079 104.711C834.946 96.0824 834.969 87.4522 835.148 78.8245Z"/><path fill="#FAFAFA" d="M691.003 78.6763C695.211 78.5535 700.219 78.737 704.488 78.7818C704.606 87.3904 704.592 96.0002 704.447 104.608L692.364 104.697L678.761 104.668C678.301 96.3136 678.575 87.2008 678.754 78.8342L691.003 78.6763Z"/><path fill="#FAFAFA" d="M637.553 78.7012C642.421 78.5579 647.547 78.6041 652.437 78.5692C652.481 87.2652 652.405 95.9614 652.209 104.655L642.461 104.689L626.935 104.608C626.298 95.991 626.513 87.4044 626.604 78.7689L637.553 78.7012Z"/><path fill="#FAFAFA" d="M26.2354 784.495L52.0327 784.399C52.1763 793.103 52.1608 801.81 51.9859 810.514L26.2577 810.49C25.8217 802.054 26.1105 792.997 26.2354 784.495Z"/><path fill="#FAFAFA" d="M626.489 1123.45C635.225 1123.73 643.728 1123.53 652.437 1123.57C652.419 1132.02 652.534 1140.95 652.246 1149.36C643.727 1149.53 635.207 1149.54 626.688 1149.39C626.325 1141.22 626.516 1131.72 626.489 1123.45Z"/><path fill="#FAFAFA" d="M286.871 628.215C295.532 628.004 304.196 627.975 312.858 628.13L313.018 653.957C304.378 654.033 295.737 654.025 287.097 653.931C286.605 646.309 286.872 636.049 286.871 628.215Z"/><path fill="#FAFAFA" d="M965.628 157.395C974.293 157.337 982.957 157.326 991.621 157.363L991.621 183.164C982.781 183.284 974.377 183.412 965.546 183.085C965.489 174.522 965.516 165.958 965.628 157.395Z"/><path fill="#FAFAFA" d="M286.871 680.267C295.536 680.182 304.201 680.165 312.867 680.216C312.922 688.848 312.934 697.481 312.902 706.113C304.226 706.17 295.55 706.169 286.874 706.11L286.871 680.267Z"/><path fill="#FAFAFA" d="M1096.46 445.738C1104.81 445.47 1114.05 445.631 1122.47 445.602C1122.48 454.228 1122.44 462.854 1122.35 471.48C1113.75 471.618 1105.16 471.625 1096.56 471.5L1096.46 445.738Z"/><path fill="#FAFAFA" d="M809.167 52.3582L835.109 52.3582C835.222 60.9651 835.085 69.8635 835.067 78.495C826.434 78.4376 817.8 78.4254 809.167 78.4586L809.167 52.3582Z"/><path fill="#FAFAFA" d="M822.794 262.374C825.406 262.064 831.94 262.329 834.871 262.379L834.871 288.068C830.587 288.125 826.303 288.205 822.019 288.306C817.962 288.379 813.275 288.155 809.167 288.051L809.167 262.379L822.794 262.374Z"/><path fill="#FAFAFA" d="M887.452 105.004L912.617 105.004C912.989 113.364 912.337 122.376 913.021 130.433C910.653 130.966 891.427 130.715 887.53 130.733L887.452 105.004Z"/><path fill="#FAFAFA" d="M965.905 288.696L991.077 288.694C991.022 293.845 990.632 309.651 991.705 313.756C989.484 314.704 970.28 313.808 965.905 313.812L965.905 288.696Z"/><path fill="#FAFAFA" d="M392.185 1019.69C400.557 1019.64 408.929 1019.69 417.299 1019.83C417.245 1028.23 417.284 1036.63 417.416 1045.02C409.003 1044.9 400.589 1044.88 392.175 1044.96L392.185 1019.69Z"/></svg>