<?xml version="1.0" encoding="utf-8" ?><svg xmlns="http://www.w3.org/2000/svg" xmlns:xlink="http://www.w3.org/1999/xlink" width="1254" height="1254" viewBox="0 0 1254 1254"><path fill="#FDFDFD" d="M0 0L1254 0L1254 1254L0 1254L0 0Z"/><path fill="#00394F" d="M621.832 313.429C781.331 310.867 912.74 438.026 915.421 597.522C918.103 757.019 791.043 888.523 631.548 891.324C471.884 894.129 340.21 766.904 337.525 607.238C334.841 447.572 462.164 315.993 621.832 313.429Z"/><path fill="#FDFDFD" d="M614.52 327.843C630.451 326.27 656.451 328.801 672.14 331.457C742.08 344.005 804.263 383.598 845.223 441.661C889.725 504.583 904.774 577.466 891.799 653.094C873.306 619.057 843.102 598.586 804.169 594.939C737.804 588.722 682.536 631.048 634.337 670.88L626.711 677.693C601.999 656.854 580.059 638.936 552.213 622.081C500.276 590.642 432.861 579.237 383.934 623.076C373.633 632.305 367.869 641.633 360.961 653.407C359.124 641.793 357.825 631.779 357.084 620.017C352.075 546.799 376.689 474.638 425.399 419.745C474.786 363.746 540.176 332.499 614.52 327.843Z"/><path fill="#00394F" d="M618.903 432.175C659.71 427.979 696.191 457.662 700.38 498.469C704.57 539.277 674.881 575.753 634.073 579.936C593.274 584.118 556.808 554.438 552.619 513.64C548.43 472.841 578.105 436.37 618.903 432.175Z"/><path fill="#FDFDFD" d="M620.417 448.689C652.09 445.306 680.519 468.213 683.951 499.881C687.383 531.549 664.521 560.013 632.858 563.494C601.126 566.982 572.586 544.059 569.146 512.322C565.707 480.585 588.674 452.08 620.417 448.689Z"/><path fill="#FDFDFD" d="M626.557 699.315C662.678 731.271 703.493 760.488 752.028 769.017C788.553 775.434 825.071 768.508 855.627 747.068C847.186 762.785 829.469 784.337 817.086 796.849C767.045 847.783 698.846 876.792 627.446 877.513C607.291 877.418 587.208 875.106 567.559 870.619C494.751 853.968 436.054 809.121 396.675 746.247C452.427 785.418 515.608 775.196 570.613 741.561C591.387 728.859 607.897 714.829 626.557 699.315Z"/><path fill="#FDFDFD" d="M453.271 611.328C508.428 603.819 574.647 653.792 613.97 688.339C588.209 712.162 555.667 733.428 522.862 745.94C513.835 749.038 502.916 751.915 493.472 753.325C461.657 758.222 429.211 750.114 403.44 730.826C391.288 721.702 372.802 701.989 370.891 686.316C369.197 672.421 378.367 653.482 387.373 643.116C405.1 622.714 427.011 613.645 453.271 611.328Z"/><path fill="#FDFDFD" d="M783.138 611.336C815.949 608.224 851.956 622.117 870.541 649.903C876.479 658.78 884.783 677.538 881.732 688.496C876.617 706.862 859.104 724.648 843.508 734.941C809.23 756.254 781.764 758.241 743.875 750.164C703.311 738.781 670.348 716.275 639.228 688.347C681.079 653.55 726.707 615.701 783.138 611.336Z"/></svg>