<?xml version="1.0" encoding="utf-8" ?><svg xmlns="http://www.w3.org/2000/svg" xmlns:xlink="http://www.w3.org/1999/xlink" width="1254" height="1254" viewBox="0 0 1254 1254"><path fill="#FBFAFA" d="M0 0L1254 0L1254 1254L0 1254L0 0Z"/><path fill="#042F5A" d="M586.609 287.426C595.696 286.761 602.379 287.391 609.825 293.328C622.373 303.332 620.425 318.981 620.345 333.144L620.286 365.914L620.302 490.354L620.258 529.225C620.252 537.267 620.054 546.032 620.707 553.948C622.88 580.318 637.023 602.372 655.564 620.679C677.174 642.015 699.545 657.493 729.214 666.169C739.208 669.064 749.462 670.972 759.828 671.865C773.758 673.06 795.244 672.398 809.759 672.396L898.998 672.369C911.083 672.361 925.105 671.421 936.885 672.602C956.587 674.577 956.715 690.456 953.327 704.904C941.131 756.907 914.485 805.956 879.041 845.721C821.797 910.6 741.233 950.228 654.902 955.972C643.496 957.225 628.433 956.943 616.867 956.578C538.806 954.253 463.853 925.463 404.308 874.933C337.756 818.295 295.997 737.872 287.955 650.852C280.493 560.727 309.274 471.346 367.924 402.51C422.814 336.84 501.401 295.483 586.609 287.426Z"/><path fill="#FBFAFA" d="M584.561 313.139C588.767 312.72 593.295 312.323 593.724 318.081C594.208 324.574 593.997 331.24 593.987 337.761L593.93 374.357L593.938 491.409C593.928 512.233 593.268 534.241 594.376 554.954C596.282 590.616 618.615 622.151 643.544 645.967C674.147 675.206 714.136 694.368 756.48 697.684C772.699 698.954 789.965 698.402 806.214 698.384L890.265 698.427C896.596 698.468 922.575 697.39 926.554 699.294C930.039 703.538 925.291 713.327 923.795 718.241C911.938 756.123 892.699 791.281 867.186 821.689C814.977 884.67 739.839 924.269 658.375 931.737C574.715 939.023 491.513 913.383 426.466 860.27C363.24 809.118 322.808 735.039 313.99 654.192C305.606 570.704 330.869 487.32 384.179 422.523C433.931 361.06 505.954 321.744 584.561 313.139Z"/><path fill="#042F5A" d="M703.695 250.524C715.16 249.428 730.893 251.494 742.42 253.524C793.444 262.639 841.404 284.287 881.994 316.521C950.057 369.966 994.183 448.192 1004.72 534.088C1006.05 545.338 1008.17 579.872 1005.91 590.265C1004.95 594.86 1002.91 599.157 999.943 602.795C994.465 609.428 987.88 611.837 979.665 612.692C964.046 613.119 946.866 612.774 931.151 612.761L846.696 612.772L801.454 612.777C790.022 612.793 776.467 613.222 765.375 611.514C750.675 609.185 736.6 603.9 724.001 595.978C702.308 582.633 682.437 560.381 677.135 535.07C675.163 525.661 675.844 501.812 675.856 491.471L675.888 413.19L675.853 326.741C675.843 311.098 675.499 295.022 676.223 279.41C676.938 263.97 689.166 253.797 703.695 250.524Z"/><path fill="#FBFAFA" d="M707.19 276.207C741.651 273.661 791.385 291.95 821.535 307.687C917.233 357.638 979.684 459.511 981.288 567.398C981.377 573.347 983.418 584.954 976.167 586.796L845.813 586.838L799.902 586.899C791.726 586.883 779.942 587.19 772.034 586.246C749.749 583.585 727.848 570.966 714.148 553.238C709.887 547.427 703.667 537.748 702.905 530.459C700.849 510.807 701.723 489.505 701.719 469.743L701.739 354.586L701.676 304.996C701.665 297.702 701.46 289.41 701.957 282.143C702.132 279.582 705.228 277.556 707.19 276.207Z"/></svg>