<?xml version="1.0" encoding="utf-8" ?><svg xmlns="http://www.w3.org/2000/svg" xmlns:xlink="http://www.w3.org/1999/xlink" width="1254" height="1254" viewBox="0 0 1254 1254"><path fill="white" d="M0 0L30.0055 0L60.9304 0L91.5127 0L183.38 0L213.769 0L244.663 0L274.91 0L305.666 0L336.044 0L366.769 0L397.535 0L427.964 0L458.682 0L489.225 0L519.938 0L550.403 0L581.053 0L611.663 0L641.98 0L733.853 0L764.6 0L795.444 0L826.012 0L917.561 0L948.01 0L1040.16 0L1070.83 0L1101.46 0L1131.69 0L1223.7 0L1254 0L1254 31.1962L1254 307.229L1254 337.379L1254 429.176L1254 459.848L1254 795.944L1254 826.582L1254 857.197L1254 887.9L1254 918.355L1254 948.535L1254 1254L642.014 1254L611.617 1254L581.042 1254L550.368 1254L519.913 1254L489.307 1254L458.635 1254L428.017 1254L397.571 1254L366.761 1254L30.0562 1254L0 1254L0 1223.88L0 887.798L0 857.183L0 398.579L0 368.228L0 276.243L0 245.49L0 215.044L0 184.293L0 31.2642L0 0Z"/><path fill="#F9F9F9" d="M183.38 0L213.769 0L244.663 0L274.91 0L305.666 0L336.044 0L366.769 0L397.535 0L427.964 0L458.682 0L489.225 0L519.938 0L550.403 0L581.053 0L611.663 0L641.98 0C641.779 10.4193 641.877 20.8422 642.272 31.2559C632.061 31.1198 621.849 31.1379 611.638 31.3102C611.618 41.1058 611.354 52.1762 611.727 61.8687C601.494 61.9438 591.26 61.9385 581.026 61.8527L581.116 92.3779C570.885 92.6107 560.685 92.4312 550.468 92.6133L550.495 130.615C550.486 137.536 550.713 146.52 550.148 153.278C545.88 154.896 497.548 153.986 489.296 154.258L489.283 184.276L520.026 184.171L519.849 214.977C529.98 215.067 540.111 215.041 550.241 214.9L550.426 184.19C560.647 184.302 570.868 184.296 581.089 184.173C580.935 194.52 580.953 204.87 581.144 215.216C570.899 215.036 560.651 215.006 550.405 215.127L550.46 245.565C542.747 246.168 528.171 245.728 519.942 245.742L519.939 276.228C509.691 276.181 499.443 276.224 489.196 276.357L489.223 245.532C482.207 246.057 465.729 245.844 458.588 245.551C458.339 235.778 458.564 225.077 458.574 215.231L428.079 215.231C427.993 225.366 427.997 235.502 428.091 245.637L397.342 245.664C397.668 235.788 397.461 225.017 397.452 215.073C387.236 214.986 377.019 215.021 366.803 215.176C366.84 219.028 366.758 221.56 366.427 225.395C366.21 222.779 366.301 220.179 366.392 217.559C366.776 206.468 366.757 195.365 366.817 184.269C356.566 184.372 346.315 184.42 336.064 184.414C326.311 184.077 315.523 184.315 305.691 184.342C295.877 184.635 284.824 184.391 274.912 184.399L274.863 154.001L305.572 154C305.713 143.734 305.723 133.467 305.602 123.201C295.664 123.434 284.926 123.237 274.922 123.246C274.825 112.962 274.835 102.676 274.951 92.3919C265.418 92.7412 253.992 92.4252 244.312 92.4151L244.428 61.9165C234.256 61.7366 224.081 61.7842 213.911 62.0593C213.775 69.0388 214.411 82.8045 213.389 89.028C212.785 85.1192 213.087 67.3919 213.082 62.4551C208.481 62.4804 187.654 62.902 184.773 61.8845L213.725 61.7425L213.716 31.254C203.608 31.1189 193.499 31.1203 183.391 31.2582L183.38 0Z"/><path fill="#F9F9F9" d="M733.853 0L764.6 0L795.444 0L826.012 0L826.113 31.2692C815.892 31.1087 805.67 31.1237 795.45 31.3143C795.342 41.4169 795.355 51.5204 795.488 61.6227C805.679 61.8291 815.873 61.8735 826.066 61.756C826.002 71.9796 826.012 82.2036 826.098 92.4271L795.453 92.5133L795.362 123.294C784.954 123.107 774.543 123.112 764.135 123.31C764.646 113.194 764.427 102.637 764.363 92.4736C754.154 92.3962 743.944 92.4312 733.735 92.5785C733.568 82.3501 733.598 72.1194 733.827 61.8922C724.181 61.9034 714.21 62.0407 704.601 61.6784C714.343 60.6783 722.74 61.625 733.722 60.366L734.486 61.7478L734.914 61.2503C733.607 57.5623 734.139 37.121 734.153 31.8398C739.321 31.8593 759.446 32.2236 763.108 31.345C753.296 31.0453 743.66 31.1974 733.853 31.3145L733.853 0Z"/><path fill="#F9F9F9" d="M1040.16 0L1070.83 0L1101.46 0L1131.69 0C1131.73 9.37253 1131.46 22.1664 1132.19 31.3521C1121.92 31.1168 1111.65 31.0685 1101.37 31.2073C1101.41 41.2779 1101.31 51.8163 1101.56 61.8579C1092.43 61.8772 1079.65 62.3095 1070.82 61.8455C1070.43 53.5113 1070.63 39.5081 1070.93 31.1981C1060.66 31.1694 1050.4 31.1952 1040.13 31.2754L1040.16 0Z"/><path fill="#F9F9F9" d="M427.952 1162.55C438.1 1162.75 448.444 1162.69 458.612 1162.73C458.667 1172.7 458.362 1183.39 458.734 1193.23C468.834 1193.21 479.211 1193.28 489.293 1193.06L489.306 1223.68L458.767 1223.69C458.596 1233.79 458.551 1243.9 458.635 1254L428.017 1254L427.964 1223.82C438.149 1223.88 448.334 1223.85 458.519 1223.73L458.526 1193.39C448.327 1193.16 438.124 1193.17 427.925 1193.42C427.996 1183.13 428.005 1172.84 427.952 1162.55Z"/><path fill="#F9F9F9" d="M60.9304 0L91.5127 0C91.352 9.8579 91.121 21.3374 91.8551 31.0899L122.149 31.0946L122.149 61.5954C130.648 62.1008 142.624 61.8146 151.388 61.864C148.871 62.9427 127.381 62.4836 123.073 62.4551C123.106 67.3556 123.278 77.851 122.622 82.2303C122.078 79.8339 122.209 65.1257 122.192 61.9079L91.5437 61.9261L91.5457 31.2276C81.3409 31.0743 71.1343 31.0996 60.9304 31.3034L60.9304 0Z"/><path fill="#F9F9F9" d="M427.986 1101.53C437.341 1101.99 448.834 1101.34 458.592 1101.55C458.588 1111.69 458.66 1121.82 458.807 1131.95L489.284 1131.97C489.257 1142.07 489.06 1152.72 489.29 1162.76C479.973 1162.77 467.678 1163.17 458.612 1162.73C458.522 1152.55 458.533 1142.37 458.644 1132.18L427.939 1132.16L427.986 1101.53Z"/><path fill="#F9F9F9" d="M1193.13 398.431C1203.28 398.491 1213.42 398.476 1223.57 398.386C1223.56 408.307 1223.3 419.397 1223.6 429.219C1214.74 429.15 1205.88 429.245 1197.02 429.504C1188.28 429.784 1171.99 430.483 1163.64 429.404C1173.28 429.052 1183.41 429.184 1193.08 429.171C1193.15 419.007 1193.34 408.57 1193.13 398.431Z"/><path fill="#F9F9F9" d="M917.561 0L948.01 0C948.007 9.74462 947.711 21.7483 948.516 31.2657C938.303 31.0711 927.775 31.2447 917.536 31.2931C917.677 20.8626 917.685 10.4307 917.561 0Z"/><path fill="#F9F9F9" d="M1223.7 0L1254 0L1254 31.1962C1243.75 31.1124 1233.5 31.1629 1223.25 31.3478C1224.07 21.922 1223.72 9.6723 1223.7 0Z"/><path fill="#F9F9F9" d="M8.70137e-15 368.228C10.0701 368.082 20.141 368.001 30.2121 367.986C30.1121 378.04 29.8713 388.46 30.2521 398.474C38.0474 398.452 52.1732 397.998 59.4601 398.649L59.7521 398.986C52.9123 399.676 38.0544 399.235 30.6172 399.223C30.6051 400.559 30.7496 404.035 30.2585 405C30.0511 402.589 29.9778 401.032 30.0195 398.615L0 398.579L0 368.228L8.70137e-15 368.228Z"/><path fill="#F9F9F9" d="M550.46 245.565C560.677 245.454 570.895 245.41 581.114 245.431C581.044 255.543 580.809 266.16 581.206 276.221C571.052 276.247 560.406 276.121 550.301 276.367L550.46 245.565Z"/><path fill="#F9F9F9" d="M0 245.49C13.6488 245.484 31.2433 244.546 44.0709 245.146C42.2324 245.921 32.5475 245.706 30.1482 245.669C30.1067 255.681 29.8922 266.311 30.2163 276.268L0 276.243L0 245.49Z"/><path fill="#F9F9F9" d="M1040.14 61.6809C1050.33 61.8805 1060.6 61.6939 1070.82 61.8455C1070.68 72.0518 1070.71 82.2597 1070.92 92.4649C1060.61 92.4134 1050.31 92.4431 1040 92.5541L1040.14 61.6809Z"/><path fill="#F9F9F9" d="M427.92 245.44C438.143 245.661 448.353 245.36 458.588 245.551C459.132 253.919 458.593 267.166 458.691 276.243L427.963 276.313C428.085 266.097 427.95 255.672 427.92 245.44Z"/><path fill="#F9F9F9" d="M0 0L30.0055 0C30.0564 9.78284 29.8145 21.678 30.3631 31.2866C20.243 31.0951 10.1203 31.0876 2.17534e-15 31.2642L0 0Z"/><path fill="#F9F9F9" d="M1223.6 429.219C1233.73 429.111 1243.87 429.096 1254 429.176L1254 459.848C1244.29 459.55 1233.17 459.851 1223.36 459.888C1223.61 449.696 1223.28 439.466 1223.6 429.219Z"/><path fill="#F9F9F9" d="M581.116 92.3779C591.012 92.2932 601.604 92.5221 611.383 92.1781C611.291 102.531 611.407 112.885 611.73 123.233L580.97 123.266C580.988 114.929 580.535 100.184 581.116 92.3779Z"/><path fill="#F9F9F9" d="M458.572 1070.96L489.249 1070.94C489.148 1081.18 489.165 1091.42 489.301 1101.66C479.248 1101.6 468.557 1101.79 458.592 1101.55L458.572 1070.96Z"/><path fill="#F9F9F9" d="M1223.7 795.921L1254 795.944L1254 826.582L1223.31 826.73C1224.12 818.584 1223.71 804.532 1223.7 795.921Z"/><path fill="#F9F9F9" d="M1223.7 857.115L1254 857.197L1254 887.9L1223.7 887.896L1223.7 857.115Z"/><path fill="#F9F9F9" d="M366.696 1223.83L397.567 1223.83C397.537 1233.76 397.361 1244.11 397.571 1254L366.761 1254L366.696 1223.83Z"/><path fill="#F9F9F9" d="M0 184.293L30.1126 184.144C30.0103 194.477 30.0443 204.812 30.2147 215.145C20.2051 215.103 9.9914 214.951 0 215.044L0 184.293Z"/><path fill="#F9F9F9" d="M550.328 1223.67C560.588 1223.89 570.851 1223.92 581.113 1223.77C581.067 1233.65 580.835 1244.18 581.042 1254L550.368 1254C550.424 1243.89 550.41 1233.78 550.328 1223.67Z"/><path fill="#F9F9F9" d="M489.138 1223.81C499.412 1223.92 509.687 1223.91 519.96 1223.78L519.913 1254L489.307 1254L489.138 1223.81Z"/><path fill="#F9F9F9" d="M0 857.183L30.1478 857.005C30.1304 867.196 29.974 877.753 30.2173 887.911L0 887.798L0 857.183Z"/><path fill="#F9F9F9" d="M1223.7 918.27L1254 918.355L1254 948.535L1223.34 948.747C1224.1 940.469 1223.71 926.957 1223.7 918.27Z"/><path fill="#F9F9F9" d="M1223.7 307.136L1254 307.229L1254 337.379L1223.7 337.472L1223.7 307.136Z"/><path fill="#F9F9F9" d="M611.638 1223.71C621.74 1223.89 631.845 1223.88 641.947 1223.68L642.014 1254L611.617 1254L611.638 1223.71Z"/><path fill="#F9F9F9" d="M0 1223.88L30.2286 1223.72L30.0562 1254L0 1254L0 1223.88Z"/><path fill="#032B5A" d="M552.178 406.412C603.525 392.742 649.887 393.395 701.221 405.78C703.675 404.178 703.294 401.371 703.454 398.45C713.548 398.629 723.644 398.607 733.737 398.384L733.858 416.268C824.48 450.045 911.316 525.999 957.946 611.341C962.217 619.159 962.49 630.811 959.026 638.915C953.684 651.032 944.303 665.233 936.662 676.204C889.044 743.276 824.251 796.295 749.082 829.699C674.674 862.051 595.843 864.513 519.981 834.892C444.057 805.248 376.058 751.432 326.164 687.415C314.905 672.788 303.74 657.004 295.569 640.462C291.909 633.049 291.437 620.419 295.262 613.173C338.112 532.011 426.334 456.022 508.906 421.359C512.465 419.853 516.048 418.404 519.654 417.014C519.886 411.244 519.763 404.247 519.795 398.389C530.067 398.512 540.34 398.534 550.612 398.454C550.516 401.509 550.454 402.535 550.888 405.512L552.178 406.412Z"/><path fill="#F9F9F9" d="M550.612 398.454C550.516 401.509 550.454 402.535 550.888 405.512L552.178 406.412C541.19 409.481 530.339 413.018 519.654 417.014C519.886 411.244 519.763 404.247 519.795 398.389C530.067 398.512 540.34 398.534 550.612 398.454Z"/><path fill="#F9F9F9" d="M703.454 398.45C713.548 398.629 723.644 398.607 733.737 398.384L733.858 416.268C723.168 412.21 712.274 408.709 701.221 405.78C703.675 404.178 703.294 401.371 703.454 398.45Z"/><path fill="#F9F9F9" d="M620.684 420.923C677.179 418.595 736.939 438.836 784.798 467.668C838.426 499.771 884.551 542.996 920.064 594.43C925.081 601.652 936.769 619.365 938.727 627.284C929.696 648.494 899.111 687.548 883.392 704.336C817.975 774.202 731.77 827.899 634.209 831.622C602.515 833.291 560.837 824.459 531.303 813.165C457.518 784.951 390.893 731.898 342.999 669.425C333.81 657.439 321.452 640.489 315.328 626.824C321.543 608.403 354.257 568.043 367.757 553.322C420.001 496.353 490.643 446.361 566.674 428.051C584.27 423.813 602.685 421.749 620.684 420.923Z"/><path fill="#032B5A" d="M616.792 497.921C687.926 492.23 750.183 545.331 755.786 616.472C761.389 687.613 708.212 749.806 637.064 755.321C566.04 760.827 503.979 707.763 498.386 636.745C492.792 565.728 545.781 503.601 616.792 497.921Z"/><path fill="#F9F9F9" d="M621.822 520.838C680.267 517.945 729.984 562.995 732.847 621.442C735.711 679.889 690.636 729.583 632.187 732.417C573.781 735.249 524.13 690.213 521.268 631.808C518.407 573.402 563.418 523.729 621.822 520.838Z"/><path fill="#F9F9F9" d="M244.622 734.679C254.769 734.846 264.918 734.857 275.065 734.711C274.862 744.825 274.863 754.942 275.07 765.056C282.968 765.814 297.261 765.372 305.615 765.335L305.609 796.008C315.76 795.919 325.912 795.905 336.064 795.969C336.093 805.738 335.88 816.745 336.267 826.413L366.805 826.411C366.759 836.479 366.593 846.818 366.757 856.863C361.122 857.446 342.325 857.386 336.141 857.175C336.253 866.764 336.39 878.205 336.096 887.769L366.772 887.771C366.659 897.994 366.689 908.219 366.863 918.441C356.93 918.405 345.96 918.609 336.118 918.31C335.985 928.458 336.041 938.608 336.288 948.755C346.335 948.94 356.72 948.793 366.794 948.772C366.7 956.767 366.657 964.842 366.827 972.835C367.053 983.49 368.231 996.901 366.993 1007.32C366.688 1006.87 366.724 982.101 366.713 979.262C358.149 979.646 344.742 979.503 336.275 979.203C335.349 976.092 336.064 953.867 336.071 948.741C326.306 948.645 315.152 948.419 305.496 948.947C305.752 938.887 305.637 928.437 305.656 918.344C296.378 918.757 283.356 917.652 274.451 918.757L274.368 919.117C254.02 919.035 233.884 918.237 213.701 918.399C213.676 908.217 213.717 898.034 213.827 887.852C203.682 887.843 193.536 887.886 183.391 887.982C183.442 877.752 183.333 867.523 183.064 857.297C172.969 857.124 162.871 857.125 152.776 857.302L152.794 826.406L183.259 826.453C183.209 836.672 183.232 846.892 183.329 857.111L213.874 857.152C213.757 867.329 213.809 877.507 214.031 887.683C224.148 887.764 234.279 887.578 244.394 887.857C244.097 879.069 244.6 866.235 244.622 857.048C254.419 857.321 265.035 857.098 274.904 857.073L274.88 826.688L244.096 826.697C245.075 820.357 244.646 803.191 244.622 795.952C254.677 795.91 264.732 795.932 274.787 796.021L274.857 765.564L244.242 765.568C244.67 755.141 244.645 745.101 244.622 734.679Z"/><path fill="#F9F9F9" d="M305.578 368.176C315.889 368.069 325.976 368.364 336.148 368.307C336.128 377.847 336.45 389.122 336.158 398.516L366.805 398.407C366.689 408.703 366.705 419 366.854 429.296L336.09 429.221C336.48 438.399 336.106 449.991 336.293 459.619C346.464 459.741 356.637 459.754 366.809 459.66C366.654 469.89 366.668 480.122 366.852 490.351L336.063 490.438L336.012 459.881C325.863 459.785 315.714 459.788 305.565 459.889C305.449 470.061 305.488 480.234 305.682 490.404L274.866 490.439L274.849 459.858L244.245 459.906C244.422 449.656 244.46 439.405 244.36 429.154L274.956 429.198C274.518 420.014 274.877 407.854 274.891 398.408L305.55 398.585C305.633 388.449 305.642 378.312 305.578 368.176Z"/><path fill="#F9F9F9" d="M458.485 826.379L488.891 826.96C489.318 837.029 489.41 847.11 489.169 857.185L519.945 857.041L520.022 887.645C529.614 887.673 541.036 887.409 550.44 887.813C550.469 897.761 550.291 908.599 550.64 918.473C540.876 918.425 529.479 918.702 519.846 918.381C519.606 908.529 519.794 897.869 519.776 887.951C509.815 887.61 499.245 887.963 489.179 887.825C489.431 893.973 489.273 901.474 488.914 907.549C488.42 902.082 488.634 894.108 488.619 888.454L459.229 888.454C459.254 893.076 459.679 913.736 458.663 916.751C458.536 907.121 458.516 897.489 458.601 887.859L427.96 887.915C428.022 877.609 428.004 867.303 427.908 856.998L458.647 857.241L458.485 826.379Z"/><path fill="#F9F9F9" d="M336.021 1070.91L366.845 1070.85C366.599 1079.58 365.955 1093.36 367.046 1101.59C357.404 1101.62 345.592 1101.31 336.183 1101.78C336.118 1111.93 336.132 1122.07 336.226 1132.21C326.099 1132.18 315.569 1132 305.475 1132.18L305.603 1101.59C315.715 1101.45 325.827 1101.39 335.94 1101.41C336.069 1091.24 336.096 1081.07 336.021 1070.91Z"/><path fill="#F9F9F9" d="M1101.36 1102.45C1102.81 1104.55 1102.17 1127.22 1102.15 1131.54C1106.85 1131.49 1110.2 1131.45 1114.85 1131.92L1101.53 1132.27C1101.48 1142.37 1101.48 1152.48 1101.54 1162.59L1108.98 1162.82C1107.12 1163.58 1104.65 1162.85 1102.11 1164.58L1102.04 1166.8C1101.45 1164.79 1101.54 1164.74 1100.16 1163.04C1097.82 1162.45 1074.8 1162.77 1070.8 1162.78L1070.73 1154.77L1070.74 1132.18C1063.01 1132.19 1048.47 1132.61 1041.33 1131.77C1047.22 1131.2 1067.21 1132.46 1070.07 1130.96L1070.26 1127.5L1070.7 1127.18C1070.77 1128.93 1070.59 1130.42 1071.57 1131.78C1080.31 1132.32 1092.23 1131.98 1101.2 1131.98C1101.58 1122.26 1101.4 1112.21 1101.36 1102.45Z"/><path fill="#F9F9F9" d="M1100.92 173.654C1101.92 176.324 1101.6 181.317 1101.6 184.379L1070.85 184.392C1070.83 194.639 1070.85 204.887 1070.93 215.135C1066.51 215.142 1042.1 215.72 1040.13 214.219C1040.19 204.201 1040.19 194.183 1040.12 184.165C1044.47 184.237 1067.99 184.838 1070.51 183.791L1070.75 181.812L1071.39 181.33C1071.56 182.808 1071.41 182.064 1071.89 183.555C1080.12 184.103 1092.39 183.711 1100.92 183.691L1100.92 173.654Z"/><path fill="#F9F9F9" d="M489.129 918.258C499.368 918.223 509.607 918.264 519.846 918.381C520.058 924.772 519.821 934.197 519.943 940.727C520.09 948.562 521.336 971.349 519.992 977.998C519.663 968.331 519.815 958.416 519.859 948.724C510.187 948.615 498.869 948.555 489.317 949.113C489.308 956.846 489.671 970.344 488.938 977.6C488.075 972.273 488.799 951.555 489 945.567C489.215 936.466 489.258 927.361 489.129 918.258Z"/><path fill="#F9F9F9" d="M1070.78 336.205C1070.82 336.286 1070.83 336.385 1070.9 336.447C1072.92 338.354 1097.09 337.305 1101.55 337.271C1101.36 347.562 1101.37 357.857 1101.58 368.148C1094.48 368.275 1087.37 368.297 1080.26 368.216L1070.75 368.294L1070.76 337.515C1065.82 337.592 1054.07 337.63 1049.54 337.045C1055.5 336.331 1065.83 337.736 1070.78 336.205Z"/><path fill="#F9F9F9" d="M519.79 1131.98L550.467 1131.96C550.418 1142.17 550.443 1152.39 550.541 1162.6C554.438 1162.55 576.331 1162.33 579.122 1162.97L578.169 1163.38C573.225 1163.36 555.242 1163.01 551.251 1163.66L551.034 1165L550.527 1165.34C550.373 1163.7 550.6 1164.47 549.851 1163.02C541.966 1162.29 528.1 1162.78 519.757 1162.83C519.901 1152.62 519.794 1142.21 519.79 1131.98Z"/><path fill="#F9F9F9" d="M549.85 856.614C549.84 854.72 549.526 850.592 550.281 849.212C550.752 851.747 550.63 854.33 550.635 856.923L561.636 857.104C567.895 857.13 574.54 857.03 580.753 857.451C581.062 867.563 580.817 878.014 581.19 887.888C571.366 887.875 560.142 888.138 550.44 887.813C550.341 877.654 550.325 867.494 550.393 857.334C548.332 857.297 544.805 857.457 543.052 856.82C545.512 856.657 547.386 856.573 549.85 856.614Z"/><path fill="#F9F9F9" d="M335.925 276.138C346.224 276.209 356.524 276.214 366.823 276.153C366.733 286.45 366.736 296.748 366.831 307.045C356.548 306.899 346.262 306.914 335.979 307.09L335.925 276.138Z"/><path fill="#F9F9F9" d="M366.692 245.383L397.558 245.422C397.448 255.69 397.456 265.96 397.581 276.228C387.608 276.453 376.829 276.241 366.792 276.236L366.692 245.383Z"/><path fill="#F9F9F9" d="M1070.78 92.3876C1081.04 92.2897 1091.3 92.2502 1101.57 92.2692C1101.57 100.202 1100.4 115.466 1101.8 122.924C1098.56 123.593 1075.21 123.303 1070.73 123.3L1070.78 92.3876Z"/><path fill="#F9F9F9" d="M795.262 184.254C805.517 184.295 815.772 184.278 826.027 184.203C825.958 194.499 825.991 204.796 826.127 215.092C815.806 214.977 805.485 215.018 795.165 215.214C795.387 204.896 795.419 194.574 795.262 184.254Z"/><path fill="#F9F9F9" d="M274.911 337.324C285.117 337.442 295.337 337.263 305.574 337.408C305.913 346.85 305.512 358.359 305.616 368.145L274.908 368.315L274.911 337.324Z"/><path fill="#F9F9F9" d="M274.857 704.13C284.961 704.376 295.473 704.181 305.61 704.125C305.457 714.402 305.51 724.681 305.769 734.956C295.467 734.907 285.164 734.939 274.861 735.053C274.699 724.896 274.854 714.321 274.857 704.13Z"/><path fill="#F9F9F9" d="M1070.75 704.132C1081 704.273 1091.26 704.263 1101.52 704.103C1101.34 714.931 1101.27 723.797 1101.57 734.684C1098.05 735.348 1075.14 734.972 1070.76 734.94L1070.75 704.132Z"/><path fill="#F9F9F9" d="M550.422 1070.89C550.464 1080.64 550.799 1092.07 550.361 1101.65C540.315 1101.42 529.836 1101.65 519.755 1101.73C519.858 1096.04 519.296 1075.14 520.167 1070.95L550.422 1070.89Z"/><path fill="#F9F9F9" d="M1070.76 765.368L1101.08 765.33C1101.88 773.204 1101.53 787.82 1101.54 796.037L1070.76 796.058L1070.76 765.368Z"/><path fill="#F9F9F9" d="M274.85 1070.87C285.06 1070.89 295.392 1071 305.591 1070.9C305.535 1081.13 305.539 1091.36 305.603 1101.59C295.443 1101.8 285.06 1101.61 274.876 1101.6L274.85 1070.87Z"/><path fill="#F9F9F9" d="M305.745 276.119C305.485 286.382 305.473 296.65 305.709 306.914L291.61 306.91L274.866 306.986L274.945 276.462L289.932 276.456C292.961 275.984 302.239 276.14 305.745 276.119Z"/><path fill="#F9F9F9" d="M886.929 31.1213C897.167 31.2089 907.404 31.1961 917.641 31.083C916.964 38.9357 917.424 53.5118 917.618 61.6518C914.155 62.589 891.517 61.9336 886.929 61.9233L886.929 31.1213Z"/><path fill="#F9F9F9" d="M274.884 214.885C285.124 214.981 295.365 214.988 305.605 214.906C305.555 224.871 305.288 235.809 305.614 245.694C296.465 245.706 283.774 246.103 274.911 245.567L274.884 214.885Z"/><path fill="#F9F9F9" d="M795.245 1162.55C805.519 1162.64 815.794 1162.66 826.068 1162.59C826.105 1172.75 826.083 1182.91 826.004 1193.07C815.982 1193.05 805.064 1192.84 795.143 1193.5C795.396 1183.18 795.43 1172.86 795.245 1162.55Z"/><path fill="#F9F9F9" d="M1070.85 1070.92L1101.49 1070.92C1101.34 1081.13 1101.34 1091.34 1101.5 1101.55C1091.37 1101.74 1080.78 1101.59 1070.61 1101.6C1070.84 1091.47 1070.69 1081.12 1070.85 1070.92Z"/><path fill="#F9F9F9" d="M795.303 1040.19C803.643 1041.11 817.533 1040.56 826.072 1040.31C825.959 1050.55 825.981 1060.78 826.136 1071.02C816.279 1071.3 805.207 1071.06 795.248 1071.09C795.375 1060.79 795.394 1050.49 795.303 1040.19Z"/><path fill="#F9F9F9" d="M336.15 765.376L366.797 765.321C366.797 775.514 366.69 785.899 366.819 796.074L336.064 795.969L336.15 765.376Z"/><path fill="#F9F9F9" d="M948.204 92.3619C958.343 92.3957 968.482 92.3622 978.621 92.2614C978.56 102.464 978.358 113.001 978.793 123.165C968.918 123.428 958.187 123.246 948.242 123.275C948.483 113.287 948.237 102.416 948.204 92.3619Z"/><path fill="#F9F9F9" d="M1070.71 398.441C1080.88 398.493 1091.05 398.482 1101.22 398.408C1101.21 406.315 1100.75 422.287 1101.67 429.286L1070.73 429.341L1070.71 398.441Z"/><path fill="#F9F9F9" d="M244.622 245.493C254.476 245.44 265.128 245.193 274.911 245.567C275.24 255.599 274.651 265.844 275.061 276.305C264.82 276.247 254.579 276.247 244.338 276.303L244.622 245.493Z"/><path fill="#F9F9F9" d="M948.138 398.402C958.302 398.522 968.468 398.525 978.633 398.412C978.523 408.866 978.427 418.836 978.796 429.301L948.125 429.281C948.358 418.989 948.362 408.693 948.138 398.402Z"/><path fill="#F9F9F9" d="M1101.45 795.986L1131.83 795.917C1131.68 806.041 1131.83 816.541 1131.85 826.696L1101.35 826.709L1101.45 795.986Z"/><path fill="#F9F9F9" d="M948.166 214.866C958.327 214.996 968.489 215.001 978.65 214.88C978.531 224.99 978.341 235.566 978.734 245.635L948.117 245.709C948.344 235.429 948.36 225.146 948.166 214.866Z"/><path fill="#F9F9F9" d="M550.448 307.077L581.059 307.126C580.836 317.088 581.046 327.45 581.119 337.444L550.354 337.563L550.448 307.077Z"/><path fill="#F9F9F9" d="M305.596 307.073L336.197 307.128C335.881 317.532 335.966 327.031 336.162 337.452C328.458 337.47 312.62 337.997 305.574 337.408C305.648 327.296 305.655 317.185 305.596 307.073Z"/><path fill="#F9F9F9" d="M1101.47 612.617L1131.87 612.646C1131.72 622.789 1131.72 632.935 1131.87 643.079C1121.76 643.008 1111.37 642.797 1101.3 643.316L1101.47 612.617Z"/></svg>