<?xml version="1.0" encoding="utf-8" ?><svg xmlns="http://www.w3.org/2000/svg" xmlns:xlink="http://www.w3.org/1999/xlink" width="1254" height="1254" viewBox="0 0 1254 1254"><path fill="#FCFCFB" d="M0 0L141.818 0L170.745 0L199.226 0L227.79 0L256.517 0L284.977 0L370.492 0L399.203 0L484.818 0L741.945 0L770.57 0L1200.19 0L1228.9 0L1254 0L1254 29.2125L1254 57.6712L1254 86.2453L1254 114.631L1254 143.335L1254 172.277L1254 201.165L1254 229.571L1254 258.303L1254 287.136L1254 315.392L1254 344.249L1254 372.925L1254 401.558L1254 430.186L1254 458.698L1254 487.385L1254 516.072L1254 544.313L1254 573.15L1254 601.835L1254 630.557L1254 659.2L1254 687.543L1254 716.419L1254 744.991L1254 773.794L1254 802.431L1254 830.855L1254 859.59L1254 888.157L1254 974.224L1254 1002.89L1254 1031.24L1254 1059.83L1254 1088.73L1254 1117.22L1254 1145.74L1254 1174.44L1254 1203.05L1254 1231.96L1254 1254L1228.86 1254L1200.21 1254L1056.76 1254L1028.22 1254L999.507 1254L970.961 1254L942.349 1254L913.551 1254L884.83 1254L856.394 1254L827.854 1254L799.297 1254L770.806 1254L741.928 1254L713.338 1254L684.787 1254L656.311 1254L627.551 1254L542.35 1254L513.661 1254L484.9 1254L456.278 1254L370.58 1254L284.705 1254L256.459 1254L227.75 1254L199.454 1254L170.424 1254L141.972 1254L113.296 1254L84.6284 1254L55.8369 1254L27.4702 1254L0 1254L0 1231.91L0 1202.96L0 1174.43L0 1088.59L0 1059.83L0 1031.36L0 1002.63L0 802.353L0 773.653L0 744.838L0 716.295L0 687.646L0 659.272L0 630.443L0 601.926L0 573.191L0 544.399L0 516.226L0 487.249L0 458.859L0 430.15L0 344.179L0 315.701L0 287.035L0 258.098L0 172.171L0 143.592L0 57.7937L0 29.0906L0 0Z"/><path fill="#F6F6F6" d="M0 0L141.818 0L170.745 0L199.226 0L227.79 0L256.517 0L284.977 0L370.492 0L399.203 0L484.818 0C484.8 9.61163 484.879 19.2232 485.055 28.8332C494.605 28.9693 504.157 28.9727 513.708 28.8436C513.658 33.5017 512.988 54.8611 514.409 57.3564C516.595 57.7489 516.859 57.7179 518.988 57.6807L519.333 58.0962L514.926 58.4321C513.521 61.1483 514.381 80.9735 514.336 85.7227C519.512 85.7292 536.797 85.3984 541.012 85.9804C534.183 86.83 521.071 86.389 513.716 86.3322C513.576 96.0741 513.411 105.336 513.809 115.063L484.925 115.025C484.793 124.552 484.825 134.081 485.02 143.608C475.505 143.469 465.988 143.58 456.479 143.94C456.488 152.834 456.227 163.362 456.598 172.123C475.348 172.458 494.271 171.984 513.111 172.058C513.146 177.598 513.643 195.12 512.812 199.698C511.234 200.333 510.138 200.218 508.447 200.247L508.469 200.83L512.886 201.337C514.305 203.189 513.559 224.811 513.784 229.664C504.073 229.91 494.51 229.554 484.912 229.733C484.808 239.196 484.542 248.958 485.028 258.377C475.512 258.313 465.995 258.327 456.479 258.419L456.559 229.927L427.857 229.927C427.797 234.525 427.126 255.27 428.444 257.891C430.183 258.107 430.847 258.137 432.602 258.124C429.779 258.775 429.437 257.945 428.106 259.355C427.903 268.626 427.868 277.899 428.001 287.171C409.059 287.22 389.363 287.518 370.47 287.143C370.446 296.548 370.498 305.953 370.627 315.357L399.277 315.319C399.178 324.961 399.17 334.603 399.254 344.245C390.033 344.244 379.599 344.491 370.482 344.197C370.428 353.748 370.444 363.298 370.527 372.849C375.755 372.847 396.892 372.259 400.06 374.136C381.331 398.447 384.617 414.776 384.614 444.064C384.613 450.523 384.626 457.187 384.619 463.659L384.608 583.183L384.576 705.928L384.584 742.415C384.591 750.917 384.245 760.364 385.35 768.739C390.092 804.685 429.791 830.328 460.135 843.033C546.007 878.99 651.835 881.181 741.602 860.378C742.674 864.103 742.113 883.568 742.113 888.454C748.985 888.467 760.55 888.118 767.034 888.611C758.833 888.795 750.629 888.847 742.426 888.766C742.449 893.936 743.214 909.432 741.718 914.621C741.313 916.028 737.457 916.695 735.79 916.947C737.597 916.761 738.733 916.781 740.379 915.979C736.751 917.973 719.122 916.885 713.377 916.932C713.379 926.316 713.259 936.03 713.579 945.38L742.071 945.388L742.037 974.209L770.592 974.131C770.515 983.488 770.249 993.636 770.614 1002.92C761.291 1002.86 751.366 1002.64 742.098 1002.96C742.064 1012.25 741.906 1021.86 742.156 1031.12C751.741 1031.41 761.164 1031.63 770.754 1031.22L770.762 1002.78L799.29 1002.71C799.268 1012.21 799.293 1021.72 799.367 1031.22C808.965 1031.39 818.145 1031.58 827.734 1031.27C827.745 1025.96 827.466 1009.33 828.204 1004.94C829.453 1019.63 827.595 1043.31 827.959 1059.81L856.334 1059.75C856.384 1057.68 856.154 1055.2 856.984 1053.49C857.21 1055.8 857.265 1056.97 857.227 1059.29C865.133 1059.28 875.351 1059.02 883.023 1059.66C874.661 1060.17 864.9 1059.99 856.415 1060.02C856.371 1070.25 857.634 1109.85 855.101 1115.94C852.074 1117.6 832.682 1116.89 827.836 1116.84C827.86 1124.92 828.251 1136.91 827.7 1144.67L826.249 1145.89L827.621 1146.22C828.175 1149.35 827.841 1169.98 827.827 1174.42C818.301 1174.64 808.743 1174.41 799.272 1174.67C799.299 1183.91 799.149 1193.83 799.438 1203.01C807.474 1203.01 820.244 1202.62 827.899 1203.18C827.834 1212.68 827.647 1222.43 827.997 1231.9C837.432 1231.96 846.868 1231.93 856.303 1231.82C856.558 1223.09 856.001 1211.06 856.62 1203.1C865.896 1203.05 875.57 1203.18 884.793 1202.93L884.813 1174.34C894.321 1174.38 904.177 1174.55 913.652 1174.26C913.569 1183.9 913.569 1193.53 913.654 1203.17L884.953 1203.3C884.938 1212.4 884.689 1222.83 885.078 1231.82L913.588 1231.96L913.551 1254L884.83 1254L856.394 1254L827.854 1254L799.297 1254L770.806 1254L741.928 1254L713.338 1254L684.787 1254L656.311 1254L627.551 1254L542.35 1254L513.661 1254L484.9 1254L456.278 1254L370.58 1254L284.705 1254L256.459 1254L227.75 1254L199.454 1254L170.424 1254L141.972 1254L113.296 1254L84.6284 1254L55.8369 1254L27.4702 1254L0 1254L0 1231.91L0 1202.96L0 1174.43L0 1088.59L0 1059.83L0 1031.36L0 1002.63L0 802.353L0 773.653L0 744.838L0 716.295L0 687.646L0 659.272L0 630.443L0 601.926L0 573.191L0 544.399L0 516.226L0 487.249L0 458.859L0 430.15L0 344.179L0 315.701L0 287.035L0 258.098L0 172.171L0 143.592L0 57.7937L0 29.0906L0 0Z"/><path fill="#FCFCFB" d="M113.275 1117.35C122.818 1117.2 132.362 1117.19 141.904 1117.34C141.991 1126.85 141.983 1136.36 141.88 1145.87L170.589 1145.77C170.653 1155.36 170.625 1164.95 170.503 1174.54C180.084 1174.51 189.799 1174.58 199.367 1174.46C199.409 1183.76 199.635 1193.79 199.096 1203C189.572 1203.16 180.046 1203.12 170.524 1202.89L170.468 1174.38C160.974 1174.46 151.48 1174.47 141.987 1174.41L142.011 1203.16L170.572 1203.19C170.647 1212.49 170.901 1222.65 170.361 1231.85L142.047 1231.93L141.972 1254L113.296 1254C113.316 1246.65 113.294 1239.29 113.229 1231.94L84.7998 1231.89C84.3315 1223.11 84.627 1212.05 84.6317 1203.1C75.0978 1203.19 65.563 1203.1 56.032 1202.85L56.1094 1174.71C65.5628 1174.75 75.2216 1174.54 84.711 1174.51C84.6122 1184.1 84.638 1193.69 84.7882 1203.28L113.27 1203.19C113.281 1197.13 112.862 1180.51 113.512 1175.28C114.618 1174.52 114.001 1174.78 115.378 1174.54L113.66 1173.85C112.922 1171.33 113.261 1149.34 113.276 1145.62C110.347 1145.62 88.5407 1145.81 87.5175 1145.27L86.8493 1145.36C91.6278 1146.08 104.782 1143.92 110.471 1145C111.266 1145.15 111.937 1144.69 112.595 1144.26C113.642 1140.12 113.257 1122.84 113.275 1117.35Z"/><path fill="#FCFCFB" d="M370.505 1174.43C370.521 1183.94 370.625 1193.81 370.422 1203.3C380.011 1203.12 389.602 1203.07 399.192 1203.15C399.215 1212.39 399.464 1222.7 399.174 1231.86C389.596 1231.92 380.018 1231.94 370.44 1231.89L370.58 1254L284.705 1254C285.256 1247.44 285.028 1238.79 285.034 1232.06C294.372 1231.76 304.189 1231.93 313.568 1231.96C313.338 1222.66 313.539 1212.65 313.56 1203.31C322.951 1203.03 332.753 1203.15 342.179 1203.15C341.753 1194.3 342.067 1183.68 342.071 1174.66C350.737 1174.18 361.391 1174.66 370.505 1174.43Z"/><path fill="#FCFCFB" d="M0 1174.43L27.4877 1174.55C27.4909 1183.77 27.263 1194 27.5172 1203.14L55.8762 1203.21C56.0471 1212.79 56.0603 1222.38 55.9157 1231.97L84.5445 1231.96C84.7127 1238.84 85.1475 1247.25 84.6284 1254L55.8369 1254L27.4702 1254L0 1254L0 1231.91L0 1202.96L0 1174.43Z"/><path fill="#FCFCFB" d="M656.199 1203.28C659.277 1203.25 682.95 1203.29 684.767 1202.95C684.854 1212.37 684.553 1222.71 684.823 1231.95C694.35 1231.89 703.877 1231.89 713.405 1231.94L713.338 1254L684.787 1254L656.311 1254L627.551 1254L627.578 1231.94C637.032 1231.91 646.964 1231.72 656.379 1231.92C656.301 1222.47 656.093 1212.7 656.199 1203.28Z"/><path fill="#FCFCFB" d="M0 659.272L27.4619 659.425C27.4739 668.588 27.2957 678.425 27.5063 687.527C27.5254 697.116 27.6453 706.892 27.523 716.464L27.4573 744.638C18.6917 744.691 8.65417 744.502 0 744.838L0 716.295L0 687.646L0 659.272Z"/><path fill="#FCFCFB" d="M199.226 0L227.79 0L227.739 29.1812C236.81 28.6805 247.281 28.8941 256.458 29.012C256.444 38.454 256.513 48.0182 256.394 57.4483L227.775 57.6087C227.43 48.6387 227.737 37.9886 227.773 28.8946C218.559 29.3303 208.847 28.9955 199.583 28.8289C199.232 19.4789 199.315 9.40623 199.226 0Z"/><path fill="#FCFCFB" d="M770.632 1203.23L799.162 1203.15C799.406 1212.73 799.397 1222.31 799.134 1231.89L770.679 1231.88C770.775 1239.25 770.817 1246.63 770.806 1254L741.928 1254C741.879 1246.68 741.966 1239.3 742.004 1231.97L770.738 1231.97C770.246 1222.81 770.342 1212.45 770.632 1203.23Z"/><path fill="#FCFCFB" d="M542.325 1203.22L570.843 1203.22C570.875 1207.79 570.386 1228.93 571.156 1231.93L542.369 1231.94C542.303 1239.29 542.296 1246.65 542.35 1254L513.661 1254C513.408 1247.11 513.648 1238.92 513.703 1231.93L542.476 1231.95C542.346 1222.38 542.295 1212.8 542.325 1203.22Z"/><path fill="#FCFCFB" d="M141.818 0L170.745 0L170.564 28.7807C160.898 29.0966 151.761 28.9522 142.083 28.7937C141.75 19.419 141.862 9.42498 141.818 0Z"/><path fill="#FCFCFB" d="M484.96 1203.18L513.668 1203.22L513.703 1231.93C504.765 1231.62 494.147 1231.91 485.075 1231.92C484.594 1222.94 484.903 1212.3 484.96 1203.18Z"/><path fill="#FCFCFB" d="M370.492 0L399.203 0L399.179 28.8859C389.754 29.0493 380.327 29.036 370.903 28.8459C370.099 22.5136 370.485 7.0258 370.492 0Z"/><path fill="#FCFCFB" d="M256.517 0L284.977 0C284.836 9.62655 284.788 19.2542 284.831 28.8817C275.24 29.0378 266.197 29.1598 256.618 28.8735C256.187 19.5146 256.395 9.36702 256.517 0Z"/><path fill="#FCFCFB" d="M770.682 1146.16C780.318 1145.73 789.517 1145.75 799.17 1145.77C799.376 1155.3 799.359 1164.84 799.117 1174.37L770.794 1174.4C770.185 1165.83 770.388 1154.82 770.682 1146.16Z"/><path fill="#FCFCFB" d="M370.534 229.71L399.176 229.711L399.234 258.055C390.412 258.78 379.556 258.08 370.521 258.35L370.534 229.71Z"/><path fill="#FCFCFB" d="M770.794 1174.4C770.775 1183.53 771.008 1194.07 770.642 1203.08L742.088 1203.09C742.134 1193.63 742.123 1184.17 742.054 1174.72C750.889 1174.18 761.565 1174.74 770.794 1174.4Z"/><path fill="#FCFCFB" d="M713.508 1203.28C723.035 1203.28 732.562 1203.21 742.088 1203.09C741.934 1212.72 741.906 1222.35 742.004 1231.97L713.619 1231.89C713.249 1222.43 713.432 1212.76 713.508 1203.28Z"/><path fill="#FCFCFB" d="M285.034 258.426L313.566 258.351L313.478 287.158C304.243 286.814 294.426 287.02 285.138 287.073C284.928 277.525 284.893 267.975 285.034 258.426Z"/><path fill="#FCFCFB" d="M199.491 1203.33C208.805 1203.01 218.383 1203.37 227.806 1203.16C227.731 1212.76 227.711 1222.36 227.748 1231.96C218.764 1231.68 208.504 1231.91 199.418 1231.9C198.995 1223.23 199.397 1212.17 199.491 1203.33Z"/><path fill="#FCFCFB" d="M742.037 974.209C741.728 983.163 741.978 993.61 741.967 1002.68C732.52 1002.74 723.074 1002.73 713.628 1002.66C713.251 993.314 713.413 983.64 713.448 974.259L742.037 974.209Z"/><path fill="#FCFCFB" d="M370.542 1145.94L399.174 1145.93C399.199 1155.27 399.381 1165.09 399.195 1174.38C390.1 1174.39 379.464 1174.12 370.505 1174.43L370.542 1145.94Z"/><path fill="#FCFCFB" d="M27.5241 344.176C36.9809 344.295 46.4386 344.319 55.8958 344.25C56.0878 353.799 56.1132 363.351 55.9722 372.901L27.6513 372.897C27.5137 363.533 27.8073 353.302 27.5241 344.176Z"/><path fill="#FCFCFB" d="M342.02 258.358L370.521 258.35L370.47 287.143C362.633 286.604 350.26 287.001 342.22 287.115C342.7 280.048 342.1 265.95 342.02 258.358Z"/><path fill="#FCFCFB" d="M227.817 1174.68C237.364 1174.49 246.913 1174.43 256.461 1174.5L256.426 1203.07C247.193 1203.09 236.951 1202.88 227.806 1203.16L227.817 1174.68Z"/><path fill="#FCFCFB" d="M599.382 1203.27C608.804 1203.18 618.226 1203.16 627.648 1203.2C627.51 1212.8 627.68 1222.36 627.578 1231.94L599.388 1231.89C598.846 1223.12 599.235 1212.11 599.382 1203.27Z"/><path fill="#FCFCFB" d="M456.479 1174.52L484.917 1174.47C484.84 1184.04 484.855 1193.61 484.96 1203.18C475.589 1203.13 465.823 1203.16 456.479 1202.83L456.479 1174.52Z"/><path fill="#FCFCFB" d="M199.268 57.7607L227.775 57.6087L227.703 86.1704C220.863 86.2298 206.135 86.7056 200.017 85.9868L199.39 84.9568L199.268 57.7607Z"/><path fill="#FCFCFB" d="M627.602 1174.57C636.938 1174.52 647.005 1174.71 656.261 1174.48L656.238 1203.03C647.223 1203.04 636.526 1202.78 627.648 1203.2L627.602 1174.57Z"/><path fill="#FCFCFB" d="M342.179 315.832C351.64 315.808 361.1 315.727 370.559 315.591L370.482 344.197L342.222 344.123C341.71 334.533 341.863 325.432 342.179 315.832Z"/><path fill="#FCFCFB" d="M0 601.926C9.02509 601.921 18.4634 602.06 27.4531 601.875C27.4589 611.369 27.6007 621.207 27.4367 630.672C31.86 630.652 50.9109 630.337 53.9387 631.059C49.0637 631.347 31.7309 630.928 28.3858 631.539C28.2129 632.851 28.114 633.737 28.0545 635.056L27.6147 634.711C27.4553 632.284 27.8957 631.893 26.6008 630.596C17.8434 630.029 8.84768 630.68 0 630.443L0 601.926Z"/><path fill="#FCFCFB" d="M456.479 86.3498L484.885 86.3523C484.886 95.8707 484.803 105.519 484.925 115.025C475.467 114.883 466.008 114.834 456.55 114.878L456.479 86.3498Z"/><path fill="#FCFCFB" d="M313.478 287.158C321.026 287.335 334.807 287.552 342.22 287.115C341.846 295.336 341.967 307.12 342.084 315.316C332.597 315.502 323.107 315.493 313.62 315.288C313.292 306.408 313.526 296.184 313.478 287.158Z"/><path fill="#FCFCFB" d="M0 487.249C9.09674 487.315 18.4532 487.267 27.5255 487.475L27.4556 516.129L0 516.226L0 487.249Z"/><path fill="#FCFCFB" d="M0 258.098L27.5117 258.397L27.465 287.022L0 287.035L0 258.098Z"/><path fill="#FCFCFB" d="M0 1059.83L27.5546 1059.9L27.4572 1088.54C18.3053 1088.66 9.15228 1088.68 0 1088.59L0 1059.83Z"/><path fill="#FCFCFB" d="M0 544.399L27.4628 544.487C27.4609 553.921 27.5798 563.62 27.4377 573.03L0 573.191L0 544.399Z"/><path fill="#FCFCFB" d="M0 1002.63C9.16133 1002.79 18.324 1002.85 27.4866 1002.83C27.536 1012.3 27.5265 1021.77 27.4581 1031.24C18.3058 1031.35 9.15286 1031.39 0 1031.36L0 1002.63Z"/><path fill="#FCFCFB" d="M0 29.0906C8.9583 29.1051 18.6394 28.9354 27.5378 29.1945L27.4602 57.5615C18.3085 57.7766 9.15406 57.854 1.08767e-15 57.7937L0 29.0906Z"/><path fill="#FCFCFB" d="M0 143.592C8.96649 143.6 18.6117 143.799 27.5172 143.61L27.4653 172.089C18.3116 172.295 9.15476 172.322 0 172.171L0 143.592Z"/><path fill="#FCFCFB" d="M-4.35069e-15 315.701C9.1567 315.544 18.3158 315.594 27.4702 315.849L27.5241 344.176C18.7312 343.935 8.87729 344.168 0 344.179L0 315.701L-4.35069e-15 315.701Z"/><path fill="#FCFCFB" d="M0 430.15L27.5114 430.15L27.4572 458.591C19.0218 458.653 8.23429 458.412 0 458.859L0 430.15Z"/><path fill="#FCFCFB" d="M1.08767e-15 773.653C9.1537 773.638 18.3073 773.718 27.4594 773.891L27.4664 802.104C18.6095 802.154 8.7761 802.004 0 802.353L0 773.653L1.08767e-15 773.653Z"/><path fill="#FCFCFB" d="M170.494 1231.99C180.141 1231.91 189.788 1231.88 199.435 1231.9L199.454 1254L170.424 1254C170.381 1246.66 170.404 1239.33 170.494 1231.99Z"/><path fill="#FCFCFB" d="M227.748 1231.96C237.319 1231.87 246.891 1231.91 256.461 1232.08L256.459 1254L227.75 1254C227.656 1246.72 227.742 1239.26 227.748 1231.96Z"/><path fill="#FCFCFB" d="M456.278 1254C456.285 1250.86 455.888 1233.82 456.404 1232.15C465.719 1231.64 475.489 1231.85 484.857 1231.9L484.9 1254L456.278 1254Z"/><path fill="#FCFCFB" d="M856.409 1232.01C865.903 1231.84 875.4 1231.82 884.895 1231.95C884.878 1239.16 884.997 1246.83 884.83 1254L856.394 1254C856.464 1246.67 856.469 1239.34 856.409 1232.01Z"/><path fill="#FCFCFB" d="M799.251 1232.01C808.743 1231.86 818.236 1231.84 827.728 1231.97C827.779 1239.17 827.961 1246.83 827.854 1254L799.297 1254L799.251 1232.01Z"/><path fill="#FCFCFB" d="M313.517 974.192L341.966 974.26L341.966 1002.93C351.93 1002.78 361.902 1002.82 371.865 1002.96C390.461 1003.22 409.24 1002.41 427.819 1002.95C427.871 1012.37 427.828 1021.79 427.689 1031.21C418.185 1031.42 408.678 1031.49 399.172 1031.43L399.221 1059.94C390.776 1059.45 379.142 1059.81 370.461 1059.82C370.64 1069.3 370.506 1079.12 370.502 1088.62L342.239 1088.59C341.591 1071.14 342.357 1051.67 342.203 1033.84C341.753 1036.13 341.965 1055.97 341.966 1059.59L313.812 1059.59C313.818 1050.89 313.368 1040.85 313.981 1032.3C314.662 1031.99 315.343 1031.67 316.024 1031.36C314.11 1030.7 314.824 1031.26 313.663 1029.84C313.101 1026.48 313.107 1005.75 314.437 1003.74C316.587 1002.71 317.216 1002.85 319.612 1002.96L319.698 1002.62L313.593 1002.64C313.242 993.748 313.511 983.21 313.517 974.192Z"/><path fill="#FCFCFB" d="M342.177 830.867C351.623 830.801 361.071 830.806 370.517 830.881C370.549 840.376 370.512 849.871 370.406 859.365C360.999 859.527 351.589 859.582 342.18 859.53C341.988 868.877 342.183 878.755 342.222 888.142C351.638 888.11 361.054 888.196 370.467 888.401C370.493 897.877 370.467 907.354 370.391 916.83L399.31 916.766C399.278 913.44 398.938 892.798 399.631 890.538C400.141 898.411 399.261 907.733 400.106 915.372C400.208 916.293 402.283 915.492 404.716 916.3L404.17 916.795C402.313 916.67 400.975 916.327 399.431 917.254C398.766 923.452 399.194 938.524 399.202 945.379C389.649 945.45 380.095 945.442 370.542 945.353L370.528 933.305L370.528 916.695C363.331 916.893 349.868 917.552 343.313 916.734C342.101 915.658 342.458 914.748 342.234 912.57L341.758 912.231L341.635 915.339C340.121 916.484 332.695 915.925 329.563 916.162L330.034 916.736L342.119 916.77L342.056 945.349C332.569 945.541 323.079 945.553 313.592 945.384C313.347 936.041 313.557 926.042 313.6 916.65C304.117 916.737 294.633 916.769 285.15 916.748C284.984 907.294 284.987 897.839 285.158 888.385C294.52 888.227 304.208 888.376 313.596 888.402C313.508 878.802 313.503 869.201 313.581 859.601L342.354 859.545C341.986 849.99 341.927 840.426 342.177 830.867Z"/><path fill="#FCFCFB" d="M113.249 487.356C122.817 487.425 132.386 487.436 141.954 487.388C142.049 496.986 142.039 506.585 141.922 516.183C151.891 516.132 160.551 516.042 170.521 516.583L170.521 544.313C161.115 544.4 151.402 544.611 142.024 544.424C141.959 553.978 141.967 563.533 142.049 573.087L113.258 573.132L113.29 544.334C104.493 544.388 95.5162 544.569 86.7506 544.096C94.3892 543.462 104.779 543.723 112.664 543.727L112.664 516.785C106.086 516.803 91.3066 517.218 85.3916 516.536C86.3438 515.965 109.97 516.182 113.339 516.189C113.143 506.58 113.113 496.967 113.249 487.356Z"/><path fill="#FCFCFB" d="M184.148 143.564L199.299 143.505C199.344 153.025 199.297 162.546 199.157 172.066C189.678 172.328 180.195 172.39 170.714 172.251L170.529 201.128C180.226 200.942 189.924 200.931 199.621 201.093C199.472 198.266 199.272 196.506 199.716 193.657L200.144 193.835C200.19 196.072 200.245 197.662 200.484 199.881C202.712 200.625 203.405 200.573 205.695 200.702C203.602 200.912 201.475 200.999 199.371 201.116L199.355 229.54L179.558 229.674C177.381 229.712 172.994 230.075 171.256 229.224L170.528 226.972C170.311 227.6 170.095 228.229 169.878 228.857C162.302 229.403 150.556 229.024 142.667 229.002C142.676 225.44 142.949 203.807 142.358 201.913C141.742 203.24 141.939 218.727 141.853 221.615C141.024 219.619 141.997 177.418 142.036 172.295C151.619 172.219 161.202 172.223 170.784 172.307C170.082 163.909 170.535 152.611 170.6 143.902C175.117 143.843 179.633 143.731 184.148 143.564Z"/><path fill="#FCFCFB" d="M170.632 1117.38L199.448 1117.17L199.452 1146.04C206.537 1145.39 220.395 1145.87 227.848 1145.93C227.712 1136.42 227.71 1126.89 227.841 1117.38C237.384 1117.21 246.929 1117.2 256.472 1117.33C256.5 1126.78 256.461 1136.24 256.353 1145.69C247.138 1145.47 237.113 1145.71 227.762 1145.64L227.725 1174.27C218.277 1174.4 208.828 1174.44 199.379 1174.37L199.317 1145.63C189.77 1145.74 180.221 1145.75 170.673 1145.67C170.396 1136.32 170.566 1126.76 170.632 1117.38Z"/><path fill="#FCFCFB" d="M229.255 201.166C238.402 200.896 247.306 201.006 256.458 201.104L256.44 229.538C246.893 229.621 237.346 229.653 227.799 229.635C227.754 236.956 228.224 251.406 227.527 257.819L226.587 258.199C217.577 258.371 208.565 258.371 199.555 258.2C199.022 249.138 199.578 239.154 199.322 229.803L227.858 229.767C227.728 224.145 227.131 206.887 228.156 201.864L229.255 201.166Z"/><path fill="#FCFCFB" d="M170.595 1060.03C179.952 1059.63 190.136 1059.87 199.509 1059.97L199.354 1088.79L227.786 1088.77C227.733 1097.83 228.001 1108.15 227.524 1117.05C218.192 1117.26 208.856 1117.25 199.525 1117C198.963 1108.86 199.311 1096.97 199.311 1088.54C189.803 1088.75 180.292 1088.75 170.784 1088.54C170.258 1079.21 170.508 1069.41 170.595 1060.03Z"/><path fill="#FCFCFB" d="M370.541 115.111C379.662 114.826 389.956 115.053 399.169 115.047L399.168 143.275L370.518 143.293C370.587 152.819 370.561 162.345 370.44 171.871C366.377 172.871 347.28 172.288 342.296 172.176C342.111 162.745 342.03 153.312 342.054 143.879C351.578 143.696 361.103 143.592 370.629 143.566C370.381 134.287 370.54 124.434 370.541 115.111Z"/><path fill="#FCFCFB" d="M256.529 687.734L284.921 687.577C284.924 696.993 284.735 707.138 284.989 716.495L313.623 716.49C313.609 725.71 313.751 735.47 313.484 744.645C304.425 744.72 294.1 745.027 285.15 744.614C285.014 735.205 284.976 725.795 285.034 716.385L256.54 716.407C256.401 706.85 256.397 697.292 256.529 687.734Z"/><path fill="#FCFCFB" d="M227.778 1002.91C236.963 1002.63 247.199 1002.86 256.462 1002.87L256.475 1031.2C246.895 1031.38 237.313 1031.44 227.732 1031.39L227.706 1059.9C218.343 1059.84 208.981 1059.73 199.619 1059.58C199.359 1050.28 199.256 1040.97 199.311 1031.66C208.932 1031.35 218.203 1031.49 227.832 1031.61C227.691 1022.11 227.781 1012.43 227.778 1002.91Z"/><path fill="#FCFCFB" d="M84.8103 287.255C94.2884 287.178 103.767 287.151 113.245 287.173L113.188 315.711C122.446 315.754 132.757 315.981 141.901 315.423L142.029 344.175C133.316 343.782 122.222 344.09 113.323 344.08L113.304 315.27L84.7015 315.407C84.3224 306.888 84.7384 295.96 84.8103 287.255Z"/><path fill="#FCFCFB" d="M27.5755 57.8689L55.814 57.8689C56.28 66.647 56.0165 77.4374 56.0198 86.3663L84.5937 86.3615C84.6753 95.8411 84.6885 105.321 84.6334 114.801C75.1394 114.841 65.6451 114.805 56.1516 114.692C55.9866 105.178 55.9792 95.6622 56.1293 86.148L27.6105 86.2818C27.3115 77.2151 27.5532 67.0202 27.5755 57.8689Z"/><path fill="#FCFCFB" d="M256.539 601.855C256.219 610.847 256.468 621.321 256.459 630.429C246.883 630.5 237.307 630.484 227.732 630.378C227.752 639.246 227.876 648.222 227.439 657.069C226.9 649.591 227.172 639.016 227.165 631.286C218.352 631.288 209.182 631.412 200.408 631.103C205.291 630.186 221.849 630.543 227.844 630.555C227.552 621.264 227.762 611.341 227.808 602L256.539 601.855Z"/><path fill="#FCFCFB" d="M285.104 602.01C294.473 601.773 304.199 601.882 313.597 601.867C313.624 611.471 313.569 621.074 313.432 630.677C320.982 630.579 333.677 630.153 340.894 630.899C335.51 631.691 320.254 631.305 314.112 631.286C314.133 637.509 314.455 650.582 313.866 656.447C313.25 652.749 313.537 635.238 313.545 630.421C304.143 630.58 294.738 630.516 285.339 630.229C284.936 620.799 284.563 611.447 285.104 602.01Z"/><path fill="#FCFCFB" d="M399.221 1059.94C408.71 1059.99 418.2 1059.98 427.689 1059.92L427.641 1088.38C418.764 1088.94 408.2 1088.65 399.21 1088.52C399.285 1097.27 399.639 1108.49 399.06 1117.03C398.163 1111.99 398.571 1095.11 398.61 1089.29C394.941 1089.29 373.759 1089.47 371.536 1089.04C380.677 1088.29 390.058 1088.93 399.259 1088.62C399.248 1079.17 399.383 1069.35 399.221 1059.94Z"/><path fill="#FCFCFB" d="M227.774 830.997C237.339 830.862 246.905 830.832 256.47 830.907L256.481 859.348C249.697 859.382 234.582 859.074 228.479 859.854C227.392 861.328 227.718 863.084 227.74 865.033C227.787 871.797 228.077 880.153 227.451 886.763C226.726 884.377 227.169 864.2 227.165 860.288C224.512 860.347 223.515 860.329 220.895 860.009C222.854 859.361 225.613 859.603 227.804 859.605C227.64 850.172 227.765 840.454 227.774 830.997Z"/><path fill="#FCFCFB" d="M342.161 602.093C351.499 601.841 361.138 601.954 370.502 601.952C370.53 611.574 370.494 621.196 370.395 630.817C373.513 630.585 374.703 630.52 377.796 630.824C376.277 631.545 372.893 631.294 371.057 631.286L371.057 651.186C371.069 653.245 371.177 655.122 370.813 657.149C370.282 648.801 370.528 638.887 370.553 630.396C361.13 630.51 351.706 630.515 342.282 630.41C341.521 621.213 341.946 611.351 342.161 602.093Z"/><path fill="#FCFCFB" d="M170.712 258.427C180.225 258.411 189.857 258.313 199.359 258.414C199.357 267.574 199.574 277.937 199.156 286.994C191.253 287.007 178.229 286.605 170.746 287.138C170.351 277.572 170.34 267.994 170.712 258.427Z"/><path fill="#FCFCFB" d="M170.702 29.029C180.003 28.7945 190.071 29.0037 199.43 29.0255C199.502 38.5221 199.407 48.0192 199.144 57.5124C189.516 57.797 180.5 57.6727 170.858 57.5005C170.093 48.9814 170.547 37.6904 170.702 29.029Z"/><path fill="#FCFCFB" d="M142.004 687.606L170.521 687.695L170.521 716.372L141.981 716.383C141.718 707.077 141.953 696.971 142.004 687.606Z"/><path fill="#FCFCFB" d="M227.775 945.852C236.084 945.129 247.827 945.51 256.494 945.476C256.488 954.476 256.754 965.186 256.36 974.047L227.775 974.217L227.775 945.852Z"/><path fill="#FCFCFB" d="M113.312 258.397L141.999 258.294C141.848 267.854 141.843 277.415 141.981 286.975C134.807 286.987 119.79 286.562 113.245 287.173C113.403 277.667 113.304 267.923 113.312 258.397Z"/><path fill="#FCFCFB" d="M113.265 945.576L141.904 945.382L141.997 973.993C133.463 974.547 122.074 974.202 113.321 974.168C113.185 964.638 113.167 955.106 113.265 945.576Z"/><path fill="#FCFCFB" d="M342.01 487.428C351.523 487.369 361.035 487.362 370.548 487.408C370.632 496.966 370.611 506.525 370.486 516.082C361.229 516.303 351.426 516.105 342.126 516.06C341.693 507.435 342.084 496.373 342.01 487.428Z"/><path fill="#FCFCFB" d="M113.269 57.5824C113.341 49.1624 113.341 40.626 112.944 32.1989C112.882 30.8674 113.527 30.2367 114.289 29.3218C117.046 28.3199 136.247 29.0441 140.985 29.0403L141.827 29.3757C141.923 38.639 142.001 48.1924 141.935 57.4566C132.381 57.7128 122.824 57.7547 113.269 57.5824Z"/><path fill="#FCFCFB" d="M170.827 544.58C180.33 544.636 189.834 544.57 199.335 544.381C199.517 553.94 199.449 563.502 199.129 573.057L170.693 573.122C170.092 564.059 170.444 553.627 170.827 544.58Z"/><path fill="#FCFCFB" d="M171.682 315.506C179.696 316.063 191.111 315.676 199.327 315.51C199.534 325.046 199.475 334.586 199.15 344.119L170.836 344.133C170.522 339.012 170.41 333.516 170.377 328.384C170.356 325.051 169.696 317.674 171.682 315.506Z"/><path fill="#FCFCFB" d="M627.682 1117.26C637.22 1117.16 646.759 1117.15 656.298 1117.24C656.405 1126.72 656.38 1136.19 656.222 1145.66C646.735 1145.71 637.248 1145.69 627.76 1145.61C627.445 1136.08 627.577 1126.8 627.682 1117.26Z"/><path fill="#FCFCFB" d="M113.27 1002.99C122.415 1002.58 132.756 1002.82 141.994 1002.87L141.975 1031.27C132.519 1031.52 122.781 1031.37 113.299 1031.33C113.205 1021.89 113.195 1012.44 113.27 1002.99Z"/><path fill="#FCFCFB" d="M170.644 945.49L199.299 945.485C199.343 955.045 199.283 964.606 199.119 974.165L170.679 974.18C170.494 964.617 170.482 955.053 170.644 945.49Z"/><path fill="#FCFCFB" d="M685.06 1059.98C694.343 1059.77 704.118 1059.94 713.439 1059.96C713.454 1069.37 713.403 1078.78 713.286 1088.19C704.347 1088.94 693.978 1088.67 684.961 1088.58C684.634 1080.04 684.76 1068.47 685.06 1059.98Z"/><path fill="#FCFCFB" d="M113.228 1060.05C122.684 1059.81 132.512 1059.94 142 1059.95C141.676 1069.02 141.928 1079.45 141.935 1088.62L113.307 1088.61L113.228 1060.05Z"/><path fill="#FCFCFB" d="M142.029 344.175C151.577 344.278 161.125 344.315 170.673 344.284C170.66 353.397 170.872 363.856 170.325 372.843L142.088 372.924C141.899 363.342 141.88 353.757 142.029 344.175Z"/><path fill="#FCFCFB" d="M370.536 859.614C380.076 859.495 389.617 859.493 399.157 859.607C399.273 868.102 399.627 879.512 398.997 887.868L370.545 888.271C370.466 878.719 370.463 869.166 370.536 859.614Z"/><path fill="#FCFCFB" d="M399.223 57.5453C399.309 67.0913 399.287 76.6381 399.155 86.1836C389.613 86.1548 380.072 86.1768 370.53 86.2498L370.546 57.7382C380.032 57.5098 389.631 57.814 399.223 57.5453Z"/><path fill="#FCFCFB" d="M113.202 830.928L142.112 830.868C141.917 835.348 142.571 857.502 141.214 859.396C132.422 859.673 122.36 859.609 113.551 859.429C112.892 854.965 113.214 836.435 113.202 830.928Z"/><path fill="#FCFCFB" d="M742.101 1117.35C751.638 1117.25 761.175 1117.2 770.713 1117.21C770.86 1126.71 770.82 1136.2 770.594 1145.7C761.129 1145.75 751.664 1145.71 742.199 1145.6C741.98 1136.18 741.947 1126.76 742.101 1117.35Z"/><path fill="#FCFCFB" d="M84.8103 687.691L113.221 687.574C113.263 696.43 113.591 707.7 113.041 716.355C103.724 716.523 94.014 716.362 84.667 716.337C84.2841 708.396 84.7804 695.943 84.8103 687.691Z"/><path fill="#FCFCFB" d="M227.774 143.875C237.34 143.694 246.907 143.632 256.475 143.689L256.426 172.103C246.902 172.284 237.375 172.308 227.85 172.178C227.574 162.848 227.73 153.232 227.774 143.875Z"/><path fill="#FCFCFB" d="M484.895 1088.67C494.516 1088.8 504.14 1088.81 513.762 1088.7C513.774 1094.79 514.107 1111.87 513.111 1116.91C503.516 1117.16 494.88 1117.05 485.295 1116.88C484.41 1109.39 484.794 1096.37 484.895 1088.67Z"/><path fill="#FCFCFB" d="M113.238 716.501C122.674 716.249 132.498 716.411 141.981 716.383C141.666 725.299 141.949 735.847 141.959 744.891C132.837 744.537 122.593 744.682 113.383 744.61C112.872 735.343 113.122 725.801 113.238 716.501Z"/><path fill="#FCFCFB" d="M113.175 143.915C122.757 143.668 132.343 143.646 141.925 143.847L141.973 172.073C132.421 172.337 122.865 172.365 113.312 172.159C113.189 162.744 113.144 153.329 113.175 143.915Z"/><path fill="#FCFCFB" d="M113.259 86.2664C122.82 86.4191 132.381 86.453 141.942 86.3681L141.97 114.945L113.314 114.851C113.222 105.581 113.473 95.3682 113.259 86.2664Z"/><path fill="#FCFCFB" d="M227.763 315.698C237.329 315.733 246.895 315.716 256.461 315.649L256.494 344.187L227.829 344.086C227.744 334.623 227.722 325.16 227.763 315.698Z"/><path fill="#FCFCFB" d="M56.1882 258.379L84.6044 258.364C84.6131 267.942 84.6869 277.519 84.8258 287.096C75.2441 287.169 65.6618 287.061 56.0842 286.773C55.9612 277.309 55.9959 267.843 56.1882 258.379Z"/><path fill="#FCFCFB" d="M256.188 916.451C258.537 917.274 281.042 916.809 284.858 916.78C284.848 926.292 284.895 935.805 284.997 945.317C275.535 945.42 266.072 945.451 256.61 945.409C256.387 938.559 257.093 922.169 256.188 916.451Z"/><path fill="#FCFCFB" d="M719.926 1145.92C726.243 1145.49 735.709 1145.72 741.972 1146.07C741.979 1152.06 742.441 1168.69 741.711 1173.72C739.926 1174.75 739.535 1174.37 737.141 1174.4L713.485 1174.35C713.425 1168.95 712.889 1151.38 713.829 1146.74C715.711 1145.56 717.616 1145.9 719.926 1145.92Z"/><path fill="#FCFCFB" d="M256.468 401.509C265.362 401.15 275.911 401.518 284.929 401.626C284.725 410.727 284.96 420.673 284.896 429.894C275.368 430.184 266.128 430.058 256.593 429.945C256.323 420.725 256.484 410.784 256.468 401.509Z"/><path fill="#FCFCFB" d="M227.777 773.875C237.337 773.708 246.9 773.715 256.461 773.896C256.495 783.207 256.662 792.865 256.146 802.131L227.842 802.146C227.656 792.821 227.771 783.223 227.777 773.875Z"/><path fill="#FCFCFB" d="M285.034 1060.06C294.398 1059.69 304.187 1059.93 313.592 1060.02C313.651 1068.24 314.002 1080.54 313.298 1088.53C303.881 1088.66 294.463 1088.7 285.045 1088.67L285.034 1060.06Z"/><path fill="#FCFCFB" d="M113.312 659.361C122.877 659.327 132.442 659.355 142.007 659.445L142.004 687.606C132.57 687.59 122.714 687.712 113.319 687.435C113.259 678.077 113.257 668.719 113.312 659.361Z"/><path fill="#FCFCFB" d="M84.6501 57.7492C94.1899 57.803 103.73 57.7474 113.269 57.5824L113.259 86.2664L84.7828 86.1313C84.3803 76.866 84.5899 67.0702 84.6501 57.7492Z"/><path fill="#FCFCFB" d="M285.034 945.482L313.564 945.469C313.612 955.043 313.596 964.618 313.517 974.192L285.226 974.173C284.988 964.611 284.924 955.046 285.034 945.482Z"/><path fill="#FCFCFB" d="M141.997 229.927L170.649 229.786C170.661 238.603 170.948 249.521 170.544 258.185C161.371 258.267 151.015 258.022 141.999 258.294C141.984 249.095 141.763 239.056 141.997 229.927Z"/><path fill="#FCFCFB" d="M799.37 1060.03L827.872 1059.91L827.725 1088.53C818.366 1088.82 809 1088.75 799.647 1088.32C799.049 1079.98 799.362 1068.61 799.37 1060.03Z"/><path fill="#FCFCFB" d="M256.54 716.407C256.21 725.25 256.461 735.682 256.449 744.65C246.911 744.838 237.369 744.805 227.832 744.55C227.696 735.234 227.76 725.735 227.726 716.402C237.231 716.444 247.065 716.611 256.54 716.407Z"/><path fill="#FCFCFB" d="M399.237 143.893C408.461 143.446 418.4 143.602 427.689 143.592C427.73 148.979 428.156 167.465 427.354 172.015C419.259 172.776 407.589 172.31 399.218 172.162L399.237 143.893Z"/><path fill="#FCFCFB" d="M684.891 888.332C694.375 888.23 703.86 888.259 713.343 888.42C713.458 897.854 713.445 907.289 713.306 916.723C703.778 916.811 694.582 916.897 685.063 916.599C684.563 908.019 684.871 897.089 684.891 888.332Z"/><path fill="#FCFCFB" d="M113.224 773.897C122.81 773.638 132.4 773.586 141.988 773.74L141.987 802.106C132.551 802.283 122.704 802.132 113.236 802.123L113.224 773.897Z"/><path fill="#FCFCFB" d="M456.479 1002.93C465.456 1002.59 475.81 1002.85 484.889 1002.88C484.8 1011.73 485.234 1022.72 484.713 1031.23C475.316 1031.46 465.914 1031.45 456.518 1031.18C456.372 1021.77 456.359 1012.35 456.479 1002.93Z"/><path fill="#FCFCFB" d="M313.532 1145.93L341.966 1145.93L341.966 1174.4L313.551 1174.37L313.532 1145.93Z"/><path fill="#FCFCFB" d="M256.51 372.94L256.446 401.137C247.842 401.652 236.674 401.357 227.875 401.36C227.621 392.06 227.767 382.47 227.801 373.145C236.736 372.744 247.279 373.14 256.51 372.94Z"/><path fill="#FCFCFB" d="M456.479 945.493L484.861 945.479L484.847 974.15L456.616 974.19C456.237 965.206 456.487 954.599 456.479 945.493Z"/><path fill="#FCFCFB" d="M340.91 57.8667L341.421 58.0925C342.593 60.291 342.038 82.0979 341.952 86.2213L314.719 86.2642L314.18 86.1324C313.01 83.828 313.533 62.069 313.554 57.8689L340.91 57.8667Z"/><path fill="#FCFCFB" d="M462.649 1117.12L484.882 1117.07C484.895 1121.62 485.607 1142.66 484.226 1145.4L482.648 1145.57C473.934 1145.71 465.218 1145.72 456.504 1145.59C456.47 1140.4 456.03 1122.31 456.791 1118.09C458.193 1117.13 460.807 1117.23 462.649 1117.12Z"/><path fill="#FCFCFB" d="M170.696 659.461C180.23 659.308 189.765 659.278 199.299 659.371C199.37 668.723 199.328 678.076 199.173 687.427C189.674 687.672 180.17 687.622 170.675 687.277C170.373 678.069 170.547 668.672 170.696 659.461Z"/><path fill="#FCFCFB" d="M713.734 1031.37C723.138 1031.27 732.543 1031.37 741.943 1031.66C742 1041.05 741.966 1050.45 741.84 1059.84L713.586 1059.81C713.424 1053.51 712.828 1037.22 713.734 1031.37Z"/><path fill="#FCFCFB" d="M484.985 57.8689L513.703 57.8689C513.802 67.2904 513.756 76.7128 513.565 86.1329C504.036 86.1668 494.507 86.13 484.978 86.0227C484.688 76.957 484.931 67.0023 484.985 57.8689Z"/><path fill="#FCFCFB" d="M783.282 1031.44C788.334 1031.29 794.155 1031.54 799.264 1031.64L799.137 1059.78L787.577 1059.81C781.778 1059.85 776.399 1059.89 770.592 1059.6C770.561 1050.26 770.596 1040.92 770.696 1031.57C774.891 1031.61 779.087 1031.56 783.282 1031.44Z"/><path fill="#FCFCFB" d="M199.281 687.82C208.323 687.502 218.677 687.634 227.785 687.601L227.726 716.402L199.336 716.36L199.281 687.82Z"/><path fill="#FCFCFB" d="M256.551 573.279L284.905 573.271C285.018 582.718 284.979 592.167 284.788 601.614C275.823 601.975 264.943 601.303 256.539 601.855C256.458 592.33 256.462 582.804 256.551 573.279Z"/><path fill="#FCFCFB" d="M427.798 115.039L456.404 115.126C456.467 124.593 456.581 133.972 456.24 143.438C446.747 143.443 437.255 143.385 427.764 143.265L427.798 115.039Z"/><path fill="#FCFCFB" d="M313.626 344.264L341.966 344.262L341.966 372.839C332.484 372.968 323.001 372.984 313.519 372.886C313.472 363.346 313.507 353.804 313.626 344.264Z"/><path fill="#FCFCFB" d="M199.314 573.281L227.724 573.243C227.789 581.652 228.144 593.376 227.516 601.591C218.146 601.732 208.775 601.777 199.404 601.726C199.101 592.74 199.377 582.445 199.314 573.281Z"/><path fill="#FCFCFB" d="M456.479 1060.04C465.955 1059.96 475.432 1059.92 484.908 1059.94L484.895 1088.67C475.399 1088.47 465.95 1088.74 456.485 1088.6L456.479 1060.04Z"/><path fill="#FCFCFB" d="M285.023 659.325C294.522 659.26 304.021 659.295 313.52 659.429C313.683 668.764 313.631 678.102 313.363 687.435C303.936 687.639 294.506 687.633 285.08 687.415C284.659 678.468 284.946 668.366 285.023 659.325Z"/><path fill="#FCFCFB" d="M215.075 744.872C219.743 744.635 223.04 744.764 227.732 745.003L227.691 773.425C222.534 773.678 216.759 773.599 211.551 773.641L199.545 773.54C199.048 765.267 199.344 753.617 199.288 745.117L215.075 744.872Z"/><path fill="#FCFCFB" d="M256.382 630.684C265.888 630.548 275.396 630.549 284.902 630.688C284.819 640.091 284.81 649.494 284.876 658.896C275.267 659.069 266.201 659.25 256.606 658.896C256.291 649.827 256.436 639.826 256.382 630.684Z"/><path fill="#FCFCFB" d="M256.463 1088.81C265.803 1088.58 275.552 1088.72 284.925 1088.73C285.049 1098.13 284.992 1107.52 284.755 1116.91C275.235 1117.2 266.118 1117.12 256.588 1117.01C256.316 1107.94 256.491 1097.96 256.463 1088.81Z"/><path fill="#FCFCFB" d="M513.737 1002.88C523.221 1002.77 532.706 1002.79 542.19 1002.94L542.178 1031.16C532.531 1031.35 523.458 1031.51 513.812 1031.22C513.38 1021.86 513.618 1012.27 513.737 1002.88Z"/><path fill="#FCFCFB" d="M256.494 344.187C265.919 344.314 275.344 344.337 284.769 344.255L284.871 372.888C275.678 372.902 265.625 372.702 256.51 372.94C256.332 363.51 256.485 353.65 256.494 344.187Z"/><path fill="#FCFCFB" d="M141.972 115.109C151.488 114.967 161.005 114.949 170.521 115.053L170.521 143.407L142.124 143.367C141.904 133.95 141.853 124.528 141.972 115.109Z"/><path fill="#FCFCFB" d="M342.103 716.469L370.728 716.417C370.425 725.553 370.587 735.407 370.38 744.715C360.812 744.817 351.711 744.916 342.156 744.562C341.853 735.265 342.025 725.785 342.103 716.469Z"/><path fill="#FCFCFB" d="M370.53 86.2498L370.395 114.882L342.297 114.915C341.593 106.03 342.032 95.4961 342.085 86.4088C351.512 86.4347 361.126 86.5634 370.53 86.2498Z"/><path fill="#FCFCFB" d="M313.542 573.266L341.966 573.227C341.99 582.51 342.198 592.58 341.72 601.782L313.585 601.75C313.403 592.445 313.554 582.615 313.542 573.266Z"/><path fill="#FCFCFB" d="M256.462 57.7096L284.846 57.7016C285 66.6936 285.28 77.0619 284.759 86.0227L256.647 86.2623C256.207 76.8123 256.389 67.1827 256.462 57.7096Z"/><path fill="#FCFCFB" d="M84.8103 115.077C94.2821 115.125 103.754 115.058 113.224 114.877L113.16 143.379C103.715 143.433 94.2704 143.41 84.8261 143.311C84.5585 133.972 84.7285 124.431 84.8103 115.077Z"/><path fill="#FCFCFB" d="M456.479 888.403C465.927 888.353 475.374 888.35 484.822 888.394C484.873 894.548 485.324 911.407 484.434 916.722C475.168 916.782 465.901 916.759 456.635 916.652C456.22 907.909 456.484 897.286 456.479 888.403Z"/><path fill="#FCFCFB" d="M285.034 373.032C293.999 372.992 304.781 373.572 313.502 373.006C313.614 382.377 313.612 391.749 313.498 401.12C305.355 401.73 293.553 401.368 285.298 401.245C284.839 392.269 285.04 382.105 285.034 373.032Z"/><path fill="#FCFCFB" d="M427.926 57.8689L456.468 57.8689L456.384 86.0227C447.919 85.9528 436.018 86.7635 427.863 85.9831C427.637 76.6128 427.658 67.2381 427.926 57.8689Z"/><path fill="#FCFCFB" d="M599.318 917.084C607.788 916.617 618.937 916.931 627.608 916.932C627.647 926.427 627.63 935.922 627.558 945.416L599.343 945.344C599.173 935.925 599.164 926.503 599.318 917.084Z"/><path fill="#FCFCFB" d="M227.831 659.388L256.439 659.305C256.435 668.481 256.615 678.302 256.4 687.423C246.862 687.572 237.324 687.632 227.785 687.601C227.723 678.197 227.739 668.792 227.831 659.388Z"/><path fill="#FCFCFB" d="M256.336 115.11C265.78 114.977 275.389 115.064 284.848 115.061C284.749 124.513 284.756 133.967 284.869 143.419C275.413 143.441 265.956 143.407 256.5 143.315L256.336 115.11Z"/><path fill="#FCFCFB" d="M142.033 287.256L170.746 287.138C170.375 296.11 170.627 306.108 170.365 315.377L142.08 315.258C141.63 306.228 141.924 296.37 142.033 287.256Z"/><path fill="#FCFCFB" d="M399.251 29.1092L427.689 29.0906L427.689 57.4754C418.201 57.6441 408.711 57.6674 399.223 57.5453L399.251 29.1092Z"/><path fill="#FCFCFB" d="M199.326 287.333C208.453 286.966 218.537 287.175 227.742 287.195C227.759 295.923 228.084 306.711 227.556 315.229C218.596 315.394 208.289 315.809 199.458 315.303C199.014 306.657 199.3 296.122 199.326 287.333Z"/><path fill="#FCFCFB" d="M142.029 859.803C151.63 859.422 160.909 859.552 170.521 859.649L170.459 887.878C161.107 888.196 151.422 887.966 142.037 887.858C141.923 878.507 141.921 869.155 142.029 859.803Z"/><path fill="#FCFCFB" d="M27.6825 229.788C36.9966 229.738 46.748 229.558 56.0198 229.882L56.0198 258.228C46.8244 258.262 36.7979 258.506 27.6945 258.051C27.4157 248.713 27.6 239.148 27.6825 229.788Z"/><path fill="#FCFCFB" d="M599.146 1088.79L627.72 1088.74L627.56 1116.9C618.176 1117.16 608.787 1117.19 599.401 1117.02C598.99 1108.04 599.172 1097.87 599.146 1088.79Z"/><path fill="#FCFCFB" d="M313.6 115.115C323.075 115.021 332.551 115.015 342.026 115.096L341.966 143.359L313.616 143.307C313.291 134.486 313.578 124.056 313.6 115.115Z"/><path fill="#FCFCFB" d="M256.49 287.276C265.879 287.158 275.438 287.243 284.842 287.233C285.002 296.581 284.959 305.931 284.714 315.277C275.352 315.453 265.988 315.471 256.625 315.332C256.261 306.489 256.495 296.225 256.49 287.276Z"/><path fill="#FCFCFB" d="M227.775 974.217L227.702 1002.64L199.408 1002.64C199.197 993.352 199.326 983.611 199.311 974.285L227.775 974.217Z"/><path fill="#FCFCFB" d="M84.8103 802.431L113.174 802.431L113.218 830.585L84.8446 830.585C84.4139 821.768 84.7259 811.365 84.8103 802.431Z"/><path fill="#FCFCFB" d="M599.212 1031.57C608.692 1031.54 618.173 1031.55 627.653 1031.61L627.492 1059.82L599.441 1059.75C599.279 1050.36 599.203 1040.97 599.212 1031.57Z"/><path fill="#FCFCFB" d="M27.5932 287.265L55.8659 287.18C56.1066 296.468 55.9801 306.025 55.961 315.338L27.665 315.313C27.325 306.347 27.5601 296.312 27.5932 287.265Z"/><path fill="#014161" d="M400.06 374.136C479.326 281.123 747.07 282.232 840.784 360.694C868.991 384.311 869.392 402.906 869.389 436.446L869.373 479.371L869.363 613.808L869.338 718.201C869.321 734.451 870.031 753.37 868.586 769.392C867.57 780.661 859.213 795.05 851.952 803.618C827.691 832.247 777.916 852.339 741.602 860.378C651.835 881.181 546.007 878.99 460.135 843.033C429.791 830.328 390.092 804.685 385.35 768.739C384.245 760.364 384.591 750.917 384.584 742.415L384.576 705.928L384.608 583.183L384.619 463.659C384.626 457.187 384.613 450.523 384.614 444.064C384.617 414.776 381.331 398.447 400.06 374.136Z"/><path fill="#FCFCFB" d="M406.062 460.851C408.91 462.918 411.955 466.144 414.895 468.456C467.439 509.77 544.818 523.365 609.857 525.126C680.975 527.053 759.511 517.477 821.738 481.074C831.017 475.645 840.089 467.798 847.884 460.461C848.598 495.645 847.435 531.071 847.952 566.282C848.199 583.095 849.775 593.328 841.35 608.485C838.309 613.156 834.82 617.519 830.932 621.513C788.957 664.259 690.242 679.68 632.901 679.732C575.167 680.143 515.384 672.532 462.638 647.83C444.541 639.355 412.577 619.569 407.86 597.938C404.709 583.488 406.024 560.231 406.023 544.736L406.062 460.851Z"/><path fill="#FCFCFB" d="M406.039 635.353C414.054 641.88 420.197 647.913 429.152 653.575C479.014 685.101 545.445 697.477 603.392 699.724C681.646 702.758 788.178 691.02 847.862 634.943C848.406 663.178 847.68 692.041 847.89 720.356C848.005 735.698 848.581 752.817 847.135 767.986C846.804 771.452 843.615 777.9 842.041 781.082C805.192 836.509 696.364 852.256 628.38 852.992C572.605 853.597 437.247 838.699 408.129 772.738C404.928 765.487 406.013 725.113 406.006 714.582L406.039 635.353Z"/><path fill="#FCFCFB" d="M800.12 469.054C731.37 504.327 633.606 511.055 557.71 499.981C509.37 492.442 448.586 477.913 415.821 439.02C394.16 413.308 412.747 383.478 437.476 368.43C516.003 320.644 625.225 316.958 713.636 331.377C756.1 338.303 813.125 355.785 839.968 390.673C861.253 419.244 836.292 445.759 812.786 461.702C808.329 464.547 804.793 466.557 800.12 469.054Z"/></svg>