<?xml version="1.0" encoding="utf-8" ?><svg xmlns="http://www.w3.org/2000/svg" xmlns:xlink="http://www.w3.org/1999/xlink" width="1254" height="1254" viewBox="0 0 1254 1254"><path fill="#F9F9F9" d="M0 0L94.1783 0L125.569 0L156.76 0L188.399 0L219.74 0L250.9 0L282.315 0L313.579 0L470.359 0L501.548 0L532.804 0L564.508 0L595.76 0L626.923 0L658.346 0L689.556 0L783.719 0L815.021 0L846.369 0L877.584 0L908.888 0L940.287 0L971.593 0L1002.81 0L1034.21 0L1065.67 0L1097.02 0L1128.4 0L1159.68 0L1190.96 0L1222.26 0L1254 0L1254 31.3684L1254 62.931L1254 94.3166L1254 125.446L1254 219.771L1254 251.126L1254 282.265L1254 313.599L1254 344.939L1254 376.056L1254 407.73L1254 439.124L1254 470.331L1254 502.013L1254 533.312L1254 564.663L1254 658.532L1254 690.002L1254 721.362L1254 752.664L1254 783.963L1254 815.401L1254 846.393L1254 877.952L1254 909.194L1254 940.425L1254 971.672L1254 1003.04L1254 1034.26L1254 1065.79L1254 1097.23L1254 1128.51L1254 1159.7L1254 1191.32L1254 1222.22L1254 1254L1222.28 1254L1190.97 1254L1159.7 1254L1128.41 1254L1034.27 1254L1002.9 1254L908.816 1254L877.516 1254L846.336 1254L814.911 1254L783.792 1254L689.42 1254L658.171 1254L627.074 1254L595.769 1254L564.439 1254L533.119 1254L501.454 1254L470.264 1254L438.951 1254L407.794 1254L376.409 1254L344.794 1254L313.654 1254L282.289 1254L188.278 1254L94.1855 1254L0 1254L0 1222.27L0 1191.13L0 1159.79L0 1128.59L0 1097.18L0 1065.71L0 1034.34L0 1003.03L0 971.7L0 815.193L0 784.165L0 752.529L0 721.279L0 627.223L0 596.159L0 564.539L0 533.267L0 502.069L0 470.321L0 439.1L0 407.734L0 188.188L0 157.182L0 125.327L0 94.1965L0 0Z"/><path fill="#002A58" d="M470.43 530.326C490.562 452.597 530.892 375.716 590.707 321.171C597.428 315.042 604.638 309.255 612.33 304.466C630.629 293.074 643.63 303.5 657.286 315.155C690.183 343.23 717.15 379.035 738.348 416.523C758.331 451.42 773.576 488.824 783.68 527.747C828.037 504.301 885.282 490.05 935.347 487.399C948.89 486.682 967.683 484.549 973.932 499.747C977.927 509.463 978.888 522.175 979.545 532.757C982.416 585.019 974.069 637.29 955.066 686.06C939.45 726.334 925.355 749.06 900.214 782.997C871.759 816.415 851.709 834.341 813.677 856.833C791.043 868.707 777.958 874.528 752.932 881.478C710.36 891.331 667.977 892.228 626.562 876.376C609.293 882.844 591.194 886.83 572.805 888.215C387.054 902.355 256.69 693.126 275.249 525.917C278.433 497.229 286.015 491.951 313.5 490.429C368.38 490.119 421.79 505.497 470.43 530.326Z"/><path fill="#F9F9F9" d="M627.447 325.634C628.212 325.968 629.171 326.383 629.836 326.875C693.833 374.3 742.861 466.248 760.001 541.054C692.289 582.843 655.248 636.359 626.743 709.243C625.917 708.429 611.769 677.005 609.327 672.262C583.046 620.025 543.234 575.793 494.042 544.178C494.318 542.948 494.6 541.719 494.888 540.492C509.738 477.943 538.696 419.618 579.548 369.98C592.625 354.202 610.117 336.39 627.447 325.634Z"/><path fill="#F9F9F9" d="M932.313 513.373C938.906 513.004 944.671 513.092 951.259 513.185C954.693 535.711 955.318 558.576 953.122 581.257C942.971 686.733 885.625 794.158 787.689 841.455C751.361 858.999 716.016 865.821 675.901 861.969C669.425 861.2 662.993 860.098 656.63 858.668C707.314 825.717 744.353 787.913 769.631 732.311C796.033 674.235 799.879 616.331 789.302 553.936C833.573 530.468 882.313 516.644 932.313 513.373Z"/><path fill="#F9F9F9" d="M314.488 516.433C322.85 516.017 337.947 517.236 346.275 518.227C388.013 523.21 428.358 536.374 465.003 556.966C458.543 592.868 457.653 635.38 465.174 671.077C483.015 755.748 526.653 811.7 597.144 858.697C593.362 859.73 588.353 860.581 584.414 861.357C563.799 864.503 542.806 864.222 522.283 860.525C456.285 848.824 400.043 806.086 362.228 751.93C318.508 689.32 289.306 593.631 302.897 517.491C306.354 516.862 310.882 516.682 314.488 516.433Z"/><path fill="#F9F9F9" d="M764.726 568.389C767.094 571.446 768.313 603.2 768.541 608.881C771.585 684.764 738.049 758.816 680.988 808.491C663.511 823.706 647.291 834.458 627.357 846.182C611.318 838.255 590.292 823.275 576.827 811.6C521.412 763.553 491.688 704.254 486.321 631.438C485.054 609.645 486.066 593.986 488.871 572.243C548.304 612.475 584.521 669.84 608.656 736.408C615.568 755.473 620.879 774.424 627.357 793.477C629.481 786.975 631.521 779.364 633.338 772.692C655.902 689.853 691.172 617.404 764.726 568.389Z"/><path fill="white" d="M470.346 250.91C479.306 250.535 492.514 250.505 501.459 250.927C511.931 251.154 522.386 251.063 532.856 251.17C532.837 261.422 532.689 271.997 532.944 282.219C525.315 282.239 509.318 281.809 502.36 282.483C510.133 283.407 523.833 282.94 532.093 282.885C532.096 288.65 531.824 298.901 532.474 304.33L532.544 304.379C532.983 297.132 532.912 289.623 532.959 282.347L564.526 282.304C564.46 272.9 564.858 260.135 564.396 251.079L595.773 251.081L595.762 282.33L627.042 282.316C626.946 271.896 626.932 261.475 627 251.055C637.425 251.169 647.85 251.166 658.274 251.046C658.276 261.269 658.462 272.158 658.182 282.326L689.484 282.276L689.438 313.627C699.957 313.538 710.477 313.565 720.995 313.708L721.072 345.065C731.555 344.905 742.04 344.905 752.522 345.066L752.354 313.775C762.774 313.622 773.469 313.799 783.778 313.577C783.692 324.061 783.673 334.547 783.72 345.032C794.14 344.964 804.561 344.963 814.981 345.029L814.945 376.109L783.763 376.172C783.733 386.363 783.918 397.416 783.61 407.535C773.195 407.772 762.776 407.759 752.362 407.498C752.346 409.826 752.113 413.17 752.825 415.267C753.25 412.398 753.202 411.35 753.135 408.407L783.138 408.407L783.188 415.737L783.597 415.416L783.479 417.126C783.915 413.553 783.853 411.392 783.794 407.85L814.946 407.823L814.95 439.153C825.26 439.121 835.946 438.95 846.221 439.216C846.272 449.382 846.514 460.261 846.265 470.37L877.593 470.37C877.45 459.963 877.449 449.554 877.59 439.147C887.884 439.118 898.786 438.909 909.032 439.149C908.518 429.12 908.738 417.915 908.74 407.785L940.333 407.77C940.382 413.341 941.008 434.584 939.596 438.56C937.483 438.98 937.079 438.913 934.972 438.892L934.945 439.449C935.696 439.892 968.133 439.103 971.431 439.123C971.484 449.397 971.686 460.058 971.532 470.3C982.024 470.444 992.517 470.44 1003.01 470.288C1002.87 480.922 1002.99 491.477 1002.9 502.077L1034.18 502.128L1034.22 533.297C1024.01 533.231 1013.04 533.391 1002.9 533.102L1002.92 564.724C1012.4 564.675 1025.13 565.036 1034.23 564.592C1034.28 575.088 1034.26 585.584 1034.17 596.08C1023.72 596.249 1013.27 596.247 1002.82 596.076C1002.97 607.906 1002.13 624.052 1002.57 634.644C1002.88 631.892 1002.98 630.272 1002.97 627.506C1013.37 627.299 1023.78 627.235 1034.18 627.312L1034.23 658.721C1025.44 658.673 1012.25 659.087 1003.91 658.294C1002.48 656.48 1003.08 655.417 1002.67 652.528C1001.81 655.474 1003.04 656.14 1001.78 657.491L994.641 658.016C996.247 658.558 1001.01 658.414 1002.95 658.398L1002.91 689.942C992.441 689.844 981.969 689.846 971.497 689.949L971.421 721.375C981.927 721.446 992.433 721.403 1002.94 721.245L1002.92 752.731L1034.27 752.577C1034.28 742.772 1034.62 730.933 1034.23 721.297L1065.71 721.607C1065.69 731.802 1065.82 742.494 1065.56 752.648L1096.96 752.589L1097.05 784.313C1102.97 784.106 1124.51 783.183 1128.6 785.064C1130.41 791.151 1127.93 809.602 1129.36 815.075C1135.58 815.929 1152.49 815.301 1159.7 815.283L1159.72 846.505C1168.88 846.491 1182.15 846.899 1190.97 846.359L1190.95 877.733L1222.22 877.733C1222.53 888.231 1222.53 898.736 1222.24 909.235C1211.81 909.138 1201.39 909.124 1190.96 909.194L1191 877.752C1180.57 877.844 1170.14 877.863 1159.71 877.81C1159.67 888.151 1159.47 899 1159.82 909.292C1160.17 916.152 1160.38 933.576 1159.85 940.386C1159.44 950.497 1159.67 961.519 1159.71 971.706L1128.33 971.635C1128.36 982.032 1128.53 992.888 1128.29 1003.25C1138.4 1003.08 1149.95 1003.41 1159.75 1003.02C1159.68 1013.51 1159.67 1024.01 1159.7 1034.5C1166.21 1034.51 1185.45 1034.96 1190.95 1034.25C1191.01 1044.75 1191 1055.25 1190.92 1065.75C1180.54 1065.81 1170.16 1065.73 1159.78 1065.51C1159.57 1055.05 1159.56 1044.59 1159.77 1034.14C1152.6 1034.32 1145.43 1034.37 1138.26 1034.28C1134.64 1034.2 1123.12 1033.4 1120.42 1033.96C1123.04 1034.66 1125.69 1034.44 1128.44 1034.41L1128.3 1065.72L1097.05 1065.72L1096.95 1097.17C1086.54 1097.2 1076.13 1097.16 1065.72 1097.05L1065.72 1128.7C1073.38 1128.64 1081.12 1128.56 1088.75 1128.68C1097.31 1128.82 1118.56 1130.01 1126.25 1128.74C1118.12 1128.05 1105.61 1128.42 1097.15 1128.43C1096.55 1118.2 1096.86 1107.57 1097 1097.29C1105.14 1097.3 1120.83 1097.81 1128.36 1097.18L1128.32 1128.62C1137.65 1128.62 1150.73 1129.02 1159.75 1128.47L1159.6 1159.63C1149.62 1160.29 1138.48 1160.04 1128.39 1160.02L1128.35 1191.23L1159.65 1191.24C1159.66 1201.49 1159.84 1212.27 1159.62 1222.47L1128.37 1222.47L1128.41 1254L1034.27 1254L1002.9 1254L908.816 1254L877.516 1254L846.336 1254L846.343 1222.72C856.505 1222.07 867.382 1222.29 877.621 1222.32C877.522 1211.96 877.518 1201.6 877.612 1191.24L846.522 1191.24C846.239 1181.02 846.383 1170.43 846.397 1160.17C856.695 1159.74 867.262 1159.85 877.59 1159.84L877.601 1128.77C894.383 1128.64 923.346 1130.14 938.372 1128.82C930.716 1128.04 917.112 1128.41 908.991 1128.4C908.408 1119.36 908.762 1106.35 908.95 1097.12C898.449 1097.17 887.949 1097.14 877.449 1097.03L877.439 1128.43L846.454 1128.48C846.346 1118.01 846.331 1107.55 846.407 1097.08C835.913 1097.22 825.417 1097.18 814.925 1096.97L814.948 1128.45L783.753 1128.51C783.575 1118.27 783.773 1107.59 783.823 1097.32L815.108 1097.31C814.926 1091.34 814.644 1084.03 814.948 1078.15C816.245 1053.08 814.857 1028.29 815.028 1003.21C825.485 1003.04 835.945 1003.01 846.403 1003.14C846.422 992.663 846.36 982.189 846.219 971.717L877.514 971.79C877.57 982.216 877.812 992.634 877.745 1003.06C886.093 1003.08 901.03 1003.54 908.841 1002.78C909.13 1000.54 908.927 975.356 908.743 971.715C918.855 971.771 930.391 971.99 940.416 971.64C940.398 981.582 940.623 993.292 940.127 1003.09C950.395 1003.08 961.259 1002.89 971.48 1003.13C971.224 992.683 971.179 982.235 971.345 971.788L1002.99 971.698L1002.91 1003.13C1013.39 1003.08 1023.88 1003.08 1034.36 1003.14C1034.31 992.793 1034.09 982.043 1034.2 971.728L1065.72 971.798C1065.57 961.305 1065.54 950.811 1065.63 940.318C1055.31 940.537 1044.61 940.439 1034.26 940.481L1034.28 909.104L1002.94 909.256L1002.89 877.835L971.502 877.901C971.498 887.897 971.765 899.322 971.402 909.2L940.324 909.156L940.386 940.382L908.913 940.36C908.564 930.36 908.814 919.277 908.846 909.194L877.642 909.253C877.555 898.764 877.555 888.275 877.641 877.786L846.408 877.82L846.394 846.714C856.646 846.441 867.399 846.22 877.632 846.748C877.133 837.239 877.593 825.123 877.562 815.278L908.927 815.278C908.738 804.923 908.747 794.566 908.954 784.212C905.786 784.039 903.244 783.985 900.214 782.997C925.355 749.06 939.45 726.334 955.066 686.06C974.069 637.29 982.416 585.019 979.545 532.757C978.888 522.175 977.927 509.463 973.932 499.747C967.683 484.549 948.89 486.682 935.347 487.399C885.282 490.05 828.037 504.301 783.68 527.747C773.576 488.824 758.331 451.42 738.348 416.523C717.15 379.035 690.183 343.23 657.286 315.155C643.63 303.5 630.629 293.074 612.33 304.466C604.638 309.255 597.428 315.042 590.707 321.171C530.892 375.716 490.562 452.597 470.43 530.326C421.79 505.497 368.38 490.119 313.5 490.429L313.536 439.111L344.988 439.154C344.575 429.153 344.807 417.691 345.018 407.674L313.61 407.783C313.375 397.518 313.566 386.574 313.57 376.257C324.028 376.189 334.486 376.19 344.944 376.261C344.612 366.147 344.853 355.245 344.904 345.068C334.46 345.22 324.014 345.195 313.571 344.992C313.632 355.338 313.621 365.684 313.54 376.03C303.371 376.714 292.654 375.913 282.341 376.224L282.245 407.74C277.024 407.143 257.298 407.702 251.014 407.732C250.934 397.275 250.948 386.817 251.055 376.36C261.499 376.258 271.944 376.235 282.389 376.292L282.327 345.106C292.442 344.747 303.431 344.926 313.564 345.021L313.559 313.583C323.154 313.968 335.222 313.633 345.017 313.664C344.543 303.877 344.969 292.302 345.04 282.34L376.441 282.293C375.85 273.537 376.409 260.652 376.279 251.263C386.309 250.841 397.606 251.058 407.763 251.015L407.736 282.22L376.393 282.224L376.27 313.81C386.802 313.512 397.474 313.895 407.799 313.583L407.638 345.078C418.097 344.854 428.56 344.957 439.012 345.389C438.994 355.599 438.853 366.068 439 376.255L470.349 376.256C470.214 358.699 470.672 341.314 470.88 323.767C470.916 320.705 470.785 317.572 471.047 314.526C474.003 313.464 476.209 314.696 476.99 313.677C474.613 313.547 472.639 313.428 470.263 313.491L470.31 282.201C459.978 282.361 449.431 282.272 439.081 282.291C439.108 271.873 439.07 261.455 438.968 251.038C448.295 251.052 461.316 251.463 470.346 250.91Z"/><path fill="#F9F9F9" d="M1002.92 1222.47L1034.27 1222.47L1034.27 1254L1002.9 1254L1002.92 1222.47Z"/><path fill="#F9F9F9" d="M752.381 346.105L752.937 345.232C760.86 344.518 775.352 345.053 783.819 345.037L783.763 376.172C773.603 376.655 762.29 376.114 751.962 376.301C752.819 370.742 752.373 352.928 752.381 346.105Z"/><path fill="#F9F9F9" d="M877.507 1222.54C887.381 1222.54 899.089 1222.83 908.815 1222.39L908.816 1254L877.516 1254L877.507 1222.54Z"/><path fill="#F9F9F9" d="M345.04 376.267L376.255 376.267L376.255 407.59C386.67 407.766 397.087 407.787 407.502 407.654L407.558 406.859C408.127 397.793 407 385.724 408.196 377.421C408.626 386.875 408.405 397.628 408.407 407.183C415.864 407.155 431.387 406.709 438.156 407.564C428.009 407.769 417.859 407.863 407.71 407.844C407.667 418.25 407.685 428.656 407.761 439.061C397.411 439.085 386.575 438.951 376.269 439.279L376.393 470.324L344.892 470.356C344.821 474.42 344.906 482.478 344.379 486.213C344.12 481.1 344.032 475.981 344.115 470.862C336.576 470.887 321.247 471.327 314.369 470.485C324.571 470.27 334.776 470.175 344.98 470.2C345.121 459.807 345.06 449.412 344.797 439.022C355.112 439.065 365.814 439.252 376.096 439.026C376.496 428.374 376.346 418.468 376.171 407.832L363.25 407.791L345.04 407.844L345.04 376.267Z"/><path fill="#F9F9F9" d="M439.006 407.637C449.341 407.656 459.974 407.544 470.283 407.727C470.31 418.121 470.215 428.767 470.394 439.138C460.047 439.117 449.387 438.968 439.073 439.286L439.096 470.27C430.876 470.888 416.376 470.358 407.703 470.284L407.761 439.061C418.162 439.112 428.564 439.1 438.965 439.025C438.974 428.61 438.883 418.036 439.006 407.637Z"/><path fill="#F9F9F9" d="M940.208 847.771L941.107 848.316C941.062 857.752 940.901 867.436 941.233 876.844C942.242 877.855 941.667 877.425 943.245 877.799C941.143 878.383 941.609 877.848 940.408 879.108C939.702 884.956 940.026 903.231 940.598 909.267L911.569 909.327C910.462 909.318 910.395 909.261 909.3 909.057C908.555 905.809 908.943 882.924 908.972 877.824C919.18 878.028 929.916 877.847 940.162 877.83C940.405 867.812 940.42 857.79 940.208 847.771Z"/><path fill="#F9F9F9" d="M439.096 470.27C449.445 470.239 460.011 470.322 470.34 470.153C470.301 479.821 469.914 492.725 470.586 502.126L439.002 502.051C438.953 491.825 438.663 480.393 439.096 470.27Z"/><path fill="#F9F9F9" d="M1004.41 1096.91C1014.37 1097.2 1024.33 1097.25 1034.29 1097.06C1034.3 1101.51 1034.84 1126.72 1033.63 1128.73C1023.75 1128.44 1012.85 1128.72 1002.9 1128.79C1002.9 1119.23 1002.79 1109.33 1002.95 1099.76C1002.98 1097.63 1003.11 1097.97 1004.41 1096.91Z"/><path fill="#F9F9F9" d="M783.694 439.004C794.139 439.134 804.585 439.165 815.03 439.099L815.068 470.396C804.63 470.453 794.192 470.422 783.754 470.302L783.694 439.004Z"/><path fill="#F9F9F9" d="M1034.14 1190.78C1038.16 1191.75 1060.18 1191.29 1065.71 1191.24C1065.51 1201.61 1065.53 1211.97 1065.75 1222.34C1055.21 1222.21 1044.68 1222.25 1034.15 1222.46C1034.23 1211.9 1034.23 1201.34 1034.14 1190.78Z"/><path fill="#F9F9F9" d="M908.708 1191.24L940.193 1191.24L940.188 1222.3C929.726 1222.27 919.265 1222.3 908.804 1222.42C909.087 1212.47 908.765 1201.27 908.708 1191.24Z"/><path fill="#F9F9F9" d="M1096.95 877.724C1107.35 877.923 1117.76 877.935 1128.17 877.762L1128.17 908.96C1117.76 908.936 1107.35 909.052 1096.95 909.306L1096.95 877.724Z"/><path fill="#F9F9F9" d="M971.401 1191.24L1002.96 1191.24C1002.71 1201.58 1002.73 1211.93 1003.02 1222.27C992.485 1222.23 981.946 1222.27 971.409 1222.41C971.68 1212.23 971.458 1201.47 971.401 1191.24Z"/></svg>